<svg width="254" height="57" viewBox="0 0 254 57" fill="none" xmlns="http://www.w3.org/2000/svg">
<g filter="url(#filter0_f_2029_6096)">
<rect x="4" y="4" width="246" height="49" rx="24.5" fill="#7FDED9" fill-opacity="0.2"/>
</g>
<rect x="8.25" y="8.25" width="236.5" height="41.5" rx="20.75" fill="#BBEEEC" stroke="#7FDED9" stroke-width="0.5"/>
<path d="M51.104 34.8899V23.6899H58.464V25.4339H53.264V28.3619H57.984V30.0419H53.264V33.1459H58.464V34.8899H51.104ZM60.2241 34.8899V26.8259H62.1281L62.2881 28.1379C62.5335 27.6899 62.8801 27.3272 63.3281 27.0499C63.7868 26.7726 64.3308 26.6339 64.9601 26.6339C65.6321 26.6339 66.1975 26.7726 66.6561 27.0499C67.1148 27.3272 67.4615 27.7326 67.6961 28.2659C67.9415 28.7992 68.0641 29.4552 68.0641 30.2339V34.8899H65.9201V30.4419C65.9201 29.8019 65.7815 29.3112 65.5041 28.9699C65.2375 28.6286 64.8215 28.4579 64.2561 28.4579C63.8935 28.4579 63.5681 28.5432 63.2801 28.7139C63.0028 28.8846 62.7841 29.1299 62.6241 29.4499C62.4641 29.7592 62.3841 30.1379 62.3841 30.5859V34.8899H60.2241ZM72.0366 34.8899L69.0766 26.8259H71.3486L73.3486 32.8579L75.3486 26.8259H77.6046L74.6606 34.8899H72.0366ZM78.8115 34.8899V26.8259H80.9715V34.8899H78.8115ZM79.8995 25.7219C79.5155 25.7219 79.1955 25.6099 78.9395 25.3859C78.6942 25.1512 78.5715 24.8579 78.5715 24.5059C78.5715 24.1539 78.6942 23.8659 78.9395 23.6419C79.1955 23.4072 79.5155 23.2899 79.8995 23.2899C80.2942 23.2899 80.6142 23.4072 80.8595 23.6419C81.1155 23.8659 81.2435 24.1539 81.2435 24.5059C81.2435 24.8579 81.1155 25.1512 80.8595 25.3859C80.6142 25.6099 80.2942 25.7219 79.8995 25.7219ZM85.7141 35.0819C85.0421 35.0819 84.4875 34.9752 84.0501 34.7619C83.6128 34.5379 83.2875 34.2446 83.0741 33.8819C82.8715 33.5086 82.7701 33.0979 82.7701 32.6499C82.7701 32.1592 82.8928 31.7272 83.1381 31.3539C83.3941 30.9806 83.7728 30.6872 84.2741 30.4739C84.7861 30.2606 85.4261 30.1539 86.1941 30.1539H88.1941C88.1941 29.7592 88.1408 29.4339 88.0341 29.1779C87.9275 28.9112 87.7621 28.7139 87.5381 28.5859C87.3141 28.4579 87.0155 28.3939 86.6421 28.3939C86.2368 28.3939 85.8901 28.4846 85.6021 28.6659C85.3248 28.8366 85.1541 29.1032 85.0901 29.4659H82.9941C83.0475 28.8899 83.2341 28.3939 83.5541 27.9779C83.8848 27.5512 84.3168 27.2206 84.8501 26.9859C85.3941 26.7512 85.9968 26.6339 86.6581 26.6339C87.4155 26.6339 88.0715 26.7619 88.6261 27.0179C89.1808 27.2739 89.6075 27.6419 89.9061 28.1219C90.2048 28.6019 90.3541 29.1939 90.3541 29.8979V34.8899H88.5301L88.2901 33.6579C88.1728 33.8712 88.0341 34.0632 87.8741 34.2339C87.7141 34.4046 87.5275 34.5539 87.3141 34.6819C87.1008 34.8099 86.8608 34.9059 86.5941 34.9699C86.3275 35.0446 86.0341 35.0819 85.7141 35.0819ZM86.2261 33.4179C86.5035 33.4179 86.7488 33.3699 86.9621 33.2739C87.1861 33.1672 87.3781 33.0286 87.5381 32.8579C87.6981 32.6766 87.8208 32.4739 87.9061 32.2499C88.0021 32.0152 88.0661 31.7646 88.0981 31.4979V31.4819H86.4501C86.1195 31.4819 85.8475 31.5246 85.6341 31.6099C85.4315 31.6846 85.2821 31.7966 85.1861 31.9459C85.0901 32.0952 85.0421 32.2659 85.0421 32.4579C85.0421 32.6712 85.0901 32.8472 85.1861 32.9859C85.2821 33.1246 85.4208 33.2312 85.6021 33.3059C85.7835 33.3806 85.9915 33.4179 86.2261 33.4179ZM92.2091 34.8899V26.8259H94.1291L94.3371 28.3139C94.5291 27.9619 94.7691 27.6632 95.0571 27.4179C95.3558 27.1726 95.6918 26.9806 96.0651 26.8419C96.4491 26.7032 96.8705 26.6339 97.3291 26.6339V28.9219H96.5931C96.2731 28.9219 95.9745 28.9592 95.6971 29.0339C95.4305 29.1086 95.1958 29.2312 94.9931 29.4019C94.7905 29.5619 94.6358 29.7859 94.5291 30.0739C94.4225 30.3619 94.3691 30.7246 94.3691 31.1619V34.8899H92.2091ZM102.202 34.8899V26.8259H104.106L104.282 27.8979C104.538 27.5139 104.874 27.2099 105.29 26.9859C105.716 26.7512 106.202 26.6339 106.746 26.6339C107.151 26.6339 107.514 26.6872 107.834 26.7939C108.154 26.9006 108.436 27.0552 108.682 27.2579C108.938 27.4606 109.146 27.7166 109.306 28.0259C109.604 27.5886 109.994 27.2472 110.474 27.0019C110.954 26.7566 111.476 26.6339 112.042 26.6339C112.746 26.6339 113.332 26.7779 113.802 27.0659C114.271 27.3432 114.623 27.7486 114.858 28.2819C115.103 28.8152 115.226 29.4712 115.226 30.2499V34.8899H113.082V30.4419C113.082 29.8019 112.954 29.3112 112.698 28.9699C112.452 28.6286 112.068 28.4579 111.546 28.4579C111.204 28.4579 110.9 28.5432 110.634 28.7139C110.367 28.8846 110.159 29.1299 110.01 29.4499C109.871 29.7699 109.802 30.1539 109.802 30.6019V34.8899H107.642V30.4419C107.642 29.8019 107.514 29.3112 107.258 28.9699C107.002 28.6286 106.607 28.4579 106.074 28.4579C105.743 28.4579 105.444 28.5432 105.178 28.7139C104.922 28.8846 104.719 29.1299 104.57 29.4499C104.431 29.7699 104.362 30.1539 104.362 30.6019V34.8899H102.202ZM120.976 35.0819C120.165 35.0819 119.445 34.9112 118.816 34.5699C118.197 34.2179 117.712 33.7326 117.36 33.1139C117.019 32.4846 116.848 31.7592 116.848 30.9379C116.848 30.0952 117.019 29.3539 117.36 28.7139C117.712 28.0632 118.197 27.5566 118.816 27.1939C119.435 26.8206 120.155 26.6339 120.976 26.6339C121.776 26.6339 122.475 26.8099 123.072 27.1619C123.669 27.5139 124.133 27.9886 124.464 28.5859C124.795 29.1832 124.96 29.8606 124.96 30.6179C124.96 30.7246 124.96 30.8472 124.96 30.9859C124.96 31.1139 124.949 31.2472 124.928 31.3859H118.384V30.0739H122.784C122.752 29.5512 122.565 29.1406 122.224 28.8419C121.893 28.5432 121.477 28.3939 120.976 28.3939C120.613 28.3939 120.277 28.4792 119.968 28.6499C119.659 28.8099 119.413 29.0606 119.232 29.4019C119.061 29.7432 118.976 30.1752 118.976 30.6979V31.1619C118.976 31.5992 119.056 31.9832 119.216 32.3139C119.387 32.6339 119.621 32.8846 119.92 33.0659C120.219 33.2366 120.565 33.3219 120.96 33.3219C121.355 33.3219 121.68 33.2366 121.936 33.0659C122.203 32.8952 122.4 32.6766 122.528 32.4099H124.736C124.587 32.9112 124.336 33.3646 123.984 33.7699C123.632 34.1752 123.2 34.4952 122.688 34.7299C122.176 34.9646 121.605 35.0819 120.976 35.0819ZM126.569 34.8899V26.8259H128.473L128.633 28.1379C128.878 27.6899 129.225 27.3272 129.673 27.0499C130.132 26.7726 130.676 26.6339 131.305 26.6339C131.977 26.6339 132.542 26.7726 133.001 27.0499C133.46 27.3272 133.806 27.7326 134.041 28.2659C134.286 28.7992 134.409 29.4552 134.409 30.2339V34.8899H132.265V30.4419C132.265 29.8019 132.126 29.3112 131.849 28.9699C131.582 28.6286 131.166 28.4579 130.601 28.4579C130.238 28.4579 129.913 28.5432 129.625 28.7139C129.348 28.8846 129.129 29.1299 128.969 29.4499C128.809 29.7592 128.729 30.1379 128.729 30.5859V34.8899H126.569ZM139.58 35.0819C138.844 35.0819 138.204 34.9646 137.66 34.7299C137.116 34.4952 136.689 34.1699 136.38 33.7539C136.071 33.3379 135.895 32.8686 135.852 32.3459H137.996C138.049 32.5486 138.14 32.7352 138.268 32.9059C138.396 33.0659 138.567 33.1939 138.78 33.2899C138.993 33.3859 139.249 33.4339 139.548 33.4339C139.836 33.4339 140.071 33.3966 140.252 33.3219C140.433 33.2366 140.567 33.1246 140.652 32.9859C140.748 32.8472 140.796 32.7032 140.796 32.5539C140.796 32.3299 140.732 32.1592 140.604 32.0419C140.476 31.9139 140.289 31.8126 140.044 31.7379C139.799 31.6632 139.5 31.5886 139.148 31.5139C138.764 31.4392 138.385 31.3486 138.012 31.2419C137.649 31.1246 137.324 30.9806 137.036 30.8099C136.748 30.6392 136.519 30.4206 136.348 30.1539C136.177 29.8872 136.092 29.5566 136.092 29.1619C136.092 28.6819 136.22 28.2552 136.476 27.8819C136.732 27.4979 137.105 27.1939 137.596 26.9699C138.087 26.7459 138.679 26.6339 139.372 26.6339C140.343 26.6339 141.111 26.8526 141.676 27.2899C142.241 27.7272 142.577 28.3299 142.684 29.0979H140.652C140.588 28.8526 140.444 28.6606 140.22 28.5219C140.007 28.3726 139.719 28.2979 139.356 28.2979C138.972 28.2979 138.679 28.3672 138.476 28.5059C138.273 28.6446 138.172 28.8259 138.172 29.0499C138.172 29.1992 138.236 29.3326 138.364 29.4499C138.503 29.5672 138.695 29.6686 138.94 29.7539C139.185 29.8286 139.484 29.9032 139.836 29.9779C140.455 30.1059 140.999 30.2552 141.468 30.4259C141.937 30.5859 142.305 30.8206 142.572 31.1299C142.839 31.4286 142.972 31.8659 142.972 32.4419C142.972 32.9539 142.833 33.4126 142.556 33.8179C142.279 34.2126 141.884 34.5219 141.372 34.7459C140.871 34.9699 140.273 35.0819 139.58 35.0819ZM147.36 35.0819C146.688 35.0819 146.133 34.9752 145.696 34.7619C145.258 34.5379 144.933 34.2446 144.72 33.8819C144.517 33.5086 144.416 33.0979 144.416 32.6499C144.416 32.1592 144.538 31.7272 144.784 31.3539C145.04 30.9806 145.418 30.6872 145.92 30.4739C146.432 30.2606 147.072 30.1539 147.84 30.1539H149.84C149.84 29.7592 149.786 29.4339 149.68 29.1779C149.573 28.9112 149.408 28.7139 149.184 28.5859C148.96 28.4579 148.661 28.3939 148.288 28.3939C147.882 28.3939 147.536 28.4846 147.248 28.6659C146.97 28.8366 146.8 29.1032 146.736 29.4659H144.64C144.693 28.8899 144.88 28.3939 145.2 27.9779C145.53 27.5512 145.962 27.2206 146.496 26.9859C147.04 26.7512 147.642 26.6339 148.304 26.6339C149.061 26.6339 149.717 26.7619 150.272 27.0179C150.826 27.2739 151.253 27.6419 151.552 28.1219C151.85 28.6019 152 29.1939 152 29.8979V34.8899H150.176L149.936 33.6579C149.818 33.8712 149.68 34.0632 149.52 34.2339C149.36 34.4046 149.173 34.5539 148.96 34.6819C148.746 34.8099 148.506 34.9059 148.24 34.9699C147.973 35.0446 147.68 35.0819 147.36 35.0819ZM147.872 33.4179C148.149 33.4179 148.394 33.3699 148.608 33.2739C148.832 33.1672 149.024 33.0286 149.184 32.8579C149.344 32.6766 149.466 32.4739 149.552 32.2499C149.648 32.0152 149.712 31.7646 149.744 31.4979V31.4819H148.096C147.765 31.4819 147.493 31.5246 147.28 31.6099C147.077 31.6846 146.928 31.7966 146.832 31.9459C146.736 32.0952 146.688 32.2659 146.688 32.4579C146.688 32.6712 146.736 32.8472 146.832 32.9859C146.928 33.1246 147.066 33.2312 147.248 33.3059C147.429 33.3806 147.637 33.4179 147.872 33.4179ZM152.335 38.4099V36.5699H152.991C153.332 36.5699 153.572 36.5006 153.711 36.3619C153.86 36.2232 153.935 35.9992 153.935 35.6899V26.8259H156.095V35.6739C156.095 36.3352 155.977 36.8632 155.743 37.2579C155.519 37.6632 155.199 37.9566 154.783 38.1379C154.367 38.3192 153.876 38.4099 153.311 38.4099H152.335ZM155.023 25.7219C154.628 25.7219 154.308 25.6099 154.063 25.3859C153.817 25.1512 153.695 24.8579 153.695 24.5059C153.695 24.1539 153.817 23.8659 154.063 23.6419C154.308 23.4072 154.628 23.2899 155.023 23.2899C155.417 23.2899 155.737 23.4072 155.983 23.6419C156.228 23.8659 156.351 24.1539 156.351 24.5059C156.351 24.8579 156.228 25.1512 155.983 25.3859C155.737 25.6099 155.417 25.7219 155.023 25.7219ZM161.957 35.0819C161.147 35.0819 160.427 34.9112 159.797 34.5699C159.179 34.2179 158.693 33.7326 158.341 33.1139C158 32.4846 157.829 31.7592 157.829 30.9379C157.829 30.0952 158 29.3539 158.341 28.7139C158.693 28.0632 159.179 27.5566 159.797 27.1939C160.416 26.8206 161.136 26.6339 161.957 26.6339C162.757 26.6339 163.456 26.8099 164.053 27.1619C164.651 27.5139 165.115 27.9886 165.445 28.5859C165.776 29.1832 165.941 29.8606 165.941 30.6179C165.941 30.7246 165.941 30.8472 165.941 30.9859C165.941 31.1139 165.931 31.2472 165.909 31.3859H159.365V30.0739H163.765C163.733 29.5512 163.547 29.1406 163.205 28.8419C162.875 28.5432 162.459 28.3939 161.957 28.3939C161.595 28.3939 161.259 28.4792 160.949 28.6499C160.64 28.8099 160.395 29.0606 160.213 29.4019C160.043 29.7432 159.957 30.1752 159.957 30.6979V31.1619C159.957 31.5992 160.037 31.9832 160.197 32.3139C160.368 32.6339 160.603 32.8846 160.901 33.0659C161.2 33.2366 161.547 33.3219 161.941 33.3219C162.336 33.3219 162.661 33.2366 162.917 33.0659C163.184 32.8952 163.381 32.6766 163.509 32.4099H165.717C165.568 32.9112 165.317 33.3646 164.965 33.7699C164.613 34.1752 164.181 34.4952 163.669 34.7299C163.157 34.9646 162.587 35.0819 161.957 35.0819Z" fill="#00AAAA"/>
<path d="M189.798 34.8859C189.41 35.724 189.038 36.5134 188.686 37.3096C188.527 37.6702 188.313 37.9426 187.875 37.9362C187.501 37.932 187.288 37.7289 187.129 37.2563C186.574 35.6042 186.024 33.9456 185.447 32.2985C185.359 32.0389 185.433 31.9102 185.614 31.7459C188.87 28.8728 192.123 25.9891 195.378 23.1107C195.44 23.0573 195.488 22.9905 195.504 22.8582C195.397 22.9163 195.287 22.9637 195.186 23.0258C191.8 25.2015 188.415 27.3825 185.035 29.557C184.539 29.8769 184.036 30.1874 183.542 30.518C183.368 30.636 183.252 30.6289 183.083 30.5165C182.27 29.9747 181.446 29.4579 180.633 28.9161C180.072 28.5462 180.127 27.8794 180.731 27.5796C184.718 25.5968 188.7 23.6206 192.688 21.6379C194.895 20.5417 197.102 19.4402 199.31 18.344C199.445 18.2798 199.577 18.2049 199.718 18.1672C200.282 18.0218 200.741 18.4988 200.608 19.0996C200.182 21.0366 199.745 22.9709 199.318 24.9026C198.374 29.1502 197.43 33.3978 196.492 37.6442C196.476 37.7261 196.454 37.8092 196.433 37.8924C196.261 38.5244 195.746 38.7314 195.189 38.3775C194.119 37.6928 193.064 36.9938 192 36.3078C191.286 35.8443 190.572 35.3808 189.809 34.8834L189.798 34.8859Z" fill="#00AAAA"/>
<defs>
<filter id="filter0_f_2029_6096" x="0" y="0" width="254" height="57" filterUnits="userSpaceOnUse" color-interpolation-filters="sRGB">
<feFlood flood-opacity="0" result="BackgroundImageFix"/>
<feBlend mode="normal" in="SourceGraphic" in2="BackgroundImageFix" result="shape"/>
<feGaussianBlur stdDeviation="2" result="effect1_foregroundBlur_2029_6096"/>
</filter>
</defs>
</svg>
