<svg width="780" height="146" viewBox="0 0 780 146" fill="none" xmlns="http://www.w3.org/2000/svg">
<g filter="url(#filter0_f_2029_6075)">
<ellipse cx="36" cy="44.5" rx="22" ry="21.5" fill="#7FDED9" fill-opacity="0.2"/>
</g>
<circle cx="35.5" cy="44.5" r="18.25" fill="#BBEEEC" stroke="#7FDED9" stroke-width="0.5"/>
<g clip-path="url(#clip0_2029_6075)">
<path d="M45.0247 40.8372C44.2778 39.5244 43.1347 38.3819 41.7191 37.5329C40.3465 36.71 38.7896 36.2018 37.2173 36.0628L36.8297 36.0285L36.7153 35.9997L35.2969 36.0101L35.2825 36.0108C33.6138 36.1373 32.0902 36.5588 30.7542 37.2636C28.0374 38.6966 26.3091 41.0857 26.0125 43.8187L26 45.1304L26.0011 45.1408C26.1743 46.8311 26.8989 48.4101 28.0983 49.7124C28.0754 50.4373 27.8018 51.0786 27.3231 51.5251L26.3299 52.4516L27.502 52.8434L27.507 52.8451C27.8437 52.9484 28.1948 53 28.5576 53C28.8933 53 29.2393 52.9557 29.5932 52.8673C30.1931 52.7172 30.8159 52.435 31.4011 52.0488C33.0422 52.7609 34.868 53.0829 36.6902 52.9813C38.354 52.8801 39.9776 52.4215 41.386 51.6554C42.8608 50.8532 44.0731 49.7232 44.8917 48.3868C45.592 47.2436 45.9749 45.944 45.9989 44.6285C46.0229 43.3105 45.6859 41.9995 45.0247 40.8368V40.8372ZM29.4906 49.2282L29.4842 49.1578L29.4329 49.1075C28.0793 47.7736 27.3568 46.0847 27.3988 44.3512C27.4407 42.6086 28.2493 40.9443 29.6753 39.6645C31.2637 38.2387 33.4126 37.4206 35.7264 37.3603C38.0349 37.3003 40.235 37.9999 41.9231 39.3303C42.8188 40.0361 43.5116 40.8847 43.9824 41.8522C44.8002 43.5331 44.8006 45.4625 43.9824 47.1462C43.513 48.1119 42.8134 48.9664 41.9041 49.6843C40.4681 50.7999 38.6975 51.4665 36.7838 51.6124C34.8852 51.757 33.0124 51.3784 31.3677 50.5177L31.2462 50.4539L31.1404 50.5399C30.6187 50.9638 29.8481 51.463 28.989 51.6003C29.3927 50.8744 29.5656 50.0618 29.4906 49.2282Z" fill="#00BABB"/>
<path d="M35.9973 45.7079C36.6868 45.7079 37.2479 45.1658 37.2479 44.4992C37.2479 43.8326 36.6868 43.2904 35.9973 43.2904C35.3077 43.2904 34.7466 43.8326 34.7466 44.4992C34.7466 45.1658 35.3077 45.7079 35.9973 45.7079Z" fill="#00BABB"/>
<path d="M32.972 44.4988C32.972 43.8322 32.4109 43.29 31.7214 43.29C31.0319 43.29 30.4707 43.8322 30.4707 44.4988C30.4707 45.1654 31.0319 45.7076 31.7214 45.7076C32.4109 45.7076 32.972 45.1654 32.972 44.4988Z" fill="#00BABB"/>
<path d="M40.2718 45.7072C40.9613 45.7072 41.5221 45.1651 41.5221 44.4988C41.5221 43.8325 40.9613 43.29 40.2718 43.29C39.5823 43.29 39.0215 43.8322 39.0215 44.4988C39.0215 45.1654 39.5823 45.7072 40.2718 45.7072Z" fill="#00BABB"/>
</g>
<path d="M81.745 50.18C80.695 50.18 79.79 49.955 79.03 49.505C78.28 49.045 77.7 48.41 77.29 47.6C76.89 46.78 76.69 45.835 76.69 44.765C76.69 43.695 76.89 42.75 77.29 41.93C77.7 41.11 78.28 40.47 79.03 40.01C79.79 39.55 80.695 39.32 81.745 39.32C83.015 39.32 84.055 39.635 84.865 40.265C85.675 40.895 86.18 41.785 86.38 42.935H84.175C84.045 42.375 83.77 41.94 83.35 41.63C82.94 41.31 82.4 41.15 81.73 41.15C81.11 41.15 80.575 41.3 80.125 41.6C79.685 41.89 79.345 42.305 79.105 42.845C78.865 43.375 78.745 44.015 78.745 44.765C78.745 45.505 78.865 46.145 79.105 46.685C79.345 47.225 79.685 47.64 80.125 47.93C80.575 48.22 81.11 48.365 81.73 48.365C82.4 48.365 82.94 48.22 83.35 47.93C83.76 47.63 84.03 47.215 84.16 46.685H86.38C86.18 47.775 85.675 48.63 84.865 49.25C84.055 49.87 83.015 50.18 81.745 50.18ZM90.7342 50.18C90.1242 50.18 89.5992 50.055 89.1592 49.805C88.7292 49.545 88.3992 49.17 88.1692 48.68C87.9392 48.18 87.8242 47.565 87.8242 46.835V42.44H89.8492V46.625C89.8492 47.235 89.9742 47.695 90.2242 48.005C90.4842 48.315 90.8792 48.47 91.4092 48.47C91.7492 48.47 92.0492 48.395 92.3092 48.245C92.5692 48.085 92.7742 47.86 92.9242 47.57C93.0842 47.27 93.1642 46.905 93.1642 46.475V42.44H95.1742V50H93.4042L93.2392 48.77C93.0192 49.2 92.6942 49.545 92.2642 49.805C91.8342 50.055 91.3242 50.18 90.7342 50.18ZM100.637 50.18C99.8774 50.18 99.2024 50.02 98.6124 49.7C98.0324 49.37 97.5774 48.915 97.2474 48.335C96.9274 47.745 96.7674 47.065 96.7674 46.295C96.7674 45.505 96.9274 44.81 97.2474 44.21C97.5774 43.6 98.0324 43.125 98.6124 42.785C99.1924 42.435 99.8674 42.26 100.637 42.26C101.387 42.26 102.042 42.425 102.602 42.755C103.162 43.085 103.597 43.53 103.907 44.09C104.217 44.65 104.372 45.285 104.372 45.995C104.372 46.095 104.372 46.21 104.372 46.34C104.372 46.46 104.362 46.585 104.342 46.715H98.2074V45.485H102.332C102.302 44.995 102.127 44.61 101.807 44.33C101.497 44.05 101.107 43.91 100.637 43.91C100.297 43.91 99.9824 43.99 99.6924 44.15C99.4024 44.3 99.1724 44.535 99.0024 44.855C98.8424 45.175 98.7624 45.58 98.7624 46.07V46.505C98.7624 46.915 98.8374 47.275 98.9874 47.585C99.1474 47.885 99.3674 48.12 99.6474 48.29C99.9274 48.45 100.252 48.53 100.622 48.53C100.992 48.53 101.297 48.45 101.537 48.29C101.787 48.13 101.972 47.925 102.092 47.675H104.162C104.022 48.145 103.787 48.57 103.457 48.95C103.127 49.33 102.722 49.63 102.242 49.85C101.762 50.07 101.227 50.18 100.637 50.18ZM99.0174 41.795L98.8374 40.46L102.122 38.585L102.362 40.13L99.0174 41.795ZM105.881 50V42.44H107.666L107.816 43.67C108.046 43.25 108.371 42.91 108.791 42.65C109.221 42.39 109.731 42.26 110.321 42.26C110.951 42.26 111.481 42.39 111.911 42.65C112.341 42.91 112.666 43.29 112.886 43.79C113.116 44.29 113.231 44.905 113.231 45.635V50H111.221V45.83C111.221 45.23 111.091 44.77 110.831 44.45C110.581 44.13 110.191 43.97 109.661 43.97C109.321 43.97 109.016 44.05 108.746 44.21C108.486 44.37 108.281 44.6 108.131 44.9C107.981 45.19 107.906 45.545 107.906 45.965V50H105.881ZM118.394 50C117.864 50 117.399 49.92 116.999 49.76C116.609 49.59 116.304 49.315 116.084 48.935C115.864 48.545 115.754 48.015 115.754 47.345V44.135H114.464V42.44H115.754L115.979 40.385H117.779V42.44H119.774V44.135H117.779V47.375C117.779 47.715 117.854 47.95 118.004 48.08C118.154 48.21 118.409 48.275 118.769 48.275H119.759V50H118.394ZM123.878 50.18C123.248 50.18 122.728 50.08 122.318 49.88C121.908 49.67 121.603 49.395 121.403 49.055C121.213 48.705 121.118 48.32 121.118 47.9C121.118 47.44 121.233 47.035 121.463 46.685C121.703 46.335 122.058 46.06 122.528 45.86C123.008 45.66 123.608 45.56 124.328 45.56H126.203C126.203 45.19 126.153 44.885 126.053 44.645C125.953 44.395 125.798 44.21 125.588 44.09C125.378 43.97 125.098 43.91 124.748 43.91C124.368 43.91 124.043 43.995 123.773 44.165C123.513 44.325 123.353 44.575 123.293 44.915H121.328C121.378 44.375 121.553 43.91 121.853 43.52C122.163 43.12 122.568 42.81 123.068 42.59C123.578 42.37 124.143 42.26 124.763 42.26C125.473 42.26 126.088 42.38 126.608 42.62C127.128 42.86 127.528 43.205 127.808 43.655C128.088 44.105 128.228 44.66 128.228 45.32V50H126.518L126.293 48.845C126.183 49.045 126.053 49.225 125.903 49.385C125.753 49.545 125.578 49.685 125.378 49.805C125.178 49.925 124.953 50.015 124.703 50.075C124.453 50.145 124.178 50.18 123.878 50.18ZM124.358 48.62C124.618 48.62 124.848 48.575 125.048 48.485C125.258 48.385 125.438 48.255 125.588 48.095C125.738 47.925 125.853 47.735 125.933 47.525C126.023 47.305 126.083 47.07 126.113 46.82V46.805H124.568C124.258 46.805 124.003 46.845 123.803 46.925C123.613 46.995 123.473 47.1 123.383 47.24C123.293 47.38 123.248 47.54 123.248 47.72C123.248 47.92 123.293 48.085 123.383 48.215C123.473 48.345 123.603 48.445 123.773 48.515C123.943 48.585 124.138 48.62 124.358 48.62ZM129.967 50V42.44H131.752L131.902 43.67C132.132 43.25 132.457 42.91 132.877 42.65C133.307 42.39 133.817 42.26 134.407 42.26C135.037 42.26 135.567 42.39 135.997 42.65C136.427 42.91 136.752 43.29 136.972 43.79C137.202 44.29 137.317 44.905 137.317 45.635V50H135.307V45.83C135.307 45.23 135.177 44.77 134.917 44.45C134.667 44.13 134.277 43.97 133.747 43.97C133.407 43.97 133.102 44.05 132.832 44.21C132.572 44.37 132.367 44.6 132.217 44.9C132.067 45.19 131.992 45.545 131.992 45.965V50H129.967ZM142.645 50.18C141.925 50.18 141.275 50.015 140.695 49.685C140.125 49.345 139.67 48.88 139.33 48.29C139 47.69 138.835 47.005 138.835 46.235C138.835 45.445 139 44.755 139.33 44.165C139.67 43.565 140.13 43.1 140.71 42.77C141.29 42.43 141.94 42.26 142.66 42.26C143.39 42.26 144.04 42.43 144.61 42.77C145.19 43.1 145.645 43.565 145.975 44.165C146.315 44.755 146.485 45.44 146.485 46.22C146.485 47 146.315 47.69 145.975 48.29C145.645 48.88 145.19 49.345 144.61 49.685C144.03 50.015 143.375 50.18 142.645 50.18ZM142.645 48.425C142.985 48.425 143.285 48.345 143.545 48.185C143.815 48.025 144.025 47.78 144.175 47.45C144.335 47.12 144.415 46.71 144.415 46.22C144.415 45.73 144.335 45.325 144.175 45.005C144.025 44.675 143.815 44.43 143.545 44.27C143.285 44.1 142.99 44.015 142.66 44.015C142.34 44.015 142.045 44.1 141.775 44.27C141.505 44.43 141.29 44.675 141.13 45.005C140.98 45.325 140.905 45.73 140.905 46.22C140.905 46.71 140.98 47.12 141.13 47.45C141.29 47.78 141.5 48.025 141.76 48.185C142.03 48.345 142.325 48.425 142.645 48.425ZM151.17 50.18C150.48 50.18 149.88 50.07 149.37 49.85C148.86 49.63 148.46 49.325 148.17 48.935C147.88 48.545 147.715 48.105 147.675 47.615H149.685C149.735 47.805 149.82 47.98 149.94 48.14C150.06 48.29 150.22 48.41 150.42 48.5C150.62 48.59 150.86 48.635 151.14 48.635C151.41 48.635 151.63 48.6 151.8 48.53C151.97 48.45 152.095 48.345 152.175 48.215C152.265 48.085 152.31 47.95 152.31 47.81C152.31 47.6 152.25 47.44 152.13 47.33C152.01 47.21 151.835 47.115 151.605 47.045C151.375 46.975 151.095 46.905 150.765 46.835C150.405 46.765 150.05 46.68 149.7 46.58C149.36 46.47 149.055 46.335 148.785 46.175C148.515 46.015 148.3 45.81 148.14 45.56C147.98 45.31 147.9 45 147.9 44.63C147.9 44.18 148.02 43.78 148.26 43.43C148.5 43.07 148.85 42.785 149.31 42.575C149.77 42.365 150.325 42.26 150.975 42.26C151.885 42.26 152.605 42.465 153.135 42.875C153.665 43.285 153.98 43.85 154.08 44.57H152.175C152.115 44.34 151.98 44.16 151.77 44.03C151.57 43.89 151.3 43.82 150.96 43.82C150.6 43.82 150.325 43.885 150.135 44.015C149.945 44.145 149.85 44.315 149.85 44.525C149.85 44.665 149.91 44.79 150.03 44.9C150.16 45.01 150.34 45.105 150.57 45.185C150.8 45.255 151.08 45.325 151.41 45.395C151.99 45.515 152.5 45.655 152.94 45.815C153.38 45.965 153.725 46.185 153.975 46.475C154.225 46.755 154.35 47.165 154.35 47.705C154.35 48.185 154.22 48.615 153.96 48.995C153.7 49.365 153.33 49.655 152.85 49.865C152.38 50.075 151.82 50.18 151.17 50.18ZM159.294 50V42.44H161.079L161.244 43.445C161.484 43.085 161.799 42.8 162.189 42.59C162.589 42.37 163.044 42.26 163.554 42.26C163.934 42.26 164.274 42.31 164.574 42.41C164.874 42.51 165.139 42.655 165.369 42.845C165.609 43.035 165.804 43.275 165.954 43.565C166.234 43.155 166.599 42.835 167.049 42.605C167.499 42.375 167.989 42.26 168.519 42.26C169.179 42.26 169.729 42.395 170.169 42.665C170.609 42.925 170.939 43.305 171.159 43.805C171.389 44.305 171.504 44.92 171.504 45.65V50H169.494V45.83C169.494 45.23 169.374 44.77 169.134 44.45C168.904 44.13 168.544 43.97 168.054 43.97C167.734 43.97 167.449 44.05 167.199 44.21C166.949 44.37 166.754 44.6 166.614 44.9C166.484 45.2 166.419 45.56 166.419 45.98V50H164.394V45.83C164.394 45.23 164.274 44.77 164.034 44.45C163.794 44.13 163.424 43.97 162.924 43.97C162.614 43.97 162.334 44.05 162.084 44.21C161.844 44.37 161.654 44.6 161.514 44.9C161.384 45.2 161.319 45.56 161.319 45.98V50H159.294ZM175.815 50.18C175.185 50.18 174.665 50.08 174.255 49.88C173.845 49.67 173.54 49.395 173.34 49.055C173.15 48.705 173.055 48.32 173.055 47.9C173.055 47.44 173.17 47.035 173.4 46.685C173.64 46.335 173.995 46.06 174.465 45.86C174.945 45.66 175.545 45.56 176.265 45.56H178.14C178.14 45.19 178.09 44.885 177.99 44.645C177.89 44.395 177.735 44.21 177.525 44.09C177.315 43.97 177.035 43.91 176.685 43.91C176.305 43.91 175.98 43.995 175.71 44.165C175.45 44.325 175.29 44.575 175.23 44.915H173.265C173.315 44.375 173.49 43.91 173.79 43.52C174.1 43.12 174.505 42.81 175.005 42.59C175.515 42.37 176.08 42.26 176.7 42.26C177.41 42.26 178.025 42.38 178.545 42.62C179.065 42.86 179.465 43.205 179.745 43.655C180.025 44.105 180.165 44.66 180.165 45.32V50H178.455L178.23 48.845C178.12 49.045 177.99 49.225 177.84 49.385C177.69 49.545 177.515 49.685 177.315 49.805C177.115 49.925 176.89 50.015 176.64 50.075C176.39 50.145 176.115 50.18 175.815 50.18ZM176.295 48.62C176.555 48.62 176.785 48.575 176.985 48.485C177.195 48.385 177.375 48.255 177.525 48.095C177.675 47.925 177.79 47.735 177.87 47.525C177.96 47.305 178.02 47.07 178.05 46.82V46.805H176.505C176.195 46.805 175.94 46.845 175.74 46.925C175.55 46.995 175.41 47.1 175.32 47.24C175.23 47.38 175.185 47.54 175.185 47.72C175.185 47.92 175.23 48.085 175.32 48.215C175.41 48.345 175.54 48.445 175.71 48.515C175.88 48.585 176.075 48.62 176.295 48.62ZM175.035 41.795L174.855 40.46L178.14 38.585L178.38 40.13L175.035 41.795ZM184.994 50.18C184.304 50.18 183.704 50.07 183.194 49.85C182.684 49.63 182.284 49.325 181.994 48.935C181.704 48.545 181.539 48.105 181.499 47.615H183.509C183.559 47.805 183.644 47.98 183.764 48.14C183.884 48.29 184.044 48.41 184.244 48.5C184.444 48.59 184.684 48.635 184.964 48.635C185.234 48.635 185.454 48.6 185.624 48.53C185.794 48.45 185.919 48.345 185.999 48.215C186.089 48.085 186.134 47.95 186.134 47.81C186.134 47.6 186.074 47.44 185.954 47.33C185.834 47.21 185.659 47.115 185.429 47.045C185.199 46.975 184.919 46.905 184.589 46.835C184.229 46.765 183.874 46.68 183.524 46.58C183.184 46.47 182.879 46.335 182.609 46.175C182.339 46.015 182.124 45.81 181.964 45.56C181.804 45.31 181.724 45 181.724 44.63C181.724 44.18 181.844 43.78 182.084 43.43C182.324 43.07 182.674 42.785 183.134 42.575C183.594 42.365 184.149 42.26 184.799 42.26C185.709 42.26 186.429 42.465 186.959 42.875C187.489 43.285 187.804 43.85 187.904 44.57H185.999C185.939 44.34 185.804 44.16 185.594 44.03C185.394 43.89 185.124 43.82 184.784 43.82C184.424 43.82 184.149 43.885 183.959 44.015C183.769 44.145 183.674 44.315 183.674 44.525C183.674 44.665 183.734 44.79 183.854 44.9C183.984 45.01 184.164 45.105 184.394 45.185C184.624 45.255 184.904 45.325 185.234 45.395C185.814 45.515 186.324 45.655 186.764 45.815C187.204 45.965 187.549 46.185 187.799 46.475C188.049 46.755 188.174 47.165 188.174 47.705C188.174 48.185 188.044 48.615 187.784 48.995C187.524 49.365 187.154 49.655 186.674 49.865C186.204 50.075 185.644 50.18 184.994 50.18ZM196.208 50.18C195.518 50.18 194.918 50.07 194.408 49.85C193.898 49.63 193.498 49.325 193.208 48.935C192.918 48.545 192.753 48.105 192.713 47.615H194.723C194.773 47.805 194.858 47.98 194.978 48.14C195.098 48.29 195.258 48.41 195.458 48.5C195.658 48.59 195.898 48.635 196.178 48.635C196.448 48.635 196.668 48.6 196.838 48.53C197.008 48.45 197.133 48.345 197.213 48.215C197.303 48.085 197.348 47.95 197.348 47.81C197.348 47.6 197.288 47.44 197.168 47.33C197.048 47.21 196.873 47.115 196.643 47.045C196.413 46.975 196.133 46.905 195.803 46.835C195.443 46.765 195.088 46.68 194.738 46.58C194.398 46.47 194.093 46.335 193.823 46.175C193.553 46.015 193.338 45.81 193.178 45.56C193.018 45.31 192.938 45 192.938 44.63C192.938 44.18 193.058 43.78 193.298 43.43C193.538 43.07 193.888 42.785 194.348 42.575C194.808 42.365 195.363 42.26 196.013 42.26C196.923 42.26 197.643 42.465 198.173 42.875C198.703 43.285 199.018 43.85 199.118 44.57H197.213C197.153 44.34 197.018 44.16 196.808 44.03C196.608 43.89 196.338 43.82 195.998 43.82C195.638 43.82 195.363 43.885 195.173 44.015C194.983 44.145 194.888 44.315 194.888 44.525C194.888 44.665 194.948 44.79 195.068 44.9C195.198 45.01 195.378 45.105 195.608 45.185C195.838 45.255 196.118 45.325 196.448 45.395C197.028 45.515 197.538 45.655 197.978 45.815C198.418 45.965 198.763 46.185 199.013 46.475C199.263 46.755 199.388 47.165 199.388 47.705C199.388 48.185 199.258 48.615 198.998 48.995C198.738 49.365 198.368 49.655 197.888 49.865C197.418 50.075 196.858 50.18 196.208 50.18ZM204.521 50.18C203.801 50.18 203.151 50.015 202.571 49.685C202.001 49.345 201.546 48.88 201.206 48.29C200.876 47.69 200.711 47.005 200.711 46.235C200.711 45.445 200.876 44.755 201.206 44.165C201.546 43.565 202.006 43.1 202.586 42.77C203.166 42.43 203.816 42.26 204.536 42.26C205.266 42.26 205.916 42.43 206.486 42.77C207.066 43.1 207.521 43.565 207.851 44.165C208.191 44.755 208.361 45.44 208.361 46.22C208.361 47 208.191 47.69 207.851 48.29C207.521 48.88 207.066 49.345 206.486 49.685C205.906 50.015 205.251 50.18 204.521 50.18ZM204.521 48.425C204.861 48.425 205.161 48.345 205.421 48.185C205.691 48.025 205.901 47.78 206.051 47.45C206.211 47.12 206.291 46.71 206.291 46.22C206.291 45.73 206.211 45.325 206.051 45.005C205.901 44.675 205.691 44.43 205.421 44.27C205.161 44.1 204.866 44.015 204.536 44.015C204.216 44.015 203.921 44.1 203.651 44.27C203.381 44.43 203.166 44.675 203.006 45.005C202.856 45.325 202.781 45.73 202.781 46.22C202.781 46.71 202.856 47.12 203.006 47.45C203.166 47.78 203.376 48.025 203.636 48.185C203.906 48.345 204.201 48.425 204.521 48.425ZM214.426 50.18C214.036 50.18 213.686 50.13 213.376 50.03C213.076 49.93 212.806 49.795 212.566 49.625C212.336 49.445 212.141 49.245 211.981 49.025L211.756 50H209.956V39.2H211.981V43.49C212.221 43.14 212.536 42.85 212.926 42.62C213.326 42.38 213.821 42.26 214.411 42.26C215.111 42.26 215.731 42.435 216.271 42.785C216.821 43.125 217.251 43.595 217.561 44.195C217.881 44.785 218.041 45.465 218.041 46.235C218.041 46.985 217.881 47.66 217.561 48.26C217.251 48.86 216.826 49.33 216.286 49.67C215.746 50.01 215.126 50.18 214.426 50.18ZM213.946 48.41C214.346 48.41 214.696 48.32 214.996 48.14C215.306 47.95 215.546 47.695 215.716 47.375C215.886 47.045 215.971 46.665 215.971 46.235C215.971 45.805 215.886 45.425 215.716 45.095C215.546 44.755 215.306 44.495 214.996 44.315C214.696 44.125 214.346 44.03 213.946 44.03C213.556 44.03 213.206 44.125 212.896 44.315C212.596 44.495 212.356 44.75 212.176 45.08C212.006 45.41 211.921 45.79 211.921 46.22C211.921 46.65 212.006 47.035 212.176 47.375C212.356 47.705 212.596 47.96 212.896 48.14C213.206 48.32 213.556 48.41 213.946 48.41ZM219.635 50V42.44H221.435L221.63 43.835C221.81 43.505 222.035 43.225 222.305 42.995C222.585 42.765 222.9 42.585 223.25 42.455C223.61 42.325 224.005 42.26 224.435 42.26V44.405H223.745C223.445 44.405 223.165 44.44 222.905 44.51C222.655 44.58 222.435 44.695 222.245 44.855C222.055 45.005 221.91 45.215 221.81 45.485C221.71 45.755 221.66 46.095 221.66 46.505V50H219.635ZM229.136 50.18C228.376 50.18 227.701 50.02 227.111 49.7C226.531 49.37 226.076 48.915 225.746 48.335C225.426 47.745 225.266 47.065 225.266 46.295C225.266 45.505 225.426 44.81 225.746 44.21C226.076 43.6 226.531 43.125 227.111 42.785C227.691 42.435 228.366 42.26 229.136 42.26C229.886 42.26 230.541 42.425 231.101 42.755C231.661 43.085 232.096 43.53 232.406 44.09C232.716 44.65 232.871 45.285 232.871 45.995C232.871 46.095 232.871 46.21 232.871 46.34C232.871 46.46 232.861 46.585 232.841 46.715H226.706V45.485H230.831C230.801 44.995 230.626 44.61 230.306 44.33C229.996 44.05 229.606 43.91 229.136 43.91C228.796 43.91 228.481 43.99 228.191 44.15C227.901 44.3 227.671 44.535 227.501 44.855C227.341 45.175 227.261 45.58 227.261 46.07V46.505C227.261 46.915 227.336 47.275 227.486 47.585C227.646 47.885 227.866 48.12 228.146 48.29C228.426 48.45 228.751 48.53 229.121 48.53C229.491 48.53 229.796 48.45 230.036 48.29C230.286 48.13 230.471 47.925 230.591 47.675H232.661C232.521 48.145 232.286 48.57 231.956 48.95C231.626 49.33 231.221 49.63 230.741 49.85C230.261 50.07 229.726 50.18 229.136 50.18ZM241.165 50C240.635 50 240.17 49.92 239.77 49.76C239.38 49.59 239.075 49.315 238.855 48.935C238.635 48.545 238.525 48.015 238.525 47.345V44.135H237.235V42.44H238.525L238.75 40.385H240.55V42.44H242.545V44.135H240.55V47.375C240.55 47.715 240.625 47.95 240.775 48.08C240.925 48.21 241.18 48.275 241.54 48.275H242.53V50H241.165ZM246.919 50.18C246.309 50.18 245.784 50.055 245.344 49.805C244.914 49.545 244.584 49.17 244.354 48.68C244.124 48.18 244.009 47.565 244.009 46.835V42.44H246.034V46.625C246.034 47.235 246.159 47.695 246.409 48.005C246.669 48.315 247.064 48.47 247.594 48.47C247.934 48.47 248.234 48.395 248.494 48.245C248.754 48.085 248.959 47.86 249.109 47.57C249.269 47.27 249.349 46.905 249.349 46.475V42.44H251.359V50H249.589L249.424 48.77C249.204 49.2 248.879 49.545 248.449 49.805C248.019 50.055 247.509 50.18 246.919 50.18ZM256.572 53.3V42.44H258.372L258.597 43.49C258.757 43.27 258.947 43.07 259.167 42.89C259.387 42.7 259.647 42.55 259.947 42.44C260.257 42.32 260.617 42.26 261.027 42.26C261.737 42.26 262.362 42.435 262.902 42.785C263.442 43.135 263.867 43.61 264.177 44.21C264.497 44.8 264.657 45.475 264.657 46.235C264.657 46.995 264.497 47.675 264.177 48.275C263.857 48.865 263.427 49.33 262.887 49.67C262.347 50.01 261.732 50.18 261.042 50.18C260.482 50.18 259.997 50.08 259.587 49.88C259.187 49.67 258.857 49.385 258.597 49.025V53.3H256.572ZM260.562 48.41C260.962 48.41 261.312 48.32 261.612 48.14C261.922 47.96 262.162 47.705 262.332 47.375C262.502 47.045 262.587 46.665 262.587 46.235C262.587 45.805 262.502 45.425 262.332 45.095C262.162 44.755 261.922 44.495 261.612 44.315C261.312 44.125 260.962 44.03 260.562 44.03C260.172 44.03 259.822 44.125 259.512 44.315C259.212 44.495 258.972 44.75 258.792 45.08C258.622 45.41 258.537 45.79 258.537 46.22C258.537 46.65 258.622 47.035 258.792 47.375C258.972 47.705 259.212 47.96 259.512 48.14C259.822 48.32 260.172 48.41 260.562 48.41ZM266.251 50V42.44H268.051L268.246 43.835C268.426 43.505 268.651 43.225 268.921 42.995C269.201 42.765 269.516 42.585 269.866 42.455C270.226 42.325 270.621 42.26 271.051 42.26V44.405H270.361C270.061 44.405 269.781 44.44 269.521 44.51C269.271 44.58 269.051 44.695 268.861 44.855C268.671 45.005 268.526 45.215 268.426 45.485C268.326 45.755 268.276 46.095 268.276 46.505V50H266.251ZM275.692 50.18C274.972 50.18 274.322 50.015 273.742 49.685C273.172 49.345 272.717 48.88 272.377 48.29C272.047 47.69 271.882 47.005 271.882 46.235C271.882 45.445 272.047 44.755 272.377 44.165C272.717 43.565 273.177 43.1 273.757 42.77C274.337 42.43 274.987 42.26 275.707 42.26C276.437 42.26 277.087 42.43 277.657 42.77C278.237 43.1 278.692 43.565 279.022 44.165C279.362 44.755 279.532 45.44 279.532 46.22C279.532 47 279.362 47.69 279.022 48.29C278.692 48.88 278.237 49.345 277.657 49.685C277.077 50.015 276.422 50.18 275.692 50.18ZM275.692 48.425C276.032 48.425 276.332 48.345 276.592 48.185C276.862 48.025 277.072 47.78 277.222 47.45C277.382 47.12 277.462 46.71 277.462 46.22C277.462 45.73 277.382 45.325 277.222 45.005C277.072 44.675 276.862 44.43 276.592 44.27C276.332 44.1 276.037 44.015 275.707 44.015C275.387 44.015 275.092 44.1 274.822 44.27C274.552 44.43 274.337 44.675 274.177 45.005C274.027 45.325 273.952 45.73 273.952 46.22C273.952 46.71 274.027 47.12 274.177 47.45C274.337 47.78 274.547 48.025 274.807 48.185C275.077 48.345 275.372 48.425 275.692 48.425ZM281.399 53.3L283.229 49.16H282.779L279.749 42.44H281.954L284.114 47.315L286.064 42.44H288.209L283.544 53.3H281.399ZM292.327 50.18C291.567 50.18 290.892 50.02 290.302 49.7C289.722 49.37 289.267 48.915 288.937 48.335C288.617 47.745 288.457 47.065 288.457 46.295C288.457 45.505 288.617 44.81 288.937 44.21C289.267 43.6 289.722 43.125 290.302 42.785C290.882 42.435 291.557 42.26 292.327 42.26C293.077 42.26 293.732 42.425 294.292 42.755C294.852 43.085 295.287 43.53 295.597 44.09C295.907 44.65 296.062 45.285 296.062 45.995C296.062 46.095 296.062 46.21 296.062 46.34C296.062 46.46 296.052 46.585 296.032 46.715H289.897V45.485H294.022C293.992 44.995 293.817 44.61 293.497 44.33C293.187 44.05 292.797 43.91 292.327 43.91C291.987 43.91 291.672 43.99 291.382 44.15C291.092 44.3 290.862 44.535 290.692 44.855C290.532 45.175 290.452 45.58 290.452 46.07V46.505C290.452 46.915 290.527 47.275 290.677 47.585C290.837 47.885 291.057 48.12 291.337 48.29C291.617 48.45 291.942 48.53 292.312 48.53C292.682 48.53 292.987 48.45 293.227 48.29C293.477 48.13 293.662 47.925 293.782 47.675H295.852C295.712 48.145 295.477 48.57 295.147 48.95C294.817 49.33 294.412 49.63 293.932 49.85C293.452 50.07 292.917 50.18 292.327 50.18ZM301.23 50.18C300.47 50.18 299.795 50.01 299.205 49.67C298.615 49.33 298.155 48.865 297.825 48.275C297.495 47.685 297.33 47.01 297.33 46.25C297.33 45.47 297.495 44.785 297.825 44.195C298.155 43.595 298.615 43.125 299.205 42.785C299.795 42.435 300.47 42.26 301.23 42.26C302.2 42.26 303.015 42.515 303.675 43.025C304.335 43.535 304.755 44.235 304.935 45.125H302.79C302.7 44.775 302.51 44.5 302.22 44.3C301.94 44.1 301.605 44 301.215 44C300.865 44 300.55 44.09 300.27 44.27C300 44.44 299.785 44.695 299.625 45.035C299.475 45.365 299.4 45.76 299.4 46.22C299.4 46.57 299.445 46.885 299.535 47.165C299.625 47.435 299.75 47.67 299.91 47.87C300.07 48.06 300.26 48.205 300.48 48.305C300.71 48.405 300.955 48.455 301.215 48.455C301.475 48.455 301.71 48.41 301.92 48.32C302.14 48.23 302.325 48.105 302.475 47.945C302.625 47.775 302.73 47.57 302.79 47.33H304.935C304.755 48.2 304.33 48.895 303.66 49.415C303 49.925 302.19 50.18 301.23 50.18ZM309.849 50C309.319 50 308.854 49.92 308.454 49.76C308.064 49.59 307.759 49.315 307.539 48.935C307.319 48.545 307.209 48.015 307.209 47.345V44.135H305.919V42.44H307.209L307.434 40.385H309.234V42.44H311.229V44.135H309.234V47.375C309.234 47.715 309.309 47.95 309.459 48.08C309.609 48.21 309.864 48.275 310.224 48.275H311.214V50H309.849ZM316.163 50.18C315.443 50.18 314.793 50.015 314.213 49.685C313.643 49.345 313.188 48.88 312.848 48.29C312.518 47.69 312.353 47.005 312.353 46.235C312.353 45.445 312.518 44.755 312.848 44.165C313.188 43.565 313.648 43.1 314.228 42.77C314.808 42.43 315.458 42.26 316.178 42.26C316.908 42.26 317.558 42.43 318.128 42.77C318.708 43.1 319.163 43.565 319.493 44.165C319.833 44.755 320.003 45.44 320.003 46.22C320.003 47 319.833 47.69 319.493 48.29C319.163 48.88 318.708 49.345 318.128 49.685C317.548 50.015 316.893 50.18 316.163 50.18ZM316.163 48.425C316.503 48.425 316.803 48.345 317.063 48.185C317.333 48.025 317.543 47.78 317.693 47.45C317.853 47.12 317.933 46.71 317.933 46.22C317.933 45.73 317.853 45.325 317.693 45.005C317.543 44.675 317.333 44.43 317.063 44.27C316.803 44.1 316.508 44.015 316.178 44.015C315.858 44.015 315.563 44.1 315.293 44.27C315.023 44.43 314.808 44.675 314.648 45.005C314.498 45.325 314.423 45.73 314.423 46.22C314.423 46.71 314.498 47.12 314.648 47.45C314.808 47.78 315.018 48.025 315.278 48.185C315.548 48.345 315.843 48.425 316.163 48.425Z" fill="black"/>
<path d="M332.585 52.175C332.025 51.605 331.525 50.95 331.085 50.21C330.645 49.48 330.3 48.675 330.05 47.795C329.81 46.915 329.69 45.985 329.69 45.005C329.69 44.015 329.81 43.085 330.05 42.215C330.3 41.335 330.645 40.525 331.085 39.785C331.525 39.045 332.025 38.395 332.585 37.835H334.595V38.03C333.995 38.66 333.475 39.35 333.035 40.1C332.605 40.85 332.27 41.64 332.03 42.47C331.79 43.29 331.67 44.135 331.67 45.005C331.67 45.875 331.79 46.725 332.03 47.555C332.27 48.375 332.61 49.16 333.05 49.91C333.49 50.65 334.005 51.34 334.595 51.98V52.175H332.585ZM338.801 50.18C338.081 50.18 337.431 50.015 336.851 49.685C336.281 49.345 335.826 48.88 335.486 48.29C335.156 47.69 334.991 47.005 334.991 46.235C334.991 45.445 335.156 44.755 335.486 44.165C335.826 43.565 336.286 43.1 336.866 42.77C337.446 42.43 338.096 42.26 338.816 42.26C339.546 42.26 340.196 42.43 340.766 42.77C341.346 43.1 341.801 43.565 342.131 44.165C342.471 44.755 342.641 45.44 342.641 46.22C342.641 47 342.471 47.69 342.131 48.29C341.801 48.88 341.346 49.345 340.766 49.685C340.186 50.015 339.531 50.18 338.801 50.18ZM338.801 48.425C339.141 48.425 339.441 48.345 339.701 48.185C339.971 48.025 340.181 47.78 340.331 47.45C340.491 47.12 340.571 46.71 340.571 46.22C340.571 45.73 340.491 45.325 340.331 45.005C340.181 44.675 339.971 44.43 339.701 44.27C339.441 44.1 339.146 44.015 338.816 44.015C338.496 44.015 338.201 44.1 337.931 44.27C337.661 44.43 337.446 44.675 337.286 45.005C337.136 45.325 337.061 45.73 337.061 46.22C337.061 46.71 337.136 47.12 337.286 47.45C337.446 47.78 337.656 48.025 337.916 48.185C338.186 48.345 338.481 48.425 338.801 48.425ZM344.236 53.3V42.44H346.036L346.261 43.49C346.421 43.27 346.611 43.07 346.831 42.89C347.051 42.7 347.311 42.55 347.611 42.44C347.921 42.32 348.281 42.26 348.691 42.26C349.401 42.26 350.026 42.435 350.566 42.785C351.106 43.135 351.531 43.61 351.841 44.21C352.161 44.8 352.321 45.475 352.321 46.235C352.321 46.995 352.161 47.675 351.841 48.275C351.521 48.865 351.091 49.33 350.551 49.67C350.011 50.01 349.396 50.18 348.706 50.18C348.146 50.18 347.661 50.08 347.251 49.88C346.851 49.67 346.521 49.385 346.261 49.025V53.3H344.236ZM348.226 48.41C348.626 48.41 348.976 48.32 349.276 48.14C349.586 47.96 349.826 47.705 349.996 47.375C350.166 47.045 350.251 46.665 350.251 46.235C350.251 45.805 350.166 45.425 349.996 45.095C349.826 44.755 349.586 44.495 349.276 44.315C348.976 44.125 348.626 44.03 348.226 44.03C347.836 44.03 347.486 44.125 347.176 44.315C346.876 44.495 346.636 44.75 346.456 45.08C346.286 45.41 346.201 45.79 346.201 46.22C346.201 46.65 346.286 47.035 346.456 47.375C346.636 47.705 346.876 47.96 347.176 48.14C347.486 48.32 347.836 48.41 348.226 48.41ZM357.575 50.18C356.815 50.18 356.14 50.01 355.55 49.67C354.96 49.33 354.5 48.865 354.17 48.275C353.84 47.685 353.675 47.01 353.675 46.25C353.675 45.47 353.84 44.785 354.17 44.195C354.5 43.595 354.96 43.125 355.55 42.785C356.14 42.435 356.815 42.26 357.575 42.26C358.545 42.26 359.36 42.515 360.02 43.025C360.68 43.535 361.1 44.235 361.28 45.125H359.135C359.045 44.775 358.855 44.5 358.565 44.3C358.285 44.1 357.95 44 357.56 44C357.21 44 356.895 44.09 356.615 44.27C356.345 44.44 356.13 44.695 355.97 45.035C355.82 45.365 355.745 45.76 355.745 46.22C355.745 46.57 355.79 46.885 355.88 47.165C355.97 47.435 356.095 47.67 356.255 47.87C356.415 48.06 356.605 48.205 356.825 48.305C357.055 48.405 357.3 48.455 357.56 48.455C357.82 48.455 358.055 48.41 358.265 48.32C358.485 48.23 358.67 48.105 358.82 47.945C358.97 47.775 359.075 47.57 359.135 47.33H361.28C361.1 48.2 360.675 48.895 360.005 49.415C359.345 49.925 358.535 50.18 357.575 50.18ZM362.921 50V42.44H364.946V50H362.921ZM363.941 41.405C363.581 41.405 363.281 41.3 363.041 41.09C362.811 40.87 362.696 40.595 362.696 40.265C362.696 39.935 362.811 39.665 363.041 39.455C363.281 39.235 363.581 39.125 363.941 39.125C364.311 39.125 364.611 39.235 364.841 39.455C365.081 39.665 365.201 39.935 365.201 40.265C365.201 40.595 365.081 40.87 364.841 41.09C364.611 41.3 364.311 41.405 363.941 41.405ZM370.413 50.18C369.693 50.18 369.043 50.015 368.463 49.685C367.893 49.345 367.438 48.88 367.098 48.29C366.768 47.69 366.603 47.005 366.603 46.235C366.603 45.445 366.768 44.755 367.098 44.165C367.438 43.565 367.898 43.1 368.478 42.77C369.058 42.43 369.708 42.26 370.428 42.26C371.158 42.26 371.808 42.43 372.378 42.77C372.958 43.1 373.413 43.565 373.743 44.165C374.083 44.755 374.253 45.44 374.253 46.22C374.253 47 374.083 47.69 373.743 48.29C373.413 48.88 372.958 49.345 372.378 49.685C371.798 50.015 371.143 50.18 370.413 50.18ZM370.413 48.425C370.753 48.425 371.053 48.345 371.313 48.185C371.583 48.025 371.793 47.78 371.943 47.45C372.103 47.12 372.183 46.71 372.183 46.22C372.183 45.73 372.103 45.325 371.943 45.005C371.793 44.675 371.583 44.43 371.313 44.27C371.053 44.1 370.758 44.015 370.428 44.015C370.108 44.015 369.813 44.1 369.543 44.27C369.273 44.43 369.058 44.675 368.898 45.005C368.748 45.325 368.673 45.73 368.673 46.22C368.673 46.71 368.748 47.12 368.898 47.45C369.058 47.78 369.268 48.025 369.528 48.185C369.798 48.345 370.093 48.425 370.413 48.425ZM375.848 50V42.44H377.633L377.783 43.67C378.013 43.25 378.338 42.91 378.758 42.65C379.188 42.39 379.698 42.26 380.288 42.26C380.918 42.26 381.448 42.39 381.878 42.65C382.308 42.91 382.633 43.29 382.853 43.79C383.083 44.29 383.198 44.905 383.198 45.635V50H381.188V45.83C381.188 45.23 381.058 44.77 380.798 44.45C380.548 44.13 380.158 43.97 379.628 43.97C379.288 43.97 378.983 44.05 378.713 44.21C378.453 44.37 378.248 44.6 378.098 44.9C377.948 45.19 377.873 45.545 377.873 45.965V50H375.848ZM387.506 50.18C386.876 50.18 386.356 50.08 385.946 49.88C385.536 49.67 385.231 49.395 385.031 49.055C384.841 48.705 384.746 48.32 384.746 47.9C384.746 47.44 384.861 47.035 385.091 46.685C385.331 46.335 385.686 46.06 386.156 45.86C386.636 45.66 387.236 45.56 387.956 45.56H389.831C389.831 45.19 389.781 44.885 389.681 44.645C389.581 44.395 389.426 44.21 389.216 44.09C389.006 43.97 388.726 43.91 388.376 43.91C387.996 43.91 387.671 43.995 387.401 44.165C387.141 44.325 386.981 44.575 386.921 44.915H384.956C385.006 44.375 385.181 43.91 385.481 43.52C385.791 43.12 386.196 42.81 386.696 42.59C387.206 42.37 387.771 42.26 388.391 42.26C389.101 42.26 389.716 42.38 390.236 42.62C390.756 42.86 391.156 43.205 391.436 43.655C391.716 44.105 391.856 44.66 391.856 45.32V50H390.146L389.921 48.845C389.811 49.045 389.681 49.225 389.531 49.385C389.381 49.545 389.206 49.685 389.006 49.805C388.806 49.925 388.581 50.015 388.331 50.075C388.081 50.145 387.806 50.18 387.506 50.18ZM387.986 48.62C388.246 48.62 388.476 48.575 388.676 48.485C388.886 48.385 389.066 48.255 389.216 48.095C389.366 47.925 389.481 47.735 389.561 47.525C389.651 47.305 389.711 47.07 389.741 46.82V46.805H388.196C387.886 46.805 387.631 46.845 387.431 46.925C387.241 46.995 387.101 47.1 387.011 47.24C386.921 47.38 386.876 47.54 386.876 47.72C386.876 47.92 386.921 48.085 387.011 48.215C387.101 48.345 387.231 48.445 387.401 48.515C387.571 48.585 387.766 48.62 387.986 48.62ZM393.595 50V39.2H395.62V50H393.595ZM398.944 52.175H396.919V51.98C397.519 51.34 398.039 50.65 398.479 49.91C398.919 49.16 399.254 48.375 399.484 47.555C399.724 46.725 399.844 45.875 399.844 45.005C399.844 44.135 399.724 43.29 399.484 42.47C399.254 41.64 398.919 40.85 398.479 40.1C398.039 39.35 397.519 38.66 396.919 38.03V37.835H398.944C399.504 38.395 399.999 39.045 400.429 39.785C400.869 40.525 401.214 41.335 401.464 42.215C401.714 43.085 401.839 44.015 401.839 45.005C401.839 45.985 401.714 46.915 401.464 47.795C401.214 48.675 400.869 49.48 400.429 50.21C399.999 50.95 399.504 51.605 398.944 52.175Z" fill="#A3A4B0"/>
<path d="M77.095 88V77.5H83.725V78.73H78.595V82.09H83.275V83.29H78.595V86.77H83.725V88H77.095ZM88.3643 88.18C87.7243 88.18 87.1643 88.075 86.6843 87.865C86.2043 87.655 85.8243 87.36 85.5443 86.98C85.2643 86.6 85.0943 86.155 85.0343 85.645H86.5643C86.6143 85.885 86.7093 86.105 86.8493 86.305C86.9993 86.505 87.1993 86.665 87.4493 86.785C87.7093 86.905 88.0143 86.965 88.3643 86.965C88.6943 86.965 88.9643 86.92 89.1743 86.83C89.3943 86.73 89.5543 86.6 89.6543 86.44C89.7543 86.27 89.8043 86.09 89.8043 85.9C89.8043 85.62 89.7343 85.41 89.5943 85.27C89.4643 85.12 89.2643 85.005 88.9943 84.925C88.7343 84.835 88.4193 84.755 88.0493 84.685C87.6993 84.625 87.3593 84.545 87.0293 84.445C86.7093 84.335 86.4193 84.2 86.1593 84.04C85.9093 83.88 85.7093 83.68 85.5593 83.44C85.4093 83.19 85.3343 82.885 85.3343 82.525C85.3343 82.095 85.4493 81.71 85.6793 81.37C85.9093 81.02 86.2343 80.75 86.6543 80.56C87.0843 80.36 87.5893 80.26 88.1693 80.26C89.0093 80.26 89.6843 80.46 90.1943 80.86C90.7043 81.26 91.0043 81.825 91.0943 82.555H89.6393C89.5993 82.215 89.4493 81.955 89.1893 81.775C88.9293 81.585 88.5843 81.49 88.1543 81.49C87.7243 81.49 87.3943 81.575 87.1643 81.745C86.9343 81.915 86.8193 82.14 86.8193 82.42C86.8193 82.6 86.8843 82.76 87.0143 82.9C87.1443 83.04 87.3343 83.16 87.5843 83.26C87.8443 83.35 88.1593 83.435 88.5293 83.515C89.0593 83.615 89.5343 83.74 89.9543 83.89C90.3743 84.04 90.7093 84.26 90.9593 84.55C91.2093 84.84 91.3343 85.255 91.3343 85.795C91.3443 86.265 91.2243 86.68 90.9743 87.04C90.7343 87.4 90.3893 87.68 89.9393 87.88C89.4993 88.08 88.9743 88.18 88.3643 88.18ZM96.4455 88.18C95.7155 88.18 95.0655 88.015 94.4955 87.685C93.9255 87.345 93.4755 86.88 93.1455 86.29C92.8255 85.7 92.6655 85.015 92.6655 84.235C92.6655 83.445 92.8255 82.755 93.1455 82.165C93.4755 81.565 93.9255 81.1 94.4955 80.77C95.0655 80.43 95.7155 80.26 96.4455 80.26C97.3655 80.26 98.1355 80.5 98.7555 80.98C99.3755 81.46 99.7705 82.11 99.9405 82.93H98.3805C98.2805 82.49 98.0505 82.15 97.6905 81.91C97.3405 81.67 96.9205 81.55 96.4305 81.55C96.0305 81.55 95.6605 81.655 95.3205 81.865C94.9805 82.065 94.7055 82.365 94.4955 82.765C94.2955 83.155 94.1955 83.64 94.1955 84.22C94.1955 84.65 94.2555 85.035 94.3755 85.375C94.4955 85.705 94.6555 85.985 94.8555 86.215C95.0655 86.445 95.3055 86.62 95.5755 86.74C95.8455 86.85 96.1305 86.905 96.4305 86.905C96.7605 86.905 97.0555 86.855 97.3155 86.755C97.5855 86.645 97.8105 86.485 97.9905 86.275C98.1805 86.065 98.3105 85.815 98.3805 85.525H99.9405C99.7705 86.325 99.3755 86.97 98.7555 87.46C98.1355 87.94 97.3655 88.18 96.4455 88.18ZM101.546 88V80.44H102.896L103.031 81.865C103.201 81.525 103.421 81.24 103.691 81.01C103.961 80.77 104.276 80.585 104.636 80.455C105.006 80.325 105.426 80.26 105.896 80.26V81.85H105.356C105.046 81.85 104.751 81.89 104.471 81.97C104.191 82.04 103.941 82.165 103.721 82.345C103.511 82.525 103.346 82.77 103.226 83.08C103.106 83.39 103.046 83.775 103.046 84.235V88H101.546ZM107.228 88V80.44H108.728V88H107.228ZM107.993 79.015C107.703 79.015 107.463 78.925 107.273 78.745C107.093 78.565 107.003 78.335 107.003 78.055C107.003 77.785 107.093 77.565 107.273 77.395C107.463 77.215 107.703 77.125 107.993 77.125C108.273 77.125 108.508 77.215 108.698 77.395C108.888 77.565 108.983 77.785 108.983 78.055C108.983 78.335 108.888 78.565 108.698 78.745C108.508 78.925 108.273 79.015 107.993 79.015ZM114.848 88.18C114.438 88.18 114.063 88.12 113.723 88C113.393 87.89 113.103 87.735 112.853 87.535C112.603 87.335 112.393 87.105 112.223 86.845L112.073 88H110.723V77.2H112.223V81.625C112.463 81.245 112.798 80.925 113.228 80.665C113.668 80.395 114.208 80.26 114.848 80.26C115.568 80.26 116.203 80.435 116.753 80.785C117.303 81.125 117.728 81.595 118.028 82.195C118.338 82.785 118.493 83.465 118.493 84.235C118.493 84.985 118.338 85.66 118.028 86.26C117.728 86.86 117.303 87.33 116.753 87.67C116.203 88.01 115.568 88.18 114.848 88.18ZM114.608 86.875C115.068 86.875 115.473 86.765 115.823 86.545C116.183 86.325 116.463 86.015 116.663 85.615C116.873 85.215 116.978 84.75 116.978 84.22C116.978 83.69 116.873 83.23 116.663 82.84C116.463 82.44 116.183 82.13 115.823 81.91C115.473 81.68 115.068 81.565 114.608 81.565C114.138 81.565 113.723 81.68 113.363 81.91C113.013 82.13 112.738 82.44 112.538 82.84C112.338 83.23 112.238 83.69 112.238 84.22C112.238 84.75 112.338 85.215 112.538 85.615C112.738 86.015 113.013 86.325 113.363 86.545C113.723 86.765 114.138 86.875 114.608 86.875ZM123.515 88.18C122.795 88.18 122.155 88.015 121.595 87.685C121.035 87.355 120.595 86.895 120.275 86.305C119.965 85.715 119.81 85.03 119.81 84.25C119.81 83.45 119.965 82.755 120.275 82.165C120.595 81.565 121.035 81.1 121.595 80.77C122.155 80.43 122.805 80.26 123.545 80.26C124.285 80.26 124.92 80.425 125.45 80.755C125.98 81.085 126.39 81.525 126.68 82.075C126.97 82.615 127.115 83.215 127.115 83.875C127.115 83.975 127.11 84.085 127.1 84.205C127.1 84.315 127.095 84.44 127.085 84.58H120.905V83.515H125.615C125.585 82.885 125.375 82.395 124.985 82.045C124.595 81.685 124.11 81.505 123.53 81.505C123.12 81.505 122.745 81.6 122.405 81.79C122.065 81.97 121.79 82.24 121.58 82.6C121.38 82.95 121.28 83.395 121.28 83.935V84.355C121.28 84.915 121.38 85.39 121.58 85.78C121.79 86.16 122.065 86.45 122.405 86.65C122.745 86.84 123.115 86.935 123.515 86.935C123.995 86.935 124.39 86.83 124.7 86.62C125.01 86.41 125.24 86.125 125.39 85.765H126.89C126.76 86.225 126.54 86.64 126.23 87.01C125.92 87.37 125.535 87.655 125.075 87.865C124.625 88.075 124.105 88.18 123.515 88.18ZM134.824 88.18C134.204 88.18 133.689 88.075 133.279 87.865C132.869 87.655 132.564 87.375 132.364 87.025C132.164 86.665 132.064 86.28 132.064 85.87C132.064 85.37 132.194 84.945 132.454 84.595C132.714 84.235 133.084 83.96 133.564 83.77C134.044 83.58 134.619 83.485 135.289 83.485H137.254C137.254 83.045 137.189 82.68 137.059 82.39C136.929 82.1 136.734 81.885 136.474 81.745C136.224 81.595 135.904 81.52 135.514 81.52C135.064 81.52 134.679 81.63 134.359 81.85C134.039 82.06 133.839 82.375 133.759 82.795H132.259C132.319 82.265 132.499 81.815 132.799 81.445C133.109 81.065 133.504 80.775 133.984 80.575C134.464 80.365 134.974 80.26 135.514 80.26C136.224 80.26 136.819 80.385 137.299 80.635C137.779 80.885 138.139 81.24 138.379 81.7C138.629 82.15 138.754 82.69 138.754 83.32V88H137.449L137.329 86.725C137.219 86.925 137.089 87.115 136.939 87.295C136.789 87.475 136.609 87.63 136.399 87.76C136.199 87.89 135.964 87.99 135.694 88.06C135.434 88.14 135.144 88.18 134.824 88.18ZM135.109 86.965C135.429 86.965 135.719 86.9 135.979 86.77C136.239 86.64 136.459 86.465 136.639 86.245C136.829 86.015 136.969 85.76 137.059 85.48C137.159 85.19 137.214 84.895 137.224 84.595V84.55H135.439C135.009 84.55 134.659 84.605 134.389 84.715C134.129 84.815 133.939 84.955 133.819 85.135C133.699 85.315 133.639 85.525 133.639 85.765C133.639 86.015 133.694 86.23 133.804 86.41C133.924 86.58 134.094 86.715 134.314 86.815C134.534 86.915 134.799 86.965 135.109 86.965ZM146.504 91.3V86.83C146.264 87.21 145.924 87.53 145.484 87.79C145.054 88.05 144.524 88.18 143.894 88.18C143.174 88.18 142.534 88.01 141.974 87.67C141.424 87.32 140.994 86.85 140.684 86.26C140.384 85.66 140.234 84.98 140.234 84.22C140.234 83.46 140.389 82.785 140.699 82.195C141.009 81.595 141.439 81.125 141.989 80.785C142.539 80.435 143.174 80.26 143.894 80.26C144.304 80.26 144.674 80.32 145.004 80.44C145.344 80.55 145.639 80.705 145.889 80.905C146.139 81.105 146.344 81.34 146.504 81.61L146.654 80.44H148.004V91.3H146.504ZM144.119 86.875C144.589 86.875 145.004 86.765 145.364 86.545C145.724 86.325 145.999 86.015 146.189 85.615C146.389 85.215 146.489 84.75 146.489 84.22C146.489 83.69 146.389 83.23 146.189 82.84C145.999 82.44 145.724 82.13 145.364 81.91C145.004 81.68 144.589 81.565 144.119 81.565C143.669 81.565 143.264 81.68 142.904 81.91C142.544 82.13 142.264 82.44 142.064 82.84C141.864 83.23 141.764 83.69 141.764 84.22C141.764 84.75 141.864 85.215 142.064 85.615C142.264 86.015 142.544 86.325 142.904 86.545C143.264 86.765 143.669 86.875 144.119 86.875ZM152.68 88.18C152.09 88.18 151.575 88.06 151.135 87.82C150.705 87.58 150.37 87.22 150.13 86.74C149.9 86.26 149.785 85.655 149.785 84.925V80.44H151.285V84.76C151.285 85.47 151.44 86.005 151.75 86.365C152.06 86.725 152.505 86.905 153.085 86.905C153.475 86.905 153.825 86.81 154.135 86.62C154.455 86.43 154.705 86.155 154.885 85.795C155.065 85.435 155.155 84.995 155.155 84.475V80.44H156.655V88H155.32L155.215 86.71C154.985 87.17 154.65 87.53 154.21 87.79C153.77 88.05 153.26 88.18 152.68 88.18ZM158.558 88V80.44H160.058V88H158.558ZM157.808 79.795L157.658 78.76L160.763 76.855L160.958 78.085L157.808 79.795ZM162.568 88.075C162.278 88.075 162.038 87.985 161.848 87.805C161.668 87.615 161.578 87.39 161.578 87.13C161.578 86.86 161.668 86.635 161.848 86.455C162.038 86.265 162.278 86.17 162.568 86.17C162.858 86.17 163.093 86.265 163.273 86.455C163.453 86.635 163.543 86.86 163.543 87.13C163.543 87.39 163.453 87.615 163.273 87.805C163.093 87.985 162.858 88.075 162.568 88.075ZM165.641 88.075C165.351 88.075 165.111 87.985 164.921 87.805C164.741 87.615 164.651 87.39 164.651 87.13C164.651 86.86 164.741 86.635 164.921 86.455C165.111 86.265 165.351 86.17 165.641 86.17C165.931 86.17 166.166 86.265 166.346 86.455C166.526 86.635 166.616 86.86 166.616 87.13C166.616 87.39 166.526 87.615 166.346 87.805C166.166 87.985 165.931 88.075 165.641 88.075ZM168.713 88.075C168.423 88.075 168.183 87.985 167.993 87.805C167.813 87.615 167.723 87.39 167.723 87.13C167.723 86.86 167.813 86.635 167.993 86.455C168.183 86.265 168.423 86.17 168.713 86.17C169.003 86.17 169.238 86.265 169.418 86.455C169.598 86.635 169.688 86.86 169.688 87.13C169.688 87.39 169.598 87.615 169.418 87.805C169.238 87.985 169.003 88.075 168.713 88.075Z" fill="#A3A4B0"/>
<rect x="0.5" y="0.5" width="779" height="145" rx="7.5" stroke="#C7C7CE"/>
<defs>
<filter id="filter0_f_2029_6075" x="10" y="19" width="52" height="51" filterUnits="userSpaceOnUse" color-interpolation-filters="sRGB">
<feFlood flood-opacity="0" result="BackgroundImageFix"/>
<feBlend mode="normal" in="SourceGraphic" in2="BackgroundImageFix" result="shape"/>
<feGaussianBlur stdDeviation="2" result="effect1_foregroundBlur_2029_6075"/>
</filter>
<clipPath id="clip0_2029_6075">
<rect width="20" height="17" fill="white" transform="translate(26 36)"/>
</clipPath>
</defs>
</svg>
