<svg width="345" height="171" viewBox="0 0 345 171" fill="none" xmlns="http://www.w3.org/2000/svg">
<g clip-path="url(#clip0_2029_6004)">
<path d="M19.9491 19L2.23975 18.9915C0.934094 18.9915 0.00207577 17.9013 0.00103788 16.6128L0 5.38613C0 4.1104 0.930981 3 2.23871 3L19.8921 3.0064C20.9632 3.0064 21.999 4.008 21.999 5.11413V16.8773C21.999 18.024 21.0804 18.7739 19.9491 18.9989V19ZM18.2989 4.94773L3.67203 4.93707L10.9953 10.9328L18.2989 4.94773ZM20.1982 5.83947L11.6803 12.7621C11.3223 12.8997 10.768 12.9371 10.4286 12.8368L1.84432 5.84053L1.81733 17.1397L20.1619 17.1504L20.1982 5.83947Z" fill="#2AB5B6"/>
</g>
<path d="M39.207 17V5.1H46.891V6.749H41.247V10.166H46.381V11.781H41.247V15.351H46.891V17H39.207ZM52.2141 17.204C51.4548 17.204 50.7918 17.085 50.2251 16.847C49.6698 16.5977 49.2278 16.2577 48.8991 15.827C48.5818 15.385 48.3948 14.8807 48.3381 14.314H50.3781C50.4348 14.552 50.5368 14.773 50.6841 14.977C50.8315 15.1697 51.0298 15.3227 51.2791 15.436C51.5398 15.5493 51.8458 15.606 52.1971 15.606C52.5371 15.606 52.8148 15.5607 53.0301 15.47C53.2455 15.368 53.4041 15.2377 53.5061 15.079C53.6081 14.9203 53.6591 14.7503 53.6591 14.569C53.6591 14.297 53.5855 14.0873 53.4381 13.94C53.2908 13.7927 53.0755 13.6793 52.7921 13.6C52.5201 13.5093 52.1915 13.4243 51.8061 13.345C51.3981 13.2657 51.0015 13.1693 50.6161 13.056C50.2421 12.9313 49.9021 12.7783 49.5961 12.597C49.3015 12.4157 49.0635 12.1833 48.8821 11.9C48.7121 11.6167 48.6271 11.271 48.6271 10.863C48.6271 10.3643 48.7575 9.91667 49.0181 9.52C49.2901 9.12333 49.6755 8.81167 50.1741 8.585C50.6841 8.347 51.2905 8.228 51.9931 8.228C52.9905 8.228 53.7838 8.46033 54.3731 8.925C54.9738 9.37833 55.3251 10.0187 55.4271 10.846H53.4891C53.4325 10.5287 53.2738 10.285 53.0131 10.115C52.7525 9.93367 52.4068 9.843 51.9761 9.843C51.5341 9.843 51.1941 9.928 50.9561 10.098C50.7295 10.2567 50.6161 10.472 50.6161 10.744C50.6161 10.914 50.6841 11.0727 50.8201 11.22C50.9675 11.356 51.1771 11.475 51.4491 11.577C51.7211 11.6677 52.0555 11.7583 52.4521 11.849C53.0868 11.9737 53.6478 12.121 54.1351 12.291C54.6225 12.461 55.0078 12.7103 55.2911 13.039C55.5745 13.3677 55.7161 13.8323 55.7161 14.433C55.7275 14.977 55.5858 15.4587 55.2911 15.878C55.0078 16.2973 54.6055 16.626 54.0841 16.864C53.5628 17.0907 52.9395 17.204 52.2141 17.204ZM60.9497 17C60.3717 17 59.8674 16.9093 59.4367 16.728C59.0174 16.5467 58.6887 16.2463 58.4507 15.827C58.2127 15.4077 58.0937 14.841 58.0937 14.127V10.149H56.6317V8.432H58.0937L58.3317 6.171H60.1337V8.432H62.4627V10.149H60.1337V14.127C60.1337 14.5577 60.2244 14.858 60.4057 15.028C60.5984 15.1867 60.9157 15.266 61.3577 15.266H62.4117V17H60.9497ZM67.068 17.204C66.3653 17.204 65.7817 17.085 65.317 16.847C64.8523 16.609 64.5067 16.2917 64.28 15.895C64.0533 15.4983 63.94 15.0677 63.94 14.603C63.94 14.059 64.076 13.5887 64.348 13.192C64.6313 12.7953 65.045 12.4893 65.589 12.274C66.133 12.0473 66.8017 11.934 67.595 11.934H69.754C69.754 11.4807 69.6917 11.1067 69.567 10.812C69.4423 10.506 69.2497 10.2793 68.989 10.132C68.7283 9.98467 68.394 9.911 67.986 9.911C67.5213 9.911 67.1247 10.0187 66.796 10.234C66.4673 10.438 66.2633 10.7553 66.184 11.186H64.178C64.246 10.574 64.45 10.0527 64.79 9.622C65.13 9.18 65.5777 8.84 66.133 8.602C66.6997 8.35267 67.3173 8.228 67.986 8.228C68.7907 8.228 69.4763 8.36967 70.043 8.653C70.6097 8.925 71.0403 9.32167 71.335 9.843C71.641 10.353 71.794 10.9707 71.794 11.696V17H70.06L69.856 15.623C69.7427 15.8497 69.5953 16.0593 69.414 16.252C69.244 16.4447 69.0457 16.6147 68.819 16.762C68.5923 16.898 68.3317 17.0057 68.037 17.085C67.7537 17.1643 67.4307 17.204 67.068 17.204ZM67.527 15.589C67.8557 15.589 68.1447 15.5323 68.394 15.419C68.6547 15.2943 68.8757 15.1243 69.057 14.909C69.2497 14.6823 69.397 14.433 69.499 14.161C69.601 13.889 69.669 13.6 69.703 13.294V13.26H67.816C67.4193 13.26 67.0907 13.311 66.83 13.413C66.5693 13.5037 66.3823 13.6397 66.269 13.821C66.1557 14.0023 66.099 14.212 66.099 14.45C66.099 14.688 66.1557 14.892 66.269 15.062C66.3823 15.232 66.5467 15.3623 66.762 15.453C66.9773 15.5437 67.2323 15.589 67.527 15.589ZM73.8037 17V8.432H75.6057L75.7757 9.605C76.0477 9.17433 76.4047 8.84 76.8467 8.602C77.3001 8.35267 77.8157 8.228 78.3937 8.228C78.8244 8.228 79.2097 8.28467 79.5497 8.398C79.9011 8.51133 80.2071 8.68133 80.4677 8.908C80.7397 9.13467 80.9607 9.418 81.1307 9.758C81.4481 9.282 81.8617 8.908 82.3717 8.636C82.8817 8.364 83.4371 8.228 84.0377 8.228C84.7517 8.228 85.3581 8.37533 85.8567 8.67C86.3554 8.95333 86.7351 9.37833 86.9957 9.945C87.2564 10.5003 87.3867 11.186 87.3867 12.002V17H85.3637V12.206C85.3637 11.4807 85.2164 10.9253 84.9217 10.54C84.6271 10.1547 84.1907 9.962 83.6127 9.962C83.2161 9.962 82.8647 10.0583 82.5587 10.251C82.2641 10.4437 82.0317 10.727 81.8617 11.101C81.6917 11.4637 81.6067 11.9113 81.6067 12.444V17H79.5837V12.206C79.5837 11.4807 79.4364 10.9253 79.1417 10.54C78.8471 10.1547 78.4051 9.962 77.8157 9.962C77.4417 9.962 77.1017 10.0583 76.7957 10.251C76.5011 10.4437 76.2687 10.727 76.0987 11.101C75.9287 11.4637 75.8437 11.9113 75.8437 12.444V17H73.8037ZM93.367 17.204C92.551 17.204 91.8143 17.017 91.157 16.643C90.511 16.2577 90.001 15.7307 89.627 15.062C89.2643 14.382 89.083 13.6057 89.083 12.733C89.083 11.8377 89.27 11.0557 89.644 10.387C90.018 9.707 90.528 9.18 91.174 8.806C91.8313 8.42067 92.568 8.228 93.384 8.228C94.2 8.228 94.931 8.42067 95.577 8.806C96.2343 9.18 96.7443 9.70133 97.107 10.37C97.481 11.0387 97.668 11.8207 97.668 12.716C97.668 13.6113 97.481 14.3933 97.107 15.062C96.733 15.7307 96.2173 16.2577 95.56 16.643C94.914 17.017 94.183 17.204 93.367 17.204ZM93.367 15.453C93.775 15.453 94.1433 15.351 94.472 15.147C94.812 14.943 95.084 14.637 95.288 14.229C95.492 13.821 95.594 13.3167 95.594 12.716C95.594 12.1153 95.492 11.6167 95.288 11.22C95.0953 10.812 94.829 10.506 94.489 10.302C94.1603 10.098 93.792 9.996 93.384 9.996C92.9873 9.996 92.619 10.098 92.279 10.302C91.939 10.506 91.667 10.812 91.463 11.22C91.259 11.6167 91.157 12.1153 91.157 12.716C91.157 13.3167 91.259 13.821 91.463 14.229C91.667 14.637 91.9333 14.943 92.262 15.147C92.602 15.351 92.9703 15.453 93.367 15.453ZM102.912 17.204C102.153 17.204 101.49 17.085 100.923 16.847C100.368 16.5977 99.9256 16.2577 99.597 15.827C99.2796 15.385 99.0926 14.8807 99.036 14.314H101.076C101.133 14.552 101.235 14.773 101.382 14.977C101.529 15.1697 101.728 15.3227 101.977 15.436C102.238 15.5493 102.544 15.606 102.895 15.606C103.235 15.606 103.513 15.5607 103.728 15.47C103.943 15.368 104.102 15.2377 104.204 15.079C104.306 14.9203 104.357 14.7503 104.357 14.569C104.357 14.297 104.283 14.0873 104.136 13.94C103.989 13.7927 103.773 13.6793 103.49 13.6C103.218 13.5093 102.889 13.4243 102.504 13.345C102.096 13.2657 101.699 13.1693 101.314 13.056C100.94 12.9313 100.6 12.7783 100.294 12.597C99.9993 12.4157 99.7613 12.1833 99.58 11.9C99.41 11.6167 99.325 11.271 99.325 10.863C99.325 10.3643 99.4553 9.91667 99.716 9.52C99.988 9.12333 100.373 8.81167 100.872 8.585C101.382 8.347 101.988 8.228 102.691 8.228C103.688 8.228 104.482 8.46033 105.071 8.925C105.672 9.37833 106.023 10.0187 106.125 10.846H104.187C104.13 10.5287 103.972 10.285 103.711 10.115C103.45 9.93367 103.105 9.843 102.674 9.843C102.232 9.843 101.892 9.928 101.654 10.098C101.427 10.2567 101.314 10.472 101.314 10.744C101.314 10.914 101.382 11.0727 101.518 11.22C101.665 11.356 101.875 11.475 102.147 11.577C102.419 11.6677 102.753 11.7583 103.15 11.849C103.785 11.9737 104.346 12.121 104.833 12.291C105.32 12.461 105.706 12.7103 105.989 13.039C106.272 13.3677 106.414 13.8323 106.414 14.433C106.425 14.977 106.284 15.4587 105.989 15.878C105.706 16.2973 105.303 16.626 104.782 16.864C104.261 17.0907 103.637 17.204 102.912 17.204ZM112.204 20.74V8.432H114.023L114.244 9.673C114.425 9.42367 114.64 9.19133 114.89 8.976C115.15 8.74933 115.462 8.568 115.825 8.432C116.199 8.296 116.624 8.228 117.1 8.228C117.904 8.228 118.613 8.42633 119.225 8.823C119.848 9.21967 120.335 9.758 120.687 10.438C121.038 11.1067 121.214 11.8717 121.214 12.733C121.214 13.5943 121.032 14.365 120.67 15.045C120.318 15.7137 119.831 16.2407 119.208 16.626C118.596 17.0113 117.893 17.204 117.1 17.204C116.454 17.204 115.887 17.085 115.4 16.847C114.924 16.5977 114.538 16.2463 114.244 15.793V20.74H112.204ZM116.675 15.436C117.151 15.436 117.576 15.3227 117.95 15.096C118.324 14.8693 118.613 14.552 118.817 14.144C119.032 13.736 119.14 13.2657 119.14 12.733C119.14 12.189 119.032 11.713 118.817 11.305C118.613 10.897 118.324 10.5797 117.95 10.353C117.576 10.1263 117.151 10.013 116.675 10.013C116.187 10.013 115.757 10.1263 115.383 10.353C115.02 10.5797 114.731 10.897 114.516 11.305C114.312 11.713 114.21 12.1833 114.21 12.716C114.21 13.26 114.312 13.736 114.516 14.144C114.731 14.5407 115.02 14.858 115.383 15.096C115.757 15.3227 116.187 15.436 116.675 15.436ZM125.88 17.204C125.177 17.204 124.594 17.085 124.129 16.847C123.664 16.609 123.319 16.2917 123.092 15.895C122.865 15.4983 122.752 15.0677 122.752 14.603C122.752 14.059 122.888 13.5887 123.16 13.192C123.443 12.7953 123.857 12.4893 124.401 12.274C124.945 12.0473 125.614 11.934 126.407 11.934H128.566C128.566 11.4807 128.504 11.1067 128.379 10.812C128.254 10.506 128.062 10.2793 127.801 10.132C127.54 9.98467 127.206 9.911 126.798 9.911C126.333 9.911 125.937 10.0187 125.608 10.234C125.279 10.438 125.075 10.7553 124.996 11.186H122.99C123.058 10.574 123.262 10.0527 123.602 9.622C123.942 9.18 124.39 8.84 124.945 8.602C125.512 8.35267 126.129 8.228 126.798 8.228C127.603 8.228 128.288 8.36967 128.855 8.653C129.422 8.925 129.852 9.32167 130.147 9.843C130.453 10.353 130.606 10.9707 130.606 11.696V17H128.872L128.668 15.623C128.555 15.8497 128.407 16.0593 128.226 16.252C128.056 16.4447 127.858 16.6147 127.631 16.762C127.404 16.898 127.144 17.0057 126.849 17.085C126.566 17.1643 126.243 17.204 125.88 17.204ZM126.339 15.589C126.668 15.589 126.957 15.5323 127.206 15.419C127.467 15.2943 127.688 15.1243 127.869 14.909C128.062 14.6823 128.209 14.433 128.311 14.161C128.413 13.889 128.481 13.6 128.515 13.294V13.26H126.628C126.231 13.26 125.903 13.311 125.642 13.413C125.381 13.5037 125.194 13.6397 125.081 13.821C124.968 14.0023 124.911 14.212 124.911 14.45C124.911 14.688 124.968 14.892 125.081 15.062C125.194 15.232 125.359 15.3623 125.574 15.453C125.789 15.5437 126.044 15.589 126.339 15.589ZM132.616 17V8.432H134.435L134.622 10.03C134.826 9.656 135.081 9.33867 135.387 9.078C135.693 8.806 136.05 8.59633 136.458 8.449C136.877 8.30167 137.336 8.228 137.835 8.228V10.387H137.121C136.781 10.387 136.458 10.4323 136.152 10.523C135.846 10.6023 135.579 10.7383 135.353 10.931C135.137 11.1123 134.967 11.3673 134.843 11.696C134.718 12.0133 134.656 12.4157 134.656 12.903V17H132.616ZM142.059 17.204C141.356 17.204 140.772 17.085 140.308 16.847C139.843 16.609 139.497 16.2917 139.271 15.895C139.044 15.4983 138.931 15.0677 138.931 14.603C138.931 14.059 139.067 13.5887 139.339 13.192C139.622 12.7953 140.036 12.4893 140.58 12.274C141.124 12.0473 141.792 11.934 142.586 11.934H144.745C144.745 11.4807 144.682 11.1067 144.558 10.812C144.433 10.506 144.24 10.2793 143.98 10.132C143.719 9.98467 143.385 9.911 142.977 9.911C142.512 9.911 142.115 10.0187 141.787 10.234C141.458 10.438 141.254 10.7553 141.175 11.186H139.169C139.237 10.574 139.441 10.0527 139.781 9.622C140.121 9.18 140.568 8.84 141.124 8.602C141.69 8.35267 142.308 8.228 142.977 8.228C143.781 8.228 144.467 8.36967 145.034 8.653C145.6 8.925 146.031 9.32167 146.326 9.843C146.632 10.353 146.785 10.9707 146.785 11.696V17H145.051L144.847 15.623C144.733 15.8497 144.586 16.0593 144.405 16.252C144.235 16.4447 144.036 16.6147 143.81 16.762C143.583 16.898 143.322 17.0057 143.028 17.085C142.744 17.1643 142.421 17.204 142.059 17.204ZM142.518 15.589C142.846 15.589 143.135 15.5323 143.385 15.419C143.645 15.2943 143.866 15.1243 144.048 14.909C144.24 14.6823 144.388 14.433 144.49 14.161C144.592 13.889 144.66 13.6 144.694 13.294V13.26H142.807C142.41 13.26 142.081 13.311 141.821 13.413C141.56 13.5037 141.373 13.6397 141.26 13.821C141.146 14.0023 141.09 14.212 141.09 14.45C141.09 14.688 141.146 14.892 141.26 15.062C141.373 15.232 141.537 15.3623 141.753 15.453C141.968 15.5437 142.223 15.589 142.518 15.589ZM155.631 17.204C154.928 17.204 154.344 17.085 153.88 16.847C153.415 16.609 153.069 16.2917 152.843 15.895C152.616 15.4983 152.503 15.0677 152.503 14.603C152.503 14.059 152.639 13.5887 152.911 13.192C153.194 12.7953 153.608 12.4893 154.152 12.274C154.696 12.0473 155.364 11.934 156.158 11.934H158.317C158.317 11.4807 158.254 11.1067 158.13 10.812C158.005 10.506 157.812 10.2793 157.552 10.132C157.291 9.98467 156.957 9.911 156.549 9.911C156.084 9.911 155.687 10.0187 155.359 10.234C155.03 10.438 154.826 10.7553 154.747 11.186H152.741C152.809 10.574 153.013 10.0527 153.353 9.622C153.693 9.18 154.14 8.84 154.696 8.602C155.262 8.35267 155.88 8.228 156.549 8.228C157.353 8.228 158.039 8.36967 158.606 8.653C159.172 8.925 159.603 9.32167 159.898 9.843C160.204 10.353 160.357 10.9707 160.357 11.696V17H158.623L158.419 15.623C158.305 15.8497 158.158 16.0593 157.977 16.252C157.807 16.4447 157.608 16.6147 157.382 16.762C157.155 16.898 156.894 17.0057 156.6 17.085C156.316 17.1643 155.993 17.204 155.631 17.204ZM156.09 15.589C156.418 15.589 156.707 15.5323 156.957 15.419C157.217 15.2943 157.438 15.1243 157.62 14.909C157.812 14.6823 157.96 14.433 158.062 14.161C158.164 13.889 158.232 13.6 158.266 13.294V13.26H156.379C155.982 13.26 155.653 13.311 155.393 13.413C155.132 13.5037 154.945 13.6397 154.832 13.821C154.718 14.0023 154.662 14.212 154.662 14.45C154.662 14.688 154.718 14.892 154.832 15.062C154.945 15.232 155.109 15.3623 155.325 15.453C155.54 15.5437 155.795 15.589 156.09 15.589ZM163.121 20.74L165.212 16.048H164.702L161.285 8.432H163.512L166.062 14.246L168.476 8.432H170.635L165.28 20.74H163.121ZM175.121 17.204C174.429 17.204 173.834 17.068 173.336 16.796C172.848 16.5127 172.474 16.0933 172.214 15.538C171.953 14.9713 171.823 14.2743 171.823 13.447V8.432H173.863V13.243C173.863 13.9797 174.016 14.5407 174.322 14.926C174.639 15.3 175.115 15.487 175.75 15.487C176.158 15.487 176.52 15.3907 176.838 15.198C177.166 15.0053 177.421 14.7277 177.603 14.365C177.795 13.991 177.892 13.5377 177.892 13.005V8.432H179.932V17H178.13L177.977 15.572C177.716 16.0707 177.336 16.4673 176.838 16.762C176.35 17.0567 175.778 17.204 175.121 17.204ZM185.839 17.204C185.046 17.204 184.338 17.0113 183.714 16.626C183.091 16.2407 182.604 15.708 182.252 15.028C181.912 14.348 181.742 13.5773 181.742 12.716C181.742 11.8547 181.918 11.0897 182.269 10.421C182.621 9.741 183.108 9.20833 183.731 8.823C184.366 8.42633 185.08 8.228 185.873 8.228C186.519 8.228 187.08 8.35267 187.556 8.602C188.044 8.84 188.429 9.18 188.712 9.622V4.76H190.752V17H188.916L188.712 15.759C188.531 16.0083 188.31 16.2463 188.049 16.473C187.789 16.6883 187.477 16.864 187.114 17C186.752 17.136 186.327 17.204 185.839 17.204ZM186.264 15.436C186.752 15.436 187.182 15.3227 187.556 15.096C187.93 14.858 188.219 14.535 188.423 14.127C188.627 13.719 188.729 13.2487 188.729 12.716C188.729 12.1833 188.627 11.713 188.423 11.305C188.219 10.897 187.93 10.5797 187.556 10.353C187.182 10.1263 186.752 10.013 186.264 10.013C185.8 10.013 185.38 10.1263 185.006 10.353C184.632 10.5797 184.338 10.897 184.122 11.305C183.918 11.713 183.816 12.1833 183.816 12.716C183.816 13.2487 183.918 13.719 184.122 14.127C184.338 14.535 184.632 14.858 185.006 15.096C185.38 15.3227 185.8 15.436 186.264 15.436ZM195.708 17.204C195.005 17.204 194.421 17.085 193.957 16.847C193.492 16.609 193.146 16.2917 192.92 15.895C192.693 15.4983 192.58 15.0677 192.58 14.603C192.58 14.059 192.716 13.5887 192.988 13.192C193.271 12.7953 193.685 12.4893 194.229 12.274C194.773 12.0473 195.441 11.934 196.235 11.934H198.394C198.394 11.4807 198.331 11.1067 198.207 10.812C198.082 10.506 197.889 10.2793 197.629 10.132C197.368 9.98467 197.034 9.911 196.626 9.911C196.161 9.911 195.764 10.0187 195.436 10.234C195.107 10.438 194.903 10.7553 194.824 11.186H192.818C192.886 10.574 193.09 10.0527 193.43 9.622C193.77 9.18 194.217 8.84 194.773 8.602C195.339 8.35267 195.957 8.228 196.626 8.228C197.43 8.228 198.116 8.36967 198.683 8.653C199.249 8.925 199.68 9.32167 199.975 9.843C200.281 10.353 200.434 10.9707 200.434 11.696V17H198.7L198.496 15.623C198.382 15.8497 198.235 16.0593 198.054 16.252C197.884 16.4447 197.685 16.6147 197.459 16.762C197.232 16.898 196.971 17.0057 196.677 17.085C196.393 17.1643 196.07 17.204 195.708 17.204ZM196.167 15.589C196.495 15.589 196.784 15.5323 197.034 15.419C197.294 15.2943 197.515 15.1243 197.697 14.909C197.889 14.6823 198.037 14.433 198.139 14.161C198.241 13.889 198.309 13.6 198.343 13.294V13.26H196.456C196.059 13.26 195.73 13.311 195.47 13.413C195.209 13.5037 195.022 13.6397 194.909 13.821C194.795 14.0023 194.739 14.212 194.739 14.45C194.739 14.688 194.795 14.892 194.909 15.062C195.022 15.232 195.186 15.3623 195.402 15.453C195.617 15.5437 195.872 15.589 196.167 15.589ZM202.443 17V8.432H204.262L204.449 10.03C204.653 9.656 204.908 9.33867 205.214 9.078C205.52 8.806 205.877 8.59633 206.285 8.449C206.705 8.30167 207.164 8.228 207.662 8.228V10.387H206.948C206.608 10.387 206.285 10.4323 205.979 10.523C205.673 10.6023 205.407 10.7383 205.18 10.931C204.965 11.1123 204.795 11.3673 204.67 11.696C204.546 12.0133 204.483 12.4157 204.483 12.903V17H202.443ZM212.753 17C212.175 17 211.671 16.9093 211.24 16.728C210.821 16.5467 210.492 16.2463 210.254 15.827C210.016 15.4077 209.897 14.841 209.897 14.127V10.149H208.435V8.432H209.897L210.135 6.171H211.937V8.432H214.266V10.149H211.937V14.127C211.937 14.5577 212.028 14.858 212.209 15.028C212.402 15.1867 212.719 15.266 213.161 15.266H214.215V17H212.753ZM219.812 17.204C218.962 17.204 218.214 17.0227 217.568 16.66C216.922 16.286 216.417 15.7647 216.055 15.096C215.692 14.4273 215.511 13.6567 215.511 12.784C215.511 11.8773 215.686 11.084 216.038 10.404C216.4 9.724 216.905 9.19133 217.551 8.806C218.208 8.42067 218.967 8.228 219.829 8.228C220.667 8.228 221.398 8.415 222.022 8.789C222.645 9.163 223.127 9.66733 223.467 10.302C223.807 10.9253 223.977 11.628 223.977 12.41C223.977 12.5233 223.977 12.648 223.977 12.784C223.977 12.92 223.965 13.0617 223.943 13.209H216.973V11.9H221.92C221.897 11.2767 221.687 10.7893 221.291 10.438C220.894 10.0753 220.401 9.894 219.812 9.894C219.392 9.894 219.007 9.99033 218.656 10.183C218.304 10.3757 218.027 10.6647 217.823 11.05C217.619 11.424 217.517 11.9 217.517 12.478V12.971C217.517 13.5037 217.613 13.9627 217.806 14.348C218.01 14.7333 218.282 15.028 218.622 15.232C218.973 15.4247 219.364 15.521 219.795 15.521C220.271 15.521 220.662 15.419 220.968 15.215C221.285 15.011 221.517 14.739 221.665 14.399H223.739C223.58 14.9317 223.319 15.4133 222.957 15.844C222.594 16.2633 222.146 16.5977 221.614 16.847C221.081 17.085 220.48 17.204 219.812 17.204Z" fill="#2AB5B6"/>
<path d="M21.065 78.66C17.215 78.66 13.8967 77.835 11.11 76.185C8.36 74.4983 6.23333 72.17 4.73 69.2C3.26333 66.1933 2.53 62.7283 2.53 58.805C2.53 54.8817 3.26333 51.4167 4.73 48.41C6.23333 45.4033 8.36 43.0567 11.11 41.37C13.8967 39.6833 17.215 38.84 21.065 38.84C25.7217 38.84 29.535 39.995 32.505 42.305C35.475 44.615 37.3267 47.8783 38.06 52.095H29.975C29.4983 50.0417 28.49 48.4467 26.95 47.31C25.4467 46.1367 23.4667 45.55 21.01 45.55C18.7367 45.55 16.775 46.1 15.125 47.2C13.5117 48.2633 12.265 49.785 11.385 51.765C10.505 53.7083 10.065 56.055 10.065 58.805C10.065 61.5183 10.505 63.865 11.385 65.845C12.265 67.825 13.5117 69.3467 15.125 70.41C16.775 71.4733 18.7367 72.005 21.01 72.005C23.4667 72.005 25.4467 71.4733 26.95 70.41C28.4533 69.31 29.4433 67.7883 29.92 65.845H38.06C37.3267 69.8417 35.475 72.9767 32.505 75.25C29.535 77.5233 25.7217 78.66 21.065 78.66ZM56.7755 78.66C54.1355 78.66 51.7521 78.055 49.6255 76.845C47.5355 75.5983 45.8671 73.8933 44.6205 71.73C43.4105 69.53 42.8055 67.0183 42.8055 64.195C42.8055 61.2983 43.4105 58.7683 44.6205 56.605C45.8671 54.405 47.5538 52.7 49.6805 51.49C51.8071 50.2433 54.1905 49.62 56.8305 49.62C59.5071 49.62 61.8905 50.2433 63.9805 51.49C66.1071 52.7 67.7755 54.405 68.9855 56.605C70.2321 58.7683 70.8555 61.28 70.8555 64.14C70.8555 67 70.2321 69.53 68.9855 71.73C67.7755 73.8933 66.1071 75.5983 63.9805 76.845C61.8538 78.055 59.4521 78.66 56.7755 78.66ZM56.7755 72.225C58.0221 72.225 59.1221 71.9317 60.0755 71.345C61.0655 70.7583 61.8355 69.86 62.3855 68.65C62.9721 67.44 63.2655 65.9367 63.2655 64.14C63.2655 62.3433 62.9721 60.8583 62.3855 59.685C61.8355 58.475 61.0655 57.5767 60.0755 56.99C59.1221 56.3667 58.0405 56.055 56.8305 56.055C55.6571 56.055 54.5755 56.3667 53.5855 56.99C52.5955 57.5767 51.8071 58.475 51.2205 59.685C50.6705 60.8583 50.3955 62.3433 50.3955 64.14C50.3955 65.9367 50.6705 67.44 51.2205 68.65C51.8071 69.86 52.5771 70.7583 53.5305 71.345C54.5205 71.9317 55.6021 72.225 56.7755 72.225ZM76.7048 78V50.28H83.2498L83.7998 54.79C84.6431 53.25 85.8348 52.0033 87.3748 51.05C88.9515 50.0967 90.8215 49.62 92.9848 49.62C95.2948 49.62 97.2381 50.0967 98.8148 51.05C100.391 52.0033 101.583 53.3967 102.39 55.23C103.233 57.0633 103.655 59.3183 103.655 61.995V78H96.2848V62.71C96.2848 60.51 95.8081 58.8233 94.8548 57.65C93.9381 56.4767 92.5081 55.89 90.5648 55.89C89.3181 55.89 88.1998 56.1833 87.2098 56.77C86.2565 57.3567 85.5048 58.2 84.9548 59.3C84.4048 60.3633 84.1298 61.665 84.1298 63.205V78H76.7048ZM122.585 78C120.642 78 118.937 77.7067 117.47 77.12C116.04 76.4967 114.922 75.4883 114.115 74.095C113.308 72.665 112.905 70.7217 112.905 68.265V56.495H108.175V50.28H112.905L113.73 42.745H120.33V50.28H127.645V56.495H120.33V68.375C120.33 69.6217 120.605 70.4833 121.155 70.96C121.705 71.4367 122.64 71.675 123.96 71.675H127.59V78H122.585ZM142.694 78.66C140.384 78.66 138.477 78.2933 136.974 77.56C135.471 76.79 134.352 75.7817 133.619 74.535C132.922 73.2517 132.574 71.84 132.574 70.3C132.574 68.6133 132.996 67.1283 133.839 65.845C134.719 64.5617 136.021 63.5533 137.744 62.82C139.504 62.0867 141.704 61.72 144.344 61.72H151.219C151.219 60.3633 151.036 59.245 150.669 58.365C150.302 57.4483 149.734 56.77 148.964 56.33C148.194 55.89 147.167 55.67 145.884 55.67C144.491 55.67 143.299 55.9817 142.309 56.605C141.356 57.1917 140.769 58.1083 140.549 59.355H133.344C133.527 57.375 134.169 55.67 135.269 54.24C136.406 52.7733 137.891 51.6367 139.724 50.83C141.594 50.0233 143.666 49.62 145.939 49.62C148.542 49.62 150.797 50.06 152.704 50.94C154.611 51.82 156.077 53.085 157.104 54.735C158.131 56.385 158.644 58.42 158.644 60.84V78H152.374L151.549 73.765C151.146 74.4983 150.669 75.1583 150.119 75.745C149.569 76.3317 148.927 76.845 148.194 77.285C147.461 77.725 146.636 78.055 145.719 78.275C144.802 78.5317 143.794 78.66 142.694 78.66ZM144.454 72.94C145.407 72.94 146.251 72.775 146.984 72.445C147.754 72.0783 148.414 71.6017 148.964 71.015C149.514 70.3917 149.936 69.695 150.229 68.925C150.559 68.1183 150.779 67.2567 150.889 66.34V66.285H145.224C144.087 66.285 143.152 66.4317 142.419 66.725C141.722 66.9817 141.209 67.3667 140.879 67.88C140.549 68.3933 140.384 68.98 140.384 69.64C140.384 70.3733 140.549 70.9783 140.879 71.455C141.209 71.9317 141.686 72.2983 142.309 72.555C142.932 72.8117 143.647 72.94 144.454 72.94ZM139.834 47.915L139.174 43.02L151.219 36.145L152.099 41.81L139.834 47.915ZM178.441 78.66C175.654 78.66 173.179 78.0367 171.016 76.79C168.852 75.5433 167.166 73.8383 165.956 71.675C164.746 69.5117 164.141 67.0367 164.141 64.25C164.141 61.39 164.746 58.8783 165.956 56.715C167.166 54.515 168.852 52.7917 171.016 51.545C173.179 50.2617 175.654 49.62 178.441 49.62C181.997 49.62 184.986 50.555 187.406 52.425C189.826 54.295 191.366 56.8617 192.026 60.125H184.161C183.831 58.8417 183.134 57.8333 182.071 57.1C181.044 56.3667 179.816 56 178.386 56C177.102 56 175.947 56.33 174.921 56.99C173.931 57.6133 173.142 58.5483 172.556 59.795C172.006 61.005 171.731 62.4533 171.731 64.14C171.731 65.4233 171.896 66.5783 172.226 67.605C172.556 68.595 173.014 69.4567 173.601 70.19C174.187 70.8867 174.884 71.4183 175.691 71.785C176.534 72.1517 177.432 72.335 178.386 72.335C179.339 72.335 180.201 72.17 180.971 71.84C181.777 71.51 182.456 71.0517 183.006 70.465C183.556 69.8417 183.941 69.09 184.161 68.21H192.026C191.366 71.4 189.807 73.9483 187.351 75.855C184.931 77.725 181.961 78.66 178.441 78.66ZM210.042 78C208.098 78 206.393 77.7067 204.927 77.12C203.497 76.4967 202.378 75.4883 201.572 74.095C200.765 72.665 200.362 70.7217 200.362 68.265V56.495H195.632V50.28H200.362L201.187 42.745H207.787V50.28H215.102V56.495H207.787V68.375C207.787 69.6217 208.062 70.4833 208.612 70.96C209.162 71.4367 210.097 71.675 211.417 71.675H215.047V78H210.042ZM230.151 78.66C227.841 78.66 225.934 78.2933 224.431 77.56C222.927 76.79 221.809 75.7817 221.076 74.535C220.379 73.2517 220.031 71.84 220.031 70.3C220.031 68.6133 220.452 67.1283 221.296 65.845C222.176 64.5617 223.477 63.5533 225.201 62.82C226.961 62.0867 229.161 61.72 231.801 61.72H238.676C238.676 60.3633 238.492 59.245 238.126 58.365C237.759 57.4483 237.191 56.77 236.421 56.33C235.651 55.89 234.624 55.67 233.341 55.67C231.947 55.67 230.756 55.9817 229.766 56.605C228.812 57.1917 228.226 58.1083 228.006 59.355H220.801C220.984 57.375 221.626 55.67 222.726 54.24C223.862 52.7733 225.347 51.6367 227.181 50.83C229.051 50.0233 231.122 49.62 233.396 49.62C235.999 49.62 238.254 50.06 240.161 50.94C242.067 51.82 243.534 53.085 244.561 54.735C245.587 56.385 246.101 58.42 246.101 60.84V78H239.831L239.006 73.765C238.602 74.4983 238.126 75.1583 237.576 75.745C237.026 76.3317 236.384 76.845 235.651 77.285C234.917 77.725 234.092 78.055 233.176 78.275C232.259 78.5317 231.251 78.66 230.151 78.66ZM231.911 72.94C232.864 72.94 233.707 72.775 234.441 72.445C235.211 72.0783 235.871 71.6017 236.421 71.015C236.971 70.3917 237.392 69.695 237.686 68.925C238.016 68.1183 238.236 67.2567 238.346 66.34V66.285H232.681C231.544 66.285 230.609 66.4317 229.876 66.725C229.179 66.9817 228.666 67.3667 228.336 67.88C228.006 68.3933 227.841 68.98 227.841 69.64C227.841 70.3733 228.006 70.9783 228.336 71.455C228.666 71.9317 229.142 72.2983 229.766 72.555C230.389 72.8117 231.104 72.94 231.911 72.94ZM252.477 78V50.28H259.022L259.572 54.79C260.415 53.25 261.607 52.0033 263.147 51.05C264.724 50.0967 266.594 49.62 268.757 49.62C271.067 49.62 273.01 50.0967 274.587 51.05C276.164 52.0033 277.355 53.3967 278.162 55.23C279.005 57.0633 279.427 59.3183 279.427 61.995V78H272.057V62.71C272.057 60.51 271.58 58.8233 270.627 57.65C269.71 56.4767 268.28 55.89 266.337 55.89C265.09 55.89 263.972 56.1833 262.982 56.77C262.029 57.3567 261.277 58.2 260.727 59.3C260.177 60.3633 259.902 61.665 259.902 63.205V78H252.477ZM298.962 78.66C296.322 78.66 293.939 78.055 291.812 76.845C289.722 75.5983 288.054 73.8933 286.807 71.73C285.597 69.53 284.992 67.0183 284.992 64.195C284.992 61.2983 285.597 58.7683 286.807 56.605C288.054 54.405 289.741 52.7 291.867 51.49C293.994 50.2433 296.377 49.62 299.017 49.62C301.694 49.62 304.077 50.2433 306.167 51.49C308.294 52.7 309.962 54.405 311.172 56.605C312.419 58.7683 313.042 61.28 313.042 64.14C313.042 67 312.419 69.53 311.172 71.73C309.962 73.8933 308.294 75.5983 306.167 76.845C304.041 78.055 301.639 78.66 298.962 78.66ZM298.962 72.225C300.209 72.225 301.309 71.9317 302.262 71.345C303.252 70.7583 304.022 69.86 304.572 68.65C305.159 67.44 305.452 65.9367 305.452 64.14C305.452 62.3433 305.159 60.8583 304.572 59.685C304.022 58.475 303.252 57.5767 302.262 56.99C301.309 56.3667 300.227 56.055 299.017 56.055C297.844 56.055 296.762 56.3667 295.772 56.99C294.782 57.5767 293.994 58.475 293.407 59.685C292.857 60.8583 292.582 62.3433 292.582 64.14C292.582 65.9367 292.857 67.44 293.407 68.65C293.994 69.86 294.764 70.7583 295.717 71.345C296.707 71.9317 297.789 72.225 298.962 72.225ZM330.222 78.66C327.692 78.66 325.492 78.2567 323.622 77.45C321.752 76.6433 320.285 75.525 319.222 74.095C318.158 72.665 317.553 71.0517 317.407 69.255H324.777C324.96 69.9517 325.272 70.5933 325.712 71.18C326.152 71.73 326.738 72.17 327.472 72.5C328.205 72.83 329.085 72.995 330.112 72.995C331.102 72.995 331.908 72.8667 332.532 72.61C333.155 72.3167 333.613 71.9317 333.907 71.455C334.237 70.9783 334.402 70.4833 334.402 69.97C334.402 69.2 334.182 68.6133 333.742 68.21C333.302 67.77 332.66 67.4217 331.817 67.165C330.973 66.9083 329.947 66.6517 328.737 66.395C327.417 66.1383 326.115 65.8267 324.832 65.46C323.585 65.0567 322.467 64.5617 321.477 63.975C320.487 63.3883 319.698 62.6367 319.112 61.72C318.525 60.8033 318.232 59.6667 318.232 58.31C318.232 56.66 318.672 55.1933 319.552 53.91C320.432 52.59 321.715 51.545 323.402 50.775C325.088 50.005 327.123 49.62 329.507 49.62C332.843 49.62 335.483 50.3717 337.427 51.875C339.37 53.3783 340.525 55.45 340.892 58.09H333.907C333.687 57.2467 333.192 56.5867 332.422 56.11C331.688 55.5967 330.698 55.34 329.452 55.34C328.132 55.34 327.123 55.5783 326.427 56.055C325.73 56.5317 325.382 57.155 325.382 57.925C325.382 58.4383 325.602 58.8967 326.042 59.3C326.518 59.7033 327.178 60.0517 328.022 60.345C328.865 60.6017 329.892 60.8583 331.102 61.115C333.228 61.555 335.098 62.0683 336.712 62.655C338.325 63.205 339.59 64.0117 340.507 65.075C341.423 66.1017 341.882 67.605 341.882 69.585C341.882 71.345 341.405 72.9217 340.452 74.315C339.498 75.6717 338.142 76.735 336.382 77.505C334.658 78.275 332.605 78.66 330.222 78.66Z" fill="black"/>
<path d="M6.494 144.204C5.31533 144.204 4.29533 143.949 3.434 143.439C2.584 142.918 1.92667 142.198 1.462 141.28C1.00867 140.351 0.782 139.28 0.782 138.067C0.782 136.843 1.00867 135.772 1.462 134.854C1.92667 133.925 2.584 133.199 3.434 132.678C4.29533 132.157 5.31533 131.896 6.494 131.896C7.91067 131.896 9.06667 132.247 9.962 132.95C10.8573 133.641 11.424 134.622 11.662 135.891H9.418C9.25933 135.222 8.93633 134.695 8.449 134.31C7.96167 133.925 7.30433 133.732 6.477 133.732C5.729 133.732 5.083 133.908 4.539 134.259C4.00633 134.599 3.59267 135.098 3.298 135.755C3.01467 136.401 2.873 137.172 2.873 138.067C2.873 138.962 3.01467 139.733 3.298 140.379C3.59267 141.014 4.00633 141.507 4.539 141.858C5.083 142.198 5.729 142.368 6.477 142.368C7.30433 142.368 7.96167 142.192 8.449 141.841C8.93633 141.478 9.25933 140.98 9.418 140.345H11.662C11.4353 141.546 10.8687 142.493 9.962 143.184C9.06667 143.864 7.91067 144.204 6.494 144.204ZM16.5992 144.204C15.9078 144.204 15.3128 144.068 14.8142 143.796C14.3268 143.513 13.9528 143.093 13.6922 142.538C13.4315 141.971 13.3012 141.274 13.3012 140.447V135.432H15.3412V140.243C15.3412 140.98 15.4942 141.541 15.8002 141.926C16.1175 142.3 16.5935 142.487 17.2282 142.487C17.6362 142.487 17.9988 142.391 18.3162 142.198C18.6448 142.005 18.8998 141.728 19.0812 141.365C19.2738 140.991 19.3702 140.538 19.3702 140.005V135.432H21.4102V144H19.6082L19.4552 142.572C19.1945 143.071 18.8148 143.467 18.3162 143.762C17.8288 144.057 17.2565 144.204 16.5992 144.204ZM27.5219 144.204C26.6719 144.204 25.9239 144.023 25.2779 143.66C24.6319 143.286 24.1276 142.765 23.7649 142.096C23.4023 141.427 23.2209 140.657 23.2209 139.784C23.2209 138.877 23.3966 138.084 23.7479 137.404C24.1106 136.724 24.6149 136.191 25.2609 135.806C25.9183 135.421 26.6776 135.228 27.5389 135.228C28.3776 135.228 29.1086 135.415 29.7319 135.789C30.3553 136.163 30.8369 136.667 31.1769 137.302C31.5169 137.925 31.6869 138.628 31.6869 139.41C31.6869 139.523 31.6869 139.648 31.6869 139.784C31.6869 139.92 31.6756 140.062 31.6529 140.209H24.6829V138.9H29.6299C29.6073 138.277 29.3976 137.789 29.0009 137.438C28.6043 137.075 28.1113 136.894 27.5219 136.894C27.1026 136.894 26.7173 136.99 26.3659 137.183C26.0146 137.376 25.7369 137.665 25.5329 138.05C25.3289 138.424 25.2269 138.9 25.2269 139.478V139.971C25.2269 140.504 25.3233 140.963 25.5159 141.348C25.7199 141.733 25.9919 142.028 26.3319 142.232C26.6833 142.425 27.0743 142.521 27.5049 142.521C27.9809 142.521 28.3719 142.419 28.6779 142.215C28.9953 142.011 29.2276 141.739 29.3749 141.399H31.4489C31.2903 141.932 31.0296 142.413 30.6669 142.844C30.3043 143.263 29.8566 143.598 29.3239 143.847C28.7913 144.085 28.1906 144.204 27.5219 144.204ZM25.7199 134.701L25.5329 133.324L29.1709 131.199L29.4089 132.78L25.7199 134.701ZM33.4005 144V135.432H35.2025L35.3555 136.86C35.6162 136.361 35.9902 135.965 36.4775 135.67C36.9648 135.375 37.5428 135.228 38.2115 135.228C38.9028 135.228 39.4922 135.375 39.9795 135.67C40.4668 135.953 40.8408 136.373 41.1015 136.928C41.3735 137.483 41.5095 138.175 41.5095 139.002V144H39.4695V139.189C39.4695 138.475 39.3108 137.925 38.9935 137.54C38.6762 137.155 38.2058 136.962 37.5825 136.962C37.1745 136.962 36.8062 137.058 36.4775 137.251C36.1602 137.444 35.9052 137.727 35.7125 138.101C35.5312 138.464 35.4405 138.906 35.4405 139.427V144H33.4005ZM47.2132 144C46.6352 144 46.1309 143.909 45.7002 143.728C45.2809 143.547 44.9522 143.246 44.7142 142.827C44.4762 142.408 44.3572 141.841 44.3572 141.127V137.149H42.8952V135.432H44.3572L44.5952 133.171H46.3972V135.432H48.7263V137.149H46.3972V141.127C46.3972 141.558 46.4879 141.858 46.6692 142.028C46.8619 142.187 47.1793 142.266 47.6212 142.266H48.6752V144H47.2132ZM53.3315 144.204C52.6289 144.204 52.0452 144.085 51.5805 143.847C51.1159 143.609 50.7702 143.292 50.5435 142.895C50.3169 142.498 50.2035 142.068 50.2035 141.603C50.2035 141.059 50.3395 140.589 50.6115 140.192C50.8949 139.795 51.3085 139.489 51.8525 139.274C52.3965 139.047 53.0652 138.934 53.8585 138.934H56.0175C56.0175 138.481 55.9552 138.107 55.8305 137.812C55.7059 137.506 55.5132 137.279 55.2525 137.132C54.9919 136.985 54.6575 136.911 54.2495 136.911C53.7849 136.911 53.3882 137.019 53.0595 137.234C52.7309 137.438 52.5269 137.755 52.4475 138.186H50.4415C50.5095 137.574 50.7135 137.053 51.0535 136.622C51.3935 136.18 51.8412 135.84 52.3965 135.602C52.9632 135.353 53.5809 135.228 54.2495 135.228C55.0542 135.228 55.7399 135.37 56.3065 135.653C56.8732 135.925 57.3039 136.322 57.5985 136.843C57.9045 137.353 58.0575 137.971 58.0575 138.696V144H56.3235L56.1195 142.623C56.0062 142.85 55.8589 143.059 55.6775 143.252C55.5075 143.445 55.3092 143.615 55.0825 143.762C54.8559 143.898 54.5952 144.006 54.3005 144.085C54.0172 144.164 53.6942 144.204 53.3315 144.204ZM53.7905 142.589C54.1192 142.589 54.4082 142.532 54.6575 142.419C54.9182 142.294 55.1392 142.124 55.3205 141.909C55.5132 141.682 55.6605 141.433 55.7625 141.161C55.8645 140.889 55.9325 140.6 55.9665 140.294V140.26H54.0795C53.6829 140.26 53.3542 140.311 53.0935 140.413C52.8329 140.504 52.6459 140.64 52.5325 140.821C52.4192 141.002 52.3625 141.212 52.3625 141.45C52.3625 141.688 52.4192 141.892 52.5325 142.062C52.6459 142.232 52.8102 142.362 53.0255 142.453C53.2409 142.544 53.4959 142.589 53.7905 142.589ZM60.0672 144V135.432H61.8692L62.0222 136.86C62.2829 136.361 62.6569 135.965 63.1442 135.67C63.6316 135.375 64.2096 135.228 64.8782 135.228C65.5696 135.228 66.1589 135.375 66.6462 135.67C67.1336 135.953 67.5076 136.373 67.7682 136.928C68.0402 137.483 68.1762 138.175 68.1762 139.002V144H66.1362V139.189C66.1362 138.475 65.9776 137.925 65.6602 137.54C65.3429 137.155 64.8726 136.962 64.2492 136.962C63.8412 136.962 63.4729 137.058 63.1442 137.251C62.8269 137.444 62.5719 137.727 62.3792 138.101C62.1979 138.464 62.1072 138.906 62.1072 139.427V144H60.0672ZM74.152 144.204C73.336 144.204 72.5993 144.017 71.942 143.643C71.296 143.258 70.786 142.731 70.412 142.062C70.0493 141.382 69.868 140.606 69.868 139.733C69.868 138.838 70.055 138.056 70.429 137.387C70.803 136.707 71.313 136.18 71.959 135.806C72.6163 135.421 73.353 135.228 74.169 135.228C74.985 135.228 75.716 135.421 76.362 135.806C77.0193 136.18 77.5293 136.701 77.892 137.37C78.266 138.039 78.453 138.821 78.453 139.716C78.453 140.611 78.266 141.393 77.892 142.062C77.518 142.731 77.0023 143.258 76.345 143.643C75.699 144.017 74.968 144.204 74.152 144.204ZM74.152 142.453C74.56 142.453 74.9283 142.351 75.257 142.147C75.597 141.943 75.869 141.637 76.073 141.229C76.277 140.821 76.379 140.317 76.379 139.716C76.379 139.115 76.277 138.617 76.073 138.22C75.8803 137.812 75.614 137.506 75.274 137.302C74.9453 137.098 74.577 136.996 74.169 136.996C73.7723 136.996 73.404 137.098 73.064 137.302C72.724 137.506 72.452 137.812 72.248 138.22C72.044 138.617 71.942 139.115 71.942 139.716C71.942 140.317 72.044 140.821 72.248 141.229C72.452 141.637 72.7183 141.943 73.047 142.147C73.387 142.351 73.7553 142.453 74.152 142.453ZM83.697 144.204C82.9376 144.204 82.2746 144.085 81.708 143.847C81.1526 143.598 80.7106 143.258 80.382 142.827C80.0646 142.385 79.8776 141.881 79.821 141.314H81.861C81.9176 141.552 82.0196 141.773 82.167 141.977C82.3143 142.17 82.5126 142.323 82.762 142.436C83.0226 142.549 83.3286 142.606 83.68 142.606C84.02 142.606 84.2976 142.561 84.513 142.47C84.7283 142.368 84.887 142.238 84.989 142.079C85.091 141.92 85.142 141.75 85.142 141.569C85.142 141.297 85.0683 141.087 84.921 140.94C84.7736 140.793 84.5583 140.679 84.275 140.6C84.003 140.509 83.6743 140.424 83.289 140.345C82.881 140.266 82.4843 140.169 82.099 140.056C81.725 139.931 81.385 139.778 81.079 139.597C80.7843 139.416 80.5463 139.183 80.365 138.9C80.195 138.617 80.11 138.271 80.11 137.863C80.11 137.364 80.2403 136.917 80.501 136.52C80.773 136.123 81.1583 135.812 81.657 135.585C82.167 135.347 82.7733 135.228 83.476 135.228C84.4733 135.228 85.2666 135.46 85.856 135.925C86.4566 136.378 86.808 137.019 86.91 137.846H84.972C84.9153 137.529 84.7566 137.285 84.496 137.115C84.2353 136.934 83.8896 136.843 83.459 136.843C83.017 136.843 82.677 136.928 82.439 137.098C82.2123 137.257 82.099 137.472 82.099 137.744C82.099 137.914 82.167 138.073 82.303 138.22C82.4503 138.356 82.66 138.475 82.932 138.577C83.204 138.668 83.5383 138.758 83.935 138.849C84.5696 138.974 85.1306 139.121 85.618 139.291C86.1053 139.461 86.4906 139.71 86.774 140.039C87.0573 140.368 87.199 140.832 87.199 141.433C87.2103 141.977 87.0686 142.459 86.774 142.878C86.4906 143.297 86.0883 143.626 85.567 143.864C85.0456 144.091 84.4223 144.204 83.697 144.204ZM100.386 144.204C99.6269 144.204 98.9639 144.085 98.3972 143.847C97.8419 143.598 97.3999 143.258 97.0712 142.827C96.7539 142.385 96.5669 141.881 96.5102 141.314H98.5502C98.6069 141.552 98.7089 141.773 98.8562 141.977C99.0035 142.17 99.2019 142.323 99.4512 142.436C99.7119 142.549 100.018 142.606 100.369 142.606C100.709 142.606 100.987 142.561 101.202 142.47C101.418 142.368 101.576 142.238 101.678 142.079C101.78 141.92 101.831 141.75 101.831 141.569C101.831 141.297 101.758 141.087 101.61 140.94C101.463 140.793 101.248 140.679 100.964 140.6C100.692 140.509 100.364 140.424 99.9782 140.345C99.5702 140.266 99.1735 140.169 98.7882 140.056C98.4142 139.931 98.0742 139.778 97.7682 139.597C97.4735 139.416 97.2355 139.183 97.0542 138.9C96.8842 138.617 96.7992 138.271 96.7992 137.863C96.7992 137.364 96.9295 136.917 97.1902 136.52C97.4622 136.123 97.8475 135.812 98.3462 135.585C98.8562 135.347 99.4625 135.228 100.165 135.228C101.163 135.228 101.956 135.46 102.545 135.925C103.146 136.378 103.497 137.019 103.599 137.846H101.661C101.605 137.529 101.446 137.285 101.185 137.115C100.925 136.934 100.579 136.843 100.148 136.843C99.7062 136.843 99.3662 136.928 99.1282 137.098C98.9015 137.257 98.7882 137.472 98.7882 137.744C98.7882 137.914 98.8562 138.073 98.9922 138.22C99.1395 138.356 99.3492 138.475 99.6212 138.577C99.8932 138.668 100.228 138.758 100.624 138.849C101.259 138.974 101.82 139.121 102.307 139.291C102.795 139.461 103.18 139.71 103.463 140.039C103.747 140.368 103.888 140.832 103.888 141.433C103.9 141.977 103.758 142.459 103.463 142.878C103.18 143.297 102.778 143.626 102.256 143.864C101.735 144.091 101.112 144.204 100.386 144.204ZM109.693 144.204C108.877 144.204 108.14 144.017 107.483 143.643C106.837 143.258 106.327 142.731 105.953 142.062C105.59 141.382 105.409 140.606 105.409 139.733C105.409 138.838 105.596 138.056 105.97 137.387C106.344 136.707 106.854 136.18 107.5 135.806C108.157 135.421 108.894 135.228 109.71 135.228C110.526 135.228 111.257 135.421 111.903 135.806C112.56 136.18 113.07 136.701 113.433 137.37C113.807 138.039 113.994 138.821 113.994 139.716C113.994 140.611 113.807 141.393 113.433 142.062C113.059 142.731 112.543 143.258 111.886 143.643C111.24 144.017 110.509 144.204 109.693 144.204ZM109.693 142.453C110.101 142.453 110.469 142.351 110.798 142.147C111.138 141.943 111.41 141.637 111.614 141.229C111.818 140.821 111.92 140.317 111.92 139.716C111.92 139.115 111.818 138.617 111.614 138.22C111.421 137.812 111.155 137.506 110.815 137.302C110.486 137.098 110.118 136.996 109.71 136.996C109.313 136.996 108.945 137.098 108.605 137.302C108.265 137.506 107.993 137.812 107.789 138.22C107.585 138.617 107.483 139.115 107.483 139.716C107.483 140.317 107.585 140.821 107.789 141.229C107.993 141.637 108.259 141.943 108.588 142.147C108.928 142.351 109.296 142.453 109.693 142.453ZM120.717 144.204C120.263 144.204 119.855 144.142 119.493 144.017C119.13 143.904 118.813 143.745 118.541 143.541C118.269 143.326 118.042 143.082 117.861 142.81L117.64 144H115.821V131.76H117.861V136.69C118.133 136.271 118.501 135.925 118.966 135.653C119.43 135.37 120.008 135.228 120.7 135.228C121.504 135.228 122.213 135.426 122.825 135.823C123.448 136.208 123.935 136.741 124.287 137.421C124.649 138.09 124.831 138.86 124.831 139.733C124.831 140.583 124.655 141.348 124.304 142.028C123.952 142.708 123.465 143.241 122.842 143.626C122.23 144.011 121.521 144.204 120.717 144.204ZM120.292 142.436C120.768 142.436 121.193 142.323 121.567 142.096C121.941 141.858 122.23 141.541 122.434 141.144C122.649 140.736 122.757 140.26 122.757 139.716C122.757 139.183 122.649 138.713 122.434 138.305C122.23 137.897 121.941 137.58 121.567 137.353C121.193 137.126 120.768 137.013 120.292 137.013C119.804 137.013 119.374 137.126 119 137.353C118.637 137.58 118.348 137.897 118.133 138.305C117.929 138.713 117.827 139.183 117.827 139.716C117.827 140.26 117.929 140.736 118.133 141.144C118.348 141.541 118.637 141.858 119 142.096C119.374 142.323 119.804 142.436 120.292 142.436ZM126.641 144V135.432H128.46L128.647 137.03C128.851 136.656 129.106 136.339 129.412 136.078C129.718 135.806 130.075 135.596 130.483 135.449C130.902 135.302 131.361 135.228 131.86 135.228V137.387H131.146C130.806 137.387 130.483 137.432 130.177 137.523C129.871 137.602 129.605 137.738 129.378 137.931C129.163 138.112 128.993 138.367 128.868 138.696C128.743 139.013 128.681 139.416 128.681 139.903V144H126.641ZM137.057 144.204C136.207 144.204 135.459 144.023 134.813 143.66C134.167 143.286 133.663 142.765 133.3 142.096C132.937 141.427 132.756 140.657 132.756 139.784C132.756 138.877 132.932 138.084 133.283 137.404C133.646 136.724 134.15 136.191 134.796 135.806C135.453 135.421 136.213 135.228 137.074 135.228C137.913 135.228 138.644 135.415 139.267 135.789C139.89 136.163 140.372 136.667 140.712 137.302C141.052 137.925 141.222 138.628 141.222 139.41C141.222 139.523 141.222 139.648 141.222 139.784C141.222 139.92 141.211 140.062 141.188 140.209H134.218V138.9H139.165C139.142 138.277 138.933 137.789 138.536 137.438C138.139 137.075 137.646 136.894 137.057 136.894C136.638 136.894 136.252 136.99 135.901 137.183C135.55 137.376 135.272 137.665 135.068 138.05C134.864 138.424 134.762 138.9 134.762 139.478V139.971C134.762 140.504 134.858 140.963 135.051 141.348C135.255 141.733 135.527 142.028 135.867 142.232C136.218 142.425 136.609 142.521 137.04 142.521C137.516 142.521 137.907 142.419 138.213 142.215C138.53 142.011 138.763 141.739 138.91 141.399H140.984C140.825 141.932 140.565 142.413 140.202 142.844C139.839 143.263 139.392 143.598 138.859 143.847C138.326 144.085 137.726 144.204 137.057 144.204ZM150.639 144C150.061 144 149.557 143.909 149.126 143.728C148.707 143.547 148.378 143.246 148.14 142.827C147.902 142.408 147.783 141.841 147.783 141.127V137.149H146.321V135.432H147.783L148.021 133.171H149.823V135.432H152.152V137.149H149.823V141.127C149.823 141.558 149.914 141.858 150.095 142.028C150.288 142.187 150.605 142.266 151.047 142.266H152.101V144H150.639ZM157.08 144.204C156.389 144.204 155.794 144.068 155.295 143.796C154.808 143.513 154.434 143.093 154.173 142.538C153.913 141.971 153.782 141.274 153.782 140.447V135.432H155.822V140.243C155.822 140.98 155.975 141.541 156.281 141.926C156.599 142.3 157.075 142.487 157.709 142.487C158.117 142.487 158.48 142.391 158.797 142.198C159.126 142.005 159.381 141.728 159.562 141.365C159.755 140.991 159.851 140.538 159.851 140.005V135.432H161.891V144H160.089L159.936 142.572C159.676 143.071 159.296 143.467 158.797 143.762C158.31 144.057 157.738 144.204 157.08 144.204ZM167.971 147.74V135.432H169.79L170.011 136.673C170.193 136.424 170.408 136.191 170.657 135.976C170.918 135.749 171.23 135.568 171.592 135.432C171.966 135.296 172.391 135.228 172.867 135.228C173.672 135.228 174.38 135.426 174.992 135.823C175.616 136.22 176.103 136.758 176.454 137.438C176.806 138.107 176.981 138.872 176.981 139.733C176.981 140.594 176.8 141.365 176.437 142.045C176.086 142.714 175.599 143.241 174.975 143.626C174.363 144.011 173.661 144.204 172.867 144.204C172.221 144.204 171.655 144.085 171.167 143.847C170.691 143.598 170.306 143.246 170.011 142.793V147.74H167.971ZM172.442 142.436C172.918 142.436 173.343 142.323 173.717 142.096C174.091 141.869 174.38 141.552 174.584 141.144C174.8 140.736 174.907 140.266 174.907 139.733C174.907 139.189 174.8 138.713 174.584 138.305C174.38 137.897 174.091 137.58 173.717 137.353C173.343 137.126 172.918 137.013 172.442 137.013C171.955 137.013 171.524 137.126 171.15 137.353C170.788 137.58 170.499 137.897 170.283 138.305C170.079 138.713 169.977 139.183 169.977 139.716C169.977 140.26 170.079 140.736 170.283 141.144C170.499 141.541 170.788 141.858 171.15 142.096C171.524 142.323 171.955 142.436 172.442 142.436ZM178.792 144V135.432H180.611L180.798 137.03C181.002 136.656 181.257 136.339 181.563 136.078C181.869 135.806 182.226 135.596 182.634 135.449C183.053 135.302 183.512 135.228 184.011 135.228V137.387H183.297C182.957 137.387 182.634 137.432 182.328 137.523C182.022 137.602 181.755 137.738 181.529 137.931C181.313 138.112 181.143 138.367 181.019 138.696C180.894 139.013 180.832 139.416 180.832 139.903V144H178.792ZM189.191 144.204C188.375 144.204 187.638 144.017 186.981 143.643C186.335 143.258 185.825 142.731 185.451 142.062C185.088 141.382 184.907 140.606 184.907 139.733C184.907 138.838 185.094 138.056 185.468 137.387C185.842 136.707 186.352 136.18 186.998 135.806C187.655 135.421 188.392 135.228 189.208 135.228C190.024 135.228 190.755 135.421 191.401 135.806C192.058 136.18 192.568 136.701 192.931 137.37C193.305 138.039 193.492 138.821 193.492 139.716C193.492 140.611 193.305 141.393 192.931 142.062C192.557 142.731 192.041 143.258 191.384 143.643C190.738 144.017 190.007 144.204 189.191 144.204ZM189.191 142.453C189.599 142.453 189.967 142.351 190.296 142.147C190.636 141.943 190.908 141.637 191.112 141.229C191.316 140.821 191.418 140.317 191.418 139.716C191.418 139.115 191.316 138.617 191.112 138.22C190.919 137.812 190.653 137.506 190.313 137.302C189.984 137.098 189.616 136.996 189.208 136.996C188.811 136.996 188.443 137.098 188.103 137.302C187.763 137.506 187.491 137.812 187.287 138.22C187.083 138.617 186.981 139.115 186.981 139.716C186.981 140.317 187.083 140.821 187.287 141.229C187.491 141.637 187.757 141.943 188.086 142.147C188.426 142.351 188.794 142.453 189.191 142.453ZM195.609 147.74L197.7 143.048H197.19L193.773 135.432H196L198.55 141.246L200.964 135.432H203.123L197.768 147.74H195.609ZM207.694 144.204C206.844 144.204 206.096 144.023 205.45 143.66C204.804 143.286 204.3 142.765 203.937 142.096C203.574 141.427 203.393 140.657 203.393 139.784C203.393 138.877 203.569 138.084 203.92 137.404C204.283 136.724 204.787 136.191 205.433 135.806C206.09 135.421 206.85 135.228 207.711 135.228C208.55 135.228 209.281 135.415 209.904 135.789C210.527 136.163 211.009 136.667 211.349 137.302C211.689 137.925 211.859 138.628 211.859 139.41C211.859 139.523 211.859 139.648 211.859 139.784C211.859 139.92 211.848 140.062 211.825 140.209H204.855V138.9H209.802C209.779 138.277 209.57 137.789 209.173 137.438C208.776 137.075 208.283 136.894 207.694 136.894C207.275 136.894 206.889 136.99 206.538 137.183C206.187 137.376 205.909 137.665 205.705 138.05C205.501 138.424 205.399 138.9 205.399 139.478V139.971C205.399 140.504 205.495 140.963 205.688 141.348C205.892 141.733 206.164 142.028 206.504 142.232C206.855 142.425 207.246 142.521 207.677 142.521C208.153 142.521 208.544 142.419 208.85 142.215C209.167 142.011 209.4 141.739 209.547 141.399H211.621C211.462 141.932 211.202 142.413 210.839 142.844C210.476 143.263 210.029 143.598 209.496 143.847C208.963 144.085 208.363 144.204 207.694 144.204ZM217.636 144.204C216.797 144.204 216.043 144.017 215.375 143.643C214.717 143.258 214.202 142.731 213.828 142.062C213.465 141.382 213.284 140.611 213.284 139.75C213.284 138.855 213.465 138.073 213.828 137.404C214.202 136.724 214.717 136.191 215.375 135.806C216.043 135.421 216.803 135.228 217.653 135.228C218.718 135.228 219.613 135.511 220.339 136.078C221.064 136.633 221.529 137.398 221.733 138.373H219.591C219.477 137.942 219.239 137.602 218.877 137.353C218.525 137.104 218.106 136.979 217.619 136.979C217.199 136.979 216.814 137.087 216.463 137.302C216.123 137.517 215.851 137.829 215.647 138.237C215.454 138.645 215.358 139.138 215.358 139.716C215.358 140.158 215.414 140.549 215.528 140.889C215.641 141.229 215.8 141.518 216.004 141.756C216.219 141.983 216.463 142.158 216.735 142.283C217.007 142.408 217.301 142.47 217.619 142.47C217.947 142.47 218.242 142.419 218.503 142.317C218.775 142.204 219.001 142.039 219.183 141.824C219.375 141.609 219.511 141.354 219.591 141.059H221.733C221.529 142.011 221.064 142.776 220.339 143.354C219.613 143.921 218.712 144.204 217.636 144.204ZM227.12 144C226.542 144 226.037 143.909 225.607 143.728C225.187 143.547 224.859 143.246 224.621 142.827C224.383 142.408 224.264 141.841 224.264 141.127V137.149H222.802V135.432H224.264L224.502 133.171H226.304V135.432H228.633V137.149H226.304V141.127C226.304 141.558 226.394 141.858 226.576 142.028C226.768 142.187 227.086 142.266 227.528 142.266H228.582V144H227.12ZM234.161 144.204C233.345 144.204 232.609 144.017 231.951 143.643C231.305 143.258 230.795 142.731 230.421 142.062C230.059 141.382 229.877 140.606 229.877 139.733C229.877 138.838 230.064 138.056 230.438 137.387C230.812 136.707 231.322 136.18 231.968 135.806C232.626 135.421 233.362 135.228 234.178 135.228C234.994 135.228 235.725 135.421 236.371 135.806C237.029 136.18 237.539 136.701 237.901 137.37C238.275 138.039 238.462 138.821 238.462 139.716C238.462 140.611 238.275 141.393 237.901 142.062C237.527 142.731 237.012 143.258 236.354 143.643C235.708 144.017 234.977 144.204 234.161 144.204ZM234.161 142.453C234.569 142.453 234.938 142.351 235.266 142.147C235.606 141.943 235.878 141.637 236.082 141.229C236.286 140.821 236.388 140.317 236.388 139.716C236.388 139.115 236.286 138.617 236.082 138.22C235.89 137.812 235.623 137.506 235.283 137.302C234.955 137.098 234.586 136.996 234.178 136.996C233.782 136.996 233.413 137.098 233.073 137.302C232.733 137.506 232.461 137.812 232.257 138.22C232.053 138.617 231.951 139.115 231.951 139.716C231.951 140.317 232.053 140.821 232.257 141.229C232.461 141.637 232.728 141.943 233.056 142.147C233.396 142.351 233.765 142.453 234.161 142.453ZM2.176 169.74L4.267 165.048H3.757L0.34 157.432H2.567L5.117 163.246L7.531 157.432H9.69L4.335 169.74H2.176ZM18.6997 166C18.1217 166 17.6174 165.909 17.1867 165.728C16.7674 165.547 16.4387 165.246 16.2007 164.827C15.9627 164.408 15.8437 163.841 15.8437 163.127V159.149H14.3817V157.432H15.8437L16.0817 155.171H17.8837V157.432H20.2127V159.149H17.8837V163.127C17.8837 163.558 17.9744 163.858 18.1557 164.028C18.3484 164.187 18.6657 164.266 19.1077 164.266H20.1617V166H18.6997ZM25.7582 166.204C24.9082 166.204 24.1602 166.023 23.5142 165.66C22.8682 165.286 22.3639 164.765 22.0012 164.096C21.6385 163.427 21.4572 162.657 21.4572 161.784C21.4572 160.877 21.6329 160.084 21.9842 159.404C22.3469 158.724 22.8512 158.191 23.4972 157.806C24.1545 157.421 24.9139 157.228 25.7752 157.228C26.6139 157.228 27.3449 157.415 27.9682 157.789C28.5915 158.163 29.0732 158.667 29.4132 159.302C29.7532 159.925 29.9232 160.628 29.9232 161.41C29.9232 161.523 29.9232 161.648 29.9232 161.784C29.9232 161.92 29.9119 162.062 29.8892 162.209H22.9192V160.9H27.8662C27.8435 160.277 27.6339 159.789 27.2372 159.438C26.8405 159.075 26.3475 158.894 25.7582 158.894C25.3389 158.894 24.9535 158.99 24.6022 159.183C24.2509 159.376 23.9732 159.665 23.7692 160.05C23.5652 160.424 23.4632 160.9 23.4632 161.478V161.971C23.4632 162.504 23.5595 162.963 23.7522 163.348C23.9562 163.733 24.2282 164.028 24.5682 164.232C24.9195 164.425 25.3105 164.521 25.7412 164.521C26.2172 164.521 26.6082 164.419 26.9142 164.215C27.2315 164.011 27.4639 163.739 27.6112 163.399H29.6852C29.5265 163.932 29.2659 164.413 28.9032 164.844C28.5405 165.263 28.0929 165.598 27.5602 165.847C27.0275 166.085 26.4269 166.204 25.7582 166.204ZM35.6171 166V157.432H37.4361L37.6231 159.03C37.8271 158.656 38.0821 158.339 38.3881 158.078C38.6941 157.806 39.0511 157.596 39.4591 157.449C39.8785 157.302 40.3375 157.228 40.8361 157.228V159.387H40.1221C39.7821 159.387 39.4591 159.432 39.1531 159.523C38.8471 159.602 38.5808 159.738 38.3541 159.931C38.1388 160.112 37.9688 160.367 37.8441 160.696C37.7195 161.013 37.6571 161.416 37.6571 161.903V166H35.6171ZM46.0333 166.204C45.1833 166.204 44.4353 166.023 43.7893 165.66C43.1433 165.286 42.639 164.765 42.2763 164.096C41.9137 163.427 41.7323 162.657 41.7323 161.784C41.7323 160.877 41.908 160.084 42.2593 159.404C42.622 158.724 43.1263 158.191 43.7723 157.806C44.4297 157.421 45.189 157.228 46.0503 157.228C46.889 157.228 47.62 157.415 48.2433 157.789C48.8667 158.163 49.3483 158.667 49.6883 159.302C50.0283 159.925 50.1983 160.628 50.1983 161.41C50.1983 161.523 50.1983 161.648 50.1983 161.784C50.1983 161.92 50.187 162.062 50.1643 162.209H43.1943V160.9H48.1413C48.1187 160.277 47.909 159.789 47.5123 159.438C47.1157 159.075 46.6227 158.894 46.0333 158.894C45.614 158.894 45.2287 158.99 44.8773 159.183C44.526 159.376 44.2483 159.665 44.0443 160.05C43.8403 160.424 43.7383 160.9 43.7383 161.478V161.971C43.7383 162.504 43.8347 162.963 44.0273 163.348C44.2313 163.733 44.5033 164.028 44.8433 164.232C45.1947 164.425 45.5857 164.521 46.0163 164.521C46.4923 164.521 46.8833 164.419 47.1893 164.215C47.5067 164.011 47.739 163.739 47.8863 163.399H49.9603C49.8017 163.932 49.541 164.413 49.1783 164.844C48.8157 165.263 48.368 165.598 47.8353 165.847C47.3027 166.085 46.702 166.204 46.0333 166.204ZM55.3289 166.204C54.5696 166.204 53.9066 166.085 53.3399 165.847C52.7846 165.598 52.3426 165.258 52.0139 164.827C51.6966 164.385 51.5096 163.881 51.4529 163.314H53.4929C53.5496 163.552 53.6516 163.773 53.7989 163.977C53.9462 164.17 54.1446 164.323 54.3939 164.436C54.6546 164.549 54.9606 164.606 55.3119 164.606C55.6519 164.606 55.9296 164.561 56.1449 164.47C56.3602 164.368 56.5189 164.238 56.6209 164.079C56.7229 163.92 56.7739 163.75 56.7739 163.569C56.7739 163.297 56.7002 163.087 56.5529 162.94C56.4056 162.793 56.1902 162.679 55.9069 162.6C55.6349 162.509 55.3062 162.424 54.9209 162.345C54.5129 162.266 54.1162 162.169 53.7309 162.056C53.3569 161.931 53.0169 161.778 52.7109 161.597C52.4162 161.416 52.1782 161.183 51.9969 160.9C51.8269 160.617 51.7419 160.271 51.7419 159.863C51.7419 159.364 51.8722 158.917 52.1329 158.52C52.4049 158.123 52.7902 157.812 53.2889 157.585C53.7989 157.347 54.4052 157.228 55.1079 157.228C56.1052 157.228 56.8986 157.46 57.4879 157.925C58.0886 158.378 58.4399 159.019 58.5419 159.846H56.6039C56.5472 159.529 56.3886 159.285 56.1279 159.115C55.8672 158.934 55.5216 158.843 55.0909 158.843C54.6489 158.843 54.3089 158.928 54.0709 159.098C53.8442 159.257 53.7309 159.472 53.7309 159.744C53.7309 159.914 53.7989 160.073 53.9349 160.22C54.0822 160.356 54.2919 160.475 54.5639 160.577C54.8359 160.668 55.1702 160.758 55.5669 160.849C56.2016 160.974 56.7626 161.121 57.2499 161.291C57.7372 161.461 58.1226 161.71 58.4059 162.039C58.6892 162.368 58.8309 162.832 58.8309 163.433C58.8422 163.977 58.7006 164.459 58.4059 164.878C58.1226 165.297 57.7202 165.626 57.1989 165.864C56.6776 166.091 56.0542 166.204 55.3289 166.204ZM60.6403 169.74V157.432H62.4593L62.6803 158.673C62.8617 158.424 63.077 158.191 63.3263 157.976C63.587 157.749 63.8987 157.568 64.2613 157.432C64.6353 157.296 65.0603 157.228 65.5363 157.228C66.341 157.228 67.0493 157.426 67.6613 157.823C68.2847 158.22 68.772 158.758 69.1233 159.438C69.4747 160.107 69.6503 160.872 69.6503 161.733C69.6503 162.594 69.469 163.365 69.1063 164.045C68.755 164.714 68.2677 165.241 67.6443 165.626C67.0323 166.011 66.3297 166.204 65.5363 166.204C64.8903 166.204 64.3237 166.085 63.8363 165.847C63.3603 165.598 62.975 165.246 62.6803 164.793V169.74H60.6403ZM65.1113 164.436C65.5873 164.436 66.0123 164.323 66.3863 164.096C66.7603 163.869 67.0493 163.552 67.2533 163.144C67.4687 162.736 67.5763 162.266 67.5763 161.733C67.5763 161.189 67.4687 160.713 67.2533 160.305C67.0493 159.897 66.7603 159.58 66.3863 159.353C66.0123 159.126 65.5873 159.013 65.1113 159.013C64.624 159.013 64.1933 159.126 63.8193 159.353C63.4567 159.58 63.1677 159.897 62.9523 160.305C62.7483 160.713 62.6463 161.183 62.6463 161.716C62.6463 162.26 62.7483 162.736 62.9523 163.144C63.1677 163.541 63.4567 163.858 63.8193 164.096C64.1933 164.323 64.624 164.436 65.1113 164.436ZM75.4556 166.204C74.6396 166.204 73.9029 166.017 73.2456 165.643C72.5996 165.258 72.0896 164.731 71.7156 164.062C71.3529 163.382 71.1716 162.606 71.1716 161.733C71.1716 160.838 71.3586 160.056 71.7326 159.387C72.1066 158.707 72.6166 158.18 73.2626 157.806C73.9199 157.421 74.6566 157.228 75.4726 157.228C76.2886 157.228 77.0196 157.421 77.6656 157.806C78.3229 158.18 78.8329 158.701 79.1956 159.37C79.5696 160.039 79.7566 160.821 79.7566 161.716C79.7566 162.611 79.5696 163.393 79.1956 164.062C78.8216 164.731 78.3059 165.258 77.6486 165.643C77.0026 166.017 76.2716 166.204 75.4556 166.204ZM75.4556 164.453C75.8636 164.453 76.2319 164.351 76.5606 164.147C76.9006 163.943 77.1726 163.637 77.3766 163.229C77.5806 162.821 77.6826 162.317 77.6826 161.716C77.6826 161.115 77.5806 160.617 77.3766 160.22C77.1839 159.812 76.9176 159.506 76.5776 159.302C76.2489 159.098 75.8806 158.996 75.4726 158.996C75.0759 158.996 74.7076 159.098 74.3676 159.302C74.0276 159.506 73.7556 159.812 73.5516 160.22C73.3476 160.617 73.2456 161.115 73.2456 161.716C73.2456 162.317 73.3476 162.821 73.5516 163.229C73.7556 163.637 74.0219 163.943 74.3506 164.147C74.6906 164.351 75.0589 164.453 75.4556 164.453ZM81.5835 166V157.432H83.3855L83.5385 158.86C83.7992 158.361 84.1732 157.965 84.6605 157.67C85.1479 157.375 85.7259 157.228 86.3945 157.228C87.0859 157.228 87.6752 157.375 88.1625 157.67C88.6499 157.953 89.0239 158.373 89.2845 158.928C89.5565 159.483 89.6925 160.175 89.6925 161.002V166H87.6525V161.189C87.6525 160.475 87.4939 159.925 87.1765 159.54C86.8592 159.155 86.3889 158.962 85.7655 158.962C85.3575 158.962 84.9892 159.058 84.6605 159.251C84.3432 159.444 84.0882 159.727 83.8955 160.101C83.7142 160.464 83.6235 160.906 83.6235 161.427V166H81.5835ZM95.4813 166.204C94.688 166.204 93.9796 166.011 93.3563 165.626C92.733 165.241 92.2456 164.708 91.8943 164.028C91.5543 163.348 91.3843 162.577 91.3843 161.716C91.3843 160.855 91.56 160.09 91.9113 159.421C92.2626 158.741 92.75 158.208 93.3733 157.823C94.008 157.426 94.722 157.228 95.5153 157.228C96.1613 157.228 96.7223 157.353 97.1983 157.602C97.6856 157.84 98.071 158.18 98.3543 158.622V153.76H100.394V166H98.5583L98.3543 164.759C98.173 165.008 97.952 165.246 97.6913 165.473C97.4306 165.688 97.119 165.864 96.7563 166C96.3936 166.136 95.9686 166.204 95.4813 166.204ZM95.9063 164.436C96.3936 164.436 96.8243 164.323 97.1983 164.096C97.5723 163.858 97.8613 163.535 98.0653 163.127C98.2693 162.719 98.3713 162.249 98.3713 161.716C98.3713 161.183 98.2693 160.713 98.0653 160.305C97.8613 159.897 97.5723 159.58 97.1983 159.353C96.8243 159.126 96.3936 159.013 95.9063 159.013C95.4416 159.013 95.0223 159.126 94.6483 159.353C94.2743 159.58 93.9796 159.897 93.7643 160.305C93.5603 160.713 93.4583 161.183 93.4583 161.716C93.4583 162.249 93.5603 162.719 93.7643 163.127C93.9796 163.535 94.2743 163.858 94.6483 164.096C95.0223 164.323 95.4416 164.436 95.9063 164.436ZM106.506 166.204C105.656 166.204 104.908 166.023 104.262 165.66C103.616 165.286 103.111 164.765 102.749 164.096C102.386 163.427 102.205 162.657 102.205 161.784C102.205 160.877 102.38 160.084 102.732 159.404C103.094 158.724 103.599 158.191 104.245 157.806C104.902 157.421 105.661 157.228 106.523 157.228C107.361 157.228 108.092 157.415 108.716 157.789C109.339 158.163 109.821 158.667 110.161 159.302C110.501 159.925 110.671 160.628 110.671 161.41C110.671 161.523 110.671 161.648 110.671 161.784C110.671 161.92 110.659 162.062 110.637 162.209H103.667V160.9H108.614C108.591 160.277 108.381 159.789 107.985 159.438C107.588 159.075 107.095 158.894 106.506 158.894C106.086 158.894 105.701 158.99 105.35 159.183C104.998 159.376 104.721 159.665 104.517 160.05C104.313 160.424 104.211 160.9 104.211 161.478V161.971C104.211 162.504 104.307 162.963 104.5 163.348C104.704 163.733 104.976 164.028 105.316 164.232C105.667 164.425 106.058 164.521 106.489 164.521C106.965 164.521 107.356 164.419 107.662 164.215C107.979 164.011 108.211 163.739 108.359 163.399H110.433C110.274 163.932 110.013 164.413 109.651 164.844C109.288 165.263 108.84 165.598 108.308 165.847C107.775 166.085 107.174 166.204 106.506 166.204ZM112.384 166V157.432H114.186L114.356 158.605C114.628 158.174 114.985 157.84 115.427 157.602C115.88 157.353 116.396 157.228 116.974 157.228C117.405 157.228 117.79 157.285 118.13 157.398C118.481 157.511 118.787 157.681 119.048 157.908C119.32 158.135 119.541 158.418 119.711 158.758C120.028 158.282 120.442 157.908 120.952 157.636C121.462 157.364 122.017 157.228 122.618 157.228C123.332 157.228 123.938 157.375 124.437 157.67C124.936 157.953 125.315 158.378 125.576 158.945C125.837 159.5 125.967 160.186 125.967 161.002V166H123.944V161.206C123.944 160.481 123.797 159.925 123.502 159.54C123.207 159.155 122.771 158.962 122.193 158.962C121.796 158.962 121.445 159.058 121.139 159.251C120.844 159.444 120.612 159.727 120.442 160.101C120.272 160.464 120.187 160.911 120.187 161.444V166H118.164V161.206C118.164 160.481 118.017 159.925 117.722 159.54C117.427 159.155 116.985 158.962 116.396 158.962C116.022 158.962 115.682 159.058 115.376 159.251C115.081 159.444 114.849 159.727 114.679 160.101C114.509 160.464 114.424 160.911 114.424 161.444V166H112.384ZM131.947 166.204C131.131 166.204 130.395 166.017 129.737 165.643C129.091 165.258 128.581 164.731 128.207 164.062C127.845 163.382 127.663 162.606 127.663 161.733C127.663 160.838 127.85 160.056 128.224 159.387C128.598 158.707 129.108 158.18 129.754 157.806C130.412 157.421 131.148 157.228 131.964 157.228C132.78 157.228 133.511 157.421 134.157 157.806C134.815 158.18 135.325 158.701 135.687 159.37C136.061 160.039 136.248 160.821 136.248 161.716C136.248 162.611 136.061 163.393 135.687 164.062C135.313 164.731 134.798 165.258 134.14 165.643C133.494 166.017 132.763 166.204 131.947 166.204ZM131.947 164.453C132.355 164.453 132.724 164.351 133.052 164.147C133.392 163.943 133.664 163.637 133.868 163.229C134.072 162.821 134.174 162.317 134.174 161.716C134.174 161.115 134.072 160.617 133.868 160.22C133.676 159.812 133.409 159.506 133.069 159.302C132.741 159.098 132.372 158.996 131.964 158.996C131.568 158.996 131.199 159.098 130.859 159.302C130.519 159.506 130.247 159.812 130.043 160.22C129.839 160.617 129.737 161.115 129.737 161.716C129.737 162.317 129.839 162.821 130.043 163.229C130.247 163.637 130.514 163.943 130.842 164.147C131.182 164.351 131.551 164.453 131.947 164.453ZM141.492 166.204C140.733 166.204 140.07 166.085 139.503 165.847C138.948 165.598 138.506 165.258 138.177 164.827C137.86 164.385 137.673 163.881 137.616 163.314H139.656C139.713 163.552 139.815 163.773 139.962 163.977C140.11 164.17 140.308 164.323 140.557 164.436C140.818 164.549 141.124 164.606 141.475 164.606C141.815 164.606 142.093 164.561 142.308 164.47C142.524 164.368 142.682 164.238 142.784 164.079C142.886 163.92 142.937 163.75 142.937 163.569C142.937 163.297 142.864 163.087 142.716 162.94C142.569 162.793 142.354 162.679 142.07 162.6C141.798 162.509 141.47 162.424 141.084 162.345C140.676 162.266 140.28 162.169 139.894 162.056C139.52 161.931 139.18 161.778 138.874 161.597C138.58 161.416 138.342 161.183 138.16 160.9C137.99 160.617 137.905 160.271 137.905 159.863C137.905 159.364 138.036 158.917 138.296 158.52C138.568 158.123 138.954 157.812 139.452 157.585C139.962 157.347 140.569 157.228 141.271 157.228C142.269 157.228 143.062 157.46 143.651 157.925C144.252 158.378 144.603 159.019 144.705 159.846H142.767C142.711 159.529 142.552 159.285 142.291 159.115C142.031 158.934 141.685 158.843 141.254 158.843C140.812 158.843 140.472 158.928 140.234 159.098C140.008 159.257 139.894 159.472 139.894 159.744C139.894 159.914 139.962 160.073 140.098 160.22C140.246 160.356 140.455 160.475 140.727 160.577C140.999 160.668 141.334 160.758 141.73 160.849C142.365 160.974 142.926 161.121 143.413 161.291C143.901 161.461 144.286 161.71 144.569 162.039C144.853 162.368 144.994 162.832 144.994 163.433C145.006 163.977 144.864 164.459 144.569 164.878C144.286 165.297 143.884 165.626 143.362 165.864C142.841 166.091 142.218 166.204 141.492 166.204ZM150.784 166V153.76H152.824V166H150.784ZM158.926 166.204C158.11 166.204 157.373 166.017 156.716 165.643C156.07 165.258 155.56 164.731 155.186 164.062C154.823 163.382 154.642 162.606 154.642 161.733C154.642 160.838 154.829 160.056 155.203 159.387C155.577 158.707 156.087 158.18 156.733 157.806C157.39 157.421 158.127 157.228 158.943 157.228C159.759 157.228 160.49 157.421 161.136 157.806C161.793 158.18 162.303 158.701 162.666 159.37C163.04 160.039 163.227 160.821 163.227 161.716C163.227 162.611 163.04 163.393 162.666 164.062C162.292 164.731 161.776 165.258 161.119 165.643C160.473 166.017 159.742 166.204 158.926 166.204ZM158.926 164.453C159.334 164.453 159.702 164.351 160.031 164.147C160.371 163.943 160.643 163.637 160.847 163.229C161.051 162.821 161.153 162.317 161.153 161.716C161.153 161.115 161.051 160.617 160.847 160.22C160.654 159.812 160.388 159.506 160.048 159.302C159.719 159.098 159.351 158.996 158.943 158.996C158.546 158.996 158.178 159.098 157.838 159.302C157.498 159.506 157.226 159.812 157.022 160.22C156.818 160.617 156.716 161.115 156.716 161.716C156.716 162.317 156.818 162.821 157.022 163.229C157.226 163.637 157.492 163.943 157.821 164.147C158.161 164.351 158.529 164.453 158.926 164.453ZM171.89 166.204C171.187 166.204 170.604 166.085 170.139 165.847C169.674 165.609 169.329 165.292 169.102 164.895C168.875 164.498 168.762 164.068 168.762 163.603C168.762 163.059 168.898 162.589 169.17 162.192C169.453 161.795 169.867 161.489 170.411 161.274C170.955 161.047 171.624 160.934 172.417 160.934H174.576C174.576 160.481 174.514 160.107 174.389 159.812C174.264 159.506 174.072 159.279 173.811 159.132C173.55 158.985 173.216 158.911 172.808 158.911C172.343 158.911 171.947 159.019 171.618 159.234C171.289 159.438 171.085 159.755 171.006 160.186H169C169.068 159.574 169.272 159.053 169.612 158.622C169.952 158.18 170.4 157.84 170.955 157.602C171.522 157.353 172.139 157.228 172.808 157.228C173.613 157.228 174.298 157.37 174.865 157.653C175.432 157.925 175.862 158.322 176.157 158.843C176.463 159.353 176.616 159.971 176.616 160.696V166H174.882L174.678 164.623C174.565 164.85 174.417 165.059 174.236 165.252C174.066 165.445 173.868 165.615 173.641 165.762C173.414 165.898 173.154 166.006 172.859 166.085C172.576 166.164 172.253 166.204 171.89 166.204ZM172.349 164.589C172.678 164.589 172.967 164.532 173.216 164.419C173.477 164.294 173.698 164.124 173.879 163.909C174.072 163.682 174.219 163.433 174.321 163.161C174.423 162.889 174.491 162.6 174.525 162.294V162.26H172.638C172.241 162.26 171.913 162.311 171.652 162.413C171.391 162.504 171.204 162.64 171.091 162.821C170.978 163.002 170.921 163.212 170.921 163.45C170.921 163.688 170.978 163.892 171.091 164.062C171.204 164.232 171.369 164.362 171.584 164.453C171.799 164.544 172.054 164.589 172.349 164.589ZM178.626 166V157.432H180.428L180.581 158.86C180.841 158.361 181.215 157.965 181.703 157.67C182.19 157.375 182.768 157.228 183.437 157.228C184.128 157.228 184.717 157.375 185.205 157.67C185.692 157.953 186.066 158.373 186.327 158.928C186.599 159.483 186.735 160.175 186.735 161.002V166H184.695V161.189C184.695 160.475 184.536 159.925 184.219 159.54C183.901 159.155 183.431 158.962 182.808 158.962C182.4 158.962 182.031 159.058 181.703 159.251C181.385 159.444 181.13 159.727 180.938 160.101C180.756 160.464 180.666 160.906 180.666 161.427V166H178.626ZM192.438 166C191.86 166 191.356 165.909 190.925 165.728C190.506 165.547 190.177 165.246 189.939 164.827C189.701 164.408 189.582 163.841 189.582 163.127V159.149H188.12V157.432H189.582L189.82 155.171H191.622V157.432H193.951V159.149H191.622V163.127C191.622 163.558 191.713 163.858 191.894 164.028C192.087 164.187 192.404 164.266 192.846 164.266H193.9V166H192.438ZM199.497 166.204C198.647 166.204 197.899 166.023 197.253 165.66C196.607 165.286 196.103 164.765 195.74 164.096C195.377 163.427 195.196 162.657 195.196 161.784C195.196 160.877 195.372 160.084 195.723 159.404C196.086 158.724 196.59 158.191 197.236 157.806C197.893 157.421 198.653 157.228 199.514 157.228C200.353 157.228 201.084 157.415 201.707 157.789C202.33 158.163 202.812 158.667 203.152 159.302C203.492 159.925 203.662 160.628 203.662 161.41C203.662 161.523 203.662 161.648 203.662 161.784C203.662 161.92 203.651 162.062 203.628 162.209H196.658V160.9H201.605C201.582 160.277 201.373 159.789 200.976 159.438C200.579 159.075 200.086 158.894 199.497 158.894C199.078 158.894 198.692 158.99 198.341 159.183C197.99 159.376 197.712 159.665 197.508 160.05C197.304 160.424 197.202 160.9 197.202 161.478V161.971C197.202 162.504 197.298 162.963 197.491 163.348C197.695 163.733 197.967 164.028 198.307 164.232C198.658 164.425 199.049 164.521 199.48 164.521C199.956 164.521 200.347 164.419 200.653 164.215C200.97 164.011 201.203 163.739 201.35 163.399H203.424C203.265 163.932 203.005 164.413 202.642 164.844C202.279 165.263 201.832 165.598 201.299 165.847C200.766 166.085 200.166 166.204 199.497 166.204ZM208.792 166.204C208.033 166.204 207.37 166.085 206.803 165.847C206.248 165.598 205.806 165.258 205.477 164.827C205.16 164.385 204.973 163.881 204.916 163.314H206.956C207.013 163.552 207.115 163.773 207.262 163.977C207.41 164.17 207.608 164.323 207.857 164.436C208.118 164.549 208.424 164.606 208.775 164.606C209.115 164.606 209.393 164.561 209.608 164.47C209.824 164.368 209.982 164.238 210.084 164.079C210.186 163.92 210.237 163.75 210.237 163.569C210.237 163.297 210.164 163.087 210.016 162.94C209.869 162.793 209.654 162.679 209.37 162.6C209.098 162.509 208.77 162.424 208.384 162.345C207.976 162.266 207.58 162.169 207.194 162.056C206.82 161.931 206.48 161.778 206.174 161.597C205.88 161.416 205.642 161.183 205.46 160.9C205.29 160.617 205.205 160.271 205.205 159.863C205.205 159.364 205.336 158.917 205.596 158.52C205.868 158.123 206.254 157.812 206.752 157.585C207.262 157.347 207.869 157.228 208.571 157.228C209.569 157.228 210.362 157.46 210.951 157.925C211.552 158.378 211.903 159.019 212.005 159.846H210.067C210.011 159.529 209.852 159.285 209.591 159.115C209.331 158.934 208.985 158.843 208.554 158.843C208.112 158.843 207.772 158.928 207.534 159.098C207.308 159.257 207.194 159.472 207.194 159.744C207.194 159.914 207.262 160.073 207.398 160.22C207.546 160.356 207.755 160.475 208.027 160.577C208.299 160.668 208.634 160.758 209.03 160.849C209.665 160.974 210.226 161.121 210.713 161.291C211.201 161.461 211.586 161.71 211.869 162.039C212.153 162.368 212.294 162.832 212.294 163.433C212.306 163.977 212.164 164.459 211.869 164.878C211.586 165.297 211.184 165.626 210.662 165.864C210.141 166.091 209.518 166.204 208.792 166.204ZM218.084 169.74V157.432H219.903L220.124 158.673C220.306 158.424 220.521 158.191 220.77 157.976C221.031 157.749 221.343 157.568 221.705 157.432C222.079 157.296 222.504 157.228 222.98 157.228C223.785 157.228 224.493 157.426 225.105 157.823C225.729 158.22 226.216 158.758 226.567 159.438C226.919 160.107 227.094 160.872 227.094 161.733C227.094 162.594 226.913 163.365 226.55 164.045C226.199 164.714 225.712 165.241 225.088 165.626C224.476 166.011 223.774 166.204 222.98 166.204C222.334 166.204 221.768 166.085 221.28 165.847C220.804 165.598 220.419 165.246 220.124 164.793V169.74H218.084ZM222.555 164.436C223.031 164.436 223.456 164.323 223.83 164.096C224.204 163.869 224.493 163.552 224.697 163.144C224.913 162.736 225.02 162.266 225.02 161.733C225.02 161.189 224.913 160.713 224.697 160.305C224.493 159.897 224.204 159.58 223.83 159.353C223.456 159.126 223.031 159.013 222.555 159.013C222.068 159.013 221.637 159.126 221.263 159.353C220.901 159.58 220.612 159.897 220.396 160.305C220.192 160.713 220.09 161.183 220.09 161.716C220.09 162.26 220.192 162.736 220.396 163.144C220.612 163.541 220.901 163.858 221.263 164.096C221.637 164.323 222.068 164.436 222.555 164.436ZM232.899 166.204C232.083 166.204 231.347 166.017 230.689 165.643C230.043 165.258 229.533 164.731 229.159 164.062C228.797 163.382 228.615 162.606 228.615 161.733C228.615 160.838 228.802 160.056 229.176 159.387C229.55 158.707 230.06 158.18 230.706 157.806C231.364 157.421 232.1 157.228 232.916 157.228C233.732 157.228 234.463 157.421 235.109 157.806C235.767 158.18 236.277 158.701 236.639 159.37C237.013 160.039 237.2 160.821 237.2 161.716C237.2 162.611 237.013 163.393 236.639 164.062C236.265 164.731 235.75 165.258 235.092 165.643C234.446 166.017 233.715 166.204 232.899 166.204ZM232.899 164.453C233.307 164.453 233.676 164.351 234.004 164.147C234.344 163.943 234.616 163.637 234.82 163.229C235.024 162.821 235.126 162.317 235.126 161.716C235.126 161.115 235.024 160.617 234.82 160.22C234.628 159.812 234.361 159.506 234.021 159.302C233.693 159.098 233.324 158.996 232.916 158.996C232.52 158.996 232.151 159.098 231.811 159.302C231.471 159.506 231.199 159.812 230.995 160.22C230.791 160.617 230.689 161.115 230.689 161.716C230.689 162.317 230.791 162.821 230.995 163.229C231.199 163.637 231.466 163.943 231.794 164.147C232.134 164.351 232.503 164.453 232.899 164.453ZM242.444 166.204C241.685 166.204 241.022 166.085 240.455 165.847C239.9 165.598 239.458 165.258 239.129 164.827C238.812 164.385 238.625 163.881 238.568 163.314H240.608C240.665 163.552 240.767 163.773 240.914 163.977C241.062 164.17 241.26 164.323 241.509 164.436C241.77 164.549 242.076 164.606 242.427 164.606C242.767 164.606 243.045 164.561 243.26 164.47C243.476 164.368 243.634 164.238 243.736 164.079C243.838 163.92 243.889 163.75 243.889 163.569C243.889 163.297 243.816 163.087 243.668 162.94C243.521 162.793 243.306 162.679 243.022 162.6C242.75 162.509 242.422 162.424 242.036 162.345C241.628 162.266 241.232 162.169 240.846 162.056C240.472 161.931 240.132 161.778 239.826 161.597C239.532 161.416 239.294 161.183 239.112 160.9C238.942 160.617 238.857 160.271 238.857 159.863C238.857 159.364 238.988 158.917 239.248 158.52C239.52 158.123 239.906 157.812 240.404 157.585C240.914 157.347 241.521 157.228 242.223 157.228C243.221 157.228 244.014 157.46 244.603 157.925C245.204 158.378 245.555 159.019 245.657 159.846H243.719C243.663 159.529 243.504 159.285 243.243 159.115C242.983 158.934 242.637 158.843 242.206 158.843C241.764 158.843 241.424 158.928 241.186 159.098C240.96 159.257 240.846 159.472 240.846 159.744C240.846 159.914 240.914 160.073 241.05 160.22C241.198 160.356 241.407 160.475 241.679 160.577C241.951 160.668 242.286 160.758 242.682 160.849C243.317 160.974 243.878 161.121 244.365 161.291C244.853 161.461 245.238 161.71 245.521 162.039C245.805 162.368 245.946 162.832 245.946 163.433C245.958 163.977 245.816 164.459 245.521 164.878C245.238 165.297 244.836 165.626 244.314 165.864C243.793 166.091 243.17 166.204 242.444 166.204ZM247.841 166V157.432H249.881V166H247.841ZM248.861 156.072C248.487 156.072 248.175 155.959 247.926 155.732C247.688 155.494 247.569 155.205 247.569 154.865C247.569 154.514 247.688 154.23 247.926 154.015C248.175 153.788 248.487 153.675 248.861 153.675C249.235 153.675 249.541 153.788 249.779 154.015C250.028 154.23 250.153 154.514 250.153 154.865C250.153 155.205 250.028 155.494 249.779 155.732C249.541 155.959 249.235 156.072 248.861 156.072ZM256.964 166.204C256.511 166.204 256.103 166.142 255.74 166.017C255.378 165.904 255.06 165.745 254.788 165.541C254.516 165.326 254.29 165.082 254.108 164.81L253.887 166H252.068V153.76H254.108V158.69C254.38 158.271 254.749 157.925 255.213 157.653C255.678 157.37 256.256 157.228 256.947 157.228C257.752 157.228 258.46 157.426 259.072 157.823C259.696 158.208 260.183 158.741 260.534 159.421C260.897 160.09 261.078 160.86 261.078 161.733C261.078 162.583 260.903 163.348 260.551 164.028C260.2 164.708 259.713 165.241 259.089 165.626C258.477 166.011 257.769 166.204 256.964 166.204ZM256.539 164.436C257.015 164.436 257.44 164.323 257.814 164.096C258.188 163.858 258.477 163.541 258.681 163.144C258.897 162.736 259.004 162.26 259.004 161.716C259.004 161.183 258.897 160.713 258.681 160.305C258.477 159.897 258.188 159.58 257.814 159.353C257.44 159.126 257.015 159.013 256.539 159.013C256.052 159.013 255.621 159.126 255.247 159.353C254.885 159.58 254.596 159.897 254.38 160.305C254.176 160.713 254.074 161.183 254.074 161.716C254.074 162.26 254.176 162.736 254.38 163.144C254.596 163.541 254.885 163.858 255.247 164.096C255.621 164.323 256.052 164.436 256.539 164.436ZM262.889 166V153.76H264.929V166H262.889ZM271.047 166.204C270.197 166.204 269.449 166.023 268.803 165.66C268.157 165.286 267.653 164.765 267.29 164.096C266.927 163.427 266.746 162.657 266.746 161.784C266.746 160.877 266.922 160.084 267.273 159.404C267.636 158.724 268.14 158.191 268.786 157.806C269.443 157.421 270.203 157.228 271.064 157.228C271.903 157.228 272.634 157.415 273.257 157.789C273.88 158.163 274.362 158.667 274.702 159.302C275.042 159.925 275.212 160.628 275.212 161.41C275.212 161.523 275.212 161.648 275.212 161.784C275.212 161.92 275.201 162.062 275.178 162.209H268.208V160.9H273.155C273.132 160.277 272.923 159.789 272.526 159.438C272.129 159.075 271.636 158.894 271.047 158.894C270.628 158.894 270.242 158.99 269.891 159.183C269.54 159.376 269.262 159.665 269.058 160.05C268.854 160.424 268.752 160.9 268.752 161.478V161.971C268.752 162.504 268.848 162.963 269.041 163.348C269.245 163.733 269.517 164.028 269.857 164.232C270.208 164.425 270.599 164.521 271.03 164.521C271.506 164.521 271.897 164.419 272.203 164.215C272.52 164.011 272.753 163.739 272.9 163.399H274.974C274.815 163.932 274.555 164.413 274.192 164.844C273.829 165.263 273.382 165.598 272.849 165.847C272.316 166.085 271.716 166.204 271.047 166.204ZM277.809 166.085C277.424 166.085 277.112 165.966 276.874 165.728C276.636 165.49 276.517 165.207 276.517 164.878C276.517 164.527 276.636 164.232 276.874 163.994C277.112 163.756 277.424 163.637 277.809 163.637C278.183 163.637 278.489 163.756 278.727 163.994C278.965 164.232 279.084 164.527 279.084 164.878C279.084 165.207 278.965 165.49 278.727 165.728C278.489 165.966 278.183 166.085 277.809 166.085Z" fill="#767788"/>
<path d="M35.5 105C36.3284 105 37 105.672 37 106.5C37 107.328 36.3284 108 35.5 108H1.5C0.671573 108 0 107.328 0 106.5C0 105.672 0.671573 105 1.5 105H35.5Z" fill="#00AAA4"/>
<defs>
<clipPath id="clip0_2029_6004">
<rect width="22" height="16" fill="white" transform="translate(0 3)"/>
</clipPath>
</defs>
</svg>
