<svg width="247" height="113" viewBox="0 0 247 113" fill="none" xmlns="http://www.w3.org/2000/svg">
<path d="M61.173 32V20.1H63.468L68.942 28.311V20.1H71.237V32H68.942L63.468 23.806V32H61.173ZM77.3828 32.204C76.5668 32.204 75.8301 32.017 75.1728 31.643C74.5268 31.2577 74.0111 30.7307 73.6258 30.062C73.2518 29.382 73.0648 28.6057 73.0648 27.733C73.0648 26.8377 73.2518 26.0557 73.6258 25.387C74.0111 24.707 74.5324 24.18 75.1898 23.806C75.8471 23.4207 76.5838 23.228 77.3998 23.228C78.2271 23.228 78.9638 23.4207 79.6098 23.806C80.2671 24.18 80.7828 24.707 81.1568 25.387C81.5421 26.0557 81.7348 26.832 81.7348 27.716C81.7348 28.6 81.5421 29.382 81.1568 30.062C80.7828 30.7307 80.2671 31.2577 79.6098 31.643C78.9524 32.017 78.2101 32.204 77.3828 32.204ZM77.3828 30.215C77.7681 30.215 78.1081 30.1243 78.4028 29.943C78.7088 29.7617 78.9468 29.484 79.1168 29.11C79.2981 28.736 79.3888 28.2713 79.3888 27.716C79.3888 27.1607 79.2981 26.7017 79.1168 26.339C78.9468 25.965 78.7088 25.6873 78.4028 25.506C78.1081 25.3133 77.7738 25.217 77.3998 25.217C77.0371 25.217 76.7028 25.3133 76.3968 25.506C76.0908 25.6873 75.8471 25.965 75.6658 26.339C75.4958 26.7017 75.4108 27.1607 75.4108 27.716C75.4108 28.2713 75.4958 28.736 75.6658 29.11C75.8471 29.484 76.0851 29.7617 76.3798 29.943C76.6858 30.1243 77.0201 30.215 77.3828 30.215ZM83.5427 32V23.432H85.5657L85.7527 24.571C86.0247 24.163 86.3817 23.84 86.8237 23.602C87.2771 23.3527 87.7927 23.228 88.3707 23.228C88.8014 23.228 89.1867 23.2847 89.5267 23.398C89.8667 23.5113 90.1671 23.6757 90.4277 23.891C90.6997 24.1063 90.9207 24.3783 91.0907 24.707C91.4081 24.2423 91.8217 23.8797 92.3317 23.619C92.8417 23.3583 93.3971 23.228 93.9977 23.228C94.7457 23.228 95.3691 23.381 95.8677 23.687C96.3664 23.9817 96.7404 24.4123 96.9897 24.979C97.2504 25.5457 97.3807 26.2427 97.3807 27.07V32H95.1027V27.274C95.1027 26.594 94.9667 26.0727 94.6947 25.71C94.4341 25.3473 94.0261 25.166 93.4707 25.166C93.1081 25.166 92.7851 25.2567 92.5017 25.438C92.2184 25.6193 91.9974 25.88 91.8387 26.22C91.6914 26.56 91.6177 26.968 91.6177 27.444V32H89.3227V27.274C89.3227 26.594 89.1867 26.0727 88.9147 25.71C88.6427 25.3473 88.2234 25.166 87.6567 25.166C87.3054 25.166 86.9881 25.2567 86.7047 25.438C86.4327 25.6193 86.2174 25.88 86.0587 26.22C85.9114 26.56 85.8377 26.968 85.8377 27.444V32H83.5427ZM104.443 32.204C104.001 32.204 103.604 32.1473 103.253 32.034C102.913 31.9207 102.607 31.7677 102.335 31.575C102.074 31.371 101.853 31.1443 101.672 30.895L101.417 32H99.3767V19.76H101.672V24.622C101.944 24.2253 102.301 23.8967 102.743 23.636C103.196 23.364 103.757 23.228 104.426 23.228C105.219 23.228 105.922 23.4263 106.534 23.823C107.157 24.2083 107.644 24.741 107.996 25.421C108.358 26.0897 108.54 26.8603 108.54 27.733C108.54 28.583 108.358 29.348 107.996 30.028C107.644 30.708 107.163 31.2407 106.551 31.626C105.939 32.0113 105.236 32.204 104.443 32.204ZM103.899 30.198C104.352 30.198 104.749 30.096 105.089 29.892C105.44 29.6767 105.712 29.3877 105.905 29.025C106.097 28.651 106.194 28.2203 106.194 27.733C106.194 27.2457 106.097 26.815 105.905 26.441C105.712 26.0557 105.44 25.761 105.089 25.557C104.749 25.3417 104.352 25.234 103.899 25.234C103.457 25.234 103.06 25.3417 102.709 25.557C102.369 25.761 102.097 26.05 101.893 26.424C101.7 26.798 101.604 27.2287 101.604 27.716C101.604 28.2033 101.7 28.6397 101.893 29.025C102.097 29.399 102.369 29.688 102.709 29.892C103.06 30.096 103.457 30.198 103.899 30.198ZM110.346 32V23.432H112.386L112.607 25.013C112.811 24.639 113.066 24.3217 113.372 24.061C113.69 23.8003 114.047 23.5963 114.443 23.449C114.851 23.3017 115.299 23.228 115.786 23.228V25.659H115.004C114.664 25.659 114.347 25.6987 114.052 25.778C113.769 25.8573 113.52 25.9877 113.304 26.169C113.089 26.339 112.925 26.577 112.811 26.883C112.698 27.189 112.641 27.5743 112.641 28.039V32H110.346ZM121.114 32.204C120.252 32.204 119.487 32.0227 118.819 31.66C118.161 31.286 117.646 30.7703 117.272 30.113C116.909 29.4443 116.728 28.6737 116.728 27.801C116.728 26.9057 116.909 26.118 117.272 25.438C117.646 24.7467 118.161 24.2083 118.819 23.823C119.476 23.4263 120.241 23.228 121.114 23.228C121.964 23.228 122.706 23.415 123.341 23.789C123.975 24.163 124.468 24.6673 124.82 25.302C125.171 25.9367 125.347 26.6563 125.347 27.461C125.347 27.5743 125.347 27.7047 125.347 27.852C125.347 27.988 125.335 28.1297 125.313 28.277H118.36V26.883H123.035C123.001 26.3277 122.802 25.8913 122.44 25.574C122.088 25.2567 121.646 25.098 121.114 25.098C120.728 25.098 120.371 25.1887 120.043 25.37C119.714 25.54 119.453 25.8063 119.261 26.169C119.079 26.5317 118.989 26.9907 118.989 27.546V28.039C118.989 28.5037 119.074 28.9117 119.244 29.263C119.425 29.603 119.674 29.8693 119.992 30.062C120.309 30.2433 120.677 30.334 121.097 30.334C121.516 30.334 121.862 30.2433 122.134 30.062C122.417 29.8807 122.627 29.6483 122.763 29.365H125.109C124.95 29.8977 124.684 30.3793 124.31 30.81C123.936 31.2407 123.477 31.5807 122.933 31.83C122.389 32.0793 121.782 32.204 121.114 32.204Z" fill="black"/>
<g filter="url(#filter0_f_2029_6379)">
<ellipse cx="26" cy="25.5" rx="22" ry="21.5" fill="#7FDED9" fill-opacity="0.2"/>
</g>
<circle cx="25.5" cy="25.5" r="18.25" fill="#BBEEEC" stroke="#7FDED9" stroke-width="0.5"/>
<g clip-path="url(#clip0_2029_6379)">
<path d="M29.9858 24.6865C30.9834 24.7377 31.8457 25.2169 32.3833 26.0331C32.7413 26.5771 32.992 27.1541 33.1538 27.7939C33.4165 28.8332 33.5651 30.1365 33.4712 31.1494C33.3963 31.951 32.9913 32.6296 32.3306 33.0478L32.3208 33.0536C31.9495 33.3002 31.5293 33.406 31.0112 33.4999H20.981C20.4584 33.4003 20.0439 33.3001 19.6802 33.0546L19.6743 33.0497L19.6685 33.0458L19.5444 32.9619C18.9403 32.5275 18.5837 31.8605 18.521 31.0849C18.4395 30.0805 18.5969 28.7326 18.8677 27.7177L18.8667 27.7167C19.012 27.173 19.217 26.6802 19.5005 26.2148L19.6274 26.0165C20.1704 25.2043 21.038 24.7298 22.0376 24.6865C22.2464 24.6774 22.3456 24.6989 22.4155 24.7431L23.3755 25.3495C23.6045 25.494 23.8311 25.6052 24.0591 25.7031L24.2876 25.7978C25.3288 26.2138 26.4471 26.2425 27.4995 25.8759L27.7085 25.7968C27.9694 25.6923 28.2642 25.5759 28.5532 25.3925L29.5571 24.7578H29.5581C29.6519 24.6982 29.7638 24.6752 29.9858 24.6865ZM22.147 24.8007C21.442 24.8086 20.6968 25.0352 20.1489 25.5878C19.5309 26.2112 19.1668 27.043 18.9507 27.8779C18.7336 28.7164 18.656 29.5967 18.6372 30.3574C18.6294 30.6737 18.6189 31.0268 18.6919 31.4042C18.9498 32.7373 20.1132 33.3875 21.3433 33.3876H30.6899C31.8188 33.387 32.908 32.8055 33.2515 31.6386L33.3101 31.3974C33.3479 31.2014 33.3631 31.0157 33.3677 30.8408L33.3628 30.3486C33.3442 29.5829 33.2626 28.6803 33.0356 27.8251C32.81 26.9753 32.4287 26.126 31.7778 25.5185C31.2335 25.0107 30.5191 24.8076 29.8491 24.8017L29.7017 24.7997L29.5776 24.8788L28.6226 25.4853H28.6216C27.091 26.457 24.9836 26.4928 23.4888 25.5517L22.4185 24.8779L22.2944 24.7988L22.147 24.8007Z" fill="#00BABB" stroke="#00BABB"/>
<path d="M25.8804 15.5C28.1606 15.5002 30.0005 17.3307 30.0005 19.5791C30.0005 21.8274 28.1601 23.658 25.8804 23.6582C23.6005 23.6582 21.7593 21.8275 21.7593 19.5791C21.7593 17.3306 23.6 15.5 25.8804 15.5ZM25.8804 15.6143C23.6773 15.6143 21.8833 17.386 21.8833 19.5801C21.8835 21.7739 23.6774 23.5449 25.8804 23.5449C28.0831 23.5447 29.8772 21.7738 29.8774 19.5801C29.8774 17.3855 28.0832 15.6144 25.8804 15.6143Z" fill="#00BABB" stroke="#00BABB"/>
</g>
<path d="M242 111.5V113H9V111.5H242ZM245.5 108V65C245.5 63.067 243.933 61.5 242 61.5H9C7.067 61.5 5.5 63.067 5.5 65V108C5.5 109.933 7.067 111.5 9 111.5V113L8.74316 112.993C6.18618 112.864 4.13622 110.814 4.00684 108.257L4 108V65C4 62.2386 6.23858 60 9 60H242C244.761 60 247 62.2386 247 65V108C247 110.675 244.899 112.859 242.257 112.993L242 113V111.5C243.933 111.5 245.5 109.933 245.5 108Z" fill="#C7C7CE"/>
<defs>
<filter id="filter0_f_2029_6379" x="0" y="0" width="52" height="51" filterUnits="userSpaceOnUse" color-interpolation-filters="sRGB">
<feFlood flood-opacity="0" result="BackgroundImageFix"/>
<feBlend mode="normal" in="SourceGraphic" in2="BackgroundImageFix" result="shape"/>
<feGaussianBlur stdDeviation="2" result="effect1_foregroundBlur_2029_6379"/>
</filter>
<clipPath id="clip0_2029_6379">
<rect width="16" height="19" fill="white" transform="translate(18 15)"/>
</clipPath>
</defs>
</svg>
