<svg width="243" height="113" viewBox="0 0 243 113" fill="none" xmlns="http://www.w3.org/2000/svg">
<path d="M66.944 32V21.953H63.459V20.1H72.69V21.953H69.222V32H66.944ZM76.6822 32.204C75.8209 32.204 75.0559 32.0227 74.3872 31.66C73.7299 31.286 73.2142 30.7703 72.8402 30.113C72.4775 29.4443 72.2962 28.6737 72.2962 27.801C72.2962 26.9057 72.4775 26.118 72.8402 25.438C73.2142 24.7467 73.7299 24.2083 74.3872 23.823C75.0445 23.4263 75.8095 23.228 76.6822 23.228C77.5322 23.228 78.2745 23.415 78.9092 23.789C79.5439 24.163 80.0369 24.6673 80.3882 25.302C80.7395 25.9367 80.9152 26.6563 80.9152 27.461C80.9152 27.5743 80.9152 27.7047 80.9152 27.852C80.9152 27.988 80.9039 28.1297 80.8812 28.277H73.9282V26.883H78.6032C78.5692 26.3277 78.3709 25.8913 78.0082 25.574C77.6569 25.2567 77.2149 25.098 76.6822 25.098C76.2969 25.098 75.9399 25.1887 75.6112 25.37C75.2825 25.54 75.0219 25.8063 74.8292 26.169C74.6479 26.5317 74.5572 26.9907 74.5572 27.546V28.039C74.5572 28.5037 74.6422 28.9117 74.8122 29.263C74.9935 29.603 75.2429 29.8693 75.5602 30.062C75.8775 30.2433 76.2459 30.334 76.6652 30.334C77.0845 30.334 77.4302 30.2433 77.7022 30.062C77.9855 29.8807 78.1952 29.6483 78.3312 29.365H80.6772C80.5185 29.8977 80.2522 30.3793 79.8782 30.81C79.5042 31.2407 79.0452 31.5807 78.5012 31.83C77.9572 32.0793 77.3509 32.204 76.6822 32.204ZM82.6248 32V19.76H84.9198V32H82.6248ZM91.101 32.204C90.2397 32.204 89.4747 32.0227 88.806 31.66C88.1487 31.286 87.633 30.7703 87.259 30.113C86.8963 29.4443 86.715 28.6737 86.715 27.801C86.715 26.9057 86.8963 26.118 87.259 25.438C87.633 24.7467 88.1487 24.2083 88.806 23.823C89.4633 23.4263 90.2283 23.228 91.101 23.228C91.951 23.228 92.6933 23.415 93.328 23.789C93.9627 24.163 94.4557 24.6673 94.807 25.302C95.1583 25.9367 95.334 26.6563 95.334 27.461C95.334 27.5743 95.334 27.7047 95.334 27.852C95.334 27.988 95.3227 28.1297 95.3 28.277H88.347V26.883H93.022C92.988 26.3277 92.7897 25.8913 92.427 25.574C92.0757 25.2567 91.6337 25.098 91.101 25.098C90.7157 25.098 90.3587 25.1887 90.03 25.37C89.7013 25.54 89.4407 25.8063 89.248 26.169C89.0667 26.5317 88.976 26.9907 88.976 27.546V28.039C88.976 28.5037 89.061 28.9117 89.231 29.263C89.4123 29.603 89.6617 29.8693 89.979 30.062C90.2963 30.2433 90.6647 30.334 91.084 30.334C91.5033 30.334 91.849 30.2433 92.121 30.062C92.4043 29.8807 92.614 29.6483 92.75 29.365H95.096C94.9373 29.8977 94.671 30.3793 94.297 30.81C93.923 31.2407 93.464 31.5807 92.92 31.83C92.376 32.0793 91.7697 32.204 91.101 32.204ZM89.265 22.701L89.061 21.188L92.784 19.063L93.056 20.814L89.265 22.701ZM97.4346 32V22.667C97.4346 21.953 97.5536 21.3863 97.7916 20.967C98.0296 20.5477 98.3696 20.2417 98.8116 20.049C99.2649 19.8563 99.7919 19.76 100.393 19.76H101.447V21.715H100.733C100.37 21.715 100.109 21.7887 99.9506 21.936C99.8032 22.072 99.7296 22.3157 99.7296 22.667V32H97.4346ZM96.2616 25.353V23.432H101.583V25.353H96.2616ZM106.896 32.204C106.08 32.204 105.343 32.017 104.686 31.643C104.04 31.2577 103.524 30.7307 103.139 30.062C102.765 29.382 102.578 28.6057 102.578 27.733C102.578 26.8377 102.765 26.0557 103.139 25.387C103.524 24.707 104.046 24.18 104.703 23.806C105.36 23.4207 106.097 23.228 106.913 23.228C107.74 23.228 108.477 23.4207 109.123 23.806C109.78 24.18 110.296 24.707 110.67 25.387C111.055 26.0557 111.248 26.832 111.248 27.716C111.248 28.6 111.055 29.382 110.67 30.062C110.296 30.7307 109.78 31.2577 109.123 31.643C108.466 32.017 107.723 32.204 106.896 32.204ZM106.896 30.215C107.281 30.215 107.621 30.1243 107.916 29.943C108.222 29.7617 108.46 29.484 108.63 29.11C108.811 28.736 108.902 28.2713 108.902 27.716C108.902 27.1607 108.811 26.7017 108.63 26.339C108.46 25.965 108.222 25.6873 107.916 25.506C107.621 25.3133 107.287 25.217 106.913 25.217C106.55 25.217 106.216 25.3133 105.91 25.506C105.604 25.6873 105.36 25.965 105.179 26.339C105.009 26.7017 104.924 27.1607 104.924 27.716C104.924 28.2713 105.009 28.736 105.179 29.11C105.36 29.484 105.598 29.7617 105.893 29.943C106.199 30.1243 106.533 30.215 106.896 30.215ZM113.056 32V23.432H115.079L115.249 24.826C115.51 24.35 115.878 23.9647 116.354 23.67C116.841 23.3753 117.419 23.228 118.088 23.228C118.802 23.228 119.403 23.3753 119.89 23.67C120.377 23.9647 120.746 24.3953 120.995 24.962C121.256 25.5287 121.386 26.2257 121.386 27.053V32H119.108V27.274C119.108 26.594 118.961 26.0727 118.666 25.71C118.383 25.3473 117.941 25.166 117.34 25.166C116.955 25.166 116.609 25.2567 116.303 25.438C116.008 25.6193 115.776 25.88 115.606 26.22C115.436 26.5487 115.351 26.951 115.351 27.427V32H113.056ZM127.424 32.204C126.608 32.204 125.872 32.017 125.214 31.643C124.568 31.2577 124.053 30.7307 123.667 30.062C123.293 29.382 123.106 28.6057 123.106 27.733C123.106 26.8377 123.293 26.0557 123.667 25.387C124.053 24.707 124.574 24.18 125.231 23.806C125.889 23.4207 126.625 23.228 127.441 23.228C128.269 23.228 129.005 23.4207 129.651 23.806C130.309 24.18 130.824 24.707 131.198 25.387C131.584 26.0557 131.776 26.832 131.776 27.716C131.776 28.6 131.584 29.382 131.198 30.062C130.824 30.7307 130.309 31.2577 129.651 31.643C128.994 32.017 128.252 32.204 127.424 32.204ZM127.424 30.215C127.81 30.215 128.15 30.1243 128.444 29.943C128.75 29.7617 128.988 29.484 129.158 29.11C129.34 28.736 129.43 28.2713 129.43 27.716C129.43 27.1607 129.34 26.7017 129.158 26.339C128.988 25.965 128.75 25.6873 128.444 25.506C128.15 25.3133 127.815 25.217 127.441 25.217C127.079 25.217 126.744 25.3133 126.438 25.506C126.132 25.6873 125.889 25.965 125.707 26.339C125.537 26.7017 125.452 27.1607 125.452 27.716C125.452 28.2713 125.537 28.736 125.707 29.11C125.889 29.484 126.127 29.7617 126.421 29.943C126.727 30.1243 127.062 30.215 127.424 30.215Z" fill="black"/>
<g filter="url(#filter0_f_2029_6381)">
<ellipse cx="29" cy="25.5" rx="22" ry="21.5" fill="#7FDED9" fill-opacity="0.2"/>
</g>
<circle cx="28.5" cy="25.5" r="18.25" fill="#BBEEEC" stroke="#7FDED9" stroke-width="0.5"/>
<g clip-path="url(#clip0_2029_6381)">
<path d="M36.4663 30.3297L33.5521 27.6865C33.1271 27.2966 32.5307 27.1644 31.9563 27.3319L30.4624 27.7686C28.9301 26.246 27.7303 24.4822 26.8938 22.5228L27.9092 21.2477C28.2479 20.8223 28.3289 20.2479 28.1267 19.7107L26.7246 16.0015C26.445 15.2625 25.611 14.8456 24.8258 15.0529C23.6423 15.3652 22.5518 15.9319 21.5843 16.738C21.2263 17.0384 21.0244 17.4564 21.001 17.9465V17.9568L21.0013 17.9671C21.3051 21.4944 22.5139 24.9115 24.4978 27.8489C26.4803 30.7848 29.2045 33.1941 32.3761 34.8169C32.614 34.9388 32.8691 34.9995 33.1245 34.9995C33.3799 34.9995 33.6476 34.9358 33.8912 34.8084C34.9969 34.2296 35.9335 33.4445 36.6749 32.4746C37.1783 31.8162 37.0884 30.8942 36.4659 30.3297H36.4663ZM26.8108 20.5016L25.5887 22.0316C25.453 22.2017 25.4255 22.4381 25.5155 22.6642C26.4651 25.0511 27.901 27.1677 29.7834 28.9551C29.9779 29.1395 30.2092 29.2113 30.4174 29.151L32.3746 28.5865C32.4527 28.564 32.5449 28.5611 32.6876 28.6903L35.5394 31.276C35.5755 31.3088 35.7495 31.4811 35.6234 31.6593C35.4044 31.9698 35.1405 32.2378 34.888 32.4816C34.3961 32.9562 33.8321 33.3554 33.2108 33.668C33.1643 33.6916 33.0687 33.6872 33.0141 33.6592C31.0617 32.662 29.3046 31.3655 27.792 29.8064C24.6841 26.6032 22.7477 22.4098 22.3395 17.9984C22.3328 17.9273 22.3484 17.8316 22.3982 17.7889C23.2065 17.0933 24.1714 16.5866 25.1886 16.323C25.2061 16.3185 25.224 16.3163 25.2418 16.3163C25.353 16.3163 25.459 16.4018 25.4939 16.4949L26.9034 20.2461C26.9347 20.3286 26.8584 20.442 26.8105 20.502L26.8108 20.5016Z" fill="#00BABB"/>
</g>
<path d="M238 111.5V113H5V111.5H238ZM241.5 108V65C241.5 63.067 239.933 61.5 238 61.5H5C3.067 61.5 1.5 63.067 1.5 65V108C1.5 109.933 3.067 111.5 5 111.5V113L4.74316 112.993C2.18618 112.864 0.136224 110.814 0.00683594 108.257L0 108V65C0 62.2386 2.23858 60 5 60H238C240.761 60 243 62.2386 243 65V108C243 110.675 240.899 112.859 238.257 112.993L238 113V111.5C239.933 111.5 241.5 109.933 241.5 108Z" fill="#C7C7CE"/>
<defs>
<filter id="filter0_f_2029_6381" x="3" y="0" width="52" height="51" filterUnits="userSpaceOnUse" color-interpolation-filters="sRGB">
<feFlood flood-opacity="0" result="BackgroundImageFix"/>
<feBlend mode="normal" in="SourceGraphic" in2="BackgroundImageFix" result="shape"/>
<feGaussianBlur stdDeviation="2" result="effect1_foregroundBlur_2029_6381"/>
</filter>
<clipPath id="clip0_2029_6381">
<rect width="16" height="20" fill="white" transform="translate(21 15)"/>
</clipPath>
</defs>
</svg>
