<svg width="487" height="466" viewBox="0 0 487 466" fill="none" xmlns="http://www.w3.org/2000/svg">
<g filter="url(#filter0_d_1992_6248)">
<rect x="126" y="22" width="291" height="414" rx="22" fill="url(#paint0_linear_1992_6248)"/>
</g>
<g filter="url(#filter1_if_1992_6248)">
<path d="M126.017 291.141C142.619 291.198 159.069 288.056 174.421 281.896C189.772 275.735 203.724 266.678 215.473 255.245C227.222 243.811 236.538 230.227 242.884 215.272C249.231 200.317 252.484 184.286 252.456 168.1C252.428 151.915 249.12 135.893 242.721 120.957C236.322 106.021 226.96 92.4637 215.171 81.065C203.382 69.6663 189.4 60.6505 174.027 54.5356C158.654 48.4208 142.193 45.3275 125.592 45.4334L126 104.738C134.588 104.683 143.102 106.284 151.054 109.447C159.006 112.61 166.239 117.273 172.337 123.169C178.435 129.066 183.278 136.078 186.588 143.804C189.897 151.53 191.609 159.818 191.623 168.19C191.638 176.562 189.955 184.855 186.672 192.59C183.389 200.326 178.57 207.353 172.493 213.267C166.415 219.182 159.199 223.866 151.258 227.053C143.317 230.239 134.808 231.865 126.22 231.835L126.017 291.141Z" fill="#4EA8AD" fill-opacity="0.15"/>
</g>
<g filter="url(#filter2_if_1992_6248)">
<path d="M416.839 191.39C403.949 191.442 391.196 193.976 379.313 198.847C367.43 203.718 356.651 210.829 347.595 219.774C338.539 228.718 331.384 239.318 326.543 250.966C321.702 262.613 319.269 275.077 319.383 287.643C319.498 300.209 322.159 312.629 327.213 324.188C332.266 335.747 339.613 346.219 348.831 355C358.049 363.782 368.957 370.701 380.927 375.36C392.898 380.019 405.695 382.326 418.583 382.148L417.856 331.304C411.838 331.387 405.863 330.31 400.275 328.135C394.686 325.959 389.593 322.729 385.289 318.629C380.985 314.528 377.555 309.639 375.195 304.242C372.836 298.845 371.593 293.047 371.54 287.18C371.486 281.313 372.622 275.493 374.883 270.055C377.143 264.617 380.483 259.667 384.712 255.491C388.94 251.315 393.973 247.995 399.521 245.721C405.069 243.446 411.023 242.263 417.042 242.239L416.839 191.39Z" fill="#4EA8AD" fill-opacity="0.15"/>
</g>
<rect x="135" y="34" width="272" height="392" rx="22" fill="url(#paint1_linear_1992_6248)" fill-opacity="0.2"/>
<g filter="url(#filter4_d_1992_6248)">
<circle cx="271.5" cy="117.5" r="36.5" fill="white"/>
</g>
<circle cx="260.5" cy="106.5" r="3.5" fill="#00B7AF"/>
<circle cx="271.5" cy="106.5" r="3.5" fill="#00B7AF"/>
<circle cx="282.5" cy="106.5" r="3.5" fill="#00B7AF"/>
<circle cx="260.5" cy="117.5" r="3.5" fill="#00B7AF"/>
<circle cx="271.5" cy="117.5" r="3.5" fill="#00B7AF"/>
<circle cx="282.5" cy="117.5" r="3.5" fill="#BAB8B8"/>
<circle cx="260.5" cy="128.5" r="3.5" fill="#00B7AF"/>
<circle cx="271.5" cy="128.5" r="3.5" fill="#00B7AF"/>
<circle cx="282.5" cy="128.5" r="3.5" fill="#FC7C68"/>
<path d="M208.264 203V187.043H202.729V184.1H217.39V187.043H211.882V203H208.264ZM223.893 203.324C222.597 203.324 221.427 203.027 220.383 202.433C219.357 201.821 218.538 200.984 217.926 199.922C217.332 198.842 217.035 197.609 217.035 196.223C217.035 194.801 217.332 193.559 217.926 192.497C218.538 191.417 219.366 190.58 220.41 189.986C221.454 189.374 222.624 189.068 223.92 189.068C225.234 189.068 226.404 189.374 227.43 189.986C228.474 190.58 229.293 191.417 229.887 192.497C230.499 193.559 230.805 194.792 230.805 196.196C230.805 197.6 230.499 198.842 229.887 199.922C229.293 200.984 228.474 201.821 227.43 202.433C226.386 203.027 225.207 203.324 223.893 203.324ZM223.893 200.165C224.505 200.165 225.045 200.021 225.513 199.733C225.999 199.445 226.377 199.004 226.647 198.41C226.935 197.816 227.079 197.078 227.079 196.196C227.079 195.314 226.935 194.585 226.647 194.009C226.377 193.415 225.999 192.974 225.513 192.686C225.045 192.38 224.514 192.227 223.92 192.227C223.344 192.227 222.813 192.38 222.327 192.686C221.841 192.974 221.454 193.415 221.166 194.009C220.896 194.585 220.761 195.314 220.761 196.196C220.761 197.078 220.896 197.816 221.166 198.41C221.454 199.004 221.832 199.445 222.3 199.733C222.786 200.021 223.317 200.165 223.893 200.165ZM239.994 203.324C238.752 203.324 237.636 203.018 236.646 202.406C235.674 201.794 234.909 200.948 234.351 199.868C233.793 198.788 233.514 197.573 233.514 196.223C233.514 194.837 233.793 193.613 234.351 192.551C234.927 191.471 235.71 190.625 236.7 190.013C237.708 189.383 238.833 189.068 240.075 189.068C241.047 189.068 241.902 189.248 242.64 189.608C243.378 189.968 243.972 190.481 244.422 191.147V183.56H248.067V203H244.827L244.422 201.137C244.152 201.515 243.81 201.875 243.396 202.217C243 202.559 242.523 202.829 241.965 203.027C241.407 203.225 240.75 203.324 239.994 203.324ZM240.858 200.138C241.578 200.138 242.208 199.976 242.748 199.652C243.306 199.31 243.738 198.842 244.044 198.248C244.35 197.654 244.503 196.97 244.503 196.196C244.503 195.422 244.35 194.738 244.044 194.144C243.738 193.55 243.306 193.091 242.748 192.767C242.208 192.425 241.578 192.254 240.858 192.254C240.174 192.254 239.553 192.425 238.995 192.767C238.437 193.091 237.996 193.55 237.672 194.144C237.366 194.738 237.213 195.413 237.213 196.169C237.213 196.961 237.366 197.654 237.672 198.248C237.996 198.842 238.428 199.31 238.968 199.652C239.526 199.976 240.156 200.138 240.858 200.138ZM256.228 203.324C255.094 203.324 254.158 203.144 253.42 202.784C252.682 202.406 252.133 201.911 251.773 201.299C251.431 200.669 251.26 199.976 251.26 199.22C251.26 198.392 251.467 197.663 251.881 197.033C252.313 196.403 252.952 195.908 253.798 195.548C254.662 195.188 255.742 195.008 257.038 195.008H260.413C260.413 194.342 260.323 193.793 260.143 193.361C259.963 192.911 259.684 192.578 259.306 192.362C258.928 192.146 258.424 192.038 257.794 192.038C257.11 192.038 256.525 192.191 256.039 192.497C255.571 192.785 255.283 193.235 255.175 193.847H251.638C251.728 192.875 252.043 192.038 252.583 191.336C253.141 190.616 253.87 190.058 254.77 189.662C255.688 189.266 256.705 189.068 257.821 189.068C259.099 189.068 260.206 189.284 261.142 189.716C262.078 190.148 262.798 190.769 263.302 191.579C263.806 192.389 264.058 193.388 264.058 194.576V203H260.98L260.575 200.921C260.377 201.281 260.143 201.605 259.873 201.893C259.603 202.181 259.288 202.433 258.928 202.649C258.568 202.865 258.163 203.027 257.713 203.135C257.263 203.261 256.768 203.324 256.228 203.324ZM257.092 200.516C257.56 200.516 257.974 200.435 258.334 200.273C258.712 200.093 259.036 199.859 259.306 199.571C259.576 199.265 259.783 198.923 259.927 198.545C260.089 198.149 260.197 197.726 260.251 197.276V197.249H257.47C256.912 197.249 256.453 197.321 256.093 197.465C255.751 197.591 255.499 197.78 255.337 198.032C255.175 198.284 255.094 198.572 255.094 198.896C255.094 199.256 255.175 199.553 255.337 199.787C255.499 200.021 255.733 200.201 256.039 200.327C256.345 200.453 256.696 200.516 257.092 200.516ZM273.021 203.324C271.779 203.324 270.699 203.126 269.781 202.73C268.863 202.334 268.143 201.785 267.621 201.083C267.099 200.381 266.802 199.589 266.73 198.707H270.348C270.438 199.049 270.591 199.364 270.807 199.652C271.023 199.922 271.311 200.138 271.671 200.3C272.031 200.462 272.463 200.543 272.967 200.543C273.453 200.543 273.849 200.48 274.155 200.354C274.461 200.21 274.686 200.021 274.83 199.787C274.992 199.553 275.073 199.31 275.073 199.058C275.073 198.68 274.965 198.392 274.749 198.194C274.533 197.978 274.218 197.807 273.804 197.681C273.39 197.555 272.886 197.429 272.292 197.303C271.644 197.177 271.005 197.024 270.375 196.844C269.763 196.646 269.214 196.403 268.728 196.115C268.242 195.827 267.855 195.458 267.567 195.008C267.279 194.558 267.135 194 267.135 193.334C267.135 192.524 267.351 191.804 267.783 191.174C268.215 190.526 268.845 190.013 269.673 189.635C270.501 189.257 271.5 189.068 272.67 189.068C274.308 189.068 275.604 189.437 276.558 190.175C277.512 190.913 278.079 191.93 278.259 193.226H274.83C274.722 192.812 274.479 192.488 274.101 192.254C273.741 192.002 273.255 191.876 272.643 191.876C271.995 191.876 271.5 191.993 271.158 192.227C270.816 192.461 270.645 192.767 270.645 193.145C270.645 193.397 270.753 193.622 270.969 193.82C271.203 194.018 271.527 194.189 271.941 194.333C272.355 194.459 272.859 194.585 273.453 194.711C274.497 194.927 275.415 195.179 276.207 195.467C276.999 195.737 277.62 196.133 278.07 196.655C278.52 197.159 278.745 197.897 278.745 198.869C278.745 199.733 278.511 200.507 278.043 201.191C277.575 201.857 276.909 202.379 276.045 202.757C275.199 203.135 274.191 203.324 273.021 203.324ZM288.183 203V183.56H291.828V203H288.183ZM299.972 203.324C298.838 203.324 297.902 203.144 297.164 202.784C296.426 202.406 295.877 201.911 295.517 201.299C295.175 200.669 295.004 199.976 295.004 199.22C295.004 198.392 295.211 197.663 295.625 197.033C296.057 196.403 296.696 195.908 297.542 195.548C298.406 195.188 299.486 195.008 300.782 195.008H304.157C304.157 194.342 304.067 193.793 303.887 193.361C303.707 192.911 303.428 192.578 303.05 192.362C302.672 192.146 302.168 192.038 301.538 192.038C300.854 192.038 300.269 192.191 299.783 192.497C299.315 192.785 299.027 193.235 298.919 193.847H295.382C295.472 192.875 295.787 192.038 296.327 191.336C296.885 190.616 297.614 190.058 298.514 189.662C299.432 189.266 300.449 189.068 301.565 189.068C302.843 189.068 303.95 189.284 304.886 189.716C305.822 190.148 306.542 190.769 307.046 191.579C307.55 192.389 307.802 193.388 307.802 194.576V203H304.724L304.319 200.921C304.121 201.281 303.887 201.605 303.617 201.893C303.347 202.181 303.032 202.433 302.672 202.649C302.312 202.865 301.907 203.027 301.457 203.135C301.007 203.261 300.512 203.324 299.972 203.324ZM300.836 200.516C301.304 200.516 301.718 200.435 302.078 200.273C302.456 200.093 302.78 199.859 303.05 199.571C303.32 199.265 303.527 198.923 303.671 198.545C303.833 198.149 303.941 197.726 303.995 197.276V197.249H301.214C300.656 197.249 300.197 197.321 299.837 197.465C299.495 197.591 299.243 197.78 299.081 198.032C298.919 198.284 298.838 198.572 298.838 198.896C298.838 199.256 298.919 199.553 299.081 199.787C299.243 200.021 299.477 200.201 299.783 200.327C300.089 200.453 300.44 200.516 300.836 200.516ZM316.764 203.324C315.522 203.324 314.442 203.126 313.524 202.73C312.606 202.334 311.886 201.785 311.364 201.083C310.842 200.381 310.545 199.589 310.473 198.707H314.091C314.181 199.049 314.334 199.364 314.55 199.652C314.766 199.922 315.054 200.138 315.414 200.3C315.774 200.462 316.206 200.543 316.71 200.543C317.196 200.543 317.592 200.48 317.898 200.354C318.204 200.21 318.429 200.021 318.573 199.787C318.735 199.553 318.816 199.31 318.816 199.058C318.816 198.68 318.708 198.392 318.492 198.194C318.276 197.978 317.961 197.807 317.547 197.681C317.133 197.555 316.629 197.429 316.035 197.303C315.387 197.177 314.748 197.024 314.118 196.844C313.506 196.646 312.957 196.403 312.471 196.115C311.985 195.827 311.598 195.458 311.31 195.008C311.022 194.558 310.878 194 310.878 193.334C310.878 192.524 311.094 191.804 311.526 191.174C311.958 190.526 312.588 190.013 313.416 189.635C314.244 189.257 315.243 189.068 316.413 189.068C318.051 189.068 319.347 189.437 320.301 190.175C321.255 190.913 321.822 191.93 322.002 193.226H318.573C318.465 192.812 318.222 192.488 317.844 192.254C317.484 192.002 316.998 191.876 316.386 191.876C315.738 191.876 315.243 191.993 314.901 192.227C314.559 192.461 314.388 192.767 314.388 193.145C314.388 193.397 314.496 193.622 314.712 193.82C314.946 194.018 315.27 194.189 315.684 194.333C316.098 194.459 316.602 194.585 317.196 194.711C318.24 194.927 319.158 195.179 319.95 195.467C320.742 195.737 321.363 196.133 321.813 196.655C322.263 197.159 322.488 197.897 322.488 198.869C322.488 199.733 322.254 200.507 321.786 201.191C321.318 201.857 320.652 202.379 319.788 202.757C318.942 203.135 317.934 203.324 316.764 203.324ZM210.37 232.324C209.002 232.324 207.787 232.018 206.725 231.406C205.663 230.794 204.835 229.957 204.241 228.895C203.647 227.833 203.35 226.618 203.35 225.25C203.35 223.846 203.647 222.613 204.241 221.551C204.835 220.471 205.663 219.625 206.725 219.013C207.787 218.383 209.002 218.068 210.37 218.068C212.116 218.068 213.583 218.527 214.771 219.445C215.959 220.363 216.715 221.623 217.039 223.225H213.178C213.016 222.595 212.674 222.1 212.152 221.74C211.648 221.38 211.045 221.2 210.343 221.2C209.713 221.2 209.146 221.362 208.642 221.686C208.156 221.992 207.769 222.451 207.481 223.063C207.211 223.657 207.076 224.368 207.076 225.196C207.076 225.826 207.157 226.393 207.319 226.897C207.481 227.383 207.706 227.806 207.994 228.166C208.282 228.508 208.624 228.769 209.02 228.949C209.434 229.129 209.875 229.219 210.343 229.219C210.811 229.219 211.234 229.138 211.612 228.976C212.008 228.814 212.341 228.589 212.611 228.301C212.881 227.995 213.07 227.626 213.178 227.194H217.039C216.715 228.76 215.95 230.011 214.744 230.947C213.556 231.865 212.098 232.324 210.37 232.324ZM224.772 232.324C223.638 232.324 222.702 232.144 221.964 231.784C221.226 231.406 220.677 230.911 220.317 230.299C219.975 229.669 219.804 228.976 219.804 228.22C219.804 227.392 220.011 226.663 220.425 226.033C220.857 225.403 221.496 224.908 222.342 224.548C223.206 224.188 224.286 224.008 225.582 224.008H228.957C228.957 223.342 228.867 222.793 228.687 222.361C228.507 221.911 228.228 221.578 227.85 221.362C227.472 221.146 226.968 221.038 226.338 221.038C225.654 221.038 225.069 221.191 224.583 221.497C224.115 221.785 223.827 222.235 223.719 222.847H220.182C220.272 221.875 220.587 221.038 221.127 220.336C221.685 219.616 222.414 219.058 223.314 218.662C224.232 218.266 225.249 218.068 226.365 218.068C227.643 218.068 228.75 218.284 229.686 218.716C230.622 219.148 231.342 219.769 231.846 220.579C232.35 221.389 232.602 222.388 232.602 223.576V232H229.524L229.119 229.921C228.921 230.281 228.687 230.605 228.417 230.893C228.147 231.181 227.832 231.433 227.472 231.649C227.112 231.865 226.707 232.027 226.257 232.135C225.807 232.261 225.312 232.324 224.772 232.324ZM225.636 229.516C226.104 229.516 226.518 229.435 226.878 229.273C227.256 229.093 227.58 228.859 227.85 228.571C228.12 228.265 228.327 227.923 228.471 227.545C228.633 227.149 228.741 226.726 228.795 226.276V226.249H226.014C225.456 226.249 224.997 226.321 224.637 226.465C224.295 226.591 224.043 226.78 223.881 227.032C223.719 227.284 223.638 227.572 223.638 227.896C223.638 228.256 223.719 228.553 223.881 228.787C224.043 229.021 224.277 229.201 224.583 229.327C224.889 229.453 225.24 229.516 225.636 229.516ZM241.974 232C241.02 232 240.183 231.856 239.463 231.568C238.761 231.262 238.212 230.767 237.816 230.083C237.42 229.381 237.222 228.427 237.222 227.221V221.443H234.9V218.392H237.222L237.626 214.693H240.867V218.392H244.458V221.443H240.867V227.275C240.867 227.887 241.002 228.31 241.272 228.544C241.542 228.778 242.001 228.895 242.649 228.895H244.431V232H241.974ZM253.716 232.324C252.348 232.324 251.133 232.036 250.071 231.46C249.027 230.866 248.208 230.047 247.614 229.003C247.038 227.941 246.75 226.717 246.75 225.331C246.75 223.909 247.038 222.658 247.614 221.578C248.208 220.48 249.027 219.625 250.071 219.013C251.115 218.383 252.33 218.068 253.716 218.068C255.066 218.068 256.245 218.365 257.253 218.959C258.261 219.553 259.044 220.354 259.602 221.362C260.16 222.37 260.439 223.513 260.439 224.791C260.439 224.971 260.439 225.178 260.439 225.412C260.439 225.628 260.421 225.853 260.385 226.087H249.342V223.873H256.767C256.713 222.991 256.398 222.298 255.822 221.794C255.264 221.29 254.562 221.038 253.716 221.038C253.104 221.038 252.537 221.182 252.015 221.47C251.493 221.74 251.079 222.163 250.773 222.739C250.485 223.315 250.341 224.044 250.341 224.926V225.709C250.341 226.447 250.476 227.095 250.746 227.653C251.034 228.193 251.43 228.616 251.934 228.922C252.438 229.21 253.023 229.354 253.689 229.354C254.355 229.354 254.904 229.21 255.336 228.922C255.786 228.634 256.119 228.265 256.335 227.815H260.061C259.809 228.661 259.386 229.426 258.792 230.11C258.198 230.794 257.469 231.334 256.605 231.73C255.741 232.126 254.778 232.324 253.716 232.324ZM268.941 238.264C267.645 238.264 266.511 238.102 265.539 237.778C264.567 237.472 263.811 236.995 263.271 236.347C262.749 235.717 262.488 234.934 262.488 233.998C262.488 233.368 262.65 232.774 262.974 232.216C263.298 231.658 263.766 231.154 264.378 230.704C265.008 230.236 265.791 229.84 266.727 229.516L268.104 231.298C267.276 231.568 266.673 231.901 266.295 232.297C265.935 232.711 265.755 233.152 265.755 233.62C265.755 234.034 265.89 234.385 266.16 234.673C266.448 234.961 266.826 235.168 267.294 235.294C267.78 235.438 268.32 235.51 268.914 235.51C269.49 235.51 269.985 235.438 270.399 235.294C270.831 235.15 271.164 234.934 271.398 234.646C271.65 234.376 271.776 234.052 271.776 233.674C271.776 233.188 271.605 232.792 271.263 232.486C270.921 232.18 270.237 231.991 269.211 231.919C268.293 231.847 267.474 231.748 266.754 231.622C266.052 231.478 265.431 231.316 264.891 231.136C264.351 230.938 263.892 230.722 263.514 230.488C263.154 230.254 262.857 230.02 262.623 229.786V229.165L265.512 226.06L268.131 226.897L264.729 230.245L265.755 228.463C265.953 228.571 266.142 228.679 266.322 228.787C266.52 228.877 266.763 228.967 267.051 229.057C267.339 229.129 267.717 229.201 268.185 229.273C268.653 229.345 269.247 229.408 269.967 229.462C271.155 229.57 272.127 229.795 272.883 230.137C273.657 230.479 274.224 230.938 274.584 231.514C274.944 232.072 275.124 232.765 275.124 233.593C275.124 234.403 274.899 235.159 274.449 235.861C274.017 236.581 273.342 237.157 272.424 237.589C271.506 238.039 270.345 238.264 268.941 238.264ZM268.941 227.977C267.807 227.977 266.826 227.761 265.998 227.329C265.188 226.879 264.558 226.285 264.108 225.547C263.676 224.791 263.46 223.954 263.46 223.036C263.46 222.118 263.676 221.29 264.108 220.552C264.558 219.796 265.188 219.193 265.998 218.743C266.826 218.293 267.807 218.068 268.941 218.068C270.093 218.068 271.074 218.293 271.884 218.743C272.712 219.193 273.342 219.796 273.774 220.552C274.206 221.29 274.422 222.118 274.422 223.036C274.422 223.954 274.206 224.791 273.774 225.547C273.342 226.285 272.712 226.879 271.884 227.329C271.074 227.761 270.093 227.977 268.941 227.977ZM268.941 225.196C269.643 225.196 270.21 225.016 270.642 224.656C271.074 224.296 271.29 223.765 271.29 223.063C271.29 222.361 271.074 221.83 270.642 221.47C270.21 221.092 269.643 220.903 268.941 220.903C268.257 220.903 267.69 221.092 267.24 221.47C266.808 221.83 266.592 222.361 266.592 223.063C266.592 223.765 266.808 224.296 267.24 224.656C267.69 225.016 268.257 225.196 268.941 225.196ZM271.209 220.984L270.615 218.392H276.204V220.552L271.209 220.984ZM285.064 232.324C283.768 232.324 282.598 232.027 281.554 231.433C280.528 230.821 279.709 229.984 279.097 228.922C278.503 227.842 278.206 226.609 278.206 225.223C278.206 223.801 278.503 222.559 279.097 221.497C279.709 220.417 280.537 219.58 281.581 218.986C282.625 218.374 283.795 218.068 285.091 218.068C286.405 218.068 287.575 218.374 288.601 218.986C289.645 219.58 290.464 220.417 291.058 221.497C291.67 222.559 291.976 223.792 291.976 225.196C291.976 226.6 291.67 227.842 291.058 228.922C290.464 229.984 289.645 230.821 288.601 231.433C287.557 232.027 286.378 232.324 285.064 232.324ZM285.064 229.165C285.676 229.165 286.216 229.021 286.684 228.733C287.17 228.445 287.548 228.004 287.818 227.41C288.106 226.816 288.25 226.078 288.25 225.196C288.25 224.314 288.106 223.585 287.818 223.009C287.548 222.415 287.17 221.974 286.684 221.686C286.216 221.38 285.685 221.227 285.091 221.227C284.515 221.227 283.984 221.38 283.498 221.686C283.012 221.974 282.625 222.415 282.337 223.009C282.067 223.585 281.932 224.314 281.932 225.196C281.932 226.078 282.067 226.816 282.337 227.41C282.625 228.004 283.003 228.445 283.471 228.733C283.957 229.021 284.488 229.165 285.064 229.165ZM295.118 232V218.392H298.358L298.709 220.903C299.033 220.309 299.438 219.805 299.924 219.391C300.428 218.977 300.995 218.653 301.625 218.419C302.273 218.185 302.984 218.068 303.758 218.068V221.929H302.516C301.976 221.929 301.472 221.992 301.004 222.118C300.554 222.244 300.158 222.451 299.816 222.739C299.474 223.009 299.213 223.387 299.033 223.873C298.853 224.359 298.763 224.971 298.763 225.709V232H295.118ZM306.247 232V218.392H309.892V232H306.247ZM308.083 216.529C307.435 216.529 306.895 216.34 306.463 215.962C306.049 215.566 305.842 215.071 305.842 214.477C305.842 213.883 306.049 213.397 306.463 213.019C306.895 212.623 307.435 212.425 308.083 212.425C308.749 212.425 309.289 212.623 309.703 213.019C310.135 213.397 310.351 213.883 310.351 214.477C310.351 215.071 310.135 215.566 309.703 215.962C309.289 216.34 308.749 216.529 308.083 216.529ZM318.165 232.324C317.031 232.324 316.095 232.144 315.357 231.784C314.619 231.406 314.07 230.911 313.71 230.299C313.368 229.669 313.197 228.976 313.197 228.22C313.197 227.392 313.404 226.663 313.818 226.033C314.25 225.403 314.889 224.908 315.735 224.548C316.599 224.188 317.679 224.008 318.975 224.008H322.35C322.35 223.342 322.26 222.793 322.08 222.361C321.9 221.911 321.621 221.578 321.243 221.362C320.865 221.146 320.361 221.038 319.731 221.038C319.047 221.038 318.462 221.191 317.976 221.497C317.508 221.785 317.22 222.235 317.112 222.847H313.575C313.665 221.875 313.98 221.038 314.52 220.336C315.078 219.616 315.807 219.058 316.707 218.662C317.625 218.266 318.642 218.068 319.758 218.068C321.036 218.068 322.143 218.284 323.079 218.716C324.015 219.148 324.735 219.769 325.239 220.579C325.743 221.389 325.995 222.388 325.995 223.576V232H322.917L322.512 229.921C322.314 230.281 322.08 230.605 321.81 230.893C321.54 231.181 321.225 231.433 320.865 231.649C320.505 231.865 320.1 232.027 319.65 232.135C319.2 232.261 318.705 232.324 318.165 232.324ZM319.029 229.516C319.497 229.516 319.911 229.435 320.271 229.273C320.649 229.093 320.973 228.859 321.243 228.571C321.513 228.265 321.72 227.923 321.864 227.545C322.026 227.149 322.134 226.726 322.188 226.276V226.249H319.407C318.849 226.249 318.39 226.321 318.03 226.465C317.688 226.591 317.436 226.78 317.274 227.032C317.112 227.284 317.031 227.572 317.031 227.896C317.031 228.256 317.112 228.553 317.274 228.787C317.436 229.021 317.67 229.201 317.976 229.327C318.282 229.453 318.633 229.516 319.029 229.516ZM334.957 232.324C333.715 232.324 332.635 232.126 331.717 231.73C330.799 231.334 330.079 230.785 329.557 230.083C329.035 229.381 328.738 228.589 328.666 227.707H332.284C332.374 228.049 332.527 228.364 332.743 228.652C332.959 228.922 333.247 229.138 333.607 229.3C333.967 229.462 334.399 229.543 334.903 229.543C335.389 229.543 335.785 229.48 336.091 229.354C336.397 229.21 336.622 229.021 336.766 228.787C336.928 228.553 337.009 228.31 337.009 228.058C337.009 227.68 336.901 227.392 336.685 227.194C336.469 226.978 336.154 226.807 335.74 226.681C335.326 226.555 334.822 226.429 334.228 226.303C333.58 226.177 332.941 226.024 332.311 225.844C331.699 225.646 331.15 225.403 330.664 225.115C330.178 224.827 329.791 224.458 329.503 224.008C329.215 223.558 329.071 223 329.071 222.334C329.071 221.524 329.287 220.804 329.719 220.174C330.151 219.526 330.781 219.013 331.609 218.635C332.437 218.257 333.436 218.068 334.606 218.068C336.244 218.068 337.54 218.437 338.494 219.175C339.448 219.913 340.015 220.93 340.195 222.226H336.766C336.658 221.812 336.415 221.488 336.037 221.254C335.677 221.002 335.191 220.876 334.579 220.876C333.931 220.876 333.436 220.993 333.094 221.227C332.752 221.461 332.581 221.767 332.581 222.145C332.581 222.397 332.689 222.622 332.905 222.82C333.139 223.018 333.463 223.189 333.877 223.333C334.291 223.459 334.795 223.585 335.389 223.711C336.433 223.927 337.351 224.179 338.143 224.467C338.935 224.737 339.556 225.133 340.006 225.655C340.456 226.159 340.681 226.897 340.681 227.869C340.681 228.733 340.447 229.507 339.979 230.191C339.511 230.857 338.845 231.379 337.981 231.757C337.135 232.135 336.127 232.324 334.957 232.324Z" fill="#3C3C3C"/>
<path d="M239 244C239.552 244 240 244.448 240 245C240 245.552 239.552 246 239 246L203 246C202.448 246 202 245.552 202 245C202 244.448 202.448 244 203 244L239 244Z" fill="#00C0BA"/>
<path d="M202.876 283V274.6H208.18V275.584H204.076V278.272H207.82V279.232H204.076V282.016H208.18V283H202.876ZM209.095 283L211.183 279.976L209.095 276.952H210.391L211.975 279.304L213.571 276.952H214.855L212.767 279.976L214.855 283H213.571L211.975 280.636L210.391 283H209.095ZM215.906 285.64V276.952H216.986L217.106 277.888C217.234 277.704 217.394 277.532 217.586 277.372C217.778 277.204 218.006 277.068 218.27 276.964C218.542 276.86 218.858 276.808 219.218 276.808C219.794 276.808 220.298 276.948 220.73 277.228C221.17 277.508 221.51 277.888 221.75 278.368C221.998 278.84 222.122 279.38 222.122 279.988C222.122 280.596 221.998 281.14 221.75 281.62C221.502 282.092 221.158 282.464 220.718 282.736C220.286 283.008 219.782 283.144 219.206 283.144C218.734 283.144 218.318 283.052 217.958 282.868C217.598 282.676 217.314 282.412 217.106 282.076V285.64H215.906ZM219.014 282.1C219.382 282.1 219.706 282.012 219.986 281.836C220.274 281.66 220.498 281.412 220.658 281.092C220.826 280.772 220.91 280.4 220.91 279.976C220.91 279.552 220.826 279.184 220.658 278.872C220.498 278.552 220.274 278.304 219.986 278.128C219.706 277.944 219.382 277.852 219.014 277.852C218.638 277.852 218.306 277.944 218.018 278.128C217.738 278.304 217.518 278.552 217.358 278.872C217.198 279.184 217.118 279.552 217.118 279.976C217.118 280.4 217.198 280.772 217.358 281.092C217.518 281.412 217.738 281.66 218.018 281.836C218.306 282.012 218.638 282.1 219.014 282.1ZM223.523 283V274.36H224.723V283H223.523ZM229.131 283.144C228.563 283.144 228.051 283.012 227.595 282.748C227.147 282.484 226.791 282.116 226.527 281.644C226.271 281.164 226.143 280.612 226.143 279.988C226.143 279.348 226.275 278.792 226.539 278.32C226.803 277.84 227.163 277.468 227.619 277.204C228.075 276.94 228.587 276.808 229.155 276.808C229.731 276.808 230.243 276.94 230.691 277.204C231.139 277.468 231.491 277.836 231.747 278.308C232.011 278.78 232.143 279.336 232.143 279.976C232.143 280.616 232.011 281.172 231.747 281.644C231.491 282.116 231.135 282.484 230.679 282.748C230.223 283.012 229.707 283.144 229.131 283.144ZM229.131 282.112C229.459 282.112 229.755 282.032 230.019 281.872C230.291 281.712 230.507 281.476 230.667 281.164C230.835 280.844 230.919 280.448 230.919 279.976C230.919 279.504 230.839 279.112 230.679 278.8C230.519 278.48 230.303 278.24 230.031 278.08C229.767 277.92 229.475 277.84 229.155 277.84C228.835 277.84 228.539 277.92 228.267 278.08C227.995 278.24 227.775 278.48 227.607 278.8C227.447 279.112 227.367 279.504 227.367 279.976C227.367 280.448 227.447 280.844 227.607 281.164C227.775 281.476 227.991 281.712 228.255 281.872C228.527 282.032 228.819 282.112 229.131 282.112ZM233.554 283V276.952H234.634L234.742 278.092C234.878 277.82 235.054 277.592 235.27 277.408C235.486 277.216 235.738 277.068 236.026 276.964C236.322 276.86 236.658 276.808 237.034 276.808V278.08H236.602C236.354 278.08 236.118 278.112 235.894 278.176C235.67 278.232 235.47 278.332 235.294 278.476C235.126 278.62 234.994 278.816 234.898 279.064C234.802 279.312 234.754 279.62 234.754 279.988V283H233.554ZM240.14 283.144C239.644 283.144 239.232 283.06 238.904 282.892C238.576 282.724 238.332 282.5 238.172 282.22C238.012 281.932 237.932 281.624 237.932 281.296C237.932 280.896 238.036 280.556 238.244 280.276C238.452 279.988 238.748 279.768 239.132 279.616C239.516 279.464 239.976 279.388 240.512 279.388H242.084C242.084 279.036 242.032 278.744 241.928 278.512C241.824 278.28 241.668 278.108 241.46 277.996C241.26 277.876 241.004 277.816 240.692 277.816C240.332 277.816 240.024 277.904 239.768 278.08C239.512 278.248 239.352 278.5 239.288 278.836H238.088C238.136 278.412 238.28 278.052 238.52 277.756C238.768 277.452 239.084 277.22 239.468 277.06C239.852 276.892 240.26 276.808 240.692 276.808C241.26 276.808 241.736 276.908 242.12 277.108C242.504 277.308 242.792 277.592 242.984 277.96C243.184 278.32 243.284 278.752 243.284 279.256V283H242.24L242.144 281.98C242.056 282.14 241.952 282.292 241.832 282.436C241.712 282.58 241.568 282.704 241.4 282.808C241.24 282.912 241.052 282.992 240.836 283.048C240.628 283.112 240.396 283.144 240.14 283.144ZM240.368 282.172C240.624 282.172 240.856 282.12 241.064 282.016C241.272 281.912 241.448 281.772 241.592 281.596C241.744 281.412 241.856 281.208 241.928 280.984C242.008 280.752 242.052 280.516 242.06 280.276V280.24H240.632C240.288 280.24 240.008 280.284 239.792 280.372C239.584 280.452 239.432 280.564 239.336 280.708C239.24 280.852 239.192 281.02 239.192 281.212C239.192 281.412 239.236 281.584 239.324 281.728C239.42 281.864 239.556 281.972 239.732 282.052C239.908 282.132 240.12 282.172 240.368 282.172ZM250.382 283C249.998 283 249.666 282.94 249.386 282.82C249.106 282.7 248.89 282.5 248.738 282.22C248.586 281.94 248.51 281.56 248.51 281.08V277.972H247.466V276.952H248.51L248.654 275.44H249.71V276.952H251.426V277.972H249.71V281.092C249.71 281.436 249.782 281.672 249.926 281.8C250.07 281.92 250.318 281.98 250.67 281.98H251.366V283H250.382ZM255.346 283.144C254.778 283.144 254.266 283.012 253.81 282.748C253.362 282.484 253.006 282.116 252.742 281.644C252.486 281.164 252.358 280.612 252.358 279.988C252.358 279.348 252.49 278.792 252.754 278.32C253.018 277.84 253.378 277.468 253.834 277.204C254.29 276.94 254.802 276.808 255.37 276.808C255.946 276.808 256.458 276.94 256.906 277.204C257.354 277.468 257.706 277.836 257.962 278.308C258.226 278.78 258.358 279.336 258.358 279.976C258.358 280.616 258.226 281.172 257.962 281.644C257.706 282.116 257.35 282.484 256.894 282.748C256.438 283.012 255.922 283.144 255.346 283.144ZM255.346 282.112C255.674 282.112 255.97 282.032 256.234 281.872C256.506 281.712 256.722 281.476 256.882 281.164C257.05 280.844 257.134 280.448 257.134 279.976C257.134 279.504 257.054 279.112 256.894 278.8C256.734 278.48 256.518 278.24 256.246 278.08C255.982 277.92 255.69 277.84 255.37 277.84C255.05 277.84 254.754 277.92 254.482 278.08C254.21 278.24 253.99 278.48 253.822 278.8C253.662 279.112 253.582 279.504 253.582 279.976C253.582 280.448 253.662 280.844 253.822 281.164C253.99 281.476 254.206 281.712 254.47 281.872C254.742 282.032 255.034 282.112 255.346 282.112ZM262.457 283.144C261.881 283.144 261.373 283.008 260.933 282.736C260.493 282.456 260.149 282.08 259.901 281.608C259.661 281.128 259.541 280.584 259.541 279.976C259.541 279.36 259.661 278.816 259.901 278.344C260.149 277.872 260.493 277.5 260.933 277.228C261.381 276.948 261.893 276.808 262.469 276.808C262.941 276.808 263.357 276.904 263.717 277.096C264.077 277.28 264.357 277.544 264.557 277.888V274.36H265.757V283H264.677L264.557 282.064C264.437 282.248 264.281 282.424 264.089 282.592C263.897 282.752 263.665 282.884 263.393 282.988C263.121 283.092 262.809 283.144 262.457 283.144ZM262.649 282.1C263.025 282.1 263.357 282.012 263.645 281.836C263.933 281.66 264.153 281.412 264.305 281.092C264.465 280.772 264.545 280.4 264.545 279.976C264.545 279.552 264.465 279.184 264.305 278.872C264.153 278.552 263.933 278.304 263.645 278.128C263.357 277.944 263.025 277.852 262.649 277.852C262.289 277.852 261.965 277.944 261.677 278.128C261.389 278.304 261.165 278.552 261.005 278.872C260.845 279.184 260.765 279.552 260.765 279.976C260.765 280.4 260.845 280.772 261.005 281.092C261.165 281.412 261.389 281.66 261.677 281.836C261.965 282.012 262.289 282.1 262.649 282.1ZM270.158 283.144C269.59 283.144 269.078 283.012 268.622 282.748C268.174 282.484 267.818 282.116 267.554 281.644C267.298 281.164 267.17 280.612 267.17 279.988C267.17 279.348 267.302 278.792 267.566 278.32C267.83 277.84 268.19 277.468 268.646 277.204C269.102 276.94 269.614 276.808 270.182 276.808C270.758 276.808 271.27 276.94 271.718 277.204C272.166 277.468 272.518 277.836 272.774 278.308C273.038 278.78 273.17 279.336 273.17 279.976C273.17 280.616 273.038 281.172 272.774 281.644C272.518 282.116 272.162 282.484 271.706 282.748C271.25 283.012 270.734 283.144 270.158 283.144ZM270.158 282.112C270.486 282.112 270.782 282.032 271.046 281.872C271.318 281.712 271.534 281.476 271.694 281.164C271.862 280.844 271.946 280.448 271.946 279.976C271.946 279.504 271.866 279.112 271.706 278.8C271.546 278.48 271.33 278.24 271.058 278.08C270.794 277.92 270.502 277.84 270.182 277.84C269.862 277.84 269.566 277.92 269.294 278.08C269.022 278.24 268.802 278.48 268.634 278.8C268.474 279.112 268.394 279.504 268.394 279.976C268.394 280.448 268.474 280.844 268.634 281.164C268.802 281.476 269.018 281.712 269.282 281.872C269.554 282.032 269.846 282.112 270.158 282.112ZM277.652 283V276.952H278.732L278.804 277.984C278.996 277.624 279.268 277.34 279.62 277.132C279.972 276.916 280.376 276.808 280.832 276.808C281.312 276.808 281.724 276.904 282.068 277.096C282.412 277.288 282.68 277.58 282.872 277.972C283.064 278.356 283.16 278.84 283.16 279.424V283H281.96V279.544C281.96 278.984 281.836 278.56 281.588 278.272C281.34 277.984 280.98 277.84 280.508 277.84C280.196 277.84 279.916 277.916 279.668 278.068C279.42 278.212 279.22 278.428 279.068 278.716C278.924 279.004 278.852 279.356 278.852 279.772V283H277.652ZM286.915 283.144C286.443 283.144 286.031 283.048 285.679 282.856C285.335 282.664 285.067 282.376 284.875 281.992C284.691 281.608 284.599 281.124 284.599 280.54V276.952H285.799V280.408C285.799 280.976 285.923 281.404 286.171 281.692C286.419 281.98 286.775 282.124 287.239 282.124C287.551 282.124 287.831 282.048 288.079 281.896C288.335 281.744 288.535 281.524 288.679 281.236C288.823 280.948 288.895 280.596 288.895 280.18V276.952H290.095V283H289.027L288.943 281.968C288.759 282.336 288.491 282.624 288.139 282.832C287.787 283.04 287.379 283.144 286.915 283.144ZM294.474 283.144C293.898 283.144 293.386 283.012 292.938 282.748C292.49 282.484 292.138 282.116 291.882 281.644C291.634 281.172 291.51 280.624 291.51 280C291.51 279.36 291.634 278.804 291.882 278.332C292.138 277.852 292.49 277.48 292.938 277.216C293.386 276.944 293.906 276.808 294.498 276.808C295.09 276.808 295.598 276.94 296.022 277.204C296.446 277.468 296.774 277.82 297.006 278.26C297.238 278.692 297.354 279.172 297.354 279.7C297.354 279.78 297.35 279.868 297.342 279.964C297.342 280.052 297.338 280.152 297.33 280.264H292.386V279.412H296.154C296.13 278.908 295.962 278.516 295.65 278.236C295.338 277.948 294.95 277.804 294.486 277.804C294.158 277.804 293.858 277.88 293.586 278.032C293.314 278.176 293.094 278.392 292.926 278.68C292.766 278.96 292.686 279.316 292.686 279.748V280.084C292.686 280.532 292.766 280.912 292.926 281.224C293.094 281.528 293.314 281.76 293.586 281.92C293.858 282.072 294.154 282.148 294.474 282.148C294.858 282.148 295.174 282.064 295.422 281.896C295.67 281.728 295.854 281.5 295.974 281.212H297.174C297.07 281.58 296.894 281.912 296.646 282.208C296.398 282.496 296.09 282.724 295.722 282.892C295.362 283.06 294.946 283.144 294.474 283.144ZM301.027 283.144C300.515 283.144 300.067 283.06 299.683 282.892C299.299 282.724 298.995 282.488 298.771 282.184C298.547 281.88 298.411 281.524 298.363 281.116H299.587C299.627 281.308 299.703 281.484 299.815 281.644C299.935 281.804 300.095 281.932 300.295 282.028C300.503 282.124 300.747 282.172 301.027 282.172C301.291 282.172 301.507 282.136 301.675 282.064C301.851 281.984 301.979 281.88 302.059 281.752C302.139 281.616 302.179 281.472 302.179 281.32C302.179 281.096 302.123 280.928 302.011 280.816C301.907 280.696 301.747 280.604 301.531 280.54C301.323 280.468 301.071 280.404 300.775 280.348C300.495 280.3 300.223 280.236 299.959 280.156C299.703 280.068 299.471 279.96 299.263 279.832C299.063 279.704 298.903 279.544 298.783 279.352C298.663 279.152 298.603 278.908 298.603 278.62C298.603 278.276 298.695 277.968 298.879 277.696C299.063 277.416 299.323 277.2 299.659 277.048C300.003 276.888 300.407 276.808 300.871 276.808C301.543 276.808 302.083 276.968 302.491 277.288C302.899 277.608 303.139 278.06 303.211 278.644H302.047C302.015 278.372 301.895 278.164 301.687 278.02C301.479 277.868 301.203 277.792 300.859 277.792C300.515 277.792 300.251 277.86 300.067 277.996C299.883 278.132 299.791 278.312 299.791 278.536C299.791 278.68 299.843 278.808 299.947 278.92C300.051 279.032 300.203 279.128 300.403 279.208C300.611 279.28 300.863 279.348 301.159 279.412C301.583 279.492 301.963 279.592 302.299 279.712C302.635 279.832 302.903 280.008 303.103 280.24C303.303 280.472 303.403 280.804 303.403 281.236C303.411 281.612 303.315 281.944 303.115 282.232C302.923 282.52 302.647 282.744 302.287 282.904C301.935 283.064 301.515 283.144 301.027 283.144ZM307.066 283C306.682 283 306.35 282.94 306.07 282.82C305.79 282.7 305.574 282.5 305.422 282.22C305.27 281.94 305.194 281.56 305.194 281.08V277.972H304.15V276.952H305.194L305.338 275.44H306.394V276.952H308.11V277.972H306.394V281.092C306.394 281.436 306.466 281.672 306.61 281.8C306.754 281.92 307.002 281.98 307.354 281.98H308.05V283H307.066ZM309.433 283V276.952H310.513L310.621 278.092C310.757 277.82 310.933 277.592 311.149 277.408C311.365 277.216 311.617 277.068 311.905 276.964C312.201 276.86 312.537 276.808 312.913 276.808V278.08H312.481C312.233 278.08 311.997 278.112 311.773 278.176C311.549 278.232 311.349 278.332 311.173 278.476C311.005 278.62 310.873 278.816 310.777 279.064C310.681 279.312 310.633 279.62 310.633 279.988V283H309.433ZM316.599 283.144C316.031 283.144 315.519 283.012 315.063 282.748C314.615 282.484 314.259 282.116 313.995 281.644C313.739 281.164 313.611 280.612 313.611 279.988C313.611 279.348 313.743 278.792 314.007 278.32C314.271 277.84 314.631 277.468 315.087 277.204C315.543 276.94 316.055 276.808 316.623 276.808C317.199 276.808 317.711 276.94 318.159 277.204C318.607 277.468 318.959 277.836 319.215 278.308C319.479 278.78 319.611 279.336 319.611 279.976C319.611 280.616 319.479 281.172 319.215 281.644C318.959 282.116 318.603 282.484 318.147 282.748C317.691 283.012 317.175 283.144 316.599 283.144ZM316.599 282.112C316.927 282.112 317.223 282.032 317.487 281.872C317.759 281.712 317.975 281.476 318.135 281.164C318.303 280.844 318.387 280.448 318.387 279.976C318.387 279.504 318.307 279.112 318.147 278.8C317.987 278.48 317.771 278.24 317.499 278.08C317.235 277.92 316.943 277.84 316.623 277.84C316.303 277.84 316.007 277.92 315.735 278.08C315.463 278.24 315.243 278.48 315.075 278.8C314.915 279.112 314.835 279.504 314.835 279.976C314.835 280.448 314.915 280.844 315.075 281.164C315.243 281.476 315.459 281.712 315.723 281.872C315.995 282.032 316.287 282.112 316.599 282.112ZM205.612 298.144C205.028 298.144 204.508 298.012 204.052 297.748C203.596 297.476 203.236 297.104 202.972 296.632C202.716 296.16 202.588 295.612 202.588 294.988C202.588 294.356 202.716 293.804 202.972 293.332C203.236 292.852 203.596 292.48 204.052 292.216C204.508 291.944 205.028 291.808 205.612 291.808C206.348 291.808 206.964 292 207.46 292.384C207.956 292.768 208.272 293.288 208.408 293.944H207.16C207.08 293.592 206.896 293.32 206.608 293.128C206.328 292.936 205.992 292.84 205.6 292.84C205.28 292.84 204.984 292.924 204.712 293.092C204.44 293.252 204.22 293.492 204.052 293.812C203.892 294.124 203.812 294.512 203.812 294.976C203.812 295.32 203.86 295.628 203.956 295.9C204.052 296.164 204.18 296.388 204.34 296.572C204.508 296.756 204.7 296.896 204.916 296.992C205.132 297.08 205.36 297.124 205.6 297.124C205.864 297.124 206.1 297.084 206.308 297.004C206.524 296.916 206.704 296.788 206.848 296.62C207 296.452 207.104 296.252 207.16 296.02H208.408C208.272 296.66 207.956 297.176 207.46 297.568C206.964 297.952 206.348 298.144 205.612 298.144ZM211.816 298.144C211.32 298.144 210.908 298.06 210.58 297.892C210.252 297.724 210.008 297.5 209.848 297.22C209.688 296.932 209.608 296.624 209.608 296.296C209.608 295.896 209.712 295.556 209.92 295.276C210.128 294.988 210.424 294.768 210.808 294.616C211.192 294.464 211.652 294.388 212.188 294.388H213.76C213.76 294.036 213.708 293.744 213.604 293.512C213.5 293.28 213.344 293.108 213.136 292.996C212.936 292.876 212.68 292.816 212.368 292.816C212.008 292.816 211.7 292.904 211.444 293.08C211.188 293.248 211.028 293.5 210.964 293.836H209.764C209.812 293.412 209.956 293.052 210.196 292.756C210.444 292.452 210.76 292.22 211.144 292.06C211.528 291.892 211.936 291.808 212.368 291.808C212.936 291.808 213.412 291.908 213.796 292.108C214.18 292.308 214.468 292.592 214.66 292.96C214.86 293.32 214.96 293.752 214.96 294.256V298H213.916L213.82 296.98C213.732 297.14 213.628 297.292 213.508 297.436C213.388 297.58 213.244 297.704 213.076 297.808C212.916 297.912 212.728 297.992 212.512 298.048C212.304 298.112 212.072 298.144 211.816 298.144ZM212.044 297.172C212.3 297.172 212.532 297.12 212.74 297.016C212.948 296.912 213.124 296.772 213.268 296.596C213.42 296.412 213.532 296.208 213.604 295.984C213.684 295.752 213.728 295.516 213.736 295.276V295.24H212.308C211.964 295.24 211.684 295.284 211.468 295.372C211.26 295.452 211.108 295.564 211.012 295.708C210.916 295.852 210.868 296.02 210.868 296.212C210.868 296.412 210.912 296.584 211 296.728C211.096 296.864 211.232 296.972 211.408 297.052C211.584 297.132 211.796 297.172 212.044 297.172ZM218.859 298C218.475 298 218.143 297.94 217.863 297.82C217.583 297.7 217.367 297.5 217.215 297.22C217.063 296.94 216.987 296.56 216.987 296.08V292.972H215.943V291.952H216.987L217.131 290.44H218.187V291.952H219.903V292.972H218.187V296.092C218.187 296.436 218.259 296.672 218.403 296.8C218.547 296.92 218.795 296.98 219.147 296.98H219.843V298H218.859ZM223.23 298.144C222.734 298.144 222.322 298.06 221.994 297.892C221.666 297.724 221.422 297.5 221.262 297.22C221.102 296.932 221.022 296.624 221.022 296.296C221.022 295.896 221.126 295.556 221.334 295.276C221.542 294.988 221.838 294.768 222.222 294.616C222.606 294.464 223.066 294.388 223.602 294.388H225.174C225.174 294.036 225.122 293.744 225.018 293.512C224.914 293.28 224.758 293.108 224.55 292.996C224.35 292.876 224.094 292.816 223.782 292.816C223.422 292.816 223.114 292.904 222.858 293.08C222.602 293.248 222.442 293.5 222.378 293.836H221.178C221.226 293.412 221.37 293.052 221.61 292.756C221.858 292.452 222.174 292.22 222.558 292.06C222.942 291.892 223.35 291.808 223.782 291.808C224.35 291.808 224.826 291.908 225.21 292.108C225.594 292.308 225.882 292.592 226.074 292.96C226.274 293.32 226.374 293.752 226.374 294.256V298H225.33L225.234 296.98C225.146 297.14 225.042 297.292 224.922 297.436C224.802 297.58 224.658 297.704 224.49 297.808C224.33 297.912 224.142 297.992 223.926 298.048C223.718 298.112 223.486 298.144 223.23 298.144ZM223.458 297.172C223.714 297.172 223.946 297.12 224.154 297.016C224.362 296.912 224.538 296.772 224.682 296.596C224.834 296.412 224.946 296.208 225.018 295.984C225.098 295.752 225.142 295.516 225.15 295.276V295.24H223.722C223.378 295.24 223.098 295.284 222.882 295.372C222.674 295.452 222.522 295.564 222.426 295.708C222.33 295.852 222.282 296.02 222.282 296.212C222.282 296.412 222.326 296.584 222.414 296.728C222.51 296.864 222.646 296.972 222.822 297.052C222.998 297.132 223.21 297.172 223.458 297.172ZM222.51 291.436L222.39 290.608L224.874 289.084L225.03 290.068L222.51 291.436ZM227.906 298V289.36H229.106V298H227.906ZM233.514 298.144C232.946 298.144 232.434 298.012 231.978 297.748C231.53 297.484 231.174 297.116 230.91 296.644C230.654 296.164 230.526 295.612 230.526 294.988C230.526 294.348 230.658 293.792 230.922 293.32C231.186 292.84 231.546 292.468 232.002 292.204C232.458 291.94 232.97 291.808 233.538 291.808C234.114 291.808 234.626 291.94 235.074 292.204C235.522 292.468 235.874 292.836 236.13 293.308C236.394 293.78 236.526 294.336 236.526 294.976C236.526 295.616 236.394 296.172 236.13 296.644C235.874 297.116 235.518 297.484 235.062 297.748C234.606 298.012 234.09 298.144 233.514 298.144ZM233.514 297.112C233.842 297.112 234.138 297.032 234.402 296.872C234.674 296.712 234.89 296.476 235.05 296.164C235.218 295.844 235.302 295.448 235.302 294.976C235.302 294.504 235.222 294.112 235.062 293.8C234.902 293.48 234.686 293.24 234.414 293.08C234.15 292.92 233.858 292.84 233.538 292.84C233.218 292.84 232.922 292.92 232.65 293.08C232.378 293.24 232.158 293.48 231.99 293.8C231.83 294.112 231.75 294.504 231.75 294.976C231.75 295.448 231.83 295.844 231.99 296.164C232.158 296.476 232.374 296.712 232.638 296.872C232.91 297.032 233.202 297.112 233.514 297.112ZM240.092 300.784C239.54 300.784 239.052 300.712 238.628 300.568C238.204 300.432 237.876 300.22 237.644 299.932C237.412 299.644 237.296 299.292 237.296 298.876C237.296 298.66 237.344 298.44 237.44 298.216C237.536 298 237.692 297.792 237.908 297.592C238.124 297.392 238.416 297.212 238.784 297.052L239.456 297.592C239.048 297.744 238.772 297.924 238.628 298.132C238.492 298.348 238.424 298.556 238.424 298.756C238.424 298.996 238.496 299.196 238.64 299.356C238.784 299.516 238.98 299.636 239.228 299.716C239.484 299.796 239.772 299.836 240.092 299.836C240.404 299.836 240.676 299.792 240.908 299.704C241.14 299.616 241.32 299.492 241.448 299.332C241.576 299.172 241.64 298.984 241.64 298.768C241.64 298.512 241.544 298.296 241.352 298.12C241.16 297.952 240.792 297.852 240.248 297.82C239.792 297.788 239.404 297.744 239.084 297.688C238.772 297.632 238.504 297.564 238.28 297.484C238.064 297.404 237.88 297.316 237.728 297.22C237.584 297.124 237.46 297.024 237.356 296.92V296.644L238.556 295.408L239.528 295.744L238.22 296.956L238.472 296.416C238.56 296.472 238.644 296.528 238.724 296.584C238.804 296.632 238.912 296.676 239.048 296.716C239.184 296.756 239.368 296.792 239.6 296.824C239.832 296.856 240.136 296.888 240.512 296.92C241.056 296.96 241.492 297.056 241.82 297.208C242.156 297.36 242.4 297.564 242.552 297.82C242.704 298.076 242.78 298.38 242.78 298.732C242.78 299.076 242.684 299.404 242.492 299.716C242.308 300.028 242.016 300.284 241.616 300.484C241.224 300.684 240.716 300.784 240.092 300.784ZM240.092 296.14C239.58 296.14 239.144 296.044 238.784 295.852C238.432 295.66 238.16 295.4 237.968 295.072C237.784 294.744 237.692 294.38 237.692 293.98C237.692 293.572 237.784 293.208 237.968 292.888C238.16 292.56 238.436 292.3 238.796 292.108C239.156 291.908 239.588 291.808 240.092 291.808C240.596 291.808 241.024 291.908 241.376 292.108C241.736 292.3 242.008 292.56 242.192 292.888C242.384 293.208 242.48 293.572 242.48 293.98C242.48 294.38 242.384 294.744 242.192 295.072C242.008 295.4 241.736 295.66 241.376 295.852C241.024 296.044 240.596 296.14 240.092 296.14ZM240.092 295.18C240.484 295.18 240.796 295.08 241.028 294.88C241.26 294.672 241.376 294.372 241.376 293.98C241.376 293.588 241.26 293.292 241.028 293.092C240.796 292.884 240.484 292.78 240.092 292.78C239.7 292.78 239.384 292.884 239.144 293.092C238.904 293.292 238.784 293.588 238.784 293.98C238.784 294.372 238.904 294.672 239.144 294.88C239.384 295.08 239.7 295.18 240.092 295.18ZM241.076 292.9L240.788 291.952H243.272V292.78L241.076 292.9ZM247.002 298.144C246.434 298.144 245.922 298.012 245.466 297.748C245.018 297.484 244.662 297.116 244.398 296.644C244.142 296.164 244.014 295.612 244.014 294.988C244.014 294.348 244.146 293.792 244.41 293.32C244.674 292.84 245.034 292.468 245.49 292.204C245.946 291.94 246.458 291.808 247.026 291.808C247.602 291.808 248.114 291.94 248.562 292.204C249.01 292.468 249.362 292.836 249.618 293.308C249.882 293.78 250.014 294.336 250.014 294.976C250.014 295.616 249.882 296.172 249.618 296.644C249.362 297.116 249.006 297.484 248.55 297.748C248.094 298.012 247.578 298.144 247.002 298.144ZM247.002 297.112C247.33 297.112 247.626 297.032 247.89 296.872C248.162 296.712 248.378 296.476 248.538 296.164C248.706 295.844 248.79 295.448 248.79 294.976C248.79 294.504 248.71 294.112 248.55 293.8C248.39 293.48 248.174 293.24 247.902 293.08C247.638 292.92 247.346 292.84 247.026 292.84C246.706 292.84 246.41 292.92 246.138 293.08C245.866 293.24 245.646 293.48 245.478 293.8C245.318 294.112 245.238 294.504 245.238 294.976C245.238 295.448 245.318 295.844 245.478 296.164C245.646 296.476 245.862 296.712 246.126 296.872C246.398 297.032 246.69 297.112 247.002 297.112ZM257.184 298.144C256.608 298.144 256.1 298.008 255.66 297.736C255.22 297.456 254.876 297.08 254.628 296.608C254.388 296.128 254.268 295.584 254.268 294.976C254.268 294.36 254.388 293.816 254.628 293.344C254.876 292.872 255.22 292.5 255.66 292.228C256.108 291.948 256.62 291.808 257.196 291.808C257.668 291.808 258.084 291.904 258.444 292.096C258.804 292.28 259.084 292.544 259.284 292.888V289.36H260.484V298H259.404L259.284 297.064C259.164 297.248 259.008 297.424 258.816 297.592C258.624 297.752 258.392 297.884 258.12 297.988C257.848 298.092 257.536 298.144 257.184 298.144ZM257.376 297.1C257.752 297.1 258.084 297.012 258.372 296.836C258.66 296.66 258.88 296.412 259.032 296.092C259.192 295.772 259.272 295.4 259.272 294.976C259.272 294.552 259.192 294.184 259.032 293.872C258.88 293.552 258.66 293.304 258.372 293.128C258.084 292.944 257.752 292.852 257.376 292.852C257.016 292.852 256.692 292.944 256.404 293.128C256.116 293.304 255.892 293.552 255.732 293.872C255.572 294.184 255.492 294.552 255.492 294.976C255.492 295.4 255.572 295.772 255.732 296.092C255.892 296.412 256.116 296.66 256.404 296.836C256.692 297.012 257.016 297.1 257.376 297.1ZM264.861 298.144C264.285 298.144 263.773 298.012 263.325 297.748C262.877 297.484 262.525 297.116 262.269 296.644C262.021 296.172 261.897 295.624 261.897 295C261.897 294.36 262.021 293.804 262.269 293.332C262.525 292.852 262.877 292.48 263.325 292.216C263.773 291.944 264.293 291.808 264.885 291.808C265.477 291.808 265.985 291.94 266.409 292.204C266.833 292.468 267.161 292.82 267.393 293.26C267.625 293.692 267.741 294.172 267.741 294.7C267.741 294.78 267.737 294.868 267.729 294.964C267.729 295.052 267.725 295.152 267.717 295.264H262.773V294.412H266.541C266.517 293.908 266.349 293.516 266.037 293.236C265.725 292.948 265.337 292.804 264.873 292.804C264.545 292.804 264.245 292.88 263.973 293.032C263.701 293.176 263.481 293.392 263.313 293.68C263.153 293.96 263.073 294.316 263.073 294.748V295.084C263.073 295.532 263.153 295.912 263.313 296.224C263.481 296.528 263.701 296.76 263.973 296.92C264.245 297.072 264.541 297.148 264.861 297.148C265.245 297.148 265.561 297.064 265.809 296.896C266.057 296.728 266.241 296.5 266.361 296.212H267.561C267.457 296.58 267.281 296.912 267.033 297.208C266.785 297.496 266.477 297.724 266.109 297.892C265.749 298.06 265.333 298.144 264.861 298.144ZM272.144 300.64V291.952H273.224L273.344 292.888C273.472 292.704 273.632 292.532 273.824 292.372C274.016 292.204 274.244 292.068 274.508 291.964C274.78 291.86 275.096 291.808 275.456 291.808C276.032 291.808 276.536 291.948 276.968 292.228C277.408 292.508 277.748 292.888 277.988 293.368C278.236 293.84 278.36 294.38 278.36 294.988C278.36 295.596 278.236 296.14 277.988 296.62C277.74 297.092 277.396 297.464 276.956 297.736C276.524 298.008 276.02 298.144 275.444 298.144C274.972 298.144 274.556 298.052 274.196 297.868C273.836 297.676 273.552 297.412 273.344 297.076V300.64H272.144ZM275.252 297.1C275.62 297.1 275.944 297.012 276.224 296.836C276.512 296.66 276.736 296.412 276.896 296.092C277.064 295.772 277.148 295.4 277.148 294.976C277.148 294.552 277.064 294.184 276.896 293.872C276.736 293.552 276.512 293.304 276.224 293.128C275.944 292.944 275.62 292.852 275.252 292.852C274.876 292.852 274.544 292.944 274.256 293.128C273.976 293.304 273.756 293.552 273.596 293.872C273.436 294.184 273.356 294.552 273.356 294.976C273.356 295.4 273.436 295.772 273.596 296.092C273.756 296.412 273.976 296.66 274.256 296.836C274.544 297.012 274.876 297.1 275.252 297.1ZM279.761 298V291.952H280.841L280.949 293.092C281.085 292.82 281.261 292.592 281.477 292.408C281.693 292.216 281.945 292.068 282.233 291.964C282.529 291.86 282.865 291.808 283.241 291.808V293.08H282.809C282.561 293.08 282.325 293.112 282.101 293.176C281.877 293.232 281.677 293.332 281.501 293.476C281.333 293.62 281.201 293.816 281.105 294.064C281.009 294.312 280.961 294.62 280.961 294.988V298H279.761ZM286.928 298.144C286.36 298.144 285.848 298.012 285.392 297.748C284.944 297.484 284.588 297.116 284.324 296.644C284.068 296.164 283.94 295.612 283.94 294.988C283.94 294.348 284.072 293.792 284.336 293.32C284.6 292.84 284.96 292.468 285.416 292.204C285.872 291.94 286.384 291.808 286.952 291.808C287.528 291.808 288.04 291.94 288.488 292.204C288.936 292.468 289.288 292.836 289.544 293.308C289.808 293.78 289.94 294.336 289.94 294.976C289.94 295.616 289.808 296.172 289.544 296.644C289.288 297.116 288.932 297.484 288.476 297.748C288.02 298.012 287.504 298.144 286.928 298.144ZM286.928 297.112C287.256 297.112 287.552 297.032 287.816 296.872C288.088 296.712 288.304 296.476 288.464 296.164C288.632 295.844 288.716 295.448 288.716 294.976C288.716 294.504 288.636 294.112 288.476 293.8C288.316 293.48 288.1 293.24 287.828 293.08C287.564 292.92 287.272 292.84 286.952 292.84C286.632 292.84 286.336 292.92 286.064 293.08C285.792 293.24 285.572 293.48 285.404 293.8C285.244 294.112 285.164 294.504 285.164 294.976C285.164 295.448 285.244 295.844 285.404 296.164C285.572 296.476 285.788 296.712 286.052 296.872C286.324 297.032 286.616 297.112 286.928 297.112ZM294.039 298.144C293.463 298.144 292.955 298.008 292.515 297.736C292.075 297.456 291.731 297.08 291.483 296.608C291.243 296.128 291.123 295.584 291.123 294.976C291.123 294.36 291.243 293.816 291.483 293.344C291.731 292.872 292.075 292.5 292.515 292.228C292.963 291.948 293.475 291.808 294.051 291.808C294.523 291.808 294.939 291.904 295.299 292.096C295.659 292.28 295.939 292.544 296.139 292.888V289.36H297.339V298H296.259L296.139 297.064C296.019 297.248 295.863 297.424 295.671 297.592C295.479 297.752 295.247 297.884 294.975 297.988C294.703 298.092 294.391 298.144 294.039 298.144ZM294.231 297.1C294.607 297.1 294.939 297.012 295.227 296.836C295.515 296.66 295.735 296.412 295.887 296.092C296.047 295.772 296.127 295.4 296.127 294.976C296.127 294.552 296.047 294.184 295.887 293.872C295.735 293.552 295.515 293.304 295.227 293.128C294.939 292.944 294.607 292.852 294.231 292.852C293.871 292.852 293.547 292.944 293.259 293.128C292.971 293.304 292.747 293.552 292.587 293.872C292.427 294.184 292.347 294.552 292.347 294.976C292.347 295.4 292.427 295.772 292.587 296.092C292.747 296.412 292.971 296.66 293.259 296.836C293.547 297.012 293.871 297.1 294.231 297.1ZM301.2 298.144C300.728 298.144 300.316 298.048 299.964 297.856C299.62 297.664 299.352 297.376 299.16 296.992C298.976 296.608 298.884 296.124 298.884 295.54V291.952H300.084V295.408C300.084 295.976 300.208 296.404 300.456 296.692C300.704 296.98 301.06 297.124 301.524 297.124C301.836 297.124 302.116 297.048 302.364 296.896C302.62 296.744 302.82 296.524 302.964 296.236C303.108 295.948 303.18 295.596 303.18 295.18V291.952H304.38V298H303.312L303.228 296.968C303.044 297.336 302.776 297.624 302.424 297.832C302.072 298.04 301.664 298.144 301.2 298.144ZM308.819 298.144C308.235 298.144 307.715 298.012 307.259 297.748C306.803 297.476 306.443 297.104 306.179 296.632C305.923 296.16 305.795 295.612 305.795 294.988C305.795 294.356 305.923 293.804 306.179 293.332C306.443 292.852 306.803 292.48 307.259 292.216C307.715 291.944 308.235 291.808 308.819 291.808C309.555 291.808 310.171 292 310.667 292.384C311.163 292.768 311.479 293.288 311.615 293.944H310.367C310.287 293.592 310.103 293.32 309.815 293.128C309.535 292.936 309.199 292.84 308.807 292.84C308.487 292.84 308.191 292.924 307.919 293.092C307.647 293.252 307.427 293.492 307.259 293.812C307.099 294.124 307.019 294.512 307.019 294.976C307.019 295.32 307.067 295.628 307.163 295.9C307.259 296.164 307.387 296.388 307.547 296.572C307.715 296.756 307.907 296.896 308.123 296.992C308.339 297.08 308.567 297.124 308.807 297.124C309.071 297.124 309.307 297.084 309.515 297.004C309.731 296.916 309.911 296.788 310.055 296.62C310.207 296.452 310.311 296.252 310.367 296.02H311.615C311.479 296.66 311.163 297.176 310.667 297.568C310.171 297.952 309.555 298.144 308.819 298.144ZM315.386 298C315.002 298 314.67 297.94 314.39 297.82C314.11 297.7 313.894 297.5 313.742 297.22C313.59 296.94 313.514 296.56 313.514 296.08V292.972H312.47V291.952H313.514L313.658 290.44H314.714V291.952H316.43V292.972H314.714V296.092C314.714 296.436 314.786 296.672 314.93 296.8C315.074 296.92 315.322 296.98 315.674 296.98H316.37V298H315.386ZM320.349 298.144C319.781 298.144 319.269 298.012 318.813 297.748C318.365 297.484 318.009 297.116 317.745 296.644C317.489 296.164 317.361 295.612 317.361 294.988C317.361 294.348 317.493 293.792 317.757 293.32C318.021 292.84 318.381 292.468 318.837 292.204C319.293 291.94 319.805 291.808 320.373 291.808C320.949 291.808 321.461 291.94 321.909 292.204C322.357 292.468 322.709 292.836 322.965 293.308C323.229 293.78 323.361 294.336 323.361 294.976C323.361 295.616 323.229 296.172 322.965 296.644C322.709 297.116 322.353 297.484 321.897 297.748C321.441 298.012 320.925 298.144 320.349 298.144ZM320.349 297.112C320.677 297.112 320.973 297.032 321.237 296.872C321.509 296.712 321.725 296.476 321.885 296.164C322.053 295.844 322.137 295.448 322.137 294.976C322.137 294.504 322.057 294.112 321.897 293.8C321.737 293.48 321.521 293.24 321.249 293.08C320.985 292.92 320.693 292.84 320.373 292.84C320.053 292.84 319.757 292.92 319.485 293.08C319.213 293.24 318.993 293.48 318.825 293.8C318.665 294.112 318.585 294.504 318.585 294.976C318.585 295.448 318.665 295.844 318.825 296.164C318.993 296.476 319.209 296.712 319.473 296.872C319.745 297.032 320.037 297.112 320.349 297.112ZM327.113 298.144C326.601 298.144 326.153 298.06 325.769 297.892C325.385 297.724 325.081 297.488 324.857 297.184C324.633 296.88 324.497 296.524 324.449 296.116H325.673C325.713 296.308 325.789 296.484 325.901 296.644C326.021 296.804 326.181 296.932 326.381 297.028C326.589 297.124 326.833 297.172 327.113 297.172C327.377 297.172 327.593 297.136 327.761 297.064C327.937 296.984 328.065 296.88 328.145 296.752C328.225 296.616 328.265 296.472 328.265 296.32C328.265 296.096 328.209 295.928 328.097 295.816C327.993 295.696 327.833 295.604 327.617 295.54C327.409 295.468 327.157 295.404 326.861 295.348C326.581 295.3 326.309 295.236 326.045 295.156C325.789 295.068 325.557 294.96 325.349 294.832C325.149 294.704 324.989 294.544 324.869 294.352C324.749 294.152 324.689 293.908 324.689 293.62C324.689 293.276 324.781 292.968 324.965 292.696C325.149 292.416 325.409 292.2 325.745 292.048C326.089 291.888 326.493 291.808 326.957 291.808C327.629 291.808 328.169 291.968 328.577 292.288C328.985 292.608 329.225 293.06 329.297 293.644H328.133C328.101 293.372 327.981 293.164 327.773 293.02C327.565 292.868 327.289 292.792 326.945 292.792C326.601 292.792 326.337 292.86 326.153 292.996C325.969 293.132 325.877 293.312 325.877 293.536C325.877 293.68 325.929 293.808 326.033 293.92C326.137 294.032 326.289 294.128 326.489 294.208C326.697 294.28 326.949 294.348 327.245 294.412C327.669 294.492 328.049 294.592 328.385 294.712C328.721 294.832 328.989 295.008 329.189 295.24C329.389 295.472 329.489 295.804 329.489 296.236C329.497 296.612 329.401 296.944 329.201 297.232C329.009 297.52 328.733 297.744 328.373 297.904C328.021 298.064 327.601 298.144 327.113 298.144Z" fill="black"/>
<defs>
<filter id="filter0_d_1992_6248" x="100" y="0" width="343" height="466" filterUnits="userSpaceOnUse" color-interpolation-filters="sRGB">
<feFlood flood-opacity="0" result="BackgroundImageFix"/>
<feColorMatrix in="SourceAlpha" type="matrix" values="0 0 0 0 0 0 0 0 0 0 0 0 0 0 0 0 0 0 127 0" result="hardAlpha"/>
<feMorphology radius="1" operator="dilate" in="SourceAlpha" result="effect1_dropShadow_1992_6248"/>
<feOffset dy="4"/>
<feGaussianBlur stdDeviation="12.5"/>
<feComposite in2="hardAlpha" operator="out"/>
<feColorMatrix type="matrix" values="0 0 0 0 0 0 0 0 0 0 0 0 0 0 0 0 0 0 0.11 0"/>
<feBlend mode="normal" in2="BackgroundImageFix" result="effect1_dropShadow_1992_6248"/>
<feBlend mode="normal" in="SourceGraphic" in2="effect1_dropShadow_1992_6248" result="shape"/>
</filter>
<filter id="filter1_if_1992_6248" x="123.592" y="43.4307" width="130.864" height="251.711" filterUnits="userSpaceOnUse" color-interpolation-filters="sRGB">
<feFlood flood-opacity="0" result="BackgroundImageFix"/>
<feBlend mode="normal" in="SourceGraphic" in2="BackgroundImageFix" result="shape"/>
<feColorMatrix in="SourceAlpha" type="matrix" values="0 0 0 0 0 0 0 0 0 0 0 0 0 0 0 0 0 0 127 0" result="hardAlpha"/>
<feOffset dy="4"/>
<feGaussianBlur stdDeviation="2"/>
<feComposite in2="hardAlpha" operator="arithmetic" k2="-1" k3="1"/>
<feColorMatrix type="matrix" values="0 0 0 0 0 0 0 0 0 0 0 0 0 0 0 0 0 0 0.25 0"/>
<feBlend mode="normal" in2="shape" result="effect1_innerShadow_1992_6248"/>
<feGaussianBlur stdDeviation="1" result="effect2_foregroundBlur_1992_6248"/>
</filter>
<filter id="filter2_if_1992_6248" x="314.379" y="186.39" width="109.204" height="200.768" filterUnits="userSpaceOnUse" color-interpolation-filters="sRGB">
<feFlood flood-opacity="0" result="BackgroundImageFix"/>
<feBlend mode="normal" in="SourceGraphic" in2="BackgroundImageFix" result="shape"/>
<feColorMatrix in="SourceAlpha" type="matrix" values="0 0 0 0 0 0 0 0 0 0 0 0 0 0 0 0 0 0 127 0" result="hardAlpha"/>
<feOffset dy="4"/>
<feGaussianBlur stdDeviation="2"/>
<feComposite in2="hardAlpha" operator="arithmetic" k2="-1" k3="1"/>
<feColorMatrix type="matrix" values="0 0 0 0 0 0 0 0 0 0 0 0 0 0 0 0 0 0 0.25 0"/>
<feBlend mode="normal" in2="shape" result="effect1_innerShadow_1992_6248"/>
<feGaussianBlur stdDeviation="2.5" result="effect2_foregroundBlur_1992_6248"/>
</filter>
<filter id="filter4_d_1992_6248" x="231" y="81" width="81" height="81" filterUnits="userSpaceOnUse" color-interpolation-filters="sRGB">
<feFlood flood-opacity="0" result="BackgroundImageFix"/>
<feColorMatrix in="SourceAlpha" type="matrix" values="0 0 0 0 0 0 0 0 0 0 0 0 0 0 0 0 0 0 127 0" result="hardAlpha"/>
<feOffset dy="4"/>
<feGaussianBlur stdDeviation="2"/>
<feComposite in2="hardAlpha" operator="out"/>
<feColorMatrix type="matrix" values="0 0 0 0 0 0 0 0 0 0 0 0 0 0 0 0 0 0 0.13 0"/>
<feBlend mode="normal" in2="BackgroundImageFix" result="effect1_dropShadow_1992_6248"/>
<feBlend mode="normal" in="SourceGraphic" in2="effect1_dropShadow_1992_6248" result="shape"/>
</filter>
<linearGradient id="paint0_linear_1992_6248" x1="444" y1="82.5" x2="184" y2="394" gradientUnits="userSpaceOnUse">
<stop stop-color="#D2FEFF"/>
<stop offset="0.846154" stop-color="white"/>
</linearGradient>
<linearGradient id="paint1_linear_1992_6248" x1="316.333" y1="92.7053" x2="186.435" y2="384.997" gradientUnits="userSpaceOnUse">
<stop stop-color="#B3FDFF"/>
<stop offset="0.642207" stop-color="#7FDEDD"/>
</linearGradient>
</defs>
</svg>
