<svg width="199" height="56" viewBox="0 0 199 56" fill="none" xmlns="http://www.w3.org/2000/svg">
<g filter="url(#filter0_d_1992_6230)">
<rect x="4" y="2" width="191" height="48" rx="24" fill="url(#paint0_linear_1992_6230)"/>
</g>
<path d="M38.0379 34V17.9H48.2039V19.786H40.3379V24.938H47.5139V26.778H40.3379V32.114H48.2039V34H38.0379ZM49.9585 34L53.9605 28.204L49.9585 22.408H52.4425L55.4785 26.916L58.5375 22.408H60.9985L56.9965 28.204L60.9985 34H58.5375L55.4785 29.469L52.4425 34H49.9585ZM63.0118 39.06V22.408H65.0818L65.3118 24.202C65.5571 23.8493 65.8638 23.5197 66.2318 23.213C66.5998 22.891 67.0368 22.6303 67.5428 22.431C68.0641 22.2317 68.6698 22.132 69.3598 22.132C70.4638 22.132 71.4298 22.4003 72.2578 22.937C73.1011 23.4737 73.7528 24.202 74.2128 25.122C74.6881 26.0267 74.9258 27.0617 74.9258 28.227C74.9258 29.3923 74.6881 30.435 74.2128 31.355C73.7374 32.2597 73.0781 32.9727 72.2348 33.494C71.4068 34.0153 70.4408 34.276 69.3368 34.276C68.4321 34.276 67.6348 34.0997 66.9448 33.747C66.2548 33.379 65.7104 32.873 65.3118 32.229V39.06H63.0118ZM68.9688 32.275C69.6741 32.275 70.2951 32.1063 70.8318 31.769C71.3838 31.4317 71.8131 30.9563 72.1198 30.343C72.4418 29.7297 72.6028 29.0167 72.6028 28.204C72.6028 27.3913 72.4418 26.686 72.1198 26.088C71.8131 25.4747 71.3838 24.9993 70.8318 24.662C70.2951 24.3093 69.6741 24.133 68.9688 24.133C68.2481 24.133 67.6118 24.3093 67.0598 24.662C66.5231 24.9993 66.1014 25.4747 65.7948 26.088C65.4881 26.686 65.3348 27.3913 65.3348 28.204C65.3348 29.0167 65.4881 29.7297 65.7948 30.343C66.1014 30.9563 66.5231 31.4317 67.0598 31.769C67.6118 32.1063 68.2481 32.275 68.9688 32.275ZM77.6114 34V17.44H79.9114V34H77.6114ZM88.3594 34.276C87.2707 34.276 86.2894 34.023 85.4154 33.517C84.5567 33.011 83.8744 32.3057 83.3684 31.401C82.8777 30.481 82.6324 29.423 82.6324 28.227C82.6324 27.0003 82.8854 25.9347 83.3914 25.03C83.8974 24.11 84.5874 23.397 85.4614 22.891C86.3354 22.385 87.3167 22.132 88.4054 22.132C89.5094 22.132 90.4907 22.385 91.3494 22.891C92.208 23.397 92.8827 24.1023 93.3734 25.007C93.8794 25.9117 94.1324 26.9773 94.1324 28.204C94.1324 29.4307 93.8794 30.4963 93.3734 31.401C92.8827 32.3057 92.2004 33.011 91.3264 33.517C90.4524 34.023 89.4634 34.276 88.3594 34.276ZM88.3594 32.298C88.988 32.298 89.5554 32.1447 90.0614 31.838C90.5827 31.5313 90.9967 31.079 91.3034 30.481C91.6254 29.8677 91.7864 29.1087 91.7864 28.204C91.7864 27.2993 91.633 26.548 91.3264 25.95C91.0197 25.3367 90.6057 24.8767 90.0844 24.57C89.5784 24.2633 89.0187 24.11 88.4054 24.11C87.792 24.11 87.2247 24.2633 86.7034 24.57C86.182 24.8767 85.7604 25.3367 85.4384 25.95C85.1317 26.548 84.9784 27.2993 84.9784 28.204C84.9784 29.1087 85.1317 29.8677 85.4384 30.481C85.7604 31.079 86.1744 31.5313 86.6804 31.838C87.2017 32.1447 87.7614 32.298 88.3594 32.298ZM96.8379 34V22.408H98.9079L99.1149 24.593C99.3756 24.0717 99.7129 23.6347 100.127 23.282C100.541 22.914 101.024 22.6303 101.576 22.431C102.143 22.2317 102.787 22.132 103.508 22.132V24.57H102.68C102.205 24.57 101.752 24.6313 101.323 24.754C100.894 24.8613 100.51 25.053 100.173 25.329C99.8509 25.605 99.5979 25.9807 99.4139 26.456C99.2299 26.9313 99.1379 27.5217 99.1379 28.227V34H96.8379ZM109.461 34.276C108.51 34.276 107.721 34.115 107.092 33.793C106.463 33.471 105.996 33.0417 105.689 32.505C105.382 31.953 105.229 31.3627 105.229 30.734C105.229 29.9673 105.428 29.3157 105.827 28.779C106.226 28.227 106.793 27.8053 107.529 27.514C108.265 27.2227 109.147 27.077 110.174 27.077H113.187C113.187 26.4023 113.087 25.8427 112.888 25.398C112.689 24.9533 112.39 24.6237 111.991 24.409C111.608 24.179 111.117 24.064 110.519 24.064C109.829 24.064 109.239 24.2327 108.748 24.57C108.257 24.892 107.951 25.375 107.828 26.019H105.528C105.62 25.2063 105.896 24.5163 106.356 23.949C106.831 23.3663 107.437 22.9217 108.173 22.615C108.909 22.293 109.691 22.132 110.519 22.132C111.608 22.132 112.52 22.3237 113.256 22.707C113.992 23.0903 114.544 23.6347 114.912 24.34C115.295 25.03 115.487 25.858 115.487 26.824V34H113.486L113.302 32.045C113.133 32.3517 112.934 32.643 112.704 32.919C112.474 33.195 112.198 33.4327 111.876 33.632C111.569 33.8313 111.209 33.9847 110.795 34.092C110.396 34.2147 109.952 34.276 109.461 34.276ZM109.898 32.413C110.389 32.413 110.833 32.3133 111.232 32.114C111.631 31.9147 111.968 31.6463 112.244 31.309C112.535 30.9563 112.75 30.5653 112.888 30.136C113.041 29.6913 113.126 29.239 113.141 28.779V28.71H110.404C109.745 28.71 109.208 28.7943 108.794 28.963C108.395 29.1163 108.104 29.331 107.92 29.607C107.736 29.883 107.644 30.205 107.644 30.573C107.644 30.9563 107.728 31.286 107.897 31.562C108.081 31.8227 108.342 32.0297 108.679 32.183C109.016 32.3363 109.423 32.413 109.898 32.413ZM118.423 34V22.408H120.493L120.7 24.593C120.961 24.0717 121.298 23.6347 121.712 23.282C122.126 22.914 122.609 22.6303 123.161 22.431C123.728 22.2317 124.372 22.132 125.093 22.132V24.57H124.265C123.79 24.57 123.337 24.6313 122.908 24.754C122.479 24.8613 122.095 25.053 121.758 25.329C121.436 25.605 121.183 25.9807 120.999 26.456C120.815 26.9313 120.723 27.5217 120.723 28.227V34H118.423Z" fill="white"/>
<path d="M149.427 13C149.468 13 149.555 13.0213 149.601 13.026C152.629 13.329 154.716 16.5941 153.876 19.8204C153.552 19.4734 153.149 19.283 152.702 19.2603C153.056 17.5526 152.351 15.8413 151.031 14.9653C149.655 14.053 147.897 14.2459 146.714 15.3963C145.525 16.5526 145.154 18.3967 145.798 20.0072L145.797 22.3215C144.681 21.2083 144.127 19.6277 144.224 18.0186C144.383 15.3882 146.287 13.2574 148.689 13.0249C148.748 13.0193 148.796 13.0193 148.838 13H149.427H149.427Z" fill="white"/>
<path d="M161.966 33.2179C161.798 36.8498 160.771 39.3606 157.291 40.1694C156.127 40.4399 154.924 40.4771 153.74 40.4312C152.953 40.4004 152.196 40.3058 151.43 40.1005C150.497 39.8504 149.668 39.3783 148.924 38.7255C148.757 38.5787 148.589 38.4768 148.431 38.3051L144.646 34.1905L141.642 30.923C140.562 29.7474 140.956 27.8433 141.999 26.8906C142.854 26.1093 144.426 26.1368 145.163 26.9304L146.745 28.6325V18.4379C146.745 17.5163 147.171 16.6882 147.855 16.2071C148.566 15.7075 149.475 15.6366 150.235 16.0598C151.002 16.4865 151.505 17.3367 151.51 18.2782L151.523 21.082C152.901 20.3164 154.393 21.0213 154.882 22.5528C155.59 22.0927 156.426 22.0185 157.151 22.3898C157.746 22.6945 158.167 23.2479 158.391 23.9398C159.311 23.2832 160.623 23.4358 161.356 24.3269C161.705 24.7514 161.988 25.3146 161.989 25.9178L162 32.3739C162.001 32.669 161.979 32.9311 161.966 33.2179ZM159.866 25.1185C159.51 25.0485 159.17 25.1261 158.899 25.3809C158.67 25.5969 158.511 25.9332 158.511 26.304L158.515 29.0867C158.516 29.5362 158.3 29.9218 157.867 29.9109C157.451 29.9003 157.241 29.5225 157.242 29.0867L157.244 24.9889C157.244 24.2829 156.625 23.8287 156.081 23.8242C155.538 23.8197 155.03 24.3112 155.025 24.9435L155.002 28.4583C155 28.8747 154.609 29.1318 154.27 29.071C153.884 29.0022 153.735 28.658 153.735 28.2441V23.589C153.735 23.2767 153.629 22.9748 153.423 22.7715C153.072 22.4265 152.553 22.3234 152.125 22.5595C151.81 22.7331 151.539 23.098 151.538 23.5075L151.53 27.132C151.529 27.5734 151.329 27.9526 150.915 27.9713C150.479 27.9915 150.242 27.6221 150.242 27.1654L150.233 18.5322C150.233 17.9607 149.775 17.5104 149.307 17.4552C148.62 17.3743 148.028 17.9422 148.027 18.6902L148.026 31.9793L144.474 28.1337C144.178 27.8137 143.7 27.8016 143.302 27.9178C142.958 28.0181 142.658 28.313 142.489 28.7162C142.308 29.1464 142.336 29.7006 142.666 30.0596L146.435 34.165L149.139 37.1094C150.278 38.3499 151.68 38.854 153.258 38.9991C154.004 39.0677 154.732 39.0727 155.48 39.0276C156.491 38.9669 157.555 38.7725 158.465 38.283C159.372 37.7955 160.024 36.9579 160.336 35.9063C160.511 35.3174 160.607 34.7251 160.656 34.1034C160.685 33.7321 160.712 33.3705 160.715 32.9953L160.725 31.5903L160.727 26.281C160.727 25.687 160.407 25.2252 159.865 25.1188L159.866 25.1185Z" fill="white"/>
<defs>
<filter id="filter0_d_1992_6230" x="0" y="0" width="199" height="56" filterUnits="userSpaceOnUse" color-interpolation-filters="sRGB">
<feFlood flood-opacity="0" result="BackgroundImageFix"/>
<feColorMatrix in="SourceAlpha" type="matrix" values="0 0 0 0 0 0 0 0 0 0 0 0 0 0 0 0 0 0 127 0" result="hardAlpha"/>
<feOffset dy="2"/>
<feGaussianBlur stdDeviation="2"/>
<feComposite in2="hardAlpha" operator="out"/>
<feColorMatrix type="matrix" values="0 0 0 0 0.498039 0 0 0 0 0.870588 0 0 0 0 0.85098 0 0 0 1 0"/>
<feBlend mode="normal" in2="BackgroundImageFix" result="effect1_dropShadow_1992_6230"/>
<feBlend mode="normal" in="SourceGraphic" in2="effect1_dropShadow_1992_6230" result="shape"/>
</filter>
<linearGradient id="paint0_linear_1992_6230" x1="4" y1="26" x2="195" y2="26" gradientUnits="userSpaceOnUse">
<stop stop-color="#3DBDB8"/>
<stop offset="1" stop-color="#7FDED9"/>
</linearGradient>
</defs>
</svg>
