<svg width="245" height="113" viewBox="0 0 245 113" fill="none" xmlns="http://www.w3.org/2000/svg">
<g filter="url(#filter0_f_2029_6383)">
<ellipse cx="26" cy="25.5" rx="22" ry="21.5" fill="#7FDED9" fill-opacity="0.2"/>
</g>
<circle cx="25.5" cy="25.5" r="18.25" fill="#BBEEEC" stroke="#7FDED9" stroke-width="0.5"/>
<g clip-path="url(#clip0_2029_6383)">
<path d="M31.5085 32L18.6289 31.9936C17.6793 31.9936 17.0015 31.176 17.0008 30.2096L17 21.7896C17 20.8328 17.6771 20 18.6282 20L31.467 20.0048C32.2459 20.0048 32.9992 20.756 32.9992 21.5856V30.408C32.9992 31.268 32.3312 31.8304 31.5085 31.9992V32ZM30.3083 21.4608L19.6706 21.4528L24.9966 25.9496L30.3083 21.4608ZM31.6896 22.1296L25.4948 27.3216C25.2344 27.4248 24.8313 27.4528 24.5845 27.3776L18.3413 22.1304L18.3217 30.6048L31.6632 30.6128L31.6896 22.1296Z" fill="#00BABB"/>
</g>
<path d="M64.173 32V20.1H71.993V21.953H66.468V25.064H71.483V26.849H66.468V30.147H71.993V32H64.173ZM74.0501 27.954V26.033H81.2241V27.954H74.0501ZM83.4881 32V23.432H85.5111L85.6981 24.571C85.9701 24.163 86.3271 23.84 86.7691 23.602C87.2224 23.3527 87.7381 23.228 88.3161 23.228C88.7467 23.228 89.1321 23.2847 89.4721 23.398C89.8121 23.5113 90.1124 23.6757 90.3731 23.891C90.6451 24.1063 90.8661 24.3783 91.0361 24.707C91.3534 24.2423 91.7671 23.8797 92.2771 23.619C92.7871 23.3583 93.3424 23.228 93.9431 23.228C94.6911 23.228 95.3144 23.381 95.8131 23.687C96.3117 23.9817 96.6857 24.4123 96.9351 24.979C97.1957 25.5457 97.3261 26.2427 97.3261 27.07V32H95.0481V27.274C95.0481 26.594 94.9121 26.0727 94.6401 25.71C94.3794 25.3473 93.9714 25.166 93.4161 25.166C93.0534 25.166 92.7304 25.2567 92.4471 25.438C92.1637 25.6193 91.9427 25.88 91.7841 26.22C91.6367 26.56 91.5631 26.968 91.5631 27.444V32H89.2681V27.274C89.2681 26.594 89.1321 26.0727 88.8601 25.71C88.5881 25.3473 88.1687 25.166 87.6021 25.166C87.2507 25.166 86.9334 25.2567 86.6501 25.438C86.3781 25.6193 86.1627 25.88 86.0041 26.22C85.8567 26.56 85.7831 26.968 85.7831 27.444V32H83.4881ZM102.212 32.204C101.498 32.204 100.909 32.0907 100.444 31.864C99.9793 31.626 99.6336 31.3143 99.407 30.929C99.1916 30.5323 99.084 30.096 99.084 29.62C99.084 29.0987 99.2143 28.6397 99.475 28.243C99.747 27.8463 100.149 27.5347 100.682 27.308C101.226 27.0813 101.906 26.968 102.722 26.968H104.847C104.847 26.5487 104.79 26.203 104.677 25.931C104.564 25.6477 104.388 25.438 104.15 25.302C103.912 25.166 103.595 25.098 103.198 25.098C102.767 25.098 102.399 25.1943 102.093 25.387C101.798 25.5683 101.617 25.8517 101.549 26.237H99.322C99.3786 25.625 99.577 25.098 99.917 24.656C100.268 24.2027 100.727 23.8513 101.294 23.602C101.872 23.3527 102.512 23.228 103.215 23.228C104.02 23.228 104.717 23.364 105.306 23.636C105.895 23.908 106.349 24.299 106.666 24.809C106.983 25.319 107.142 25.948 107.142 26.696V32H105.204L104.949 30.691C104.824 30.9177 104.677 31.1217 104.507 31.303C104.337 31.4843 104.139 31.643 103.912 31.779C103.685 31.915 103.43 32.017 103.147 32.085C102.864 32.1643 102.552 32.204 102.212 32.204ZM102.756 30.436C103.051 30.436 103.311 30.385 103.538 30.283C103.776 30.1697 103.98 30.0223 104.15 29.841C104.32 29.6483 104.45 29.433 104.541 29.195C104.643 28.9457 104.711 28.6793 104.745 28.396V28.379H102.994C102.643 28.379 102.354 28.4243 102.127 28.515C101.912 28.5943 101.753 28.7133 101.651 28.872C101.549 29.0307 101.498 29.212 101.498 29.416C101.498 29.6427 101.549 29.8297 101.651 29.977C101.753 30.1243 101.9 30.2377 102.093 30.317C102.286 30.3963 102.507 30.436 102.756 30.436ZM109.164 32V23.432H111.459V32H109.164ZM110.32 22.259C109.912 22.259 109.572 22.14 109.3 21.902C109.039 21.6527 108.909 21.341 108.909 20.967C108.909 20.593 109.039 20.287 109.3 20.049C109.572 19.7997 109.912 19.675 110.32 19.675C110.739 19.675 111.079 19.7997 111.34 20.049C111.612 20.287 111.748 20.593 111.748 20.967C111.748 21.341 111.612 21.6527 111.34 21.902C111.079 22.14 110.739 22.259 110.32 22.259ZM113.608 32V19.76H115.903V32H113.608Z" fill="black"/>
<path d="M240 111.5V113H7V111.5H240ZM243.5 108V65C243.5 63.067 241.933 61.5 240 61.5H7C5.067 61.5 3.5 63.067 3.5 65V108C3.5 109.933 5.067 111.5 7 111.5V113L6.74316 112.993C4.18618 112.864 2.13622 110.814 2.00684 108.257L2 108V65C2 62.2386 4.23858 60 7 60H240C242.761 60 245 62.2386 245 65V108C245 110.675 242.899 112.859 240.257 112.993L240 113V111.5C241.933 111.5 243.5 109.933 243.5 108Z" fill="#C7C7CE"/>
<defs>
<filter id="filter0_f_2029_6383" x="0" y="0" width="52" height="51" filterUnits="userSpaceOnUse" color-interpolation-filters="sRGB">
<feFlood flood-opacity="0" result="BackgroundImageFix"/>
<feBlend mode="normal" in="SourceGraphic" in2="BackgroundImageFix" result="shape"/>
<feGaussianBlur stdDeviation="2" result="effect1_foregroundBlur_2029_6383"/>
</filter>
<clipPath id="clip0_2029_6383">
<rect width="16" height="12" fill="white" transform="translate(17 20)"/>
</clipPath>
</defs>
</svg>
