<svg width="285" height="22" viewBox="0 0 285 22" fill="none" xmlns="http://www.w3.org/2000/svg">
<path d="M9.48462 0C11.819 0.247084 13.7565 2.15411 13.7595 4.51333L13.7644 8.07745L15.4 8.08317C16.727 8.08794 17.8011 9.08009 17.999 10.3136L17.9971 19.7553C17.7854 20.9353 16.8926 21.8254 15.6391 22.001H2.3589C1.10154 21.8197 0.183263 20.9277 0 19.7028V10.3766C0.194044 9.07055 1.25736 8.10988 2.60097 8.07936H4.23466L4.24054 4.4704C4.2425 3.43246 4.63549 2.47656 5.30288 1.6857C6.1114 0.725034 7.24038 0.18412 8.47618 0.0104939L9.48462 0ZM12.0003 8.0784V4.55722C11.9915 3.7635 11.6691 3.06136 11.0879 2.5214C9.93249 1.47869 8.16943 1.45293 6.97675 2.45844C6.37992 2.99172 6.00261 3.70435 6.00163 4.51333L5.99771 8.07936L12.0003 8.0784ZM15.3696 20.28C15.8724 20.28 16.234 19.8697 16.234 19.4185V10.6609C16.234 10.18 15.843 9.79845 15.3461 9.79845H2.65291C2.15702 9.79845 1.76501 10.181 1.76501 10.6618V19.4185C1.76501 19.8993 2.15702 20.2819 2.65291 20.2819H15.3696V20.28Z" fill="#009586"/>
<path d="M9.88447 17.0421C9.88545 17.562 9.5101 17.9484 9.01911 17.9598C8.52812 17.9713 8.11259 17.5744 8.11357 17.0612L8.11749 15.2143C7.2639 14.6781 7.12767 13.561 7.77351 12.8369C8.41836 12.1147 9.57968 12.1147 10.2245 12.8369C10.8704 13.561 10.7341 14.6772 9.88055 15.2143L9.88447 17.0421Z" fill="#009586"/>
<path d="M35.042 16V8.161H32.364V6.9H39.267V8.161H36.589V16H35.042ZM42.1544 16.156C41.6258 16.156 41.1708 16.052 40.7894 15.844C40.4168 15.6273 40.1308 15.3067 39.9314 14.882C39.7321 14.4487 39.6324 13.9157 39.6324 13.283V9.448H41.1924V13.127C41.1924 13.6903 41.3094 14.1193 41.5434 14.414C41.7861 14.7 42.1501 14.843 42.6354 14.843C42.9474 14.843 43.2248 14.7693 43.4674 14.622C43.7188 14.4747 43.9138 14.2623 44.0524 13.985C44.1998 13.699 44.2734 13.3523 44.2734 12.945V9.448H45.8334V16H44.4554L44.3384 14.908C44.1391 15.2893 43.8488 15.5927 43.4674 15.818C43.0948 16.0433 42.6571 16.156 42.1544 16.156ZM50.548 16V9.448H52.108V16H50.548ZM51.328 8.408C51.042 8.408 50.8036 8.32133 50.613 8.148C50.431 7.966 50.34 7.745 50.34 7.485C50.34 7.21633 50.431 6.99967 50.613 6.835C50.8036 6.66167 51.042 6.575 51.328 6.575C51.614 6.575 51.848 6.66167 52.03 6.835C52.2206 6.99967 52.316 7.21633 52.316 7.485C52.316 7.745 52.2206 7.966 52.03 8.148C51.848 8.32133 51.614 8.408 51.328 8.408ZM53.7807 16V9.448H55.1587L55.2757 10.54C55.475 10.1587 55.761 9.85533 56.1337 9.63C56.5064 9.40467 56.9484 9.292 57.4597 9.292C57.9884 9.292 58.439 9.40467 58.8117 9.63C59.1844 9.84667 59.4704 10.1673 59.6697 10.592C59.8777 11.0167 59.9817 11.5453 59.9817 12.178V16H58.4217V12.321C58.4217 11.775 58.3004 11.3547 58.0577 11.06C57.815 10.7653 57.4554 10.618 56.9787 10.618C56.6667 10.618 56.385 10.6917 56.1337 10.839C55.891 10.9863 55.696 11.203 55.5487 11.489C55.41 11.7663 55.3407 12.1043 55.3407 12.503V16H53.7807ZM61.8214 16V8.733C61.8214 8.23033 61.9037 7.82733 62.0684 7.524C62.2417 7.212 62.4887 6.98667 62.8094 6.848C63.1301 6.70933 63.5114 6.64 63.9534 6.64H64.7334V7.966H64.1874C63.9014 7.966 63.6934 8.02667 63.5634 8.148C63.4421 8.26067 63.3814 8.46 63.3814 8.746V16H61.8214ZM60.8854 10.761V9.448H64.8634V10.761H60.8854ZM68.8774 16.156C68.2534 16.156 67.6901 16.013 67.1874 15.727C66.6934 15.4323 66.3034 15.0293 66.0174 14.518C65.7401 13.998 65.6014 13.4043 65.6014 12.737C65.6014 12.0523 65.7444 11.4543 66.0304 10.943C66.3164 10.423 66.7064 10.02 67.2004 9.734C67.7031 9.43933 68.2664 9.292 68.8904 9.292C69.5144 9.292 70.0734 9.43933 70.5674 9.734C71.0701 10.02 71.4601 10.4187 71.7374 10.93C72.0234 11.4413 72.1664 12.0393 72.1664 12.724C72.1664 13.4087 72.0234 14.0067 71.7374 14.518C71.4514 15.0293 71.0571 15.4323 70.5544 15.727C70.0604 16.013 69.5014 16.156 68.8774 16.156ZM68.8774 14.817C69.1894 14.817 69.4711 14.739 69.7224 14.583C69.9824 14.427 70.1904 14.193 70.3464 13.881C70.5024 13.569 70.5804 13.1833 70.5804 12.724C70.5804 12.2647 70.5024 11.8833 70.3464 11.58C70.1991 11.268 69.9954 11.034 69.7354 10.878C69.4841 10.722 69.2024 10.644 68.8904 10.644C68.5871 10.644 68.3054 10.722 68.0454 10.878C67.7854 11.034 67.5774 11.268 67.4214 11.58C67.2654 11.8833 67.1874 12.2647 67.1874 12.724C67.1874 13.1833 67.2654 13.569 67.4214 13.881C67.5774 14.193 67.7811 14.427 68.0324 14.583C68.2924 14.739 68.5741 14.817 68.8774 14.817ZM73.5635 16V9.448H74.9545L75.0975 10.67C75.2535 10.384 75.4485 10.1413 75.6825 9.942C75.9165 9.734 76.1895 9.57367 76.5015 9.461C76.8222 9.34833 77.1732 9.292 77.5545 9.292V10.943H77.0085C76.7485 10.943 76.5015 10.9777 76.2675 11.047C76.0335 11.1077 75.8299 11.2117 75.6565 11.359C75.4919 11.4977 75.3619 11.6927 75.2665 11.944C75.1712 12.1867 75.1235 12.4943 75.1235 12.867V16H73.5635ZM78.6005 16V9.448H79.9785L80.1085 10.345C80.3165 10.0157 80.5895 9.76 80.9275 9.578C81.2742 9.38733 81.6685 9.292 82.1105 9.292C82.4399 9.292 82.7345 9.33533 82.9945 9.422C83.2632 9.50867 83.4972 9.63867 83.6965 9.812C83.9045 9.98533 84.0735 10.202 84.2035 10.462C84.4462 10.098 84.7625 9.812 85.1525 9.604C85.5425 9.396 85.9672 9.292 86.4265 9.292C86.9725 9.292 87.4362 9.40467 87.8175 9.63C88.1989 9.84667 88.4892 10.1717 88.6885 10.605C88.8879 11.0297 88.9875 11.554 88.9875 12.178V16H87.4405V12.334C87.4405 11.7793 87.3279 11.3547 87.1025 11.06C86.8772 10.7653 86.5435 10.618 86.1015 10.618C85.7982 10.618 85.5295 10.6917 85.2955 10.839C85.0702 10.9863 84.8925 11.203 84.7625 11.489C84.6325 11.7663 84.5675 12.1087 84.5675 12.516V16H83.0205V12.334C83.0205 11.7793 82.9079 11.3547 82.6825 11.06C82.4572 10.7653 82.1192 10.618 81.6685 10.618C81.3825 10.618 81.1225 10.6917 80.8885 10.839C80.6632 10.9863 80.4855 11.203 80.3555 11.489C80.2255 11.7663 80.1605 12.1087 80.1605 12.516V16H78.6005ZM92.6897 16.156C92.1524 16.156 91.706 16.065 91.3507 15.883C90.9954 15.701 90.731 15.4583 90.5577 15.155C90.3844 14.8517 90.2977 14.5223 90.2977 14.167C90.2977 13.751 90.4017 13.3913 90.6097 13.088C90.8264 12.7847 91.1427 12.5507 91.5587 12.386C91.9747 12.2127 92.486 12.126 93.0927 12.126H94.7437C94.7437 11.7793 94.696 11.4933 94.6007 11.268C94.5054 11.034 94.358 10.8607 94.1587 10.748C93.9594 10.6353 93.7037 10.579 93.3917 10.579C93.0364 10.579 92.733 10.6613 92.4817 10.826C92.2304 10.982 92.0744 11.2247 92.0137 11.554H90.4797C90.5317 11.086 90.6877 10.6873 90.9477 10.358C91.2077 10.02 91.55 9.76 91.9747 9.578C92.408 9.38733 92.8804 9.292 93.3917 9.292C94.007 9.292 94.5314 9.40033 94.9647 9.617C95.398 9.825 95.7274 10.1283 95.9527 10.527C96.1867 10.917 96.3037 11.3893 96.3037 11.944V16H94.9777L94.8217 14.947C94.735 15.1203 94.6224 15.2807 94.4837 15.428C94.3537 15.5753 94.202 15.7053 94.0287 15.818C93.8554 15.922 93.656 16.0043 93.4307 16.065C93.214 16.1257 92.967 16.156 92.6897 16.156ZM93.0407 14.921C93.292 14.921 93.513 14.8777 93.7037 14.791C93.903 14.6957 94.072 14.5657 94.2107 14.401C94.358 14.2277 94.4707 14.037 94.5487 13.829C94.6267 13.621 94.6787 13.4 94.7047 13.166V13.14H93.2617C92.9584 13.14 92.707 13.179 92.5077 13.257C92.3084 13.3263 92.1654 13.4303 92.0787 13.569C91.992 13.7077 91.9487 13.868 91.9487 14.05C91.9487 14.232 91.992 14.388 92.0787 14.518C92.1654 14.648 92.291 14.7477 92.4557 14.817C92.6204 14.8863 92.8154 14.921 93.0407 14.921ZM100.948 16.156C100.306 16.156 99.7299 16.013 99.2185 15.727C98.7159 15.4323 98.3215 15.0293 98.0355 14.518C97.7582 13.998 97.6195 13.4087 97.6195 12.75C97.6195 12.0653 97.7582 11.4673 98.0355 10.956C98.3215 10.436 98.7159 10.0287 99.2185 9.734C99.7299 9.43933 100.311 9.292 100.961 9.292C101.775 9.292 102.46 9.50867 103.015 9.942C103.569 10.3667 103.925 10.9517 104.081 11.697H102.443C102.356 11.3677 102.174 11.1077 101.897 10.917C101.628 10.7263 101.307 10.631 100.935 10.631C100.614 10.631 100.319 10.7133 100.051 10.878C99.7905 11.0427 99.5825 11.281 99.4265 11.593C99.2792 11.905 99.2055 12.282 99.2055 12.724C99.2055 13.062 99.2489 13.361 99.3355 13.621C99.4222 13.881 99.5435 14.102 99.6995 14.284C99.8642 14.4573 100.051 14.5917 100.259 14.687C100.467 14.7823 100.692 14.83 100.935 14.83C101.186 14.83 101.411 14.791 101.611 14.713C101.819 14.6263 101.992 14.5007 102.131 14.336C102.278 14.1713 102.382 13.9763 102.443 13.751H104.081C103.925 14.479 103.569 15.064 103.015 15.506C102.46 15.9393 101.771 16.156 100.948 16.156ZM105.52 16V9.448H107.08V16H105.52ZM106.3 8.408C106.014 8.408 105.775 8.32133 105.585 8.148C105.403 7.966 105.312 7.745 105.312 7.485C105.312 7.21633 105.403 6.99967 105.585 6.835C105.775 6.66167 106.014 6.575 106.3 6.575C106.586 6.575 106.82 6.66167 107.002 6.835C107.192 6.99967 107.288 7.21633 107.288 7.485C107.288 7.745 107.192 7.966 107.002 8.148C106.82 8.32133 106.586 8.408 106.3 8.408ZM111.807 16.156C111.183 16.156 110.62 16.013 110.117 15.727C109.623 15.4323 109.233 15.0293 108.947 14.518C108.67 13.998 108.531 13.4043 108.531 12.737C108.531 12.0523 108.674 11.4543 108.96 10.943C109.246 10.423 109.636 10.02 110.13 9.734C110.633 9.43933 111.196 9.292 111.82 9.292C112.444 9.292 113.003 9.43933 113.497 9.734C114 10.02 114.39 10.4187 114.667 10.93C114.953 11.4413 115.096 12.0393 115.096 12.724C115.096 13.4087 114.953 14.0067 114.667 14.518C114.381 15.0293 113.987 15.4323 113.484 15.727C112.99 16.013 112.431 16.156 111.807 16.156ZM111.807 14.817C112.119 14.817 112.401 14.739 112.652 14.583C112.912 14.427 113.12 14.193 113.276 13.881C113.432 13.569 113.51 13.1833 113.51 12.724C113.51 12.2647 113.432 11.8833 113.276 11.58C113.129 11.268 112.925 11.034 112.665 10.878C112.414 10.722 112.132 10.644 111.82 10.644C111.517 10.644 111.235 10.722 110.975 10.878C110.715 11.034 110.507 11.268 110.351 11.58C110.195 11.8833 110.117 12.2647 110.117 12.724C110.117 13.1833 110.195 13.569 110.351 13.881C110.507 14.193 110.711 14.427 110.962 14.583C111.222 14.739 111.504 14.817 111.807 14.817ZM110.481 8.889L110.338 7.836L113.12 6.211L113.302 7.42L110.481 8.889ZM116.493 16V9.448H117.871L117.988 10.54C118.188 10.1587 118.474 9.85533 118.846 9.63C119.219 9.40467 119.661 9.292 120.172 9.292C120.701 9.292 121.152 9.40467 121.524 9.63C121.897 9.84667 122.183 10.1673 122.382 10.592C122.59 11.0167 122.694 11.5453 122.694 12.178V16H121.134V12.321C121.134 11.775 121.013 11.3547 120.77 11.06C120.528 10.7653 120.168 10.618 119.691 10.618C119.379 10.618 119.098 10.6917 118.846 10.839C118.604 10.9863 118.409 11.203 118.261 11.489C118.123 11.7663 118.053 12.1043 118.053 12.503V16H116.493ZM130.321 16.156C129.671 16.156 129.099 16.0173 128.605 15.74C128.111 15.454 127.725 15.0553 127.448 14.544C127.171 14.0327 127.032 13.4433 127.032 12.776C127.032 12.0827 127.166 11.476 127.435 10.956C127.712 10.436 128.098 10.0287 128.592 9.734C129.095 9.43933 129.675 9.292 130.334 9.292C130.975 9.292 131.534 9.435 132.011 9.721C132.488 10.007 132.856 10.3927 133.116 10.878C133.376 11.3547 133.506 11.892 133.506 12.49C133.506 12.5767 133.506 12.672 133.506 12.776C133.506 12.88 133.497 12.9883 133.48 13.101H128.15V12.1H131.933C131.916 11.6233 131.755 11.2507 131.452 10.982C131.149 10.7047 130.772 10.566 130.321 10.566C130 10.566 129.706 10.6397 129.437 10.787C129.168 10.9343 128.956 11.1553 128.8 11.45C128.644 11.736 128.566 12.1 128.566 12.542V12.919C128.566 13.3263 128.64 13.6773 128.787 13.972C128.943 14.2667 129.151 14.492 129.411 14.648C129.68 14.7953 129.979 14.869 130.308 14.869C130.672 14.869 130.971 14.791 131.205 14.635C131.448 14.479 131.625 14.271 131.738 14.011H133.324C133.203 14.4183 133.003 14.7867 132.726 15.116C132.449 15.4367 132.106 15.6923 131.699 15.883C131.292 16.065 130.832 16.156 130.321 16.156ZM137.429 16.156C136.849 16.156 136.342 16.065 135.908 15.883C135.484 15.6923 135.146 15.4323 134.894 15.103C134.652 14.765 134.509 14.3793 134.465 13.946H136.025C136.069 14.128 136.147 14.297 136.259 14.453C136.372 14.6003 136.524 14.7173 136.714 14.804C136.914 14.8907 137.148 14.934 137.416 14.934C137.676 14.934 137.889 14.8993 138.053 14.83C138.218 14.752 138.339 14.6523 138.417 14.531C138.495 14.4097 138.534 14.2797 138.534 14.141C138.534 13.933 138.478 13.7727 138.365 13.66C138.253 13.5473 138.088 13.4607 137.871 13.4C137.663 13.3307 137.412 13.2657 137.117 13.205C136.805 13.1443 136.502 13.0707 136.207 12.984C135.921 12.8887 135.661 12.7717 135.427 12.633C135.202 12.4943 135.02 12.3167 134.881 12.1C134.751 11.8833 134.686 11.619 134.686 11.307C134.686 10.9257 134.786 10.5833 134.985 10.28C135.193 9.97667 135.488 9.73833 135.869 9.565C136.259 9.383 136.723 9.292 137.26 9.292C138.023 9.292 138.63 9.46967 139.08 9.825C139.54 10.1717 139.808 10.6613 139.886 11.294H138.404C138.361 11.0513 138.24 10.865 138.04 10.735C137.841 10.5963 137.577 10.527 137.247 10.527C136.909 10.527 136.649 10.592 136.467 10.722C136.294 10.8433 136.207 11.008 136.207 11.216C136.207 11.346 136.259 11.4673 136.363 11.58C136.476 11.684 136.636 11.775 136.844 11.853C137.052 11.9223 137.308 11.9917 137.611 12.061C138.097 12.1563 138.526 12.269 138.898 12.399C139.271 12.529 139.566 12.7197 139.782 12.971C139.999 13.2223 140.107 13.5777 140.107 14.037C140.116 14.453 140.008 14.8213 139.782 15.142C139.566 15.4627 139.258 15.714 138.859 15.896C138.461 16.0693 137.984 16.156 137.429 16.156ZM144.11 16C143.668 16 143.282 15.9307 142.953 15.792C142.632 15.6533 142.381 15.4237 142.199 15.103C142.017 14.7823 141.926 14.349 141.926 13.803V10.761H140.808V9.448H141.926L142.108 7.719H143.486V9.448H145.267V10.761H143.486V13.803C143.486 14.1323 143.555 14.362 143.694 14.492C143.841 14.6133 144.084 14.674 144.422 14.674H145.228V16H144.11ZM148.788 16.156C148.251 16.156 147.805 16.065 147.449 15.883C147.094 15.701 146.83 15.4583 146.656 15.155C146.483 14.8517 146.396 14.5223 146.396 14.167C146.396 13.751 146.5 13.3913 146.708 13.088C146.925 12.7847 147.241 12.5507 147.657 12.386C148.073 12.2127 148.585 12.126 149.191 12.126H150.842C150.842 11.7793 150.795 11.4933 150.699 11.268C150.604 11.034 150.457 10.8607 150.257 10.748C150.058 10.6353 149.802 10.579 149.49 10.579C149.135 10.579 148.832 10.6613 148.58 10.826C148.329 10.982 148.173 11.2247 148.112 11.554H146.578C146.63 11.086 146.786 10.6873 147.046 10.358C147.306 10.02 147.649 9.76 148.073 9.578C148.507 9.38733 148.979 9.292 149.49 9.292C150.106 9.292 150.63 9.40033 151.063 9.617C151.497 9.825 151.826 10.1283 152.051 10.527C152.285 10.917 152.402 11.3893 152.402 11.944V16H151.076L150.92 14.947C150.834 15.1203 150.721 15.2807 150.582 15.428C150.452 15.5753 150.301 15.7053 150.127 15.818C149.954 15.922 149.755 16.0043 149.529 16.065C149.313 16.1257 149.066 16.156 148.788 16.156ZM149.139 14.921C149.391 14.921 149.612 14.8777 149.802 14.791C150.002 14.6957 150.171 14.5657 150.309 14.401C150.457 14.2277 150.569 14.037 150.647 13.829C150.725 13.621 150.777 13.4 150.803 13.166V13.14H149.36C149.057 13.14 148.806 13.179 148.606 13.257C148.407 13.3263 148.264 13.4303 148.177 13.569C148.091 13.7077 148.047 13.868 148.047 14.05C148.047 14.232 148.091 14.388 148.177 14.518C148.264 14.648 148.39 14.7477 148.554 14.817C148.719 14.8863 148.914 14.921 149.139 14.921ZM148.073 8.889L147.93 7.836L150.712 6.211L150.894 7.42L148.073 8.889ZM159.596 16.156C159.015 16.156 158.508 16.065 158.075 15.883C157.65 15.6923 157.312 15.4323 157.061 15.103C156.818 14.765 156.675 14.3793 156.632 13.946H158.192C158.235 14.128 158.313 14.297 158.426 14.453C158.539 14.6003 158.69 14.7173 158.881 14.804C159.08 14.8907 159.314 14.934 159.583 14.934C159.843 14.934 160.055 14.8993 160.22 14.83C160.385 14.752 160.506 14.6523 160.584 14.531C160.662 14.4097 160.701 14.2797 160.701 14.141C160.701 13.933 160.645 13.7727 160.532 13.66C160.419 13.5473 160.255 13.4607 160.038 13.4C159.83 13.3307 159.579 13.2657 159.284 13.205C158.972 13.1443 158.669 13.0707 158.374 12.984C158.088 12.8887 157.828 12.7717 157.594 12.633C157.369 12.4943 157.187 12.3167 157.048 12.1C156.918 11.8833 156.853 11.619 156.853 11.307C156.853 10.9257 156.953 10.5833 157.152 10.28C157.36 9.97667 157.655 9.73833 158.036 9.565C158.426 9.383 158.89 9.292 159.427 9.292C160.19 9.292 160.796 9.46967 161.247 9.825C161.706 10.1717 161.975 10.6613 162.053 11.294H160.571C160.528 11.0513 160.406 10.865 160.207 10.735C160.008 10.5963 159.743 10.527 159.414 10.527C159.076 10.527 158.816 10.592 158.634 10.722C158.461 10.8433 158.374 11.008 158.374 11.216C158.374 11.346 158.426 11.4673 158.53 11.58C158.643 11.684 158.803 11.775 159.011 11.853C159.219 11.9223 159.475 11.9917 159.778 12.061C160.263 12.1563 160.692 12.269 161.065 12.399C161.438 12.529 161.732 12.7197 161.949 12.971C162.166 13.2223 162.274 13.5777 162.274 14.037C162.283 14.453 162.174 14.8213 161.949 15.142C161.732 15.4627 161.425 15.714 161.026 15.896C160.627 16.0693 160.151 16.156 159.596 16.156ZM166.726 16.156C166.076 16.156 165.504 16.0173 165.01 15.74C164.516 15.454 164.13 15.0553 163.853 14.544C163.575 14.0327 163.437 13.4433 163.437 12.776C163.437 12.0827 163.571 11.476 163.84 10.956C164.117 10.436 164.503 10.0287 164.997 9.734C165.499 9.43933 166.08 9.292 166.739 9.292C167.38 9.292 167.939 9.435 168.416 9.721C168.892 10.007 169.261 10.3927 169.521 10.878C169.781 11.3547 169.911 11.892 169.911 12.49C169.911 12.5767 169.911 12.672 169.911 12.776C169.911 12.88 169.902 12.9883 169.885 13.101H164.555V12.1H168.338C168.32 11.6233 168.16 11.2507 167.857 10.982C167.553 10.7047 167.176 10.566 166.726 10.566C166.405 10.566 166.11 10.6397 165.842 10.787C165.573 10.9343 165.361 11.1553 165.205 11.45C165.049 11.736 164.971 12.1 164.971 12.542V12.919C164.971 13.3263 165.044 13.6773 165.192 13.972C165.348 14.2667 165.556 14.492 165.816 14.648C166.084 14.7953 166.383 14.869 166.713 14.869C167.077 14.869 167.376 14.791 167.61 14.635C167.852 14.479 168.03 14.271 168.143 14.011H169.729C169.607 14.4183 169.408 14.7867 169.131 15.116C168.853 15.4367 168.511 15.6923 168.104 15.883C167.696 16.065 167.237 16.156 166.726 16.156ZM173.85 19.016C173.235 19.016 172.693 18.938 172.225 18.782C171.766 18.6347 171.406 18.405 171.146 18.093C170.895 17.7897 170.769 17.4083 170.769 16.949C170.769 16.6803 170.834 16.416 170.964 16.156C171.103 15.9047 171.306 15.6707 171.575 15.454C171.852 15.2287 172.203 15.0337 172.628 14.869L173.317 15.623C172.901 15.7703 172.611 15.948 172.446 16.156C172.281 16.364 172.199 16.5763 172.199 16.793C172.199 17.0183 172.268 17.2047 172.407 17.352C172.554 17.508 172.749 17.625 172.992 17.703C173.243 17.781 173.525 17.82 173.837 17.82C174.14 17.82 174.405 17.7767 174.63 17.69C174.855 17.612 175.029 17.4993 175.15 17.352C175.28 17.2047 175.345 17.027 175.345 16.819C175.345 16.559 175.254 16.3467 175.072 16.182C174.89 16.026 174.53 15.9307 173.993 15.896C173.534 15.8613 173.131 15.8137 172.784 15.753C172.437 15.6837 172.138 15.6057 171.887 15.519C171.644 15.4323 171.436 15.337 171.263 15.233C171.09 15.1203 170.947 15.0077 170.834 14.895V14.596L172.199 13.166L173.356 13.543L171.822 15.038L172.225 14.284C172.312 14.3447 172.398 14.401 172.485 14.453C172.58 14.505 172.697 14.5527 172.836 14.596C172.983 14.6307 173.174 14.6653 173.408 14.7C173.642 14.7347 173.945 14.7693 174.318 14.804C174.899 14.8473 175.371 14.9513 175.735 15.116C176.099 15.2807 176.368 15.5017 176.541 15.779C176.714 16.0563 176.801 16.39 176.801 16.78C176.801 17.1613 176.693 17.521 176.476 17.859C176.268 18.197 175.947 18.4743 175.514 18.691C175.081 18.9077 174.526 19.016 173.85 19.016ZM173.85 14.037C173.304 14.037 172.832 13.933 172.433 13.725C172.043 13.5083 171.744 13.2223 171.536 12.867C171.328 12.503 171.224 12.1043 171.224 11.671C171.224 11.229 171.328 10.8303 171.536 10.475C171.744 10.1197 172.043 9.83367 172.433 9.617C172.832 9.40033 173.304 9.292 173.85 9.292C174.396 9.292 174.864 9.40033 175.254 9.617C175.644 9.83367 175.943 10.1197 176.151 10.475C176.359 10.8303 176.463 11.229 176.463 11.671C176.463 12.1043 176.359 12.503 176.151 12.867C175.943 13.2223 175.644 13.5083 175.254 13.725C174.864 13.933 174.396 14.037 173.85 14.037ZM173.85 12.828C174.223 12.828 174.522 12.7283 174.747 12.529C174.972 12.3297 175.085 12.0437 175.085 11.671C175.085 11.2983 174.972 11.0167 174.747 10.826C174.522 10.6267 174.223 10.527 173.85 10.527C173.477 10.527 173.174 10.6267 172.94 10.826C172.706 11.0167 172.589 11.2983 172.589 11.671C172.589 12.0437 172.706 12.3297 172.94 12.529C173.174 12.7283 173.477 12.828 173.85 12.828ZM174.929 10.592L174.63 9.448H177.321V10.423L174.929 10.592ZM180.999 16.156C180.471 16.156 180.016 16.052 179.634 15.844C179.262 15.6273 178.976 15.3067 178.776 14.882C178.577 14.4487 178.477 13.9157 178.477 13.283V9.448H180.037V13.127C180.037 13.6903 180.154 14.1193 180.388 14.414C180.631 14.7 180.995 14.843 181.48 14.843C181.792 14.843 182.07 14.7693 182.312 14.622C182.564 14.4747 182.759 14.2623 182.897 13.985C183.045 13.699 183.118 13.3523 183.118 12.945V9.448H184.678V16H183.3L183.183 14.908C182.984 15.2893 182.694 15.5927 182.312 15.818C181.94 16.0433 181.502 16.156 180.999 16.156ZM186.284 16V9.448H187.675L187.818 10.67C187.974 10.384 188.169 10.1413 188.403 9.942C188.637 9.734 188.91 9.57367 189.222 9.461C189.543 9.34833 189.894 9.292 190.275 9.292V10.943H189.729C189.469 10.943 189.222 10.9777 188.988 11.047C188.754 11.1077 188.551 11.2117 188.377 11.359C188.213 11.4977 188.083 11.6927 187.987 11.944C187.892 12.1867 187.844 12.4943 187.844 12.867V16H186.284ZM193.505 16.156C192.968 16.156 192.522 16.065 192.166 15.883C191.811 15.701 191.547 15.4583 191.373 15.155C191.2 14.8517 191.113 14.5223 191.113 14.167C191.113 13.751 191.217 13.3913 191.425 13.088C191.642 12.7847 191.958 12.5507 192.374 12.386C192.79 12.2127 193.302 12.126 193.908 12.126H195.559C195.559 11.7793 195.512 11.4933 195.416 11.268C195.321 11.034 195.174 10.8607 194.974 10.748C194.775 10.6353 194.519 10.579 194.207 10.579C193.852 10.579 193.549 10.6613 193.297 10.826C193.046 10.982 192.89 11.2247 192.829 11.554H191.295C191.347 11.086 191.503 10.6873 191.763 10.358C192.023 10.02 192.366 9.76 192.79 9.578C193.224 9.38733 193.696 9.292 194.207 9.292C194.823 9.292 195.347 9.40033 195.78 9.617C196.214 9.825 196.543 10.1283 196.768 10.527C197.002 10.917 197.119 11.3893 197.119 11.944V16H195.793L195.637 14.947C195.551 15.1203 195.438 15.2807 195.299 15.428C195.169 15.5753 195.018 15.7053 194.844 15.818C194.671 15.922 194.472 16.0043 194.246 16.065C194.03 16.1257 193.783 16.156 193.505 16.156ZM193.856 14.921C194.108 14.921 194.329 14.8777 194.519 14.791C194.719 14.6957 194.888 14.5657 195.026 14.401C195.174 14.2277 195.286 14.037 195.364 13.829C195.442 13.621 195.494 13.4 195.52 13.166V13.14H194.077C193.774 13.14 193.523 13.179 193.323 13.257C193.124 13.3263 192.981 13.4303 192.894 13.569C192.808 13.7077 192.764 13.868 192.764 14.05C192.764 14.232 192.808 14.388 192.894 14.518C192.981 14.648 193.107 14.7477 193.271 14.817C193.436 14.8863 193.631 14.921 193.856 14.921ZM204.807 16.156C204.166 16.156 203.589 16.013 203.078 15.727C202.575 15.4323 202.181 15.0293 201.895 14.518C201.618 13.998 201.479 13.4087 201.479 12.75C201.479 12.0653 201.618 11.4673 201.895 10.956C202.181 10.436 202.575 10.0287 203.078 9.734C203.589 9.43933 204.17 9.292 204.82 9.292C205.635 9.292 206.319 9.50867 206.874 9.942C207.429 10.3667 207.784 10.9517 207.94 11.697H206.302C206.215 11.3677 206.033 11.1077 205.756 10.917C205.487 10.7263 205.167 10.631 204.794 10.631C204.473 10.631 204.179 10.7133 203.91 10.878C203.65 11.0427 203.442 11.281 203.286 11.593C203.139 11.905 203.065 12.282 203.065 12.724C203.065 13.062 203.108 13.361 203.195 13.621C203.282 13.881 203.403 14.102 203.559 14.284C203.724 14.4573 203.91 14.5917 204.118 14.687C204.326 14.7823 204.551 14.83 204.794 14.83C205.045 14.83 205.271 14.791 205.47 14.713C205.678 14.6263 205.851 14.5007 205.99 14.336C206.137 14.1713 206.241 13.9763 206.302 13.751H207.94C207.784 14.479 207.429 15.064 206.874 15.506C206.319 15.9393 205.63 16.156 204.807 16.156ZM212.369 16.156C211.745 16.156 211.182 16.013 210.679 15.727C210.185 15.4323 209.795 15.0293 209.509 14.518C209.232 13.998 209.093 13.4043 209.093 12.737C209.093 12.0523 209.236 11.4543 209.522 10.943C209.808 10.423 210.198 10.02 210.692 9.734C211.195 9.43933 211.758 9.292 212.382 9.292C213.006 9.292 213.565 9.43933 214.059 9.734C214.562 10.02 214.952 10.4187 215.229 10.93C215.515 11.4413 215.658 12.0393 215.658 12.724C215.658 13.4087 215.515 14.0067 215.229 14.518C214.943 15.0293 214.549 15.4323 214.046 15.727C213.552 16.013 212.993 16.156 212.369 16.156ZM212.369 14.817C212.681 14.817 212.963 14.739 213.214 14.583C213.474 14.427 213.682 14.193 213.838 13.881C213.994 13.569 214.072 13.1833 214.072 12.724C214.072 12.2647 213.994 11.8833 213.838 11.58C213.691 11.268 213.487 11.034 213.227 10.878C212.976 10.722 212.694 10.644 212.382 10.644C212.079 10.644 211.797 10.722 211.537 10.878C211.277 11.034 211.069 11.268 210.913 11.58C210.757 11.8833 210.679 12.2647 210.679 12.724C210.679 13.1833 210.757 13.569 210.913 13.881C211.069 14.193 211.273 14.427 211.524 14.583C211.784 14.739 212.066 14.817 212.369 14.817ZM217.055 16V9.448H218.433L218.55 10.54C218.749 10.1587 219.035 9.85533 219.408 9.63C219.781 9.40467 220.223 9.292 220.734 9.292C221.263 9.292 221.713 9.40467 222.086 9.63C222.459 9.84667 222.745 10.1673 222.944 10.592C223.152 11.0167 223.256 11.5453 223.256 12.178V16H221.696V12.321C221.696 11.775 221.575 11.3547 221.332 11.06C221.089 10.7653 220.73 10.618 220.253 10.618C219.941 10.618 219.659 10.6917 219.408 10.839C219.165 10.9863 218.97 11.203 218.823 11.489C218.684 11.7663 218.615 12.1043 218.615 12.503V16H217.055ZM227.815 16V9.448H229.193L229.31 10.54C229.509 10.1587 229.795 9.85533 230.168 9.63C230.54 9.40467 230.982 9.292 231.494 9.292C232.022 9.292 232.473 9.40467 232.846 9.63C233.218 9.84667 233.504 10.1673 233.704 10.592C233.912 11.0167 234.016 11.5453 234.016 12.178V16H232.456V12.321C232.456 11.775 232.334 11.3547 232.092 11.06C231.849 10.7653 231.489 10.618 231.013 10.618C230.701 10.618 230.419 10.6917 230.168 10.839C229.925 10.9863 229.73 11.203 229.583 11.489C229.444 11.7663 229.375 12.1043 229.375 12.503V16H227.815ZM238.585 16.156C237.961 16.156 237.398 16.013 236.895 15.727C236.401 15.4323 236.011 15.0293 235.725 14.518C235.448 13.998 235.309 13.4043 235.309 12.737C235.309 12.0523 235.452 11.4543 235.738 10.943C236.024 10.423 236.414 10.02 236.908 9.734C237.411 9.43933 237.974 9.292 238.598 9.292C239.222 9.292 239.781 9.43933 240.275 9.734C240.778 10.02 241.168 10.4187 241.445 10.93C241.731 11.4413 241.874 12.0393 241.874 12.724C241.874 13.4087 241.731 14.0067 241.445 14.518C241.159 15.0293 240.765 15.4323 240.262 15.727C239.768 16.013 239.209 16.156 238.585 16.156ZM238.585 14.817C238.897 14.817 239.179 14.739 239.43 14.583C239.69 14.427 239.898 14.193 240.054 13.881C240.21 13.569 240.288 13.1833 240.288 12.724C240.288 12.2647 240.21 11.8833 240.054 11.58C239.907 11.268 239.703 11.034 239.443 10.878C239.192 10.722 238.91 10.644 238.598 10.644C238.295 10.644 238.013 10.722 237.753 10.878C237.493 11.034 237.285 11.268 237.129 11.58C236.973 11.8833 236.895 12.2647 236.895 12.724C236.895 13.1833 236.973 13.569 237.129 13.881C237.285 14.193 237.489 14.427 237.74 14.583C238 14.739 238.282 14.817 238.585 14.817ZM245.884 16.156C245.304 16.156 244.797 16.065 244.363 15.883C243.939 15.6923 243.601 15.4323 243.349 15.103C243.107 14.765 242.964 14.3793 242.92 13.946H244.48C244.524 14.128 244.602 14.297 244.714 14.453C244.827 14.6003 244.979 14.7173 245.169 14.804C245.369 14.8907 245.603 14.934 245.871 14.934C246.131 14.934 246.344 14.8993 246.508 14.83C246.673 14.752 246.794 14.6523 246.872 14.531C246.95 14.4097 246.989 14.2797 246.989 14.141C246.989 13.933 246.933 13.7727 246.82 13.66C246.708 13.5473 246.543 13.4607 246.326 13.4C246.118 13.3307 245.867 13.2657 245.572 13.205C245.26 13.1443 244.957 13.0707 244.662 12.984C244.376 12.8887 244.116 12.7717 243.882 12.633C243.657 12.4943 243.475 12.3167 243.336 12.1C243.206 11.8833 243.141 11.619 243.141 11.307C243.141 10.9257 243.241 10.5833 243.44 10.28C243.648 9.97667 243.943 9.73833 244.324 9.565C244.714 9.383 245.178 9.292 245.715 9.292C246.478 9.292 247.085 9.46967 247.535 9.825C247.995 10.1717 248.263 10.6613 248.341 11.294H246.859C246.816 11.0513 246.695 10.865 246.495 10.735C246.296 10.5963 246.032 10.527 245.702 10.527C245.364 10.527 245.104 10.592 244.922 10.722C244.749 10.8433 244.662 11.008 244.662 11.216C244.662 11.346 244.714 11.4673 244.818 11.58C244.931 11.684 245.091 11.775 245.299 11.853C245.507 11.9223 245.763 11.9917 246.066 12.061C246.552 12.1563 246.981 12.269 247.353 12.399C247.726 12.529 248.021 12.7197 248.237 12.971C248.454 13.2223 248.562 13.5777 248.562 14.037C248.571 14.453 248.463 14.8213 248.237 15.142C248.021 15.4627 247.713 15.714 247.314 15.896C246.916 16.0693 246.439 16.156 245.884 16.156ZM253.001 16.156C252.377 16.156 251.814 16.013 251.311 15.727C250.817 15.4323 250.427 15.0293 250.141 14.518C249.864 13.998 249.725 13.4043 249.725 12.737C249.725 12.0523 249.868 11.4543 250.154 10.943C250.44 10.423 250.83 10.02 251.324 9.734C251.827 9.43933 252.39 9.292 253.014 9.292C253.638 9.292 254.197 9.43933 254.691 9.734C255.194 10.02 255.584 10.4187 255.861 10.93C256.147 11.4413 256.29 12.0393 256.29 12.724C256.29 13.4087 256.147 14.0067 255.861 14.518C255.575 15.0293 255.181 15.4323 254.678 15.727C254.184 16.013 253.625 16.156 253.001 16.156ZM253.001 14.817C253.313 14.817 253.595 14.739 253.846 14.583C254.106 14.427 254.314 14.193 254.47 13.881C254.626 13.569 254.704 13.1833 254.704 12.724C254.704 12.2647 254.626 11.8833 254.47 11.58C254.323 11.268 254.119 11.034 253.859 10.878C253.608 10.722 253.326 10.644 253.014 10.644C252.711 10.644 252.429 10.722 252.169 10.878C251.909 11.034 251.701 11.268 251.545 11.58C251.389 11.8833 251.311 12.2647 251.311 12.724C251.311 13.1833 251.389 13.569 251.545 13.881C251.701 14.193 251.905 14.427 252.156 14.583C252.416 14.739 252.698 14.817 253.001 14.817ZM260.28 16C259.838 16 259.453 15.9307 259.123 15.792C258.803 15.6533 258.551 15.4237 258.369 15.103C258.187 14.7823 258.096 14.349 258.096 13.803V10.761H256.978V9.448H258.096L258.278 7.719H259.656V9.448H261.437V10.761H259.656V13.803C259.656 14.1323 259.726 14.362 259.864 14.492C260.012 14.6133 260.254 14.674 260.592 14.674H261.398V16H260.28ZM262.775 16V9.448H264.166L264.309 10.67C264.465 10.384 264.66 10.1413 264.894 9.942C265.128 9.734 265.401 9.57367 265.713 9.461C266.034 9.34833 266.385 9.292 266.766 9.292V10.943H266.22C265.96 10.943 265.713 10.9777 265.479 11.047C265.245 11.1077 265.041 11.2117 264.868 11.359C264.703 11.4977 264.573 11.6927 264.478 11.944C264.383 12.1867 264.335 12.4943 264.335 12.867V16H262.775ZM270.727 16.156C270.103 16.156 269.54 16.013 269.037 15.727C268.543 15.4323 268.153 15.0293 267.867 14.518C267.59 13.998 267.451 13.4043 267.451 12.737C267.451 12.0523 267.594 11.4543 267.88 10.943C268.166 10.423 268.556 10.02 269.05 9.734C269.553 9.43933 270.116 9.292 270.74 9.292C271.364 9.292 271.923 9.43933 272.417 9.734C272.92 10.02 273.31 10.4187 273.587 10.93C273.873 11.4413 274.016 12.0393 274.016 12.724C274.016 13.4087 273.873 14.0067 273.587 14.518C273.301 15.0293 272.907 15.4323 272.404 15.727C271.91 16.013 271.351 16.156 270.727 16.156ZM270.727 14.817C271.039 14.817 271.321 14.739 271.572 14.583C271.832 14.427 272.04 14.193 272.196 13.881C272.352 13.569 272.43 13.1833 272.43 12.724C272.43 12.2647 272.352 11.8833 272.196 11.58C272.049 11.268 271.845 11.034 271.585 10.878C271.334 10.722 271.052 10.644 270.74 10.644C270.437 10.644 270.155 10.722 269.895 10.878C269.635 11.034 269.427 11.268 269.271 11.58C269.115 11.8833 269.037 12.2647 269.037 12.724C269.037 13.1833 269.115 13.569 269.271 13.881C269.427 14.193 269.631 14.427 269.882 14.583C270.142 14.739 270.424 14.817 270.727 14.817ZM278.026 16.156C277.446 16.156 276.939 16.065 276.505 15.883C276.081 15.6923 275.743 15.4323 275.491 15.103C275.249 14.765 275.106 14.3793 275.062 13.946H276.622C276.666 14.128 276.744 14.297 276.856 14.453C276.969 14.6003 277.121 14.7173 277.311 14.804C277.511 14.8907 277.745 14.934 278.013 14.934C278.273 14.934 278.486 14.8993 278.65 14.83C278.815 14.752 278.936 14.6523 279.014 14.531C279.092 14.4097 279.131 14.2797 279.131 14.141C279.131 13.933 279.075 13.7727 278.962 13.66C278.85 13.5473 278.685 13.4607 278.468 13.4C278.26 13.3307 278.009 13.2657 277.714 13.205C277.402 13.1443 277.099 13.0707 276.804 12.984C276.518 12.8887 276.258 12.7717 276.024 12.633C275.799 12.4943 275.617 12.3167 275.478 12.1C275.348 11.8833 275.283 11.619 275.283 11.307C275.283 10.9257 275.383 10.5833 275.582 10.28C275.79 9.97667 276.085 9.73833 276.466 9.565C276.856 9.383 277.32 9.292 277.857 9.292C278.62 9.292 279.227 9.46967 279.677 9.825C280.137 10.1717 280.405 10.6613 280.483 11.294H279.001C278.958 11.0513 278.837 10.865 278.637 10.735C278.438 10.5963 278.174 10.527 277.844 10.527C277.506 10.527 277.246 10.592 277.064 10.722C276.891 10.8433 276.804 11.008 276.804 11.216C276.804 11.346 276.856 11.4673 276.96 11.58C277.073 11.684 277.233 11.775 277.441 11.853C277.649 11.9223 277.905 11.9917 278.208 12.061C278.694 12.1563 279.123 12.269 279.495 12.399C279.868 12.529 280.163 12.7197 280.379 12.971C280.596 13.2223 280.704 13.5777 280.704 14.037C280.713 14.453 280.605 14.8213 280.379 15.142C280.163 15.4627 279.855 15.714 279.456 15.896C279.058 16.0693 278.581 16.156 278.026 16.156ZM282.764 16.065C282.469 16.065 282.231 15.974 282.049 15.792C281.867 15.61 281.776 15.3933 281.776 15.142C281.776 14.8733 281.867 14.648 282.049 14.466C282.231 14.284 282.469 14.193 282.764 14.193C283.05 14.193 283.284 14.284 283.466 14.466C283.648 14.648 283.739 14.8733 283.739 15.142C283.739 15.3933 283.648 15.61 283.466 15.792C283.284 15.974 283.05 16.065 282.764 16.065Z" fill="#A3A4B0"/>
</svg>
