<svg width="184" height="172" viewBox="0 0 184 172" fill="none" xmlns="http://www.w3.org/2000/svg">
<path d="M0.374 17L4.726 5.1H7.327L11.662 17H9.231L6.018 7.718L2.788 17H0.374ZM2.295 14.297L2.907 12.512H8.959L9.554 14.297H2.295ZM13.08 20.74L15.154 16.048H14.644L11.21 8.432H13.709L16.157 13.957L18.367 8.432H20.798L15.511 20.74H13.08ZM25.2778 17.204C24.5865 17.204 23.9915 17.0623 23.4928 16.779C23.0055 16.4843 22.6315 16.0593 22.3708 15.504C22.1101 14.9373 21.9798 14.2403 21.9798 13.413V8.432H24.2748V13.175C24.2748 13.8663 24.4165 14.3877 24.6998 14.739C24.9945 15.0903 25.4421 15.266 26.0428 15.266C26.4281 15.266 26.7681 15.181 27.0628 15.011C27.3575 14.8297 27.5898 14.5747 27.7598 14.246C27.9411 13.906 28.0318 13.4923 28.0318 13.005V8.432H30.3098V17H28.3038L28.1168 15.606C27.8675 16.0933 27.4991 16.4843 27.0118 16.779C26.5245 17.0623 25.9465 17.204 25.2778 17.204ZM36.1954 17.204C35.4134 17.204 34.7107 17.0113 34.0874 16.626C33.4754 16.2407 32.9937 15.708 32.6424 15.028C32.2911 14.348 32.1154 13.583 32.1154 12.733C32.1154 11.8603 32.2911 11.0897 32.6424 10.421C33.0051 9.741 33.4981 9.20833 34.1214 8.823C34.7561 8.42633 35.4644 8.228 36.2464 8.228C36.8584 8.228 37.3967 8.34133 37.8614 8.568C38.3261 8.79467 38.7001 9.11767 38.9834 9.537V4.76H41.2784V17H39.2384L38.9834 15.827C38.8134 16.065 38.5981 16.2917 38.3374 16.507C38.0881 16.7223 37.7877 16.8923 37.4364 17.017C37.0851 17.1417 36.6714 17.204 36.1954 17.204ZM36.7394 15.198C37.1927 15.198 37.5894 15.096 37.9294 14.892C38.2807 14.6767 38.5527 14.382 38.7454 14.008C38.9381 13.634 39.0344 13.2033 39.0344 12.716C39.0344 12.2287 38.9381 11.798 38.7454 11.424C38.5527 11.05 38.2807 10.761 37.9294 10.557C37.5894 10.3417 37.1927 10.234 36.7394 10.234C36.3087 10.234 35.9177 10.3417 35.5664 10.557C35.2151 10.761 34.9374 11.05 34.7334 11.424C34.5407 11.798 34.4444 12.223 34.4444 12.699C34.4444 13.1977 34.5407 13.634 34.7334 14.008C34.9374 14.382 35.2094 14.6767 35.5494 14.892C35.9007 15.096 36.2974 15.198 36.7394 15.198ZM46.247 17.204C45.533 17.204 44.9437 17.0907 44.479 16.864C44.0144 16.626 43.6687 16.3143 43.442 15.929C43.2267 15.5323 43.119 15.096 43.119 14.62C43.119 14.0987 43.2494 13.6397 43.51 13.243C43.782 12.8463 44.1844 12.5347 44.717 12.308C45.261 12.0813 45.941 11.968 46.757 11.968H48.882C48.882 11.5487 48.8254 11.203 48.712 10.931C48.5987 10.6477 48.423 10.438 48.185 10.302C47.947 10.166 47.6297 10.098 47.233 10.098C46.8024 10.098 46.434 10.1943 46.128 10.387C45.8334 10.5683 45.652 10.8517 45.584 11.237H43.357C43.4137 10.625 43.612 10.098 43.952 9.656C44.3034 9.20267 44.7624 8.85133 45.329 8.602C45.907 8.35267 46.5474 8.228 47.25 8.228C48.0547 8.228 48.7517 8.364 49.341 8.636C49.9304 8.908 50.3837 9.299 50.701 9.809C51.0184 10.319 51.177 10.948 51.177 11.696V17H49.239L48.984 15.691C48.8594 15.9177 48.712 16.1217 48.542 16.303C48.372 16.4843 48.1737 16.643 47.947 16.779C47.7204 16.915 47.4654 17.017 47.182 17.085C46.8987 17.1643 46.587 17.204 46.247 17.204ZM46.791 15.436C47.0857 15.436 47.3464 15.385 47.573 15.283C47.811 15.1697 48.015 15.0223 48.185 14.841C48.355 14.6483 48.4854 14.433 48.576 14.195C48.678 13.9457 48.746 13.6793 48.78 13.396V13.379H47.029C46.6777 13.379 46.3887 13.4243 46.162 13.515C45.9467 13.5943 45.788 13.7133 45.686 13.872C45.584 14.0307 45.533 14.212 45.533 14.416C45.533 14.6427 45.584 14.8297 45.686 14.977C45.788 15.1243 45.9354 15.2377 46.128 15.317C46.3207 15.3963 46.5417 15.436 46.791 15.436Z" fill="black"/>
<path d="M21 29C21.5523 29 22 29.4477 22 30C22 30.5523 21.5523 31 21 31H1C0.447715 31 0 30.5523 0 30C0 29.4477 0.447715 29 1 29H21Z" fill="#00AAA4"/>
<path d="M20.966 63V53.2H24.634C25.4273 53.2 26.0853 53.3353 26.608 53.606C27.1307 53.8767 27.518 54.2407 27.77 54.698C28.022 55.1553 28.148 55.678 28.148 56.266C28.148 56.8073 28.0267 57.3067 27.784 57.764C27.5413 58.2213 27.1587 58.5947 26.636 58.884C26.1133 59.164 25.446 59.304 24.634 59.304H22.856V63H20.966ZM22.856 57.778H24.522C25.1287 57.778 25.5627 57.6427 25.824 57.372C26.0947 57.092 26.23 56.7233 26.23 56.266C26.23 55.7807 26.0947 55.4073 25.824 55.146C25.5627 54.8753 25.1287 54.74 24.522 54.74H22.856V57.778ZM29.3836 63V55.944H31.0636L31.2456 57.246C31.4136 56.938 31.6236 56.6767 31.8756 56.462C32.1369 56.2473 32.4309 56.0793 32.7576 55.958C33.0936 55.8367 33.4623 55.776 33.8636 55.776V57.778H33.2196C32.9396 57.778 32.6783 57.8107 32.4356 57.876C32.2023 57.9413 31.9969 58.0487 31.8196 58.198C31.6423 58.338 31.5069 58.534 31.4136 58.786C31.3203 59.038 31.2736 59.3553 31.2736 59.738V63H29.3836ZM38.2508 63.168C37.5414 63.168 36.9114 63.0187 36.3608 62.72C35.8194 62.412 35.3948 61.9873 35.0868 61.446C34.7881 60.8953 34.6388 60.2607 34.6388 59.542C34.6388 58.8047 34.7881 58.156 35.0868 57.596C35.3948 57.0267 35.8194 56.5833 36.3608 56.266C36.9021 55.9393 37.5321 55.776 38.2508 55.776C38.9508 55.776 39.5621 55.93 40.0848 56.238C40.6074 56.546 41.0134 56.9613 41.3028 57.484C41.5921 58.0067 41.7368 58.5993 41.7368 59.262C41.7368 59.3553 41.7368 59.4627 41.7368 59.584C41.7368 59.696 41.7274 59.8127 41.7088 59.934H35.9828V58.786H39.8328C39.8048 58.3287 39.6414 57.9693 39.3428 57.708C39.0534 57.4467 38.6894 57.316 38.2508 57.316C37.9334 57.316 37.6394 57.3907 37.3688 57.54C37.0981 57.68 36.8834 57.8993 36.7248 58.198C36.5754 58.4967 36.5008 58.8747 36.5008 59.332V59.738C36.5008 60.1207 36.5708 60.4567 36.7108 60.746C36.8601 61.026 37.0654 61.2453 37.3268 61.404C37.5881 61.5533 37.8914 61.628 38.2368 61.628C38.5821 61.628 38.8668 61.5533 39.0908 61.404C39.3241 61.2547 39.4968 61.0633 39.6088 60.83H41.5408C41.4101 61.2687 41.1908 61.6653 40.8828 62.02C40.5748 62.3747 40.1968 62.6547 39.7488 62.86C39.3008 63.0653 38.8014 63.168 38.2508 63.168ZM46.0049 66.248C45.3329 66.248 44.7449 66.164 44.2409 65.996C43.7369 65.8373 43.3449 65.59 43.0649 65.254C42.7942 64.9273 42.6589 64.5213 42.6589 64.036C42.6589 63.7093 42.7429 63.4013 42.9109 63.112C43.0789 62.8227 43.3216 62.5613 43.6389 62.328C43.9656 62.0853 44.3716 61.88 44.8569 61.712L45.5709 62.636C45.1416 62.776 44.8289 62.9487 44.6329 63.154C44.4462 63.3687 44.3529 63.5973 44.3529 63.84C44.3529 64.0547 44.4229 64.2367 44.5629 64.386C44.7122 64.5353 44.9082 64.6427 45.1509 64.708C45.4029 64.7827 45.6829 64.82 45.9909 64.82C46.2896 64.82 46.5462 64.7827 46.7609 64.708C46.9849 64.6333 47.1576 64.5213 47.2789 64.372C47.4096 64.232 47.4749 64.064 47.4749 63.868C47.4749 63.616 47.3862 63.4107 47.2089 63.252C47.0316 63.0933 46.6769 62.9953 46.1449 62.958C45.6689 62.9207 45.2442 62.8693 44.8709 62.804C44.5069 62.7293 44.1849 62.6453 43.9049 62.552C43.6249 62.4493 43.3869 62.3373 43.1909 62.216C43.0042 62.0947 42.8502 61.9733 42.7289 61.852V61.53L44.2269 59.92L45.5849 60.354L43.8209 62.09L44.3529 61.166C44.4556 61.222 44.5536 61.278 44.6469 61.334C44.7496 61.3807 44.8756 61.4273 45.0249 61.474C45.1742 61.5113 45.3702 61.5487 45.6129 61.586C45.8556 61.6233 46.1636 61.656 46.5369 61.684C47.1529 61.74 47.6569 61.8567 48.0489 62.034C48.4502 62.2113 48.7442 62.4493 48.9309 62.748C49.1176 63.0373 49.2109 63.3967 49.2109 63.826C49.2109 64.246 49.0942 64.638 48.8609 65.002C48.6369 65.3753 48.2869 65.674 47.8109 65.898C47.3349 66.1313 46.7329 66.248 46.0049 66.248ZM46.0049 60.914C45.4169 60.914 44.9082 60.802 44.4789 60.578C44.0589 60.3447 43.7322 60.0367 43.4989 59.654C43.2749 59.262 43.1629 58.828 43.1629 58.352C43.1629 57.876 43.2749 57.4467 43.4989 57.064C43.7322 56.672 44.0589 56.3593 44.4789 56.126C44.9082 55.8927 45.4169 55.776 46.0049 55.776C46.6022 55.776 47.1109 55.8927 47.5309 56.126C47.9602 56.3593 48.2869 56.672 48.5109 57.064C48.7349 57.4467 48.8469 57.876 48.8469 58.352C48.8469 58.828 48.7349 59.262 48.5109 59.654C48.2869 60.0367 47.9602 60.3447 47.5309 60.578C47.1109 60.802 46.6022 60.914 46.0049 60.914ZM46.0049 59.472C46.3689 59.472 46.6629 59.3787 46.8869 59.192C47.1109 59.0053 47.2229 58.73 47.2229 58.366C47.2229 58.002 47.1109 57.7267 46.8869 57.54C46.6629 57.344 46.3689 57.246 46.0049 57.246C45.6502 57.246 45.3562 57.344 45.1229 57.54C44.8989 57.7267 44.7869 58.002 44.7869 58.366C44.7869 58.73 44.8989 59.0053 45.1229 59.192C45.3562 59.3787 45.6502 59.472 46.0049 59.472ZM47.1809 57.288L46.8729 55.944H49.7709V57.064L47.1809 57.288ZM53.7987 63.168C53.2294 63.168 52.7394 63.0513 52.3287 62.818C51.9274 62.5753 51.6194 62.2253 51.4047 61.768C51.1901 61.3013 51.0827 60.7273 51.0827 60.046V55.944H52.9727V59.85C52.9727 60.4193 53.0894 60.8487 53.3227 61.138C53.5654 61.4273 53.9341 61.572 54.4287 61.572C54.7461 61.572 55.0261 61.502 55.2687 61.362C55.5114 61.2127 55.7027 61.0027 55.8427 60.732C55.9921 60.452 56.0667 60.1113 56.0667 59.71V55.944H57.9427V63H56.2907L56.1367 61.852C55.9314 62.2533 55.6281 62.5753 55.2267 62.818C54.8254 63.0513 54.3494 63.168 53.7987 63.168ZM59.6537 63V55.944H61.3197L61.4597 57.092C61.6744 56.7 61.9777 56.3827 62.3697 56.14C62.771 55.8973 63.247 55.776 63.7977 55.776C64.3857 55.776 64.8804 55.8973 65.2817 56.14C65.683 56.3827 65.9864 56.7373 66.1917 57.204C66.4064 57.6707 66.5137 58.2447 66.5137 58.926V63H64.6377V59.108C64.6377 58.548 64.5164 58.1187 64.2737 57.82C64.0404 57.5213 63.6764 57.372 63.1817 57.372C62.8644 57.372 62.5797 57.4467 62.3277 57.596C62.085 57.7453 61.8937 57.96 61.7537 58.24C61.6137 58.5107 61.5437 58.842 61.5437 59.234V63H59.6537ZM71.3323 63C70.8376 63 70.4036 62.9253 70.0303 62.776C69.6663 62.6173 69.3816 62.3607 69.1763 62.006C68.971 61.642 68.8683 61.1473 68.8683 60.522V57.526H67.6643V55.944H68.8683L69.0783 54.026H70.7583V55.944H72.6203V57.526H70.7583V60.55C70.7583 60.8673 70.8283 61.0867 70.9683 61.208C71.1083 61.3293 71.3463 61.39 71.6823 61.39H72.6063V63H71.3323ZM76.451 63.168C75.863 63.168 75.3776 63.0747 74.995 62.888C74.6123 62.692 74.3276 62.4353 74.141 62.118C73.9636 61.7913 73.875 61.432 73.875 61.04C73.875 60.6107 73.9823 60.2327 74.197 59.906C74.421 59.5793 74.7523 59.3227 75.191 59.136C75.639 58.9493 76.199 58.856 76.871 58.856H78.621C78.621 58.5107 78.5743 58.226 78.481 58.002C78.3876 57.7687 78.243 57.596 78.047 57.484C77.851 57.372 77.5896 57.316 77.263 57.316C76.9083 57.316 76.605 57.3953 76.353 57.554C76.1103 57.7033 75.961 57.9367 75.905 58.254H74.071C74.1176 57.75 74.281 57.316 74.561 56.952C74.8503 56.5787 75.2283 56.2893 75.695 56.084C76.171 55.8787 76.6983 55.776 77.277 55.776C77.9396 55.776 78.5136 55.888 78.999 56.112C79.4843 56.336 79.8576 56.658 80.119 57.078C80.3803 57.498 80.511 58.016 80.511 58.632V63H78.915L78.705 61.922C78.6023 62.1087 78.481 62.2767 78.341 62.426C78.201 62.5753 78.0376 62.706 77.851 62.818C77.6643 62.93 77.4543 63.014 77.221 63.07C76.9876 63.1353 76.731 63.168 76.451 63.168ZM76.899 61.712C77.1416 61.712 77.3563 61.67 77.543 61.586C77.739 61.4927 77.907 61.3713 78.047 61.222C78.187 61.0633 78.2943 60.886 78.369 60.69C78.453 60.4847 78.509 60.2653 78.537 60.032V60.018H77.095C76.8056 60.018 76.5676 60.0553 76.381 60.13C76.2036 60.1953 76.073 60.2933 75.989 60.424C75.905 60.5547 75.863 60.704 75.863 60.872C75.863 61.0587 75.905 61.2127 75.989 61.334C76.073 61.4553 76.1943 61.5487 76.353 61.614C76.5116 61.6793 76.6936 61.712 76.899 61.712ZM85.0181 63.168C84.3741 63.168 83.8141 63.0653 83.3381 62.86C82.8621 62.6547 82.4887 62.37 82.2181 62.006C81.9474 61.642 81.7934 61.2313 81.7561 60.774H83.6321C83.6787 60.9513 83.7581 61.1147 83.8701 61.264C83.9821 61.404 84.1314 61.516 84.3181 61.6C84.5047 61.684 84.7287 61.726 84.9901 61.726C85.2421 61.726 85.4474 61.6933 85.6061 61.628C85.7647 61.5533 85.8814 61.4553 85.9561 61.334C86.0401 61.2127 86.0821 61.0867 86.0821 60.956C86.0821 60.76 86.0261 60.6107 85.9141 60.508C85.8021 60.396 85.6387 60.3073 85.4241 60.242C85.2094 60.1767 84.9481 60.1113 84.6401 60.046C84.3041 59.9807 83.9727 59.9013 83.6461 59.808C83.3287 59.7053 83.0441 59.5793 82.7921 59.43C82.5401 59.2807 82.3394 59.0893 82.1901 58.856C82.0407 58.6227 81.9661 58.3333 81.9661 57.988C81.9661 57.568 82.0781 57.1947 82.3021 56.868C82.5261 56.532 82.8527 56.266 83.2821 56.07C83.7114 55.874 84.2294 55.776 84.8361 55.776C85.6854 55.776 86.3574 55.9673 86.8521 56.35C87.3467 56.7327 87.6407 57.26 87.7341 57.932H85.9561C85.9001 57.7173 85.7741 57.5493 85.5781 57.428C85.3914 57.2973 85.1394 57.232 84.8221 57.232C84.4861 57.232 84.2294 57.2927 84.0521 57.414C83.8747 57.5353 83.7861 57.694 83.7861 57.89C83.7861 58.0207 83.8421 58.1373 83.9541 58.24C84.0754 58.3427 84.2434 58.4313 84.4581 58.506C84.6727 58.5713 84.9341 58.6367 85.2421 58.702C85.7834 58.814 86.2594 58.9447 86.6701 59.094C87.0807 59.234 87.4027 59.4393 87.6361 59.71C87.8694 59.9713 87.9861 60.354 87.9861 60.858C87.9861 61.306 87.8647 61.7073 87.6221 62.062C87.3794 62.4073 87.0341 62.678 86.5861 62.874C86.1474 63.07 85.6247 63.168 85.0181 63.168ZM92.9222 63V55.314C92.9222 54.726 93.0202 54.2593 93.2162 53.914C93.4122 53.5687 93.6922 53.3167 94.0562 53.158C94.4295 52.9993 94.8635 52.92 95.3582 52.92H96.2262V54.53H95.6382C95.3395 54.53 95.1248 54.5907 94.9942 54.712C94.8728 54.824 94.8122 55.0247 94.8122 55.314V63H92.9222ZM91.9562 57.526V55.944H96.3382V57.526H91.9562ZM97.6555 63V55.944H99.3355L99.5175 57.246C99.6855 56.938 99.8955 56.6767 100.147 56.462C100.409 56.2473 100.703 56.0793 101.029 55.958C101.365 55.8367 101.734 55.776 102.135 55.776V57.778H101.491C101.211 57.778 100.95 57.8107 100.707 57.876C100.474 57.9413 100.269 58.0487 100.091 58.198C99.9142 58.338 99.7788 58.534 99.6855 58.786C99.5922 59.038 99.5455 59.3553 99.5455 59.738V63H97.6555ZM106.523 63.168C105.813 63.168 105.183 63.0187 104.633 62.72C104.091 62.412 103.667 61.9873 103.359 61.446C103.06 60.8953 102.911 60.2607 102.911 59.542C102.911 58.8047 103.06 58.156 103.359 57.596C103.667 57.0267 104.091 56.5833 104.633 56.266C105.174 55.9393 105.804 55.776 106.523 55.776C107.223 55.776 107.834 55.93 108.357 56.238C108.879 56.546 109.285 56.9613 109.575 57.484C109.864 58.0067 110.009 58.5993 110.009 59.262C110.009 59.3553 110.009 59.4627 110.009 59.584C110.009 59.696 109.999 59.8127 109.981 59.934H104.255V58.786H108.105C108.077 58.3287 107.913 57.9693 107.615 57.708C107.325 57.4467 106.961 57.316 106.523 57.316C106.205 57.316 105.911 57.3907 105.641 57.54C105.37 57.68 105.155 57.8993 104.997 58.198C104.847 58.4967 104.773 58.8747 104.773 59.332V59.738C104.773 60.1207 104.843 60.4567 104.983 60.746C105.132 61.026 105.337 61.2453 105.599 61.404C105.86 61.5533 106.163 61.628 106.509 61.628C106.854 61.628 107.139 61.5533 107.363 61.404C107.596 61.2547 107.769 61.0633 107.881 60.83H109.813C109.682 61.2687 109.463 61.6653 109.155 62.02C108.847 62.3747 108.469 62.6547 108.021 62.86C107.573 63.0653 107.073 63.168 106.523 63.168ZM114.833 63.168C114.123 63.168 113.493 63.0093 112.943 62.692C112.392 62.3747 111.963 61.9407 111.655 61.39C111.347 60.8393 111.193 60.2093 111.193 59.5C111.193 58.772 111.347 58.1327 111.655 57.582C111.963 57.022 112.392 56.5833 112.943 56.266C113.493 55.9393 114.123 55.776 114.833 55.776C115.738 55.776 116.499 56.014 117.115 56.49C117.731 56.966 118.123 57.6193 118.291 58.45H116.289C116.205 58.1233 116.027 57.8667 115.757 57.68C115.495 57.4933 115.183 57.4 114.819 57.4C114.492 57.4 114.198 57.484 113.937 57.652C113.685 57.8107 113.484 58.0487 113.335 58.366C113.195 58.674 113.125 59.0427 113.125 59.472C113.125 59.7987 113.167 60.0927 113.251 60.354C113.335 60.606 113.451 60.8253 113.601 61.012C113.75 61.1893 113.927 61.3247 114.133 61.418C114.347 61.5113 114.576 61.558 114.819 61.558C115.061 61.558 115.281 61.516 115.477 61.432C115.682 61.348 115.855 61.2313 115.995 61.082C116.135 60.9233 116.233 60.732 116.289 60.508H118.291C118.123 61.32 117.726 61.9687 117.101 62.454C116.485 62.93 115.729 63.168 114.833 63.168ZM122.412 63.168C121.843 63.168 121.353 63.0513 120.942 62.818C120.541 62.5753 120.233 62.2253 120.018 61.768C119.804 61.3013 119.696 60.7273 119.696 60.046V55.944H121.586V59.85C121.586 60.4193 121.703 60.8487 121.936 61.138C122.179 61.4273 122.548 61.572 123.042 61.572C123.36 61.572 123.64 61.502 123.882 61.362C124.125 61.2127 124.316 61.0027 124.456 60.732C124.606 60.452 124.68 60.1113 124.68 59.71V55.944H126.556V63H124.904L124.75 61.852C124.545 62.2533 124.242 62.5753 123.84 62.818C123.439 63.0513 122.963 63.168 122.412 63.168ZM131.655 63.168C130.946 63.168 130.316 63.0187 129.765 62.72C129.224 62.412 128.799 61.9873 128.491 61.446C128.193 60.8953 128.043 60.2607 128.043 59.542C128.043 58.8047 128.193 58.156 128.491 57.596C128.799 57.0267 129.224 56.5833 129.765 56.266C130.307 55.9393 130.937 55.776 131.655 55.776C132.355 55.776 132.967 55.93 133.489 56.238C134.012 56.546 134.418 56.9613 134.707 57.484C134.997 58.0067 135.141 58.5993 135.141 59.262C135.141 59.3553 135.141 59.4627 135.141 59.584C135.141 59.696 135.132 59.8127 135.113 59.934H129.387V58.786H133.237C133.209 58.3287 133.046 57.9693 132.747 57.708C132.458 57.4467 132.094 57.316 131.655 57.316C131.338 57.316 131.044 57.3907 130.773 57.54C130.503 57.68 130.288 57.8993 130.129 58.198C129.98 58.4967 129.905 58.8747 129.905 59.332V59.738C129.905 60.1207 129.975 60.4567 130.115 60.746C130.265 61.026 130.47 61.2453 130.731 61.404C130.993 61.5533 131.296 61.628 131.641 61.628C131.987 61.628 132.271 61.5533 132.495 61.404C132.729 61.2547 132.901 61.0633 133.013 60.83H134.945C134.815 61.2687 134.595 61.6653 134.287 62.02C133.979 62.3747 133.601 62.6547 133.153 62.86C132.705 63.0653 132.206 63.168 131.655 63.168ZM136.549 63V55.944H138.215L138.355 57.092C138.57 56.7 138.873 56.3827 139.265 56.14C139.667 55.8973 140.143 55.776 140.693 55.776C141.281 55.776 141.776 55.8973 142.177 56.14C142.579 56.3827 142.882 56.7373 143.087 57.204C143.302 57.6707 143.409 58.2447 143.409 58.926V63H141.533V59.108C141.533 58.548 141.412 58.1187 141.169 57.82C140.936 57.5213 140.572 57.372 140.077 57.372C139.76 57.372 139.475 57.4467 139.223 57.596C138.981 57.7453 138.789 57.96 138.649 58.24C138.509 58.5107 138.439 58.842 138.439 59.234V63H136.549ZM148.228 63C147.733 63 147.299 62.9253 146.926 62.776C146.562 62.6173 146.277 62.3607 146.072 62.006C145.867 61.642 145.764 61.1473 145.764 60.522V57.526H144.56V55.944H145.764L145.974 54.026H147.654V55.944H149.516V57.526H147.654V60.55C147.654 60.8673 147.724 61.0867 147.864 61.208C148.004 61.3293 148.242 61.39 148.578 61.39H149.502V63H148.228ZM154.177 63.168C153.467 63.168 152.837 63.0187 152.287 62.72C151.745 62.412 151.321 61.9873 151.013 61.446C150.714 60.8953 150.565 60.2607 150.565 59.542C150.565 58.8047 150.714 58.156 151.013 57.596C151.321 57.0267 151.745 56.5833 152.287 56.266C152.828 55.9393 153.458 55.776 154.177 55.776C154.877 55.776 155.488 55.93 156.011 56.238C156.533 56.546 156.939 56.9613 157.229 57.484C157.518 58.0067 157.663 58.5993 157.663 59.262C157.663 59.3553 157.663 59.4627 157.663 59.584C157.663 59.696 157.653 59.8127 157.635 59.934H151.909V58.786H155.759C155.731 58.3287 155.567 57.9693 155.269 57.708C154.979 57.4467 154.615 57.316 154.177 57.316C153.859 57.316 153.565 57.3907 153.295 57.54C153.024 57.68 152.809 57.8993 152.651 58.198C152.501 58.4967 152.427 58.8747 152.427 59.332V59.738C152.427 60.1207 152.497 60.4567 152.637 60.746C152.786 61.026 152.991 61.2453 153.253 61.404C153.514 61.5533 153.817 61.628 154.163 61.628C154.508 61.628 154.793 61.5533 155.017 61.404C155.25 61.2547 155.423 61.0633 155.535 60.83H157.467C157.336 61.2687 157.117 61.6653 156.809 62.02C156.501 62.3747 156.123 62.6547 155.675 62.86C155.227 63.0653 154.727 63.168 154.177 63.168ZM161.955 63.168C161.311 63.168 160.751 63.0653 160.275 62.86C159.799 62.6547 159.425 62.37 159.155 62.006C158.884 61.642 158.73 61.2313 158.693 60.774H160.569C160.615 60.9513 160.695 61.1147 160.807 61.264C160.919 61.404 161.068 61.516 161.255 61.6C161.441 61.684 161.665 61.726 161.927 61.726C162.179 61.726 162.384 61.6933 162.543 61.628C162.701 61.5533 162.818 61.4553 162.893 61.334C162.977 61.2127 163.019 61.0867 163.019 60.956C163.019 60.76 162.963 60.6107 162.851 60.508C162.739 60.396 162.575 60.3073 162.361 60.242C162.146 60.1767 161.885 60.1113 161.577 60.046C161.241 59.9807 160.909 59.9013 160.583 59.808C160.265 59.7053 159.981 59.5793 159.729 59.43C159.477 59.2807 159.276 59.0893 159.127 58.856C158.977 58.6227 158.903 58.3333 158.903 57.988C158.903 57.568 159.015 57.1947 159.239 56.868C159.463 56.532 159.789 56.266 160.219 56.07C160.648 55.874 161.166 55.776 161.773 55.776C162.622 55.776 163.294 55.9673 163.789 56.35C164.283 56.7327 164.577 57.26 164.671 57.932H162.893C162.837 57.7173 162.711 57.5493 162.515 57.428C162.328 57.2973 162.076 57.232 161.759 57.232C161.423 57.232 161.166 57.2927 160.989 57.414C160.811 57.5353 160.723 57.694 160.723 57.89C160.723 58.0207 160.779 58.1373 160.891 58.24C161.012 58.3427 161.18 58.4313 161.395 58.506C161.609 58.5713 161.871 58.6367 162.179 58.702C162.72 58.814 163.196 58.9447 163.607 59.094C164.017 59.234 164.339 59.4393 164.573 59.71C164.806 59.9713 164.923 60.354 164.923 60.858C164.923 61.306 164.801 61.7073 164.559 62.062C164.316 62.4073 163.971 62.678 163.523 62.874C163.084 63.07 162.561 63.168 161.955 63.168Z" fill="#737886"/>
<path d="M20.966 98V88.2H27.406V89.726H22.856V92.288H26.986V93.758H22.856V96.474H27.406V98H20.966ZM28.9461 98V90.944H30.6121L30.7521 92.092C30.9668 91.7 31.2701 91.3827 31.6621 91.14C32.0634 90.8973 32.5394 90.776 33.0901 90.776C33.6781 90.776 34.1728 90.8973 34.5741 91.14C34.9754 91.3827 35.2788 91.7373 35.4841 92.204C35.6988 92.6707 35.8061 93.2447 35.8061 93.926V98H33.9301V94.108C33.9301 93.548 33.8088 93.1187 33.5661 92.82C33.3328 92.5213 32.9688 92.372 32.4741 92.372C32.1568 92.372 31.8721 92.4467 31.6201 92.596C31.3774 92.7453 31.1861 92.96 31.0461 93.24C30.9061 93.5107 30.8361 93.842 30.8361 94.234V98H28.9461ZM39.282 98L36.692 90.944H38.68L40.43 96.222L42.18 90.944H44.154L41.578 98H39.282ZM45.1681 98V90.944H47.0581V98H45.1681ZM44.6361 90.342L44.4681 89.096L47.5341 87.346L47.7581 88.788L44.6361 90.342ZM52.0925 98.168C51.4205 98.168 50.8138 98.014 50.2725 97.706C49.7405 97.3887 49.3158 96.9547 48.9985 96.404C48.6905 95.844 48.5365 95.2047 48.5365 94.486C48.5365 93.7487 48.6905 93.1047 48.9985 92.554C49.3158 91.994 49.7452 91.56 50.2865 91.252C50.8278 90.9347 51.4345 90.776 52.1065 90.776C52.7878 90.776 53.3945 90.9347 53.9265 91.252C54.4678 91.56 54.8925 91.994 55.2005 92.554C55.5178 93.1047 55.6765 93.744 55.6765 94.472C55.6765 95.2 55.5178 95.844 55.2005 96.404C54.8925 96.9547 54.4678 97.3887 53.9265 97.706C53.3852 98.014 52.7738 98.168 52.0925 98.168ZM52.0925 96.53C52.4098 96.53 52.6898 96.4553 52.9325 96.306C53.1845 96.1567 53.3805 95.928 53.5205 95.62C53.6698 95.312 53.7445 94.9293 53.7445 94.472C53.7445 94.0147 53.6698 93.6367 53.5205 93.338C53.3805 93.03 53.1845 92.8013 52.9325 92.652C52.6898 92.4933 52.4145 92.414 52.1065 92.414C51.8078 92.414 51.5325 92.4933 51.2805 92.652C51.0285 92.8013 50.8278 93.03 50.6785 93.338C50.5385 93.6367 50.4685 94.0147 50.4685 94.472C50.4685 94.9293 50.5385 95.312 50.6785 95.62C50.8278 95.928 51.0238 96.1567 51.2665 96.306C51.5185 96.4553 51.7938 96.53 52.0925 96.53ZM60.0494 98.168C59.4054 98.168 58.8454 98.0653 58.3694 97.86C57.8934 97.6547 57.5201 97.37 57.2494 97.006C56.9787 96.642 56.8247 96.2313 56.7874 95.774H58.6634C58.7101 95.9513 58.7894 96.1147 58.9014 96.264C59.0134 96.404 59.1627 96.516 59.3494 96.6C59.5361 96.684 59.7601 96.726 60.0214 96.726C60.2734 96.726 60.4787 96.6933 60.6374 96.628C60.7961 96.5533 60.9127 96.4553 60.9874 96.334C61.0714 96.2127 61.1134 96.0867 61.1134 95.956C61.1134 95.76 61.0574 95.6107 60.9454 95.508C60.8334 95.396 60.6701 95.3073 60.4554 95.242C60.2407 95.1767 59.9794 95.1113 59.6714 95.046C59.3354 94.9807 59.0041 94.9013 58.6774 94.808C58.3601 94.7053 58.0754 94.5793 57.8234 94.43C57.5714 94.2807 57.3707 94.0893 57.2214 93.856C57.0721 93.6227 56.9974 93.3333 56.9974 92.988C56.9974 92.568 57.1094 92.1947 57.3334 91.868C57.5574 91.532 57.8841 91.266 58.3134 91.07C58.7427 90.874 59.2607 90.776 59.8674 90.776C60.7167 90.776 61.3887 90.9673 61.8834 91.35C62.3781 91.7327 62.6721 92.26 62.7654 92.932H60.9874C60.9314 92.7173 60.8054 92.5493 60.6094 92.428C60.4227 92.2973 60.1707 92.232 59.8534 92.232C59.5174 92.232 59.2607 92.2927 59.0834 92.414C58.9061 92.5353 58.8174 92.694 58.8174 92.89C58.8174 93.0207 58.8734 93.1373 58.9854 93.24C59.1067 93.3427 59.2747 93.4313 59.4894 93.506C59.7041 93.5713 59.9654 93.6367 60.2734 93.702C60.8147 93.814 61.2907 93.9447 61.7014 94.094C62.1121 94.234 62.4341 94.4393 62.6674 94.71C62.9007 94.9713 63.0174 95.354 63.0174 95.858C63.0174 96.306 62.8961 96.7073 62.6534 97.062C62.4107 97.4073 62.0654 97.678 61.6174 97.874C61.1787 98.07 60.6561 98.168 60.0494 98.168ZM68.5275 101.08L70.2355 97.216H69.8155L66.9875 90.944H69.0455L71.0615 95.494L72.8815 90.944H74.8835L70.5295 101.08H68.5275ZM82.4836 98.168C81.7743 98.168 81.1443 98.0187 80.5936 97.72C80.0523 97.412 79.6276 96.9873 79.3196 96.446C79.021 95.8953 78.8716 95.2607 78.8716 94.542C78.8716 93.8047 79.021 93.156 79.3196 92.596C79.6276 92.0267 80.0523 91.5833 80.5936 91.266C81.135 90.9393 81.765 90.776 82.4836 90.776C83.1836 90.776 83.795 90.93 84.3176 91.238C84.8403 91.546 85.2463 91.9613 85.5356 92.484C85.825 93.0067 85.9696 93.5993 85.9696 94.262C85.9696 94.3553 85.9696 94.4627 85.9696 94.584C85.9696 94.696 85.9603 94.8127 85.9416 94.934H80.2156V93.786H84.0656C84.0376 93.3287 83.8743 92.9693 83.5756 92.708C83.2863 92.4467 82.9223 92.316 82.4836 92.316C82.1663 92.316 81.8723 92.3907 81.6016 92.54C81.331 92.68 81.1163 92.8993 80.9576 93.198C80.8083 93.4967 80.7336 93.8747 80.7336 94.332V94.738C80.7336 95.1207 80.8036 95.4567 80.9436 95.746C81.093 96.026 81.2983 96.2453 81.5596 96.404C81.821 96.5533 82.1243 96.628 82.4696 96.628C82.815 96.628 83.0996 96.5533 83.3236 96.404C83.557 96.2547 83.7296 96.0633 83.8416 95.83H85.7736C85.643 96.2687 85.4236 96.6653 85.1156 97.02C84.8076 97.3747 84.4296 97.6547 83.9816 97.86C83.5336 98.0653 83.0343 98.168 82.4836 98.168ZM87.3775 98V90.944H89.0435L89.1835 92.092C89.3982 91.7 89.7015 91.3827 90.0935 91.14C90.4948 90.8973 90.9708 90.776 91.5215 90.776C92.1095 90.776 92.6042 90.8973 93.0055 91.14C93.4068 91.3827 93.7102 91.7373 93.9155 92.204C94.1302 92.6707 94.2375 93.2447 94.2375 93.926V98H92.3615V94.108C92.3615 93.548 92.2402 93.1187 91.9975 92.82C91.7642 92.5213 91.4002 92.372 90.9055 92.372C90.5882 92.372 90.3035 92.4467 90.0515 92.596C89.8088 92.7453 89.6175 92.96 89.4775 93.24C89.3375 93.5107 89.2675 93.842 89.2675 94.234V98H87.3775ZM99.0561 98C98.5615 98 98.1275 97.9253 97.7541 97.776C97.3901 97.6173 97.1055 97.3607 96.9001 97.006C96.6948 96.642 96.5921 96.1473 96.5921 95.522V92.526H95.3881V90.944H96.5921L96.8021 89.026H98.4821V90.944H100.344V92.526H98.4821V95.55C98.4821 95.8673 98.5521 96.0867 98.6921 96.208C98.8321 96.3293 99.0701 96.39 99.4061 96.39H100.33V98H99.0561ZM101.795 98V90.944H103.475L103.657 92.246C103.825 91.938 104.035 91.6767 104.287 91.462C104.548 91.2473 104.842 91.0793 105.169 90.958C105.505 90.8367 105.873 90.776 106.275 90.776V92.778H105.631C105.351 92.778 105.089 92.8107 104.847 92.876C104.613 92.9413 104.408 93.0487 104.231 93.198C104.053 93.338 103.918 93.534 103.825 93.786C103.731 94.038 103.685 94.3553 103.685 94.738V98H101.795ZM110.662 98.168C109.953 98.168 109.323 98.0187 108.772 97.72C108.231 97.412 107.806 96.9873 107.498 96.446C107.199 95.8953 107.05 95.2607 107.05 94.542C107.05 93.8047 107.199 93.156 107.498 92.596C107.806 92.0267 108.231 91.5833 108.772 91.266C109.313 90.9393 109.943 90.776 110.662 90.776C111.362 90.776 111.973 90.93 112.496 91.238C113.019 91.546 113.425 91.9613 113.714 92.484C114.003 93.0067 114.148 93.5993 114.148 94.262C114.148 94.3553 114.148 94.4627 114.148 94.584C114.148 94.696 114.139 94.8127 114.12 94.934H108.394V93.786H112.244C112.216 93.3287 112.053 92.9693 111.754 92.708C111.465 92.4467 111.101 92.316 110.662 92.316C110.345 92.316 110.051 92.3907 109.78 92.54C109.509 92.68 109.295 92.8993 109.136 93.198C108.987 93.4967 108.912 93.8747 108.912 94.332V94.738C108.912 95.1207 108.982 95.4567 109.122 95.746C109.271 96.026 109.477 96.2453 109.738 96.404C109.999 96.5533 110.303 96.628 110.648 96.628C110.993 96.628 111.278 96.5533 111.502 96.404C111.735 96.2547 111.908 96.0633 112.02 95.83H113.952C113.821 96.2687 113.602 96.6653 113.294 97.02C112.986 97.3747 112.608 97.6547 112.16 97.86C111.712 98.0653 111.213 98.168 110.662 98.168ZM118.416 101.248C117.744 101.248 117.156 101.164 116.652 100.996C116.148 100.837 115.756 100.59 115.476 100.254C115.205 99.9273 115.07 99.5213 115.07 99.036C115.07 98.7093 115.154 98.4013 115.322 98.112C115.49 97.8227 115.733 97.5613 116.05 97.328C116.377 97.0853 116.783 96.88 117.268 96.712L117.982 97.636C117.553 97.776 117.24 97.9487 117.044 98.154C116.857 98.3687 116.764 98.5973 116.764 98.84C116.764 99.0547 116.834 99.2367 116.974 99.386C117.123 99.5353 117.319 99.6427 117.562 99.708C117.814 99.7827 118.094 99.82 118.402 99.82C118.701 99.82 118.957 99.7827 119.172 99.708C119.396 99.6333 119.569 99.5213 119.69 99.372C119.821 99.232 119.886 99.064 119.886 98.868C119.886 98.616 119.797 98.4107 119.62 98.252C119.443 98.0933 119.088 97.9953 118.556 97.958C118.08 97.9207 117.655 97.8693 117.282 97.804C116.918 97.7293 116.596 97.6453 116.316 97.552C116.036 97.4493 115.798 97.3373 115.602 97.216C115.415 97.0947 115.261 96.9733 115.14 96.852V96.53L116.638 94.92L117.996 95.354L116.232 97.09L116.764 96.166C116.867 96.222 116.965 96.278 117.058 96.334C117.161 96.3807 117.287 96.4273 117.436 96.474C117.585 96.5113 117.781 96.5487 118.024 96.586C118.267 96.6233 118.575 96.656 118.948 96.684C119.564 96.74 120.068 96.8567 120.46 97.034C120.861 97.2113 121.155 97.4493 121.342 97.748C121.529 98.0373 121.622 98.3967 121.622 98.826C121.622 99.246 121.505 99.638 121.272 100.002C121.048 100.375 120.698 100.674 120.222 100.898C119.746 101.131 119.144 101.248 118.416 101.248ZM118.416 95.914C117.828 95.914 117.319 95.802 116.89 95.578C116.47 95.3447 116.143 95.0367 115.91 94.654C115.686 94.262 115.574 93.828 115.574 93.352C115.574 92.876 115.686 92.4467 115.91 92.064C116.143 91.672 116.47 91.3593 116.89 91.126C117.319 90.8927 117.828 90.776 118.416 90.776C119.013 90.776 119.522 90.8927 119.942 91.126C120.371 91.3593 120.698 91.672 120.922 92.064C121.146 92.4467 121.258 92.876 121.258 93.352C121.258 93.828 121.146 94.262 120.922 94.654C120.698 95.0367 120.371 95.3447 119.942 95.578C119.522 95.802 119.013 95.914 118.416 95.914ZM118.416 94.472C118.78 94.472 119.074 94.3787 119.298 94.192C119.522 94.0053 119.634 93.73 119.634 93.366C119.634 93.002 119.522 92.7267 119.298 92.54C119.074 92.344 118.78 92.246 118.416 92.246C118.061 92.246 117.767 92.344 117.534 92.54C117.31 92.7267 117.198 93.002 117.198 93.366C117.198 93.73 117.31 94.0053 117.534 94.192C117.767 94.3787 118.061 94.472 118.416 94.472ZM119.592 92.288L119.284 90.944H122.182V92.064L119.592 92.288ZM125.958 98.168C125.37 98.168 124.885 98.0747 124.502 97.888C124.119 97.692 123.835 97.4353 123.648 97.118C123.471 96.7913 123.382 96.432 123.382 96.04C123.382 95.6107 123.489 95.2327 123.704 94.906C123.928 94.5793 124.259 94.3227 124.698 94.136C125.146 93.9493 125.706 93.856 126.378 93.856H128.128C128.128 93.5107 128.081 93.226 127.988 93.002C127.895 92.7687 127.75 92.596 127.554 92.484C127.358 92.372 127.097 92.316 126.77 92.316C126.415 92.316 126.112 92.3953 125.86 92.554C125.617 92.7033 125.468 92.9367 125.412 93.254H123.578C123.625 92.75 123.788 92.316 124.068 91.952C124.357 91.5787 124.735 91.2893 125.202 91.084C125.678 90.8787 126.205 90.776 126.784 90.776C127.447 90.776 128.021 90.888 128.506 91.112C128.991 91.336 129.365 91.658 129.626 92.078C129.887 92.498 130.018 93.016 130.018 93.632V98H128.422L128.212 96.922C128.109 97.1087 127.988 97.2767 127.848 97.426C127.708 97.5753 127.545 97.706 127.358 97.818C127.171 97.93 126.961 98.014 126.728 98.07C126.495 98.1353 126.238 98.168 125.958 98.168ZM126.406 96.712C126.649 96.712 126.863 96.67 127.05 96.586C127.246 96.4927 127.414 96.3713 127.554 96.222C127.694 96.0633 127.801 95.886 127.876 95.69C127.96 95.4847 128.016 95.2653 128.044 95.032V95.018H126.602C126.313 95.018 126.075 95.0553 125.888 95.13C125.711 95.1953 125.58 95.2933 125.496 95.424C125.412 95.5547 125.37 95.704 125.37 95.872C125.37 96.0587 125.412 96.2127 125.496 96.334C125.58 96.4553 125.701 96.5487 125.86 96.614C126.019 96.6793 126.201 96.712 126.406 96.712ZM134.525 98.168C133.881 98.168 133.321 98.0653 132.845 97.86C132.369 97.6547 131.996 97.37 131.725 97.006C131.454 96.642 131.3 96.2313 131.263 95.774H133.139C133.186 95.9513 133.265 96.1147 133.377 96.264C133.489 96.404 133.638 96.516 133.825 96.6C134.012 96.684 134.236 96.726 134.497 96.726C134.749 96.726 134.954 96.6933 135.113 96.628C135.272 96.5533 135.388 96.4553 135.463 96.334C135.547 96.2127 135.589 96.0867 135.589 95.956C135.589 95.76 135.533 95.6107 135.421 95.508C135.309 95.396 135.146 95.3073 134.931 95.242C134.716 95.1767 134.455 95.1113 134.147 95.046C133.811 94.9807 133.48 94.9013 133.153 94.808C132.836 94.7053 132.551 94.5793 132.299 94.43C132.047 94.2807 131.846 94.0893 131.697 93.856C131.548 93.6227 131.473 93.3333 131.473 92.988C131.473 92.568 131.585 92.1947 131.809 91.868C132.033 91.532 132.36 91.266 132.789 91.07C133.218 90.874 133.736 90.776 134.343 90.776C135.192 90.776 135.864 90.9673 136.359 91.35C136.854 91.7327 137.148 92.26 137.241 92.932H135.463C135.407 92.7173 135.281 92.5493 135.085 92.428C134.898 92.2973 134.646 92.232 134.329 92.232C133.993 92.232 133.736 92.2927 133.559 92.414C133.382 92.5353 133.293 92.694 133.293 92.89C133.293 93.0207 133.349 93.1373 133.461 93.24C133.582 93.3427 133.75 93.4313 133.965 93.506C134.18 93.5713 134.441 93.6367 134.749 93.702C135.29 93.814 135.766 93.9447 136.177 94.094C136.588 94.234 136.91 94.4393 137.143 94.71C137.376 94.9713 137.493 95.354 137.493 95.858C137.493 96.306 137.372 96.7073 137.129 97.062C136.886 97.4073 136.541 97.678 136.093 97.874C135.654 98.07 135.132 98.168 134.525 98.168Z" fill="#737886"/>
<path d="M25.362 133.168C24.382 133.168 23.5373 132.958 22.828 132.538C22.128 132.109 21.5867 131.516 21.204 130.76C20.8307 129.995 20.644 129.113 20.644 128.114C20.644 127.115 20.8307 126.233 21.204 125.468C21.5867 124.703 22.128 124.105 22.828 123.676C23.5373 123.247 24.382 123.032 25.362 123.032C26.5473 123.032 27.518 123.326 28.274 123.914C29.03 124.502 29.5013 125.333 29.688 126.406H27.63C27.5087 125.883 27.252 125.477 26.86 125.188C26.4773 124.889 25.9733 124.74 25.348 124.74C24.7693 124.74 24.27 124.88 23.85 125.16C23.4393 125.431 23.122 125.818 22.898 126.322C22.674 126.817 22.562 127.414 22.562 128.114C22.562 128.805 22.674 129.402 22.898 129.906C23.122 130.41 23.4393 130.797 23.85 131.068C24.27 131.339 24.7693 131.474 25.348 131.474C25.9733 131.474 26.4773 131.339 26.86 131.068C27.2427 130.788 27.4947 130.401 27.616 129.906H29.688C29.5013 130.923 29.03 131.721 28.274 132.3C27.518 132.879 26.5473 133.168 25.362 133.168ZM33.4999 133.168C32.9119 133.168 32.4266 133.075 32.0439 132.888C31.6613 132.692 31.3766 132.435 31.1899 132.118C31.0126 131.791 30.9239 131.432 30.9239 131.04C30.9239 130.611 31.0313 130.233 31.2459 129.906C31.4699 129.579 31.8013 129.323 32.2399 129.136C32.6879 128.949 33.2479 128.856 33.9199 128.856H35.6699C35.6699 128.511 35.6233 128.226 35.5299 128.002C35.4366 127.769 35.2919 127.596 35.0959 127.484C34.8999 127.372 34.6386 127.316 34.3119 127.316C33.9573 127.316 33.6539 127.395 33.4019 127.554C33.1593 127.703 33.0099 127.937 32.9539 128.254H31.1199C31.1666 127.75 31.3299 127.316 31.6099 126.952C31.8993 126.579 32.2773 126.289 32.7439 126.084C33.2199 125.879 33.7473 125.776 34.3259 125.776C34.9886 125.776 35.5626 125.888 36.0479 126.112C36.5333 126.336 36.9066 126.658 37.1679 127.078C37.4293 127.498 37.5599 128.016 37.5599 128.632V133H35.9639L35.7539 131.922C35.6513 132.109 35.5299 132.277 35.3899 132.426C35.2499 132.575 35.0866 132.706 34.8999 132.818C34.7133 132.93 34.5033 133.014 34.2699 133.07C34.0366 133.135 33.7799 133.168 33.4999 133.168ZM33.9479 131.712C34.1906 131.712 34.4053 131.67 34.5919 131.586C34.7879 131.493 34.9559 131.371 35.0959 131.222C35.2359 131.063 35.3433 130.886 35.4179 130.69C35.5019 130.485 35.5579 130.265 35.5859 130.032V130.018H34.1439C33.8546 130.018 33.6166 130.055 33.4299 130.13C33.2526 130.195 33.1219 130.293 33.0379 130.424C32.9539 130.555 32.9119 130.704 32.9119 130.872C32.9119 131.059 32.9539 131.213 33.0379 131.334C33.1219 131.455 33.2433 131.549 33.4019 131.614C33.5606 131.679 33.7426 131.712 33.9479 131.712ZM39.1831 133V125.944H40.8491L41.0031 126.882C41.2271 126.546 41.5211 126.28 41.8851 126.084C42.2584 125.879 42.6831 125.776 43.1591 125.776C43.5137 125.776 43.8311 125.823 44.1111 125.916C44.3911 126.009 44.6384 126.145 44.8531 126.322C45.0771 126.499 45.2591 126.723 45.3991 126.994C45.6604 126.611 46.0011 126.313 46.4211 126.098C46.8411 125.883 47.2984 125.776 47.7931 125.776C48.4091 125.776 48.9224 125.902 49.3331 126.154C49.7437 126.397 50.0517 126.751 50.2571 127.218C50.4717 127.685 50.5791 128.259 50.5791 128.94V133H48.7031V129.108C48.7031 128.548 48.5911 128.119 48.3671 127.82C48.1524 127.521 47.8164 127.372 47.3591 127.372C47.0604 127.372 46.7944 127.447 46.5611 127.596C46.3277 127.745 46.1457 127.96 46.0151 128.24C45.8937 128.52 45.8331 128.856 45.8331 129.248V133H43.9431V129.108C43.9431 128.548 43.8311 128.119 43.6071 127.82C43.3831 127.521 43.0377 127.372 42.5711 127.372C42.2817 127.372 42.0204 127.447 41.7871 127.596C41.5631 127.745 41.3857 127.96 41.2551 128.24C41.1337 128.52 41.0731 128.856 41.0731 129.248V133H39.1831ZM56.3948 133.168C56.0308 133.168 55.7041 133.121 55.4147 133.028C55.1347 132.935 54.8827 132.809 54.6588 132.65C54.4441 132.482 54.2621 132.295 54.1127 132.09L53.9027 133H52.2227V122.92H54.1127V126.924C54.3368 126.597 54.6308 126.327 54.9947 126.112C55.3681 125.888 55.8301 125.776 56.3808 125.776C57.0341 125.776 57.6128 125.939 58.1168 126.266C58.6301 126.583 59.0314 127.022 59.3208 127.582C59.6194 128.133 59.7688 128.767 59.7688 129.486C59.7688 130.186 59.6194 130.816 59.3208 131.376C59.0314 131.936 58.6348 132.375 58.1308 132.692C57.6268 133.009 57.0481 133.168 56.3948 133.168ZM55.9468 131.516C56.3201 131.516 56.6468 131.432 56.9268 131.264C57.2161 131.087 57.4401 130.849 57.5988 130.55C57.7574 130.242 57.8368 129.887 57.8368 129.486C57.8368 129.085 57.7574 128.73 57.5988 128.422C57.4401 128.105 57.2161 127.862 56.9268 127.694C56.6468 127.517 56.3201 127.428 55.9468 127.428C55.5828 127.428 55.2561 127.517 54.9668 127.694C54.6868 127.862 54.4628 128.1 54.2948 128.408C54.1361 128.716 54.0568 129.071 54.0568 129.472C54.0568 129.873 54.1361 130.233 54.2948 130.55C54.4628 130.858 54.6868 131.096 54.9668 131.264C55.2561 131.432 55.5828 131.516 55.9468 131.516ZM61.2986 133V125.944H63.1886V133H61.2986ZM62.2506 124.978C61.9146 124.978 61.6346 124.88 61.4106 124.684C61.1959 124.479 61.0886 124.222 61.0886 123.914C61.0886 123.606 61.1959 123.354 61.4106 123.158C61.6346 122.953 61.9146 122.85 62.2506 122.85C62.5959 122.85 62.8759 122.953 63.0906 123.158C63.3146 123.354 63.4266 123.606 63.4266 123.914C63.4266 124.222 63.3146 124.479 63.0906 124.684C62.8759 124.88 62.5959 124.978 62.2506 124.978ZM68.2904 133.168C67.6184 133.168 67.0117 133.014 66.4704 132.706C65.9384 132.389 65.5137 131.955 65.1964 131.404C64.8884 130.844 64.7344 130.205 64.7344 129.486C64.7344 128.749 64.8884 128.105 65.1964 127.554C65.5137 126.994 65.943 126.56 66.4844 126.252C67.0257 125.935 67.6324 125.776 68.3044 125.776C68.9857 125.776 69.5924 125.935 70.1244 126.252C70.6657 126.56 71.0904 126.994 71.3984 127.554C71.7157 128.105 71.8744 128.744 71.8744 129.472C71.8744 130.2 71.7157 130.844 71.3984 131.404C71.0904 131.955 70.6657 132.389 70.1244 132.706C69.583 133.014 68.9717 133.168 68.2904 133.168ZM68.2904 131.53C68.6077 131.53 68.8877 131.455 69.1304 131.306C69.3824 131.157 69.5784 130.928 69.7184 130.62C69.8677 130.312 69.9424 129.929 69.9424 129.472C69.9424 129.015 69.8677 128.637 69.7184 128.338C69.5784 128.03 69.3824 127.801 69.1304 127.652C68.8877 127.493 68.6124 127.414 68.3044 127.414C68.0057 127.414 67.7304 127.493 67.4784 127.652C67.2264 127.801 67.0257 128.03 66.8764 128.338C66.7364 128.637 66.6664 129.015 66.6664 129.472C66.6664 129.929 66.7364 130.312 66.8764 130.62C67.0257 130.928 67.2217 131.157 67.4644 131.306C67.7164 131.455 67.9917 131.53 68.2904 131.53ZM76.2473 133.168C75.6033 133.168 75.0433 133.065 74.5673 132.86C74.0913 132.655 73.718 132.37 73.4473 132.006C73.1766 131.642 73.0226 131.231 72.9853 130.774H74.8613C74.908 130.951 74.9873 131.115 75.0993 131.264C75.2113 131.404 75.3606 131.516 75.5473 131.6C75.734 131.684 75.958 131.726 76.2193 131.726C76.4713 131.726 76.6766 131.693 76.8353 131.628C76.994 131.553 77.1106 131.455 77.1853 131.334C77.2693 131.213 77.3113 131.087 77.3113 130.956C77.3113 130.76 77.2553 130.611 77.1433 130.508C77.0313 130.396 76.868 130.307 76.6533 130.242C76.4386 130.177 76.1773 130.111 75.8693 130.046C75.5333 129.981 75.202 129.901 74.8753 129.808C74.558 129.705 74.2733 129.579 74.0213 129.43C73.7693 129.281 73.5686 129.089 73.4193 128.856C73.27 128.623 73.1953 128.333 73.1953 127.988C73.1953 127.568 73.3073 127.195 73.5313 126.868C73.7553 126.532 74.082 126.266 74.5113 126.07C74.9406 125.874 75.4586 125.776 76.0653 125.776C76.9146 125.776 77.5866 125.967 78.0813 126.35C78.576 126.733 78.87 127.26 78.9633 127.932H77.1853C77.1293 127.717 77.0033 127.549 76.8073 127.428C76.6206 127.297 76.3686 127.232 76.0513 127.232C75.7153 127.232 75.4586 127.293 75.2813 127.414C75.104 127.535 75.0153 127.694 75.0153 127.89C75.0153 128.021 75.0713 128.137 75.1833 128.24C75.3046 128.343 75.4726 128.431 75.6873 128.506C75.902 128.571 76.1633 128.637 76.4713 128.702C77.0126 128.814 77.4886 128.945 77.8993 129.094C78.31 129.234 78.632 129.439 78.8653 129.71C79.0986 129.971 79.2153 130.354 79.2153 130.858C79.2153 131.306 79.094 131.707 78.8513 132.062C78.6086 132.407 78.2633 132.678 77.8153 132.874C77.3766 133.07 76.854 133.168 76.2473 133.168ZM84.7254 136.08L86.4334 132.216H86.0134L83.1854 125.944H85.2434L87.2594 130.494L89.0794 125.944H91.0814L86.7274 136.08H84.7254ZM98.4295 133.168C97.7855 133.168 97.2069 133.009 96.6935 132.692C96.1895 132.375 95.7929 131.936 95.5035 131.376C95.2142 130.816 95.0695 130.186 95.0695 129.486C95.0695 128.767 95.2142 128.133 95.5035 127.582C95.8022 127.022 96.2082 126.583 96.7215 126.266C97.2442 125.939 97.8275 125.776 98.4715 125.776C98.9755 125.776 99.4189 125.869 99.8015 126.056C100.184 126.243 100.492 126.509 100.726 126.854V122.92H102.616V133H100.936L100.726 132.034C100.586 132.23 100.408 132.417 100.194 132.594C99.9882 132.771 99.7409 132.911 99.4515 133.014C99.1622 133.117 98.8215 133.168 98.4295 133.168ZM98.8775 131.516C99.2509 131.516 99.5775 131.432 99.8575 131.264C100.147 131.087 100.371 130.844 100.53 130.536C100.688 130.228 100.768 129.873 100.768 129.472C100.768 129.071 100.688 128.716 100.53 128.408C100.371 128.1 100.147 127.862 99.8575 127.694C99.5775 127.517 99.2509 127.428 98.8775 127.428C98.5229 127.428 98.2009 127.517 97.9115 127.694C97.6222 127.862 97.3935 128.1 97.2255 128.408C97.0669 128.716 96.9875 129.066 96.9875 129.458C96.9875 129.869 97.0669 130.228 97.2255 130.536C97.3935 130.844 97.6175 131.087 97.8975 131.264C98.1869 131.432 98.5135 131.516 98.8775 131.516ZM107.715 133.168C107.006 133.168 106.376 133.019 105.825 132.72C105.284 132.412 104.859 131.987 104.551 131.446C104.253 130.895 104.103 130.261 104.103 129.542C104.103 128.805 104.253 128.156 104.551 127.596C104.859 127.027 105.284 126.583 105.825 126.266C106.367 125.939 106.997 125.776 107.715 125.776C108.415 125.776 109.027 125.93 109.549 126.238C110.072 126.546 110.478 126.961 110.767 127.484C111.057 128.007 111.201 128.599 111.201 129.262C111.201 129.355 111.201 129.463 111.201 129.584C111.201 129.696 111.192 129.813 111.173 129.934H105.447V128.786H109.297C109.269 128.329 109.106 127.969 108.807 127.708C108.518 127.447 108.154 127.316 107.715 127.316C107.398 127.316 107.104 127.391 106.833 127.54C106.563 127.68 106.348 127.899 106.189 128.198C106.04 128.497 105.965 128.875 105.965 129.332V129.738C105.965 130.121 106.035 130.457 106.175 130.746C106.325 131.026 106.53 131.245 106.791 131.404C107.053 131.553 107.356 131.628 107.701 131.628C108.047 131.628 108.331 131.553 108.555 131.404C108.789 131.255 108.961 131.063 109.073 130.83H111.005C110.875 131.269 110.655 131.665 110.347 132.02C110.039 132.375 109.661 132.655 109.213 132.86C108.765 133.065 108.266 133.168 107.715 133.168ZM114.226 133L111.636 125.944H113.624L115.374 131.222L117.124 125.944H119.098L116.522 133H114.226ZM123.116 133.168C122.444 133.168 121.837 133.014 121.296 132.706C120.764 132.389 120.339 131.955 120.022 131.404C119.714 130.844 119.56 130.205 119.56 129.486C119.56 128.749 119.714 128.105 120.022 127.554C120.339 126.994 120.768 126.56 121.31 126.252C121.851 125.935 122.458 125.776 123.13 125.776C123.811 125.776 124.418 125.935 124.95 126.252C125.491 126.56 125.916 126.994 126.224 127.554C126.541 128.105 126.7 128.744 126.7 129.472C126.7 130.2 126.541 130.844 126.224 131.404C125.916 131.955 125.491 132.389 124.95 132.706C124.408 133.014 123.797 133.168 123.116 133.168ZM123.116 131.53C123.433 131.53 123.713 131.455 123.956 131.306C124.208 131.157 124.404 130.928 124.544 130.62C124.693 130.312 124.768 129.929 124.768 129.472C124.768 129.015 124.693 128.637 124.544 128.338C124.404 128.03 124.208 127.801 123.956 127.652C123.713 127.493 123.438 127.414 123.13 127.414C122.831 127.414 122.556 127.493 122.304 127.652C122.052 127.801 121.851 128.03 121.702 128.338C121.562 128.637 121.492 129.015 121.492 129.472C121.492 129.929 121.562 130.312 121.702 130.62C121.851 130.928 122.047 131.157 122.29 131.306C122.542 131.455 122.817 131.53 123.116 131.53ZM128.189 133V122.92H130.079V133H128.189ZM134.413 133.168C133.844 133.168 133.354 133.051 132.943 132.818C132.542 132.575 132.234 132.225 132.019 131.768C131.804 131.301 131.697 130.727 131.697 130.046V125.944H133.587V129.85C133.587 130.419 133.704 130.849 133.937 131.138C134.18 131.427 134.548 131.572 135.043 131.572C135.36 131.572 135.64 131.502 135.883 131.362C136.126 131.213 136.317 131.003 136.457 130.732C136.606 130.452 136.681 130.111 136.681 129.71V125.944H138.557V133H136.905L136.751 131.852C136.546 132.253 136.242 132.575 135.841 132.818C135.44 133.051 134.964 133.168 134.413 133.168ZM143.684 133.168C142.975 133.168 142.345 133.009 141.794 132.692C141.243 132.375 140.814 131.941 140.506 131.39C140.198 130.839 140.044 130.209 140.044 129.5C140.044 128.772 140.198 128.133 140.506 127.582C140.814 127.022 141.243 126.583 141.794 126.266C142.345 125.939 142.975 125.776 143.684 125.776C144.589 125.776 145.35 126.014 145.966 126.49C146.582 126.966 146.974 127.619 147.142 128.45H145.14C145.056 128.123 144.879 127.867 144.608 127.68C144.347 127.493 144.034 127.4 143.67 127.4C143.343 127.4 143.049 127.484 142.788 127.652C142.536 127.811 142.335 128.049 142.186 128.366C142.046 128.674 141.976 129.043 141.976 129.472C141.976 129.799 142.018 130.093 142.102 130.354C142.186 130.606 142.303 130.825 142.452 131.012C142.601 131.189 142.779 131.325 142.984 131.418C143.199 131.511 143.427 131.558 143.67 131.558C143.913 131.558 144.132 131.516 144.328 131.432C144.533 131.348 144.706 131.231 144.846 131.082C144.986 130.923 145.084 130.732 145.14 130.508H147.142C146.974 131.32 146.577 131.969 145.952 132.454C145.336 132.93 144.58 133.168 143.684 133.168ZM148.674 133V125.944H150.564V133H148.674ZM149.626 124.978C149.29 124.978 149.01 124.88 148.786 124.684C148.571 124.479 148.464 124.222 148.464 123.914C148.464 123.606 148.571 123.354 148.786 123.158C149.01 122.953 149.29 122.85 149.626 122.85C149.971 122.85 150.251 122.953 150.466 123.158C150.69 123.354 150.802 123.606 150.802 123.914C150.802 124.222 150.69 124.479 150.466 124.684C150.251 124.88 149.971 124.978 149.626 124.978ZM155.666 133.168C154.994 133.168 154.387 133.014 153.846 132.706C153.314 132.389 152.889 131.955 152.572 131.404C152.264 130.844 152.11 130.205 152.11 129.486C152.11 128.749 152.264 128.105 152.572 127.554C152.889 126.994 153.318 126.56 153.86 126.252C154.401 125.935 155.008 125.776 155.68 125.776C156.361 125.776 156.968 125.935 157.5 126.252C158.041 126.56 158.466 126.994 158.774 127.554C159.091 128.105 159.25 128.744 159.25 129.472C159.25 130.2 159.091 130.844 158.774 131.404C158.466 131.955 158.041 132.389 157.5 132.706C156.958 133.014 156.347 133.168 155.666 133.168ZM155.666 131.53C155.983 131.53 156.263 131.455 156.506 131.306C156.758 131.157 156.954 130.928 157.094 130.62C157.243 130.312 157.318 129.929 157.318 129.472C157.318 129.015 157.243 128.637 157.094 128.338C156.954 128.03 156.758 127.801 156.506 127.652C156.263 127.493 155.988 127.414 155.68 127.414C155.381 127.414 155.106 127.493 154.854 127.652C154.602 127.801 154.401 128.03 154.252 128.338C154.112 128.637 154.042 129.015 154.042 129.472C154.042 129.929 154.112 130.312 154.252 130.62C154.401 130.928 154.597 131.157 154.84 131.306C155.092 131.455 155.367 131.53 155.666 131.53ZM160.739 133V125.944H162.405L162.545 127.092C162.759 126.7 163.063 126.383 163.455 126.14C163.856 125.897 164.332 125.776 164.883 125.776C165.471 125.776 165.965 125.897 166.367 126.14C166.768 126.383 167.071 126.737 167.277 127.204C167.491 127.671 167.599 128.245 167.599 128.926V133H165.723V129.108C165.723 128.548 165.601 128.119 165.359 127.82C165.125 127.521 164.761 127.372 164.267 127.372C163.949 127.372 163.665 127.447 163.413 127.596C163.17 127.745 162.979 127.96 162.839 128.24C162.699 128.511 162.629 128.842 162.629 129.234V133H160.739ZM172.627 133.168C171.918 133.168 171.288 133.019 170.737 132.72C170.196 132.412 169.771 131.987 169.463 131.446C169.165 130.895 169.015 130.261 169.015 129.542C169.015 128.805 169.165 128.156 169.463 127.596C169.771 127.027 170.196 126.583 170.737 126.266C171.279 125.939 171.909 125.776 172.627 125.776C173.327 125.776 173.939 125.93 174.461 126.238C174.984 126.546 175.39 126.961 175.679 127.484C175.969 128.007 176.113 128.599 176.113 129.262C176.113 129.355 176.113 129.463 176.113 129.584C176.113 129.696 176.104 129.813 176.085 129.934H170.359V128.786H174.209C174.181 128.329 174.018 127.969 173.719 127.708C173.43 127.447 173.066 127.316 172.627 127.316C172.31 127.316 172.016 127.391 171.745 127.54C171.475 127.68 171.26 127.899 171.101 128.198C170.952 128.497 170.877 128.875 170.877 129.332V129.738C170.877 130.121 170.947 130.457 171.087 130.746C171.237 131.026 171.442 131.245 171.703 131.404C171.965 131.553 172.268 131.628 172.613 131.628C172.959 131.628 173.243 131.553 173.467 131.404C173.701 131.255 173.873 131.063 173.985 130.83H175.917C175.787 131.269 175.567 131.665 175.259 132.02C174.951 132.375 174.573 132.655 174.125 132.86C173.677 133.065 173.178 133.168 172.627 133.168ZM180.405 133.168C179.761 133.168 179.201 133.065 178.725 132.86C178.249 132.655 177.876 132.37 177.605 132.006C177.334 131.642 177.18 131.231 177.143 130.774H179.019C179.066 130.951 179.145 131.115 179.257 131.264C179.369 131.404 179.518 131.516 179.705 131.6C179.892 131.684 180.116 131.726 180.377 131.726C180.629 131.726 180.834 131.693 180.993 131.628C181.152 131.553 181.268 131.455 181.343 131.334C181.427 131.213 181.469 131.087 181.469 130.956C181.469 130.76 181.413 130.611 181.301 130.508C181.189 130.396 181.026 130.307 180.811 130.242C180.596 130.177 180.335 130.111 180.027 130.046C179.691 129.981 179.36 129.901 179.033 129.808C178.716 129.705 178.431 129.579 178.179 129.43C177.927 129.281 177.726 129.089 177.577 128.856C177.428 128.623 177.353 128.333 177.353 127.988C177.353 127.568 177.465 127.195 177.689 126.868C177.913 126.532 178.24 126.266 178.669 126.07C179.098 125.874 179.616 125.776 180.223 125.776C181.072 125.776 181.744 125.967 182.239 126.35C182.734 126.733 183.028 127.26 183.121 127.932H181.343C181.287 127.717 181.161 127.549 180.965 127.428C180.778 127.297 180.526 127.232 180.209 127.232C179.873 127.232 179.616 127.293 179.439 127.414C179.262 127.535 179.173 127.694 179.173 127.89C179.173 128.021 179.229 128.137 179.341 128.24C179.462 128.343 179.63 128.431 179.845 128.506C180.06 128.571 180.321 128.637 180.629 128.702C181.17 128.814 181.646 128.945 182.057 129.094C182.468 129.234 182.79 129.439 183.023 129.71C183.256 129.971 183.373 130.354 183.373 130.858C183.373 131.306 183.252 131.707 183.009 132.062C182.766 132.407 182.421 132.678 181.973 132.874C181.534 133.07 181.012 133.168 180.405 133.168Z" fill="#737886"/>
<path d="M23.248 168V159.726H20.378V158.2H27.98V159.726H25.124V168H23.248ZM31.2677 168.168C30.5584 168.168 29.9284 168.019 29.3777 167.72C28.8364 167.412 28.4117 166.987 28.1037 166.446C27.805 165.895 27.6557 165.261 27.6557 164.542C27.6557 163.805 27.805 163.156 28.1037 162.596C28.4117 162.027 28.8364 161.583 29.3777 161.266C29.919 160.939 30.549 160.776 31.2677 160.776C31.9677 160.776 32.579 160.93 33.1017 161.238C33.6244 161.546 34.0304 161.961 34.3197 162.484C34.609 163.007 34.7537 163.599 34.7537 164.262C34.7537 164.355 34.7537 164.463 34.7537 164.584C34.7537 164.696 34.7444 164.813 34.7257 164.934H28.9997V163.786H32.8497C32.8217 163.329 32.6584 162.969 32.3597 162.708C32.0704 162.447 31.7064 162.316 31.2677 162.316C30.9504 162.316 30.6564 162.391 30.3857 162.54C30.115 162.68 29.9004 162.899 29.7417 163.198C29.5924 163.497 29.5177 163.875 29.5177 164.332V164.738C29.5177 165.121 29.5877 165.457 29.7277 165.746C29.877 166.026 30.0824 166.245 30.3437 166.404C30.605 166.553 30.9084 166.628 31.2537 166.628C31.599 166.628 31.8837 166.553 32.1077 166.404C32.341 166.255 32.5137 166.063 32.6257 165.83H34.5577C34.427 166.269 34.2077 166.665 33.8997 167.02C33.5917 167.375 33.2137 167.655 32.7657 167.86C32.3177 168.065 31.8184 168.168 31.2677 168.168ZM29.7557 160.342L29.5877 159.096L32.6537 157.346L32.8777 158.788L29.7557 160.342ZM36.1616 168V160.944H37.8416L38.0236 162.246C38.1916 161.938 38.4016 161.677 38.6536 161.462C38.9149 161.247 39.2089 161.079 39.5356 160.958C39.8716 160.837 40.2402 160.776 40.6416 160.776V162.778H39.9976C39.7176 162.778 39.4562 162.811 39.2136 162.876C38.9802 162.941 38.7749 163.049 38.5976 163.198C38.4202 163.338 38.2849 163.534 38.1916 163.786C38.0982 164.038 38.0516 164.355 38.0516 164.738V168H36.1616ZM41.7501 168V160.944H43.4161L43.5701 161.882C43.7941 161.546 44.0881 161.28 44.4521 161.084C44.8254 160.879 45.2501 160.776 45.7261 160.776C46.0808 160.776 46.3981 160.823 46.6781 160.916C46.9581 161.009 47.2054 161.145 47.4201 161.322C47.6441 161.499 47.8261 161.723 47.9661 161.994C48.2274 161.611 48.5681 161.313 48.9881 161.098C49.4081 160.883 49.8654 160.776 50.3601 160.776C50.9761 160.776 51.4894 160.902 51.9001 161.154C52.3108 161.397 52.6188 161.751 52.8241 162.218C53.0388 162.685 53.1461 163.259 53.1461 163.94V168H51.2701V164.108C51.2701 163.548 51.1581 163.119 50.9341 162.82C50.7194 162.521 50.3834 162.372 49.9261 162.372C49.6274 162.372 49.3614 162.447 49.1281 162.596C48.8948 162.745 48.7128 162.96 48.5821 163.24C48.4608 163.52 48.4001 163.856 48.4001 164.248V168H46.5101V164.108C46.5101 163.548 46.3981 163.119 46.1741 162.82C45.9501 162.521 45.6048 162.372 45.1381 162.372C44.8488 162.372 44.5874 162.447 44.3541 162.596C44.1301 162.745 43.9528 162.96 43.8221 163.24C43.7008 163.52 43.6401 163.856 43.6401 164.248V168H41.7501ZM54.8318 168V160.944H56.7218V168H54.8318ZM55.7838 159.978C55.4478 159.978 55.1678 159.88 54.9438 159.684C54.7291 159.479 54.6218 159.222 54.6218 158.914C54.6218 158.606 54.7291 158.354 54.9438 158.158C55.1678 157.953 55.4478 157.85 55.7838 157.85C56.1291 157.85 56.4091 157.953 56.6238 158.158C56.8478 158.354 56.9598 158.606 56.9598 158.914C56.9598 159.222 56.8478 159.479 56.6238 159.684C56.4091 159.88 56.1291 159.978 55.7838 159.978ZM58.4916 168V160.944H60.1576L60.2976 162.092C60.5122 161.7 60.8156 161.383 61.2076 161.14C61.6089 160.897 62.0849 160.776 62.6356 160.776C63.2236 160.776 63.7182 160.897 64.1196 161.14C64.5209 161.383 64.8242 161.737 65.0296 162.204C65.2442 162.671 65.3516 163.245 65.3516 163.926V168H63.4756V164.108C63.4756 163.548 63.3542 163.119 63.1116 162.82C62.8782 162.521 62.5142 162.372 62.0196 162.372C61.7022 162.372 61.4176 162.447 61.1656 162.596C60.9229 162.745 60.7316 162.96 60.5916 163.24C60.4516 163.511 60.3816 163.842 60.3816 164.234V168H58.4916ZM70.3242 168.168C69.6522 168.168 69.0455 168.014 68.5042 167.706C67.9722 167.389 67.5475 166.955 67.2302 166.404C66.9222 165.844 66.7682 165.205 66.7682 164.486C66.7682 163.749 66.9222 163.105 67.2302 162.554C67.5475 161.994 67.9769 161.56 68.5182 161.252C69.0595 160.935 69.6662 160.776 70.3382 160.776C71.0195 160.776 71.6262 160.935 72.1582 161.252C72.6995 161.56 73.1242 161.994 73.4322 162.554C73.7495 163.105 73.9082 163.744 73.9082 164.472C73.9082 165.2 73.7495 165.844 73.4322 166.404C73.1242 166.955 72.6995 167.389 72.1582 167.706C71.6169 168.014 71.0055 168.168 70.3242 168.168ZM70.3242 166.53C70.6415 166.53 70.9215 166.455 71.1642 166.306C71.4162 166.157 71.6122 165.928 71.7522 165.62C71.9015 165.312 71.9762 164.929 71.9762 164.472C71.9762 164.015 71.9015 163.637 71.7522 163.338C71.6122 163.03 71.4162 162.801 71.1642 162.652C70.9215 162.493 70.6462 162.414 70.3382 162.414C70.0395 162.414 69.7642 162.493 69.5122 162.652C69.2602 162.801 69.0595 163.03 68.9102 163.338C68.7702 163.637 68.7002 164.015 68.7002 164.472C68.7002 164.929 68.7702 165.312 68.9102 165.62C69.0595 165.928 69.2555 166.157 69.4982 166.306C69.7502 166.455 70.0255 166.53 70.3242 166.53ZM78.2811 168.168C77.6371 168.168 77.0771 168.065 76.6011 167.86C76.1251 167.655 75.7518 167.37 75.4811 167.006C75.2105 166.642 75.0565 166.231 75.0191 165.774H76.8951C76.9418 165.951 77.0211 166.115 77.1331 166.264C77.2451 166.404 77.3945 166.516 77.5811 166.6C77.7678 166.684 77.9918 166.726 78.2531 166.726C78.5051 166.726 78.7105 166.693 78.8691 166.628C79.0278 166.553 79.1445 166.455 79.2191 166.334C79.3031 166.213 79.3451 166.087 79.3451 165.956C79.3451 165.76 79.2891 165.611 79.1771 165.508C79.0651 165.396 78.9018 165.307 78.6871 165.242C78.4725 165.177 78.2111 165.111 77.9031 165.046C77.5671 164.981 77.2358 164.901 76.9091 164.808C76.5918 164.705 76.3071 164.579 76.0551 164.43C75.8031 164.281 75.6025 164.089 75.4531 163.856C75.3038 163.623 75.2291 163.333 75.2291 162.988C75.2291 162.568 75.3411 162.195 75.5651 161.868C75.7891 161.532 76.1158 161.266 76.5451 161.07C76.9745 160.874 77.4925 160.776 78.0991 160.776C78.9485 160.776 79.6205 160.967 80.1151 161.35C80.6098 161.733 80.9038 162.26 80.9971 162.932H79.2191C79.1631 162.717 79.0371 162.549 78.8411 162.428C78.6545 162.297 78.4025 162.232 78.0851 162.232C77.7491 162.232 77.4925 162.293 77.3151 162.414C77.1378 162.535 77.0491 162.694 77.0491 162.89C77.0491 163.021 77.1051 163.137 77.2171 163.24C77.3385 163.343 77.5065 163.431 77.7211 163.506C77.9358 163.571 78.1971 163.637 78.5051 163.702C79.0465 163.814 79.5225 163.945 79.9331 164.094C80.3438 164.234 80.6658 164.439 80.8991 164.71C81.1325 164.971 81.2491 165.354 81.2491 165.858C81.2491 166.306 81.1278 166.707 80.8851 167.062C80.6425 167.407 80.2971 167.678 79.8491 167.874C79.4105 168.07 78.8878 168.168 78.2811 168.168ZM86.7592 171.08L88.4672 167.216H88.0472L85.2192 160.944H87.2772L89.2932 165.494L91.1132 160.944H93.1152L88.7612 171.08H86.7592ZM100.743 168.168C100.034 168.168 99.404 168.009 98.8534 167.692C98.3027 167.375 97.8734 166.941 97.5654 166.39C97.2574 165.839 97.1034 165.209 97.1034 164.5C97.1034 163.772 97.2574 163.133 97.5654 162.582C97.8734 162.022 98.3027 161.583 98.8534 161.266C99.404 160.939 100.034 160.776 100.743 160.776C101.649 160.776 102.409 161.014 103.025 161.49C103.641 161.966 104.033 162.619 104.201 163.45H102.199C102.115 163.123 101.938 162.867 101.667 162.68C101.406 162.493 101.093 162.4 100.729 162.4C100.403 162.4 100.109 162.484 99.8474 162.652C99.5954 162.811 99.3947 163.049 99.2454 163.366C99.1054 163.674 99.0354 164.043 99.0354 164.472C99.0354 164.799 99.0774 165.093 99.1614 165.354C99.2454 165.606 99.362 165.825 99.5114 166.012C99.6607 166.189 99.838 166.325 100.043 166.418C100.258 166.511 100.487 166.558 100.729 166.558C100.972 166.558 101.191 166.516 101.387 166.432C101.593 166.348 101.765 166.231 101.905 166.082C102.045 165.923 102.143 165.732 102.199 165.508H104.201C104.033 166.32 103.637 166.969 103.011 167.454C102.395 167.93 101.639 168.168 100.743 168.168ZM109.023 168.168C108.351 168.168 107.745 168.014 107.203 167.706C106.671 167.389 106.247 166.955 105.929 166.404C105.621 165.844 105.467 165.205 105.467 164.486C105.467 163.749 105.621 163.105 105.929 162.554C106.247 161.994 106.676 161.56 107.217 161.252C107.759 160.935 108.365 160.776 109.037 160.776C109.719 160.776 110.325 160.935 110.857 161.252C111.399 161.56 111.823 161.994 112.131 162.554C112.449 163.105 112.607 163.744 112.607 164.472C112.607 165.2 112.449 165.844 112.131 166.404C111.823 166.955 111.399 167.389 110.857 167.706C110.316 168.014 109.705 168.168 109.023 168.168ZM109.023 166.53C109.341 166.53 109.621 166.455 109.863 166.306C110.115 166.157 110.311 165.928 110.451 165.62C110.601 165.312 110.675 164.929 110.675 164.472C110.675 164.015 110.601 163.637 110.451 163.338C110.311 163.03 110.115 162.801 109.863 162.652C109.621 162.493 109.345 162.414 109.037 162.414C108.739 162.414 108.463 162.493 108.211 162.652C107.959 162.801 107.759 163.03 107.609 163.338C107.469 163.637 107.399 164.015 107.399 164.472C107.399 164.929 107.469 165.312 107.609 165.62C107.759 165.928 107.955 166.157 108.197 166.306C108.449 166.455 108.725 166.53 109.023 166.53ZM114.096 168V160.944H115.762L115.902 162.092C116.117 161.7 116.42 161.383 116.812 161.14C117.214 160.897 117.69 160.776 118.24 160.776C118.828 160.776 119.323 160.897 119.724 161.14C120.126 161.383 120.429 161.737 120.634 162.204C120.849 162.671 120.956 163.245 120.956 163.926V168H119.08V164.108C119.08 163.548 118.959 163.119 118.716 162.82C118.483 162.521 118.119 162.372 117.624 162.372C117.307 162.372 117.022 162.447 116.77 162.596C116.528 162.745 116.336 162.96 116.196 163.24C116.056 163.511 115.986 163.842 115.986 164.234V168H114.096ZM125.733 168.168C125.089 168.168 124.51 168.009 123.997 167.692C123.493 167.375 123.096 166.936 122.807 166.376C122.517 165.816 122.373 165.186 122.373 164.486C122.373 163.767 122.517 163.133 122.807 162.582C123.105 162.022 123.511 161.583 124.025 161.266C124.547 160.939 125.131 160.776 125.775 160.776C126.279 160.776 126.722 160.869 127.105 161.056C127.487 161.243 127.795 161.509 128.029 161.854V157.92H129.919V168H128.239L128.029 167.034C127.889 167.23 127.711 167.417 127.497 167.594C127.291 167.771 127.044 167.911 126.755 168.014C126.465 168.117 126.125 168.168 125.733 168.168ZM126.181 166.516C126.554 166.516 126.881 166.432 127.161 166.264C127.45 166.087 127.674 165.844 127.833 165.536C127.991 165.228 128.071 164.873 128.071 164.472C128.071 164.071 127.991 163.716 127.833 163.408C127.674 163.1 127.45 162.862 127.161 162.694C126.881 162.517 126.554 162.428 126.181 162.428C125.826 162.428 125.504 162.517 125.215 162.694C124.925 162.862 124.697 163.1 124.529 163.408C124.37 163.716 124.291 164.066 124.291 164.458C124.291 164.869 124.37 165.228 124.529 165.536C124.697 165.844 124.921 166.087 125.201 166.264C125.49 166.432 125.817 166.516 126.181 166.516ZM131.673 168V160.944H133.563V168H131.673ZM132.625 159.978C132.289 159.978 132.009 159.88 131.785 159.684C131.57 159.479 131.463 159.222 131.463 158.914C131.463 158.606 131.57 158.354 131.785 158.158C132.009 157.953 132.289 157.85 132.625 157.85C132.97 157.85 133.25 157.953 133.465 158.158C133.689 158.354 133.801 158.606 133.801 158.914C133.801 159.222 133.689 159.479 133.465 159.684C133.25 159.88 132.97 159.978 132.625 159.978ZM138.748 168.168C138.039 168.168 137.409 168.009 136.858 167.692C136.308 167.375 135.878 166.941 135.57 166.39C135.262 165.839 135.108 165.209 135.108 164.5C135.108 163.772 135.262 163.133 135.57 162.582C135.878 162.022 136.308 161.583 136.858 161.266C137.409 160.939 138.039 160.776 138.748 160.776C139.654 160.776 140.414 161.014 141.03 161.49C141.646 161.966 142.038 162.619 142.206 163.45H140.204C140.12 163.123 139.943 162.867 139.672 162.68C139.411 162.493 139.098 162.4 138.734 162.4C138.408 162.4 138.114 162.484 137.852 162.652C137.6 162.811 137.4 163.049 137.25 163.366C137.11 163.674 137.04 164.043 137.04 164.472C137.04 164.799 137.082 165.093 137.166 165.354C137.25 165.606 137.367 165.825 137.516 166.012C137.666 166.189 137.843 166.325 138.048 166.418C138.263 166.511 138.492 166.558 138.734 166.558C138.977 166.558 139.196 166.516 139.392 166.432C139.598 166.348 139.77 166.231 139.91 166.082C140.05 165.923 140.148 165.732 140.204 165.508H142.206C142.038 166.32 141.642 166.969 141.016 167.454C140.4 167.93 139.644 168.168 138.748 168.168ZM143.738 168V160.944H145.628V168H143.738ZM144.69 159.978C144.354 159.978 144.074 159.88 143.85 159.684C143.636 159.479 143.528 159.222 143.528 158.914C143.528 158.606 143.636 158.354 143.85 158.158C144.074 157.953 144.354 157.85 144.69 157.85C145.036 157.85 145.316 157.953 145.53 158.158C145.754 158.354 145.866 158.606 145.866 158.914C145.866 159.222 145.754 159.479 145.53 159.684C145.316 159.88 145.036 159.978 144.69 159.978ZM150.73 168.168C150.058 168.168 149.451 168.014 148.91 167.706C148.378 167.389 147.953 166.955 147.636 166.404C147.328 165.844 147.174 165.205 147.174 164.486C147.174 163.749 147.328 163.105 147.636 162.554C147.953 161.994 148.383 161.56 148.924 161.252C149.465 160.935 150.072 160.776 150.744 160.776C151.425 160.776 152.032 160.935 152.564 161.252C153.105 161.56 153.53 161.994 153.838 162.554C154.155 163.105 154.314 163.744 154.314 164.472C154.314 165.2 154.155 165.844 153.838 166.404C153.53 166.955 153.105 167.389 152.564 167.706C152.023 168.014 151.411 168.168 150.73 168.168ZM150.73 166.53C151.047 166.53 151.327 166.455 151.57 166.306C151.822 166.157 152.018 165.928 152.158 165.62C152.307 165.312 152.382 164.929 152.382 164.472C152.382 164.015 152.307 163.637 152.158 163.338C152.018 163.03 151.822 162.801 151.57 162.652C151.327 162.493 151.052 162.414 150.744 162.414C150.445 162.414 150.17 162.493 149.918 162.652C149.666 162.801 149.465 163.03 149.316 163.338C149.176 163.637 149.106 164.015 149.106 164.472C149.106 164.929 149.176 165.312 149.316 165.62C149.465 165.928 149.661 166.157 149.904 166.306C150.156 166.455 150.431 166.53 150.73 166.53ZM155.803 168V160.944H157.469L157.609 162.092C157.824 161.7 158.127 161.383 158.519 161.14C158.92 160.897 159.396 160.776 159.947 160.776C160.535 160.776 161.03 160.897 161.431 161.14C161.832 161.383 162.136 161.737 162.341 162.204C162.556 162.671 162.663 163.245 162.663 163.926V168H160.787V164.108C160.787 163.548 160.666 163.119 160.423 162.82C160.19 162.521 159.826 162.372 159.331 162.372C159.014 162.372 158.729 162.447 158.477 162.596C158.234 162.745 158.043 162.96 157.903 163.24C157.763 163.511 157.693 163.842 157.693 164.234V168H155.803ZM167.692 168.168C166.982 168.168 166.352 168.019 165.802 167.72C165.26 167.412 164.836 166.987 164.528 166.446C164.229 165.895 164.08 165.261 164.08 164.542C164.08 163.805 164.229 163.156 164.528 162.596C164.836 162.027 165.26 161.583 165.802 161.266C166.343 160.939 166.973 160.776 167.692 160.776C168.392 160.776 169.003 160.93 169.526 161.238C170.048 161.546 170.454 161.961 170.744 162.484C171.033 163.007 171.178 163.599 171.178 164.262C171.178 164.355 171.178 164.463 171.178 164.584C171.178 164.696 171.168 164.813 171.15 164.934H165.424V163.786H169.274C169.246 163.329 169.082 162.969 168.784 162.708C168.494 162.447 168.13 162.316 167.692 162.316C167.374 162.316 167.08 162.391 166.81 162.54C166.539 162.68 166.324 162.899 166.166 163.198C166.016 163.497 165.942 163.875 165.942 164.332V164.738C165.942 165.121 166.012 165.457 166.152 165.746C166.301 166.026 166.506 166.245 166.768 166.404C167.029 166.553 167.332 166.628 167.678 166.628C168.023 166.628 168.308 166.553 168.532 166.404C168.765 166.255 168.938 166.063 169.05 165.83H170.982C170.851 166.269 170.632 166.665 170.324 167.02C170.016 167.375 169.638 167.655 169.19 167.86C168.742 168.065 168.242 168.168 167.692 168.168ZM175.47 168.168C174.826 168.168 174.266 168.065 173.79 167.86C173.314 167.655 172.94 167.37 172.67 167.006C172.399 166.642 172.245 166.231 172.208 165.774H174.084C174.13 165.951 174.21 166.115 174.322 166.264C174.434 166.404 174.583 166.516 174.77 166.6C174.956 166.684 175.18 166.726 175.442 166.726C175.694 166.726 175.899 166.693 176.058 166.628C176.216 166.553 176.333 166.455 176.408 166.334C176.492 166.213 176.534 166.087 176.534 165.956C176.534 165.76 176.478 165.611 176.366 165.508C176.254 165.396 176.09 165.307 175.876 165.242C175.661 165.177 175.4 165.111 175.092 165.046C174.756 164.981 174.424 164.901 174.098 164.808C173.78 164.705 173.496 164.579 173.244 164.43C172.992 164.281 172.791 164.089 172.642 163.856C172.492 163.623 172.418 163.333 172.418 162.988C172.418 162.568 172.53 162.195 172.754 161.868C172.978 161.532 173.304 161.266 173.734 161.07C174.163 160.874 174.681 160.776 175.288 160.776C176.137 160.776 176.809 160.967 177.304 161.35C177.798 161.733 178.092 162.26 178.186 162.932H176.408C176.352 162.717 176.226 162.549 176.03 162.428C175.843 162.297 175.591 162.232 175.274 162.232C174.938 162.232 174.681 162.293 174.504 162.414C174.326 162.535 174.238 162.694 174.238 162.89C174.238 163.021 174.294 163.137 174.406 163.24C174.527 163.343 174.695 163.431 174.91 163.506C175.124 163.571 175.386 163.637 175.694 163.702C176.235 163.814 176.711 163.945 177.122 164.094C177.532 164.234 177.854 164.439 178.088 164.71C178.321 164.971 178.438 165.354 178.438 165.858C178.438 166.306 178.316 166.707 178.074 167.062C177.831 167.407 177.486 167.678 177.038 167.874C176.599 168.07 176.076 168.168 175.47 168.168Z" fill="#737886"/>
<path d="M7.0253 59.7004C7.02612 59.9629 6.91574 60.218 6.72104 60.4046L1.70701 65.1909C1.45544 65.4309 1.05808 65.4215 0.818512 65.1694C0.57894 64.9174 0.58833 64.5192 0.8399 64.2792L5.61778 59.7183L0.729759 55.6332C0.463209 55.4103 0.427166 55.0133 0.649649 54.7462C0.872132 54.4791 1.26838 54.443 1.53493 54.6659L6.67012 58.9575C6.88627 59.138 7.01566 59.3991 7.02521 59.6723C7.02524 59.682 7.02527 59.6907 7.0253 59.7004Z" fill="#00AAA4"/>
<path d="M0.324351 55.9383C-0.0749568 55.5291 -0.108963 54.876 0.264942 54.4267C0.663904 53.9478 1.37615 53.8817 1.85532 54.2821L6.99082 58.5737C7.3127 58.8425 7.5098 59.2358 7.52447 59.6551L7.52461 59.699C7.52586 60.1028 7.35719 60.4877 7.067 60.7659L7.06603 60.7668L2.05165 65.553C1.6003 65.9834 0.886082 65.9668 0.45582 65.5141C0.0266441 65.0625 0.0433374 64.348 0.494778 63.9173L4.86653 59.7434L0.408582 56.0171L0.324351 55.9383ZM0.649733 54.7468C0.42737 55.0139 0.463144 55.4104 0.72965 55.6333L5.61743 59.7186L0.839661 64.2795C0.588298 64.5194 0.578823 64.9171 0.818025 65.1692L0.914967 65.2529C1.15495 65.4202 1.48667 65.4008 1.70677 65.1908L6.72114 60.4046C6.91571 60.2181 7.02542 59.963 7.02461 59.7006L7.02452 59.6722L7.01541 59.5707C6.98615 59.3689 6.89261 59.1782 6.74712 59.0286L6.66975 58.9575L1.53425 54.6659C1.30107 54.4712 0.968686 54.4741 0.740272 54.6567L0.649733 54.7468Z" fill="#00AAA4"/>
<path d="M7.0253 93.7004C7.02612 93.9629 6.91574 94.218 6.72104 94.4046L1.70701 99.1909C1.45544 99.4309 1.05808 99.4215 0.818512 99.1694C0.57894 98.9174 0.58833 98.5192 0.8399 98.2792L5.61778 93.7183L0.729759 89.6332C0.463209 89.4103 0.427166 89.0133 0.649649 88.7462C0.872132 88.4791 1.26838 88.443 1.53493 88.6659L6.67012 92.9575C6.88627 93.138 7.01566 93.3991 7.02521 93.6723C7.02524 93.682 7.02527 93.6907 7.0253 93.7004Z" fill="#00AAA4"/>
<path d="M0.324351 89.9383C-0.0749568 89.5291 -0.108963 88.876 0.264942 88.4267C0.663904 87.9478 1.37615 87.8817 1.85532 88.2821L6.99082 92.5737C7.3127 92.8425 7.5098 93.2358 7.52447 93.6551L7.52461 93.699C7.52586 94.1028 7.35719 94.4877 7.067 94.7659L7.06603 94.7668L2.05165 99.553C1.6003 99.9834 0.886082 99.9668 0.45582 99.5141C0.0266441 99.0625 0.0433374 98.348 0.494778 97.9173L4.86653 93.7434L0.408582 90.0171L0.324351 89.9383ZM0.649733 88.7468C0.42737 89.0139 0.463144 89.4104 0.72965 89.6333L5.61743 93.7186L0.839661 98.2795C0.588298 98.5194 0.578823 98.9171 0.818025 99.1692L0.914967 99.2529C1.15495 99.4202 1.48667 99.4008 1.70677 99.1908L6.72114 94.4046C6.91571 94.2181 7.02542 93.963 7.02461 93.7006L7.02452 93.6722L7.01541 93.5707C6.98615 93.3689 6.89261 93.1782 6.74712 93.0286L6.66975 92.9575L1.53425 88.6659C1.30107 88.4712 0.968686 88.4741 0.740272 88.6567L0.649733 88.7468Z" fill="#00AAA4"/>
<path d="M7.0253 127.7C7.02612 127.963 6.91574 128.218 6.72104 128.405L1.70701 133.191C1.45544 133.431 1.05808 133.422 0.818512 133.169C0.57894 132.917 0.58833 132.519 0.8399 132.279L5.61778 127.718L0.729759 123.633C0.463209 123.41 0.427166 123.013 0.649649 122.746C0.872132 122.479 1.26838 122.443 1.53493 122.666L6.67012 126.958C6.88627 127.138 7.01566 127.399 7.02521 127.672C7.02524 127.682 7.02527 127.691 7.0253 127.7Z" fill="#00AAA4"/>
<path d="M0.324351 123.938C-0.0749568 123.529 -0.108963 122.876 0.264942 122.427C0.663904 121.948 1.37615 121.882 1.85532 122.282L6.99082 126.574C7.3127 126.843 7.5098 127.236 7.52447 127.655L7.52461 127.699C7.52586 128.103 7.35719 128.488 7.067 128.766L7.06603 128.767L2.05165 133.553C1.6003 133.983 0.886082 133.967 0.45582 133.514C0.0266441 133.062 0.0433374 132.348 0.494778 131.917L4.86653 127.743L0.408582 124.017L0.324351 123.938ZM0.649733 122.747C0.42737 123.014 0.463144 123.41 0.72965 123.633L5.61743 127.719L0.839661 132.279C0.588298 132.519 0.578823 132.917 0.818025 133.169L0.914967 133.253C1.15495 133.42 1.48667 133.401 1.70677 133.191L6.72114 128.405C6.91571 128.218 7.02542 127.963 7.02461 127.701L7.02452 127.672L7.01541 127.571C6.98615 127.369 6.89261 127.178 6.74712 127.029L6.66975 126.958L1.53425 122.666C1.30107 122.471 0.968686 122.474 0.740272 122.657L0.649733 122.747Z" fill="#00AAA4"/>
<path d="M7.0253 161.7C7.02612 161.963 6.91574 162.218 6.72104 162.405L1.70701 167.191C1.45544 167.431 1.05808 167.422 0.818512 167.169C0.57894 166.917 0.58833 166.519 0.8399 166.279L5.61778 161.718L0.729759 157.633C0.463209 157.41 0.427166 157.013 0.649649 156.746C0.872132 156.479 1.26838 156.443 1.53493 156.666L6.67012 160.958C6.88627 161.138 7.01566 161.399 7.02521 161.672C7.02524 161.682 7.02527 161.691 7.0253 161.7Z" fill="#00AAA4"/>
<path d="M0.324351 157.938C-0.0749568 157.529 -0.108963 156.876 0.264942 156.427C0.663904 155.948 1.37615 155.882 1.85532 156.282L6.99082 160.574C7.3127 160.843 7.5098 161.236 7.52447 161.655L7.52461 161.699C7.52586 162.103 7.35719 162.488 7.067 162.766L7.06603 162.767L2.05165 167.553C1.6003 167.983 0.886082 167.967 0.45582 167.514C0.0266441 167.062 0.0433374 166.348 0.494778 165.917L4.86653 161.743L0.408582 158.017L0.324351 157.938ZM0.649733 156.747C0.42737 157.014 0.463144 157.41 0.72965 157.633L5.61743 161.719L0.839661 166.279C0.588298 166.519 0.578823 166.917 0.818025 167.169L0.914967 167.253C1.15495 167.42 1.48667 167.401 1.70677 167.191L6.72114 162.405C6.91571 162.218 7.02542 161.963 7.02461 161.701L7.02452 161.672L7.01541 161.571C6.98615 161.369 6.89261 161.178 6.74712 161.029L6.66975 160.958L1.53425 156.666C1.30107 156.471 0.968686 156.474 0.740272 156.657L0.649733 156.747Z" fill="#00AAA4"/>
</svg>
