<svg width="87" height="171" viewBox="0 0 87 171" fill="none" xmlns="http://www.w3.org/2000/svg">
<path d="M1.173 17V5.1H8.993V6.953H3.468V10.064H8.483V11.849H3.468V15.147H8.993V17H1.173ZM10.8631 17V8.432H12.8861L13.0731 9.571C13.3451 9.163 13.7021 8.84 14.1441 8.602C14.5975 8.35267 15.1131 8.228 15.6911 8.228C16.1218 8.228 16.5071 8.28467 16.8471 8.398C17.1871 8.51133 17.4875 8.67567 17.7481 8.891C18.0201 9.10633 18.2411 9.37833 18.4111 9.707C18.7285 9.24233 19.1421 8.87967 19.6521 8.619C20.1621 8.35833 20.7175 8.228 21.3181 8.228C22.0661 8.228 22.6895 8.381 23.1881 8.687C23.6868 8.98167 24.0608 9.41233 24.3101 9.979C24.5708 10.5457 24.7011 11.2427 24.7011 12.07V17H22.4231V12.274C22.4231 11.594 22.2871 11.0727 22.0151 10.71C21.7545 10.3473 21.3465 10.166 20.7911 10.166C20.4285 10.166 20.1055 10.2567 19.8221 10.438C19.5388 10.6193 19.3178 10.88 19.1591 11.22C19.0118 11.56 18.9381 11.968 18.9381 12.444V17H16.6431V12.274C16.6431 11.594 16.5071 11.0727 16.2351 10.71C15.9631 10.3473 15.5438 10.166 14.9771 10.166C14.6258 10.166 14.3085 10.2567 14.0251 10.438C13.7531 10.6193 13.5378 10.88 13.3791 11.22C13.2318 11.56 13.1581 11.968 13.1581 12.444V17H10.8631ZM26.697 20.74V8.432H28.737L28.992 9.622C29.1734 9.37267 29.3887 9.146 29.638 8.942C29.8874 8.72667 30.182 8.55667 30.522 8.432C30.8734 8.296 31.2814 8.228 31.746 8.228C32.5507 8.228 33.259 8.42633 33.871 8.823C34.483 9.21967 34.9647 9.758 35.316 10.438C35.6787 11.1067 35.86 11.8717 35.86 12.733C35.86 13.5943 35.6787 14.365 35.316 15.045C34.9534 15.7137 34.466 16.2407 33.854 16.626C33.242 17.0113 32.545 17.204 31.763 17.204C31.1284 17.204 30.5787 17.0907 30.114 16.864C29.6607 16.626 29.2867 16.303 28.992 15.895V20.74H26.697ZM31.219 15.198C31.6724 15.198 32.069 15.096 32.409 14.892C32.7604 14.688 33.0324 14.399 33.225 14.025C33.4177 13.651 33.514 13.2203 33.514 12.733C33.514 12.2457 33.4177 11.815 33.225 11.441C33.0324 11.0557 32.7604 10.761 32.409 10.557C32.069 10.3417 31.6724 10.234 31.219 10.234C30.777 10.234 30.3804 10.3417 30.029 10.557C29.689 10.761 29.417 11.05 29.213 11.424C29.0204 11.798 28.924 12.2287 28.924 12.716C28.924 13.2033 29.0204 13.6397 29.213 14.025C29.417 14.399 29.689 14.688 30.029 14.892C30.3804 15.096 30.777 15.198 31.219 15.198ZM37.6667 17V8.432H39.7067L39.9277 10.013C40.1317 9.639 40.3867 9.32167 40.6927 9.061C41.01 8.80033 41.367 8.59633 41.7637 8.449C42.1717 8.30167 42.6194 8.228 43.1067 8.228V10.659H42.3247C41.9847 10.659 41.6674 10.6987 41.3727 10.778C41.0894 10.8573 40.84 10.9877 40.6247 11.169C40.4094 11.339 40.245 11.577 40.1317 11.883C40.0184 12.189 39.9617 12.5743 39.9617 13.039V17H37.6667ZM48.4339 17.204C47.5726 17.204 46.8076 17.0227 46.1389 16.66C45.4816 16.286 44.9659 15.7703 44.5919 15.113C44.2293 14.4443 44.0479 13.6737 44.0479 12.801C44.0479 11.9057 44.2293 11.118 44.5919 10.438C44.9659 9.74667 45.4816 9.20833 46.1389 8.823C46.7963 8.42633 47.5613 8.228 48.4339 8.228C49.2839 8.228 50.0263 8.415 50.6609 8.789C51.2956 9.163 51.7886 9.66733 52.1399 10.302C52.4913 10.9367 52.6669 11.6563 52.6669 12.461C52.6669 12.5743 52.6669 12.7047 52.6669 12.852C52.6669 12.988 52.6556 13.1297 52.6329 13.277H45.6799V11.883H50.3549C50.3209 11.3277 50.1226 10.8913 49.7599 10.574C49.4086 10.2567 48.9666 10.098 48.4339 10.098C48.0486 10.098 47.6916 10.1887 47.3629 10.37C47.0343 10.54 46.7736 10.8063 46.5809 11.169C46.3996 11.5317 46.3089 11.9907 46.3089 12.546V13.039C46.3089 13.5037 46.3939 13.9117 46.5639 14.263C46.7453 14.603 46.9946 14.8693 47.3119 15.062C47.6293 15.2433 47.9976 15.334 48.4169 15.334C48.8363 15.334 49.1819 15.2433 49.4539 15.062C49.7373 14.8807 49.9469 14.6483 50.0829 14.365H52.4289C52.2703 14.8977 52.0039 15.3793 51.6299 15.81C51.2559 16.2407 50.7969 16.5807 50.2529 16.83C49.7089 17.0793 49.1026 17.204 48.4339 17.204ZM57.8785 17.204C57.0965 17.204 56.4165 17.0793 55.8385 16.83C55.2605 16.5807 54.8072 16.235 54.4785 15.793C54.1498 15.351 53.9628 14.8523 53.9175 14.297H56.1955C56.2522 14.5123 56.3485 14.7107 56.4845 14.892C56.6205 15.062 56.8018 15.198 57.0285 15.3C57.2552 15.402 57.5272 15.453 57.8445 15.453C58.1505 15.453 58.3998 15.4133 58.5925 15.334C58.7852 15.2433 58.9268 15.1243 59.0175 14.977C59.1195 14.8297 59.1705 14.6767 59.1705 14.518C59.1705 14.28 59.1025 14.0987 58.9665 13.974C58.8305 13.838 58.6322 13.7303 58.3715 13.651C58.1108 13.5717 57.7935 13.4923 57.4195 13.413C57.0115 13.3337 56.6092 13.2373 56.2125 13.124C55.8272 12.9993 55.4815 12.8463 55.1755 12.665C54.8695 12.4837 54.6258 12.2513 54.4445 11.968C54.2632 11.6847 54.1725 11.3333 54.1725 10.914C54.1725 10.404 54.3085 9.95067 54.5805 9.554C54.8525 9.146 55.2492 8.823 55.7705 8.585C56.2918 8.347 56.9208 8.228 57.6575 8.228C58.6888 8.228 59.5048 8.46033 60.1055 8.925C60.7062 9.38967 61.0632 10.03 61.1765 10.846H59.0175C58.9495 10.5853 58.7965 10.3813 58.5585 10.234C58.3318 10.0753 58.0258 9.996 57.6405 9.996C57.2325 9.996 56.9208 10.0697 56.7055 10.217C56.4902 10.3643 56.3825 10.557 56.3825 10.795C56.3825 10.9537 56.4505 11.0953 56.5865 11.22C56.7338 11.3447 56.9378 11.4523 57.1985 11.543C57.4592 11.6223 57.7765 11.7017 58.1505 11.781C58.8078 11.917 59.3858 12.0757 59.8845 12.257C60.3832 12.427 60.7742 12.6763 61.0575 13.005C61.3408 13.3223 61.4825 13.787 61.4825 14.399C61.4825 14.943 61.3352 15.4303 61.0405 15.861C60.7458 16.2803 60.3265 16.609 59.7825 16.847C59.2498 17.085 58.6152 17.204 57.8785 17.204ZM66.1443 17.204C65.4303 17.204 64.841 17.0907 64.3763 16.864C63.9117 16.626 63.566 16.3143 63.3393 15.929C63.124 15.5323 63.0163 15.096 63.0163 14.62C63.0163 14.0987 63.1467 13.6397 63.4073 13.243C63.6793 12.8463 64.0817 12.5347 64.6143 12.308C65.1583 12.0813 65.8383 11.968 66.6543 11.968H68.7793C68.7793 11.5487 68.7227 11.203 68.6093 10.931C68.496 10.6477 68.3203 10.438 68.0823 10.302C67.8443 10.166 67.527 10.098 67.1303 10.098C66.6997 10.098 66.3313 10.1943 66.0253 10.387C65.7307 10.5683 65.5493 10.8517 65.4813 11.237H63.2543C63.311 10.625 63.5093 10.098 63.8493 9.656C64.2007 9.20267 64.6597 8.85133 65.2263 8.602C65.8043 8.35267 66.4447 8.228 67.1473 8.228C67.952 8.228 68.649 8.364 69.2383 8.636C69.8277 8.908 70.281 9.299 70.5983 9.809C70.9157 10.319 71.0743 10.948 71.0743 11.696V17H69.1363L68.8813 15.691C68.7567 15.9177 68.6093 16.1217 68.4393 16.303C68.2693 16.4843 68.071 16.643 67.8443 16.779C67.6177 16.915 67.3627 17.017 67.0793 17.085C66.796 17.1643 66.4843 17.204 66.1443 17.204ZM66.6883 15.436C66.983 15.436 67.2437 15.385 67.4703 15.283C67.7083 15.1697 67.9123 15.0223 68.0823 14.841C68.2523 14.6483 68.3827 14.433 68.4733 14.195C68.5753 13.9457 68.6433 13.6793 68.6773 13.396V13.379H66.9263C66.575 13.379 66.286 13.4243 66.0593 13.515C65.844 13.5943 65.6853 13.7133 65.5833 13.872C65.4813 14.0307 65.4303 14.212 65.4303 14.416C65.4303 14.6427 65.4813 14.8297 65.5833 14.977C65.6853 15.1243 65.8327 15.2377 66.0253 15.317C66.218 15.3963 66.439 15.436 66.6883 15.436Z" fill="black"/>
<path d="M21 29C21.5523 29 22 29.4477 22 30C22 30.5523 21.5523 31 21 31H1C0.447715 31 0 30.5523 0 30C0 29.4477 0.447715 29 1 29H21Z" fill="#00AAA4"/>
<path d="M23.966 65V55.2H25.856L30.364 61.962V55.2H32.254V65H30.364L25.856 58.252V65H23.966ZM37.3152 65.168C36.6432 65.168 36.0366 65.014 35.4952 64.706C34.9632 64.3887 34.5386 63.9547 34.2212 63.404C33.9132 62.844 33.7592 62.2047 33.7592 61.486C33.7592 60.7487 33.9132 60.1047 34.2212 59.554C34.5386 58.994 34.9679 58.56 35.5092 58.252C36.0506 57.9347 36.6572 57.776 37.3292 57.776C38.0106 57.776 38.6172 57.9347 39.1492 58.252C39.6906 58.56 40.1152 58.994 40.4232 59.554C40.7406 60.1047 40.8992 60.744 40.8992 61.472C40.8992 62.2 40.7406 62.844 40.4232 63.404C40.1152 63.9547 39.6906 64.3887 39.1492 64.706C38.6079 65.014 37.9966 65.168 37.3152 65.168ZM37.3152 63.53C37.6326 63.53 37.9126 63.4553 38.1552 63.306C38.4072 63.1567 38.6032 62.928 38.7432 62.62C38.8926 62.312 38.9672 61.9293 38.9672 61.472C38.9672 61.0147 38.8926 60.6367 38.7432 60.338C38.6032 60.03 38.4072 59.8013 38.1552 59.652C37.9126 59.4933 37.6372 59.414 37.3292 59.414C37.0306 59.414 36.7552 59.4933 36.5032 59.652C36.2512 59.8013 36.0506 60.03 35.9012 60.338C35.7612 60.6367 35.6912 61.0147 35.6912 61.472C35.6912 61.9293 35.7612 62.312 35.9012 62.62C36.0506 62.928 36.2466 63.1567 36.4892 63.306C36.7412 63.4553 37.0166 63.53 37.3152 63.53ZM45.2721 65.168C44.6281 65.168 44.0681 65.0653 43.5921 64.86C43.1161 64.6547 42.7428 64.37 42.4721 64.006C42.2015 63.642 42.0475 63.2313 42.0101 62.774H43.8861C43.9328 62.9513 44.0121 63.1147 44.1241 63.264C44.2361 63.404 44.3855 63.516 44.5721 63.6C44.7588 63.684 44.9828 63.726 45.2441 63.726C45.4961 63.726 45.7015 63.6933 45.8601 63.628C46.0188 63.5533 46.1355 63.4553 46.2101 63.334C46.2941 63.2127 46.3361 63.0867 46.3361 62.956C46.3361 62.76 46.2801 62.6107 46.1681 62.508C46.0561 62.396 45.8928 62.3073 45.6781 62.242C45.4635 62.1767 45.2021 62.1113 44.8941 62.046C44.5581 61.9807 44.2268 61.9013 43.9001 61.808C43.5828 61.7053 43.2981 61.5793 43.0461 61.43C42.7941 61.2807 42.5935 61.0893 42.4441 60.856C42.2948 60.6227 42.2201 60.3333 42.2201 59.988C42.2201 59.568 42.3321 59.1947 42.5561 58.868C42.7801 58.532 43.1068 58.266 43.5361 58.07C43.9655 57.874 44.4835 57.776 45.0901 57.776C45.9395 57.776 46.6115 57.9673 47.1061 58.35C47.6008 58.7327 47.8948 59.26 47.9881 59.932H46.2101C46.1541 59.7173 46.0281 59.5493 45.8321 59.428C45.6455 59.2973 45.3935 59.232 45.0761 59.232C44.7401 59.232 44.4835 59.2927 44.3061 59.414C44.1288 59.5353 44.0401 59.694 44.0401 59.89C44.0401 60.0207 44.0961 60.1373 44.2081 60.24C44.3295 60.3427 44.4975 60.4313 44.7121 60.506C44.9268 60.5713 45.1881 60.6367 45.4961 60.702C46.0375 60.814 46.5135 60.9447 46.9241 61.094C47.3348 61.234 47.6568 61.4393 47.8901 61.71C48.1235 61.9713 48.2401 62.354 48.2401 62.858C48.2401 63.306 48.1188 63.7073 47.8761 64.062C47.6335 64.4073 47.2881 64.678 46.8401 64.874C46.4015 65.07 45.8788 65.168 45.2721 65.168ZM53.0313 65.168C52.3593 65.168 51.7526 65.014 51.2113 64.706C50.6793 64.3887 50.2546 63.9547 49.9373 63.404C49.6293 62.844 49.4753 62.2047 49.4753 61.486C49.4753 60.7487 49.6293 60.1047 49.9373 59.554C50.2546 58.994 50.684 58.56 51.2253 58.252C51.7666 57.9347 52.3733 57.776 53.0453 57.776C53.7266 57.776 54.3333 57.9347 54.8653 58.252C55.4066 58.56 55.8313 58.994 56.1393 59.554C56.4566 60.1047 56.6153 60.744 56.6153 61.472C56.6153 62.2 56.4566 62.844 56.1393 63.404C55.8313 63.9547 55.4066 64.3887 54.8653 64.706C54.324 65.014 53.7126 65.168 53.0313 65.168ZM53.0313 63.53C53.3486 63.53 53.6286 63.4553 53.8713 63.306C54.1233 63.1567 54.3193 62.928 54.4593 62.62C54.6086 62.312 54.6833 61.9293 54.6833 61.472C54.6833 61.0147 54.6086 60.6367 54.4593 60.338C54.3193 60.03 54.1233 59.8013 53.8713 59.652C53.6286 59.4933 53.3533 59.414 53.0453 59.414C52.7466 59.414 52.4713 59.4933 52.2193 59.652C51.9673 59.8013 51.7666 60.03 51.6173 60.338C51.4773 60.6367 51.4073 61.0147 51.4073 61.472C51.4073 61.9293 51.4773 62.312 51.6173 62.62C51.7666 62.928 51.9626 63.1567 52.2053 63.306C52.4573 63.4553 52.7326 63.53 53.0313 63.53ZM61.0088 65C60.5141 65 60.0801 64.9253 59.7068 64.776C59.3428 64.6173 59.0581 64.3607 58.8528 64.006C58.6475 63.642 58.5448 63.1473 58.5448 62.522V59.526H57.3408V57.944H58.5448L58.7548 56.026H60.4348V57.944H62.2968V59.526H60.4348V62.55C60.4348 62.8673 60.5048 63.0867 60.6448 63.208C60.7848 63.3293 61.0228 63.39 61.3588 63.39H62.2828V65H61.0088ZM63.7474 65V57.944H65.4274L65.6094 59.246C65.7774 58.938 65.9874 58.6767 66.2394 58.462C66.5008 58.2473 66.7948 58.0793 67.1214 57.958C67.4574 57.8367 67.8261 57.776 68.2274 57.776V59.778H67.5834C67.3034 59.778 67.0421 59.8107 66.7994 59.876C66.5661 59.9413 66.3608 60.0487 66.1834 60.198C66.0061 60.338 65.8708 60.534 65.7774 60.786C65.6841 61.038 65.6374 61.3553 65.6374 61.738V65H63.7474ZM72.5586 65.168C71.8866 65.168 71.2799 65.014 70.7386 64.706C70.2066 64.3887 69.7819 63.9547 69.4646 63.404C69.1566 62.844 69.0026 62.2047 69.0026 61.486C69.0026 60.7487 69.1566 60.1047 69.4646 59.554C69.7819 58.994 70.2112 58.56 70.7526 58.252C71.2939 57.9347 71.9006 57.776 72.5726 57.776C73.2539 57.776 73.8606 57.9347 74.3926 58.252C74.9339 58.56 75.3586 58.994 75.6666 59.554C75.9839 60.1047 76.1426 60.744 76.1426 61.472C76.1426 62.2 75.9839 62.844 75.6666 63.404C75.3586 63.9547 74.9339 64.3887 74.3926 64.706C73.8512 65.014 73.2399 65.168 72.5586 65.168ZM72.5586 63.53C72.8759 63.53 73.1559 63.4553 73.3986 63.306C73.6506 63.1567 73.8466 62.928 73.9866 62.62C74.1359 62.312 74.2106 61.9293 74.2106 61.472C74.2106 61.0147 74.1359 60.6367 73.9866 60.338C73.8466 60.03 73.6506 59.8013 73.3986 59.652C73.1559 59.4933 72.8806 59.414 72.5726 59.414C72.2739 59.414 71.9986 59.4933 71.7466 59.652C71.4946 59.8013 71.2939 60.03 71.1446 60.338C71.0046 60.6367 70.9346 61.0147 70.9346 61.472C70.9346 61.9293 71.0046 62.312 71.1446 62.62C71.2939 62.928 71.4899 63.1567 71.7326 63.306C71.9846 63.4553 72.2599 63.53 72.5586 63.53ZM80.5155 65.168C79.8715 65.168 79.3115 65.0653 78.8355 64.86C78.3595 64.6547 77.9862 64.37 77.7155 64.006C77.4448 63.642 77.2908 63.2313 77.2535 62.774H79.1295C79.1762 62.9513 79.2555 63.1147 79.3675 63.264C79.4795 63.404 79.6288 63.516 79.8155 63.6C80.0022 63.684 80.2262 63.726 80.4875 63.726C80.7395 63.726 80.9448 63.6933 81.1035 63.628C81.2622 63.5533 81.3788 63.4553 81.4535 63.334C81.5375 63.2127 81.5795 63.0867 81.5795 62.956C81.5795 62.76 81.5235 62.6107 81.4115 62.508C81.2995 62.396 81.1362 62.3073 80.9215 62.242C80.7068 62.1767 80.4455 62.1113 80.1375 62.046C79.8015 61.9807 79.4702 61.9013 79.1435 61.808C78.8262 61.7053 78.5415 61.5793 78.2895 61.43C78.0375 61.2807 77.8368 61.0893 77.6875 60.856C77.5382 60.6227 77.4635 60.3333 77.4635 59.988C77.4635 59.568 77.5755 59.1947 77.7995 58.868C78.0235 58.532 78.3502 58.266 78.7795 58.07C79.2088 57.874 79.7268 57.776 80.3335 57.776C81.1828 57.776 81.8548 57.9673 82.3495 58.35C82.8442 58.7327 83.1382 59.26 83.2315 59.932H81.4535C81.3975 59.7173 81.2715 59.5493 81.0755 59.428C80.8888 59.2973 80.6368 59.232 80.3195 59.232C79.9835 59.232 79.7268 59.2927 79.5495 59.414C79.3722 59.5353 79.2835 59.694 79.2835 59.89C79.2835 60.0207 79.3395 60.1373 79.4515 60.24C79.5728 60.3427 79.7408 60.4313 79.9555 60.506C80.1702 60.5713 80.4315 60.6367 80.7395 60.702C81.2808 60.814 81.7568 60.9447 82.1675 61.094C82.5782 61.234 82.9002 61.4393 83.1335 61.71C83.3668 61.9713 83.4835 62.354 83.4835 62.858C83.4835 63.306 83.3622 63.7073 83.1195 64.062C82.8768 64.4073 82.5315 64.678 82.0835 64.874C81.6448 65.07 81.1222 65.168 80.5155 65.168Z" fill="#737886"/>
<path d="M28.362 99.168C27.382 99.168 26.5373 98.958 25.828 98.538C25.128 98.1087 24.5867 97.516 24.204 96.76C23.8307 95.9947 23.644 95.1127 23.644 94.114C23.644 93.1153 23.8307 92.2333 24.204 91.468C24.5867 90.7027 25.128 90.1053 25.828 89.676C26.5373 89.2467 27.382 89.032 28.362 89.032C29.5473 89.032 30.518 89.326 31.274 89.914C32.03 90.502 32.5013 91.3327 32.688 92.406H30.63C30.5087 91.8833 30.252 91.4773 29.86 91.188C29.4773 90.8893 28.9733 90.74 28.348 90.74C27.7693 90.74 27.27 90.88 26.85 91.16C26.4393 91.4307 26.122 91.818 25.898 92.322C25.674 92.8167 25.562 93.414 25.562 94.114C25.562 94.8047 25.674 95.402 25.898 95.906C26.122 96.41 26.4393 96.7973 26.85 97.068C27.27 97.3387 27.7693 97.474 28.348 97.474C28.9733 97.474 29.4773 97.3387 29.86 97.068C30.2427 96.788 30.4947 96.4007 30.616 95.906H32.688C32.5013 96.9233 32.03 97.7213 31.274 98.3C30.518 98.8787 29.5473 99.168 28.362 99.168ZM36.4999 99.168C35.9119 99.168 35.4266 99.0747 35.0439 98.888C34.6613 98.692 34.3766 98.4353 34.1899 98.118C34.0126 97.7913 33.9239 97.432 33.9239 97.04C33.9239 96.6107 34.0313 96.2327 34.2459 95.906C34.4699 95.5793 34.8013 95.3227 35.2399 95.136C35.6879 94.9493 36.2479 94.856 36.9199 94.856H38.6699C38.6699 94.5107 38.6233 94.226 38.5299 94.002C38.4366 93.7687 38.2919 93.596 38.0959 93.484C37.8999 93.372 37.6386 93.316 37.3119 93.316C36.9573 93.316 36.6539 93.3953 36.4019 93.554C36.1593 93.7033 36.0099 93.9367 35.9539 94.254H34.1199C34.1666 93.75 34.3299 93.316 34.6099 92.952C34.8993 92.5787 35.2773 92.2893 35.7439 92.084C36.2199 91.8787 36.7473 91.776 37.3259 91.776C37.9886 91.776 38.5626 91.888 39.0479 92.112C39.5333 92.336 39.9066 92.658 40.1679 93.078C40.4293 93.498 40.5599 94.016 40.5599 94.632V99H38.9639L38.7539 97.922C38.6513 98.1087 38.5299 98.2767 38.3899 98.426C38.2499 98.5753 38.0866 98.706 37.8999 98.818C37.7133 98.93 37.5033 99.014 37.2699 99.07C37.0366 99.1353 36.7799 99.168 36.4999 99.168ZM36.9479 97.712C37.1906 97.712 37.4053 97.67 37.5919 97.586C37.7879 97.4927 37.9559 97.3713 38.0959 97.222C38.2359 97.0633 38.3433 96.886 38.4179 96.69C38.5019 96.4847 38.5579 96.2653 38.5859 96.032V96.018H37.1439C36.8546 96.018 36.6166 96.0553 36.4299 96.13C36.2526 96.1953 36.1219 96.2933 36.0379 96.424C35.9539 96.5547 35.9119 96.704 35.9119 96.872C35.9119 97.0587 35.9539 97.2127 36.0379 97.334C36.1219 97.4553 36.2433 97.5487 36.4019 97.614C36.5606 97.6793 36.7426 97.712 36.9479 97.712ZM45.279 99C44.7844 99 44.3504 98.9253 43.977 98.776C43.613 98.6173 43.3284 98.3607 43.123 98.006C42.9177 97.642 42.815 97.1473 42.815 96.522V93.526H41.611V91.944H42.815L43.025 90.026H44.705V91.944H46.567V93.526H44.705V96.55C44.705 96.8673 44.775 97.0867 44.915 97.208C45.055 97.3293 45.293 97.39 45.629 97.39H46.553V99H45.279ZM50.3977 99.168C49.8097 99.168 49.3243 99.0747 48.9417 98.888C48.559 98.692 48.2743 98.4353 48.0877 98.118C47.9103 97.7913 47.8217 97.432 47.8217 97.04C47.8217 96.6107 47.929 96.2327 48.1437 95.906C48.3677 95.5793 48.699 95.3227 49.1377 95.136C49.5857 94.9493 50.1457 94.856 50.8177 94.856H52.5677C52.5677 94.5107 52.521 94.226 52.4277 94.002C52.3343 93.7687 52.1897 93.596 51.9937 93.484C51.7977 93.372 51.5363 93.316 51.2097 93.316C50.855 93.316 50.5517 93.3953 50.2997 93.554C50.057 93.7033 49.9077 93.9367 49.8517 94.254H48.0177C48.0643 93.75 48.2277 93.316 48.5077 92.952C48.797 92.5787 49.175 92.2893 49.6417 92.084C50.1177 91.8787 50.645 91.776 51.2237 91.776C51.8863 91.776 52.4603 91.888 52.9457 92.112C53.431 92.336 53.8043 92.658 54.0657 93.078C54.327 93.498 54.4577 94.016 54.4577 94.632V99H52.8617L52.6517 97.922C52.549 98.1087 52.4277 98.2767 52.2877 98.426C52.1477 98.5753 51.9843 98.706 51.7977 98.818C51.611 98.93 51.401 99.014 51.1677 99.07C50.9343 99.1353 50.6777 99.168 50.3977 99.168ZM50.8457 97.712C51.0883 97.712 51.303 97.67 51.4897 97.586C51.6857 97.4927 51.8537 97.3713 51.9937 97.222C52.1337 97.0633 52.241 96.886 52.3157 96.69C52.3997 96.4847 52.4557 96.2653 52.4837 96.032V96.018H51.0417C50.7523 96.018 50.5143 96.0553 50.3277 96.13C50.1503 96.1953 50.0197 96.2933 49.9357 96.424C49.8517 96.5547 49.8097 96.704 49.8097 96.872C49.8097 97.0587 49.8517 97.2127 49.9357 97.334C50.0197 97.4553 50.141 97.5487 50.2997 97.614C50.4583 97.6793 50.6403 97.712 50.8457 97.712ZM49.6697 91.342L49.5017 90.096L52.5677 88.346L52.7917 89.788L49.6697 91.342ZM56.0808 99V88.92H57.9708V99H56.0808ZM63.0052 99.168C62.3332 99.168 61.7266 99.014 61.1852 98.706C60.6532 98.3887 60.2286 97.9547 59.9112 97.404C59.6032 96.844 59.4492 96.2047 59.4492 95.486C59.4492 94.7487 59.6032 94.1047 59.9112 93.554C60.2286 92.994 60.6579 92.56 61.1992 92.252C61.7406 91.9347 62.3472 91.776 63.0192 91.776C63.7006 91.776 64.3072 91.9347 64.8392 92.252C65.3806 92.56 65.8052 92.994 66.1132 93.554C66.4306 94.1047 66.5892 94.744 66.5892 95.472C66.5892 96.2 66.4306 96.844 66.1132 97.404C65.8052 97.9547 65.3806 98.3887 64.8392 98.706C64.2979 99.014 63.6866 99.168 63.0052 99.168ZM63.0052 97.53C63.3226 97.53 63.6026 97.4553 63.8452 97.306C64.0972 97.1567 64.2932 96.928 64.4332 96.62C64.5826 96.312 64.6572 95.9293 64.6572 95.472C64.6572 95.0147 64.5826 94.6367 64.4332 94.338C64.2932 94.03 64.0972 93.8013 63.8452 93.652C63.6026 93.4933 63.3272 93.414 63.0192 93.414C62.7206 93.414 62.4452 93.4933 62.1932 93.652C61.9412 93.8013 61.7406 94.03 61.5912 94.338C61.4512 94.6367 61.3812 95.0147 61.3812 95.472C61.3812 95.9293 61.4512 96.312 61.5912 96.62C61.7406 96.928 61.9366 97.1567 62.1792 97.306C62.4312 97.4553 62.7066 97.53 63.0052 97.53ZM70.665 102.248C69.993 102.248 69.405 102.164 68.901 101.996C68.397 101.837 68.005 101.59 67.725 101.254C67.4543 100.927 67.319 100.521 67.319 100.036C67.319 99.7093 67.403 99.4013 67.571 99.112C67.739 98.8227 67.9816 98.5613 68.299 98.328C68.6256 98.0853 69.0316 97.88 69.517 97.712L70.231 98.636C69.8016 98.776 69.489 98.9487 69.293 99.154C69.1063 99.3687 69.013 99.5973 69.013 99.84C69.013 100.055 69.083 100.237 69.223 100.386C69.3723 100.535 69.5683 100.643 69.811 100.708C70.063 100.783 70.343 100.82 70.651 100.82C70.9496 100.82 71.2063 100.783 71.421 100.708C71.645 100.633 71.8176 100.521 71.939 100.372C72.0696 100.232 72.135 100.064 72.135 99.868C72.135 99.616 72.0463 99.4107 71.869 99.252C71.6916 99.0933 71.337 98.9953 70.805 98.958C70.329 98.9207 69.9043 98.8693 69.531 98.804C69.167 98.7293 68.845 98.6453 68.565 98.552C68.285 98.4493 68.047 98.3373 67.851 98.216C67.6643 98.0947 67.5103 97.9733 67.389 97.852V97.53L68.887 95.92L70.245 96.354L68.481 98.09L69.013 97.166C69.1156 97.222 69.2136 97.278 69.307 97.334C69.4096 97.3807 69.5356 97.4273 69.685 97.474C69.8343 97.5113 70.0303 97.5487 70.273 97.586C70.5156 97.6233 70.8236 97.656 71.197 97.684C71.813 97.74 72.317 97.8567 72.709 98.034C73.1103 98.2113 73.4043 98.4493 73.591 98.748C73.7776 99.0373 73.871 99.3967 73.871 99.826C73.871 100.246 73.7543 100.638 73.521 101.002C73.297 101.375 72.947 101.674 72.471 101.898C71.995 102.131 71.393 102.248 70.665 102.248ZM70.665 96.914C70.077 96.914 69.5683 96.802 69.139 96.578C68.719 96.3447 68.3923 96.0367 68.159 95.654C67.935 95.262 67.823 94.828 67.823 94.352C67.823 93.876 67.935 93.4467 68.159 93.064C68.3923 92.672 68.719 92.3593 69.139 92.126C69.5683 91.8927 70.077 91.776 70.665 91.776C71.2623 91.776 71.771 91.8927 72.191 92.126C72.6203 92.3593 72.947 92.672 73.171 93.064C73.395 93.4467 73.507 93.876 73.507 94.352C73.507 94.828 73.395 95.262 73.171 95.654C72.947 96.0367 72.6203 96.3447 72.191 96.578C71.771 96.802 71.2623 96.914 70.665 96.914ZM70.665 95.472C71.029 95.472 71.323 95.3787 71.547 95.192C71.771 95.0053 71.883 94.73 71.883 94.366C71.883 94.002 71.771 93.7267 71.547 93.54C71.323 93.344 71.029 93.246 70.665 93.246C70.3103 93.246 70.0163 93.344 69.783 93.54C69.559 93.7267 69.447 94.002 69.447 94.366C69.447 94.73 69.559 95.0053 69.783 95.192C70.0163 95.3787 70.3103 95.472 70.665 95.472ZM71.841 93.288L71.533 91.944H74.431V93.064L71.841 93.288ZM78.8854 99.168C78.2134 99.168 77.6067 99.014 77.0654 98.706C76.5334 98.3887 76.1087 97.9547 75.7914 97.404C75.4834 96.844 75.3294 96.2047 75.3294 95.486C75.3294 94.7487 75.4834 94.1047 75.7914 93.554C76.1087 92.994 76.538 92.56 77.0794 92.252C77.6207 91.9347 78.2274 91.776 78.8994 91.776C79.5807 91.776 80.1874 91.9347 80.7194 92.252C81.2607 92.56 81.6854 92.994 81.9934 93.554C82.3107 94.1047 82.4694 94.744 82.4694 95.472C82.4694 96.2 82.3107 96.844 81.9934 97.404C81.6854 97.9547 81.2607 98.3887 80.7194 98.706C80.178 99.014 79.5667 99.168 78.8854 99.168ZM78.8854 97.53C79.2027 97.53 79.4827 97.4553 79.7254 97.306C79.9774 97.1567 80.1734 96.928 80.3134 96.62C80.4627 96.312 80.5374 95.9293 80.5374 95.472C80.5374 95.0147 80.4627 94.6367 80.3134 94.338C80.1734 94.03 79.9774 93.8013 79.7254 93.652C79.4827 93.4933 79.2074 93.414 78.8994 93.414C78.6007 93.414 78.3254 93.4933 78.0734 93.652C77.8214 93.8013 77.6207 94.03 77.4714 94.338C77.3314 94.6367 77.2614 95.0147 77.2614 95.472C77.2614 95.9293 77.3314 96.312 77.4714 96.62C77.6207 96.928 77.8167 97.1567 78.0594 97.306C78.3114 97.4553 78.5867 97.53 78.8854 97.53Z" fill="#737886"/>
<path d="M23.966 133V123.2H27.984C28.6653 123.2 29.2393 123.307 29.706 123.522C30.1727 123.737 30.5227 124.035 30.756 124.418C30.9987 124.791 31.12 125.225 31.12 125.72C31.12 126.215 31.0127 126.63 30.798 126.966C30.5833 127.302 30.2987 127.563 29.944 127.75C29.5987 127.927 29.216 128.03 28.796 128.058L29.02 127.904C29.468 127.923 29.8647 128.044 30.21 128.268C30.5647 128.483 30.84 128.772 31.036 129.136C31.2413 129.5 31.344 129.897 31.344 130.326C31.344 130.849 31.218 131.311 30.966 131.712C30.714 132.113 30.35 132.431 29.874 132.664C29.398 132.888 28.8147 133 28.124 133H23.966ZM25.856 131.46H27.816C28.3293 131.46 28.726 131.343 29.006 131.11C29.286 130.877 29.426 130.541 29.426 130.102C29.426 129.663 29.2813 129.323 28.992 129.08C28.7027 128.828 28.3013 128.702 27.788 128.702H25.856V131.46ZM25.856 127.288H27.676C28.1707 127.288 28.544 127.176 28.796 126.952C29.0573 126.728 29.188 126.411 29.188 126C29.188 125.599 29.0573 125.286 28.796 125.062C28.544 124.829 28.166 124.712 27.662 124.712H25.856V127.288ZM32.7117 133V122.92H34.6017V133H32.7117ZM39.6362 133.168C38.9642 133.168 38.3575 133.014 37.8162 132.706C37.2842 132.389 36.8595 131.955 36.5422 131.404C36.2342 130.844 36.0802 130.205 36.0802 129.486C36.0802 128.749 36.2342 128.105 36.5422 127.554C36.8595 126.994 37.2888 126.56 37.8302 126.252C38.3715 125.935 38.9782 125.776 39.6502 125.776C40.3315 125.776 40.9382 125.935 41.4702 126.252C42.0115 126.56 42.4362 126.994 42.7442 127.554C43.0615 128.105 43.2202 128.744 43.2202 129.472C43.2202 130.2 43.0615 130.844 42.7442 131.404C42.4362 131.955 42.0115 132.389 41.4702 132.706C40.9288 133.014 40.3175 133.168 39.6362 133.168ZM39.6362 131.53C39.9535 131.53 40.2335 131.455 40.4762 131.306C40.7282 131.157 40.9242 130.928 41.0642 130.62C41.2135 130.312 41.2882 129.929 41.2882 129.472C41.2882 129.015 41.2135 128.637 41.0642 128.338C40.9242 128.03 40.7282 127.801 40.4762 127.652C40.2335 127.493 39.9582 127.414 39.6502 127.414C39.3515 127.414 39.0762 127.493 38.8242 127.652C38.5722 127.801 38.3715 128.03 38.2222 128.338C38.0822 128.637 38.0122 129.015 38.0122 129.472C38.0122 129.929 38.0822 130.312 38.2222 130.62C38.3715 130.928 38.5675 131.157 38.8102 131.306C39.0622 131.455 39.3375 131.53 39.6362 131.53ZM47.2959 136.248C46.6239 136.248 46.0359 136.164 45.5319 135.996C45.0279 135.837 44.6359 135.59 44.3559 135.254C44.0852 134.927 43.9499 134.521 43.9499 134.036C43.9499 133.709 44.0339 133.401 44.2019 133.112C44.3699 132.823 44.6126 132.561 44.9299 132.328C45.2566 132.085 45.6626 131.88 46.1479 131.712L46.8619 132.636C46.4326 132.776 46.1199 132.949 45.9239 133.154C45.7372 133.369 45.6439 133.597 45.6439 133.84C45.6439 134.055 45.7139 134.237 45.8539 134.386C46.0032 134.535 46.1992 134.643 46.4419 134.708C46.6939 134.783 46.9739 134.82 47.2819 134.82C47.5806 134.82 47.8372 134.783 48.0519 134.708C48.2759 134.633 48.4486 134.521 48.5699 134.372C48.7006 134.232 48.7659 134.064 48.7659 133.868C48.7659 133.616 48.6772 133.411 48.4999 133.252C48.3226 133.093 47.9679 132.995 47.4359 132.958C46.9599 132.921 46.5352 132.869 46.1619 132.804C45.7979 132.729 45.4759 132.645 45.1959 132.552C44.9159 132.449 44.6779 132.337 44.4819 132.216C44.2952 132.095 44.1412 131.973 44.0199 131.852V131.53L45.5179 129.92L46.8759 130.354L45.1119 132.09L45.6439 131.166C45.7466 131.222 45.8446 131.278 45.9379 131.334C46.0406 131.381 46.1666 131.427 46.3159 131.474C46.4652 131.511 46.6612 131.549 46.9039 131.586C47.1466 131.623 47.4546 131.656 47.8279 131.684C48.4439 131.74 48.9479 131.857 49.3399 132.034C49.7412 132.211 50.0352 132.449 50.2219 132.748C50.4086 133.037 50.5019 133.397 50.5019 133.826C50.5019 134.246 50.3852 134.638 50.1519 135.002C49.9279 135.375 49.5779 135.674 49.1019 135.898C48.6259 136.131 48.0239 136.248 47.2959 136.248ZM47.2959 130.914C46.7079 130.914 46.1992 130.802 45.7699 130.578C45.3499 130.345 45.0232 130.037 44.7899 129.654C44.5659 129.262 44.4539 128.828 44.4539 128.352C44.4539 127.876 44.5659 127.447 44.7899 127.064C45.0232 126.672 45.3499 126.359 45.7699 126.126C46.1992 125.893 46.7079 125.776 47.2959 125.776C47.8932 125.776 48.4019 125.893 48.8219 126.126C49.2512 126.359 49.5779 126.672 49.8019 127.064C50.0259 127.447 50.1379 127.876 50.1379 128.352C50.1379 128.828 50.0259 129.262 49.8019 129.654C49.5779 130.037 49.2512 130.345 48.8219 130.578C48.4019 130.802 47.8932 130.914 47.2959 130.914ZM47.2959 129.472C47.6599 129.472 47.9539 129.379 48.1779 129.192C48.4019 129.005 48.5139 128.73 48.5139 128.366C48.5139 128.002 48.4019 127.727 48.1779 127.54C47.9539 127.344 47.6599 127.246 47.2959 127.246C46.9412 127.246 46.6472 127.344 46.4139 127.54C46.1899 127.727 46.0779 128.002 46.0779 128.366C46.0779 128.73 46.1899 129.005 46.4139 129.192C46.6472 129.379 46.9412 129.472 47.2959 129.472ZM48.4719 127.288L48.1639 125.944H51.0619V127.064L48.4719 127.288Z" fill="#737886"/>
<path d="M28.362 167.168C27.382 167.168 26.5373 166.958 25.828 166.538C25.128 166.109 24.5867 165.516 24.204 164.76C23.8307 163.995 23.644 163.113 23.644 162.114C23.644 161.115 23.8307 160.233 24.204 159.468C24.5867 158.703 25.128 158.105 25.828 157.676C26.5373 157.247 27.382 157.032 28.362 157.032C29.5473 157.032 30.518 157.326 31.274 157.914C32.03 158.502 32.5013 159.333 32.688 160.406H30.63C30.5087 159.883 30.252 159.477 29.86 159.188C29.4773 158.889 28.9733 158.74 28.348 158.74C27.7693 158.74 27.27 158.88 26.85 159.16C26.4393 159.431 26.122 159.818 25.898 160.322C25.674 160.817 25.562 161.414 25.562 162.114C25.562 162.805 25.674 163.402 25.898 163.906C26.122 164.41 26.4393 164.797 26.85 165.068C27.27 165.339 27.7693 165.474 28.348 165.474C28.9733 165.474 29.4773 165.339 29.86 165.068C30.2427 164.788 30.4947 164.401 30.616 163.906H32.688C32.5013 164.923 32.03 165.721 31.274 166.3C30.518 166.879 29.5473 167.168 28.362 167.168ZM37.4519 167.168C36.7799 167.168 36.1733 167.014 35.6319 166.706C35.0999 166.389 34.6753 165.955 34.3579 165.404C34.0499 164.844 33.8959 164.205 33.8959 163.486C33.8959 162.749 34.0499 162.105 34.3579 161.554C34.6753 160.994 35.1046 160.56 35.6459 160.252C36.1873 159.935 36.7939 159.776 37.4659 159.776C38.1473 159.776 38.7539 159.935 39.2859 160.252C39.8273 160.56 40.2519 160.994 40.5599 161.554C40.8773 162.105 41.0359 162.744 41.0359 163.472C41.0359 164.2 40.8773 164.844 40.5599 165.404C40.2519 165.955 39.8273 166.389 39.2859 166.706C38.7446 167.014 38.1333 167.168 37.4519 167.168ZM37.4519 165.53C37.7693 165.53 38.0493 165.455 38.2919 165.306C38.5439 165.157 38.7399 164.928 38.8799 164.62C39.0293 164.312 39.1039 163.929 39.1039 163.472C39.1039 163.015 39.0293 162.637 38.8799 162.338C38.7399 162.03 38.5439 161.801 38.2919 161.652C38.0493 161.493 37.7739 161.414 37.4659 161.414C37.1673 161.414 36.8919 161.493 36.6399 161.652C36.3879 161.801 36.1873 162.03 36.0379 162.338C35.8979 162.637 35.8279 163.015 35.8279 163.472C35.8279 163.929 35.8979 164.312 36.0379 164.62C36.1873 164.928 36.3833 165.157 36.6259 165.306C36.8779 165.455 37.1533 165.53 37.4519 165.53ZM42.5249 167V159.944H44.1909L44.3309 161.092C44.5455 160.7 44.8489 160.383 45.2409 160.14C45.6422 159.897 46.1182 159.776 46.6689 159.776C47.2569 159.776 47.7515 159.897 48.1529 160.14C48.5542 160.383 48.8575 160.737 49.0629 161.204C49.2775 161.671 49.3849 162.245 49.3849 162.926V167H47.5089V163.108C47.5089 162.548 47.3875 162.119 47.1449 161.82C46.9115 161.521 46.5475 161.372 46.0529 161.372C45.7355 161.372 45.4509 161.447 45.1989 161.596C44.9562 161.745 44.7649 161.96 44.6249 162.24C44.4849 162.511 44.4149 162.842 44.4149 163.234V167H42.5249ZM54.2035 167C53.7088 167 53.2748 166.925 52.9015 166.776C52.5375 166.617 52.2528 166.361 52.0475 166.006C51.8422 165.642 51.7395 165.147 51.7395 164.522V161.526H50.5355V159.944H51.7395L51.9495 158.026H53.6295V159.944H55.4915V161.526H53.6295V164.55C53.6295 164.867 53.6995 165.087 53.8395 165.208C53.9795 165.329 54.2175 165.39 54.5535 165.39H55.4775V167H54.2035ZM59.3221 167.168C58.7341 167.168 58.2488 167.075 57.8661 166.888C57.4835 166.692 57.1988 166.435 57.0121 166.118C56.8348 165.791 56.7461 165.432 56.7461 165.04C56.7461 164.611 56.8535 164.233 57.0681 163.906C57.2921 163.579 57.6235 163.323 58.0621 163.136C58.5101 162.949 59.0701 162.856 59.7421 162.856H61.4921C61.4921 162.511 61.4455 162.226 61.3521 162.002C61.2588 161.769 61.1141 161.596 60.9181 161.484C60.7221 161.372 60.4608 161.316 60.1341 161.316C59.7795 161.316 59.4761 161.395 59.2241 161.554C58.9815 161.703 58.8321 161.937 58.7761 162.254H56.9421C56.9888 161.75 57.1521 161.316 57.4321 160.952C57.7215 160.579 58.0995 160.289 58.5661 160.084C59.0421 159.879 59.5695 159.776 60.1481 159.776C60.8108 159.776 61.3848 159.888 61.8701 160.112C62.3555 160.336 62.7288 160.658 62.9901 161.078C63.2515 161.498 63.3821 162.016 63.3821 162.632V167H61.7861L61.5761 165.922C61.4735 166.109 61.3521 166.277 61.2121 166.426C61.0721 166.575 60.9088 166.706 60.7221 166.818C60.5355 166.93 60.3255 167.014 60.0921 167.07C59.8588 167.135 59.6021 167.168 59.3221 167.168ZM59.7701 165.712C60.0128 165.712 60.2275 165.67 60.4141 165.586C60.6101 165.493 60.7781 165.371 60.9181 165.222C61.0581 165.063 61.1655 164.886 61.2401 164.69C61.3241 164.485 61.3801 164.265 61.4081 164.032V164.018H59.9661C59.6768 164.018 59.4388 164.055 59.2521 164.13C59.0748 164.195 58.9441 164.293 58.8601 164.424C58.7761 164.555 58.7341 164.704 58.7341 164.872C58.7341 165.059 58.7761 165.213 58.8601 165.334C58.9441 165.455 59.0655 165.549 59.2241 165.614C59.3828 165.679 59.5648 165.712 59.7701 165.712ZM68.4212 167.168C67.7119 167.168 67.0819 167.009 66.5312 166.692C65.9806 166.375 65.5512 165.941 65.2432 165.39C64.9352 164.839 64.7812 164.209 64.7812 163.5C64.7812 162.772 64.9352 162.133 65.2432 161.582C65.5512 161.022 65.9806 160.583 66.5312 160.266C67.0819 159.939 67.7119 159.776 68.4212 159.776C69.3266 159.776 70.0872 160.014 70.7032 160.49C71.3192 160.966 71.7112 161.619 71.8792 162.45H69.8772C69.7932 162.123 69.6159 161.867 69.3452 161.68C69.0839 161.493 68.7712 161.4 68.4072 161.4C68.0806 161.4 67.7866 161.484 67.5252 161.652C67.2732 161.811 67.0726 162.049 66.9232 162.366C66.7832 162.674 66.7132 163.043 66.7132 163.472C66.7132 163.799 66.7552 164.093 66.8392 164.354C66.9232 164.606 67.0399 164.825 67.1892 165.012C67.3386 165.189 67.5159 165.325 67.7212 165.418C67.9359 165.511 68.1646 165.558 68.4072 165.558C68.6499 165.558 68.8692 165.516 69.0652 165.432C69.2706 165.348 69.4432 165.231 69.5832 165.082C69.7232 164.923 69.8212 164.732 69.8772 164.508H71.8792C71.7112 165.32 71.3146 165.969 70.6892 166.454C70.0732 166.93 69.3172 167.168 68.4212 167.168ZM76.4651 167C75.9705 167 75.5365 166.925 75.1631 166.776C74.7991 166.617 74.5145 166.361 74.3091 166.006C74.1038 165.642 74.0011 165.147 74.0011 164.522V161.526H72.7971V159.944H74.0011L74.2111 158.026H75.8911V159.944H77.7531V161.526H75.8911V164.55C75.8911 164.867 75.9611 165.087 76.1011 165.208C76.2411 165.329 76.4791 165.39 76.8151 165.39H77.7391V167H76.4651ZM82.358 167.168C81.686 167.168 81.0794 167.014 80.538 166.706C80.006 166.389 79.5814 165.955 79.264 165.404C78.956 164.844 78.802 164.205 78.802 163.486C78.802 162.749 78.956 162.105 79.264 161.554C79.5814 160.994 80.0107 160.56 80.552 160.252C81.0934 159.935 81.7 159.776 82.372 159.776C83.0534 159.776 83.66 159.935 84.192 160.252C84.7334 160.56 85.158 160.994 85.466 161.554C85.7834 162.105 85.942 162.744 85.942 163.472C85.942 164.2 85.7834 164.844 85.466 165.404C85.158 165.955 84.7334 166.389 84.192 166.706C83.6507 167.014 83.0394 167.168 82.358 167.168ZM82.358 165.53C82.6754 165.53 82.9554 165.455 83.198 165.306C83.45 165.157 83.646 164.928 83.786 164.62C83.9354 164.312 84.01 163.929 84.01 163.472C84.01 163.015 83.9354 162.637 83.786 162.338C83.646 162.03 83.45 161.801 83.198 161.652C82.9554 161.493 82.68 161.414 82.372 161.414C82.0734 161.414 81.798 161.493 81.546 161.652C81.294 161.801 81.0934 162.03 80.944 162.338C80.804 162.637 80.734 163.015 80.734 163.472C80.734 163.929 80.804 164.312 80.944 164.62C81.0934 164.928 81.2894 165.157 81.532 165.306C81.784 165.455 82.0594 165.53 82.358 165.53Z" fill="#737886"/>
<path d="M7.0253 59.7004C7.02612 59.9629 6.91574 60.218 6.72104 60.4046L1.70701 65.1909C1.45544 65.4309 1.05808 65.4215 0.818512 65.1694C0.57894 64.9174 0.58833 64.5192 0.8399 64.2792L5.61778 59.7183L0.729759 55.6332C0.463209 55.4103 0.427166 55.0133 0.649649 54.7462C0.872132 54.4791 1.26838 54.443 1.53493 54.6659L6.67012 58.9575C6.88627 59.138 7.01566 59.3991 7.02521 59.6723C7.02524 59.682 7.02527 59.6907 7.0253 59.7004Z" fill="#00AAA4"/>
<path d="M0.324351 55.9383C-0.0749568 55.5291 -0.108963 54.876 0.264942 54.4267C0.663904 53.9478 1.37615 53.8817 1.85532 54.2821L6.99082 58.5737C7.3127 58.8425 7.5098 59.2358 7.52447 59.6551L7.52461 59.699C7.52586 60.1028 7.35719 60.4877 7.067 60.7659L7.06603 60.7668L2.05165 65.553C1.6003 65.9834 0.886082 65.9668 0.45582 65.5141C0.0266441 65.0625 0.0433374 64.348 0.494778 63.9173L4.86653 59.7434L0.408582 56.0171L0.324351 55.9383ZM0.649733 54.7468C0.42737 55.0139 0.463144 55.4104 0.72965 55.6333L5.61743 59.7186L0.839661 64.2795C0.588298 64.5194 0.578823 64.9171 0.818025 65.1692L0.914967 65.2529C1.15495 65.4202 1.48667 65.4008 1.70677 65.1908L6.72114 60.4046C6.91571 60.2181 7.02542 59.963 7.02461 59.7006L7.02452 59.6722L7.01541 59.5707C6.98615 59.3689 6.89261 59.1782 6.74712 59.0286L6.66975 58.9575L1.53425 54.6659C1.30107 54.4712 0.968686 54.4741 0.740272 54.6567L0.649733 54.7468Z" fill="#00AAA4"/>
<path d="M7.0253 93.7004C7.02612 93.9629 6.91574 94.218 6.72104 94.4046L1.70701 99.1909C1.45544 99.4309 1.05808 99.4215 0.818512 99.1694C0.57894 98.9174 0.58833 98.5192 0.8399 98.2792L5.61778 93.7183L0.729759 89.6332C0.463209 89.4103 0.427166 89.0133 0.649649 88.7462C0.872132 88.4791 1.26838 88.443 1.53493 88.6659L6.67012 92.9575C6.88627 93.138 7.01566 93.3991 7.02521 93.6723C7.02524 93.682 7.02527 93.6907 7.0253 93.7004Z" fill="#00AAA4"/>
<path d="M0.324351 89.9383C-0.0749568 89.5291 -0.108963 88.876 0.264942 88.4267C0.663904 87.9478 1.37615 87.8817 1.85532 88.2821L6.99082 92.5737C7.3127 92.8425 7.5098 93.2358 7.52447 93.6551L7.52461 93.699C7.52586 94.1028 7.35719 94.4877 7.067 94.7659L7.06603 94.7668L2.05165 99.553C1.6003 99.9834 0.886082 99.9668 0.45582 99.5141C0.0266441 99.0625 0.0433374 98.348 0.494778 97.9173L4.86653 93.7434L0.408582 90.0171L0.324351 89.9383ZM0.649733 88.7468C0.42737 89.0139 0.463144 89.4104 0.72965 89.6333L5.61743 93.7186L0.839661 98.2795C0.588298 98.5194 0.578823 98.9171 0.818025 99.1692L0.914967 99.2529C1.15495 99.4202 1.48667 99.4008 1.70677 99.1908L6.72114 94.4046C6.91571 94.2181 7.02542 93.963 7.02461 93.7006L7.02452 93.6722L7.01541 93.5707C6.98615 93.3689 6.89261 93.1782 6.74712 93.0286L6.66975 92.9575L1.53425 88.6659C1.30107 88.4712 0.968686 88.4741 0.740272 88.6567L0.649733 88.7468Z" fill="#00AAA4"/>
<path d="M7.0253 127.7C7.02612 127.963 6.91574 128.218 6.72104 128.405L1.70701 133.191C1.45544 133.431 1.05808 133.422 0.818512 133.169C0.57894 132.917 0.58833 132.519 0.8399 132.279L5.61778 127.718L0.729759 123.633C0.463209 123.41 0.427166 123.013 0.649649 122.746C0.872132 122.479 1.26838 122.443 1.53493 122.666L6.67012 126.958C6.88627 127.138 7.01566 127.399 7.02521 127.672C7.02524 127.682 7.02527 127.691 7.0253 127.7Z" fill="#00AAA4"/>
<path d="M0.324351 123.938C-0.0749568 123.529 -0.108963 122.876 0.264942 122.427C0.663904 121.948 1.37615 121.882 1.85532 122.282L6.99082 126.574C7.3127 126.843 7.5098 127.236 7.52447 127.655L7.52461 127.699C7.52586 128.103 7.35719 128.488 7.067 128.766L7.06603 128.767L2.05165 133.553C1.6003 133.983 0.886082 133.967 0.45582 133.514C0.0266441 133.062 0.0433374 132.348 0.494778 131.917L4.86653 127.743L0.408582 124.017L0.324351 123.938ZM0.649733 122.747C0.42737 123.014 0.463144 123.41 0.72965 123.633L5.61743 127.719L0.839661 132.279C0.588298 132.519 0.578823 132.917 0.818025 133.169L0.914967 133.253C1.15495 133.42 1.48667 133.401 1.70677 133.191L6.72114 128.405C6.91571 128.218 7.02542 127.963 7.02461 127.701L7.02452 127.672L7.01541 127.571C6.98615 127.369 6.89261 127.178 6.74712 127.029L6.66975 126.958L1.53425 122.666C1.30107 122.471 0.968686 122.474 0.740272 122.657L0.649733 122.747Z" fill="#00AAA4"/>
<path d="M7.0253 161.7C7.02612 161.963 6.91574 162.218 6.72104 162.405L1.70701 167.191C1.45544 167.431 1.05808 167.422 0.818512 167.169C0.57894 166.917 0.58833 166.519 0.8399 166.279L5.61778 161.718L0.729759 157.633C0.463209 157.41 0.427166 157.013 0.649649 156.746C0.872132 156.479 1.26838 156.443 1.53493 156.666L6.67012 160.958C6.88627 161.138 7.01566 161.399 7.02521 161.672C7.02524 161.682 7.02527 161.691 7.0253 161.7Z" fill="#00AAA4"/>
<path d="M0.324351 157.938C-0.0749568 157.529 -0.108963 156.876 0.264942 156.427C0.663904 155.948 1.37615 155.882 1.85532 156.282L6.99082 160.574C7.3127 160.843 7.5098 161.236 7.52447 161.655L7.52461 161.699C7.52586 162.103 7.35719 162.488 7.067 162.766L7.06603 162.767L2.05165 167.553C1.6003 167.983 0.886082 167.967 0.45582 167.514C0.0266441 167.062 0.0433374 166.348 0.494778 165.917L4.86653 161.743L0.408582 158.017L0.324351 157.938ZM0.649733 156.747C0.42737 157.014 0.463144 157.41 0.72965 157.633L5.61743 161.719L0.839661 166.279C0.588298 166.519 0.578823 166.917 0.818025 167.169L0.914967 167.253C1.15495 167.42 1.48667 167.401 1.70677 167.191L6.72114 162.405C6.91571 162.218 7.02542 161.963 7.02461 161.701L7.02452 161.672L7.01541 161.571C6.98615 161.369 6.89261 161.178 6.74712 161.029L6.66975 160.958L1.53425 156.666C1.30107 156.471 0.968686 156.474 0.740272 156.657L0.649733 156.747Z" fill="#00AAA4"/>
</svg>
