<svg width="1281" height="89" viewBox="0 0 1281 89" fill="none" xmlns="http://www.w3.org/2000/svg">
<rect x="0.5" y="0.5" width="1280" height="88" rx="13.5" fill="white" stroke="#C7C7CE"/>
<path d="M463 62C463 62.5523 462.552 63 462 63C461.448 63 461 62.5523 461 62L461 28C461 27.4477 461.448 27 462 27C462.552 27 463 27.4477 463 28L463 62Z" fill="#EBEBEF"/>
<path d="M880 62C880 62.5523 879.552 63 879 63C878.448 63 878 62.5523 878 62L878 28C878 27.4477 878.448 27 879 27C879.552 27 880 27.4477 880 28L880 62Z" fill="#EBEBEF"/>
</svg>
