<svg width="274" height="51" viewBox="0 0 274 51" fill="none" xmlns="http://www.w3.org/2000/svg">
<g clip-path="url(#clip0_2029_7471)">
<path d="M25.5 51C39.5833 51 51 39.5833 51 25.5C51 11.4167 39.5833 0 25.5 0C11.4167 0 0 11.4167 0 25.5C0 39.5833 11.4167 51 25.5 51Z" fill="#7FDED9"/>
<path d="M22.707 25.6605C22.9601 25.8893 23.6852 26.5414 24.7996 26.8285C25.1013 26.9063 25.9432 27.1107 26.897 26.8285C27.661 26.5998 28.1623 26.1618 28.3813 25.9574C31.2525 23.3052 34.182 20.6287 37.0192 18.0349L40.0655 15.2513L39.9585 14.9788H11.052C10.906 14.9788 10.8379 15.1588 10.9498 15.2513C11.7673 15.9715 12.5898 16.6966 13.4122 17.4168C16.4732 20.108 19.6315 22.8867 22.707 25.6605Z" fill="white"/>
<path d="M30.1478 27.1644C29.8655 27.4418 28.138 29.0963 25.4517 28.9893C22.8433 28.8822 21.2763 27.1936 21.0038 26.8918L11.743 35.0869C11.3732 35.4178 11.6019 36.031 12.1031 36.031H38.8538C39.3502 36.031 39.5838 35.4129 39.2091 35.0869C36.187 32.4493 33.1698 29.8068 30.1478 27.1692V27.1644Z" fill="white"/>
<path d="M9.82552 17.7428L9.77686 33.2569C9.77686 33.6024 10.1808 33.7825 10.4387 33.5538L19.1155 25.8503C19.2907 25.6945 19.2956 25.4171 19.1155 25.2566L10.4874 17.446C10.2294 17.2124 9.82552 17.3973 9.82065 17.7379L9.82552 17.7428Z" fill="white"/>
<path d="M41.2286 33.6171L41.0436 17.3244C41.0436 17.1443 40.8295 17.0567 40.6981 17.1784L31.997 25.4659C31.9094 25.5486 31.9143 25.6849 31.997 25.7676L40.8782 33.7729C41.0096 33.8945 41.2237 33.7972 41.2188 33.6171H41.2286Z" fill="white"/>
</g>
<path d="M69.207 20V8.1H76.891V9.749H71.247V13.166H76.381V14.781H71.247V18.351H76.891V20H69.207ZM82.2141 20.204C81.4548 20.204 80.7918 20.085 80.2251 19.847C79.6698 19.5977 79.2278 19.2577 78.8991 18.827C78.5818 18.385 78.3948 17.8807 78.3381 17.314H80.3781C80.4348 17.552 80.5368 17.773 80.6841 17.977C80.8315 18.1697 81.0298 18.3227 81.2791 18.436C81.5398 18.5493 81.8458 18.606 82.1971 18.606C82.5371 18.606 82.8148 18.5607 83.0301 18.47C83.2455 18.368 83.4041 18.2377 83.5061 18.079C83.6081 17.9203 83.6591 17.7503 83.6591 17.569C83.6591 17.297 83.5855 17.0873 83.4381 16.94C83.2908 16.7927 83.0755 16.6793 82.7921 16.6C82.5201 16.5093 82.1915 16.4243 81.8061 16.345C81.3981 16.2657 81.0015 16.1693 80.6161 16.056C80.2421 15.9313 79.9021 15.7783 79.5961 15.597C79.3015 15.4157 79.0635 15.1833 78.8821 14.9C78.7121 14.6167 78.6271 14.271 78.6271 13.863C78.6271 13.3643 78.7575 12.9167 79.0181 12.52C79.2901 12.1233 79.6755 11.8117 80.1741 11.585C80.6841 11.347 81.2905 11.228 81.9931 11.228C82.9905 11.228 83.7838 11.4603 84.3731 11.925C84.9738 12.3783 85.3251 13.0187 85.4271 13.846H83.4891C83.4325 13.5287 83.2738 13.285 83.0131 13.115C82.7525 12.9337 82.4068 12.843 81.9761 12.843C81.5341 12.843 81.1941 12.928 80.9561 13.098C80.7295 13.2567 80.6161 13.472 80.6161 13.744C80.6161 13.914 80.6841 14.0727 80.8201 14.22C80.9675 14.356 81.1771 14.475 81.4491 14.577C81.7211 14.6677 82.0555 14.7583 82.4521 14.849C83.0868 14.9737 83.6478 15.121 84.1351 15.291C84.6225 15.461 85.0078 15.7103 85.2911 16.039C85.5745 16.3677 85.7161 16.8323 85.7161 17.433C85.7275 17.977 85.5858 18.4587 85.2911 18.878C85.0078 19.2973 84.6055 19.626 84.0841 19.864C83.5628 20.0907 82.9395 20.204 82.2141 20.204ZM91.5886 20.204C90.7499 20.204 89.9962 20.017 89.3276 19.643C88.6702 19.2577 88.1546 18.7307 87.7806 18.062C87.4179 17.382 87.2366 16.6113 87.2366 15.75C87.2366 14.8547 87.4179 14.0727 87.7806 13.404C88.1546 12.724 88.6702 12.1913 89.3276 11.806C89.9962 11.4207 90.7556 11.228 91.6056 11.228C92.6709 11.228 93.5662 11.5113 94.2916 12.078C95.0169 12.6333 95.4816 13.3983 95.6856 14.373H93.5436C93.4302 13.9423 93.1922 13.6023 92.8296 13.353C92.4782 13.1037 92.0589 12.979 91.5716 12.979C91.1522 12.979 90.7669 13.0867 90.4156 13.302C90.0756 13.5173 89.8036 13.829 89.5996 14.237C89.4069 14.645 89.3106 15.138 89.3106 15.716C89.3106 16.158 89.3672 16.549 89.4806 16.889C89.5939 17.229 89.7526 17.518 89.9566 17.756C90.1719 17.9827 90.4156 18.1583 90.6876 18.283C90.9596 18.4077 91.2542 18.47 91.5716 18.47C91.9002 18.47 92.1949 18.419 92.4556 18.317C92.7276 18.2037 92.9542 18.0393 93.1356 17.824C93.3282 17.6087 93.4642 17.3537 93.5436 17.059H95.6856C95.4816 18.011 95.0169 18.776 94.2916 19.354C93.5662 19.9207 92.6652 20.204 91.5886 20.204ZM97.4825 20V11.432H99.3015L99.4885 13.03C99.6925 12.656 99.9475 12.3387 100.254 12.078C100.56 11.806 100.917 11.5963 101.325 11.449C101.744 11.3017 102.203 11.228 102.702 11.228V13.387H101.988C101.648 13.387 101.325 13.4323 101.019 13.523C100.713 13.6023 100.446 13.7383 100.22 13.931C100.004 14.1123 99.8342 14.3673 99.7095 14.696C99.5848 15.0133 99.5225 15.4157 99.5225 15.903V20H97.4825ZM104.069 20V11.432H106.109V20H104.069ZM103.338 10.701L103.151 9.324L106.789 7.199L107.027 8.78L103.338 10.701ZM113.112 20.204C112.658 20.204 112.25 20.1417 111.888 20.017C111.525 19.9037 111.208 19.745 110.936 19.541C110.664 19.3257 110.437 19.082 110.256 18.81L110.035 20H108.216V7.76H110.256V12.69C110.528 12.2707 110.896 11.925 111.361 11.653C111.825 11.3697 112.403 11.228 113.095 11.228C113.899 11.228 114.608 11.4263 115.22 11.823C115.843 12.2083 116.33 12.741 116.682 13.421C117.044 14.0897 117.226 14.8603 117.226 15.733C117.226 16.583 117.05 17.348 116.699 18.028C116.347 18.708 115.86 19.2407 115.237 19.626C114.625 20.0113 113.916 20.204 113.112 20.204ZM112.687 18.436C113.163 18.436 113.588 18.3227 113.962 18.096C114.336 17.858 114.625 17.5407 114.829 17.144C115.044 16.736 115.152 16.26 115.152 15.716C115.152 15.1833 115.044 14.713 114.829 14.305C114.625 13.897 114.336 13.5797 113.962 13.353C113.588 13.1263 113.163 13.013 112.687 13.013C112.199 13.013 111.769 13.1263 111.395 13.353C111.032 13.5797 110.743 13.897 110.528 14.305C110.324 14.713 110.222 15.1833 110.222 15.716C110.222 16.26 110.324 16.736 110.528 17.144C110.743 17.5407 111.032 17.858 111.395 18.096C111.769 18.3227 112.199 18.436 112.687 18.436ZM123.048 20.204C122.198 20.204 121.45 20.0227 120.804 19.66C120.158 19.286 119.654 18.7647 119.291 18.096C118.928 17.4273 118.747 16.6567 118.747 15.784C118.747 14.8773 118.923 14.084 119.274 13.404C119.637 12.724 120.141 12.1913 120.787 11.806C121.444 11.4207 122.204 11.228 123.065 11.228C123.904 11.228 124.635 11.415 125.258 11.789C125.881 12.163 126.363 12.6673 126.703 13.302C127.043 13.9253 127.213 14.628 127.213 15.41C127.213 15.5233 127.213 15.648 127.213 15.784C127.213 15.92 127.202 16.0617 127.179 16.209H120.209V14.9H125.156C125.133 14.2767 124.924 13.7893 124.527 13.438C124.13 13.0753 123.637 12.894 123.048 12.894C122.629 12.894 122.243 12.9903 121.892 13.183C121.541 13.3757 121.263 13.6647 121.059 14.05C120.855 14.424 120.753 14.9 120.753 15.478V15.971C120.753 16.5037 120.849 16.9627 121.042 17.348C121.246 17.7333 121.518 18.028 121.858 18.232C122.209 18.4247 122.6 18.521 123.031 18.521C123.507 18.521 123.898 18.419 124.204 18.215C124.521 18.011 124.754 17.739 124.901 17.399H126.975C126.816 17.9317 126.556 18.4133 126.193 18.844C125.83 19.2633 125.383 19.5977 124.85 19.847C124.317 20.085 123.717 20.204 123.048 20.204ZM128.927 20V11.432H130.729L130.882 12.86C131.142 12.3613 131.516 11.9647 132.004 11.67C132.491 11.3753 133.069 11.228 133.738 11.228C134.429 11.228 135.018 11.3753 135.506 11.67C135.993 11.9533 136.367 12.3727 136.628 12.928C136.9 13.4833 137.036 14.1747 137.036 15.002V20H134.996V15.189C134.996 14.475 134.837 13.9253 134.52 13.54C134.202 13.1547 133.732 12.962 133.109 12.962C132.701 12.962 132.332 13.0583 132.004 13.251C131.686 13.4437 131.431 13.727 131.239 14.101C131.057 14.4637 130.967 14.9057 130.967 15.427V20H128.927ZM143.011 20.204C142.195 20.204 141.459 20.017 140.801 19.643C140.155 19.2577 139.645 18.7307 139.271 18.062C138.909 17.382 138.727 16.6057 138.727 15.733C138.727 14.8377 138.914 14.0557 139.288 13.387C139.662 12.707 140.172 12.18 140.818 11.806C141.476 11.4207 142.212 11.228 143.028 11.228C143.844 11.228 144.575 11.4207 145.221 11.806C145.879 12.18 146.389 12.7013 146.751 13.37C147.125 14.0387 147.312 14.8207 147.312 15.716C147.312 16.6113 147.125 17.3933 146.751 18.062C146.377 18.7307 145.862 19.2577 145.204 19.643C144.558 20.017 143.827 20.204 143.011 20.204ZM143.011 18.453C143.419 18.453 143.788 18.351 144.116 18.147C144.456 17.943 144.728 17.637 144.932 17.229C145.136 16.821 145.238 16.3167 145.238 15.716C145.238 15.1153 145.136 14.6167 144.932 14.22C144.74 13.812 144.473 13.506 144.133 13.302C143.805 13.098 143.436 12.996 143.028 12.996C142.632 12.996 142.263 13.098 141.923 13.302C141.583 13.506 141.311 13.812 141.107 14.22C140.903 14.6167 140.801 15.1153 140.801 15.716C140.801 16.3167 140.903 16.821 141.107 17.229C141.311 17.637 141.578 17.943 141.906 18.147C142.246 18.351 142.615 18.453 143.011 18.453ZM152.556 20.204C151.797 20.204 151.134 20.085 150.567 19.847C150.012 19.5977 149.57 19.2577 149.241 18.827C148.924 18.385 148.737 17.8807 148.68 17.314H150.72C150.777 17.552 150.879 17.773 151.026 17.977C151.174 18.1697 151.372 18.3227 151.621 18.436C151.882 18.5493 152.188 18.606 152.539 18.606C152.879 18.606 153.157 18.5607 153.372 18.47C153.588 18.368 153.746 18.2377 153.848 18.079C153.95 17.9203 154.001 17.7503 154.001 17.569C154.001 17.297 153.928 17.0873 153.78 16.94C153.633 16.7927 153.418 16.6793 153.134 16.6C152.862 16.5093 152.534 16.4243 152.148 16.345C151.74 16.2657 151.344 16.1693 150.958 16.056C150.584 15.9313 150.244 15.7783 149.938 15.597C149.644 15.4157 149.406 15.1833 149.224 14.9C149.054 14.6167 148.969 14.271 148.969 13.863C148.969 13.3643 149.1 12.9167 149.36 12.52C149.632 12.1233 150.018 11.8117 150.516 11.585C151.026 11.347 151.633 11.228 152.335 11.228C153.333 11.228 154.126 11.4603 154.715 11.925C155.316 12.3783 155.667 13.0187 155.769 13.846H153.831C153.775 13.5287 153.616 13.285 153.355 13.115C153.095 12.9337 152.749 12.843 152.318 12.843C151.876 12.843 151.536 12.928 151.298 13.098C151.072 13.2567 150.958 13.472 150.958 13.744C150.958 13.914 151.026 14.0727 151.162 14.22C151.31 14.356 151.519 14.475 151.791 14.577C152.063 14.6677 152.398 14.7583 152.794 14.849C153.429 14.9737 153.99 15.121 154.477 15.291C154.965 15.461 155.35 15.7103 155.633 16.039C155.917 16.3677 156.058 16.8323 156.058 17.433C156.07 17.977 155.928 18.4587 155.633 18.878C155.35 19.2973 154.948 19.626 154.426 19.864C153.905 20.0907 153.282 20.204 152.556 20.204Z" fill="#787D89"/>
<path d="M73.58 43.216C72.668 43.216 71.858 43.012 71.15 42.604C70.442 42.196 69.89 41.638 69.494 40.93C69.098 40.222 68.9 39.412 68.9 38.5C68.9 37.564 69.098 36.742 69.494 36.034C69.89 35.314 70.442 34.75 71.15 34.342C71.858 33.922 72.668 33.712 73.58 33.712C74.744 33.712 75.722 34.018 76.514 34.63C77.306 35.242 77.81 36.082 78.026 37.15H75.452C75.344 36.73 75.116 36.4 74.768 36.16C74.432 35.92 74.03 35.8 73.562 35.8C73.142 35.8 72.764 35.908 72.428 36.124C72.104 36.328 71.846 36.634 71.654 37.042C71.474 37.438 71.384 37.912 71.384 38.464C71.384 38.884 71.438 39.262 71.546 39.598C71.654 39.922 71.804 40.204 71.996 40.444C72.188 40.672 72.416 40.846 72.68 40.966C72.956 41.086 73.25 41.146 73.562 41.146C73.874 41.146 74.156 41.092 74.408 40.984C74.672 40.876 74.894 40.726 75.074 40.534C75.254 40.33 75.38 40.084 75.452 39.796H78.026C77.81 40.84 77.3 41.674 76.496 42.298C75.704 42.91 74.732 43.216 73.58 43.216ZM84.2256 43.216C83.3616 43.216 82.5816 43.018 81.8856 42.622C81.2016 42.214 80.6556 41.656 80.2476 40.948C79.8516 40.228 79.6536 39.406 79.6536 38.482C79.6536 37.534 79.8516 36.706 80.2476 35.998C80.6556 35.278 81.2076 34.72 81.9036 34.324C82.5996 33.916 83.3796 33.712 84.2436 33.712C85.1196 33.712 85.8996 33.916 86.5836 34.324C87.2796 34.72 87.8256 35.278 88.2216 35.998C88.6296 36.706 88.8336 37.528 88.8336 38.464C88.8336 39.4 88.6296 40.228 88.2216 40.948C87.8256 41.656 87.2796 42.214 86.5836 42.622C85.8876 43.018 85.1016 43.216 84.2256 43.216ZM84.2256 41.11C84.6336 41.11 84.9936 41.014 85.3056 40.822C85.6296 40.63 85.8816 40.336 86.0616 39.94C86.2536 39.544 86.3496 39.052 86.3496 38.464C86.3496 37.876 86.2536 37.39 86.0616 37.006C85.8816 36.61 85.6296 36.316 85.3056 36.124C84.9936 35.92 84.6396 35.818 84.2436 35.818C83.8596 35.818 83.5056 35.92 83.1816 36.124C82.8576 36.316 82.5996 36.61 82.4076 37.006C82.2276 37.39 82.1376 37.876 82.1376 38.464C82.1376 39.052 82.2276 39.544 82.4076 39.94C82.5996 40.336 82.8516 40.63 83.1636 40.822C83.4876 41.014 83.8416 41.11 84.2256 41.11ZM90.7479 43V33.928H92.8899L93.0699 35.404C93.3459 34.9 93.7359 34.492 94.2399 34.18C94.7559 33.868 95.3679 33.712 96.0759 33.712C96.8319 33.712 97.4679 33.868 97.9839 34.18C98.4999 34.492 98.8899 34.948 99.1539 35.548C99.4299 36.148 99.5679 36.886 99.5679 37.762V43H97.1559V37.996C97.1559 37.276 96.9999 36.724 96.6879 36.34C96.3879 35.956 95.9199 35.764 95.2839 35.764C94.8759 35.764 94.5099 35.86 94.1859 36.052C93.8739 36.244 93.6279 36.52 93.4479 36.88C93.2679 37.228 93.1779 37.654 93.1779 38.158V43H90.7479ZM105.763 43C105.127 43 104.569 42.904 104.089 42.712C103.621 42.508 103.255 42.178 102.991 41.722C102.727 41.254 102.595 40.618 102.595 39.814V35.962H101.047V33.928H102.595L102.865 31.462H105.025V33.928H107.419V35.962H105.025V39.85C105.025 40.258 105.115 40.54 105.295 40.696C105.475 40.852 105.781 40.93 106.213 40.93H107.401V43H105.763ZM112.344 43.216C111.588 43.216 110.964 43.096 110.472 42.856C109.98 42.604 109.614 42.274 109.374 41.866C109.146 41.446 109.032 40.984 109.032 40.48C109.032 39.928 109.17 39.442 109.446 39.022C109.734 38.602 110.16 38.272 110.724 38.032C111.3 37.792 112.02 37.672 112.884 37.672H115.134C115.134 37.228 115.074 36.862 114.954 36.574C114.834 36.274 114.648 36.052 114.396 35.908C114.144 35.764 113.808 35.692 113.388 35.692C112.932 35.692 112.542 35.794 112.218 35.998C111.906 36.19 111.714 36.49 111.642 36.898H109.284C109.344 36.25 109.554 35.692 109.914 35.224C110.286 34.744 110.772 34.372 111.372 34.108C111.984 33.844 112.662 33.712 113.406 33.712C114.258 33.712 114.996 33.856 115.62 34.144C116.244 34.432 116.724 34.846 117.06 35.386C117.396 35.926 117.564 36.592 117.564 37.384V43H115.512L115.242 41.614C115.11 41.854 114.954 42.07 114.774 42.262C114.594 42.454 114.384 42.622 114.144 42.766C113.904 42.91 113.634 43.018 113.334 43.09C113.034 43.174 112.704 43.216 112.344 43.216ZM112.92 41.344C113.232 41.344 113.508 41.29 113.748 41.182C114 41.062 114.216 40.906 114.396 40.714C114.576 40.51 114.714 40.282 114.81 40.03C114.918 39.766 114.99 39.484 115.026 39.184V39.166H113.172C112.8 39.166 112.494 39.214 112.254 39.31C112.026 39.394 111.858 39.52 111.75 39.688C111.642 39.856 111.588 40.048 111.588 40.264C111.588 40.504 111.642 40.702 111.75 40.858C111.858 41.014 112.014 41.134 112.218 41.218C112.422 41.302 112.656 41.344 112.92 41.344ZM124.043 43.216C123.131 43.216 122.321 43.012 121.613 42.604C120.905 42.196 120.353 41.638 119.957 40.93C119.561 40.222 119.363 39.412 119.363 38.5C119.363 37.564 119.561 36.742 119.957 36.034C120.353 35.314 120.905 34.75 121.613 34.342C122.321 33.922 123.131 33.712 124.043 33.712C125.207 33.712 126.185 34.018 126.977 34.63C127.769 35.242 128.273 36.082 128.489 37.15H125.915C125.807 36.73 125.579 36.4 125.231 36.16C124.895 35.92 124.493 35.8 124.025 35.8C123.605 35.8 123.227 35.908 122.891 36.124C122.567 36.328 122.309 36.634 122.117 37.042C121.937 37.438 121.847 37.912 121.847 38.464C121.847 38.884 121.901 39.262 122.009 39.598C122.117 39.922 122.267 40.204 122.459 40.444C122.651 40.672 122.879 40.846 123.143 40.966C123.419 41.086 123.713 41.146 124.025 41.146C124.337 41.146 124.619 41.092 124.871 40.984C125.135 40.876 125.357 40.726 125.537 40.534C125.717 40.33 125.843 40.084 125.915 39.796H128.489C128.273 40.84 127.763 41.674 126.959 42.298C126.167 42.91 125.195 43.216 124.043 43.216ZM134.385 43C133.749 43 133.191 42.904 132.711 42.712C132.243 42.508 131.877 42.178 131.613 41.722C131.349 41.254 131.217 40.618 131.217 39.814V35.962H129.669V33.928H131.217L131.487 31.462H133.647V33.928H136.041V35.962H133.647V39.85C133.647 40.258 133.737 40.54 133.917 40.696C134.097 40.852 134.403 40.93 134.835 40.93H136.023V43H134.385ZM141.962 43.216C141.098 43.216 140.318 43.018 139.622 42.622C138.938 42.214 138.392 41.656 137.984 40.948C137.588 40.228 137.39 39.406 137.39 38.482C137.39 37.534 137.588 36.706 137.984 35.998C138.392 35.278 138.944 34.72 139.64 34.324C140.336 33.916 141.116 33.712 141.98 33.712C142.856 33.712 143.636 33.916 144.32 34.324C145.016 34.72 145.562 35.278 145.958 35.998C146.366 36.706 146.57 37.528 146.57 38.464C146.57 39.4 146.366 40.228 145.958 40.948C145.562 41.656 145.016 42.214 144.32 42.622C143.624 43.018 142.838 43.216 141.962 43.216ZM141.962 41.11C142.37 41.11 142.73 41.014 143.042 40.822C143.366 40.63 143.618 40.336 143.798 39.94C143.99 39.544 144.086 39.052 144.086 38.464C144.086 37.876 143.99 37.39 143.798 37.006C143.618 36.61 143.366 36.316 143.042 36.124C142.73 35.92 142.376 35.818 141.98 35.818C141.596 35.818 141.242 35.92 140.918 36.124C140.594 36.316 140.336 36.61 140.144 37.006C139.964 37.39 139.874 37.876 139.874 38.464C139.874 39.052 139.964 39.544 140.144 39.94C140.336 40.336 140.588 40.63 140.9 40.822C141.224 41.014 141.578 41.11 141.962 41.11ZM155.288 46.852C153.968 46.852 152.81 46.594 151.814 46.078C150.818 45.562 150.044 44.824 149.492 43.864C148.94 42.904 148.664 41.782 148.664 40.498C148.664 39.166 148.886 37.936 149.33 36.808C149.786 35.68 150.428 34.696 151.256 33.856C152.096 33.016 153.08 32.362 154.208 31.894C155.348 31.426 156.596 31.192 157.952 31.192C159.344 31.192 160.544 31.456 161.552 31.984C162.572 32.512 163.364 33.244 163.928 34.18C164.492 35.116 164.774 36.202 164.774 37.438C164.774 38.17 164.678 38.872 164.486 39.544C164.306 40.216 164.036 40.822 163.676 41.362C163.328 41.89 162.89 42.31 162.362 42.622C161.846 42.934 161.246 43.09 160.562 43.09C159.734 43.09 159.122 42.85 158.726 42.37C158.342 41.89 158.204 41.254 158.312 40.462L158.366 39.886L158.726 40.858C158.438 41.554 157.982 42.106 157.358 42.514C156.746 42.922 156.062 43.126 155.306 43.126C154.418 43.126 153.722 42.856 153.218 42.316C152.714 41.764 152.462 41.02 152.462 40.084C152.462 39.424 152.558 38.794 152.75 38.194C152.954 37.594 153.242 37.06 153.614 36.592C153.986 36.124 154.43 35.752 154.946 35.476C155.462 35.2 156.026 35.062 156.638 35.062C157.334 35.062 157.874 35.236 158.258 35.584C158.654 35.92 158.894 36.406 158.978 37.042L158.6 37.312L158.978 35.206H160.958L160.13 39.994C160.046 40.438 160.058 40.804 160.166 41.092C160.274 41.368 160.52 41.506 160.904 41.506C161.24 41.506 161.528 41.386 161.768 41.146C162.02 40.906 162.23 40.588 162.398 40.192C162.566 39.796 162.686 39.364 162.758 38.896C162.842 38.428 162.884 37.972 162.884 37.528C162.884 36.556 162.674 35.722 162.254 35.026C161.846 34.318 161.252 33.778 160.472 33.406C159.704 33.022 158.78 32.83 157.7 32.83C156.644 32.83 155.678 33.022 154.802 33.406C153.938 33.79 153.182 34.324 152.534 35.008C151.898 35.692 151.4 36.484 151.04 37.384C150.692 38.284 150.518 39.256 150.518 40.3C150.518 41.332 150.722 42.214 151.13 42.946C151.538 43.678 152.12 44.23 152.876 44.602C153.632 44.986 154.532 45.178 155.576 45.178C156.128 45.178 156.668 45.124 157.196 45.016C157.736 44.908 158.228 44.752 158.672 44.548L159.068 46.132C158.492 46.372 157.886 46.552 157.25 46.672C156.626 46.792 155.972 46.852 155.288 46.852ZM156.062 41.344C156.47 41.344 156.842 41.23 157.178 41.002C157.526 40.762 157.808 40.444 158.024 40.048C158.24 39.652 158.36 39.202 158.384 38.698C158.408 38.338 158.36 38.02 158.24 37.744C158.132 37.456 157.958 37.234 157.718 37.078C157.49 36.91 157.202 36.826 156.854 36.826C156.506 36.826 156.194 36.904 155.918 37.06C155.642 37.216 155.402 37.432 155.198 37.708C155.006 37.972 154.856 38.278 154.748 38.626C154.64 38.962 154.586 39.316 154.586 39.688C154.586 40.18 154.706 40.582 154.946 40.894C155.198 41.194 155.57 41.344 156.062 41.344ZM167.13 43V33.928H169.272L169.47 35.134C169.758 34.702 170.136 34.36 170.604 34.108C171.084 33.844 171.63 33.712 172.242 33.712C172.698 33.712 173.106 33.772 173.466 33.892C173.826 34.012 174.144 34.186 174.42 34.414C174.708 34.642 174.942 34.93 175.122 35.278C175.458 34.786 175.896 34.402 176.436 34.126C176.976 33.85 177.564 33.712 178.2 33.712C178.992 33.712 179.652 33.874 180.18 34.198C180.708 34.51 181.104 34.966 181.368 35.566C181.644 36.166 181.782 36.904 181.782 37.78V43H179.37V37.996C179.37 37.276 179.226 36.724 178.938 36.34C178.662 35.956 178.23 35.764 177.642 35.764C177.258 35.764 176.916 35.86 176.616 36.052C176.316 36.244 176.082 36.52 175.914 36.88C175.758 37.24 175.68 37.672 175.68 38.176V43H173.25V37.996C173.25 37.276 173.106 36.724 172.818 36.34C172.53 35.956 172.086 35.764 171.486 35.764C171.114 35.764 170.778 35.86 170.478 36.052C170.19 36.244 169.962 36.52 169.794 36.88C169.638 37.24 169.56 37.672 169.56 38.176V43H167.13ZM188.252 43.216C187.34 43.216 186.53 43.024 185.822 42.64C185.126 42.244 184.58 41.698 184.184 41.002C183.8 40.294 183.608 39.478 183.608 38.554C183.608 37.606 183.8 36.772 184.184 36.052C184.58 35.32 185.126 34.75 185.822 34.342C186.518 33.922 187.328 33.712 188.252 33.712C189.152 33.712 189.938 33.91 190.61 34.306C191.282 34.702 191.804 35.236 192.176 35.908C192.548 36.58 192.734 37.342 192.734 38.194C192.734 38.314 192.734 38.452 192.734 38.608C192.734 38.752 192.722 38.902 192.698 39.058H185.336V37.582H190.286C190.25 36.994 190.04 36.532 189.656 36.196C189.284 35.86 188.816 35.692 188.252 35.692C187.844 35.692 187.466 35.788 187.118 35.98C186.77 36.16 186.494 36.442 186.29 36.826C186.098 37.21 186.002 37.696 186.002 38.284V38.806C186.002 39.298 186.092 39.73 186.272 40.102C186.464 40.462 186.728 40.744 187.064 40.948C187.4 41.14 187.79 41.236 188.234 41.236C188.678 41.236 189.044 41.14 189.332 40.948C189.632 40.756 189.854 40.51 189.998 40.21H192.482C192.314 40.774 192.032 41.284 191.636 41.74C191.24 42.196 190.754 42.556 190.178 42.82C189.602 43.084 188.96 43.216 188.252 43.216ZM194.544 43V33.928H196.704L196.938 35.602C197.154 35.206 197.424 34.87 197.748 34.594C198.084 34.318 198.462 34.102 198.882 33.946C199.314 33.79 199.788 33.712 200.304 33.712V36.286H199.476C199.116 36.286 198.78 36.328 198.468 36.412C198.168 36.496 197.904 36.634 197.676 36.826C197.448 37.006 197.274 37.258 197.154 37.582C197.034 37.906 196.974 38.314 196.974 38.806V43H194.544ZM205.981 43.216C205.069 43.216 204.259 43.012 203.551 42.604C202.843 42.196 202.291 41.638 201.895 40.93C201.499 40.222 201.301 39.412 201.301 38.5C201.301 37.564 201.499 36.742 201.895 36.034C202.291 35.314 202.843 34.75 203.551 34.342C204.259 33.922 205.069 33.712 205.981 33.712C207.145 33.712 208.123 34.018 208.915 34.63C209.707 35.242 210.211 36.082 210.427 37.15H207.853C207.745 36.73 207.517 36.4 207.169 36.16C206.833 35.92 206.431 35.8 205.963 35.8C205.543 35.8 205.165 35.908 204.829 36.124C204.505 36.328 204.247 36.634 204.055 37.042C203.875 37.438 203.785 37.912 203.785 38.464C203.785 38.884 203.839 39.262 203.947 39.598C204.055 39.922 204.205 40.204 204.397 40.444C204.589 40.672 204.817 40.846 205.081 40.966C205.357 41.086 205.651 41.146 205.963 41.146C206.275 41.146 206.557 41.092 206.809 40.984C207.073 40.876 207.295 40.726 207.475 40.534C207.655 40.33 207.781 40.084 207.853 39.796H210.427C210.211 40.84 209.701 41.674 208.897 42.298C208.105 42.91 207.133 43.216 205.981 43.216ZM212.342 43V30.04H214.772V35.278C215.072 34.798 215.468 34.42 215.96 34.144C216.464 33.856 217.046 33.712 217.706 33.712C218.462 33.712 219.098 33.874 219.614 34.198C220.13 34.51 220.52 34.966 220.784 35.566C221.048 36.166 221.18 36.91 221.18 37.798V43H218.768V38.014C218.768 37.294 218.618 36.742 218.318 36.358C218.018 35.962 217.544 35.764 216.896 35.764C216.5 35.764 216.14 35.86 215.816 36.052C215.492 36.244 215.234 36.526 215.042 36.898C214.862 37.258 214.772 37.69 214.772 38.194V43H212.342ZM224.125 46.96L226.321 41.992H225.781L222.145 33.928H224.791L227.383 39.778L229.723 33.928H232.297L226.699 46.96H224.125ZM233.383 43.09C232.927 43.09 232.561 42.958 232.285 42.694C232.009 42.418 231.871 42.082 231.871 41.686C231.871 41.29 232.009 40.96 232.285 40.696C232.561 40.42 232.927 40.282 233.383 40.282C233.815 40.282 234.169 40.42 234.445 40.696C234.721 40.96 234.859 41.29 234.859 41.686C234.859 42.082 234.721 42.418 234.445 42.694C234.169 42.958 233.815 43.09 233.383 43.09ZM241.032 43.216C240.12 43.216 239.31 43.012 238.602 42.604C237.894 42.196 237.342 41.638 236.946 40.93C236.55 40.222 236.352 39.412 236.352 38.5C236.352 37.564 236.55 36.742 236.946 36.034C237.342 35.314 237.894 34.75 238.602 34.342C239.31 33.922 240.12 33.712 241.032 33.712C242.196 33.712 243.174 34.018 243.966 34.63C244.758 35.242 245.262 36.082 245.478 37.15H242.904C242.796 36.73 242.568 36.4 242.22 36.16C241.884 35.92 241.482 35.8 241.014 35.8C240.594 35.8 240.216 35.908 239.88 36.124C239.556 36.328 239.298 36.634 239.106 37.042C238.926 37.438 238.836 37.912 238.836 38.464C238.836 38.884 238.89 39.262 238.998 39.598C239.106 39.922 239.256 40.204 239.448 40.444C239.64 40.672 239.868 40.846 240.132 40.966C240.408 41.086 240.702 41.146 241.014 41.146C241.326 41.146 241.608 41.092 241.86 40.984C242.124 40.876 242.346 40.726 242.526 40.534C242.706 40.33 242.832 40.084 242.904 39.796H245.478C245.262 40.84 244.752 41.674 243.948 42.298C243.156 42.91 242.184 43.216 241.032 43.216ZM251.678 43.216C250.814 43.216 250.034 43.018 249.338 42.622C248.654 42.214 248.108 41.656 247.7 40.948C247.304 40.228 247.106 39.406 247.106 38.482C247.106 37.534 247.304 36.706 247.7 35.998C248.108 35.278 248.66 34.72 249.356 34.324C250.052 33.916 250.832 33.712 251.696 33.712C252.572 33.712 253.352 33.916 254.036 34.324C254.732 34.72 255.278 35.278 255.674 35.998C256.082 36.706 256.286 37.528 256.286 38.464C256.286 39.4 256.082 40.228 255.674 40.948C255.278 41.656 254.732 42.214 254.036 42.622C253.34 43.018 252.554 43.216 251.678 43.216ZM251.678 41.11C252.086 41.11 252.446 41.014 252.758 40.822C253.082 40.63 253.334 40.336 253.514 39.94C253.706 39.544 253.802 39.052 253.802 38.464C253.802 37.876 253.706 37.39 253.514 37.006C253.334 36.61 253.082 36.316 252.758 36.124C252.446 35.92 252.092 35.818 251.696 35.818C251.312 35.818 250.958 35.92 250.634 36.124C250.31 36.316 250.052 36.61 249.86 37.006C249.68 37.39 249.59 37.876 249.59 38.464C249.59 39.052 249.68 39.544 249.86 39.94C250.052 40.336 250.304 40.63 250.616 40.822C250.94 41.014 251.294 41.11 251.678 41.11ZM258.2 43V33.928H260.342L260.54 35.134C260.828 34.702 261.206 34.36 261.674 34.108C262.154 33.844 262.7 33.712 263.312 33.712C263.768 33.712 264.176 33.772 264.536 33.892C264.896 34.012 265.214 34.186 265.49 34.414C265.778 34.642 266.012 34.93 266.192 35.278C266.528 34.786 266.966 34.402 267.506 34.126C268.046 33.85 268.634 33.712 269.27 33.712C270.062 33.712 270.722 33.874 271.25 34.198C271.778 34.51 272.174 34.966 272.438 35.566C272.714 36.166 272.852 36.904 272.852 37.78V43H270.44V37.996C270.44 37.276 270.296 36.724 270.008 36.34C269.732 35.956 269.3 35.764 268.712 35.764C268.328 35.764 267.986 35.86 267.686 36.052C267.386 36.244 267.152 36.52 266.984 36.88C266.828 37.24 266.75 37.672 266.75 38.176V43H264.32V37.996C264.32 37.276 264.176 36.724 263.888 36.34C263.6 35.956 263.156 35.764 262.556 35.764C262.184 35.764 261.848 35.86 261.548 36.052C261.26 36.244 261.032 36.52 260.864 36.88C260.708 37.24 260.63 37.672 260.63 38.176V43H258.2Z" fill="black"/>
<defs>
<clipPath id="clip0_2029_7471">
<rect width="51" height="51" fill="white"/>
</clipPath>
</defs>
</svg>
