<svg width="190" height="50" viewBox="0 0 190 50" fill="none" xmlns="http://www.w3.org/2000/svg">
<path d="M70.658 21L66.289 9.1H68.482L71.899 18.909L75.367 9.1H77.526L73.14 21H70.658ZM78.8743 21V12.432H80.9143V21H78.8743ZM79.8943 11.072C79.5203 11.072 79.2086 10.9587 78.9593 10.732C78.7213 10.494 78.6023 10.205 78.6023 9.865C78.6023 9.51367 78.7213 9.23033 78.9593 9.015C79.2086 8.78833 79.5203 8.675 79.8943 8.675C80.2683 8.675 80.5743 8.78833 80.8123 9.015C81.0616 9.23033 81.1863 9.51367 81.1863 9.865C81.1863 10.205 81.0616 10.494 80.8123 10.732C80.5743 10.9587 80.2683 11.072 79.8943 11.072ZM86.5187 21.204C85.7594 21.204 85.0964 21.085 84.5297 20.847C83.9744 20.5977 83.5324 20.2577 83.2037 19.827C82.8864 19.385 82.6994 18.8807 82.6427 18.314H84.6827C84.7394 18.552 84.8414 18.773 84.9887 18.977C85.1361 19.1697 85.3344 19.3227 85.5837 19.436C85.8444 19.5493 86.1504 19.606 86.5017 19.606C86.8417 19.606 87.1194 19.5607 87.3347 19.47C87.5501 19.368 87.7087 19.2377 87.8107 19.079C87.9127 18.9203 87.9637 18.7503 87.9637 18.569C87.9637 18.297 87.8901 18.0873 87.7427 17.94C87.5954 17.7927 87.3801 17.6793 87.0967 17.6C86.8247 17.5093 86.4961 17.4243 86.1107 17.345C85.7027 17.2657 85.3061 17.1693 84.9207 17.056C84.5467 16.9313 84.2067 16.7783 83.9007 16.597C83.6061 16.4157 83.3681 16.1833 83.1867 15.9C83.0167 15.6167 82.9317 15.271 82.9317 14.863C82.9317 14.3643 83.0621 13.9167 83.3227 13.52C83.5947 13.1233 83.9801 12.8117 84.4787 12.585C84.9887 12.347 85.5951 12.228 86.2977 12.228C87.2951 12.228 88.0884 12.4603 88.6777 12.925C89.2784 13.3783 89.6297 14.0187 89.7317 14.846H87.7937C87.7371 14.5287 87.5784 14.285 87.3177 14.115C87.0571 13.9337 86.7114 13.843 86.2807 13.843C85.8387 13.843 85.4987 13.928 85.2607 14.098C85.0341 14.2567 84.9207 14.472 84.9207 14.744C84.9207 14.914 84.9887 15.0727 85.1247 15.22C85.2721 15.356 85.4817 15.475 85.7537 15.577C86.0257 15.6677 86.3601 15.7583 86.7567 15.849C87.3914 15.9737 87.9524 16.121 88.4397 16.291C88.9271 16.461 89.3124 16.7103 89.5957 17.039C89.8791 17.3677 90.0207 17.8323 90.0207 18.433C90.0321 18.977 89.8904 19.4587 89.5957 19.878C89.3124 20.2973 88.9101 20.626 88.3887 20.864C87.8674 21.0907 87.2441 21.204 86.5187 21.204ZM91.8302 21V12.432H93.8702V21H91.8302ZM91.0992 11.701L90.9122 10.324L94.5502 8.199L94.7882 9.78L91.0992 11.701ZM99.6996 21C99.1216 21 98.6172 20.9093 98.1866 20.728C97.7672 20.5467 97.4386 20.2463 97.2006 19.827C96.9626 19.4077 96.8436 18.841 96.8436 18.127V14.149H95.3816V12.432H96.8436L97.0816 10.171H98.8836V12.432H101.213V14.149H98.8836V18.127C98.8836 18.5577 98.9742 18.858 99.1556 19.028C99.3482 19.1867 99.6656 19.266 100.108 19.266H101.162V21H99.6996ZM105.818 21.204C105.115 21.204 104.532 21.085 104.067 20.847C103.602 20.609 103.257 20.2917 103.03 19.895C102.803 19.4983 102.69 19.0677 102.69 18.603C102.69 18.059 102.826 17.5887 103.098 17.192C103.381 16.7953 103.795 16.4893 104.339 16.274C104.883 16.0473 105.552 15.934 106.345 15.934H108.504C108.504 15.4807 108.442 15.1067 108.317 14.812C108.192 14.506 108 14.2793 107.739 14.132C107.478 13.9847 107.144 13.911 106.736 13.911C106.271 13.911 105.875 14.0187 105.546 14.234C105.217 14.438 105.013 14.7553 104.934 15.186H102.928C102.996 14.574 103.2 14.0527 103.54 13.622C103.88 13.18 104.328 12.84 104.883 12.602C105.45 12.3527 106.067 12.228 106.736 12.228C107.541 12.228 108.226 12.3697 108.793 12.653C109.36 12.925 109.79 13.3217 110.085 13.843C110.391 14.353 110.544 14.9707 110.544 15.696V21H108.81L108.606 19.623C108.493 19.8497 108.345 20.0593 108.164 20.252C107.994 20.4447 107.796 20.6147 107.569 20.762C107.342 20.898 107.082 21.0057 106.787 21.085C106.504 21.1643 106.181 21.204 105.818 21.204ZM106.277 19.589C106.606 19.589 106.895 19.5323 107.144 19.419C107.405 19.2943 107.626 19.1243 107.807 18.909C108 18.6823 108.147 18.433 108.249 18.161C108.351 17.889 108.419 17.6 108.453 17.294V17.26H106.566C106.169 17.26 105.841 17.311 105.58 17.413C105.319 17.5037 105.132 17.6397 105.019 17.821C104.906 18.0023 104.849 18.212 104.849 18.45C104.849 18.688 104.906 18.892 105.019 19.062C105.132 19.232 105.297 19.3623 105.512 19.453C105.727 19.5437 105.982 19.589 106.277 19.589ZM112.554 21V12.432H114.356L114.509 13.86C114.769 13.3613 115.143 12.9647 115.631 12.67C116.118 12.3753 116.696 12.228 117.365 12.228C118.056 12.228 118.645 12.3753 119.133 12.67C119.62 12.9533 119.994 13.3727 120.255 13.928C120.527 14.4833 120.663 15.1747 120.663 16.002V21H118.623V16.189C118.623 15.475 118.464 14.9253 118.147 14.54C117.829 14.1547 117.359 13.962 116.736 13.962C116.328 13.962 115.959 14.0583 115.631 14.251C115.313 14.4437 115.058 14.727 114.866 15.101C114.684 15.4637 114.594 15.9057 114.594 16.427V21H112.554ZM126.638 21.204C125.822 21.204 125.086 21.017 124.428 20.643C123.782 20.2577 123.272 19.7307 122.898 19.062C122.536 18.382 122.354 17.6057 122.354 16.733C122.354 15.8377 122.541 15.0557 122.915 14.387C123.289 13.707 123.799 13.18 124.445 12.806C125.103 12.4207 125.839 12.228 126.655 12.228C127.471 12.228 128.202 12.4207 128.848 12.806C129.506 13.18 130.016 13.7013 130.378 14.37C130.752 15.0387 130.939 15.8207 130.939 16.716C130.939 17.6113 130.752 18.3933 130.378 19.062C130.004 19.7307 129.489 20.2577 128.831 20.643C128.185 21.017 127.454 21.204 126.638 21.204ZM126.638 19.453C127.046 19.453 127.415 19.351 127.743 19.147C128.083 18.943 128.355 18.637 128.559 18.229C128.763 17.821 128.865 17.3167 128.865 16.716C128.865 16.1153 128.763 15.6167 128.559 15.22C128.367 14.812 128.1 14.506 127.76 14.302C127.432 14.098 127.063 13.996 126.655 13.996C126.259 13.996 125.89 14.098 125.55 14.302C125.21 14.506 124.938 14.812 124.734 15.22C124.53 15.6167 124.428 16.1153 124.428 16.716C124.428 17.3167 124.53 17.821 124.734 18.229C124.938 18.637 125.205 18.943 125.533 19.147C125.873 19.351 126.242 19.453 126.638 19.453ZM136.183 21.204C135.424 21.204 134.761 21.085 134.194 20.847C133.639 20.5977 133.197 20.2577 132.868 19.827C132.551 19.385 132.364 18.8807 132.307 18.314H134.347C134.404 18.552 134.506 18.773 134.653 18.977C134.801 19.1697 134.999 19.3227 135.248 19.436C135.509 19.5493 135.815 19.606 136.166 19.606C136.506 19.606 136.784 19.5607 136.999 19.47C137.215 19.368 137.373 19.2377 137.475 19.079C137.577 18.9203 137.628 18.7503 137.628 18.569C137.628 18.297 137.555 18.0873 137.407 17.94C137.26 17.7927 137.045 17.6793 136.761 17.6C136.489 17.5093 136.161 17.4243 135.775 17.345C135.367 17.2657 134.971 17.1693 134.585 17.056C134.211 16.9313 133.871 16.7783 133.565 16.597C133.271 16.4157 133.033 16.1833 132.851 15.9C132.681 15.6167 132.596 15.271 132.596 14.863C132.596 14.3643 132.727 13.9167 132.987 13.52C133.259 13.1233 133.645 12.8117 134.143 12.585C134.653 12.347 135.26 12.228 135.962 12.228C136.96 12.228 137.753 12.4603 138.342 12.925C138.943 13.3783 139.294 14.0187 139.396 14.846H137.458C137.402 14.5287 137.243 14.285 136.982 14.115C136.722 13.9337 136.376 13.843 135.945 13.843C135.503 13.843 135.163 13.928 134.925 14.098C134.699 14.2567 134.585 14.472 134.585 14.744C134.585 14.914 134.653 15.0727 134.789 15.22C134.937 15.356 135.146 15.475 135.418 15.577C135.69 15.6677 136.025 15.7583 136.421 15.849C137.056 15.9737 137.617 16.121 138.104 16.291C138.592 16.461 138.977 16.7103 139.26 17.039C139.544 17.3677 139.685 17.8323 139.685 18.433C139.697 18.977 139.555 19.4587 139.26 19.878C138.977 20.2973 138.575 20.626 138.053 20.864C137.532 21.0907 136.909 21.204 136.183 21.204Z" fill="#787D89"/>
<path d="M72.894 44.216C71.634 44.216 70.548 43.946 69.636 43.406C68.736 42.854 68.04 42.092 67.548 41.12C67.068 40.136 66.828 39.002 66.828 37.718C66.828 36.434 67.068 35.3 67.548 34.316C68.04 33.332 68.736 32.564 69.636 32.012C70.548 31.46 71.634 31.184 72.894 31.184C74.418 31.184 75.666 31.562 76.638 32.318C77.61 33.074 78.216 34.142 78.456 35.522H75.81C75.654 34.85 75.324 34.328 74.82 33.956C74.328 33.572 73.68 33.38 72.876 33.38C72.132 33.38 71.49 33.56 70.95 33.92C70.422 34.268 70.014 34.766 69.726 35.414C69.438 36.05 69.294 36.818 69.294 37.718C69.294 38.606 69.438 39.374 69.726 40.022C70.014 40.67 70.422 41.168 70.95 41.516C71.49 41.864 72.132 42.038 72.876 42.038C73.68 42.038 74.328 41.864 74.82 41.516C75.312 41.156 75.636 40.658 75.792 40.022H78.456C78.216 41.33 77.61 42.356 76.638 43.1C75.666 43.844 74.418 44.216 72.894 44.216ZM80.3511 44V31.4H84.5631C86.0271 31.4 87.2331 31.664 88.1811 32.192C89.1411 32.708 89.8491 33.44 90.3051 34.388C90.7731 35.324 91.0071 36.428 91.0071 37.7C91.0071 38.972 90.7731 40.082 90.3051 41.03C89.8491 41.966 89.1471 42.698 88.1991 43.226C87.2511 43.742 86.0391 44 84.5631 44H80.3511ZM82.7811 41.912H84.4371C85.4691 41.912 86.2791 41.744 86.8671 41.408C87.4671 41.072 87.8931 40.592 88.1451 39.968C88.3971 39.332 88.5231 38.576 88.5231 37.7C88.5231 36.812 88.3971 36.056 88.1451 35.432C87.8931 34.796 87.4671 34.31 86.8671 33.974C86.2791 33.638 85.4691 33.47 84.4371 33.47H82.7811V41.912ZM92.8976 44V31.4H95.7956L99.6476 39.266L103.464 31.4H106.362V44H103.932V35.54L100.602 42.236H98.6756L95.3276 35.54V44H92.8976ZM108.013 44L111.991 37.61L107.959 31.4H110.767L113.539 35.702L116.077 31.4H118.813L114.871 37.718L118.921 44H116.113L113.323 39.626L110.767 44H108.013ZM119.694 46.214L120.72 41.642H123.06L121.278 46.214H119.694ZM128.846 44V31.4H131.744L135.596 39.266L139.412 31.4H142.31V44H139.88V35.54L136.55 42.236H134.624L131.276 35.54V44H128.846ZM148.911 44.216C147.999 44.216 147.189 44.024 146.481 43.64C145.785 43.244 145.239 42.698 144.843 42.002C144.459 41.294 144.267 40.478 144.267 39.554C144.267 38.606 144.459 37.772 144.843 37.052C145.239 36.32 145.785 35.75 146.481 35.342C147.177 34.922 147.987 34.712 148.911 34.712C149.811 34.712 150.597 34.91 151.269 35.306C151.941 35.702 152.463 36.236 152.835 36.908C153.207 37.58 153.393 38.342 153.393 39.194C153.393 39.314 153.393 39.452 153.393 39.608C153.393 39.752 153.381 39.902 153.357 40.058H145.995V38.582H150.945C150.909 37.994 150.699 37.532 150.315 37.196C149.943 36.86 149.475 36.692 148.911 36.692C148.503 36.692 148.125 36.788 147.777 36.98C147.429 37.16 147.153 37.442 146.949 37.826C146.757 38.21 146.661 38.696 146.661 39.284V39.806C146.661 40.298 146.751 40.73 146.931 41.102C147.123 41.462 147.387 41.744 147.723 41.948C148.059 42.14 148.449 42.236 148.893 42.236C149.337 42.236 149.703 42.14 149.991 41.948C150.291 41.756 150.513 41.51 150.657 41.21H153.141C152.973 41.774 152.691 42.284 152.295 42.74C151.899 43.196 151.413 43.556 150.837 43.82C150.261 44.084 149.619 44.216 148.911 44.216ZM146.967 34.154L146.751 32.552L150.693 30.302L150.981 32.156L146.967 34.154ZM153.707 44L156.965 39.464L153.707 34.928H156.335L158.513 38.042L160.691 34.928H163.301L160.043 39.464L163.301 44H160.691L158.513 40.868L156.335 44H153.707ZM164.71 44V34.928H167.14V44H164.71ZM165.934 33.686C165.502 33.686 165.142 33.56 164.854 33.308C164.578 33.044 164.44 32.714 164.44 32.318C164.44 31.922 164.578 31.598 164.854 31.346C165.142 31.082 165.502 30.95 165.934 30.95C166.378 30.95 166.738 31.082 167.014 31.346C167.302 31.598 167.446 31.922 167.446 32.318C167.446 32.714 167.302 33.044 167.014 33.308C166.738 33.56 166.378 33.686 165.934 33.686ZM173.807 44.216C172.895 44.216 172.085 44.012 171.377 43.604C170.669 43.196 170.117 42.638 169.721 41.93C169.325 41.222 169.127 40.412 169.127 39.5C169.127 38.564 169.325 37.742 169.721 37.034C170.117 36.314 170.669 35.75 171.377 35.342C172.085 34.922 172.895 34.712 173.807 34.712C174.971 34.712 175.949 35.018 176.741 35.63C177.533 36.242 178.037 37.082 178.253 38.15H175.679C175.571 37.73 175.343 37.4 174.995 37.16C174.659 36.92 174.257 36.8 173.789 36.8C173.369 36.8 172.991 36.908 172.655 37.124C172.331 37.328 172.073 37.634 171.881 38.042C171.701 38.438 171.611 38.912 171.611 39.464C171.611 39.884 171.665 40.262 171.773 40.598C171.881 40.922 172.031 41.204 172.223 41.444C172.415 41.672 172.643 41.846 172.907 41.966C173.183 42.086 173.477 42.146 173.789 42.146C174.101 42.146 174.383 42.092 174.635 41.984C174.899 41.876 175.121 41.726 175.301 41.534C175.481 41.33 175.607 41.084 175.679 40.796H178.253C178.037 41.84 177.527 42.674 176.723 43.298C175.931 43.91 174.959 44.216 173.807 44.216ZM184.453 44.216C183.589 44.216 182.809 44.018 182.113 43.622C181.429 43.214 180.883 42.656 180.475 41.948C180.079 41.228 179.881 40.406 179.881 39.482C179.881 38.534 180.079 37.706 180.475 36.998C180.883 36.278 181.435 35.72 182.131 35.324C182.827 34.916 183.607 34.712 184.471 34.712C185.347 34.712 186.127 34.916 186.811 35.324C187.507 35.72 188.053 36.278 188.449 36.998C188.857 37.706 189.061 38.528 189.061 39.464C189.061 40.4 188.857 41.228 188.449 41.948C188.053 42.656 187.507 43.214 186.811 43.622C186.115 44.018 185.329 44.216 184.453 44.216ZM184.453 42.11C184.861 42.11 185.221 42.014 185.533 41.822C185.857 41.63 186.109 41.336 186.289 40.94C186.481 40.544 186.577 40.052 186.577 39.464C186.577 38.876 186.481 38.39 186.289 38.006C186.109 37.61 185.857 37.316 185.533 37.124C185.221 36.92 184.867 36.818 184.471 36.818C184.087 36.818 183.733 36.92 183.409 37.124C183.085 37.316 182.827 37.61 182.635 38.006C182.455 38.39 182.365 38.876 182.365 39.464C182.365 40.052 182.455 40.544 182.635 40.94C182.827 41.336 183.079 41.63 183.391 41.822C183.715 42.014 184.069 42.11 184.453 42.11Z" fill="black"/>
<g clip-path="url(#clip0_2029_7068)">
<path d="M24.5 50C38.031 50 49 38.8071 49 25C49 11.1929 38.031 0 24.5 0C10.969 0 0 11.1929 0 25C0 38.8071 10.969 50 24.5 50Z" fill="#7FDED9"/>
<path d="M24.5046 11.498C29.1801 11.498 33.1637 15.1192 33.6734 19.8282C33.9773 22.6431 33.2011 25.1813 31.6255 27.4427C30.5314 29.0076 29.3111 30.4866 28.1048 31.9656C26.7956 33.5734 25.767 35.3148 25.4116 37.4045C25.3882 37.5286 25.3649 37.6526 25.3368 37.7767C25.248 38.187 25.0469 38.4732 24.5934 38.5019C24.1305 38.5257 23.8173 38.3063 23.7191 37.8626C23.1206 35.1383 21.5636 32.9961 19.8196 30.9351C18.0382 28.8263 16.5841 26.498 15.7332 23.8215C13.7788 17.6765 18.1692 11.5028 24.5046 11.498ZM28.0299 20.9017C28.0486 18.8979 26.5151 17.2757 24.5934 17.2566C22.653 17.2375 21.0353 18.8311 21.0213 20.7776C21.0072 22.7862 22.5315 24.394 24.4672 24.4131C26.4309 24.437 28.0066 22.8769 28.0253 20.8969L28.0299 20.9017Z" fill="white"/>
</g>
<defs>
<clipPath id="clip0_2029_7068">
<rect width="49" height="50" fill="white"/>
</clipPath>
</defs>
</svg>
