<svg width="226" height="50" viewBox="0 0 226 50" fill="none" xmlns="http://www.w3.org/2000/svg">
<g clip-path="url(#clip0_2029_7472)">
<path d="M25 50C38.8071 50 50 38.8071 50 25C50 11.1929 38.8071 0 25 0C11.1929 0 0 11.1929 0 25C0 38.8071 11.1929 50 25 50Z" fill="#7FDED9"/>
<path d="M37.9723 32.0467C38.1583 34.2509 35.9971 36.1736 34.2557 36.7318C32.5954 37.2614 30.9398 37.1373 29.3034 36.6698C21.3072 34.3845 15.8205 29.2652 12.5238 21.7223C11.3978 19.1507 12.2184 15.6869 14.2747 13.7595C15.2099 12.8816 16.3358 12.81 17.4952 13.039C17.7957 13.0963 18.1297 13.4303 18.2776 13.7213C19.1316 15.4293 19.9331 17.166 20.749 18.8931C21.0114 19.456 20.9446 19.9808 20.5629 20.4818C20.019 21.1879 19.499 21.9131 18.9599 22.624C18.6593 23.02 18.6259 23.4207 18.8931 23.8406C20.935 27.0324 23.5591 29.5562 27.1373 30.978C28.1488 31.3787 28.2442 31.3453 28.936 30.4866C29.4751 29.8186 30.0047 29.1507 30.5391 28.4828C31.0686 27.8196 31.6412 27.6765 32.4188 28.0486C33.9455 28.7786 35.4532 29.5562 36.999 30.2528C37.853 30.6392 38.0581 31.2833 37.9723 32.0467Z" fill="white"/>
</g>
<path d="M70.207 19V7.1H72.247V17.402H77.551V19H70.207ZM79.2991 19V6.76H81.3391V19H79.2991ZM86.3015 19.204C85.5988 19.204 85.0152 19.085 84.5505 18.847C84.0858 18.609 83.7402 18.2917 83.5135 17.895C83.2868 17.4983 83.1735 17.0677 83.1735 16.603C83.1735 16.059 83.3095 15.5887 83.5815 15.192C83.8648 14.7953 84.2785 14.4893 84.8225 14.274C85.3665 14.0473 86.0352 13.934 86.8285 13.934H88.9875C88.9875 13.4807 88.9252 13.1067 88.8005 12.812C88.6758 12.506 88.4832 12.2793 88.2225 12.132C87.9618 11.9847 87.6275 11.911 87.2195 11.911C86.7548 11.911 86.3582 12.0187 86.0295 12.234C85.7008 12.438 85.4968 12.7553 85.4175 13.186H83.4115C83.4795 12.574 83.6835 12.0527 84.0235 11.622C84.3635 11.18 84.8112 10.84 85.3665 10.602C85.9332 10.3527 86.5508 10.228 87.2195 10.228C88.0242 10.228 88.7098 10.3697 89.2765 10.653C89.8432 10.925 90.2738 11.3217 90.5685 11.843C90.8745 12.353 91.0275 12.9707 91.0275 13.696V19H89.2935L89.0895 17.623C88.9762 17.8497 88.8288 18.0593 88.6475 18.252C88.4775 18.4447 88.2792 18.6147 88.0525 18.762C87.8258 18.898 87.5652 19.0057 87.2705 19.085C86.9872 19.1643 86.6642 19.204 86.3015 19.204ZM86.7605 17.589C87.0892 17.589 87.3782 17.5323 87.6275 17.419C87.8882 17.2943 88.1092 17.1243 88.2905 16.909C88.4832 16.6823 88.6305 16.433 88.7325 16.161C88.8345 15.889 88.9025 15.6 88.9365 15.294V15.26H87.0495C86.6528 15.26 86.3242 15.311 86.0635 15.413C85.8028 15.5037 85.6158 15.6397 85.5025 15.821C85.3892 16.0023 85.3325 16.212 85.3325 16.45C85.3325 16.688 85.3892 16.892 85.5025 17.062C85.6158 17.232 85.7802 17.3623 85.9955 17.453C86.2108 17.5437 86.4658 17.589 86.7605 17.589ZM85.3665 9.701L85.1795 8.324L88.8175 6.199L89.0555 7.78L85.3665 9.701ZM93.0372 19V10.432H94.8392L95.0092 11.605C95.2812 11.1743 95.6382 10.84 96.0802 10.602C96.5335 10.3527 97.0492 10.228 97.6272 10.228C98.0579 10.228 98.4432 10.2847 98.7832 10.398C99.1345 10.5113 99.4405 10.6813 99.7012 10.908C99.9732 11.1347 100.194 11.418 100.364 11.758C100.682 11.282 101.095 10.908 101.605 10.636C102.115 10.364 102.671 10.228 103.271 10.228C103.985 10.228 104.592 10.3753 105.09 10.67C105.589 10.9533 105.969 11.3783 106.229 11.945C106.49 12.5003 106.62 13.186 106.62 14.002V19H104.597V14.206C104.597 13.4807 104.45 12.9253 104.155 12.54C103.861 12.1547 103.424 11.962 102.846 11.962C102.45 11.962 102.098 12.0583 101.792 12.251C101.498 12.4437 101.265 12.727 101.095 13.101C100.925 13.4637 100.84 13.9113 100.84 14.444V19H98.8172V14.206C98.8172 13.4807 98.6699 12.9253 98.3752 12.54C98.0805 12.1547 97.6385 11.962 97.0492 11.962C96.6752 11.962 96.3352 12.0583 96.0292 12.251C95.7345 12.4437 95.5022 12.727 95.3322 13.101C95.1622 13.4637 95.0772 13.9113 95.0772 14.444V19H93.0372ZM111.461 19.204C110.759 19.204 110.175 19.085 109.71 18.847C109.246 18.609 108.9 18.2917 108.673 17.895C108.447 17.4983 108.333 17.0677 108.333 16.603C108.333 16.059 108.469 15.5887 108.741 15.192C109.025 14.7953 109.438 14.4893 109.982 14.274C110.526 14.0473 111.195 13.934 111.988 13.934H114.147C114.147 13.4807 114.085 13.1067 113.96 12.812C113.836 12.506 113.643 12.2793 113.382 12.132C113.122 11.9847 112.787 11.911 112.379 11.911C111.915 11.911 111.518 12.0187 111.189 12.234C110.861 12.438 110.657 12.7553 110.577 13.186H108.571C108.639 12.574 108.843 12.0527 109.183 11.622C109.523 11.18 109.971 10.84 110.526 10.602C111.093 10.3527 111.711 10.228 112.379 10.228C113.184 10.228 113.87 10.3697 114.436 10.653C115.003 10.925 115.434 11.3217 115.728 11.843C116.034 12.353 116.187 12.9707 116.187 13.696V19H114.453L114.249 17.623C114.136 17.8497 113.989 18.0593 113.807 18.252C113.637 18.4447 113.439 18.6147 113.212 18.762C112.986 18.898 112.725 19.0057 112.43 19.085C112.147 19.1643 111.824 19.204 111.461 19.204ZM111.92 17.589C112.249 17.589 112.538 17.5323 112.787 17.419C113.048 17.2943 113.269 17.1243 113.45 16.909C113.643 16.6823 113.79 16.433 113.892 16.161C113.994 15.889 114.062 15.6 114.096 15.294V15.26H112.209C111.813 15.26 111.484 15.311 111.223 15.413C110.963 15.5037 110.776 15.6397 110.662 15.821C110.549 16.0023 110.492 16.212 110.492 16.45C110.492 16.688 110.549 16.892 110.662 17.062C110.776 17.232 110.94 17.3623 111.155 17.453C111.371 17.5437 111.626 17.589 111.92 17.589ZM118.197 19V10.432H119.999L120.152 11.86C120.413 11.3613 120.787 10.9647 121.274 10.67C121.762 10.3753 122.34 10.228 123.008 10.228C123.7 10.228 124.289 10.3753 124.776 10.67C125.264 10.9533 125.638 11.3727 125.898 11.928C126.17 12.4833 126.306 13.1747 126.306 14.002V19H124.266V14.189C124.266 13.475 124.108 12.9253 123.79 12.54C123.473 12.1547 123.003 11.962 122.379 11.962C121.971 11.962 121.603 12.0583 121.274 12.251C120.957 12.4437 120.702 12.727 120.509 13.101C120.328 13.4637 120.237 13.9057 120.237 14.427V19H118.197ZM132.282 19.204C131.466 19.204 130.729 19.017 130.072 18.643C129.426 18.2577 128.916 17.7307 128.542 17.062C128.179 16.382 127.998 15.6057 127.998 14.733C127.998 13.8377 128.185 13.0557 128.559 12.387C128.933 11.707 129.443 11.18 130.089 10.806C130.746 10.4207 131.483 10.228 132.299 10.228C133.115 10.228 133.846 10.4207 134.492 10.806C135.149 11.18 135.659 11.7013 136.022 12.37C136.396 13.0387 136.583 13.8207 136.583 14.716C136.583 15.6113 136.396 16.3933 136.022 17.062C135.648 17.7307 135.132 18.2577 134.475 18.643C133.829 19.017 133.098 19.204 132.282 19.204ZM132.282 17.453C132.69 17.453 133.058 17.351 133.387 17.147C133.727 16.943 133.999 16.637 134.203 16.229C134.407 15.821 134.509 15.3167 134.509 14.716C134.509 14.1153 134.407 13.6167 134.203 13.22C134.01 12.812 133.744 12.506 133.404 12.302C133.075 12.098 132.707 11.996 132.299 11.996C131.902 11.996 131.534 12.098 131.194 12.302C130.854 12.506 130.582 12.812 130.378 13.22C130.174 13.6167 130.072 14.1153 130.072 14.716C130.072 15.3167 130.174 15.821 130.378 16.229C130.582 16.637 130.848 16.943 131.177 17.147C131.517 17.351 131.885 17.453 132.282 17.453ZM141.827 19.204C141.068 19.204 140.405 19.085 139.838 18.847C139.283 18.5977 138.841 18.2577 138.512 17.827C138.195 17.385 138.008 16.8807 137.951 16.314H139.991C140.048 16.552 140.15 16.773 140.297 16.977C140.444 17.1697 140.643 17.3227 140.892 17.436C141.153 17.5493 141.459 17.606 141.81 17.606C142.15 17.606 142.428 17.5607 142.643 17.47C142.858 17.368 143.017 17.2377 143.119 17.079C143.221 16.9203 143.272 16.7503 143.272 16.569C143.272 16.297 143.198 16.0873 143.051 15.94C142.904 15.7927 142.688 15.6793 142.405 15.6C142.133 15.5093 141.804 15.4243 141.419 15.345C141.011 15.2657 140.614 15.1693 140.229 15.056C139.855 14.9313 139.515 14.7783 139.209 14.597C138.914 14.4157 138.676 14.1833 138.495 13.9C138.325 13.6167 138.24 13.271 138.24 12.863C138.24 12.3643 138.37 11.9167 138.631 11.52C138.903 11.1233 139.288 10.8117 139.787 10.585C140.297 10.347 140.903 10.228 141.606 10.228C142.603 10.228 143.397 10.4603 143.986 10.925C144.587 11.3783 144.938 12.0187 145.04 12.846H143.102C143.045 12.5287 142.887 12.285 142.626 12.115C142.365 11.9337 142.02 11.843 141.589 11.843C141.147 11.843 140.807 11.928 140.569 12.098C140.342 12.2567 140.229 12.472 140.229 12.744C140.229 12.914 140.297 13.0727 140.433 13.22C140.58 13.356 140.79 13.475 141.062 13.577C141.334 13.6677 141.668 13.7583 142.065 13.849C142.7 13.9737 143.261 14.121 143.748 14.291C144.235 14.461 144.621 14.7103 144.904 15.039C145.187 15.3677 145.329 15.8323 145.329 16.433C145.34 16.977 145.199 17.4587 144.904 17.878C144.621 18.2973 144.218 18.626 143.697 18.864C143.176 19.0907 142.552 19.204 141.827 19.204Z" fill="#787D89"/>
<path d="M73.176 40.902V32.694H75.246V40.902H73.176ZM69.81 37.806V35.772H78.594V37.806H69.81ZM84.9858 42.216C84.0738 42.216 83.2818 42.054 82.6098 41.73C81.9498 41.406 81.4338 40.962 81.0618 40.398C80.6898 39.834 80.4738 39.192 80.4138 38.472H82.7898C82.8738 38.94 83.1138 39.336 83.5098 39.66C83.9058 39.984 84.4038 40.146 85.0038 40.146C85.4358 40.146 85.8138 40.038 86.1378 39.822C86.4618 39.606 86.7138 39.318 86.8938 38.958C87.0738 38.586 87.1638 38.166 87.1638 37.698C87.1638 37.218 87.0678 36.804 86.8758 36.456C86.6958 36.108 86.4438 35.838 86.1198 35.646C85.8078 35.454 85.4478 35.358 85.0398 35.358C84.5238 35.358 84.0798 35.484 83.7078 35.736C83.3478 35.976 83.0898 36.27 82.9338 36.618H80.5758L81.6198 29.4H88.6938V31.524H83.4198L82.8978 34.332C83.1618 34.056 83.5158 33.834 83.9598 33.666C84.4038 33.486 84.9018 33.396 85.4538 33.396C86.1378 33.396 86.7318 33.516 87.2358 33.756C87.7398 33.984 88.1598 34.302 88.4958 34.71C88.8318 35.106 89.0838 35.562 89.2518 36.078C89.4198 36.582 89.5038 37.116 89.5038 37.68C89.5038 38.34 89.3898 38.946 89.1618 39.498C88.9458 40.05 88.6338 40.53 88.2258 40.938C87.8298 41.346 87.3558 41.664 86.8038 41.892C86.2638 42.108 85.6578 42.216 84.9858 42.216ZM91.038 42V40.218C91.806 39.606 92.55 38.994 93.27 38.382C94.002 37.77 94.656 37.164 95.232 36.564C95.808 35.952 96.264 35.358 96.6 34.782C96.936 34.206 97.104 33.648 97.104 33.108C97.104 32.772 97.044 32.466 96.924 32.19C96.804 31.902 96.612 31.674 96.348 31.506C96.096 31.326 95.76 31.236 95.34 31.236C94.92 31.236 94.566 31.332 94.278 31.524C93.99 31.716 93.774 31.974 93.63 32.298C93.486 32.61 93.414 32.964 93.414 33.36H91.056C91.092 32.436 91.302 31.662 91.686 31.038C92.07 30.414 92.586 29.952 93.234 29.652C93.882 29.34 94.608 29.184 95.412 29.184C96.3 29.184 97.05 29.352 97.662 29.688C98.274 30.012 98.736 30.456 99.048 31.02C99.372 31.584 99.534 32.232 99.534 32.964C99.534 33.516 99.432 34.056 99.228 34.584C99.036 35.112 98.76 35.628 98.4 36.132C98.052 36.624 97.656 37.098 97.212 37.554C96.768 38.01 96.306 38.448 95.826 38.868C95.346 39.276 94.878 39.66 94.422 40.02H99.84V42H91.038ZM110.739 42.216C109.599 42.216 108.615 41.94 107.787 41.388C106.959 40.836 106.323 40.074 105.879 39.102C105.447 38.118 105.231 36.984 105.231 35.7C105.231 34.416 105.447 33.288 105.879 32.316C106.323 31.332 106.953 30.564 107.769 30.012C108.597 29.46 109.587 29.184 110.739 29.184C111.891 29.184 112.875 29.46 113.691 30.012C114.519 30.564 115.149 31.332 115.581 32.316C116.025 33.288 116.247 34.416 116.247 35.7C116.247 36.984 116.025 38.118 115.581 39.102C115.149 40.074 114.519 40.836 113.691 41.388C112.875 41.94 111.891 42.216 110.739 42.216ZM110.739 40.038C111.339 40.038 111.867 39.864 112.323 39.516C112.779 39.156 113.133 38.652 113.385 38.004C113.649 37.356 113.781 36.588 113.781 35.7C113.781 34.8 113.649 34.032 113.385 33.396C113.133 32.748 112.779 32.25 112.323 31.902C111.867 31.554 111.339 31.38 110.739 31.38C110.139 31.38 109.611 31.554 109.155 31.902C108.699 32.25 108.339 32.748 108.075 33.396C107.823 34.032 107.697 34.8 107.697 35.7C107.697 36.588 107.823 37.356 108.075 38.004C108.339 38.652 108.699 39.156 109.155 39.516C109.611 39.864 110.139 40.038 110.739 40.038ZM123.233 42.216C122.093 42.216 121.109 41.94 120.281 41.388C119.453 40.836 118.817 40.074 118.373 39.102C117.941 38.118 117.725 36.984 117.725 35.7C117.725 34.416 117.941 33.288 118.373 32.316C118.817 31.332 119.447 30.564 120.263 30.012C121.091 29.46 122.081 29.184 123.233 29.184C124.385 29.184 125.369 29.46 126.185 30.012C127.013 30.564 127.643 31.332 128.075 32.316C128.519 33.288 128.741 34.416 128.741 35.7C128.741 36.984 128.519 38.118 128.075 39.102C127.643 40.074 127.013 40.836 126.185 41.388C125.369 41.94 124.385 42.216 123.233 42.216ZM123.233 40.038C123.833 40.038 124.361 39.864 124.817 39.516C125.273 39.156 125.627 38.652 125.879 38.004C126.143 37.356 126.275 36.588 126.275 35.7C126.275 34.8 126.143 34.032 125.879 33.396C125.627 32.748 125.273 32.25 124.817 31.902C124.361 31.554 123.833 31.38 123.233 31.38C122.633 31.38 122.105 31.554 121.649 31.902C121.193 32.25 120.833 32.748 120.569 33.396C120.317 34.032 120.191 34.8 120.191 35.7C120.191 36.588 120.317 37.356 120.569 38.004C120.833 38.652 121.193 39.156 121.649 39.516C122.105 39.864 122.633 40.038 123.233 40.038ZM135.727 42.216C134.587 42.216 133.603 41.94 132.775 41.388C131.947 40.836 131.311 40.074 130.867 39.102C130.435 38.118 130.219 36.984 130.219 35.7C130.219 34.416 130.435 33.288 130.867 32.316C131.311 31.332 131.941 30.564 132.757 30.012C133.585 29.46 134.575 29.184 135.727 29.184C136.879 29.184 137.863 29.46 138.679 30.012C139.507 30.564 140.137 31.332 140.569 32.316C141.013 33.288 141.235 34.416 141.235 35.7C141.235 36.984 141.013 38.118 140.569 39.102C140.137 40.074 139.507 40.836 138.679 41.388C137.863 41.94 136.879 42.216 135.727 42.216ZM135.727 40.038C136.327 40.038 136.855 39.864 137.311 39.516C137.767 39.156 138.121 38.652 138.373 38.004C138.637 37.356 138.769 36.588 138.769 35.7C138.769 34.8 138.637 34.032 138.373 33.396C138.121 32.748 137.767 32.25 137.311 31.902C136.855 31.554 136.327 31.38 135.727 31.38C135.127 31.38 134.599 31.554 134.143 31.902C133.687 32.25 133.327 32.748 133.063 33.396C132.811 34.032 132.685 34.8 132.685 35.7C132.685 36.588 132.811 37.356 133.063 38.004C133.327 38.652 133.687 39.156 134.143 39.516C134.599 39.864 135.127 40.038 135.727 40.038ZM152.277 42.216C151.137 42.216 150.153 41.94 149.325 41.388C148.497 40.836 147.861 40.074 147.417 39.102C146.985 38.118 146.769 36.984 146.769 35.7C146.769 34.416 146.985 33.288 147.417 32.316C147.861 31.332 148.491 30.564 149.307 30.012C150.135 29.46 151.125 29.184 152.277 29.184C153.429 29.184 154.413 29.46 155.229 30.012C156.057 30.564 156.687 31.332 157.119 32.316C157.563 33.288 157.785 34.416 157.785 35.7C157.785 36.984 157.563 38.118 157.119 39.102C156.687 40.074 156.057 40.836 155.229 41.388C154.413 41.94 153.429 42.216 152.277 42.216ZM152.277 40.038C152.877 40.038 153.405 39.864 153.861 39.516C154.317 39.156 154.671 38.652 154.923 38.004C155.187 37.356 155.319 36.588 155.319 35.7C155.319 34.8 155.187 34.032 154.923 33.396C154.671 32.748 154.317 32.25 153.861 31.902C153.405 31.554 152.877 31.38 152.277 31.38C151.677 31.38 151.149 31.554 150.693 31.902C150.237 32.25 149.877 32.748 149.613 33.396C149.361 34.032 149.235 34.8 149.235 35.7C149.235 36.588 149.361 37.356 149.613 38.004C149.877 38.652 150.237 39.156 150.693 39.516C151.149 39.864 151.677 40.038 152.277 40.038ZM164.771 42.216C163.631 42.216 162.647 41.94 161.819 41.388C160.991 40.836 160.355 40.074 159.911 39.102C159.479 38.118 159.263 36.984 159.263 35.7C159.263 34.416 159.479 33.288 159.911 32.316C160.355 31.332 160.985 30.564 161.801 30.012C162.629 29.46 163.619 29.184 164.771 29.184C165.923 29.184 166.907 29.46 167.723 30.012C168.551 30.564 169.181 31.332 169.613 32.316C170.057 33.288 170.279 34.416 170.279 35.7C170.279 36.984 170.057 38.118 169.613 39.102C169.181 40.074 168.551 40.836 167.723 41.388C166.907 41.94 165.923 42.216 164.771 42.216ZM164.771 40.038C165.371 40.038 165.899 39.864 166.355 39.516C166.811 39.156 167.165 38.652 167.417 38.004C167.681 37.356 167.813 36.588 167.813 35.7C167.813 34.8 167.681 34.032 167.417 33.396C167.165 32.748 166.811 32.25 166.355 31.902C165.899 31.554 165.371 31.38 164.771 31.38C164.171 31.38 163.643 31.554 163.187 31.902C162.731 32.25 162.371 32.748 162.107 33.396C161.855 34.032 161.729 34.8 161.729 35.7C161.729 36.588 161.855 37.356 162.107 38.004C162.371 38.652 162.731 39.156 163.187 39.516C163.643 39.864 164.171 40.038 164.771 40.038ZM177.265 42.216C176.125 42.216 175.141 41.94 174.313 41.388C173.485 40.836 172.849 40.074 172.405 39.102C171.973 38.118 171.757 36.984 171.757 35.7C171.757 34.416 171.973 33.288 172.405 32.316C172.849 31.332 173.479 30.564 174.295 30.012C175.123 29.46 176.113 29.184 177.265 29.184C178.417 29.184 179.401 29.46 180.217 30.012C181.045 30.564 181.675 31.332 182.107 32.316C182.551 33.288 182.773 34.416 182.773 35.7C182.773 36.984 182.551 38.118 182.107 39.102C181.675 40.074 181.045 40.836 180.217 41.388C179.401 41.94 178.417 42.216 177.265 42.216ZM177.265 40.038C177.865 40.038 178.393 39.864 178.849 39.516C179.305 39.156 179.659 38.652 179.911 38.004C180.175 37.356 180.307 36.588 180.307 35.7C180.307 34.8 180.175 34.032 179.911 33.396C179.659 32.748 179.305 32.25 178.849 31.902C178.393 31.554 177.865 31.38 177.265 31.38C176.665 31.38 176.137 31.554 175.681 31.902C175.225 32.25 174.865 32.748 174.601 33.396C174.349 34.032 174.223 34.8 174.223 35.7C174.223 36.588 174.349 37.356 174.601 38.004C174.865 38.652 175.225 39.156 175.681 39.516C176.137 39.864 176.665 40.038 177.265 40.038ZM193.815 42.216C192.675 42.216 191.691 41.94 190.863 41.388C190.035 40.836 189.399 40.074 188.955 39.102C188.523 38.118 188.307 36.984 188.307 35.7C188.307 34.416 188.523 33.288 188.955 32.316C189.399 31.332 190.029 30.564 190.845 30.012C191.673 29.46 192.663 29.184 193.815 29.184C194.967 29.184 195.951 29.46 196.767 30.012C197.595 30.564 198.225 31.332 198.657 32.316C199.101 33.288 199.323 34.416 199.323 35.7C199.323 36.984 199.101 38.118 198.657 39.102C198.225 40.074 197.595 40.836 196.767 41.388C195.951 41.94 194.967 42.216 193.815 42.216ZM193.815 40.038C194.415 40.038 194.943 39.864 195.399 39.516C195.855 39.156 196.209 38.652 196.461 38.004C196.725 37.356 196.857 36.588 196.857 35.7C196.857 34.8 196.725 34.032 196.461 33.396C196.209 32.748 195.855 32.25 195.399 31.902C194.943 31.554 194.415 31.38 193.815 31.38C193.215 31.38 192.687 31.554 192.231 31.902C191.775 32.25 191.415 32.748 191.151 33.396C190.899 34.032 190.773 34.8 190.773 35.7C190.773 36.588 190.899 37.356 191.151 38.004C191.415 38.652 191.775 39.156 192.231 39.516C192.687 39.864 193.215 40.038 193.815 40.038ZM206.309 42.216C205.169 42.216 204.185 41.94 203.357 41.388C202.529 40.836 201.893 40.074 201.449 39.102C201.017 38.118 200.801 36.984 200.801 35.7C200.801 34.416 201.017 33.288 201.449 32.316C201.893 31.332 202.523 30.564 203.339 30.012C204.167 29.46 205.157 29.184 206.309 29.184C207.461 29.184 208.445 29.46 209.261 30.012C210.089 30.564 210.719 31.332 211.151 32.316C211.595 33.288 211.817 34.416 211.817 35.7C211.817 36.984 211.595 38.118 211.151 39.102C210.719 40.074 210.089 40.836 209.261 41.388C208.445 41.94 207.461 42.216 206.309 42.216ZM206.309 40.038C206.909 40.038 207.437 39.864 207.893 39.516C208.349 39.156 208.703 38.652 208.955 38.004C209.219 37.356 209.351 36.588 209.351 35.7C209.351 34.8 209.219 34.032 208.955 33.396C208.703 32.748 208.349 32.25 207.893 31.902C207.437 31.554 206.909 31.38 206.309 31.38C205.709 31.38 205.181 31.554 204.725 31.902C204.269 32.25 203.909 32.748 203.645 33.396C203.393 34.032 203.267 34.8 203.267 35.7C203.267 36.588 203.393 37.356 203.645 38.004C203.909 38.652 204.269 39.156 204.725 39.516C205.181 39.864 205.709 40.038 206.309 40.038ZM218.802 42.216C217.662 42.216 216.678 41.94 215.85 41.388C215.022 40.836 214.386 40.074 213.942 39.102C213.51 38.118 213.294 36.984 213.294 35.7C213.294 34.416 213.51 33.288 213.942 32.316C214.386 31.332 215.016 30.564 215.832 30.012C216.66 29.46 217.65 29.184 218.802 29.184C219.954 29.184 220.938 29.46 221.754 30.012C222.582 30.564 223.212 31.332 223.644 32.316C224.088 33.288 224.31 34.416 224.31 35.7C224.31 36.984 224.088 38.118 223.644 39.102C223.212 40.074 222.582 40.836 221.754 41.388C220.938 41.94 219.954 42.216 218.802 42.216ZM218.802 40.038C219.402 40.038 219.93 39.864 220.386 39.516C220.842 39.156 221.196 38.652 221.448 38.004C221.712 37.356 221.844 36.588 221.844 35.7C221.844 34.8 221.712 34.032 221.448 33.396C221.196 32.748 220.842 32.25 220.386 31.902C219.93 31.554 219.402 31.38 218.802 31.38C218.202 31.38 217.674 31.554 217.218 31.902C216.762 32.25 216.402 32.748 216.138 33.396C215.886 34.032 215.76 34.8 215.76 35.7C215.76 36.588 215.886 37.356 216.138 38.004C216.402 38.652 216.762 39.156 217.218 39.516C217.674 39.864 218.202 40.038 218.802 40.038Z" fill="black"/>
<defs>
<clipPath id="clip0_2029_7472">
<rect width="50" height="50" fill="white"/>
</clipPath>
</defs>
</svg>
