<svg width="257" height="192" viewBox="0 0 257 192" fill="none" xmlns="http://www.w3.org/2000/svg">
<path d="M17.5969 39.1749V50.907H18.8728C22.6955 50.907 25.8048 47.7615 25.8048 43.8948V27.9236C25.7997 27.5037 25.8251 27.0771 25.881 26.6572C25.9912 25.8345 26.2487 23.9062 27.7382 22.4435C27.9618 22.2234 28.2109 22.027 28.4718 21.8459L28.3973 21.6647C28.8734 21.4667 29.3242 21.2923 29.7359 21.1501L29.7444 21.1738C29.7444 21.1738 29.7461 21.1738 29.7478 21.1738L29.7393 21.1484C29.9291 21.0756 30.1172 21.0113 30.2968 20.9588L30.312 21.0096C31.1643 20.8081 32.7418 20.6083 34.4041 21.2855C34.4448 21.3025 34.4787 21.316 34.4854 21.3194C34.8921 21.4921 35.6953 21.9034 36.4561 22.6924C37.3456 23.615 37.732 24.5461 37.8286 24.8085C37.9404 25.1082 38.0268 25.4129 38.0844 25.716C38.0912 25.7498 38.1115 25.8616 38.137 26.0122C38.1946 26.405 38.22 26.8435 38.2115 27.3175C38.2047 27.3886 38.2013 27.4462 38.198 27.5037V43.7255H46.3872V32.9313C46.394 30.5595 46.4753 28.6939 46.5346 27.4969C46.6177 25.8463 46.8955 25.2656 47.0294 24.9863L47.0616 24.9186C47.7275 23.4152 49.4118 21.5412 51.967 21.2076C54.2393 20.908 56.6471 21.9627 57.8281 23.764C58.5601 24.8813 58.6279 26.0529 58.6652 26.6826L58.6736 26.835C58.7922 28.5906 58.9142 34.973 58.816 43.6883H66.7832C66.7866 43.6341 66.7883 43.5765 66.7883 43.5105C66.7951 43.3429 66.7951 43.2278 66.7951 43.2109C66.7951 43.1668 66.7985 42.9738 66.807 42.6505C66.9374 36.776 66.9815 31.433 66.9357 26.769C66.9154 24.3531 66.8849 23.1207 66.4037 21.5445C66.1377 20.6574 65.5819 18.8104 63.9806 17.0159C62.3336 15.1774 60.4884 14.4054 59.2684 13.8941L59.187 13.8603C57.3723 13.0917 55.3881 12.7006 53.2904 12.7006C51.1927 12.7006 49.2152 13.09 47.4106 13.8586C45.5857 14.6153 43.9709 15.6785 42.6086 17.0193C42.5917 17.0362 42.5713 17.0565 42.551 17.0769C42.5171 17.1107 42.4815 17.1446 42.4527 17.1835L42.3392 17.3376L42.2443 17.1717L42.1714 17.0921C42.1223 17.0413 42.0715 16.9888 42.0257 16.9397C40.7447 15.6142 39.2146 14.5527 37.4812 13.7875C35.758 13.0256 33.8856 12.6396 31.9133 12.6396C29.9409 12.6396 28.0601 13.0256 26.3385 13.7875C24.6102 14.5527 23.0818 15.6142 21.794 16.9431C20.5097 18.2636 19.4794 19.8381 18.7339 21.6241C17.9934 23.4136 17.6189 25.3503 17.6189 27.375C17.6189 28.4535 17.5562 29.2491 17.563 29.6893C17.5935 31.8173 17.6155 34.8054 17.5986 39.1732L17.5969 39.1749Z" fill="#7FDED9"/>
<path d="M17.5103 34.6139C17.5255 34.5174 17.5424 34.4192 17.5611 34.3193C17.5424 34.4209 17.5255 34.5174 17.5103 34.6139Z" fill="#7FDED9"/>
<path d="M28.397 21.6646L28.4715 21.8457C28.5681 21.778 28.6681 21.7137 28.7697 21.6527C28.6698 21.69 28.563 21.7323 28.4444 21.7797C28.563 21.7306 28.6732 21.6883 28.7884 21.6409C29.0629 21.4766 29.3509 21.3277 29.6593 21.2041C29.6678 21.2007 29.7 21.1888 29.7441 21.1736L29.7356 21.1499C29.3238 21.2938 28.8731 21.4665 28.397 21.6646Z" fill="#7FDED9"/>
<path d="M28.7702 21.6527C28.7702 21.6527 28.7837 21.6459 28.7888 21.6409C28.6736 21.6866 28.5634 21.7289 28.4448 21.7797C28.5634 21.7323 28.6702 21.69 28.7702 21.6527Z" fill="#7FDED9"/>
<path d="M29.7393 21.1467L29.7477 21.1721C29.8528 21.1348 30.0426 21.0739 30.312 21.0095L30.2967 20.9587C30.1171 21.0112 29.9307 21.0756 29.7393 21.1483V21.1467Z" fill="#7FDED9"/>
<path d="M87.7369 36.2478C87.3404 35.9025 86.827 35.7264 86.2119 35.7264C85.629 35.7264 85.1681 35.8703 84.8343 36.1598C84.1514 36.8014 83.6262 37.2822 83.233 37.6242C82.801 37.9983 82.3689 38.3217 81.908 38.6145C81.4403 38.9159 80.9557 39.1377 80.4677 39.2765C79.9831 39.4153 79.4273 39.4864 78.8173 39.4864C77.9176 39.4864 77.1212 39.2714 76.3841 38.8312C75.6555 38.3995 75.0607 37.7444 74.6185 36.8827C74.2118 36.0938 73.9814 35.1762 73.9339 34.1553H83.9769C85.4324 34.1553 86.5338 33.9505 87.3438 33.5289C88.2147 33.0803 88.657 32.1153 88.657 30.6628C88.657 29.2102 88.2723 27.7137 87.5149 26.2899C86.7507 24.8628 85.5917 23.6828 84.0667 22.7855C82.5468 21.8866 80.6998 21.4312 78.5818 21.4312C76.9653 21.4312 75.464 21.6953 74.1186 22.2184C72.78 22.7432 71.6312 23.5084 70.7043 24.4971C69.7876 25.4807 69.081 26.6776 68.5981 28.0506C68.1254 29.4117 67.8848 30.91 67.8848 32.5064C67.8848 35.8991 68.8675 38.6298 70.8077 40.619C72.7478 42.6099 75.4945 43.6206 78.9698 43.6206C80.4796 43.6206 81.8402 43.4208 83.0178 43.0247C84.1955 42.6251 85.1867 42.1156 85.9628 41.5112C86.7456 40.9051 87.3438 40.255 87.7386 39.5812C88.1418 38.899 88.3469 38.281 88.3469 37.7461C88.3469 37.1095 88.1419 36.6067 87.7352 36.2478H87.7369ZM75.3861 27.006C76.1689 26.1646 77.1856 25.7397 78.409 25.7397C79.6984 25.7397 80.7473 26.1595 81.5301 26.9891C82.2706 27.7746 82.7247 28.9631 82.884 30.5274H73.9644C74.1678 28.9885 74.6456 27.8051 75.3861 27.006Z" fill="#7FDED9"/>
<path d="M102.708 22.3521C101.62 21.7765 100.483 21.4836 99.3271 21.4836C98.1715 21.4836 97.1853 21.7867 96.4652 22.386C95.9365 22.8261 95.4282 23.4119 94.9233 24.1653C94.8165 23.4542 94.6115 22.8769 94.3082 22.4452C93.8659 21.807 93.1441 21.4819 92.163 21.4819C90.8481 21.4819 89.2808 22.1523 89.2808 25.3503V40.0891C89.2808 41.2183 89.5553 42.0935 90.0975 42.6928C90.6465 43.2972 91.3548 43.6053 92.2037 43.6053C93.0526 43.6053 93.7778 43.3023 94.3404 42.7047C94.8945 42.1156 95.1774 41.2352 95.1774 40.0891V35.6637C95.1774 34.0893 95.2299 32.7383 95.3316 31.6481C95.4316 30.5832 95.6163 29.6436 95.8823 28.8564C96.1331 28.1132 96.4872 27.5478 96.9346 27.1753C97.7089 26.5388 98.8713 26.449 100.525 26.9789C101.554 27.3091 101.865 27.3514 102.023 27.3514C102.616 27.3514 103.172 27.1127 103.675 26.642C104.18 26.1646 104.436 25.5535 104.436 24.8255C104.436 23.7911 103.855 22.9582 102.708 22.3504V22.3521Z" fill="#7FDED9"/>
<path d="M121.894 34.1502C121.277 34.1502 120.747 34.3449 120.316 34.7309C119.916 35.0881 119.543 35.5841 119.211 36.1987C118.652 37.1636 118.008 37.8882 117.297 38.3504C116.592 38.8058 115.729 39.0377 114.731 39.0377C113.986 39.0377 113.296 38.8938 112.681 38.6077C112.059 38.3233 111.544 37.9136 111.105 37.3549C110.666 36.8047 110.324 36.1225 110.088 35.3234C109.851 34.5209 109.731 33.6254 109.731 32.6638C109.731 30.6255 110.194 29.0002 111.107 27.8355C112.01 26.6809 113.172 26.1189 114.657 26.1189C115.675 26.1189 116.522 26.3474 117.173 26.7994C117.841 27.2667 118.496 27.9845 119.128 28.941C119.501 29.4607 119.852 29.8501 120.169 30.099C120.509 30.3648 120.941 30.5002 121.45 30.5002C122.197 30.5002 122.844 30.2513 123.37 29.7621C123.903 29.2694 124.173 28.6549 124.173 27.9354C124.173 27.2616 123.946 26.5353 123.5 25.7803C123.068 25.0354 122.429 24.3243 121.604 23.6675C120.787 23.0191 119.779 22.4807 118.606 22.071C117.432 21.6596 116.127 21.4497 114.731 21.4497C112.476 21.4497 110.507 21.9237 108.879 22.8599C107.242 23.7944 105.973 25.1386 105.11 26.8536C104.249 28.5567 103.814 30.5391 103.814 32.7467C103.814 36.0158 104.77 38.6653 106.656 40.6223C108.541 42.5811 111.193 43.5731 114.535 43.5731C116.1 43.5731 117.53 43.3598 118.784 42.9383C120.042 42.5167 121.104 41.9462 121.938 41.2436C122.768 40.5512 123.402 39.8012 123.82 39.0123C124.234 38.2251 124.442 37.4667 124.442 36.7607C124.442 36.1309 124.202 35.535 123.729 34.9916C123.246 34.4363 122.627 34.1553 121.894 34.1553V34.1502Z" fill="#7FDED9"/>
<path d="M143.872 24.9744C143.248 23.8418 142.383 22.9665 141.296 22.374C140.214 21.7832 138.96 21.4835 137.572 21.4835C136.66 21.4835 135.791 21.602 134.988 21.8374C134.18 22.0727 133.434 22.4299 132.772 22.8971C132.275 23.2476 131.772 23.6894 131.27 24.2126V17.1276C131.27 15.9984 131.008 15.1248 130.489 14.5289C129.961 13.9211 129.222 13.6113 128.293 13.6113C127.365 13.6113 126.651 13.9161 126.138 14.5187C125.631 15.1113 125.375 15.9899 125.375 17.1276V40.0924C125.375 42.9975 126.963 43.6069 128.293 43.6069C129.222 43.6069 129.961 43.2954 130.491 42.6809C131.008 42.0782 131.27 41.2063 131.27 40.0924V33.0904C131.27 31.1181 131.409 29.7349 131.679 28.9917C132.03 28.1182 132.567 27.4224 133.272 26.923C133.973 26.4252 134.775 26.1713 135.651 26.1713C136.957 26.1713 137.811 26.5691 138.263 27.3885C138.74 28.2468 138.982 29.5132 138.982 31.1519V40.0924C138.982 42.9975 140.57 43.6069 141.9 43.6069C142.789 43.6069 143.515 43.2988 144.055 42.6927C144.589 42.0951 144.858 41.2199 144.858 40.0924V29.9483C144.858 28.9088 144.792 27.9827 144.66 27.1938C144.528 26.3863 144.262 25.638 143.872 24.9744Z" fill="#7FDED9"/>
<path d="M165.168 22.8211C164.943 22.4097 164.616 22.0812 164.202 21.8442C163.789 21.6038 163.35 21.4819 162.899 21.4819C162.289 21.4819 161.801 21.5954 161.447 21.8188C161.093 22.044 160.776 22.452 160.478 23.0665C160.202 23.6269 159.897 24.3938 159.549 25.4079L156.418 34.3432L152.328 43.3497L152.121 43.8525C151.772 44.6888 151.455 45.3372 151.18 45.7791C150.931 46.1769 150.655 46.4563 150.357 46.6103C150.052 46.7695 149.615 46.8507 149.056 46.8507C148.837 46.8507 148.573 46.8152 148.266 46.7475C147.969 46.6594 147.661 46.6154 147.351 46.6154C146.555 46.6154 145.936 46.8084 145.511 47.1876C145.079 47.5736 144.858 48.1204 144.858 48.8162C144.858 49.8337 145.311 50.5464 146.204 50.9324C147.019 51.2829 148.234 51.4606 149.816 51.4606C151.399 51.4606 152.773 51.2033 153.746 50.6971C154.729 50.1892 155.528 49.4528 156.123 48.5098C156.704 47.5838 157.302 46.3056 157.899 44.7125L164.81 26.6302C164.988 26.1358 165.129 25.6771 165.244 25.2301C165.356 24.8052 165.446 24.4378 165.502 24.1669L165.509 24.106C165.509 23.6608 165.395 23.2274 165.17 22.8177L165.168 22.8211Z" fill="#7FDED9"/>
<path d="M151.518 40.1602L154.635 33.9624L151.38 24.5022C151.067 23.5507 150.714 22.838 150.299 22.3234C149.852 21.7664 149.193 21.4854 148.342 21.4854C147.846 21.4854 147.368 21.6174 146.922 21.8747C146.475 22.1304 146.116 22.4791 145.853 22.9091C145.592 23.3408 145.46 23.8182 145.46 24.3261C145.46 24.7951 145.665 25.5061 146.085 26.4897L151.518 40.1619V40.1602Z" fill="#7FDED9"/>
<path d="M20.207 85.0508V73.1508H24.491C25.443 73.1508 26.2307 73.3151 26.854 73.6438C27.4773 73.9611 27.942 74.3918 28.248 74.9358C28.554 75.4798 28.707 76.1031 28.707 76.8058C28.707 77.4631 28.5597 78.0694 28.265 78.6248C27.9703 79.1688 27.5113 79.6108 26.888 79.9508C26.2647 80.2794 25.4657 80.4438 24.491 80.4438H22.247V85.0508H20.207ZM22.247 78.7778H24.372C25.1767 78.7778 25.7547 78.6021 26.106 78.2508C26.4573 77.8881 26.633 77.4064 26.633 76.8058C26.633 76.1824 26.4573 75.6951 26.106 75.3438C25.7547 74.9924 25.1767 74.8168 24.372 74.8168H22.247V78.7778ZM30.2288 85.0508V76.4828H32.0478L32.2348 78.0808C32.4388 77.7068 32.6938 77.3894 32.9998 77.1288C33.3058 76.8568 33.6628 76.6471 34.0708 76.4998C34.4901 76.3524 34.9491 76.2788 35.4478 76.2788V78.4378H34.7338C34.3938 78.4378 34.0708 78.4831 33.7648 78.5738C33.4588 78.6531 33.1924 78.7891 32.9658 78.9818C32.7504 79.1631 32.5804 79.4181 32.4558 79.7468C32.3311 80.0641 32.2688 80.4664 32.2688 80.9538V85.0508H30.2288ZM40.628 85.2548C39.812 85.2548 39.0753 85.0678 38.418 84.6938C37.772 84.3084 37.262 83.7814 36.888 83.1128C36.5253 82.4328 36.344 81.6564 36.344 80.7838C36.344 79.8884 36.531 79.1064 36.905 78.4378C37.279 77.7578 37.789 77.2308 38.435 76.8568C39.0923 76.4714 39.829 76.2788 40.645 76.2788C41.461 76.2788 42.192 76.4714 42.838 76.8568C43.4953 77.2308 44.0053 77.7521 44.368 78.4208C44.742 79.0894 44.929 79.8714 44.929 80.7668C44.929 81.6621 44.742 82.4441 44.368 83.1128C43.994 83.7814 43.4783 84.3084 42.821 84.6938C42.175 85.0678 41.444 85.2548 40.628 85.2548ZM40.628 83.5038C41.036 83.5038 41.4043 83.4018 41.733 83.1978C42.073 82.9938 42.345 82.6878 42.549 82.2798C42.753 81.8718 42.855 81.3674 42.855 80.7668C42.855 80.1661 42.753 79.6674 42.549 79.2708C42.3563 78.8628 42.09 78.5568 41.75 78.3528C41.4213 78.1488 41.053 78.0468 40.645 78.0468C40.2483 78.0468 39.88 78.1488 39.54 78.3528C39.2 78.5568 38.928 78.8628 38.724 79.2708C38.52 79.6674 38.418 80.1661 38.418 80.7668C38.418 81.3674 38.52 81.8718 38.724 82.2798C38.928 82.6878 39.1943 82.9938 39.523 83.1978C39.863 83.4018 40.2313 83.5038 40.628 83.5038ZM50.564 85.2548C49.7706 85.2548 49.0623 85.0621 48.439 84.6768C47.8156 84.2914 47.3283 83.7588 46.977 83.0788C46.637 82.3988 46.467 81.6281 46.467 80.7668C46.467 79.9054 46.6426 79.1404 46.994 78.4718C47.3453 77.7918 47.8326 77.2591 48.456 76.8738C49.0906 76.4771 49.8046 76.2788 50.598 76.2788C51.244 76.2788 51.805 76.4034 52.281 76.6528C52.7683 76.8908 53.1536 77.2308 53.437 77.6728V72.8108H55.477V85.0508H53.641L53.437 83.8098C53.2556 84.0591 53.0346 84.2971 52.774 84.5238C52.5133 84.7391 52.2016 84.9148 51.839 85.0508C51.4763 85.1868 51.0513 85.2548 50.564 85.2548ZM50.989 83.4868C51.4763 83.4868 51.907 83.3734 52.281 83.1468C52.655 82.9088 52.944 82.5858 53.148 82.1778C53.352 81.7698 53.454 81.2994 53.454 80.7668C53.454 80.2341 53.352 79.7638 53.148 79.3558C52.944 78.9478 52.655 78.6304 52.281 78.4038C51.907 78.1771 51.4763 78.0638 50.989 78.0638C50.5243 78.0638 50.105 78.1771 49.731 78.4038C49.357 78.6304 49.0623 78.9478 48.847 79.3558C48.643 79.7638 48.541 80.2341 48.541 80.7668C48.541 81.2994 48.643 81.7698 48.847 82.1778C49.0623 82.5858 49.357 82.9088 49.731 83.1468C50.105 83.3734 50.5243 83.4868 50.989 83.4868ZM60.7552 85.2548C60.0639 85.2548 59.4689 85.1188 58.9702 84.8468C58.4829 84.5634 58.1089 84.1441 57.8482 83.5888C57.5875 83.0221 57.4572 82.3251 57.4572 81.4978V76.4828H59.4972V81.2938C59.4972 82.0304 59.6502 82.5914 59.9562 82.9768C60.2735 83.3508 60.7495 83.5378 61.3842 83.5378C61.7922 83.5378 62.1549 83.4414 62.4722 83.2488C62.8009 83.0561 63.0559 82.7784 63.2372 82.4158C63.4299 82.0418 63.5262 81.5884 63.5262 81.0558V76.4828H65.5662V85.0508H63.7642L63.6112 83.6228C63.3505 84.1214 62.9709 84.5181 62.4722 84.8128C61.9849 85.1074 61.4125 85.2548 60.7552 85.2548ZM71.729 85.2548C70.8903 85.2548 70.1366 85.0678 69.468 84.6938C68.8106 84.3084 68.295 83.7814 67.921 83.1128C67.5583 82.4328 67.377 81.6621 67.377 80.8008C67.377 79.9054 67.5583 79.1234 67.921 78.4548C68.295 77.7748 68.8106 77.2421 69.468 76.8568C70.1366 76.4714 70.896 76.2788 71.746 76.2788C72.8113 76.2788 73.7066 76.5621 74.432 77.1288C75.1573 77.6841 75.622 78.4491 75.826 79.4238H73.684C73.5706 78.9931 73.3326 78.6531 72.97 78.4038C72.6186 78.1544 72.1993 78.0298 71.712 78.0298C71.2926 78.0298 70.9073 78.1374 70.556 78.3528C70.216 78.5681 69.944 78.8798 69.74 79.2878C69.5473 79.6958 69.451 80.1888 69.451 80.7668C69.451 81.2088 69.5076 81.5998 69.621 81.9398C69.7343 82.2798 69.893 82.5688 70.097 82.8068C70.3123 83.0334 70.556 83.2091 70.828 83.3338C71.1 83.4584 71.3946 83.5208 71.712 83.5208C72.0406 83.5208 72.3353 83.4698 72.596 83.3678C72.868 83.2544 73.0946 83.0901 73.276 82.8748C73.4686 82.6594 73.6046 82.4044 73.684 82.1098H75.826C75.622 83.0618 75.1573 83.8268 74.432 84.4048C73.7066 84.9714 72.8056 85.2548 71.729 85.2548ZM81.2131 85.0508C80.6351 85.0508 80.1308 84.9601 79.7001 84.7788C79.2808 84.5974 78.9521 84.2971 78.7141 83.8778C78.4761 83.4584 78.3571 82.8918 78.3571 82.1778V78.1998H76.8951V76.4828H78.3571L78.5951 74.2218H80.3971V76.4828H82.7261V78.1998H80.3971V82.1778C80.3971 82.6084 80.4878 82.9088 80.6691 83.0788C80.8618 83.2374 81.1791 83.3168 81.6211 83.3168H82.6751V85.0508H81.2131ZM88.2545 85.2548C87.4385 85.2548 86.7019 85.0678 86.0445 84.6938C85.3985 84.3084 84.8885 83.7814 84.5145 83.1128C84.1519 82.4328 83.9705 81.6564 83.9705 80.7838C83.9705 79.8884 84.1575 79.1064 84.5315 78.4378C84.9055 77.7578 85.4155 77.2308 86.0615 76.8568C86.7189 76.4714 87.4555 76.2788 88.2715 76.2788C89.0875 76.2788 89.8185 76.4714 90.4645 76.8568C91.1219 77.2308 91.6319 77.7521 91.9945 78.4208C92.3685 79.0894 92.5555 79.8714 92.5555 80.7668C92.5555 81.6621 92.3685 82.4441 91.9945 83.1128C91.6205 83.7814 91.1049 84.3084 90.4475 84.6938C89.8015 85.0678 89.0705 85.2548 88.2545 85.2548ZM88.2545 83.5038C88.6625 83.5038 89.0309 83.4018 89.3595 83.1978C89.6995 82.9938 89.9715 82.6878 90.1755 82.2798C90.3795 81.8718 90.4815 81.3674 90.4815 80.7668C90.4815 80.1661 90.3795 79.6674 90.1755 79.2708C89.9829 78.8628 89.7165 78.5568 89.3765 78.3528C89.0479 78.1488 88.6795 78.0468 88.2715 78.0468C87.8749 78.0468 87.5065 78.1488 87.1665 78.3528C86.8265 78.5568 86.5545 78.8628 86.3505 79.2708C86.1465 79.6674 86.0445 80.1661 86.0445 80.7668C86.0445 81.3674 86.1465 81.8718 86.3505 82.2798C86.5545 82.6878 86.8209 82.9938 87.1495 83.1978C87.4895 83.4018 87.8579 83.5038 88.2545 83.5038ZM97.7995 85.2548C97.0402 85.2548 96.3772 85.1358 95.8105 84.8978C95.2552 84.6484 94.8132 84.3084 94.4845 83.8778C94.1672 83.4358 93.9802 82.9314 93.9235 82.3648H95.9635C96.0202 82.6028 96.1222 82.8238 96.2695 83.0278C96.4168 83.2204 96.6152 83.3734 96.8645 83.4868C97.1252 83.6001 97.4312 83.6568 97.7825 83.6568C98.1225 83.6568 98.4002 83.6114 98.6155 83.5208C98.8308 83.4188 98.9895 83.2884 99.0915 83.1298C99.1935 82.9711 99.2445 82.8011 99.2445 82.6198C99.2445 82.3478 99.1708 82.1381 99.0235 81.9908C98.8762 81.8434 98.6608 81.7301 98.3775 81.6508C98.1055 81.5601 97.7768 81.4751 97.3915 81.3958C96.9835 81.3164 96.5868 81.2201 96.2015 81.1068C95.8275 80.9821 95.4875 80.8291 95.1815 80.6478C94.8868 80.4664 94.6488 80.2341 94.4675 79.9508C94.2975 79.6674 94.2125 79.3218 94.2125 78.9138C94.2125 78.4151 94.3428 77.9674 94.6035 77.5708C94.8755 77.1741 95.2608 76.8624 95.7595 76.6358C96.2695 76.3978 96.8758 76.2788 97.5785 76.2788C98.5758 76.2788 99.3692 76.5111 99.9585 76.9758C100.559 77.4291 100.911 78.0694 101.013 78.8968H99.0745C99.0178 78.5794 98.8592 78.3358 98.5985 78.1658C98.3378 77.9844 97.9922 77.8938 97.5615 77.8938C97.1195 77.8938 96.7795 77.9788 96.5415 78.1488C96.3148 78.3074 96.2015 78.5228 96.2015 78.7948C96.2015 78.9648 96.2695 79.1234 96.4055 79.2708C96.5528 79.4068 96.7625 79.5258 97.0345 79.6278C97.3065 79.7184 97.6408 79.8091 98.0375 79.8998C98.6722 80.0244 99.2332 80.1718 99.7205 80.3418C100.208 80.5118 100.593 80.7611 100.877 81.0898C101.16 81.4184 101.302 81.8831 101.302 82.4838C101.313 83.0278 101.171 83.5094 100.877 83.9288C100.593 84.3481 100.191 84.6768 99.6695 84.9148C99.1482 85.1414 98.5248 85.2548 97.7995 85.2548ZM107.091 88.7908V76.4828H108.91L109.131 77.7238C109.313 77.4744 109.528 77.2421 109.777 77.0268C110.038 76.8001 110.35 76.6188 110.712 76.4828C111.086 76.3468 111.511 76.2788 111.987 76.2788C112.792 76.2788 113.5 76.4771 114.112 76.8738C114.736 77.2704 115.223 77.8088 115.574 78.4888C115.926 79.1574 116.101 79.9224 116.101 80.7838C116.101 81.6451 115.92 82.4158 115.557 83.0958C115.206 83.7644 114.719 84.2914 114.095 84.6768C113.483 85.0621 112.781 85.2548 111.987 85.2548C111.341 85.2548 110.775 85.1358 110.287 84.8978C109.811 84.6484 109.426 84.2971 109.131 83.8438V88.7908H107.091ZM111.562 83.4868C112.038 83.4868 112.463 83.3734 112.837 83.1468C113.211 82.9201 113.5 82.6028 113.704 82.1948C113.92 81.7868 114.027 81.3164 114.027 80.7838C114.027 80.2398 113.92 79.7638 113.704 79.3558C113.5 78.9478 113.211 78.6304 112.837 78.4038C112.463 78.1771 112.038 78.0638 111.562 78.0638C111.075 78.0638 110.644 78.1771 110.27 78.4038C109.908 78.6304 109.619 78.9478 109.403 79.3558C109.199 79.7638 109.097 80.2341 109.097 80.7668C109.097 81.3108 109.199 81.7868 109.403 82.1948C109.619 82.5914 109.908 82.9088 110.27 83.1468C110.644 83.3734 111.075 83.4868 111.562 83.4868ZM117.912 85.0508V76.4828H119.731L119.918 78.0808C120.122 77.7068 120.377 77.3894 120.683 77.1288C120.989 76.8568 121.346 76.6471 121.754 76.4998C122.173 76.3524 122.632 76.2788 123.131 76.2788V78.4378H122.417C122.077 78.4378 121.754 78.4831 121.448 78.5738C121.142 78.6531 120.875 78.7891 120.649 78.9818C120.433 79.1631 120.263 79.4181 120.139 79.7468C120.014 80.0641 119.952 80.4664 119.952 80.9538V85.0508H117.912ZM128.311 85.2548C127.495 85.2548 126.758 85.0678 126.101 84.6938C125.455 84.3084 124.945 83.7814 124.571 83.1128C124.208 82.4328 124.027 81.6564 124.027 80.7838C124.027 79.8884 124.214 79.1064 124.588 78.4378C124.962 77.7578 125.472 77.2308 126.118 76.8568C126.775 76.4714 127.512 76.2788 128.328 76.2788C129.144 76.2788 129.875 76.4714 130.521 76.8568C131.178 77.2308 131.688 77.7521 132.051 78.4208C132.425 79.0894 132.612 79.8714 132.612 80.7668C132.612 81.6621 132.425 82.4441 132.051 83.1128C131.677 83.7814 131.161 84.3084 130.504 84.6938C129.858 85.0678 129.127 85.2548 128.311 85.2548ZM128.311 83.5038C128.719 83.5038 129.087 83.4018 129.416 83.1978C129.756 82.9938 130.028 82.6878 130.232 82.2798C130.436 81.8718 130.538 81.3674 130.538 80.7668C130.538 80.1661 130.436 79.6674 130.232 79.2708C130.039 78.8628 129.773 78.5568 129.433 78.3528C129.104 78.1488 128.736 78.0468 128.328 78.0468C127.931 78.0468 127.563 78.1488 127.223 78.3528C126.883 78.5568 126.611 78.8628 126.407 79.2708C126.203 79.6674 126.101 80.1661 126.101 80.7668C126.101 81.3674 126.203 81.8718 126.407 82.2798C126.611 82.6878 126.877 82.9938 127.206 83.1978C127.546 83.4018 127.914 83.5038 128.311 83.5038ZM134.439 85.0508V76.4828H136.241L136.411 77.6558C136.683 77.2251 137.04 76.8908 137.482 76.6528C137.935 76.4034 138.451 76.2788 139.029 76.2788C139.459 76.2788 139.845 76.3354 140.185 76.4488C140.536 76.5621 140.842 76.7321 141.103 76.9588C141.375 77.1854 141.596 77.4688 141.766 77.8088C142.083 77.3328 142.497 76.9588 143.007 76.6868C143.517 76.4148 144.072 76.2788 144.673 76.2788C145.387 76.2788 145.993 76.4261 146.492 76.7208C146.99 77.0041 147.37 77.4291 147.631 77.9958C147.891 78.5511 148.022 79.2368 148.022 80.0528V85.0508H145.999V80.2568C145.999 79.5314 145.851 78.9761 145.557 78.5908C145.262 78.2054 144.826 78.0128 144.248 78.0128C143.851 78.0128 143.5 78.1091 143.194 78.3018C142.899 78.4944 142.667 78.7778 142.497 79.1518C142.327 79.5144 142.242 79.9621 142.242 80.4948V85.0508H140.219V80.2568C140.219 79.5314 140.071 78.9761 139.777 78.5908C139.482 78.2054 139.04 78.0128 138.451 78.0128C138.077 78.0128 137.737 78.1091 137.431 78.3018C137.136 78.4944 136.904 78.7778 136.734 79.1518C136.564 79.5144 136.479 79.9621 136.479 80.4948V85.0508H134.439ZM154.002 85.2548C153.186 85.2548 152.449 85.0678 151.792 84.6938C151.146 84.3084 150.636 83.7814 150.262 83.1128C149.899 82.4328 149.718 81.6564 149.718 80.7838C149.718 79.8884 149.905 79.1064 150.279 78.4378C150.653 77.7578 151.163 77.2308 151.809 76.8568C152.466 76.4714 153.203 76.2788 154.019 76.2788C154.835 76.2788 155.566 76.4714 156.212 76.8568C156.869 77.2308 157.379 77.7521 157.742 78.4208C158.116 79.0894 158.303 79.8714 158.303 80.7668C158.303 81.6621 158.116 82.4441 157.742 83.1128C157.368 83.7814 156.852 84.3084 156.195 84.6938C155.549 85.0678 154.818 85.2548 154.002 85.2548ZM154.002 83.5038C154.41 83.5038 154.778 83.4018 155.107 83.1978C155.447 82.9938 155.719 82.6878 155.923 82.2798C156.127 81.8718 156.229 81.3674 156.229 80.7668C156.229 80.1661 156.127 79.6674 155.923 79.2708C155.73 78.8628 155.464 78.5568 155.124 78.3528C154.795 78.1488 154.427 78.0468 154.019 78.0468C153.622 78.0468 153.254 78.1488 152.914 78.3528C152.574 78.5568 152.302 78.8628 152.098 79.2708C151.894 79.6674 151.792 80.1661 151.792 80.7668C151.792 81.3674 151.894 81.8718 152.098 82.2798C152.302 82.6878 152.568 82.9938 152.897 83.1978C153.237 83.4018 153.605 83.5038 154.002 83.5038ZM164.193 85.2548C163.354 85.2548 162.601 85.0678 161.932 84.6938C161.275 84.3084 160.759 83.7814 160.385 83.1128C160.022 82.4328 159.841 81.6621 159.841 80.8008C159.841 79.9054 160.022 79.1234 160.385 78.4548C160.759 77.7748 161.275 77.2421 161.932 76.8568C162.601 76.4714 163.36 76.2788 164.21 76.2788C165.275 76.2788 166.171 76.5621 166.896 77.1288C167.621 77.6841 168.086 78.4491 168.29 79.4238H166.148C166.035 78.9931 165.797 78.6531 165.434 78.4038C165.083 78.1544 164.663 78.0298 164.176 78.0298C163.757 78.0298 163.371 78.1374 163.02 78.3528C162.68 78.5681 162.408 78.8798 162.204 79.2878C162.011 79.6958 161.915 80.1888 161.915 80.7668C161.915 81.2088 161.972 81.5998 162.085 81.9398C162.198 82.2798 162.357 82.5688 162.561 82.8068C162.776 83.0334 163.02 83.2091 163.292 83.3338C163.564 83.4584 163.859 83.5208 164.176 83.5208C164.505 83.5208 164.799 83.4698 165.06 83.3678C165.332 83.2544 165.559 83.0901 165.74 82.8748C165.933 82.6594 166.069 82.4044 166.148 82.1098H168.29C168.086 83.0618 167.621 83.8268 166.896 84.4048C166.171 84.9714 165.27 85.2548 164.193 85.2548ZM170.172 85.0508V76.4828H172.212V85.0508H170.172ZM171.192 75.1228C170.818 75.1228 170.506 75.0094 170.257 74.7828C170.019 74.5448 169.9 74.2558 169.9 73.9158C169.9 73.5644 170.019 73.2811 170.257 73.0658C170.506 72.8391 170.818 72.7258 171.192 72.7258C171.566 72.7258 171.872 72.8391 172.11 73.0658C172.359 73.2811 172.484 73.5644 172.484 73.9158C172.484 74.2558 172.359 74.5448 172.11 74.7828C171.872 75.0094 171.566 75.1228 171.192 75.1228ZM178.394 85.2548C177.578 85.2548 176.842 85.0678 176.184 84.6938C175.538 84.3084 175.028 83.7814 174.654 83.1128C174.292 82.4328 174.11 81.6564 174.11 80.7838C174.11 79.8884 174.297 79.1064 174.671 78.4378C175.045 77.7578 175.555 77.2308 176.201 76.8568C176.859 76.4714 177.595 76.2788 178.411 76.2788C179.227 76.2788 179.958 76.4714 180.604 76.8568C181.262 77.2308 181.772 77.7521 182.134 78.4208C182.508 79.0894 182.695 79.8714 182.695 80.7668C182.695 81.6621 182.508 82.4441 182.134 83.1128C181.76 83.7814 181.245 84.3084 180.587 84.6938C179.941 85.0678 179.21 85.2548 178.394 85.2548ZM178.394 83.5038C178.802 83.5038 179.171 83.4018 179.499 83.1978C179.839 82.9938 180.111 82.6878 180.315 82.2798C180.519 81.8718 180.621 81.3674 180.621 80.7668C180.621 80.1661 180.519 79.6674 180.315 79.2708C180.123 78.8628 179.856 78.5568 179.516 78.3528C179.188 78.1488 178.819 78.0468 178.411 78.0468C178.015 78.0468 177.646 78.1488 177.306 78.3528C176.966 78.5568 176.694 78.8628 176.49 79.2708C176.286 79.6674 176.184 80.1661 176.184 80.7668C176.184 81.3674 176.286 81.8718 176.49 82.2798C176.694 82.6878 176.961 82.9938 177.289 83.1978C177.629 83.4018 177.998 83.5038 178.394 83.5038ZM184.522 85.0508V76.4828H186.324L186.477 77.9108C186.738 77.4121 187.112 77.0154 187.599 76.7208C188.087 76.4261 188.665 76.2788 189.333 76.2788C190.025 76.2788 190.614 76.4261 191.101 76.7208C191.589 77.0041 191.963 77.4234 192.223 77.9788C192.495 78.5341 192.631 79.2254 192.631 80.0528V85.0508H190.591V80.2398C190.591 79.5258 190.433 78.9761 190.115 78.5908C189.798 78.2054 189.328 78.0128 188.704 78.0128C188.296 78.0128 187.928 78.1091 187.599 78.3018C187.282 78.4944 187.027 78.7778 186.834 79.1518C186.653 79.5144 186.562 79.9564 186.562 80.4778V85.0508H184.522ZM197.468 85.2548C196.765 85.2548 196.182 85.1358 195.717 84.8978C195.252 84.6598 194.907 84.3424 194.68 83.9458C194.453 83.5491 194.34 83.1184 194.34 82.6538C194.34 82.1098 194.476 81.6394 194.748 81.2428C195.031 80.8461 195.445 80.5401 195.989 80.3248C196.533 80.0981 197.202 79.9848 197.995 79.9848H200.154C200.154 79.5314 200.092 79.1574 199.967 78.8628C199.842 78.5568 199.65 78.3301 199.389 78.1828C199.128 78.0354 198.794 77.9618 198.386 77.9618C197.921 77.9618 197.525 78.0694 197.196 78.2848C196.867 78.4888 196.663 78.8061 196.584 79.2368H194.578C194.646 78.6248 194.85 78.1034 195.19 77.6728C195.53 77.2308 195.978 76.8908 196.533 76.6528C197.1 76.4034 197.717 76.2788 198.386 76.2788C199.191 76.2788 199.876 76.4204 200.443 76.7038C201.01 76.9758 201.44 77.3724 201.735 77.8938C202.041 78.4038 202.194 79.0214 202.194 79.7468V85.0508H200.46L200.256 83.6738C200.143 83.9004 199.995 84.1101 199.814 84.3028C199.644 84.4954 199.446 84.6654 199.219 84.8128C198.992 84.9488 198.732 85.0564 198.437 85.1358C198.154 85.2151 197.831 85.2548 197.468 85.2548ZM197.927 83.6398C198.256 83.6398 198.545 83.5831 198.794 83.4698C199.055 83.3451 199.276 83.1751 199.457 82.9598C199.65 82.7331 199.797 82.4838 199.899 82.2118C200.001 81.9398 200.069 81.6508 200.103 81.3448V81.3108H198.216C197.819 81.3108 197.491 81.3618 197.23 81.4638C196.969 81.5544 196.782 81.6904 196.669 81.8718C196.556 82.0531 196.499 82.2628 196.499 82.5008C196.499 82.7388 196.556 82.9428 196.669 83.1128C196.782 83.2828 196.947 83.4131 197.162 83.5038C197.377 83.5944 197.632 83.6398 197.927 83.6398ZM204.204 85.0508V72.8108H206.244V85.0508H204.204ZM212.362 85.2548C211.512 85.2548 210.764 85.0734 210.118 84.7108C209.472 84.3368 208.968 83.8154 208.605 83.1468C208.243 82.4781 208.061 81.7074 208.061 80.8348C208.061 79.9281 208.237 79.1348 208.588 78.4548C208.951 77.7748 209.455 77.2421 210.101 76.8568C210.759 76.4714 211.518 76.2788 212.379 76.2788C213.218 76.2788 213.949 76.4658 214.572 76.8398C215.196 77.2138 215.677 77.7181 216.017 78.3528C216.357 78.9761 216.527 79.6788 216.527 80.4608C216.527 80.5741 216.527 80.6988 216.527 80.8348C216.527 80.9708 216.516 81.1124 216.493 81.2598H209.523V79.9508H214.47C214.448 79.3274 214.238 78.8401 213.841 78.4888C213.445 78.1261 212.952 77.9448 212.362 77.9448C211.943 77.9448 211.558 78.0411 211.206 78.2338C210.855 78.4264 210.577 78.7154 210.373 79.1008C210.169 79.4748 210.067 79.9508 210.067 80.5288V81.0218C210.067 81.5544 210.164 82.0134 210.356 82.3988C210.56 82.7841 210.832 83.0788 211.172 83.2828C211.524 83.4754 211.915 83.5718 212.345 83.5718C212.821 83.5718 213.212 83.4698 213.518 83.2658C213.836 83.0618 214.068 82.7898 214.215 82.4498H216.289C216.131 82.9824 215.87 83.4641 215.507 83.8948C215.145 84.3141 214.697 84.6484 214.164 84.8978C213.632 85.1358 213.031 85.2548 212.362 85.2548ZM221.658 85.2548C220.898 85.2548 220.235 85.1358 219.669 84.8978C219.113 84.6484 218.671 84.3084 218.343 83.8778C218.025 83.4358 217.838 82.9314 217.782 82.3648H219.822C219.878 82.6028 219.98 82.8238 220.128 83.0278C220.275 83.2204 220.473 83.3734 220.723 83.4868C220.983 83.6001 221.289 83.6568 221.641 83.6568C221.981 83.6568 222.258 83.6114 222.474 83.5208C222.689 83.4188 222.848 83.2884 222.95 83.1298C223.052 82.9711 223.103 82.8011 223.103 82.6198C223.103 82.3478 223.029 82.1381 222.882 81.9908C222.734 81.8434 222.519 81.7301 222.236 81.6508C221.964 81.5601 221.635 81.4751 221.25 81.3958C220.842 81.3164 220.445 81.2201 220.06 81.1068C219.686 80.9821 219.346 80.8291 219.04 80.6478C218.745 80.4664 218.507 80.2341 218.326 79.9508C218.156 79.6674 218.071 79.3218 218.071 78.9138C218.071 78.4151 218.201 77.9674 218.462 77.5708C218.734 77.1741 219.119 76.8624 219.618 76.6358C220.128 76.3978 220.734 76.2788 221.437 76.2788C222.434 76.2788 223.227 76.5111 223.817 76.9758C224.417 77.4291 224.769 78.0694 224.871 78.8968H222.933C222.876 78.5794 222.717 78.3358 222.457 78.1658C222.196 77.9844 221.85 77.8938 221.42 77.8938C220.978 77.8938 220.638 77.9788 220.4 78.1488C220.173 78.3074 220.06 78.5228 220.06 78.7948C220.06 78.9648 220.128 79.1234 220.264 79.2708C220.411 79.4068 220.621 79.5258 220.893 79.6278C221.165 79.7184 221.499 79.8091 221.896 79.8998C222.53 80.0244 223.091 80.1718 223.579 80.3418C224.066 80.5118 224.451 80.7611 224.735 81.0898C225.018 81.4184 225.16 81.8831 225.16 82.4838C225.171 83.0278 225.029 83.5094 224.735 83.9288C224.451 84.3481 224.049 84.6768 223.528 84.9148C223.006 85.1414 222.383 85.2548 221.658 85.2548ZM20.139 110.791V98.4828H21.958L22.179 99.7238C22.3603 99.4744 22.5757 99.2421 22.825 99.0268C23.0857 98.8001 23.3973 98.6188 23.76 98.4828C24.134 98.3468 24.559 98.2788 25.035 98.2788C25.8397 98.2788 26.548 98.4771 27.16 98.8738C27.7833 99.2704 28.2707 99.8088 28.622 100.489C28.9733 101.157 29.149 101.922 29.149 102.784C29.149 103.645 28.9677 104.416 28.605 105.096C28.2537 105.764 27.7663 106.291 27.143 106.677C26.531 107.062 25.8283 107.255 25.035 107.255C24.389 107.255 23.8223 107.136 23.335 106.898C22.859 106.648 22.4737 106.297 22.179 105.844V110.791H20.139ZM24.61 105.487C25.086 105.487 25.511 105.373 25.885 105.147C26.259 104.92 26.548 104.603 26.752 104.195C26.9673 103.787 27.075 103.316 27.075 102.784C27.075 102.24 26.9673 101.764 26.752 101.356C26.548 100.948 26.259 100.63 25.885 100.404C25.511 100.177 25.086 100.064 24.61 100.064C24.1227 100.064 23.692 100.177 23.318 100.404C22.9553 100.63 22.6663 100.948 22.451 101.356C22.247 101.764 22.145 102.234 22.145 102.767C22.145 103.311 22.247 103.787 22.451 104.195C22.6663 104.591 22.9553 104.909 23.318 105.147C23.692 105.373 24.1227 105.487 24.61 105.487ZM34.9712 107.255C34.1212 107.255 33.3732 107.073 32.7272 106.711C32.0812 106.337 31.5769 105.815 31.2142 105.147C30.8516 104.478 30.6702 103.707 30.6702 102.835C30.6702 101.928 30.8459 101.135 31.1972 100.455C31.5599 99.7748 32.0642 99.2421 32.7102 98.8568C33.3676 98.4714 34.1269 98.2788 34.9882 98.2788C35.8269 98.2788 36.5579 98.4658 37.1812 98.8398C37.8046 99.2138 38.2862 99.7181 38.6262 100.353C38.9662 100.976 39.1362 101.679 39.1362 102.461C39.1362 102.574 39.1362 102.699 39.1362 102.835C39.1362 102.971 39.1249 103.112 39.1022 103.26H32.1322V101.951H37.0792C37.0566 101.327 36.8469 100.84 36.4502 100.489C36.0536 100.126 35.5606 99.9448 34.9712 99.9448C34.5519 99.9448 34.1666 100.041 33.8152 100.234C33.4639 100.426 33.1862 100.715 32.9822 101.101C32.7782 101.475 32.6762 101.951 32.6762 102.529V103.022C32.6762 103.554 32.7726 104.013 32.9652 104.399C33.1692 104.784 33.4412 105.079 33.7812 105.283C34.1326 105.475 34.5236 105.572 34.9542 105.572C35.4302 105.572 35.8212 105.47 36.1272 105.266C36.4446 105.062 36.6769 104.79 36.8242 104.45H38.8982C38.7396 104.982 38.4789 105.464 38.1162 105.895C37.7536 106.314 37.3059 106.648 36.7732 106.898C36.2406 107.136 35.6399 107.255 34.9712 107.255ZM40.8498 107.051V98.4828H42.6688L42.8558 100.081C43.0598 99.7068 43.3148 99.3894 43.6208 99.1288C43.9268 98.8568 44.2838 98.6471 44.6918 98.4998C45.1111 98.3524 45.5701 98.2788 46.0688 98.2788V100.438H45.3548C45.0148 100.438 44.6918 100.483 44.3858 100.574C44.0798 100.653 43.8134 100.789 43.5868 100.982C43.3714 101.163 43.2014 101.418 43.0768 101.747C42.9521 102.064 42.8898 102.466 42.8898 102.954V107.051H40.8498ZM50.8536 107.255C50.0943 107.255 49.4313 107.136 48.8646 106.898C48.3093 106.648 47.8673 106.308 47.5386 105.878C47.2213 105.436 47.0343 104.931 46.9776 104.365H49.0176C49.0743 104.603 49.1763 104.824 49.3236 105.028C49.471 105.22 49.6693 105.373 49.9186 105.487C50.1793 105.6 50.4853 105.657 50.8366 105.657C51.1766 105.657 51.4543 105.611 51.6696 105.521C51.885 105.419 52.0436 105.288 52.1456 105.13C52.2476 104.971 52.2986 104.801 52.2986 104.62C52.2986 104.348 52.225 104.138 52.0776 103.991C51.9303 103.843 51.715 103.73 51.4316 103.651C51.1596 103.56 50.831 103.475 50.4456 103.396C50.0376 103.316 49.641 103.22 49.2556 103.107C48.8816 102.982 48.5416 102.829 48.2356 102.648C47.941 102.466 47.703 102.234 47.5216 101.951C47.3516 101.667 47.2666 101.322 47.2666 100.914C47.2666 100.415 47.397 99.9674 47.6576 99.5708C47.9296 99.1741 48.315 98.8624 48.8136 98.6358C49.3236 98.3978 49.93 98.2788 50.6326 98.2788C51.63 98.2788 52.4233 98.5111 53.0126 98.9758C53.6133 99.4291 53.9646 100.069 54.0666 100.897H52.1286C52.072 100.579 51.9133 100.336 51.6526 100.166C51.392 99.9844 51.0463 99.8938 50.6156 99.8938C50.1736 99.8938 49.8336 99.9788 49.5956 100.149C49.369 100.307 49.2556 100.523 49.2556 100.795C49.2556 100.965 49.3236 101.123 49.4596 101.271C49.607 101.407 49.8166 101.526 50.0886 101.628C50.3606 101.718 50.695 101.809 51.0916 101.9C51.7263 102.024 52.2873 102.172 52.7746 102.342C53.262 102.512 53.6473 102.761 53.9306 103.09C54.214 103.418 54.3556 103.883 54.3556 104.484C54.367 105.028 54.2253 105.509 53.9306 105.929C53.6473 106.348 53.245 106.677 52.7236 106.915C52.2023 107.141 51.579 107.255 50.8536 107.255ZM60.1601 107.255C59.3441 107.255 58.6074 107.068 57.9501 106.694C57.3041 106.308 56.7941 105.781 56.4201 105.113C56.0574 104.433 55.8761 103.656 55.8761 102.784C55.8761 101.888 56.0631 101.106 56.4371 100.438C56.8111 99.7578 57.3211 99.2308 57.9671 98.8568C58.6244 98.4714 59.3611 98.2788 60.1771 98.2788C60.9931 98.2788 61.7241 98.4714 62.3701 98.8568C63.0274 99.2308 63.5374 99.7521 63.9001 100.421C64.2741 101.089 64.4611 101.871 64.4611 102.767C64.4611 103.662 64.2741 104.444 63.9001 105.113C63.5261 105.781 63.0104 106.308 62.3531 106.694C61.7071 107.068 60.9761 107.255 60.1601 107.255ZM60.1601 105.504C60.5681 105.504 60.9364 105.402 61.2651 105.198C61.6051 104.994 61.8771 104.688 62.0811 104.28C62.2851 103.872 62.3871 103.367 62.3871 102.767C62.3871 102.166 62.2851 101.667 62.0811 101.271C61.8884 100.863 61.6221 100.557 61.2821 100.353C60.9534 100.149 60.5851 100.047 60.1771 100.047C59.7804 100.047 59.4121 100.149 59.0721 100.353C58.7321 100.557 58.4601 100.863 58.2561 101.271C58.0521 101.667 57.9501 102.166 57.9501 102.767C57.9501 103.367 58.0521 103.872 58.2561 104.28C58.4601 104.688 58.7264 104.994 59.0551 105.198C59.3951 105.402 59.7634 105.504 60.1601 105.504ZM66.288 107.051V98.4828H68.09L68.243 99.9108C68.5037 99.4121 68.8777 99.0154 69.365 98.7208C69.8524 98.4261 70.4304 98.2788 71.099 98.2788C71.7904 98.2788 72.3797 98.4261 72.867 98.7208C73.3544 99.0041 73.7284 99.4234 73.989 99.9788C74.261 100.534 74.397 101.225 74.397 102.053V107.051H72.357V102.24C72.357 101.526 72.1984 100.976 71.881 100.591C71.5637 100.205 71.0934 100.013 70.47 100.013C70.062 100.013 69.6937 100.109 69.365 100.302C69.0477 100.494 68.7927 100.778 68.6 101.152C68.4187 101.514 68.328 101.956 68.328 102.478V107.051H66.288ZM79.2338 107.255C78.5311 107.255 77.9475 107.136 77.4828 106.898C77.0181 106.66 76.6725 106.342 76.4458 105.946C76.2191 105.549 76.1058 105.118 76.1058 104.654C76.1058 104.11 76.2418 103.639 76.5138 103.243C76.7971 102.846 77.2108 102.54 77.7548 102.325C78.2988 102.098 78.9675 101.985 79.7608 101.985H81.9198C81.9198 101.531 81.8575 101.157 81.7328 100.863C81.6081 100.557 81.4155 100.33 81.1548 100.183C80.8941 100.035 80.5598 99.9618 80.1518 99.9618C79.6871 99.9618 79.2905 100.069 78.9618 100.285C78.6331 100.489 78.4291 100.806 78.3498 101.237H76.3438C76.4118 100.625 76.6158 100.103 76.9558 99.6728C77.2958 99.2308 77.7435 98.8908 78.2988 98.6528C78.8655 98.4034 79.4831 98.2788 80.1518 98.2788C80.9565 98.2788 81.6421 98.4204 82.2088 98.7038C82.7755 98.9758 83.2061 99.3724 83.5008 99.8938C83.8068 100.404 83.9598 101.021 83.9598 101.747V107.051H82.2258L82.0218 105.674C81.9085 105.9 81.7611 106.11 81.5798 106.303C81.4098 106.495 81.2115 106.665 80.9848 106.813C80.7581 106.949 80.4975 107.056 80.2028 107.136C79.9195 107.215 79.5965 107.255 79.2338 107.255ZM79.6928 105.64C80.0215 105.64 80.3105 105.583 80.5598 105.47C80.8205 105.345 81.0415 105.175 81.2228 104.96C81.4155 104.733 81.5628 104.484 81.6648 104.212C81.7668 103.94 81.8348 103.651 81.8688 103.345V103.311H79.9818C79.5851 103.311 79.2565 103.362 78.9958 103.464C78.7351 103.554 78.5481 103.69 78.4348 103.872C78.3215 104.053 78.2648 104.263 78.2648 104.501C78.2648 104.739 78.3215 104.943 78.4348 105.113C78.5481 105.283 78.7125 105.413 78.9278 105.504C79.1431 105.594 79.3981 105.64 79.6928 105.64ZM85.9695 107.051V94.8108H88.0095V107.051H85.9695ZM90.2009 107.051V98.4828H92.2409V107.051H90.2009ZM91.2209 97.1228C90.8469 97.1228 90.5352 97.0094 90.2859 96.7828C90.0479 96.5448 89.9289 96.2558 89.9289 95.9158C89.9289 95.5644 90.0479 95.2811 90.2859 95.0658C90.5352 94.8391 90.8469 94.7258 91.2209 94.7258C91.5949 94.7258 91.9009 94.8391 92.1389 95.0658C92.3882 95.2811 92.5129 95.5644 92.5129 95.9158C92.5129 96.2558 92.3882 96.5448 92.1389 96.7828C91.9009 97.0094 91.5949 97.1228 91.2209 97.1228ZM93.8673 107.051V105.402L98.3043 100.183H93.9353V98.4828H100.65V100.132L96.1623 105.368H100.735V107.051H93.8673ZM105.299 107.255C104.596 107.255 104.013 107.136 103.548 106.898C103.083 106.66 102.738 106.342 102.511 105.946C102.284 105.549 102.171 105.118 102.171 104.654C102.171 104.11 102.307 103.639 102.579 103.243C102.862 102.846 103.276 102.54 103.82 102.325C104.364 102.098 105.033 101.985 105.826 101.985H107.985C107.985 101.531 107.923 101.157 107.798 100.863C107.673 100.557 107.481 100.33 107.22 100.183C106.959 100.035 106.625 99.9618 106.217 99.9618C105.752 99.9618 105.356 100.069 105.027 100.285C104.698 100.489 104.494 100.806 104.415 101.237H102.409C102.477 100.625 102.681 100.103 103.021 99.6728C103.361 99.2308 103.809 98.8908 104.364 98.6528C104.931 98.4034 105.548 98.2788 106.217 98.2788C107.022 98.2788 107.707 98.4204 108.274 98.7038C108.841 98.9758 109.271 99.3724 109.566 99.8938C109.872 100.404 110.025 101.021 110.025 101.747V107.051H108.291L108.087 105.674C107.974 105.9 107.826 106.11 107.645 106.303C107.475 106.495 107.277 106.665 107.05 106.813C106.823 106.949 106.563 107.056 106.268 107.136C105.985 107.215 105.662 107.255 105.299 107.255ZM105.758 105.64C106.087 105.64 106.376 105.583 106.625 105.47C106.886 105.345 107.107 105.175 107.288 104.96C107.481 104.733 107.628 104.484 107.73 104.212C107.832 103.94 107.9 103.651 107.934 103.345V103.311H106.047C105.65 103.311 105.322 103.362 105.061 103.464C104.8 103.554 104.613 103.69 104.5 103.872C104.387 104.053 104.33 104.263 104.33 104.501C104.33 104.739 104.387 104.943 104.5 105.113C104.613 105.283 104.778 105.413 104.993 105.504C105.208 105.594 105.463 105.64 105.758 105.64ZM115.843 107.255C115.049 107.255 114.341 107.062 113.718 106.677C113.094 106.291 112.607 105.759 112.256 105.079C111.916 104.399 111.746 103.628 111.746 102.767C111.746 101.905 111.921 101.14 112.273 100.472C112.624 99.7918 113.111 99.2591 113.735 98.8738C114.369 98.4771 115.083 98.2788 115.877 98.2788C116.523 98.2788 117.084 98.4034 117.56 98.6528C118.047 98.8908 118.432 99.2308 118.716 99.6728V94.8108H120.756V107.051H118.92L118.716 105.81C118.534 106.059 118.313 106.297 118.053 106.524C117.792 106.739 117.48 106.915 117.118 107.051C116.755 107.187 116.33 107.255 115.843 107.255ZM116.268 105.487C116.755 105.487 117.186 105.373 117.56 105.147C117.934 104.909 118.223 104.586 118.427 104.178C118.631 103.77 118.733 103.299 118.733 102.767C118.733 102.234 118.631 101.764 118.427 101.356C118.223 100.948 117.934 100.63 117.56 100.404C117.186 100.177 116.755 100.064 116.268 100.064C115.803 100.064 115.384 100.177 115.01 100.404C114.636 100.63 114.341 100.948 114.126 101.356C113.922 101.764 113.82 102.234 113.82 102.767C113.82 103.299 113.922 103.77 114.126 104.178C114.341 104.586 114.636 104.909 115.01 105.147C115.384 105.373 115.803 105.487 116.268 105.487ZM126.85 107.255C126.034 107.255 125.297 107.068 124.64 106.694C123.994 106.308 123.484 105.781 123.11 105.113C122.747 104.433 122.566 103.656 122.566 102.784C122.566 101.888 122.753 101.106 123.127 100.438C123.501 99.7578 124.011 99.2308 124.657 98.8568C125.314 98.4714 126.051 98.2788 126.867 98.2788C127.683 98.2788 128.414 98.4714 129.06 98.8568C129.717 99.2308 130.227 99.7521 130.59 100.421C130.964 101.089 131.151 101.871 131.151 102.767C131.151 103.662 130.964 104.444 130.59 105.113C130.216 105.781 129.7 106.308 129.043 106.694C128.397 107.068 127.666 107.255 126.85 107.255ZM126.85 105.504C127.258 105.504 127.626 105.402 127.955 105.198C128.295 104.994 128.567 104.688 128.771 104.28C128.975 103.872 129.077 103.367 129.077 102.767C129.077 102.166 128.975 101.667 128.771 101.271C128.578 100.863 128.312 100.557 127.972 100.353C127.643 100.149 127.275 100.047 126.867 100.047C126.47 100.047 126.102 100.149 125.762 100.353C125.422 100.557 125.15 100.863 124.946 101.271C124.742 101.667 124.64 102.166 124.64 102.767C124.64 103.367 124.742 103.872 124.946 104.28C125.15 104.688 125.416 104.994 125.745 105.198C126.085 105.402 126.453 105.504 126.85 105.504ZM136.395 107.255C135.635 107.255 134.972 107.136 134.406 106.898C133.85 106.648 133.408 106.308 133.08 105.878C132.762 105.436 132.575 104.931 132.519 104.365H134.559C134.615 104.603 134.717 104.824 134.865 105.028C135.012 105.22 135.21 105.373 135.46 105.487C135.72 105.6 136.026 105.657 136.378 105.657C136.718 105.657 136.995 105.611 137.211 105.521C137.426 105.419 137.585 105.288 137.687 105.13C137.789 104.971 137.84 104.801 137.84 104.62C137.84 104.348 137.766 104.138 137.619 103.991C137.471 103.843 137.256 103.73 136.973 103.651C136.701 103.56 136.372 103.475 135.987 103.396C135.579 103.316 135.182 103.22 134.797 103.107C134.423 102.982 134.083 102.829 133.777 102.648C133.482 102.466 133.244 102.234 133.063 101.951C132.893 101.667 132.808 101.322 132.808 100.914C132.808 100.415 132.938 99.9674 133.199 99.5708C133.471 99.1741 133.856 98.8624 134.355 98.6358C134.865 98.3978 135.471 98.2788 136.174 98.2788C137.171 98.2788 137.964 98.5111 138.554 98.9758C139.154 99.4291 139.506 100.069 139.608 100.897H137.67C137.613 100.579 137.454 100.336 137.194 100.166C136.933 99.9844 136.587 99.8938 136.157 99.8938C135.715 99.8938 135.375 99.9788 135.137 100.149C134.91 100.307 134.797 100.523 134.797 100.795C134.797 100.965 134.865 101.123 135.001 101.271C135.148 101.407 135.358 101.526 135.63 101.628C135.902 101.718 136.236 101.809 136.633 101.9C137.267 102.024 137.828 102.172 138.316 102.342C138.803 102.512 139.188 102.761 139.472 103.09C139.755 103.418 139.897 103.883 139.897 104.484C139.908 105.028 139.766 105.509 139.472 105.929C139.188 106.348 138.786 106.677 138.265 106.915C137.743 107.141 137.12 107.255 136.395 107.255ZM152.368 110.791V105.81C152.096 106.218 151.722 106.563 151.246 106.847C150.781 107.119 150.209 107.255 149.529 107.255C148.724 107.255 148.01 107.062 147.387 106.677C146.763 106.28 146.276 105.747 145.925 105.079C145.573 104.399 145.398 103.628 145.398 102.767C145.398 101.905 145.573 101.14 145.925 100.472C146.276 99.7918 146.763 99.2591 147.387 98.8738C148.021 98.4771 148.735 98.2788 149.529 98.2788C149.971 98.2788 150.367 98.3411 150.719 98.4658C151.081 98.5791 151.399 98.7434 151.671 98.9588C151.943 99.1628 152.175 99.4064 152.368 99.6898L152.572 98.4828H154.408V110.791H152.368ZM149.92 105.487C150.407 105.487 150.838 105.373 151.212 105.147C151.586 104.909 151.875 104.586 152.079 104.178C152.283 103.77 152.385 103.299 152.385 102.767C152.385 102.223 152.283 101.752 152.079 101.356C151.875 100.948 151.586 100.63 151.212 100.404C150.838 100.177 150.407 100.064 149.92 100.064C149.455 100.064 149.036 100.177 148.662 100.404C148.288 100.63 147.993 100.948 147.778 101.356C147.574 101.764 147.472 102.234 147.472 102.767C147.472 103.299 147.574 103.77 147.778 104.178C147.993 104.586 148.288 104.909 148.662 105.147C149.036 105.373 149.455 105.487 149.92 105.487ZM159.686 107.255C158.995 107.255 158.4 107.119 157.901 106.847C157.414 106.563 157.04 106.144 156.779 105.589C156.518 105.022 156.388 104.325 156.388 103.498V98.4828H158.428V103.294C158.428 104.03 158.581 104.591 158.887 104.977C159.204 105.351 159.68 105.538 160.315 105.538C160.723 105.538 161.086 105.441 161.403 105.249C161.732 105.056 161.987 104.778 162.168 104.416C162.361 104.042 162.457 103.588 162.457 103.056V98.4828H164.497V107.051H162.695L162.542 105.623C162.281 106.121 161.902 106.518 161.403 106.813C160.916 107.107 160.343 107.255 159.686 107.255ZM170.609 107.255C169.759 107.255 169.011 107.073 168.365 106.711C167.719 106.337 167.214 105.815 166.852 105.147C166.489 104.478 166.308 103.707 166.308 102.835C166.308 101.928 166.483 101.135 166.835 100.455C167.197 99.7748 167.702 99.2421 168.348 98.8568C169.005 98.4714 169.764 98.2788 170.626 98.2788C171.464 98.2788 172.195 98.4658 172.819 98.8398C173.442 99.2138 173.924 99.7181 174.264 100.353C174.604 100.976 174.774 101.679 174.774 102.461C174.774 102.574 174.774 102.699 174.774 102.835C174.774 102.971 174.762 103.112 174.74 103.26H167.77V101.951H172.717C172.694 101.327 172.484 100.84 172.088 100.489C171.691 100.126 171.198 99.9448 170.609 99.9448C170.189 99.9448 169.804 100.041 169.453 100.234C169.101 100.426 168.824 100.715 168.62 101.101C168.416 101.475 168.314 101.951 168.314 102.529V103.022C168.314 103.554 168.41 104.013 168.603 104.399C168.807 104.784 169.079 105.079 169.419 105.283C169.77 105.475 170.161 105.572 170.592 105.572C171.068 105.572 171.459 105.47 171.765 105.266C172.082 105.062 172.314 104.79 172.462 104.45H174.536C174.377 104.982 174.116 105.464 173.754 105.895C173.391 106.314 172.943 106.648 172.411 106.898C171.878 107.136 171.277 107.255 170.609 107.255ZM180.553 107.051V98.4828H182.593V107.051H180.553ZM181.573 97.1228C181.199 97.1228 180.887 97.0094 180.638 96.7828C180.4 96.5448 180.281 96.2558 180.281 95.9158C180.281 95.5644 180.4 95.2811 180.638 95.0658C180.887 94.8391 181.199 94.7258 181.573 94.7258C181.947 94.7258 182.253 94.8391 182.491 95.0658C182.74 95.2811 182.865 95.5644 182.865 95.9158C182.865 96.2558 182.74 96.5448 182.491 96.7828C182.253 97.0094 181.947 97.1228 181.573 97.1228ZM184.78 107.051V98.4828H186.582L186.752 99.6558C187.024 99.2251 187.381 98.8908 187.823 98.6528C188.276 98.4034 188.792 98.2788 189.37 98.2788C189.801 98.2788 190.186 98.3354 190.526 98.4488C190.877 98.5621 191.183 98.7321 191.444 98.9588C191.716 99.1854 191.937 99.4688 192.107 99.8088C192.424 99.3328 192.838 98.9588 193.348 98.6868C193.858 98.4148 194.413 98.2788 195.014 98.2788C195.728 98.2788 196.334 98.4261 196.833 98.7208C197.332 99.0041 197.711 99.4291 197.972 99.9958C198.233 100.551 198.363 101.237 198.363 102.053V107.051H196.34V102.257C196.34 101.531 196.193 100.976 195.898 100.591C195.603 100.205 195.167 100.013 194.589 100.013C194.192 100.013 193.841 100.109 193.535 100.302C193.24 100.494 193.008 100.778 192.838 101.152C192.668 101.514 192.583 101.962 192.583 102.495V107.051H190.56V102.257C190.56 101.531 190.413 100.976 190.118 100.591C189.823 100.205 189.381 100.013 188.792 100.013C188.418 100.013 188.078 100.109 187.772 100.302C187.477 100.494 187.245 100.778 187.075 101.152C186.905 101.514 186.82 101.962 186.82 102.495V107.051H184.78ZM200.348 110.791V98.4828H202.167L202.388 99.7238C202.57 99.4744 202.785 99.2421 203.034 99.0268C203.295 98.8001 203.607 98.6188 203.969 98.4828C204.343 98.3468 204.768 98.2788 205.244 98.2788C206.049 98.2788 206.757 98.4771 207.369 98.8738C207.993 99.2704 208.48 99.8088 208.831 100.489C209.183 101.157 209.358 101.922 209.358 102.784C209.358 103.645 209.177 104.416 208.814 105.096C208.463 105.764 207.976 106.291 207.352 106.677C206.74 107.062 206.038 107.255 205.244 107.255C204.598 107.255 204.032 107.136 203.544 106.898C203.068 106.648 202.683 106.297 202.388 105.844V110.791H200.348ZM204.819 105.487C205.295 105.487 205.72 105.373 206.094 105.147C206.468 104.92 206.757 104.603 206.961 104.195C207.177 103.787 207.284 103.316 207.284 102.784C207.284 102.24 207.177 101.764 206.961 101.356C206.757 100.948 206.468 100.63 206.094 100.404C205.72 100.177 205.295 100.064 204.819 100.064C204.332 100.064 203.901 100.177 203.527 100.404C203.165 100.63 202.876 100.948 202.66 101.356C202.456 101.764 202.354 102.234 202.354 102.767C202.354 103.311 202.456 103.787 202.66 104.195C202.876 104.591 203.165 104.909 203.527 105.147C203.901 105.373 204.332 105.487 204.819 105.487ZM214.348 107.255C213.656 107.255 213.061 107.119 212.563 106.847C212.075 106.563 211.701 106.144 211.441 105.589C211.18 105.022 211.05 104.325 211.05 103.498V98.4828H213.09V103.294C213.09 104.03 213.243 104.591 213.549 104.977C213.866 105.351 214.342 105.538 214.977 105.538C215.385 105.538 215.747 105.441 216.065 105.249C216.393 105.056 216.648 104.778 216.83 104.416C217.022 104.042 217.119 103.588 217.119 103.056V98.4828H219.159V107.051H217.357L217.204 105.623C216.943 106.121 216.563 106.518 216.065 106.813C215.577 107.107 215.005 107.255 214.348 107.255ZM221.258 107.051V94.8108H223.298V107.051H221.258ZM228.822 107.255C228.062 107.255 227.399 107.136 226.833 106.898C226.277 106.648 225.835 106.308 225.507 105.878C225.189 105.436 225.002 104.931 224.946 104.365H226.986C227.042 104.603 227.144 104.824 227.292 105.028C227.439 105.22 227.637 105.373 227.887 105.487C228.147 105.6 228.453 105.657 228.805 105.657C229.145 105.657 229.422 105.611 229.638 105.521C229.853 105.419 230.012 105.288 230.114 105.13C230.216 104.971 230.267 104.801 230.267 104.62C230.267 104.348 230.193 104.138 230.046 103.991C229.898 103.843 229.683 103.73 229.4 103.651C229.128 103.56 228.799 103.475 228.414 103.396C228.006 103.316 227.609 103.22 227.224 103.107C226.85 102.982 226.51 102.829 226.204 102.648C225.909 102.466 225.671 102.234 225.49 101.951C225.32 101.667 225.235 101.322 225.235 100.914C225.235 100.415 225.365 99.9674 225.626 99.5708C225.898 99.1741 226.283 98.8624 226.782 98.6358C227.292 98.3978 227.898 98.2788 228.601 98.2788C229.598 98.2788 230.391 98.5111 230.981 98.9758C231.581 99.4291 231.933 100.069 232.035 100.897H230.097C230.04 100.579 229.881 100.336 229.621 100.166C229.36 99.9844 229.014 99.8938 228.584 99.8938C228.142 99.8938 227.802 99.9788 227.564 100.149C227.337 100.307 227.224 100.523 227.224 100.795C227.224 100.965 227.292 101.123 227.428 101.271C227.575 101.407 227.785 101.526 228.057 101.628C228.329 101.718 228.663 101.809 229.06 101.9C229.694 102.024 230.255 102.172 230.743 102.342C231.23 102.512 231.615 102.761 231.899 103.09C232.182 103.418 232.324 103.883 232.324 104.484C232.335 105.028 232.193 105.509 231.899 105.929C231.615 106.348 231.213 106.677 230.692 106.915C230.17 107.141 229.547 107.255 228.822 107.255ZM236.989 107.255C236.286 107.255 235.703 107.136 235.238 106.898C234.773 106.66 234.428 106.342 234.201 105.946C233.974 105.549 233.861 105.118 233.861 104.654C233.861 104.11 233.997 103.639 234.269 103.243C234.552 102.846 234.966 102.54 235.51 102.325C236.054 102.098 236.723 101.985 237.516 101.985H239.675C239.675 101.531 239.613 101.157 239.488 100.863C239.363 100.557 239.171 100.33 238.91 100.183C238.649 100.035 238.315 99.9618 237.907 99.9618C237.442 99.9618 237.046 100.069 236.717 100.285C236.388 100.489 236.184 100.806 236.105 101.237H234.099C234.167 100.625 234.371 100.103 234.711 99.6728C235.051 99.2308 235.499 98.8908 236.054 98.6528C236.621 98.4034 237.238 98.2788 237.907 98.2788C238.712 98.2788 239.397 98.4204 239.964 98.7038C240.531 98.9758 240.961 99.3724 241.256 99.8938C241.562 100.404 241.715 101.021 241.715 101.747V107.051H239.981L239.777 105.674C239.664 105.9 239.516 106.11 239.335 106.303C239.165 106.495 238.967 106.665 238.74 106.813C238.513 106.949 238.253 107.056 237.958 107.136C237.675 107.215 237.352 107.255 236.989 107.255ZM237.448 105.64C237.777 105.64 238.066 105.583 238.315 105.47C238.576 105.345 238.797 105.175 238.978 104.96C239.171 104.733 239.318 104.484 239.42 104.212C239.522 103.94 239.59 103.651 239.624 103.345V103.311H237.737C237.34 103.311 237.012 103.362 236.751 103.464C236.49 103.554 236.303 103.69 236.19 103.872C236.077 104.053 236.02 104.263 236.02 104.501C236.02 104.739 236.077 104.943 236.19 105.113C236.303 105.283 236.468 105.413 236.683 105.504C236.898 105.594 237.153 105.64 237.448 105.64ZM243.725 107.051V98.4828H245.527L245.68 99.9108C245.941 99.4121 246.315 99.0154 246.802 98.7208C247.289 98.4261 247.867 98.2788 248.536 98.2788C249.227 98.2788 249.817 98.4261 250.304 98.7208C250.791 99.0041 251.165 99.4234 251.426 99.9788C251.698 100.534 251.834 101.225 251.834 102.053V107.051H249.794V102.24C249.794 101.526 249.635 100.976 249.318 100.591C249.001 100.205 248.53 100.013 247.907 100.013C247.499 100.013 247.131 100.109 246.802 100.302C246.485 100.494 246.23 100.778 246.037 101.152C245.856 101.514 245.765 101.956 245.765 102.478V107.051H243.725ZM23.862 129.051C23.284 129.051 22.7797 128.96 22.349 128.779C21.9297 128.597 21.601 128.297 21.363 127.878C21.125 127.458 21.006 126.892 21.006 126.178V122.2H19.544V120.483H21.006L21.244 118.222H23.046V120.483H25.375V122.2H23.046V126.178C23.046 126.608 23.1367 126.909 23.318 127.079C23.5107 127.237 23.828 127.317 24.27 127.317H25.324V129.051H23.862ZM30.3033 129.255C29.6119 129.255 29.0169 129.119 28.5183 128.847C28.0309 128.563 27.6569 128.144 27.3963 127.589C27.1356 127.022 27.0053 126.325 27.0053 125.498V120.483H29.0453V125.294C29.0453 126.03 29.1983 126.591 29.5043 126.977C29.8216 127.351 30.2976 127.538 30.9323 127.538C31.3403 127.538 31.7029 127.441 32.0203 127.249C32.3489 127.056 32.6039 126.778 32.7853 126.416C32.9779 126.042 33.0743 125.588 33.0743 125.056V120.483H35.1143V129.051H33.3123L33.1593 127.623C32.8986 128.121 32.5189 128.518 32.0203 128.813C31.5329 129.107 30.9606 129.255 30.3033 129.255ZM41.1944 129.051V120.483H42.9964L43.1664 121.656C43.4384 121.225 43.7954 120.891 44.2374 120.653C44.6908 120.403 45.2064 120.279 45.7844 120.279C46.2151 120.279 46.6004 120.335 46.9404 120.449C47.2918 120.562 47.5978 120.732 47.8584 120.959C48.1304 121.185 48.3514 121.469 48.5214 121.809C48.8388 121.333 49.2524 120.959 49.7624 120.687C50.2724 120.415 50.8278 120.279 51.4284 120.279C52.1424 120.279 52.7488 120.426 53.2474 120.721C53.7461 121.004 54.1258 121.429 54.3864 121.996C54.6471 122.551 54.7774 123.237 54.7774 124.053V129.051H52.7544V124.257C52.7544 123.531 52.6071 122.976 52.3124 122.591C52.0178 122.205 51.5814 122.013 51.0034 122.013C50.6068 122.013 50.2554 122.109 49.9494 122.302C49.6548 122.494 49.4224 122.778 49.2524 123.152C49.0824 123.514 48.9974 123.962 48.9974 124.495V129.051H46.9744V124.257C46.9744 123.531 46.8271 122.976 46.5324 122.591C46.2378 122.205 45.7958 122.013 45.2064 122.013C44.8324 122.013 44.4924 122.109 44.1864 122.302C43.8918 122.494 43.6594 122.778 43.4894 123.152C43.3194 123.514 43.2344 123.962 43.2344 124.495V129.051H41.1944ZM59.6187 129.255C58.916 129.255 58.3324 129.136 57.8677 128.898C57.403 128.66 57.0574 128.342 56.8307 127.946C56.604 127.549 56.4907 127.118 56.4907 126.654C56.4907 126.11 56.6267 125.639 56.8987 125.243C57.182 124.846 57.5957 124.54 58.1397 124.325C58.6837 124.098 59.3524 123.985 60.1457 123.985H62.3047C62.3047 123.531 62.2424 123.157 62.1177 122.863C61.993 122.557 61.8004 122.33 61.5397 122.183C61.279 122.035 60.9447 121.962 60.5367 121.962C60.072 121.962 59.6754 122.069 59.3467 122.285C59.018 122.489 58.814 122.806 58.7347 123.237H56.7287C56.7967 122.625 57.0007 122.103 57.3407 121.673C57.6807 121.231 58.1284 120.891 58.6837 120.653C59.2504 120.403 59.868 120.279 60.5367 120.279C61.3414 120.279 62.027 120.42 62.5937 120.704C63.1604 120.976 63.591 121.372 63.8857 121.894C64.1917 122.404 64.3447 123.021 64.3447 123.747V129.051H62.6107L62.4067 127.674C62.2934 127.9 62.146 128.11 61.9647 128.303C61.7947 128.495 61.5964 128.665 61.3697 128.813C61.143 128.949 60.8824 129.056 60.5877 129.136C60.3044 129.215 59.9814 129.255 59.6187 129.255ZM60.0777 127.64C60.4064 127.64 60.6954 127.583 60.9447 127.47C61.2054 127.345 61.4264 127.175 61.6077 126.96C61.8004 126.733 61.9477 126.484 62.0497 126.212C62.1517 125.94 62.2197 125.651 62.2537 125.345V125.311H60.3667C59.97 125.311 59.6414 125.362 59.3807 125.464C59.12 125.554 58.933 125.69 58.8197 125.872C58.7064 126.053 58.6497 126.263 58.6497 126.501C58.6497 126.739 58.7064 126.943 58.8197 127.113C58.933 127.283 59.0974 127.413 59.3127 127.504C59.528 127.594 59.783 127.64 60.0777 127.64ZM66.3544 129.051V120.483H68.1734L68.3604 122.081C68.5644 121.707 68.8194 121.389 69.1254 121.129C69.4314 120.857 69.7884 120.647 70.1964 120.5C70.6158 120.352 71.0748 120.279 71.5734 120.279V122.438H70.8594C70.5194 122.438 70.1964 122.483 69.8904 122.574C69.5844 122.653 69.3181 122.789 69.0914 122.982C68.8761 123.163 68.7061 123.418 68.5814 123.747C68.4568 124.064 68.3944 124.466 68.3944 124.954V129.051H66.3544ZM76.8216 129.255C75.983 129.255 75.2293 129.068 74.5606 128.694C73.9033 128.308 73.3876 127.781 73.0136 127.113C72.651 126.433 72.4696 125.662 72.4696 124.801C72.4696 123.905 72.651 123.123 73.0136 122.455C73.3876 121.775 73.9033 121.242 74.5606 120.857C75.2293 120.471 75.9886 120.279 76.8386 120.279C77.904 120.279 78.7993 120.562 79.5246 121.129C80.25 121.684 80.7146 122.449 80.9186 123.424H78.7766C78.6633 122.993 78.4253 122.653 78.0626 122.404C77.7113 122.154 77.292 122.03 76.8046 122.03C76.3853 122.03 76 122.137 75.6486 122.353C75.3086 122.568 75.0366 122.88 74.8326 123.288C74.64 123.696 74.5436 124.189 74.5436 124.767C74.5436 125.209 74.6003 125.6 74.7136 125.94C74.827 126.28 74.9856 126.569 75.1896 126.807C75.405 127.033 75.6486 127.209 75.9206 127.334C76.1926 127.458 76.4873 127.521 76.8046 127.521C77.1333 127.521 77.428 127.47 77.6886 127.368C77.9606 127.254 78.1873 127.09 78.3686 126.875C78.5613 126.659 78.6973 126.404 78.7766 126.11H80.9186C80.7146 127.062 80.25 127.827 79.5246 128.405C78.7993 128.971 77.8983 129.255 76.8216 129.255ZM85.5716 129.255C84.8689 129.255 84.2853 129.136 83.8206 128.898C83.3559 128.66 83.0103 128.342 82.7836 127.946C82.5569 127.549 82.4436 127.118 82.4436 126.654C82.4436 126.11 82.5796 125.639 82.8516 125.243C83.1349 124.846 83.5486 124.54 84.0926 124.325C84.6366 124.098 85.3053 123.985 86.0986 123.985H88.2576C88.2576 123.531 88.1953 123.157 88.0706 122.863C87.9459 122.557 87.7533 122.33 87.4926 122.183C87.2319 122.035 86.8976 121.962 86.4896 121.962C86.0249 121.962 85.6283 122.069 85.2996 122.285C84.9709 122.489 84.7669 122.806 84.6876 123.237H82.6816C82.7496 122.625 82.9536 122.103 83.2936 121.673C83.6336 121.231 84.0813 120.891 84.6366 120.653C85.2033 120.403 85.8209 120.279 86.4896 120.279C87.2943 120.279 87.9799 120.42 88.5466 120.704C89.1133 120.976 89.5439 121.372 89.8386 121.894C90.1446 122.404 90.2976 123.021 90.2976 123.747V129.051H88.5636L88.3596 127.674C88.2463 127.9 88.0989 128.11 87.9176 128.303C87.7476 128.495 87.5493 128.665 87.3226 128.813C87.0959 128.949 86.8353 129.056 86.5406 129.136C86.2573 129.215 85.9343 129.255 85.5716 129.255ZM86.0306 127.64C86.3593 127.64 86.6483 127.583 86.8976 127.47C87.1583 127.345 87.3793 127.175 87.5606 126.96C87.7533 126.733 87.9006 126.484 88.0026 126.212C88.1046 125.94 88.1726 125.651 88.2066 125.345V125.311H86.3196C85.9229 125.311 85.5943 125.362 85.3336 125.464C85.0729 125.554 84.8859 125.69 84.7726 125.872C84.6593 126.053 84.6026 126.263 84.6026 126.501C84.6026 126.739 84.6593 126.943 84.7726 127.113C84.8859 127.283 85.0503 127.413 85.2656 127.504C85.4809 127.594 85.7359 127.64 86.0306 127.64ZM93.1913 129.136C92.806 129.136 92.4943 129.017 92.2563 128.779C92.0183 128.541 91.8993 128.257 91.8993 127.929C91.8993 127.577 92.0183 127.283 92.2563 127.045C92.4943 126.807 92.806 126.688 93.1913 126.688C93.5653 126.688 93.8713 126.807 94.1093 127.045C94.3473 127.283 94.4663 127.577 94.4663 127.929C94.4663 128.257 94.3473 128.541 94.1093 128.779C93.8713 129.017 93.5653 129.136 93.1913 129.136Z" fill="#767788"/>
<path d="M139 165.051C143.19 165.051 145.8 165.211 146.83 165.491C147.73 165.741 148.31 166.321 148.56 167.221C148.69 167.691 148.78 168.321 148.84 169.121C148.91 169.921 148.94 170.611 148.94 171.211L149 172.051C149 174.241 148.84 175.851 148.56 176.881C148.31 177.781 147.73 178.36 146.83 178.61C146.36 178.74 145.5 178.831 144.18 178.891C142.88 178.961 141.69 178.991 140.59 178.991L139 179.051C134.81 179.051 132.2 178.89 131.17 178.61C130.27 178.36 129.69 177.781 129.44 176.881C129.31 176.411 129.22 175.78 129.16 174.98C129.09 174.181 129.06 173.491 129.06 172.891L129 172.051C129 169.861 129.16 168.251 129.44 167.221C129.69 166.321 130.27 165.741 131.17 165.491C131.64 165.361 132.5 165.271 133.82 165.211C135.12 165.141 136.31 165.11 137.41 165.11L139 165.051ZM137 175.051L142.19 172.051L137 169.051V175.051Z" fill="#02A6A0"/>
<path d="M157 171.551C157 161.886 149.165 154.051 139.5 154.051C129.835 154.051 122 161.886 122 171.551C122 181.216 129.835 189.051 139.5 189.051V191.051C128.73 191.051 120 182.32 120 171.551C120 160.781 128.73 152.051 139.5 152.051C150.27 152.051 159 160.781 159 171.551C159 182.32 150.27 191.051 139.5 191.051V189.051C149.165 189.051 157 181.216 157 171.551Z" fill="#E5E6E9"/>
<path d="M39 161.091C44.4998 161.091 48.9997 165.581 49 171.11C49.0053 173.496 48.158 175.806 46.6104 177.621C45.0626 179.437 42.916 180.639 40.5596 181.011V174.011H42.8896L43.3398 171.11H40.5596V169.23C40.5597 168.441 40.9506 167.671 42.1904 167.671H43.4502V165.201C43.4502 165.201 42.3097 165.011 41.2197 165.011C38.93 165.011 37.4406 166.391 37.4404 168.9V171.11H34.9004V174.011H37.4404V181.011C32.6604 180.261 29 176.11 29 171.11C29.0003 165.581 33.5002 161.091 39 161.091Z" fill="#02A6A0"/>
<path d="M56 171.551C56 161.886 48.165 154.051 38.5 154.051C28.835 154.051 21 161.886 21 171.551C21 181.216 28.835 189.051 38.5 189.051V191.051C27.7304 191.051 19 182.32 19 171.551C19 160.781 27.7304 152.051 38.5 152.051C49.2696 152.051 58 160.781 58 171.551C58 182.32 49.2696 191.051 38.5 191.051V189.051C48.165 189.051 56 181.216 56 171.551Z" fill="#E5E6E9"/>
<path d="M96 162.051C96.5304 162.051 97.039 162.262 97.4141 162.637C97.7891 163.012 98 163.52 98 164.051V178.051C98 178.581 97.7891 179.09 97.4141 179.465C97.039 179.84 96.5304 180.051 96 180.051H82C81.4696 180.051 80.961 179.84 80.5859 179.465C80.2109 179.09 80 178.581 80 178.051V164.051C80 163.52 80.2109 163.012 80.5859 162.637C80.961 162.262 81.4696 162.051 82 162.051H96ZM82.5 177.551H85.2695V169.181H82.5V177.551ZM92.2402 168.991C91.3902 168.991 90.3999 169.511 89.9199 170.291V169.181H87.1299V177.551H89.9199V172.621C89.9199 171.851 90.5398 171.221 91.3096 171.221C91.6808 171.221 92.0373 171.368 92.2998 171.631C92.5624 171.893 92.71 172.25 92.71 172.621V177.551H95.5V172.251C95.5 171.386 95.1563 170.557 94.5449 169.945C93.9336 169.334 93.1046 168.991 92.2402 168.991ZM83.8799 164.241C83.4317 164.241 83.0015 164.418 82.6846 164.735C82.3677 165.052 82.1905 165.482 82.1904 165.931C82.1904 166.861 82.9499 167.61 83.8799 167.61C84.3254 167.61 84.7533 167.434 85.0684 167.119C85.3834 166.804 85.5596 166.376 85.5596 165.931C85.5595 165.001 84.8098 164.241 83.8799 164.241Z" fill="#02A6A0"/>
<path d="M106 170.551C106 160.886 98.165 153.051 88.5 153.051C78.835 153.051 71 160.886 71 170.551C71 180.216 78.835 188.051 88.5 188.051V190.051C77.7304 190.051 69 181.32 69 170.551C69 159.781 77.7304 151.051 88.5 151.051C99.2696 151.051 108 159.781 108 170.551C108 181.32 99.2696 190.051 88.5 190.051V188.051C98.165 188.051 106 180.216 106 170.551Z" fill="#E5E6E9"/>
<path d="M192.2 161.051C195.4 161.051 198 163.651 198 166.851V175.251C198 176.789 197.388 178.264 196.301 179.352C195.213 180.439 193.738 181.051 192.2 181.051H183.8C180.6 181.051 178 178.451 178 175.251V166.851C178 165.312 178.612 163.838 179.699 162.75C180.787 161.662 182.262 161.051 183.8 161.051H192.2ZM183.6 163.051C182.645 163.051 181.73 163.43 181.055 164.105C180.38 164.781 180 165.696 180 166.65V175.451C180 177.441 181.61 179.051 183.6 179.051H192.4C193.355 179.051 194.27 178.671 194.945 177.996C195.62 177.321 196 176.406 196 175.451V166.65C196 164.661 194.39 163.051 192.4 163.051H183.6ZM188 166.051C189.326 166.051 190.597 166.578 191.535 167.516C192.473 168.453 193 169.725 193 171.051C193 172.377 192.473 173.648 191.535 174.586C190.597 175.524 189.326 176.051 188 176.051C186.674 176.051 185.403 175.524 184.465 174.586C183.527 173.648 183 172.377 183 171.051C183 169.725 183.527 168.453 184.465 167.516C185.403 166.578 186.674 166.051 188 166.051ZM188 168.051C187.204 168.051 186.442 168.367 185.879 168.93C185.316 169.492 185 170.255 185 171.051C185 171.846 185.316 172.609 185.879 173.172C186.442 173.734 187.204 174.051 188 174.051C188.796 174.051 189.558 173.734 190.121 173.172C190.684 172.609 191 171.846 191 171.051C191 170.255 190.684 169.492 190.121 168.93C189.558 168.367 188.796 168.051 188 168.051ZM193.25 164.551C193.582 164.551 193.899 164.683 194.134 164.917C194.368 165.151 194.5 165.469 194.5 165.801C194.5 166.132 194.368 166.45 194.134 166.685C193.899 166.919 193.582 167.051 193.25 167.051C192.918 167.051 192.601 166.919 192.366 166.685C192.132 166.45 192 166.132 192 165.801C192 165.469 192.132 165.151 192.366 164.917C192.601 164.683 192.918 164.551 193.25 164.551Z" fill="#02A6A0"/>
<path d="M206 171.551C206 161.886 198.165 154.051 188.5 154.051C178.835 154.051 171 161.886 171 171.551C171 181.216 178.835 189.051 188.5 189.051V191.051C177.73 191.051 169 182.32 169 171.551C169 160.781 177.73 152.051 188.5 152.051C199.27 152.051 208 160.781 208 171.551C208 182.32 199.27 191.051 188.5 191.051V189.051C198.165 189.051 206 181.216 206 171.551Z" fill="#E5E6E9"/>
</svg>
