<svg width="151" height="171" viewBox="0 0 151 171" fill="none" xmlns="http://www.w3.org/2000/svg">
<path d="M27.362 65.168C26.382 65.168 25.5373 64.958 24.828 64.538C24.128 64.1087 23.5867 63.516 23.204 62.76C22.8307 61.9947 22.644 61.1127 22.644 60.114C22.644 59.1153 22.8307 58.2333 23.204 57.468C23.5867 56.7027 24.128 56.1053 24.828 55.676C25.5373 55.2467 26.382 55.032 27.362 55.032C28.5473 55.032 29.518 55.326 30.274 55.914C31.03 56.502 31.5013 57.3327 31.688 58.406H29.63C29.5087 57.8833 29.252 57.4773 28.86 57.188C28.4773 56.8893 27.9733 56.74 27.348 56.74C26.7693 56.74 26.27 56.88 25.85 57.16C25.4393 57.4307 25.122 57.818 24.898 58.322C24.674 58.8167 24.562 59.414 24.562 60.114C24.562 60.8047 24.674 61.402 24.898 61.906C25.122 62.41 25.4393 62.7973 25.85 63.068C26.27 63.3387 26.7693 63.474 27.348 63.474C27.9733 63.474 28.4773 63.3387 28.86 63.068C29.2427 62.788 29.4947 62.4007 29.616 61.906H31.688C31.5013 62.9233 31.03 63.7213 30.274 64.3C29.518 64.8787 28.5473 65.168 27.362 65.168ZM36.4519 65.168C35.7799 65.168 35.1733 65.014 34.6319 64.706C34.0999 64.3887 33.6753 63.9547 33.3579 63.404C33.0499 62.844 32.8959 62.2047 32.8959 61.486C32.8959 60.7487 33.0499 60.1047 33.3579 59.554C33.6753 58.994 34.1046 58.56 34.6459 58.252C35.1873 57.9347 35.7939 57.776 36.4659 57.776C37.1473 57.776 37.7539 57.9347 38.2859 58.252C38.8273 58.56 39.2519 58.994 39.5599 59.554C39.8773 60.1047 40.0359 60.744 40.0359 61.472C40.0359 62.2 39.8773 62.844 39.5599 63.404C39.2519 63.9547 38.8273 64.3887 38.2859 64.706C37.7446 65.014 37.1333 65.168 36.4519 65.168ZM36.4519 63.53C36.7693 63.53 37.0493 63.4553 37.2919 63.306C37.5439 63.1567 37.7399 62.928 37.8799 62.62C38.0293 62.312 38.1039 61.9293 38.1039 61.472C38.1039 61.0147 38.0293 60.6367 37.8799 60.338C37.7399 60.03 37.5439 59.8013 37.2919 59.652C37.0493 59.4933 36.7739 59.414 36.4659 59.414C36.1673 59.414 35.8919 59.4933 35.6399 59.652C35.3879 59.8013 35.1873 60.03 35.0379 60.338C34.8979 60.6367 34.8279 61.0147 34.8279 61.472C34.8279 61.9293 34.8979 62.312 35.0379 62.62C35.1873 62.928 35.3833 63.1567 35.6259 63.306C35.8779 63.4553 36.1533 63.53 36.4519 63.53ZM44.4294 65C43.9348 65 43.5008 64.9253 43.1274 64.776C42.7634 64.6173 42.4788 64.3607 42.2734 64.006C42.0681 63.642 41.9654 63.1473 41.9654 62.522V59.526H40.7614V57.944H41.9654L42.1754 56.026H43.8554V57.944H45.7174V59.526H43.8554V62.55C43.8554 62.8673 43.9254 63.0867 44.0654 63.208C44.2054 63.3293 44.4434 63.39 44.7794 63.39H45.7034V65H44.4294ZM47.2101 65V57.944H49.1001V65H47.2101ZM48.1621 56.978C47.8261 56.978 47.5461 56.88 47.3221 56.684C47.1074 56.4787 47.0001 56.222 47.0001 55.914C47.0001 55.606 47.1074 55.354 47.3221 55.158C47.5461 54.9527 47.8261 54.85 48.1621 54.85C48.5074 54.85 48.7874 54.9527 49.0021 55.158C49.2261 55.354 49.3381 55.606 49.3381 55.914C49.3381 56.222 49.2261 56.4787 49.0021 56.684C48.7874 56.88 48.5074 56.978 48.1621 56.978ZM50.4079 65V63.488L53.9639 59.512H50.4499V57.944H56.1339V59.47L52.5499 63.432H56.2039V65H50.4079ZM59.9731 65.168C59.3851 65.168 58.8998 65.0747 58.5171 64.888C58.1345 64.692 57.8498 64.4353 57.6631 64.118C57.4858 63.7913 57.3971 63.432 57.3971 63.04C57.3971 62.6107 57.5045 62.2327 57.7191 61.906C57.9431 61.5793 58.2745 61.3227 58.7131 61.136C59.1611 60.9493 59.7211 60.856 60.3931 60.856H62.1431C62.1431 60.5107 62.0965 60.226 62.0031 60.002C61.9098 59.7687 61.7651 59.596 61.5691 59.484C61.3731 59.372 61.1118 59.316 60.7851 59.316C60.4305 59.316 60.1271 59.3953 59.8751 59.554C59.6325 59.7033 59.4831 59.9367 59.4271 60.254H57.5931C57.6398 59.75 57.8031 59.316 58.0831 58.952C58.3725 58.5787 58.7505 58.2893 59.2171 58.084C59.6931 57.8787 60.2205 57.776 60.7991 57.776C61.4618 57.776 62.0358 57.888 62.5211 58.112C63.0065 58.336 63.3798 58.658 63.6411 59.078C63.9025 59.498 64.0331 60.016 64.0331 60.632V65H62.4371L62.2271 63.922C62.1245 64.1087 62.0031 64.2767 61.8631 64.426C61.7231 64.5753 61.5598 64.706 61.3731 64.818C61.1865 64.93 60.9765 65.014 60.7431 65.07C60.5098 65.1353 60.2531 65.168 59.9731 65.168ZM60.4211 63.712C60.6638 63.712 60.8785 63.67 61.0651 63.586C61.2611 63.4927 61.4291 63.3713 61.5691 63.222C61.7091 63.0633 61.8165 62.886 61.8911 62.69C61.9751 62.4847 62.0311 62.2653 62.0591 62.032V62.018H60.6171C60.3278 62.018 60.0898 62.0553 59.9031 62.13C59.7258 62.1953 59.5951 62.2933 59.5111 62.424C59.4271 62.5547 59.3851 62.704 59.3851 62.872C59.3851 63.0587 59.4271 63.2127 59.5111 63.334C59.5951 63.4553 59.7165 63.5487 59.8751 63.614C60.0338 63.6793 60.2158 63.712 60.4211 63.712ZM68.7923 65.168C68.1483 65.168 67.5696 65.0093 67.0563 64.692C66.5523 64.3747 66.1556 63.936 65.8663 63.376C65.5769 62.816 65.4323 62.186 65.4323 61.486C65.4323 60.7673 65.5769 60.1327 65.8663 59.582C66.1649 59.022 66.5709 58.5833 67.0843 58.266C67.6069 57.9393 68.1903 57.776 68.8343 57.776C69.3383 57.776 69.7816 57.8693 70.1643 58.056C70.5469 58.2427 70.8549 58.5087 71.0883 58.854V54.92H72.9783V65H71.2983L71.0883 64.034C70.9483 64.23 70.7709 64.4167 70.5563 64.594C70.3509 64.7713 70.1036 64.9113 69.8143 65.014C69.5249 65.1167 69.1843 65.168 68.7923 65.168ZM69.2403 63.516C69.6136 63.516 69.9403 63.432 70.2203 63.264C70.5096 63.0867 70.7336 62.844 70.8923 62.536C71.0509 62.228 71.1303 61.8733 71.1303 61.472C71.1303 61.0707 71.0509 60.716 70.8923 60.408C70.7336 60.1 70.5096 59.862 70.2203 59.694C69.9403 59.5167 69.6136 59.428 69.2403 59.428C68.8856 59.428 68.5636 59.5167 68.2743 59.694C67.9849 59.862 67.7563 60.1 67.5883 60.408C67.4296 60.716 67.3503 61.066 67.3503 61.458C67.3503 61.8687 67.4296 62.228 67.5883 62.536C67.7563 62.844 67.9803 63.0867 68.2603 63.264C68.5496 63.432 68.8763 63.516 69.2403 63.516ZM78.0221 65.168C77.3501 65.168 76.7434 65.014 76.2021 64.706C75.6701 64.3887 75.2454 63.9547 74.9281 63.404C74.6201 62.844 74.4661 62.2047 74.4661 61.486C74.4661 60.7487 74.6201 60.1047 74.9281 59.554C75.2454 58.994 75.6748 58.56 76.2161 58.252C76.7574 57.9347 77.3641 57.776 78.0361 57.776C78.7174 57.776 79.3241 57.9347 79.8561 58.252C80.3974 58.56 80.8221 58.994 81.1301 59.554C81.4474 60.1047 81.6061 60.744 81.6061 61.472C81.6061 62.2 81.4474 62.844 81.1301 63.404C80.8221 63.9547 80.3974 64.3887 79.8561 64.706C79.3148 65.014 78.7034 65.168 78.0221 65.168ZM78.0221 63.53C78.3394 63.53 78.6194 63.4553 78.8621 63.306C79.1141 63.1567 79.3101 62.928 79.4501 62.62C79.5994 62.312 79.6741 61.9293 79.6741 61.472C79.6741 61.0147 79.5994 60.6367 79.4501 60.338C79.3101 60.03 79.1141 59.8013 78.8621 59.652C78.6194 59.4933 78.3441 59.414 78.0361 59.414C77.7374 59.414 77.4621 59.4933 77.2101 59.652C76.9581 59.8013 76.7574 60.03 76.6081 60.338C76.4681 60.6367 76.3981 61.0147 76.3981 61.472C76.3981 61.9293 76.4681 62.312 76.6081 62.62C76.7574 62.928 76.9534 63.1567 77.1961 63.306C77.4481 63.4553 77.7234 63.53 78.0221 63.53ZM83.095 65V57.944H84.775L84.957 59.246C85.125 58.938 85.335 58.6767 85.587 58.462C85.8484 58.2473 86.1424 58.0793 86.469 57.958C86.805 57.8367 87.1737 57.776 87.575 57.776V59.778H86.931C86.651 59.778 86.3897 59.8107 86.147 59.876C85.9137 59.9413 85.7084 60.0487 85.531 60.198C85.3537 60.338 85.2184 60.534 85.125 60.786C85.0317 61.038 84.985 61.3553 84.985 61.738V65H83.095Z" fill="#737886"/>
<path d="M22.966 133V123.2H25.22L28.216 129.318L31.184 123.2H33.438V133H31.548V126.42L28.958 131.628H27.46L24.856 126.42V133H22.966ZM37.5644 133.168C36.9764 133.168 36.4911 133.075 36.1084 132.888C35.7257 132.692 35.4411 132.435 35.2544 132.118C35.0771 131.791 34.9884 131.432 34.9884 131.04C34.9884 130.611 35.0957 130.233 35.3104 129.906C35.5344 129.579 35.8657 129.323 36.3044 129.136C36.7524 128.949 37.3124 128.856 37.9844 128.856H39.7344C39.7344 128.511 39.6877 128.226 39.5944 128.002C39.5011 127.769 39.3564 127.596 39.1604 127.484C38.9644 127.372 38.7031 127.316 38.3764 127.316C38.0217 127.316 37.7184 127.395 37.4664 127.554C37.2237 127.703 37.0744 127.937 37.0184 128.254H35.1844C35.2311 127.75 35.3944 127.316 35.6744 126.952C35.9637 126.579 36.3417 126.289 36.8084 126.084C37.2844 125.879 37.8117 125.776 38.3904 125.776C39.0531 125.776 39.6271 125.888 40.1124 126.112C40.5977 126.336 40.9711 126.658 41.2324 127.078C41.4937 127.498 41.6244 128.016 41.6244 128.632V133H40.0284L39.8184 131.922C39.7157 132.109 39.5944 132.277 39.4544 132.426C39.3144 132.575 39.1511 132.706 38.9644 132.818C38.7777 132.93 38.5677 133.014 38.3344 133.07C38.1011 133.135 37.8444 133.168 37.5644 133.168ZM38.0124 131.712C38.2551 131.712 38.4697 131.67 38.6564 131.586C38.8524 131.493 39.0204 131.371 39.1604 131.222C39.3004 131.063 39.4077 130.886 39.4824 130.69C39.5664 130.485 39.6224 130.265 39.6504 130.032V130.018H38.2084C37.9191 130.018 37.6811 130.055 37.4944 130.13C37.3171 130.195 37.1864 130.293 37.1024 130.424C37.0184 130.555 36.9764 130.704 36.9764 130.872C36.9764 131.059 37.0184 131.213 37.1024 131.334C37.1864 131.455 37.3077 131.549 37.4664 131.614C37.6251 131.679 37.8071 131.712 38.0124 131.712ZM46.3435 133C45.8488 133 45.4148 132.925 45.0415 132.776C44.6775 132.617 44.3928 132.361 44.1875 132.006C43.9822 131.642 43.8795 131.147 43.8795 130.522V127.526H42.6755V125.944H43.8795L44.0895 124.026H45.7695V125.944H47.6315V127.526H45.7695V130.55C45.7695 130.867 45.8395 131.087 45.9795 131.208C46.1195 131.329 46.3575 131.39 46.6935 131.39H47.6175V133H46.3435ZM52.2924 133.168C51.5831 133.168 50.9531 133.019 50.4024 132.72C49.8611 132.412 49.4364 131.987 49.1284 131.446C48.8297 130.895 48.6804 130.261 48.6804 129.542C48.6804 128.805 48.8297 128.156 49.1284 127.596C49.4364 127.027 49.8611 126.583 50.4024 126.266C50.9437 125.939 51.5737 125.776 52.2924 125.776C52.9924 125.776 53.6037 125.93 54.1264 126.238C54.6491 126.546 55.0551 126.961 55.3444 127.484C55.6337 128.007 55.7784 128.599 55.7784 129.262C55.7784 129.355 55.7784 129.463 55.7784 129.584C55.7784 129.696 55.7691 129.813 55.7504 129.934H50.0244V128.786H53.8744C53.8464 128.329 53.6831 127.969 53.3844 127.708C53.0951 127.447 52.7311 127.316 52.2924 127.316C51.9751 127.316 51.6811 127.391 51.4104 127.54C51.1397 127.68 50.9251 127.899 50.7664 128.198C50.6171 128.497 50.5424 128.875 50.5424 129.332V129.738C50.5424 130.121 50.6124 130.457 50.7524 130.746C50.9017 131.026 51.1071 131.245 51.3684 131.404C51.6297 131.553 51.9331 131.628 52.2784 131.628C52.6237 131.628 52.9084 131.553 53.1324 131.404C53.3657 131.255 53.5384 131.063 53.6504 130.83H55.5824C55.4517 131.269 55.2324 131.665 54.9244 132.02C54.6164 132.375 54.2384 132.655 53.7904 132.86C53.3424 133.065 52.8431 133.168 52.2924 133.168ZM57.1863 133V125.944H58.8663L59.0483 127.246C59.2163 126.938 59.4263 126.677 59.6783 126.462C59.9396 126.247 60.2336 126.079 60.5603 125.958C60.8963 125.837 61.2649 125.776 61.6663 125.776V127.778H61.0223C60.7423 127.778 60.4809 127.811 60.2383 127.876C60.0049 127.941 59.7996 128.049 59.6223 128.198C59.4449 128.338 59.3096 128.534 59.2163 128.786C59.1229 129.038 59.0763 129.355 59.0763 129.738V133H57.1863ZM62.8168 133V125.944H64.7068V133H62.8168ZM63.7688 124.978C63.4328 124.978 63.1528 124.88 62.9288 124.684C62.7141 124.479 62.6068 124.222 62.6068 123.914C62.6068 123.606 62.7141 123.354 62.9288 123.158C63.1528 122.953 63.4328 122.85 63.7688 122.85C64.1141 122.85 64.3941 122.953 64.6088 123.158C64.8328 123.354 64.9448 123.606 64.9448 123.914C64.9448 124.222 64.8328 124.479 64.6088 124.684C64.3941 124.88 64.1141 124.978 63.7688 124.978ZM68.8566 133.168C68.2686 133.168 67.7832 133.075 67.4006 132.888C67.0179 132.692 66.7332 132.435 66.5466 132.118C66.3692 131.791 66.2806 131.432 66.2806 131.04C66.2806 130.611 66.3879 130.233 66.6026 129.906C66.8266 129.579 67.1579 129.323 67.5966 129.136C68.0446 128.949 68.6046 128.856 69.2766 128.856H71.0266C71.0266 128.511 70.9799 128.226 70.8866 128.002C70.7932 127.769 70.6486 127.596 70.4526 127.484C70.2566 127.372 69.9952 127.316 69.6686 127.316C69.3139 127.316 69.0106 127.395 68.7586 127.554C68.5159 127.703 68.3666 127.937 68.3106 128.254H66.4766C66.5232 127.75 66.6866 127.316 66.9666 126.952C67.2559 126.579 67.6339 126.289 68.1006 126.084C68.5766 125.879 69.1039 125.776 69.6826 125.776C70.3452 125.776 70.9192 125.888 71.4046 126.112C71.8899 126.336 72.2632 126.658 72.5246 127.078C72.7859 127.498 72.9166 128.016 72.9166 128.632V133H71.3206L71.1106 131.922C71.0079 132.109 70.8866 132.277 70.7466 132.426C70.6066 132.575 70.4432 132.706 70.2566 132.818C70.0699 132.93 69.8599 133.014 69.6266 133.07C69.3932 133.135 69.1366 133.168 68.8566 133.168ZM69.3046 131.712C69.5472 131.712 69.7619 131.67 69.9486 131.586C70.1446 131.493 70.3126 131.371 70.4526 131.222C70.5926 131.063 70.6999 130.886 70.7746 130.69C70.8586 130.485 70.9146 130.265 70.9426 130.032V130.018H69.5006C69.2112 130.018 68.9732 130.055 68.7866 130.13C68.6092 130.195 68.4786 130.293 68.3946 130.424C68.3106 130.555 68.2686 130.704 68.2686 130.872C68.2686 131.059 68.3106 131.213 68.3946 131.334C68.4786 131.455 68.5999 131.549 68.7586 131.614C68.9172 131.679 69.0992 131.712 69.3046 131.712ZM74.5397 133V122.92H76.4297V133H74.5397ZM81.5201 133.168C80.8108 133.168 80.1808 133.019 79.6301 132.72C79.0888 132.412 78.6641 131.987 78.3561 131.446C78.0575 130.895 77.9081 130.261 77.9081 129.542C77.9081 128.805 78.0575 128.156 78.3561 127.596C78.6641 127.027 79.0888 126.583 79.6301 126.266C80.1715 125.939 80.8015 125.776 81.5201 125.776C82.2201 125.776 82.8315 125.93 83.3541 126.238C83.8768 126.546 84.2828 126.961 84.5721 127.484C84.8615 128.007 85.0061 128.599 85.0061 129.262C85.0061 129.355 85.0061 129.463 85.0061 129.584C85.0061 129.696 84.9968 129.813 84.9781 129.934H79.2521V128.786H83.1021C83.0741 128.329 82.9108 127.969 82.6121 127.708C82.3228 127.447 81.9588 127.316 81.5201 127.316C81.2028 127.316 80.9088 127.391 80.6381 127.54C80.3675 127.68 80.1528 127.899 79.9941 128.198C79.8448 128.497 79.7701 128.875 79.7701 129.332V129.738C79.7701 130.121 79.8401 130.457 79.9801 130.746C80.1295 131.026 80.3348 131.245 80.5961 131.404C80.8575 131.553 81.1608 131.628 81.5061 131.628C81.8515 131.628 82.1361 131.553 82.3601 131.404C82.5935 131.255 82.7661 131.063 82.8781 130.83H84.8101C84.6795 131.269 84.4601 131.665 84.1521 132.02C83.8441 132.375 83.4661 132.655 83.0181 132.86C82.5701 133.065 82.0708 133.168 81.5201 133.168ZM89.298 133.168C88.654 133.168 88.094 133.065 87.618 132.86C87.142 132.655 86.7687 132.37 86.498 132.006C86.2273 131.642 86.0733 131.231 86.036 130.774H87.912C87.9587 130.951 88.038 131.115 88.15 131.264C88.262 131.404 88.4113 131.516 88.598 131.6C88.7847 131.684 89.0087 131.726 89.27 131.726C89.522 131.726 89.7273 131.693 89.886 131.628C90.0447 131.553 90.1613 131.455 90.236 131.334C90.32 131.213 90.362 131.087 90.362 130.956C90.362 130.76 90.306 130.611 90.194 130.508C90.082 130.396 89.9187 130.307 89.704 130.242C89.4893 130.177 89.228 130.111 88.92 130.046C88.584 129.981 88.2527 129.901 87.926 129.808C87.6087 129.705 87.324 129.579 87.072 129.43C86.82 129.281 86.6193 129.089 86.47 128.856C86.3207 128.623 86.246 128.333 86.246 127.988C86.246 127.568 86.358 127.195 86.582 126.868C86.806 126.532 87.1327 126.266 87.562 126.07C87.9913 125.874 88.5093 125.776 89.116 125.776C89.9653 125.776 90.6373 125.967 91.132 126.35C91.6267 126.733 91.9207 127.26 92.014 127.932H90.236C90.18 127.717 90.054 127.549 89.858 127.428C89.6713 127.297 89.4193 127.232 89.102 127.232C88.766 127.232 88.5093 127.293 88.332 127.414C88.1547 127.535 88.066 127.694 88.066 127.89C88.066 128.021 88.122 128.137 88.234 128.24C88.3553 128.343 88.5233 128.431 88.738 128.506C88.9527 128.571 89.214 128.637 89.522 128.702C90.0633 128.814 90.5393 128.945 90.95 129.094C91.3607 129.234 91.6827 129.439 91.916 129.71C92.1493 129.971 92.266 130.354 92.266 130.858C92.266 131.306 92.1447 131.707 91.902 132.062C91.6593 132.407 91.314 132.678 90.866 132.874C90.4273 133.07 89.9047 133.168 89.298 133.168Z" fill="#737886"/>
<path d="M27.362 167.168C26.382 167.168 25.5373 166.958 24.828 166.538C24.128 166.109 23.5867 165.516 23.204 164.76C22.8307 163.995 22.644 163.113 22.644 162.114C22.644 161.115 22.8307 160.233 23.204 159.468C23.5867 158.703 24.128 158.105 24.828 157.676C25.5373 157.247 26.382 157.032 27.362 157.032C28.5473 157.032 29.518 157.326 30.274 157.914C31.03 158.502 31.5013 159.333 31.688 160.406H29.63C29.5087 159.883 29.252 159.477 28.86 159.188C28.4773 158.889 27.9733 158.74 27.348 158.74C26.7693 158.74 26.27 158.88 25.85 159.16C25.4393 159.431 25.122 159.818 24.898 160.322C24.674 160.817 24.562 161.414 24.562 162.114C24.562 162.805 24.674 163.402 24.898 163.906C25.122 164.41 25.4393 164.797 25.85 165.068C26.27 165.339 26.7693 165.474 27.348 165.474C27.9733 165.474 28.4773 165.339 28.86 165.068C29.2427 164.788 29.4947 164.401 29.616 163.906H31.688C31.5013 164.923 31.03 165.721 30.274 166.3C29.518 166.879 28.5473 167.168 27.362 167.168ZM36.4519 167.168C35.7799 167.168 35.1733 167.014 34.6319 166.706C34.0999 166.389 33.6753 165.955 33.3579 165.404C33.0499 164.844 32.8959 164.205 32.8959 163.486C32.8959 162.749 33.0499 162.105 33.3579 161.554C33.6753 160.994 34.1046 160.56 34.6459 160.252C35.1873 159.935 35.7939 159.776 36.4659 159.776C37.1473 159.776 37.7539 159.935 38.2859 160.252C38.8273 160.56 39.2519 160.994 39.5599 161.554C39.8773 162.105 40.0359 162.744 40.0359 163.472C40.0359 164.2 39.8773 164.844 39.5599 165.404C39.2519 165.955 38.8273 166.389 38.2859 166.706C37.7446 167.014 37.1333 167.168 36.4519 167.168ZM36.4519 165.53C36.7693 165.53 37.0493 165.455 37.2919 165.306C37.5439 165.157 37.7399 164.928 37.8799 164.62C38.0293 164.312 38.1039 163.929 38.1039 163.472C38.1039 163.015 38.0293 162.637 37.8799 162.338C37.7399 162.03 37.5439 161.801 37.2919 161.652C37.0493 161.493 36.7739 161.414 36.4659 161.414C36.1673 161.414 35.8919 161.493 35.6399 161.652C35.3879 161.801 35.1873 162.03 35.0379 162.338C34.8979 162.637 34.8279 163.015 34.8279 163.472C34.8279 163.929 34.8979 164.312 35.0379 164.62C35.1873 164.928 35.3833 165.157 35.6259 165.306C35.8779 165.455 36.1533 165.53 36.4519 165.53ZM41.5249 167V159.944H43.1909L43.3309 161.092C43.5455 160.7 43.8489 160.383 44.2409 160.14C44.6422 159.897 45.1182 159.776 45.6689 159.776C46.2569 159.776 46.7515 159.897 47.1529 160.14C47.5542 160.383 47.8575 160.737 48.0629 161.204C48.2775 161.671 48.3849 162.245 48.3849 162.926V167H46.5089V163.108C46.5089 162.548 46.3875 162.119 46.1449 161.82C45.9115 161.521 45.5475 161.372 45.0529 161.372C44.7355 161.372 44.4509 161.447 44.1989 161.596C43.9562 161.745 43.7649 161.96 43.6249 162.24C43.4849 162.511 43.4149 162.842 43.4149 163.234V167H41.5249ZM52.9095 167.168C52.2655 167.168 51.7055 167.065 51.2295 166.86C50.7535 166.655 50.3802 166.37 50.1095 166.006C49.8388 165.642 49.6848 165.231 49.6475 164.774H51.5235C51.5702 164.951 51.6495 165.115 51.7615 165.264C51.8735 165.404 52.0228 165.516 52.2095 165.6C52.3962 165.684 52.6202 165.726 52.8815 165.726C53.1335 165.726 53.3388 165.693 53.4975 165.628C53.6562 165.553 53.7728 165.455 53.8475 165.334C53.9315 165.213 53.9735 165.087 53.9735 164.956C53.9735 164.76 53.9175 164.611 53.8055 164.508C53.6935 164.396 53.5302 164.307 53.3155 164.242C53.1008 164.177 52.8395 164.111 52.5315 164.046C52.1955 163.981 51.8642 163.901 51.5375 163.808C51.2202 163.705 50.9355 163.579 50.6835 163.43C50.4315 163.281 50.2308 163.089 50.0815 162.856C49.9322 162.623 49.8575 162.333 49.8575 161.988C49.8575 161.568 49.9695 161.195 50.1935 160.868C50.4175 160.532 50.7442 160.266 51.1735 160.07C51.6028 159.874 52.1208 159.776 52.7275 159.776C53.5768 159.776 54.2488 159.967 54.7435 160.35C55.2382 160.733 55.5322 161.26 55.6255 161.932H53.8475C53.7915 161.717 53.6655 161.549 53.4695 161.428C53.2828 161.297 53.0308 161.232 52.7135 161.232C52.3775 161.232 52.1208 161.293 51.9435 161.414C51.7662 161.535 51.6775 161.694 51.6775 161.89C51.6775 162.021 51.7335 162.137 51.8455 162.24C51.9668 162.343 52.1348 162.431 52.3495 162.506C52.5642 162.571 52.8255 162.637 53.1335 162.702C53.6748 162.814 54.1508 162.945 54.5615 163.094C54.9722 163.234 55.2942 163.439 55.5275 163.71C55.7608 163.971 55.8775 164.354 55.8775 164.858C55.8775 165.306 55.7562 165.707 55.5135 166.062C55.2708 166.407 54.9255 166.678 54.4775 166.874C54.0388 167.07 53.5162 167.168 52.9095 167.168ZM60.7247 167.168C60.0153 167.168 59.3853 167.019 58.8347 166.72C58.2933 166.412 57.8687 165.987 57.5607 165.446C57.262 164.895 57.1127 164.261 57.1127 163.542C57.1127 162.805 57.262 162.156 57.5607 161.596C57.8687 161.027 58.2933 160.583 58.8347 160.266C59.376 159.939 60.006 159.776 60.7247 159.776C61.4247 159.776 62.036 159.93 62.5587 160.238C63.0813 160.546 63.4873 160.961 63.7767 161.484C64.066 162.007 64.2107 162.599 64.2107 163.262C64.2107 163.355 64.2107 163.463 64.2107 163.584C64.2107 163.696 64.2013 163.813 64.1827 163.934H58.4567V162.786H62.3067C62.2787 162.329 62.1153 161.969 61.8167 161.708C61.5273 161.447 61.1633 161.316 60.7247 161.316C60.4073 161.316 60.1133 161.391 59.8427 161.54C59.572 161.68 59.3573 161.899 59.1987 162.198C59.0493 162.497 58.9747 162.875 58.9747 163.332V163.738C58.9747 164.121 59.0447 164.457 59.1847 164.746C59.334 165.026 59.5393 165.245 59.8007 165.404C60.062 165.553 60.3653 165.628 60.7107 165.628C61.056 165.628 61.3407 165.553 61.5647 165.404C61.798 165.255 61.9707 165.063 62.0827 164.83H64.0147C63.884 165.269 63.6647 165.665 63.3567 166.02C63.0487 166.375 62.6707 166.655 62.2227 166.86C61.7747 167.065 61.2753 167.168 60.7247 167.168ZM64.2885 170.08V168.47H64.8625C65.1612 168.47 65.3712 168.409 65.4925 168.288C65.6232 168.167 65.6885 167.971 65.6885 167.7V159.944H67.5785V167.686C67.5785 168.265 67.4759 168.727 67.2705 169.072C67.0745 169.427 66.7945 169.683 66.4305 169.842C66.0665 170.001 65.6372 170.08 65.1425 170.08H64.2885ZM66.6405 158.978C66.2952 158.978 66.0152 158.88 65.8005 158.684C65.5859 158.479 65.4785 158.222 65.4785 157.914C65.4785 157.606 65.5859 157.354 65.8005 157.158C66.0152 156.953 66.2952 156.85 66.6405 156.85C66.9859 156.85 67.2659 156.953 67.4805 157.158C67.6952 157.354 67.8025 157.606 67.8025 157.914C67.8025 158.222 67.6952 158.479 67.4805 158.684C67.2659 158.88 66.9859 158.978 66.6405 158.978ZM72.6523 167.168C71.9803 167.168 71.3737 167.014 70.8323 166.706C70.3003 166.389 69.8757 165.955 69.5583 165.404C69.2503 164.844 69.0963 164.205 69.0963 163.486C69.0963 162.749 69.2503 162.105 69.5583 161.554C69.8757 160.994 70.305 160.56 70.8463 160.252C71.3877 159.935 71.9943 159.776 72.6663 159.776C73.3477 159.776 73.9543 159.935 74.4863 160.252C75.0277 160.56 75.4523 160.994 75.7603 161.554C76.0777 162.105 76.2363 162.744 76.2363 163.472C76.2363 164.2 76.0777 164.844 75.7603 165.404C75.4523 165.955 75.0277 166.389 74.4863 166.706C73.945 167.014 73.3337 167.168 72.6523 167.168ZM72.6523 165.53C72.9697 165.53 73.2497 165.455 73.4923 165.306C73.7443 165.157 73.9403 164.928 74.0803 164.62C74.2297 164.312 74.3043 163.929 74.3043 163.472C74.3043 163.015 74.2297 162.637 74.0803 162.338C73.9403 162.03 73.7443 161.801 73.4923 161.652C73.2497 161.493 72.9743 161.414 72.6663 161.414C72.3677 161.414 72.0923 161.493 71.8403 161.652C71.5883 161.801 71.3877 162.03 71.2383 162.338C71.0983 162.637 71.0283 163.015 71.0283 163.472C71.0283 163.929 71.0983 164.312 71.2383 164.62C71.3877 164.928 71.5837 165.157 71.8263 165.306C72.0783 165.455 72.3537 165.53 72.6523 165.53ZM80.6093 167.168C79.9653 167.168 79.4053 167.065 78.9293 166.86C78.4533 166.655 78.0799 166.37 77.8093 166.006C77.5386 165.642 77.3846 165.231 77.3473 164.774H79.2233C79.2699 164.951 79.3493 165.115 79.4613 165.264C79.5733 165.404 79.7226 165.516 79.9093 165.6C80.0959 165.684 80.3199 165.726 80.5813 165.726C80.8333 165.726 81.0386 165.693 81.1973 165.628C81.3559 165.553 81.4726 165.455 81.5473 165.334C81.6313 165.213 81.6733 165.087 81.6733 164.956C81.6733 164.76 81.6173 164.611 81.5053 164.508C81.3933 164.396 81.2299 164.307 81.0153 164.242C80.8006 164.177 80.5393 164.111 80.2313 164.046C79.8953 163.981 79.5639 163.901 79.2373 163.808C78.9199 163.705 78.6353 163.579 78.3833 163.43C78.1313 163.281 77.9306 163.089 77.7813 162.856C77.6319 162.623 77.5573 162.333 77.5573 161.988C77.5573 161.568 77.6693 161.195 77.8933 160.868C78.1173 160.532 78.4439 160.266 78.8733 160.07C79.3026 159.874 79.8206 159.776 80.4273 159.776C81.2766 159.776 81.9486 159.967 82.4433 160.35C82.9379 160.733 83.2319 161.26 83.3253 161.932H81.5473C81.4913 161.717 81.3653 161.549 81.1693 161.428C80.9826 161.297 80.7306 161.232 80.4133 161.232C80.0773 161.232 79.8206 161.293 79.6433 161.414C79.4659 161.535 79.3773 161.694 79.3773 161.89C79.3773 162.021 79.4333 162.137 79.5453 162.24C79.6666 162.343 79.8346 162.431 80.0493 162.506C80.2639 162.571 80.5253 162.637 80.8333 162.702C81.3746 162.814 81.8506 162.945 82.2613 163.094C82.6719 163.234 82.9939 163.439 83.2273 163.71C83.4606 163.971 83.5773 164.354 83.5773 164.858C83.5773 165.306 83.4559 165.707 83.2133 166.062C82.9706 166.407 82.6253 166.678 82.1773 166.874C81.7386 167.07 81.2159 167.168 80.6093 167.168ZM91.3273 167.168C90.6833 167.168 90.1047 167.009 89.5913 166.692C89.0873 166.375 88.6907 165.936 88.4013 165.376C88.112 164.816 87.9673 164.186 87.9673 163.486C87.9673 162.767 88.112 162.133 88.4013 161.582C88.7 161.022 89.106 160.583 89.6193 160.266C90.142 159.939 90.7253 159.776 91.3693 159.776C91.8733 159.776 92.3167 159.869 92.6993 160.056C93.082 160.243 93.39 160.509 93.6233 160.854V156.92H95.5133V167H93.8333L93.6233 166.034C93.4833 166.23 93.306 166.417 93.0913 166.594C92.886 166.771 92.6387 166.911 92.3493 167.014C92.06 167.117 91.7193 167.168 91.3273 167.168ZM91.7753 165.516C92.1487 165.516 92.4753 165.432 92.7553 165.264C93.0447 165.087 93.2687 164.844 93.4273 164.536C93.586 164.228 93.6653 163.873 93.6653 163.472C93.6653 163.071 93.586 162.716 93.4273 162.408C93.2687 162.1 93.0447 161.862 92.7553 161.694C92.4753 161.517 92.1487 161.428 91.7753 161.428C91.4207 161.428 91.0987 161.517 90.8093 161.694C90.52 161.862 90.2913 162.1 90.1233 162.408C89.9647 162.716 89.8853 163.066 89.8853 163.458C89.8853 163.869 89.9647 164.228 90.1233 164.536C90.2913 164.844 90.5153 165.087 90.7953 165.264C91.0847 165.432 91.4113 165.516 91.7753 165.516ZM100.613 167.168C99.9038 167.168 99.2738 167.019 98.7232 166.72C98.1818 166.412 97.7572 165.987 97.4492 165.446C97.1505 164.895 97.0012 164.261 97.0012 163.542C97.0012 162.805 97.1505 162.156 97.4492 161.596C97.7572 161.027 98.1818 160.583 98.7232 160.266C99.2645 159.939 99.8945 159.776 100.613 159.776C101.313 159.776 101.925 159.93 102.447 160.238C102.97 160.546 103.376 160.961 103.665 161.484C103.955 162.007 104.099 162.599 104.099 163.262C104.099 163.355 104.099 163.463 104.099 163.584C104.099 163.696 104.09 163.813 104.071 163.934H98.3452V162.786H102.195C102.167 162.329 102.004 161.969 101.705 161.708C101.416 161.447 101.052 161.316 100.613 161.316C100.296 161.316 100.002 161.391 99.7312 161.54C99.4605 161.68 99.2458 161.899 99.0872 162.198C98.9378 162.497 98.8632 162.875 98.8632 163.332V163.738C98.8632 164.121 98.9332 164.457 99.0732 164.746C99.2225 165.026 99.4278 165.245 99.6892 165.404C99.9505 165.553 100.254 165.628 100.599 165.628C100.945 165.628 101.229 165.553 101.453 165.404C101.687 165.255 101.859 165.063 101.971 164.83H103.903C103.773 165.269 103.553 165.665 103.245 166.02C102.937 166.375 102.559 166.655 102.111 166.86C101.663 167.065 101.164 167.168 100.613 167.168ZM108.662 167V159.944H110.328L110.482 160.882C110.706 160.546 111 160.28 111.364 160.084C111.737 159.879 112.162 159.776 112.638 159.776C112.993 159.776 113.31 159.823 113.59 159.916C113.87 160.009 114.117 160.145 114.332 160.322C114.556 160.499 114.738 160.723 114.878 160.994C115.139 160.611 115.48 160.313 115.9 160.098C116.32 159.883 116.777 159.776 117.272 159.776C117.888 159.776 118.401 159.902 118.812 160.154C119.223 160.397 119.531 160.751 119.736 161.218C119.951 161.685 120.058 162.259 120.058 162.94V167H118.182V163.108C118.182 162.548 118.07 162.119 117.846 161.82C117.631 161.521 117.295 161.372 116.838 161.372C116.539 161.372 116.273 161.447 116.04 161.596C115.807 161.745 115.625 161.96 115.494 162.24C115.373 162.52 115.312 162.856 115.312 163.248V167H113.422V163.108C113.422 162.548 113.31 162.119 113.086 161.82C112.862 161.521 112.517 161.372 112.05 161.372C111.761 161.372 111.499 161.447 111.266 161.596C111.042 161.745 110.865 161.96 110.734 162.24C110.613 162.52 110.552 162.856 110.552 163.248V167H108.662ZM124.082 167.168C123.494 167.168 123.008 167.075 122.626 166.888C122.243 166.692 121.958 166.435 121.772 166.118C121.594 165.791 121.506 165.432 121.506 165.04C121.506 164.611 121.613 164.233 121.828 163.906C122.052 163.579 122.383 163.323 122.822 163.136C123.27 162.949 123.83 162.856 124.502 162.856H126.252C126.252 162.511 126.205 162.226 126.112 162.002C126.018 161.769 125.874 161.596 125.678 161.484C125.482 161.372 125.22 161.316 124.894 161.316C124.539 161.316 124.236 161.395 123.984 161.554C123.741 161.703 123.592 161.937 123.536 162.254H121.702C121.748 161.75 121.912 161.316 122.192 160.952C122.481 160.579 122.859 160.289 123.326 160.084C123.802 159.879 124.329 159.776 124.908 159.776C125.57 159.776 126.144 159.888 126.63 160.112C127.115 160.336 127.488 160.658 127.75 161.078C128.011 161.498 128.142 162.016 128.142 162.632V167H126.546L126.336 165.922C126.233 166.109 126.112 166.277 125.972 166.426C125.832 166.575 125.668 166.706 125.482 166.818C125.295 166.93 125.085 167.014 124.852 167.07C124.618 167.135 124.362 167.168 124.082 167.168ZM124.53 165.712C124.772 165.712 124.987 165.67 125.174 165.586C125.37 165.493 125.538 165.371 125.678 165.222C125.818 165.063 125.925 164.886 126 164.69C126.084 164.485 126.14 164.265 126.168 164.032V164.018H124.726C124.436 164.018 124.198 164.055 124.012 164.13C123.834 164.195 123.704 164.293 123.62 164.424C123.536 164.555 123.494 164.704 123.494 164.872C123.494 165.059 123.536 165.213 123.62 165.334C123.704 165.455 123.825 165.549 123.984 165.614C124.142 165.679 124.324 165.712 124.53 165.712ZM129.765 167V159.944H131.445L131.627 161.246C131.795 160.938 132.005 160.677 132.257 160.462C132.518 160.247 132.812 160.079 133.139 159.958C133.475 159.837 133.843 159.776 134.245 159.776V161.778H133.601C133.321 161.778 133.059 161.811 132.817 161.876C132.583 161.941 132.378 162.049 132.201 162.198C132.023 162.338 131.888 162.534 131.795 162.786C131.701 163.038 131.655 163.355 131.655 163.738V167H129.765ZM138.66 167.168C137.951 167.168 137.321 167.009 136.77 166.692C136.219 166.375 135.79 165.941 135.482 165.39C135.174 164.839 135.02 164.209 135.02 163.5C135.02 162.772 135.174 162.133 135.482 161.582C135.79 161.022 136.219 160.583 136.77 160.266C137.321 159.939 137.951 159.776 138.66 159.776C139.565 159.776 140.326 160.014 140.942 160.49C141.558 160.966 141.95 161.619 142.118 162.45H140.116C140.032 162.123 139.855 161.867 139.584 161.68C139.323 161.493 139.01 161.4 138.646 161.4C138.319 161.4 138.025 161.484 137.764 161.652C137.512 161.811 137.311 162.049 137.162 162.366C137.022 162.674 136.952 163.043 136.952 163.472C136.952 163.799 136.994 164.093 137.078 164.354C137.162 164.606 137.279 164.825 137.428 165.012C137.577 165.189 137.755 165.325 137.96 165.418C138.175 165.511 138.403 165.558 138.646 165.558C138.889 165.558 139.108 165.516 139.304 165.432C139.509 165.348 139.682 165.231 139.822 165.082C139.962 164.923 140.06 164.732 140.116 164.508H142.118C141.95 165.32 141.553 165.969 140.928 166.454C140.312 166.93 139.556 167.168 138.66 167.168ZM145.988 167.168C145.4 167.168 144.914 167.075 144.532 166.888C144.149 166.692 143.864 166.435 143.678 166.118C143.5 165.791 143.412 165.432 143.412 165.04C143.412 164.611 143.519 164.233 143.734 163.906C143.958 163.579 144.289 163.323 144.728 163.136C145.176 162.949 145.736 162.856 146.408 162.856H148.158C148.158 162.511 148.111 162.226 148.018 162.002C147.924 161.769 147.78 161.596 147.584 161.484C147.388 161.372 147.126 161.316 146.8 161.316C146.445 161.316 146.142 161.395 145.89 161.554C145.647 161.703 145.498 161.937 145.442 162.254H143.608C143.654 161.75 143.818 161.316 144.098 160.952C144.387 160.579 144.765 160.289 145.232 160.084C145.708 159.879 146.235 159.776 146.814 159.776C147.476 159.776 148.05 159.888 148.536 160.112C149.021 160.336 149.394 160.658 149.656 161.078C149.917 161.498 150.048 162.016 150.048 162.632V167H148.452L148.242 165.922C148.139 166.109 148.018 166.277 147.878 166.426C147.738 166.575 147.574 166.706 147.388 166.818C147.201 166.93 146.991 167.014 146.758 167.07C146.524 167.135 146.268 167.168 145.988 167.168ZM146.436 165.712C146.678 165.712 146.893 165.67 147.08 165.586C147.276 165.493 147.444 165.371 147.584 165.222C147.724 165.063 147.831 164.886 147.906 164.69C147.99 164.485 148.046 164.265 148.074 164.032V164.018H146.632C146.342 164.018 146.104 164.055 145.918 164.13C145.74 164.195 145.61 164.293 145.526 164.424C145.442 164.555 145.4 164.704 145.4 164.872C145.4 165.059 145.442 165.213 145.526 165.334C145.61 165.455 145.731 165.549 145.89 165.614C146.048 165.679 146.23 165.712 146.436 165.712Z" fill="#737886"/>
<path d="M22.966 99V89.2H26.634C27.4273 89.2 28.0853 89.3353 28.608 89.606C29.1307 89.8767 29.518 90.2407 29.77 90.698C30.022 91.1553 30.148 91.678 30.148 92.266C30.148 92.8073 30.0267 93.3067 29.784 93.764C29.5413 94.2213 29.1587 94.5947 28.636 94.884C28.1133 95.164 27.446 95.304 26.634 95.304H24.856V99H22.966ZM24.856 93.778H26.522C27.1287 93.778 27.5627 93.6427 27.824 93.372C28.0947 93.092 28.23 92.7233 28.23 92.266C28.23 91.7807 28.0947 91.4073 27.824 91.146C27.5627 90.8753 27.1287 90.74 26.522 90.74H24.856V93.778ZM31.3836 99V88.92H33.2736V99H31.3836ZM37.356 99.168C36.768 99.168 36.2827 99.0747 35.9 98.888C35.5174 98.692 35.2327 98.4353 35.046 98.118C34.8687 97.7913 34.78 97.432 34.78 97.04C34.78 96.6107 34.8874 96.2327 35.102 95.906C35.326 95.5793 35.6574 95.3227 36.096 95.136C36.544 94.9493 37.104 94.856 37.776 94.856H39.526C39.526 94.5107 39.4794 94.226 39.386 94.002C39.2927 93.7687 39.148 93.596 38.952 93.484C38.756 93.372 38.4947 93.316 38.168 93.316C37.8134 93.316 37.51 93.3953 37.258 93.554C37.0154 93.7033 36.866 93.9367 36.81 94.254H34.976C35.0227 93.75 35.186 93.316 35.466 92.952C35.7554 92.5787 36.1334 92.2893 36.6 92.084C37.076 91.8787 37.6034 91.776 38.182 91.776C38.8447 91.776 39.4187 91.888 39.904 92.112C40.3894 92.336 40.7627 92.658 41.024 93.078C41.2854 93.498 41.416 94.016 41.416 94.632V99H39.82L39.61 97.922C39.5074 98.1087 39.386 98.2767 39.246 98.426C39.106 98.5753 38.9427 98.706 38.756 98.818C38.5694 98.93 38.3594 99.014 38.126 99.07C37.8927 99.1353 37.636 99.168 37.356 99.168ZM37.804 97.712C38.0467 97.712 38.2614 97.67 38.448 97.586C38.644 97.4927 38.812 97.3713 38.952 97.222C39.092 97.0633 39.1994 96.886 39.274 96.69C39.358 96.4847 39.414 96.2653 39.442 96.032V96.018H38C37.7107 96.018 37.4727 96.0553 37.286 96.13C37.1087 96.1953 36.978 96.2933 36.894 96.424C36.81 96.5547 36.768 96.704 36.768 96.872C36.768 97.0587 36.81 97.2127 36.894 97.334C36.978 97.4553 37.0994 97.5487 37.258 97.614C37.4167 97.6793 37.5987 97.712 37.804 97.712ZM43.0392 99V91.944H44.7052L44.8452 93.092C45.0598 92.7 45.3632 92.3827 45.7552 92.14C46.1565 91.8973 46.6325 91.776 47.1832 91.776C47.7712 91.776 48.2658 91.8973 48.6672 92.14C49.0685 92.3827 49.3718 92.7373 49.5772 93.204C49.7918 93.6707 49.8992 94.2447 49.8992 94.926V99H48.0232V95.108C48.0232 94.548 47.9018 94.1187 47.6592 93.82C47.4258 93.5213 47.0618 93.372 46.5672 93.372C46.2498 93.372 45.9652 93.4467 45.7132 93.596C45.4705 93.7453 45.2792 93.96 45.1392 94.24C44.9992 94.5107 44.9292 94.842 44.9292 95.234V99H43.0392ZM54.7178 99C54.2231 99 53.7891 98.9253 53.4158 98.776C53.0518 98.6173 52.7671 98.3607 52.5618 98.006C52.3564 97.642 52.2538 97.1473 52.2538 96.522V93.526H51.0498V91.944H52.2538L52.4638 90.026H54.1438V91.944H56.0058V93.526H54.1438V96.55C54.1438 96.8673 54.2138 97.0867 54.3538 97.208C54.4938 97.3293 54.7318 97.39 55.0678 97.39H55.9918V99H54.7178ZM57.4984 99V91.944H59.3884V99H57.4984ZM58.4504 90.978C58.1144 90.978 57.8344 90.88 57.6104 90.684C57.3958 90.4787 57.2884 90.222 57.2884 89.914C57.2884 89.606 57.3958 89.354 57.6104 89.158C57.8344 88.9527 58.1144 88.85 58.4504 88.85C58.7958 88.85 59.0758 88.9527 59.2904 89.158C59.5144 89.354 59.6264 89.606 59.6264 89.914C59.6264 90.222 59.5144 90.4787 59.2904 90.684C59.0758 90.88 58.7958 90.978 58.4504 90.978ZM61.1582 99V88.92H63.0482V99H61.1582ZM64.7506 99V88.92H66.6406V99H64.7506ZM70.7231 99.168C70.1351 99.168 69.6497 99.0747 69.2671 98.888C68.8844 98.692 68.5997 98.4353 68.4131 98.118C68.2357 97.7913 68.1471 97.432 68.1471 97.04C68.1471 96.6107 68.2544 96.2327 68.4691 95.906C68.6931 95.5793 69.0244 95.3227 69.4631 95.136C69.9111 94.9493 70.4711 94.856 71.1431 94.856H72.8931C72.8931 94.5107 72.8464 94.226 72.7531 94.002C72.6597 93.7687 72.5151 93.596 72.3191 93.484C72.1231 93.372 71.8617 93.316 71.5351 93.316C71.1804 93.316 70.8771 93.3953 70.6251 93.554C70.3824 93.7033 70.2331 93.9367 70.1771 94.254H68.3431C68.3897 93.75 68.5531 93.316 68.8331 92.952C69.1224 92.5787 69.5004 92.2893 69.9671 92.084C70.4431 91.8787 70.9704 91.776 71.5491 91.776C72.2117 91.776 72.7857 91.888 73.2711 92.112C73.7564 92.336 74.1297 92.658 74.3911 93.078C74.6524 93.498 74.7831 94.016 74.7831 94.632V99H73.1871L72.9771 97.922C72.8744 98.1087 72.7531 98.2767 72.6131 98.426C72.4731 98.5753 72.3097 98.706 72.1231 98.818C71.9364 98.93 71.7264 99.014 71.4931 99.07C71.2597 99.1353 71.0031 99.168 70.7231 99.168ZM71.1711 97.712C71.4137 97.712 71.6284 97.67 71.8151 97.586C72.0111 97.4927 72.1791 97.3713 72.3191 97.222C72.4591 97.0633 72.5664 96.886 72.6411 96.69C72.7251 96.4847 72.7811 96.2653 72.8091 96.032V96.018H71.3671C71.0777 96.018 70.8397 96.0553 70.6531 96.13C70.4757 96.1953 70.3451 96.2933 70.2611 96.424C70.1771 96.5547 70.1351 96.704 70.1351 96.872C70.1351 97.0587 70.1771 97.2127 70.2611 97.334C70.3451 97.4553 70.4664 97.5487 70.6251 97.614C70.7837 97.6793 70.9657 97.712 71.1711 97.712ZM79.2902 99.168C78.6462 99.168 78.0862 99.0653 77.6102 98.86C77.1342 98.6547 76.7609 98.37 76.4902 98.006C76.2195 97.642 76.0655 97.2313 76.0282 96.774H77.9042C77.9509 96.9513 78.0302 97.1147 78.1422 97.264C78.2542 97.404 78.4035 97.516 78.5902 97.6C78.7769 97.684 79.0009 97.726 79.2622 97.726C79.5142 97.726 79.7195 97.6933 79.8782 97.628C80.0369 97.5533 80.1535 97.4553 80.2282 97.334C80.3122 97.2127 80.3542 97.0867 80.3542 96.956C80.3542 96.76 80.2982 96.6107 80.1862 96.508C80.0742 96.396 79.9109 96.3073 79.6962 96.242C79.4815 96.1767 79.2202 96.1113 78.9122 96.046C78.5762 95.9807 78.2449 95.9013 77.9182 95.808C77.6009 95.7053 77.3162 95.5793 77.0642 95.43C76.8122 95.2807 76.6115 95.0893 76.4622 94.856C76.3129 94.6227 76.2382 94.3333 76.2382 93.988C76.2382 93.568 76.3502 93.1947 76.5742 92.868C76.7982 92.532 77.1249 92.266 77.5542 92.07C77.9835 91.874 78.5015 91.776 79.1082 91.776C79.9575 91.776 80.6295 91.9673 81.1242 92.35C81.6189 92.7327 81.9129 93.26 82.0062 93.932H80.2282C80.1722 93.7173 80.0462 93.5493 79.8502 93.428C79.6635 93.2973 79.4115 93.232 79.0942 93.232C78.7582 93.232 78.5015 93.2927 78.3242 93.414C78.1469 93.5353 78.0582 93.694 78.0582 93.89C78.0582 94.0207 78.1142 94.1373 78.2262 94.24C78.3475 94.3427 78.5155 94.4313 78.7302 94.506C78.9449 94.5713 79.2062 94.6367 79.5142 94.702C80.0555 94.814 80.5315 94.9447 80.9422 95.094C81.3529 95.234 81.6749 95.4393 81.9082 95.71C82.1415 95.9713 82.2582 96.354 82.2582 96.858C82.2582 97.306 82.1369 97.7073 81.8942 98.062C81.6515 98.4073 81.3062 98.678 80.8582 98.874C80.4195 99.07 79.8969 99.168 79.2902 99.168Z" fill="#737886"/>
<path d="M7.0253 59.7004C7.02612 59.9629 6.91574 60.218 6.72104 60.4046L1.70701 65.1909C1.45544 65.4309 1.05808 65.4215 0.818512 65.1694C0.57894 64.9174 0.58833 64.5192 0.8399 64.2792L5.61778 59.7183L0.729759 55.6332C0.463209 55.4103 0.427166 55.0133 0.649649 54.7462C0.872132 54.4791 1.26838 54.443 1.53493 54.6659L6.67012 58.9575C6.88627 59.138 7.01566 59.3991 7.02521 59.6723C7.02524 59.682 7.02527 59.6907 7.0253 59.7004Z" fill="#00AAA4"/>
<path d="M0.324351 55.9383C-0.0749568 55.5291 -0.108963 54.876 0.264942 54.4267C0.663904 53.9478 1.37615 53.8817 1.85532 54.2821L6.99082 58.5737C7.3127 58.8425 7.5098 59.2358 7.52447 59.6551L7.52461 59.699C7.52586 60.1028 7.35719 60.4877 7.067 60.7659L7.06603 60.7668L2.05165 65.553C1.6003 65.9834 0.886082 65.9668 0.45582 65.5141C0.0266441 65.0625 0.0433374 64.348 0.494778 63.9173L4.86653 59.7434L0.408582 56.0171L0.324351 55.9383ZM0.649733 54.7468C0.42737 55.0139 0.463144 55.4104 0.72965 55.6333L5.61743 59.7186L0.839661 64.2795C0.588298 64.5194 0.578823 64.9171 0.818025 65.1692L0.914967 65.2529C1.15495 65.4202 1.48667 65.4008 1.70677 65.1908L6.72114 60.4046C6.91571 60.2181 7.02542 59.963 7.02461 59.7006L7.02452 59.6722L7.01541 59.5707C6.98615 59.3689 6.89261 59.1782 6.74712 59.0286L6.66975 58.9575L1.53425 54.6659C1.30107 54.4712 0.968686 54.4741 0.740272 54.6567L0.649733 54.7468Z" fill="#00AAA4"/>
<path d="M7.0253 93.7004C7.02612 93.9629 6.91574 94.218 6.72104 94.4046L1.70701 99.1909C1.45544 99.4309 1.05808 99.4215 0.818512 99.1694C0.57894 98.9174 0.58833 98.5192 0.8399 98.2792L5.61778 93.7183L0.729759 89.6332C0.463209 89.4103 0.427166 89.0133 0.649649 88.7462C0.872132 88.4791 1.26838 88.443 1.53493 88.6659L6.67012 92.9575C6.88627 93.138 7.01566 93.3991 7.02521 93.6723C7.02524 93.682 7.02527 93.6907 7.0253 93.7004Z" fill="#00AAA4"/>
<path d="M0.324351 89.9383C-0.0749568 89.5291 -0.108963 88.876 0.264942 88.4267C0.663904 87.9478 1.37615 87.8817 1.85532 88.2821L6.99082 92.5737C7.3127 92.8425 7.5098 93.2358 7.52447 93.6551L7.52461 93.699C7.52586 94.1028 7.35719 94.4877 7.067 94.7659L7.06603 94.7668L2.05165 99.553C1.6003 99.9834 0.886082 99.9668 0.45582 99.5141C0.0266441 99.0625 0.0433374 98.348 0.494778 97.9173L4.86653 93.7434L0.408582 90.0171L0.324351 89.9383ZM0.649733 88.7468C0.42737 89.0139 0.463144 89.4104 0.72965 89.6333L5.61743 93.7186L0.839661 98.2795C0.588298 98.5194 0.578823 98.9171 0.818025 99.1692L0.914967 99.2529C1.15495 99.4202 1.48667 99.4008 1.70677 99.1908L6.72114 94.4046C6.91571 94.2181 7.02542 93.963 7.02461 93.7006L7.02452 93.6722L7.01541 93.5707C6.98615 93.3689 6.89261 93.1782 6.74712 93.0286L6.66975 92.9575L1.53425 88.6659C1.30107 88.4712 0.968686 88.4741 0.740272 88.6567L0.649733 88.7468Z" fill="#00AAA4"/>
<path d="M7.0253 127.7C7.02612 127.963 6.91574 128.218 6.72104 128.405L1.70701 133.191C1.45544 133.431 1.05808 133.422 0.818512 133.169C0.57894 132.917 0.58833 132.519 0.8399 132.279L5.61778 127.718L0.729759 123.633C0.463209 123.41 0.427166 123.013 0.649649 122.746C0.872132 122.479 1.26838 122.443 1.53493 122.666L6.67012 126.958C6.88627 127.138 7.01566 127.399 7.02521 127.672C7.02524 127.682 7.02527 127.691 7.0253 127.7Z" fill="#00AAA4"/>
<path d="M0.324351 123.938C-0.0749568 123.529 -0.108963 122.876 0.264942 122.427C0.663904 121.948 1.37615 121.882 1.85532 122.282L6.99082 126.574C7.3127 126.843 7.5098 127.236 7.52447 127.655L7.52461 127.699C7.52586 128.103 7.35719 128.488 7.067 128.766L7.06603 128.767L2.05165 133.553C1.6003 133.983 0.886082 133.967 0.45582 133.514C0.0266441 133.062 0.0433374 132.348 0.494778 131.917L4.86653 127.743L0.408582 124.017L0.324351 123.938ZM0.649733 122.747C0.42737 123.014 0.463144 123.41 0.72965 123.633L5.61743 127.719L0.839661 132.279C0.588298 132.519 0.578823 132.917 0.818025 133.169L0.914967 133.253C1.15495 133.42 1.48667 133.401 1.70677 133.191L6.72114 128.405C6.91571 128.218 7.02542 127.963 7.02461 127.701L7.02452 127.672L7.01541 127.571C6.98615 127.369 6.89261 127.178 6.74712 127.029L6.66975 126.958L1.53425 122.666C1.30107 122.471 0.968686 122.474 0.740272 122.657L0.649733 122.747Z" fill="#00AAA4"/>
<path d="M7.0253 161.7C7.02612 161.963 6.91574 162.218 6.72104 162.405L1.70701 167.191C1.45544 167.431 1.05808 167.422 0.818512 167.169C0.57894 166.917 0.58833 166.519 0.8399 166.279L5.61778 161.718L0.729759 157.633C0.463209 157.41 0.427166 157.013 0.649649 156.746C0.872132 156.479 1.26838 156.443 1.53493 156.666L6.67012 160.958C6.88627 161.138 7.01566 161.399 7.02521 161.672C7.02524 161.682 7.02527 161.691 7.0253 161.7Z" fill="#00AAA4"/>
<path d="M0.324351 157.938C-0.0749568 157.529 -0.108963 156.876 0.264942 156.427C0.663904 155.948 1.37615 155.882 1.85532 156.282L6.99082 160.574C7.3127 160.843 7.5098 161.236 7.52447 161.655L7.52461 161.699C7.52586 162.103 7.35719 162.488 7.067 162.766L7.06603 162.767L2.05165 167.553C1.6003 167.983 0.886082 167.967 0.45582 167.514C0.0266441 167.062 0.0433374 166.348 0.494778 165.917L4.86653 161.743L0.408582 158.017L0.324351 157.938ZM0.649733 156.747C0.42737 157.014 0.463144 157.41 0.72965 157.633L5.61743 161.719L0.839661 166.279C0.588298 166.519 0.578823 166.917 0.818025 167.169L0.914967 167.253C1.15495 167.42 1.48667 167.401 1.70677 167.191L6.72114 162.405C6.91571 162.218 7.02542 161.963 7.02461 161.701L7.02452 161.672L7.01541 161.571C6.98615 161.369 6.89261 161.178 6.74712 161.029L6.66975 160.958L1.53425 156.666C1.30107 156.471 0.968686 156.474 0.740272 156.657L0.649733 156.747Z" fill="#00AAA4"/>
<path d="M1.173 17V5.1H5.61C6.57333 5.1 7.36667 5.26433 7.99 5.593C8.61333 5.92167 9.078 6.36367 9.384 6.919C9.69 7.463 9.843 8.06933 9.843 8.738C9.843 9.37267 9.69567 9.96767 9.401 10.523C9.10633 11.067 8.64167 11.509 8.007 11.849C7.38367 12.1777 6.579 12.342 5.593 12.342H3.468V17H1.173ZM7.344 17L4.896 11.764H7.378L9.962 17H7.344ZM3.468 10.676H5.474C6.16533 10.676 6.67533 10.506 7.004 10.166C7.33267 9.826 7.497 9.37833 7.497 8.823C7.497 8.26767 7.33267 7.83133 7.004 7.514C6.68667 7.18533 6.17667 7.021 5.474 7.021H3.468V10.676ZM15.276 17.204C14.4146 17.204 13.6496 17.0227 12.981 16.66C12.3236 16.286 11.808 15.7703 11.434 15.113C11.0713 14.4443 10.89 13.6737 10.89 12.801C10.89 11.9057 11.0713 11.118 11.434 10.438C11.808 9.74667 12.3236 9.20833 12.981 8.823C13.6383 8.42633 14.4033 8.228 15.276 8.228C16.126 8.228 16.8683 8.415 17.503 8.789C18.1376 9.163 18.6306 9.66733 18.982 10.302C19.3333 10.9367 19.509 11.6563 19.509 12.461C19.509 12.5743 19.509 12.7047 19.509 12.852C19.509 12.988 19.4976 13.1297 19.475 13.277H12.522V11.883H17.197C17.163 11.3277 16.9646 10.8913 16.602 10.574C16.2506 10.2567 15.8086 10.098 15.276 10.098C14.8906 10.098 14.5336 10.1887 14.205 10.37C13.8763 10.54 13.6156 10.8063 13.423 11.169C13.2416 11.5317 13.151 11.9907 13.151 12.546V13.039C13.151 13.5037 13.236 13.9117 13.406 14.263C13.5873 14.603 13.8366 14.8693 14.154 15.062C14.4713 15.2433 14.8396 15.334 15.259 15.334C15.6783 15.334 16.024 15.2433 16.296 15.062C16.5793 14.8807 16.789 14.6483 16.925 14.365H19.271C19.1123 14.8977 18.846 15.3793 18.472 15.81C18.098 16.2407 17.639 16.5807 17.095 16.83C16.551 17.0793 15.9446 17.204 15.276 17.204ZM25.3665 17.204C24.5052 17.204 23.7402 17.0113 23.0715 16.626C22.4029 16.2407 21.8815 15.7137 21.5075 15.045C21.1335 14.3763 20.9465 13.6113 20.9465 12.75C20.9465 11.866 21.1335 11.0897 21.5075 10.421C21.8815 9.741 22.4029 9.20833 23.0715 8.823C23.7402 8.42633 24.5052 8.228 25.3665 8.228C26.4659 8.228 27.3895 8.517 28.1375 9.095C28.8855 9.673 29.3615 10.4663 29.5655 11.475H27.1345C27.0325 11.0783 26.8172 10.7667 26.4885 10.54C26.1712 10.3133 25.7915 10.2 25.3495 10.2C24.9529 10.2 24.5959 10.302 24.2785 10.506C23.9725 10.6987 23.7289 10.9877 23.5475 11.373C23.3775 11.747 23.2925 12.1947 23.2925 12.716C23.2925 13.1127 23.3435 13.4697 23.4455 13.787C23.5475 14.093 23.6892 14.3593 23.8705 14.586C24.0519 14.8013 24.2672 14.9657 24.5165 15.079C24.7772 15.1923 25.0549 15.249 25.3495 15.249C25.6442 15.249 25.9105 15.198 26.1485 15.096C26.3979 14.994 26.6075 14.8523 26.7775 14.671C26.9475 14.4783 27.0665 14.246 27.1345 13.974H29.5655C29.3615 14.96 28.8799 15.7477 28.1205 16.337C27.3725 16.915 26.4545 17.204 25.3665 17.204ZM34.5707 17.204C33.8794 17.204 33.2844 17.0623 32.7857 16.779C32.2984 16.4843 31.9244 16.0593 31.6637 15.504C31.403 14.9373 31.2727 14.2403 31.2727 13.413V8.432H33.5677V13.175C33.5677 13.8663 33.7094 14.3877 33.9927 14.739C34.2874 15.0903 34.735 15.266 35.3357 15.266C35.721 15.266 36.061 15.181 36.3557 15.011C36.6504 14.8297 36.8827 14.5747 37.0527 14.246C37.234 13.906 37.3247 13.4923 37.3247 13.005V8.432H39.6027V17H37.5967L37.4097 15.606C37.1604 16.0933 36.792 16.4843 36.3047 16.779C35.8174 17.0623 35.2394 17.204 34.5707 17.204ZM41.6803 17V8.432H43.7203L43.9413 10.013C44.1453 9.639 44.4003 9.32167 44.7063 9.061C45.0236 8.80033 45.3806 8.59633 45.7773 8.449C46.1853 8.30167 46.6329 8.228 47.1203 8.228V10.659H46.3383C45.9983 10.659 45.6809 10.6987 45.3863 10.778C45.1029 10.8573 44.8536 10.9877 44.6383 11.169C44.4229 11.339 44.2586 11.577 44.1453 11.883C44.0319 12.189 43.9753 12.5743 43.9753 13.039V17H41.6803ZM51.9683 17.204C51.1863 17.204 50.5063 17.0793 49.9283 16.83C49.3503 16.5807 48.897 16.235 48.5683 15.793C48.2397 15.351 48.0527 14.8523 48.0073 14.297H50.2853C50.342 14.5123 50.4383 14.7107 50.5743 14.892C50.7103 15.062 50.8917 15.198 51.1183 15.3C51.345 15.402 51.617 15.453 51.9343 15.453C52.2403 15.453 52.4897 15.4133 52.6823 15.334C52.875 15.2433 53.0167 15.1243 53.1073 14.977C53.2093 14.8297 53.2603 14.6767 53.2603 14.518C53.2603 14.28 53.1923 14.0987 53.0563 13.974C52.9203 13.838 52.722 13.7303 52.4613 13.651C52.2007 13.5717 51.8833 13.4923 51.5093 13.413C51.1013 13.3337 50.699 13.2373 50.3023 13.124C49.917 12.9993 49.5713 12.8463 49.2653 12.665C48.9593 12.4837 48.7157 12.2513 48.5343 11.968C48.353 11.6847 48.2623 11.3333 48.2623 10.914C48.2623 10.404 48.3983 9.95067 48.6703 9.554C48.9423 9.146 49.339 8.823 49.8603 8.585C50.3817 8.347 51.0107 8.228 51.7473 8.228C52.7787 8.228 53.5947 8.46033 54.1953 8.925C54.796 9.38967 55.153 10.03 55.2663 10.846H53.1073C53.0393 10.5853 52.8863 10.3813 52.6483 10.234C52.4217 10.0753 52.1157 9.996 51.7303 9.996C51.3223 9.996 51.0107 10.0697 50.7953 10.217C50.58 10.3643 50.4723 10.557 50.4723 10.795C50.4723 10.9537 50.5403 11.0953 50.6763 11.22C50.8237 11.3447 51.0277 11.4523 51.2883 11.543C51.549 11.6223 51.8663 11.7017 52.2403 11.781C52.8977 11.917 53.4757 12.0757 53.9743 12.257C54.473 12.427 54.864 12.6763 55.1473 13.005C55.4307 13.3223 55.5723 13.787 55.5723 14.399C55.5723 14.943 55.425 15.4303 55.1303 15.861C54.8357 16.2803 54.4163 16.609 53.8723 16.847C53.3397 17.085 52.705 17.204 51.9683 17.204ZM61.3902 17.204C60.5742 17.204 59.8375 17.017 59.1802 16.643C58.5342 16.2577 58.0185 15.7307 57.6332 15.062C57.2592 14.382 57.0722 13.6057 57.0722 12.733C57.0722 11.8377 57.2592 11.0557 57.6332 10.387C58.0185 9.707 58.5399 9.18 59.1972 8.806C59.8545 8.42067 60.5912 8.228 61.4072 8.228C62.2345 8.228 62.9712 8.42067 63.6172 8.806C64.2745 9.18 64.7902 9.707 65.1642 10.387C65.5495 11.0557 65.7422 11.832 65.7422 12.716C65.7422 13.6 65.5495 14.382 65.1642 15.062C64.7902 15.7307 64.2745 16.2577 63.6172 16.643C62.9599 17.017 62.2175 17.204 61.3902 17.204ZM61.3902 15.215C61.7755 15.215 62.1155 15.1243 62.4102 14.943C62.7162 14.7617 62.9542 14.484 63.1242 14.11C63.3055 13.736 63.3962 13.2713 63.3962 12.716C63.3962 12.1607 63.3055 11.7017 63.1242 11.339C62.9542 10.965 62.7162 10.6873 62.4102 10.506C62.1155 10.3133 61.7812 10.217 61.4072 10.217C61.0445 10.217 60.7102 10.3133 60.4042 10.506C60.0982 10.6873 59.8545 10.965 59.6732 11.339C59.5032 11.7017 59.4182 12.1607 59.4182 12.716C59.4182 13.2713 59.5032 13.736 59.6732 14.11C59.8545 14.484 60.0925 14.7617 60.3872 14.943C60.6932 15.1243 61.0275 15.215 61.3902 15.215ZM71.0522 17.204C70.2702 17.204 69.5902 17.0793 69.0122 16.83C68.4342 16.5807 67.9808 16.235 67.6522 15.793C67.3235 15.351 67.1365 14.8523 67.0912 14.297H69.3692C69.4258 14.5123 69.5222 14.7107 69.6582 14.892C69.7942 15.062 69.9755 15.198 70.2022 15.3C70.4288 15.402 70.7008 15.453 71.0182 15.453C71.3242 15.453 71.5735 15.4133 71.7662 15.334C71.9588 15.2433 72.1005 15.1243 72.1912 14.977C72.2932 14.8297 72.3442 14.6767 72.3442 14.518C72.3442 14.28 72.2762 14.0987 72.1402 13.974C72.0042 13.838 71.8058 13.7303 71.5452 13.651C71.2845 13.5717 70.9672 13.4923 70.5932 13.413C70.1852 13.3337 69.7828 13.2373 69.3862 13.124C69.0008 12.9993 68.6552 12.8463 68.3492 12.665C68.0432 12.4837 67.7995 12.2513 67.6182 11.968C67.4368 11.6847 67.3462 11.3333 67.3462 10.914C67.3462 10.404 67.4822 9.95067 67.7542 9.554C68.0262 9.146 68.4228 8.823 68.9442 8.585C69.4655 8.347 70.0945 8.228 70.8312 8.228C71.8625 8.228 72.6785 8.46033 73.2792 8.925C73.8798 9.38967 74.2368 10.03 74.3502 10.846H72.1912C72.1232 10.5853 71.9702 10.3813 71.7322 10.234C71.5055 10.0753 71.1995 9.996 70.8142 9.996C70.4062 9.996 70.0945 10.0697 69.8792 10.217C69.6638 10.3643 69.5562 10.557 69.5562 10.795C69.5562 10.9537 69.6242 11.0953 69.7602 11.22C69.9075 11.3447 70.1115 11.4523 70.3722 11.543C70.6328 11.6223 70.9502 11.7017 71.3242 11.781C71.9815 11.917 72.5595 12.0757 73.0582 12.257C73.5568 12.427 73.9478 12.6763 74.2312 13.005C74.5145 13.3223 74.6562 13.787 74.6562 14.399C74.6562 14.943 74.5088 15.4303 74.2142 15.861C73.9195 16.2803 73.5002 16.609 72.9562 16.847C72.4235 17.085 71.7888 17.204 71.0522 17.204Z" fill="black"/>
<path d="M21 29C21.5523 29 22 29.4477 22 30C22 30.5523 21.5523 31 21 31H1C0.447715 31 0 30.5523 0 30C0 29.4477 0.447715 29 1 29H21Z" fill="#00AAA4"/>
</svg>
