<svg width="103" height="41" viewBox="0 0 103 41" fill="none" xmlns="http://www.w3.org/2000/svg">
<path d="M4.04661 9.108C3.41661 9.108 2.87361 8.973 2.41761 8.703C1.96761 8.427 1.61961 8.046 1.37361 7.56C1.13361 7.068 1.01361 6.501 1.01361 5.859C1.01361 5.217 1.13361 4.65 1.37361 4.158C1.61961 3.666 1.96761 3.282 2.41761 3.006C2.87361 2.73 3.41661 2.592 4.04661 2.592C4.80861 2.592 5.43261 2.781 5.91861 3.159C6.40461 3.537 6.70761 4.071 6.82761 4.761H5.50461C5.42661 4.425 5.26161 4.164 5.00961 3.978C4.76361 3.786 4.43961 3.69 4.03761 3.69C3.66561 3.69 3.34461 3.78 3.07461 3.96C2.81061 4.134 2.60661 4.383 2.46261 4.707C2.31861 5.025 2.24661 5.409 2.24661 5.859C2.24661 6.303 2.31861 6.687 2.46261 7.011C2.60661 7.335 2.81061 7.584 3.07461 7.758C3.34461 7.932 3.66561 8.019 4.03761 8.019C4.43961 8.019 4.76361 7.932 5.00961 7.758C5.25561 7.578 5.41761 7.329 5.49561 7.011H6.82761C6.70761 7.665 6.40461 8.178 5.91861 8.55C5.43261 8.922 4.80861 9.108 4.04661 9.108ZM9.89014 9.108C9.45814 9.108 9.06814 9.009 8.72014 8.811C8.37814 8.607 8.10514 8.328 7.90114 7.974C7.70314 7.614 7.60414 7.203 7.60414 6.741C7.60414 6.267 7.70314 5.853 7.90114 5.499C8.10514 5.139 8.38114 4.86 8.72914 4.662C9.07714 4.458 9.46714 4.356 9.89914 4.356C10.3371 4.356 10.7271 4.458 11.0691 4.662C11.4171 4.86 11.6901 5.139 11.8881 5.499C12.0921 5.853 12.1941 6.264 12.1941 6.732C12.1941 7.2 12.0921 7.614 11.8881 7.974C11.6901 8.328 11.4171 8.607 11.0691 8.811C10.7211 9.009 10.3281 9.108 9.89014 9.108ZM9.89014 8.055C10.0941 8.055 10.2741 8.007 10.4301 7.911C10.5921 7.815 10.7181 7.668 10.8081 7.47C10.9041 7.272 10.9521 7.026 10.9521 6.732C10.9521 6.438 10.9041 6.195 10.8081 6.003C10.7181 5.805 10.5921 5.658 10.4301 5.562C10.2741 5.46 10.0971 5.409 9.89914 5.409C9.70714 5.409 9.53014 5.46 9.36814 5.562C9.20614 5.658 9.07714 5.805 8.98114 6.003C8.89114 6.195 8.84614 6.438 8.84614 6.732C8.84614 7.026 8.89114 7.272 8.98114 7.47C9.07714 7.668 9.20314 7.815 9.35914 7.911C9.52114 8.007 9.69814 8.055 9.89014 8.055ZM13.1513 9V2.52H14.3663V9H13.1513ZM17.6027 9.108C17.1707 9.108 16.7807 9.009 16.4327 8.811C16.0907 8.607 15.8177 8.328 15.6137 7.974C15.4157 7.614 15.3167 7.203 15.3167 6.741C15.3167 6.267 15.4157 5.853 15.6137 5.499C15.8177 5.139 16.0937 4.86 16.4417 4.662C16.7897 4.458 17.1797 4.356 17.6117 4.356C18.0497 4.356 18.4397 4.458 18.7817 4.662C19.1297 4.86 19.4027 5.139 19.6007 5.499C19.8047 5.853 19.9067 6.264 19.9067 6.732C19.9067 7.2 19.8047 7.614 19.6007 7.974C19.4027 8.328 19.1297 8.607 18.7817 8.811C18.4337 9.009 18.0407 9.108 17.6027 9.108ZM17.6027 8.055C17.8067 8.055 17.9867 8.007 18.1427 7.911C18.3047 7.815 18.4307 7.668 18.5207 7.47C18.6167 7.272 18.6647 7.026 18.6647 6.732C18.6647 6.438 18.6167 6.195 18.5207 6.003C18.4307 5.805 18.3047 5.658 18.1427 5.562C17.9867 5.46 17.8097 5.409 17.6117 5.409C17.4197 5.409 17.2427 5.46 17.0807 5.562C16.9187 5.658 16.7897 5.805 16.6937 6.003C16.6037 6.195 16.5587 6.438 16.5587 6.732C16.5587 7.026 16.6037 7.272 16.6937 7.47C16.7897 7.668 16.9157 7.815 17.0717 7.911C17.2337 8.007 17.4107 8.055 17.6027 8.055ZM20.8639 9V4.464H21.9439L22.0609 5.301C22.1689 5.103 22.3039 4.935 22.4659 4.797C22.6339 4.659 22.8229 4.551 23.0329 4.473C23.2489 4.395 23.4859 4.356 23.7439 4.356V5.643H23.3299C23.1499 5.643 22.9819 5.664 22.8259 5.706C22.6759 5.748 22.5439 5.817 22.4299 5.913C22.3159 6.003 22.2289 6.129 22.1689 6.291C22.1089 6.453 22.0789 6.657 22.0789 6.903V9H20.8639ZM26.5642 9.108C26.1082 9.108 25.7032 9.012 25.3492 8.82C25.0012 8.622 24.7282 8.349 24.5302 8.001C24.3382 7.647 24.2422 7.239 24.2422 6.777C24.2422 6.303 24.3382 5.886 24.5302 5.526C24.7282 5.16 25.0012 4.875 25.3492 4.671C25.6972 4.461 26.1022 4.356 26.5642 4.356C27.0142 4.356 27.4072 4.455 27.7432 4.653C28.0792 4.851 28.3402 5.118 28.5262 5.454C28.7122 5.79 28.8052 6.171 28.8052 6.597C28.8052 6.657 28.8052 6.726 28.8052 6.804C28.8052 6.876 28.7992 6.951 28.7872 7.029H25.1062V6.291H27.5812C27.5632 5.997 27.4582 5.766 27.2662 5.598C27.0802 5.43 26.8462 5.346 26.5642 5.346C26.3602 5.346 26.1712 5.394 25.9972 5.49C25.8232 5.58 25.6852 5.721 25.5832 5.913C25.4872 6.105 25.4392 6.348 25.4392 6.642V6.903C25.4392 7.149 25.4842 7.365 25.5742 7.551C25.6702 7.731 25.8022 7.872 25.9702 7.974C26.1382 8.07 26.3332 8.118 26.5552 8.118C26.7772 8.118 26.9602 8.07 27.1042 7.974C27.2542 7.878 27.3652 7.755 27.4372 7.605H28.6792C28.5952 7.887 28.4542 8.142 28.2562 8.37C28.0582 8.598 27.8152 8.778 27.5272 8.91C27.2392 9.042 26.9182 9.108 26.5642 9.108ZM31.5642 9.108C31.1502 9.108 30.7902 9.042 30.4842 8.91C30.1782 8.778 29.9382 8.595 29.7642 8.361C29.5902 8.127 29.4912 7.863 29.4672 7.569H30.6732C30.7032 7.683 30.7542 7.788 30.8262 7.884C30.8982 7.974 30.9942 8.046 31.1142 8.1C31.2342 8.154 31.3782 8.181 31.5462 8.181C31.7082 8.181 31.8402 8.16 31.9422 8.118C32.0442 8.07 32.1192 8.007 32.1672 7.929C32.2212 7.851 32.2482 7.77 32.2482 7.686C32.2482 7.56 32.2122 7.464 32.1402 7.398C32.0682 7.326 31.9632 7.269 31.8252 7.227C31.6872 7.185 31.5192 7.143 31.3212 7.101C31.1052 7.059 30.8922 7.008 30.6822 6.948C30.4782 6.882 30.2952 6.801 30.1332 6.705C29.9712 6.609 29.8422 6.486 29.7462 6.336C29.6502 6.186 29.6022 6 29.6022 5.778C29.6022 5.508 29.6742 5.268 29.8182 5.058C29.9622 4.842 30.1722 4.671 30.4482 4.545C30.7242 4.419 31.0572 4.356 31.4472 4.356C31.9932 4.356 32.4252 4.479 32.7432 4.725C33.0612 4.971 33.2502 5.31 33.3102 5.742H32.1672C32.1312 5.604 32.0502 5.496 31.9242 5.418C31.8042 5.334 31.6422 5.292 31.4382 5.292C31.2222 5.292 31.0572 5.331 30.9432 5.409C30.8292 5.487 30.7722 5.589 30.7722 5.715C30.7722 5.799 30.8082 5.874 30.8802 5.94C30.9582 6.006 31.0662 6.063 31.2042 6.111C31.3422 6.153 31.5102 6.195 31.7082 6.237C32.0562 6.309 32.3622 6.393 32.6262 6.489C32.8902 6.579 33.0972 6.711 33.2472 6.885C33.3972 7.053 33.4722 7.299 33.4722 7.623C33.4722 7.911 33.3942 8.169 33.2382 8.397C33.0822 8.619 32.8602 8.793 32.5722 8.919C32.2902 9.045 31.9542 9.108 31.5642 9.108ZM38.4545 9.108C38.0405 9.108 37.6685 9.006 37.3385 8.802C37.0145 8.598 36.7595 8.316 36.5735 7.956C36.3875 7.596 36.2945 7.191 36.2945 6.741C36.2945 6.279 36.3875 5.871 36.5735 5.517C36.7655 5.157 37.0265 4.875 37.3565 4.671C37.6925 4.461 38.0675 4.356 38.4815 4.356C38.8055 4.356 39.0905 4.416 39.3365 4.536C39.5825 4.656 39.7805 4.827 39.9305 5.049V2.52H41.1455V9H40.0655L39.9305 8.379C39.8405 8.505 39.7265 8.625 39.5885 8.739C39.4565 8.853 39.2975 8.943 39.1115 9.009C38.9255 9.075 38.7065 9.108 38.4545 9.108ZM38.7425 8.046C38.9825 8.046 39.1925 7.992 39.3725 7.884C39.5585 7.77 39.7025 7.614 39.8045 7.416C39.9065 7.218 39.9575 6.99 39.9575 6.732C39.9575 6.474 39.9065 6.246 39.8045 6.048C39.7025 5.85 39.5585 5.697 39.3725 5.589C39.1925 5.475 38.9825 5.418 38.7425 5.418C38.5145 5.418 38.3075 5.475 38.1215 5.589C37.9355 5.697 37.7885 5.85 37.6805 6.048C37.5785 6.246 37.5275 6.471 37.5275 6.723C37.5275 6.987 37.5785 7.218 37.6805 7.416C37.7885 7.614 37.9325 7.77 38.1125 7.884C38.2985 7.992 38.5085 8.046 38.7425 8.046ZM42.2729 9V4.464H43.4879V9H42.2729ZM42.8849 3.843C42.6689 3.843 42.4889 3.78 42.3449 3.654C42.2069 3.522 42.1379 3.357 42.1379 3.159C42.1379 2.961 42.2069 2.799 42.3449 2.673C42.4889 2.541 42.6689 2.475 42.8849 2.475C43.1069 2.475 43.2869 2.541 43.4249 2.673C43.5689 2.799 43.6409 2.961 43.6409 3.159C43.6409 3.357 43.5689 3.522 43.4249 3.654C43.2869 3.78 43.1069 3.843 42.8849 3.843ZM46.4796 9.108C46.0656 9.108 45.7056 9.042 45.3996 8.91C45.0936 8.778 44.8536 8.595 44.6796 8.361C44.5056 8.127 44.4066 7.863 44.3826 7.569H45.5886C45.6186 7.683 45.6696 7.788 45.7416 7.884C45.8136 7.974 45.9096 8.046 46.0296 8.1C46.1496 8.154 46.2936 8.181 46.4616 8.181C46.6236 8.181 46.7556 8.16 46.8576 8.118C46.9596 8.07 47.0346 8.007 47.0826 7.929C47.1366 7.851 47.1636 7.77 47.1636 7.686C47.1636 7.56 47.1276 7.464 47.0556 7.398C46.9836 7.326 46.8786 7.269 46.7406 7.227C46.6026 7.185 46.4346 7.143 46.2366 7.101C46.0206 7.059 45.8076 7.008 45.5976 6.948C45.3936 6.882 45.2106 6.801 45.0486 6.705C44.8866 6.609 44.7576 6.486 44.6616 6.336C44.5656 6.186 44.5176 6 44.5176 5.778C44.5176 5.508 44.5896 5.268 44.7336 5.058C44.8776 4.842 45.0876 4.671 45.3636 4.545C45.6396 4.419 45.9726 4.356 46.3626 4.356C46.9086 4.356 47.3406 4.479 47.6586 4.725C47.9766 4.971 48.1656 5.31 48.2256 5.742H47.0826C47.0466 5.604 46.9656 5.496 46.8396 5.418C46.7196 5.334 46.5576 5.292 46.3536 5.292C46.1376 5.292 45.9726 5.331 45.8586 5.409C45.7446 5.487 45.6876 5.589 45.6876 5.715C45.6876 5.799 45.7236 5.874 45.7956 5.94C45.8736 6.006 45.9816 6.063 46.1196 6.111C46.2576 6.153 46.4256 6.195 46.6236 6.237C46.9716 6.309 47.2776 6.393 47.5416 6.489C47.8056 6.579 48.0126 6.711 48.1626 6.885C48.3126 7.053 48.3876 7.299 48.3876 7.623C48.3876 7.911 48.3096 8.169 48.1536 8.397C47.9976 8.619 47.7756 8.793 47.4876 8.919C47.2056 9.045 46.8696 9.108 46.4796 9.108ZM49.3257 10.98V4.464H50.4057L50.5407 5.094C50.6367 4.962 50.7507 4.842 50.8827 4.734C51.0147 4.62 51.1707 4.53 51.3507 4.464C51.5367 4.392 51.7527 4.356 51.9987 4.356C52.4247 4.356 52.7997 4.461 53.1237 4.671C53.4477 4.881 53.7027 5.166 53.8887 5.526C54.0807 5.88 54.1767 6.285 54.1767 6.741C54.1767 7.197 54.0807 7.605 53.8887 7.965C53.6967 8.319 53.4387 8.598 53.1147 8.802C52.7907 9.006 52.4217 9.108 52.0077 9.108C51.6717 9.108 51.3807 9.048 51.1347 8.928C50.8947 8.802 50.6967 8.631 50.5407 8.415V10.98H49.3257ZM51.7197 8.046C51.9597 8.046 52.1697 7.992 52.3497 7.884C52.5357 7.776 52.6797 7.623 52.7817 7.425C52.8837 7.227 52.9347 6.999 52.9347 6.741C52.9347 6.483 52.8837 6.255 52.7817 6.057C52.6797 5.853 52.5357 5.697 52.3497 5.589C52.1697 5.475 51.9597 5.418 51.7197 5.418C51.4857 5.418 51.2757 5.475 51.0897 5.589C50.9097 5.697 50.7657 5.85 50.6577 6.048C50.5557 6.246 50.5047 6.474 50.5047 6.732C50.5047 6.99 50.5557 7.221 50.6577 7.425C50.7657 7.623 50.9097 7.776 51.0897 7.884C51.2757 7.992 51.4857 8.046 51.7197 8.046ZM57.2751 9.108C56.8431 9.108 56.4531 9.009 56.1051 8.811C55.7631 8.607 55.4901 8.328 55.2861 7.974C55.0881 7.614 54.9891 7.203 54.9891 6.741C54.9891 6.267 55.0881 5.853 55.2861 5.499C55.4901 5.139 55.7661 4.86 56.1141 4.662C56.4621 4.458 56.8521 4.356 57.2841 4.356C57.7221 4.356 58.1121 4.458 58.4541 4.662C58.8021 4.86 59.0751 5.139 59.2731 5.499C59.4771 5.853 59.5791 6.264 59.5791 6.732C59.5791 7.2 59.4771 7.614 59.2731 7.974C59.0751 8.328 58.8021 8.607 58.4541 8.811C58.1061 9.009 57.7131 9.108 57.2751 9.108ZM57.2751 8.055C57.4791 8.055 57.6591 8.007 57.8151 7.911C57.9771 7.815 58.1031 7.668 58.1931 7.47C58.2891 7.272 58.3371 7.026 58.3371 6.732C58.3371 6.438 58.2891 6.195 58.1931 6.003C58.1031 5.805 57.9771 5.658 57.8151 5.562C57.6591 5.46 57.4821 5.409 57.2841 5.409C57.0921 5.409 56.9151 5.46 56.7531 5.562C56.5911 5.658 56.4621 5.805 56.3661 6.003C56.2761 6.195 56.2311 6.438 56.2311 6.732C56.2311 7.026 56.2761 7.272 56.3661 7.47C56.4621 7.668 56.5881 7.815 56.7441 7.911C56.9061 8.007 57.0831 8.055 57.2751 8.055ZM60.5363 9V4.464H61.6073L61.6973 5.202C61.8353 4.95 62.0303 4.746 62.2823 4.59C62.5403 4.434 62.8463 4.356 63.2003 4.356C63.5783 4.356 63.8963 4.434 64.1543 4.59C64.4123 4.746 64.6073 4.974 64.7393 5.274C64.8773 5.574 64.9463 5.943 64.9463 6.381V9H63.7403V6.498C63.7403 6.138 63.6623 5.862 63.5063 5.67C63.3563 5.478 63.1223 5.382 62.8043 5.382C62.6003 5.382 62.4173 5.43 62.2553 5.526C62.0993 5.622 61.9763 5.76 61.8863 5.94C61.7963 6.114 61.7513 6.327 61.7513 6.579V9H60.5363ZM66.028 9V4.464H67.243V9H66.028ZM66.64 3.843C66.424 3.843 66.244 3.78 66.1 3.654C65.962 3.522 65.893 3.357 65.893 3.159C65.893 2.961 65.962 2.799 66.1 2.673C66.244 2.541 66.424 2.475 66.64 2.475C66.862 2.475 67.042 2.541 67.18 2.673C67.324 2.799 67.396 2.961 67.396 3.159C67.396 3.357 67.324 3.522 67.18 3.654C67.042 3.78 66.862 3.843 66.64 3.843ZM71.0627 9.108C70.8287 9.108 70.6187 9.078 70.4327 9.018C70.2527 8.958 70.0907 8.877 69.9467 8.775C69.8087 8.667 69.6917 8.547 69.5957 8.415L69.4607 9H68.3807V2.52H69.5957V5.094C69.7397 4.884 69.9287 4.71 70.1627 4.572C70.4027 4.428 70.6997 4.356 71.0537 4.356C71.4737 4.356 71.8457 4.461 72.1697 4.671C72.4997 4.875 72.7577 5.157 72.9437 5.517C73.1357 5.871 73.2317 6.279 73.2317 6.741C73.2317 7.191 73.1357 7.596 72.9437 7.956C72.7577 8.316 72.5027 8.598 72.1787 8.802C71.8547 9.006 71.4827 9.108 71.0627 9.108ZM70.7747 8.046C71.0147 8.046 71.2247 7.992 71.4047 7.884C71.5907 7.77 71.7347 7.617 71.8367 7.425C71.9387 7.227 71.9897 6.999 71.9897 6.741C71.9897 6.483 71.9387 6.255 71.8367 6.057C71.7347 5.853 71.5907 5.697 71.4047 5.589C71.2247 5.475 71.0147 5.418 70.7747 5.418C70.5407 5.418 70.3307 5.475 70.1447 5.589C69.9647 5.697 69.8207 5.85 69.7127 6.048C69.6107 6.246 69.5597 6.474 69.5597 6.732C69.5597 6.99 69.6107 7.221 69.7127 7.425C69.8207 7.623 69.9647 7.776 70.1447 7.884C70.3307 7.992 70.5407 8.046 70.7747 8.046ZM74.1882 9V2.52H75.4032V9H74.1882ZM78.6756 9.108C78.2196 9.108 77.8146 9.012 77.4606 8.82C77.1126 8.622 76.8396 8.349 76.6416 8.001C76.4496 7.647 76.3536 7.239 76.3536 6.777C76.3536 6.303 76.4496 5.886 76.6416 5.526C76.8396 5.16 77.1126 4.875 77.4606 4.671C77.8086 4.461 78.2136 4.356 78.6756 4.356C79.1256 4.356 79.5186 4.455 79.8546 4.653C80.1906 4.851 80.4516 5.118 80.6376 5.454C80.8236 5.79 80.9166 6.171 80.9166 6.597C80.9166 6.657 80.9166 6.726 80.9166 6.804C80.9166 6.876 80.9106 6.951 80.8986 7.029H77.2176V6.291H79.6926C79.6746 5.997 79.5696 5.766 79.3776 5.598C79.1916 5.43 78.9576 5.346 78.6756 5.346C78.4716 5.346 78.2826 5.394 78.1086 5.49C77.9346 5.58 77.7966 5.721 77.6946 5.913C77.5986 6.105 77.5506 6.348 77.5506 6.642V6.903C77.5506 7.149 77.5956 7.365 77.6856 7.551C77.7816 7.731 77.9136 7.872 78.0816 7.974C78.2496 8.07 78.4446 8.118 78.6666 8.118C78.8886 8.118 79.0716 8.07 79.2156 7.974C79.3656 7.878 79.4766 7.755 79.5486 7.605H80.7906C80.7066 7.887 80.5656 8.142 80.3676 8.37C80.1696 8.598 79.9266 8.778 79.6386 8.91C79.3506 9.042 79.0296 9.108 78.6756 9.108ZM83.6757 9.108C83.2617 9.108 82.9017 9.042 82.5957 8.91C82.2897 8.778 82.0497 8.595 81.8757 8.361C81.7017 8.127 81.6027 7.863 81.5787 7.569H82.7847C82.8147 7.683 82.8657 7.788 82.9377 7.884C83.0097 7.974 83.1057 8.046 83.2257 8.1C83.3457 8.154 83.4897 8.181 83.6577 8.181C83.8197 8.181 83.9517 8.16 84.0537 8.118C84.1557 8.07 84.2307 8.007 84.2787 7.929C84.3327 7.851 84.3597 7.77 84.3597 7.686C84.3597 7.56 84.3237 7.464 84.2517 7.398C84.1797 7.326 84.0747 7.269 83.9367 7.227C83.7987 7.185 83.6307 7.143 83.4327 7.101C83.2167 7.059 83.0037 7.008 82.7937 6.948C82.5897 6.882 82.4067 6.801 82.2447 6.705C82.0827 6.609 81.9537 6.486 81.8577 6.336C81.7617 6.186 81.7137 6 81.7137 5.778C81.7137 5.508 81.7857 5.268 81.9297 5.058C82.0737 4.842 82.2837 4.671 82.5597 4.545C82.8357 4.419 83.1687 4.356 83.5587 4.356C84.1047 4.356 84.5367 4.479 84.8547 4.725C85.1727 4.971 85.3617 5.31 85.4217 5.742H84.2787C84.2427 5.604 84.1617 5.496 84.0357 5.418C83.9157 5.334 83.7537 5.292 83.5497 5.292C83.3337 5.292 83.1687 5.331 83.0547 5.409C82.9407 5.487 82.8837 5.589 82.8837 5.715C82.8837 5.799 82.9197 5.874 82.9917 5.94C83.0697 6.006 83.1777 6.063 83.3157 6.111C83.4537 6.153 83.6217 6.195 83.8197 6.237C84.1677 6.309 84.4737 6.393 84.7377 6.489C85.0017 6.579 85.2087 6.711 85.3587 6.885C85.5087 7.053 85.5837 7.299 85.5837 7.623C85.5837 7.911 85.5057 8.169 85.3497 8.397C85.1937 8.619 84.9717 8.793 84.6837 8.919C84.4017 9.045 84.0657 9.108 83.6757 9.108Z" fill="#3C3C3C"/>
<circle cx="10.5996" cy="30" r="10" stroke="#37FF00" stroke-width="1.2"/>
<circle cx="10.5996" cy="30" r="8" fill="black"/>
<circle cx="39.5996" cy="30" r="8" fill="#A2080A"/>
<circle cx="66.5996" cy="30" r="8" fill="#8EB897"/>
<circle cx="94.0996" cy="29.5" r="8" fill="white" stroke="#F2F2F5"/>
<line x1="94.0996" y1="26.5" x2="94.0996" y2="32.5" stroke="black" stroke-linecap="round"/>
<line x1="97.0996" y1="29.5" x2="91.0996" y2="29.5" stroke="black" stroke-linecap="round"/>
</svg>
