<svg width="176" height="21" viewBox="0 0 176 21" fill="none" xmlns="http://www.w3.org/2000/svg">
<path d="M0.000422001 15.9502V0.550194H5.76442C7.01109 0.550194 8.04509 0.762861 8.86642 1.1882C9.68776 1.61353 10.2964 2.18553 10.6924 2.90419C11.0884 3.62286 11.2864 4.44419 11.2864 5.36819C11.2864 6.21886 11.0958 7.00353 10.7144 7.7222C10.3331 8.44086 9.73176 9.02753 8.91042 9.4822C8.08909 9.9222 7.04042 10.1422 5.76442 10.1422H2.97042V15.9502H0.000422001ZM2.97042 7.74419H5.58842C6.54176 7.74419 7.22376 7.53153 7.63442 7.1062C8.05976 6.6662 8.27242 6.08686 8.27242 5.36819C8.27242 4.60553 8.05976 4.01886 7.63442 3.60819C7.22376 3.18286 6.54176 2.97019 5.58842 2.97019H2.97042V7.74419ZM13.2281 15.9502V0.110195H16.1981V15.9502H13.2281ZM22.6133 16.2142C21.6893 16.2142 20.9267 16.0675 20.3253 15.7742C19.724 15.4662 19.2767 15.0629 18.9833 14.5642C18.7047 14.0509 18.5653 13.4862 18.5653 12.8702C18.5653 12.1955 18.734 11.6015 19.0713 11.0882C19.4233 10.5749 19.944 10.1715 20.6333 9.87819C21.3373 9.58486 22.2173 9.4382 23.2733 9.4382H26.0233C26.0233 8.89553 25.95 8.4482 25.8033 8.09619C25.6567 7.72953 25.4293 7.45819 25.1213 7.28219C24.8133 7.10619 24.4027 7.01819 23.8893 7.01819C23.332 7.01819 22.8553 7.14286 22.4593 7.39219C22.078 7.62686 21.8433 7.99353 21.7553 8.49219H18.8733C18.9467 7.7002 19.2033 7.0182 19.6433 6.4462C20.098 5.85953 20.692 5.40486 21.4253 5.08219C22.1733 4.75953 23.002 4.59819 23.9113 4.59819C24.9527 4.59819 25.8547 4.77419 26.6173 5.1262C27.38 5.47819 27.9667 5.98419 28.3773 6.6442C28.788 7.30419 28.9933 8.11819 28.9933 9.0862V15.9502H26.4853L26.1553 14.2562C25.994 14.5495 25.8033 14.8135 25.5833 15.0482C25.3633 15.2829 25.1067 15.4882 24.8133 15.6642C24.52 15.8402 24.19 15.9722 23.8233 16.0602C23.4567 16.1629 23.0533 16.2142 22.6133 16.2142ZM23.3173 13.9262C23.6987 13.9262 24.036 13.8602 24.3293 13.7282C24.6373 13.5815 24.9013 13.3909 25.1213 13.1562C25.3413 12.9069 25.51 12.6282 25.6273 12.3202C25.7593 11.9975 25.8473 11.6529 25.8913 11.2862V11.2642H23.6253C23.1707 11.2642 22.7967 11.3229 22.5033 11.4402C22.2247 11.5429 22.0193 11.6969 21.8873 11.9022C21.7553 12.1075 21.6893 12.3422 21.6893 12.6062C21.6893 12.8995 21.7553 13.1415 21.8873 13.3322C22.0193 13.5229 22.21 13.6695 22.4593 13.7722C22.7087 13.8749 22.9947 13.9262 23.3173 13.9262ZM32.5652 20.7902L35.2492 14.7182H34.5892L30.1452 4.8622H33.3792L36.5472 12.0122L39.4072 4.8622H42.5532L35.7112 20.7902H32.5652ZM48.5933 16.2142C47.4786 16.2142 46.4886 15.9795 45.6233 15.5102C44.7726 15.0262 44.1053 14.3589 43.6213 13.5082C43.1519 12.6429 42.9173 11.6455 42.9173 10.5162C42.9173 9.35753 43.1519 8.3382 43.6213 7.4582C44.1053 6.56353 44.7726 5.86686 45.6233 5.36819C46.4739 4.85486 47.4639 4.59819 48.5933 4.59819C49.6933 4.59819 50.6539 4.84019 51.4753 5.3242C52.2966 5.80819 52.9346 6.46086 53.3893 7.28219C53.8439 8.10353 54.0713 9.03486 54.0713 10.0762C54.0713 10.2229 54.0713 10.3915 54.0713 10.5822C54.0713 10.7582 54.0566 10.9415 54.0273 11.1322H45.0293V9.32819H51.0793C51.0353 8.60953 50.7786 8.04486 50.3093 7.63419C49.8546 7.22353 49.2826 7.01819 48.5933 7.01819C48.0946 7.01819 47.6326 7.13553 47.2073 7.37019C46.7819 7.59019 46.4446 7.93486 46.1953 8.40419C45.9606 8.87353 45.8433 9.46753 45.8433 10.1862V10.8242C45.8433 11.4255 45.9533 11.9535 46.1733 12.4082C46.4079 12.8482 46.7306 13.1929 47.1413 13.4422C47.5519 13.6769 48.0286 13.7942 48.5713 13.7942C49.1139 13.7942 49.5613 13.6769 49.9133 13.4422C50.2799 13.2075 50.5513 12.9069 50.7273 12.5402H53.7633C53.5579 13.2295 53.2133 13.8529 52.7293 14.4102C52.2453 14.9675 51.6513 15.4075 50.9473 15.7302C50.2433 16.0529 49.4586 16.2142 48.5933 16.2142ZM56.2836 15.9502V4.8622H58.9236L59.2096 6.9082C59.4736 6.42419 59.8036 6.01353 60.1996 5.6762C60.6103 5.33886 61.0723 5.07486 61.5856 4.88419C62.1136 4.69353 62.693 4.59819 63.3236 4.59819V7.74419H62.3116C61.8716 7.74419 61.461 7.79553 61.0796 7.89819C60.713 8.00086 60.3903 8.16953 60.1116 8.40419C59.833 8.62419 59.6203 8.93219 59.4736 9.32819C59.327 9.72419 59.2536 10.2229 59.2536 10.8242V15.9502H56.2836ZM68.8056 16.2142C67.8816 16.2142 67.1189 16.0675 66.5176 15.7742C65.9163 15.4662 65.4689 15.0629 65.1756 14.5642C64.8969 14.0509 64.7576 13.4862 64.7576 12.8702C64.7576 12.1955 64.9263 11.6015 65.2636 11.0882C65.6156 10.5749 66.1363 10.1715 66.8256 9.87819C67.5296 9.58486 68.4096 9.4382 69.4656 9.4382H72.2156C72.2156 8.89553 72.1423 8.4482 71.9956 8.09619C71.8489 7.72953 71.6216 7.45819 71.3136 7.28219C71.0056 7.10619 70.5949 7.01819 70.0816 7.01819C69.5243 7.01819 69.0476 7.14286 68.6516 7.39219C68.2703 7.62686 68.0356 7.99353 67.9476 8.49219H65.0656C65.1389 7.7002 65.3956 7.0182 65.8356 6.4462C66.2903 5.85953 66.8843 5.40486 67.6176 5.08219C68.3656 4.75953 69.1943 4.59819 70.1036 4.59819C71.1449 4.59819 72.0469 4.77419 72.8096 5.1262C73.5723 5.47819 74.1589 5.98419 74.5696 6.6442C74.9803 7.30419 75.1856 8.11819 75.1856 9.0862V15.9502H72.6776L72.3476 14.2562C72.1863 14.5495 71.9956 14.8135 71.7756 15.0482C71.5556 15.2829 71.2989 15.4882 71.0056 15.6642C70.7123 15.8402 70.3823 15.9722 70.0156 16.0602C69.6489 16.1629 69.2456 16.2142 68.8056 16.2142ZM69.5096 13.9262C69.8909 13.9262 70.2283 13.8602 70.5216 13.7282C70.8296 13.5815 71.0936 13.3909 71.3136 13.1562C71.5336 12.9069 71.7023 12.6282 71.8196 12.3202C71.9516 11.9975 72.0396 11.6529 72.0836 11.2862V11.2642H69.8176C69.3629 11.2642 68.9889 11.3229 68.6956 11.4402C68.4169 11.5429 68.2116 11.6969 68.0796 11.9022C67.9476 12.1075 67.8816 12.3422 67.8816 12.6062C67.8816 12.8995 67.9476 13.1415 68.0796 13.3322C68.2116 13.5229 68.4023 13.6695 68.6516 13.7722C68.9009 13.8749 69.1869 13.9262 69.5096 13.9262ZM82.76 15.9502V0.550194H88.524C89.7706 0.550194 90.8046 0.762861 91.626 1.1882C92.4473 1.61353 93.056 2.18553 93.452 2.90419C93.848 3.62286 94.046 4.44419 94.046 5.36819C94.046 6.21886 93.8553 7.00353 93.474 7.7222C93.0926 8.44086 92.4913 9.02753 91.67 9.4822C90.8486 9.9222 89.8 10.1422 88.524 10.1422H85.73V15.9502H82.76ZM85.73 7.74419H88.348C89.3013 7.74419 89.9833 7.53153 90.394 7.1062C90.8193 6.6662 91.032 6.08686 91.032 5.36819C91.032 4.60553 90.8193 4.01886 90.394 3.60819C89.9833 3.18286 89.3013 2.97019 88.348 2.97019H85.73V7.74419ZM95.9876 15.9502V4.8622H98.6276L98.9136 6.9082C99.1776 6.42419 99.5076 6.01353 99.9036 5.6762C100.314 5.33886 100.776 5.07486 101.29 4.88419C101.818 4.69353 102.397 4.59819 103.028 4.59819V7.74419H102.016C101.576 7.74419 101.165 7.79553 100.784 7.89819C100.417 8.00086 100.094 8.16953 99.8156 8.40419C99.537 8.62419 99.3243 8.93219 99.1776 9.32819C99.031 9.72419 98.9576 10.2229 98.9576 10.8242V15.9502H95.9876ZM109.922 16.2142C108.807 16.2142 107.817 15.9795 106.952 15.5102C106.101 15.0262 105.434 14.3589 104.95 13.5082C104.48 12.6429 104.246 11.6455 104.246 10.5162C104.246 9.35753 104.48 8.3382 104.95 7.4582C105.434 6.56353 106.101 5.86686 106.952 5.36819C107.802 4.85486 108.792 4.59819 109.922 4.59819C111.022 4.59819 111.982 4.84019 112.804 5.3242C113.625 5.80819 114.263 6.46086 114.718 7.28219C115.172 8.10353 115.4 9.03486 115.4 10.0762C115.4 10.2229 115.4 10.3915 115.4 10.5822C115.4 10.7582 115.385 10.9415 115.356 11.1322H106.358V9.32819H112.408C112.364 8.60953 112.107 8.04486 111.638 7.63419C111.183 7.22353 110.611 7.01819 109.922 7.01819C109.423 7.01819 108.961 7.13553 108.536 7.37019C108.11 7.59019 107.773 7.93486 107.524 8.40419C107.289 8.87353 107.172 9.46753 107.172 10.1862V10.8242C107.172 11.4255 107.282 11.9535 107.502 12.4082C107.736 12.8482 108.059 13.1929 108.47 13.4422C108.88 13.6769 109.357 13.7942 109.9 13.7942C110.442 13.7942 110.89 13.6769 111.242 13.4422C111.608 13.2075 111.88 12.9069 112.056 12.5402H115.092C114.886 13.2295 114.542 13.8529 114.058 14.4102C113.574 14.9675 112.98 15.4075 112.276 15.7302C111.572 16.0529 110.787 16.2142 109.922 16.2142ZM117.612 15.9502V4.8622H120.23L120.472 6.3362C120.824 5.80819 121.286 5.39019 121.858 5.08219C122.445 4.75953 123.112 4.59819 123.86 4.59819C124.417 4.59819 124.916 4.67153 125.356 4.81819C125.796 4.96486 126.185 5.17753 126.522 5.45619C126.874 5.73486 127.16 6.08686 127.38 6.51219C127.791 5.91086 128.326 5.44153 128.986 5.10419C129.646 4.76686 130.365 4.59819 131.142 4.59819C132.11 4.59819 132.917 4.79619 133.562 5.19219C134.207 5.57353 134.691 6.13086 135.014 6.86419C135.351 7.59753 135.52 8.49953 135.52 9.57019V15.9502H132.572V9.83419C132.572 8.95419 132.396 8.27953 132.044 7.8102C131.707 7.34086 131.179 7.1062 130.46 7.1062C129.991 7.1062 129.573 7.22353 129.206 7.4582C128.839 7.69286 128.553 8.0302 128.348 8.4702C128.157 8.9102 128.062 9.4382 128.062 10.0542V15.9502H125.092V9.83419C125.092 8.95419 124.916 8.27953 124.564 7.8102C124.212 7.34086 123.669 7.1062 122.936 7.1062C122.481 7.1062 122.071 7.22353 121.704 7.4582C121.352 7.69286 121.073 8.0302 120.868 8.4702C120.677 8.9102 120.582 9.4382 120.582 10.0542V15.9502H117.612ZM138.169 15.9502V4.8622H141.139V15.9502H138.169ZM139.665 3.3442C139.137 3.3442 138.697 3.19019 138.345 2.88219C138.008 2.55953 137.839 2.15619 137.839 1.67219C137.839 1.18819 138.008 0.792195 138.345 0.484195C138.697 0.161528 139.137 0.000194788 139.665 0.000194788C140.208 0.000194788 140.648 0.161528 140.985 0.484195C141.337 0.792195 141.513 1.18819 141.513 1.67219C141.513 2.15619 141.337 2.55953 140.985 2.88219C140.648 3.19019 140.208 3.3442 139.665 3.3442ZM148.056 16.2142C147.161 16.2142 146.391 16.0309 145.746 15.6642C145.115 15.2829 144.631 14.7329 144.294 14.0142C143.957 13.2809 143.788 12.3789 143.788 11.3082V4.8622H146.758V11.0002C146.758 11.8949 146.941 12.5695 147.308 13.0242C147.689 13.4789 148.269 13.7062 149.046 13.7062C149.545 13.7062 149.985 13.5962 150.366 13.3762C150.747 13.1415 151.048 12.8115 151.268 12.3862C151.503 11.9462 151.62 11.4109 151.62 10.7802V4.8622H154.568V15.9502H151.972L151.73 14.1462C151.407 14.7769 150.931 15.2829 150.3 15.6642C149.669 16.0309 148.921 16.2142 148.056 16.2142ZM157.257 15.9502V4.8622H159.875L160.117 6.3362C160.469 5.80819 160.931 5.39019 161.503 5.08219C162.089 4.75953 162.757 4.59819 163.505 4.59819C164.062 4.59819 164.561 4.67153 165.001 4.81819C165.441 4.96486 165.829 5.17753 166.167 5.45619C166.519 5.73486 166.805 6.08686 167.025 6.51219C167.435 5.91086 167.971 5.44153 168.631 5.10419C169.291 4.76686 170.009 4.59819 170.787 4.59819C171.755 4.59819 172.561 4.79619 173.207 5.19219C173.852 5.57353 174.336 6.13086 174.659 6.86419C174.996 7.59753 175.165 8.49953 175.165 9.57019V15.9502H172.217V9.83419C172.217 8.95419 172.041 8.27953 171.689 7.8102C171.351 7.34086 170.823 7.1062 170.105 7.1062C169.635 7.1062 169.217 7.22353 168.851 7.4582C168.484 7.69286 168.198 8.0302 167.993 8.4702C167.802 8.9102 167.707 9.4382 167.707 10.0542V15.9502H164.737V9.83419C164.737 8.95419 164.561 8.27953 164.209 7.8102C163.857 7.34086 163.314 7.1062 162.581 7.1062C162.126 7.1062 161.715 7.22353 161.349 7.4582C160.997 7.69286 160.718 8.0302 160.513 8.4702C160.322 8.9102 160.227 9.4382 160.227 10.0542V15.9502H157.257Z" fill="black"/>
</svg>
