<svg width="122" height="49" viewBox="0 0 122 49" fill="none" xmlns="http://www.w3.org/2000/svg">
<path d="M29.187 48.001V27.784H30.705V48.001H29.187ZM30.153 46.276C28.9877 46.276 27.945 46.0767 27.025 45.678C26.1203 45.2793 25.3997 44.6967 24.863 43.93C24.3263 43.1633 24.0503 42.2357 24.035 41.147H27.439C27.4543 41.607 27.5693 42.021 27.784 42.389C28.014 42.757 28.3283 43.0483 28.727 43.263C29.1257 43.4777 29.5933 43.585 30.13 43.585C30.6053 43.585 31.0117 43.5083 31.349 43.355C31.7017 43.2017 31.97 42.987 32.154 42.711C32.3533 42.435 32.453 42.0977 32.453 41.699C32.453 41.2697 32.338 40.9017 32.108 40.595C31.8933 40.2883 31.5943 40.0277 31.211 39.813C30.8277 39.5983 30.383 39.4067 29.877 39.238C29.3863 39.054 28.8573 38.87 28.29 38.686C27.0173 38.272 26.0437 37.72 25.369 37.03C24.7097 36.34 24.38 35.42 24.38 34.27C24.38 33.2887 24.61 32.453 25.07 31.763C25.5453 31.073 26.197 30.544 27.025 30.176C27.8683 29.808 28.819 29.624 29.877 29.624C30.9657 29.624 31.924 29.8157 32.752 30.199C33.58 30.567 34.2317 31.1037 34.707 31.809C35.1977 32.5143 35.4583 33.35 35.489 34.316H32.039C32.0237 33.9633 31.924 33.6413 31.74 33.35C31.556 33.0433 31.303 32.798 30.981 32.614C30.659 32.43 30.2757 32.338 29.831 32.338C29.4477 32.3227 29.095 32.384 28.773 32.522C28.4663 32.6447 28.221 32.8363 28.037 33.097C27.853 33.3423 27.761 33.6567 27.761 34.04C27.761 34.4233 27.853 34.7453 28.037 35.006C28.221 35.2513 28.474 35.466 28.796 35.65C29.1333 35.834 29.5243 36.0103 29.969 36.179C30.4137 36.3323 30.8967 36.4933 31.418 36.662C32.2307 36.938 32.9743 37.2677 33.649 37.651C34.3237 38.019 34.8603 38.502 35.259 39.1C35.673 39.698 35.88 40.4877 35.88 41.469C35.88 42.3277 35.6577 43.125 35.213 43.861C34.7683 44.5817 34.1243 45.1643 33.281 45.609C32.4377 46.0537 31.395 46.276 30.153 46.276ZM37.8452 46V43.631C38.8112 42.849 39.7542 42.0747 40.6742 41.308C41.5942 40.526 42.4222 39.7593 43.1582 39.008C43.8942 38.2413 44.4769 37.4977 44.9062 36.777C45.3356 36.041 45.5502 35.328 45.5502 34.638C45.5502 34.2393 45.4736 33.8637 45.3202 33.511C45.1669 33.1583 44.9292 32.8747 44.6072 32.66C44.2852 32.4453 43.8636 32.338 43.3422 32.338C42.8362 32.338 42.3992 32.4607 42.0312 32.706C41.6786 32.936 41.4102 33.2503 41.2262 33.649C41.0576 34.0477 40.9732 34.5 40.9732 35.006H37.8682C37.8989 33.7947 38.1596 32.7903 38.6502 31.993C39.1562 31.1957 39.8232 30.6053 40.6512 30.222C41.4946 29.8233 42.4299 29.624 43.4572 29.624C44.6072 29.624 45.5732 29.8387 46.3552 30.268C47.1526 30.682 47.7506 31.257 48.1492 31.993C48.5632 32.7137 48.7702 33.534 48.7702 34.454C48.7702 35.1593 48.6399 35.8493 48.3792 36.524C48.1339 37.1833 47.7889 37.8273 47.3442 38.456C46.8996 39.0847 46.3936 39.6903 45.8262 40.273C45.2742 40.8403 44.6916 41.3847 44.0782 41.906C43.4802 42.4273 42.8899 42.918 42.3072 43.378H49.1382V46H37.8452ZM56.6851 46.276C55.6425 46.276 54.6841 46.0843 53.8101 45.701C52.9361 45.3177 52.2308 44.735 51.6941 43.953C51.1728 43.171 50.8968 42.1743 50.8661 40.963H54.0401C54.0401 41.4537 54.1475 41.8983 54.3621 42.297C54.5768 42.6957 54.8835 43.01 55.2821 43.24C55.6808 43.47 56.1561 43.585 56.7081 43.585C57.2295 43.585 57.6741 43.4853 58.0421 43.286C58.4101 43.0713 58.6861 42.7953 58.8701 42.458C59.0541 42.1053 59.1461 41.7067 59.1461 41.262C59.1461 40.756 59.0158 40.3343 58.7551 39.997C58.5098 39.6443 58.1571 39.376 57.6971 39.192C57.2525 39.008 56.7311 38.916 56.1331 38.916H54.9371V36.271H56.1331C56.8691 36.271 57.4901 36.1023 57.9961 35.765C58.5021 35.4277 58.7551 34.9063 58.7551 34.201C58.7551 33.6337 58.5635 33.1813 58.1801 32.844C57.8121 32.5067 57.3138 32.338 56.6851 32.338C55.9491 32.338 55.3818 32.5527 54.9831 32.982C54.5845 33.396 54.3621 33.9097 54.3161 34.523H51.1881C51.2341 33.4957 51.4871 32.614 51.9471 31.878C52.4225 31.142 53.0665 30.5823 53.8791 30.199C54.6918 29.8157 55.6271 29.624 56.6851 29.624C57.8045 29.624 58.7551 29.8233 59.5371 30.222C60.3191 30.6053 60.9095 31.1267 61.3081 31.786C61.7068 32.4453 61.9061 33.166 61.9061 33.948C61.9061 34.592 61.7835 35.1593 61.5381 35.65C61.3081 36.1253 60.9938 36.524 60.5951 36.846C60.1965 37.168 59.7671 37.398 59.3071 37.536C59.9051 37.6587 60.4265 37.8963 60.8711 38.249C61.3158 38.5863 61.6608 39.0233 61.9061 39.56C62.1668 40.0967 62.2971 40.71 62.2971 41.4C62.2971 42.274 62.0825 43.0867 61.6531 43.838C61.2238 44.574 60.5875 45.1643 59.7441 45.609C58.9161 46.0537 57.8965 46.276 56.6851 46.276ZM65.8082 46L71.6502 32.66H63.9682V29.9H74.9622V32.154L69.1202 46H65.8082Z" fill="#3C3C3C"/>
<path d="M77.552 46V40.4H78.84L80.552 43.896L82.248 40.4H83.536V46H82.456V42.24L80.976 45.216H80.12L78.632 42.24V46H77.552ZM84.2699 46L86.0379 43.16L84.2459 40.4H85.4939L86.7259 42.312L87.8539 40.4H89.0699L87.3179 43.208L89.1179 46H87.8699L86.6299 44.056L85.4939 46H84.2699ZM89.8373 46V40.4H90.9173L93.4933 44.264V40.4H94.5733V46H93.4933L90.9173 42.144V46H89.8373Z" fill="#666666"/>
<rect width="122" height="19" rx="9.5" fill="#EDF7F0"/>
<path d="M26.4078 12V7.1H27.5348L29.0328 10.159L30.5168 7.1H31.6438V12H30.6988V8.71L29.4038 11.314H28.6548L27.3528 8.71V12H26.4078ZM34.071 12.084C33.7163 12.084 33.4013 12.0093 33.126 11.86C32.8553 11.706 32.643 11.4937 32.489 11.223C32.3397 10.9477 32.265 10.6303 32.265 10.271C32.265 9.90233 32.3397 9.578 32.489 9.298C32.643 9.01333 32.8553 8.79167 33.126 8.633C33.3967 8.46967 33.7117 8.388 34.071 8.388C34.421 8.388 34.7267 8.465 34.988 8.619C35.2493 8.773 35.4523 8.98067 35.597 9.242C35.7417 9.50333 35.814 9.79967 35.814 10.131C35.814 10.1777 35.814 10.2313 35.814 10.292C35.814 10.348 35.8093 10.4063 35.8 10.467H32.937V9.893H34.862C34.848 9.66433 34.7663 9.48467 34.617 9.354C34.4723 9.22333 34.2903 9.158 34.071 9.158C33.9123 9.158 33.7653 9.19533 33.63 9.27C33.4947 9.34 33.3873 9.44967 33.308 9.599C33.2333 9.74833 33.196 9.93733 33.196 10.166V10.369C33.196 10.5603 33.231 10.7283 33.301 10.873C33.3757 11.013 33.4783 11.1227 33.609 11.202C33.7397 11.2767 33.8913 11.314 34.064 11.314C34.2367 11.314 34.379 11.2767 34.491 11.202C34.6077 11.1273 34.694 11.0317 34.75 10.915H35.716C35.6507 11.1343 35.541 11.3327 35.387 11.51C35.233 11.6873 35.044 11.8273 34.82 11.93C34.596 12.0327 34.3463 12.084 34.071 12.084ZM35.7129 13.54V12.735H35.9999C36.1493 12.735 36.2543 12.7047 36.3149 12.644C36.3803 12.5833 36.4129 12.4853 36.4129 12.35V8.472H37.3579V12.343C37.3579 12.6323 37.3066 12.8633 37.2039 13.036C37.1059 13.2133 36.9659 13.3417 36.7839 13.421C36.6019 13.5003 36.3873 13.54 36.1399 13.54H35.7129ZM36.8889 7.989C36.7163 7.989 36.5763 7.94 36.4689 7.842C36.3616 7.73933 36.3079 7.611 36.3079 7.457C36.3079 7.303 36.3616 7.177 36.4689 7.079C36.5763 6.97633 36.7163 6.925 36.8889 6.925C37.0616 6.925 37.2016 6.97633 37.3089 7.079C37.4163 7.177 37.4699 7.303 37.4699 7.457C37.4699 7.611 37.4163 7.73933 37.3089 7.842C37.2016 7.94 37.0616 7.989 36.8889 7.989ZM39.7548 12.084C39.4188 12.084 39.1155 12.007 38.8448 11.853C38.5788 11.6943 38.3665 11.4773 38.2078 11.202C38.0538 10.922 37.9768 10.6023 37.9768 10.243C37.9768 9.87433 38.0538 9.55233 38.2078 9.277C38.3665 8.997 38.5812 8.78 38.8518 8.626C39.1225 8.46733 39.4258 8.388 39.7618 8.388C40.1025 8.388 40.4058 8.46733 40.6718 8.626C40.9425 8.78 41.1548 8.997 41.3088 9.277C41.4675 9.55233 41.5468 9.872 41.5468 10.236C41.5468 10.6 41.4675 10.922 41.3088 11.202C41.1548 11.4773 40.9425 11.6943 40.6718 11.853C40.4012 12.007 40.0955 12.084 39.7548 12.084ZM39.7548 11.265C39.9135 11.265 40.0535 11.2277 40.1748 11.153C40.3008 11.0783 40.3988 10.964 40.4688 10.81C40.5435 10.656 40.5808 10.4647 40.5808 10.236C40.5808 10.0073 40.5435 9.81833 40.4688 9.669C40.3988 9.515 40.3008 9.40067 40.1748 9.326C40.0535 9.24667 39.9158 9.207 39.7618 9.207C39.6125 9.207 39.4748 9.24667 39.3488 9.326C39.2228 9.40067 39.1225 9.515 39.0478 9.669C38.9778 9.81833 38.9428 10.0073 38.9428 10.236C38.9428 10.4647 38.9778 10.656 39.0478 10.81C39.1225 10.964 39.2205 11.0783 39.3418 11.153C39.4678 11.2277 39.6055 11.265 39.7548 11.265ZM42.1513 12V8.472H42.9913L43.0823 9.123C43.1663 8.969 43.2713 8.83833 43.3973 8.731C43.528 8.62367 43.675 8.53967 43.8383 8.479C44.0063 8.41833 44.1906 8.388 44.3913 8.388V9.389H44.0693C43.9293 9.389 43.7986 9.40533 43.6773 9.438C43.5606 9.47067 43.458 9.52433 43.3693 9.599C43.2806 9.669 43.213 9.767 43.1663 9.893C43.1196 10.019 43.0963 10.1777 43.0963 10.369V12H42.1513ZM46.243 13.54V8.472H47.083L47.188 8.962C47.2627 8.85933 47.3513 8.766 47.454 8.682C47.5567 8.59333 47.678 8.52333 47.818 8.472C47.9627 8.416 48.1307 8.388 48.322 8.388C48.6533 8.388 48.945 8.46967 49.197 8.633C49.449 8.79633 49.6473 9.018 49.792 9.298C49.9413 9.57333 50.016 9.88833 50.016 10.243C50.016 10.5977 49.9413 10.915 49.792 11.195C49.6427 11.4703 49.442 11.6873 49.19 11.846C48.938 12.0047 48.651 12.084 48.329 12.084C48.0677 12.084 47.8413 12.0373 47.65 11.944C47.4633 11.846 47.3093 11.713 47.188 11.545V13.54H46.243ZM48.105 11.258C48.2917 11.258 48.455 11.216 48.595 11.132C48.7397 11.048 48.8517 10.929 48.931 10.775C49.0103 10.621 49.05 10.4437 49.05 10.243C49.05 10.0423 49.0103 9.865 48.931 9.711C48.8517 9.55233 48.7397 9.431 48.595 9.347C48.455 9.25833 48.2917 9.214 48.105 9.214C47.923 9.214 47.7597 9.25833 47.615 9.347C47.475 9.431 47.363 9.55 47.279 9.704C47.1997 9.858 47.16 10.0353 47.16 10.236C47.16 10.4367 47.1997 10.6163 47.279 10.775C47.363 10.929 47.475 11.048 47.615 11.132C47.7597 11.216 47.923 11.258 48.105 11.258ZM50.6199 12V8.472H51.4599L51.5509 9.123C51.6349 8.969 51.7399 8.83833 51.8659 8.731C51.9966 8.62367 52.1436 8.53967 52.3069 8.479C52.4749 8.41833 52.6593 8.388 52.8599 8.388V9.389H52.5379C52.3979 9.389 52.2673 9.40533 52.1459 9.438C52.0293 9.47067 51.9266 9.52433 51.8379 9.599C51.7493 9.669 51.6816 9.767 51.6349 9.893C51.5883 10.019 51.5649 10.1777 51.5649 10.369V12H50.6199ZM54.9135 12.084C54.5588 12.084 54.2438 12.0093 53.9685 11.86C53.6978 11.706 53.4855 11.4937 53.3315 11.223C53.1822 10.9477 53.1075 10.6303 53.1075 10.271C53.1075 9.90233 53.1822 9.578 53.3315 9.298C53.4855 9.01333 53.6978 8.79167 53.9685 8.633C54.2392 8.46967 54.5542 8.388 54.9135 8.388C55.2635 8.388 55.5692 8.465 55.8305 8.619C56.0918 8.773 56.2948 8.98067 56.4395 9.242C56.5842 9.50333 56.6565 9.79967 56.6565 10.131C56.6565 10.1777 56.6565 10.2313 56.6565 10.292C56.6565 10.348 56.6518 10.4063 56.6425 10.467H53.7795V9.893H55.7045C55.6905 9.66433 55.6088 9.48467 55.4595 9.354C55.3148 9.22333 55.1328 9.158 54.9135 9.158C54.7548 9.158 54.6078 9.19533 54.4725 9.27C54.3372 9.34 54.2298 9.44967 54.1505 9.599C54.0758 9.74833 54.0385 9.93733 54.0385 10.166V10.369C54.0385 10.5603 54.0735 10.7283 54.1435 10.873C54.2182 11.013 54.3208 11.1227 54.4515 11.202C54.5822 11.2767 54.7338 11.314 54.9065 11.314C55.0792 11.314 55.2215 11.2767 55.3335 11.202C55.4502 11.1273 55.5365 11.0317 55.5925 10.915H56.5585C56.4932 11.1343 56.3835 11.3327 56.2295 11.51C56.0755 11.6873 55.8865 11.8273 55.6625 11.93C55.4385 12.0327 55.1888 12.084 54.9135 12.084ZM58.9284 12.084C58.5738 12.084 58.2588 12.0047 57.9834 11.846C57.7081 11.6873 57.4934 11.4703 57.3394 11.195C57.1854 10.9197 57.1084 10.6047 57.1084 10.25C57.1084 9.886 57.1854 9.56633 57.3394 9.291C57.4934 9.011 57.7081 8.79167 57.9834 8.633C58.2588 8.46967 58.5738 8.388 58.9284 8.388C59.3811 8.388 59.7614 8.507 60.0694 8.745C60.3774 8.983 60.5734 9.30967 60.6574 9.725H59.6564C59.6144 9.56167 59.5258 9.43333 59.3904 9.34C59.2598 9.24667 59.1034 9.2 58.9214 9.2C58.7581 9.2 58.6111 9.242 58.4804 9.326C58.3544 9.40533 58.2541 9.52433 58.1794 9.683C58.1094 9.837 58.0744 10.0213 58.0744 10.236C58.0744 10.3993 58.0954 10.5463 58.1374 10.677C58.1794 10.803 58.2378 10.9127 58.3124 11.006C58.3871 11.0947 58.4758 11.1623 58.5784 11.209C58.6858 11.2557 58.8001 11.279 58.9214 11.279C59.0428 11.279 59.1524 11.258 59.2504 11.216C59.3531 11.174 59.4394 11.1157 59.5094 11.041C59.5794 10.9617 59.6284 10.866 59.6564 10.754H60.6574C60.5734 11.16 60.3751 11.4843 60.0624 11.727C59.7544 11.965 59.3764 12.084 58.9284 12.084ZM61.2834 12V8.472H62.2284V12H61.2834ZM61.7594 7.989C61.5914 7.989 61.4514 7.94 61.3394 7.842C61.2321 7.73933 61.1784 7.611 61.1784 7.457C61.1784 7.303 61.2321 7.177 61.3394 7.079C61.4514 6.97633 61.5914 6.925 61.7594 6.925C61.9321 6.925 62.0721 6.97633 62.1794 7.079C62.2914 7.177 62.3474 7.303 62.3474 7.457C62.3474 7.611 62.2914 7.73933 62.1794 7.842C62.0721 7.94 61.9321 7.989 61.7594 7.989ZM64.6393 12.084C64.3033 12.084 64 12.007 63.7293 11.853C63.4633 11.6943 63.251 11.4773 63.0923 11.202C62.9383 10.922 62.8613 10.6023 62.8613 10.243C62.8613 9.87433 62.9383 9.55233 63.0923 9.277C63.251 8.997 63.4656 8.78 63.7363 8.626C64.007 8.46733 64.3103 8.388 64.6463 8.388C64.987 8.388 65.2903 8.46733 65.5563 8.626C65.827 8.78 66.0393 8.997 66.1933 9.277C66.352 9.55233 66.4313 9.872 66.4313 10.236C66.4313 10.6 66.352 10.922 66.1933 11.202C66.0393 11.4773 65.827 11.6943 65.5563 11.853C65.2856 12.007 64.98 12.084 64.6393 12.084ZM64.6393 11.265C64.798 11.265 64.938 11.2277 65.0593 11.153C65.1853 11.0783 65.2833 10.964 65.3533 10.81C65.428 10.656 65.4653 10.4647 65.4653 10.236C65.4653 10.0073 65.428 9.81833 65.3533 9.669C65.2833 9.515 65.1853 9.40067 65.0593 9.326C64.938 9.24667 64.8003 9.207 64.6463 9.207C64.497 9.207 64.3593 9.24667 64.2333 9.326C64.1073 9.40067 64.007 9.515 63.9323 9.669C63.8623 9.81833 63.8273 10.0073 63.8273 10.236C63.8273 10.4647 63.8623 10.656 63.9323 10.81C64.007 10.964 64.105 11.0783 64.2263 11.153C64.3523 11.2277 64.49 11.265 64.6393 11.265ZM68.4732 13.54V8.472H69.3132L69.4182 8.962C69.4929 8.85933 69.5815 8.766 69.6842 8.682C69.7869 8.59333 69.9082 8.52333 70.0482 8.472C70.1929 8.416 70.3609 8.388 70.5522 8.388C70.8835 8.388 71.1752 8.46967 71.4272 8.633C71.6792 8.79633 71.8775 9.018 72.0222 9.298C72.1715 9.57333 72.2462 9.88833 72.2462 10.243C72.2462 10.5977 72.1715 10.915 72.0222 11.195C71.8729 11.4703 71.6722 11.6873 71.4202 11.846C71.1682 12.0047 70.8812 12.084 70.5592 12.084C70.2979 12.084 70.0715 12.0373 69.8802 11.944C69.6935 11.846 69.5395 11.713 69.4182 11.545V13.54H68.4732ZM70.3352 11.258C70.5219 11.258 70.6852 11.216 70.8252 11.132C70.9699 11.048 71.0819 10.929 71.1612 10.775C71.2405 10.621 71.2802 10.4437 71.2802 10.243C71.2802 10.0423 71.2405 9.865 71.1612 9.711C71.0819 9.55233 70.9699 9.431 70.8252 9.347C70.6852 9.25833 70.5219 9.214 70.3352 9.214C70.1532 9.214 69.9899 9.25833 69.8452 9.347C69.7052 9.431 69.5932 9.55 69.5092 9.704C69.4299 9.858 69.3902 10.0353 69.3902 10.236C69.3902 10.4367 69.4299 10.6163 69.5092 10.775C69.5932 10.929 69.7052 11.048 69.8452 11.132C69.9899 11.216 70.1532 11.258 70.3352 11.258ZM74.5161 12.084C74.1801 12.084 73.8768 12.007 73.6061 11.853C73.3401 11.6943 73.1278 11.4773 72.9691 11.202C72.8151 10.922 72.7381 10.6023 72.7381 10.243C72.7381 9.87433 72.8151 9.55233 72.9691 9.277C73.1278 8.997 73.3425 8.78 73.6131 8.626C73.8838 8.46733 74.1871 8.388 74.5231 8.388C74.8638 8.388 75.1671 8.46733 75.4331 8.626C75.7038 8.78 75.9161 8.997 76.0701 9.277C76.2288 9.55233 76.3081 9.872 76.3081 10.236C76.3081 10.6 76.2288 10.922 76.0701 11.202C75.9161 11.4773 75.7038 11.6943 75.4331 11.853C75.1625 12.007 74.8568 12.084 74.5161 12.084ZM74.5161 11.265C74.6748 11.265 74.8148 11.2277 74.9361 11.153C75.0621 11.0783 75.1601 10.964 75.2301 10.81C75.3048 10.656 75.3421 10.4647 75.3421 10.236C75.3421 10.0073 75.3048 9.81833 75.2301 9.669C75.1601 9.515 75.0621 9.40067 74.9361 9.326C74.8148 9.24667 74.6771 9.207 74.5231 9.207C74.3738 9.207 74.2361 9.24667 74.1101 9.326C73.9841 9.40067 73.8838 9.515 73.8091 9.669C73.7391 9.81833 73.7041 10.0073 73.7041 10.236C73.7041 10.4647 73.7391 10.656 73.8091 10.81C73.8838 10.964 73.9818 11.0783 74.1031 11.153C74.2291 11.2277 74.3668 11.265 74.5161 11.265ZM76.9126 12V8.472H77.7526L77.8436 9.123C77.9276 8.969 78.0326 8.83833 78.1586 8.731C78.2893 8.62367 78.4363 8.53967 78.5996 8.479C78.7676 8.41833 78.9519 8.388 79.1526 8.388V9.389H78.8306C78.6906 9.389 78.5599 9.40533 78.4386 9.438C78.3219 9.47067 78.2193 9.52433 78.1306 9.599C78.0419 9.669 77.9743 9.767 77.9276 9.893C77.8809 10.019 77.8576 10.1777 77.8576 10.369V12H76.9126ZM81.0043 12V8.472H81.8373L81.9143 8.941C82.0263 8.773 82.1733 8.64 82.3553 8.542C82.542 8.43933 82.7543 8.388 82.9923 8.388C83.1696 8.388 83.3283 8.41133 83.4683 8.458C83.6083 8.50467 83.732 8.57233 83.8393 8.661C83.9513 8.74967 84.0423 8.86167 84.1123 8.997C84.243 8.80567 84.4133 8.65633 84.6233 8.549C84.8333 8.44167 85.062 8.388 85.3093 8.388C85.6173 8.388 85.874 8.451 86.0793 8.577C86.2846 8.69833 86.4386 8.87567 86.5413 9.109C86.6486 9.34233 86.7023 9.62933 86.7023 9.97V12H85.7643V10.054C85.7643 9.774 85.7083 9.55933 85.5963 9.41C85.489 9.26067 85.321 9.186 85.0923 9.186C84.943 9.186 84.81 9.22333 84.6933 9.298C84.5766 9.37267 84.4856 9.48 84.4203 9.62C84.3596 9.76 84.3293 9.928 84.3293 10.124V12H83.3843V10.054C83.3843 9.774 83.3283 9.55933 83.2163 9.41C83.1043 9.26067 82.9316 9.186 82.6983 9.186C82.5536 9.186 82.423 9.22333 82.3063 9.298C82.1943 9.37267 82.1056 9.48 82.0403 9.62C81.9796 9.76 81.9493 9.928 81.9493 10.124V12H81.0043ZM88.5741 12.084C88.2801 12.084 88.0375 12.0373 87.8461 11.944C87.6548 11.846 87.5125 11.7177 87.4191 11.559C87.3305 11.3957 87.2861 11.216 87.2861 11.02C87.2861 10.8053 87.3398 10.6163 87.4471 10.453C87.5591 10.2897 87.7248 10.1613 87.9441 10.068C88.1681 9.97467 88.4481 9.928 88.7841 9.928H89.6591C89.6591 9.75533 89.6358 9.613 89.5891 9.501C89.5425 9.38433 89.4701 9.298 89.3721 9.242C89.2741 9.186 89.1435 9.158 88.9801 9.158C88.8028 9.158 88.6511 9.19767 88.5251 9.277C88.4038 9.35167 88.3291 9.46833 88.3011 9.627H87.3841C87.4075 9.375 87.4891 9.158 87.6291 8.976C87.7738 8.78933 87.9628 8.64467 88.1961 8.542C88.4341 8.43933 88.6978 8.388 88.9871 8.388C89.3185 8.388 89.6055 8.444 89.8481 8.556C90.0908 8.668 90.2775 8.829 90.4081 9.039C90.5388 9.249 90.6041 9.508 90.6041 9.816V12H89.8061L89.7011 11.461C89.6498 11.5543 89.5891 11.6383 89.5191 11.713C89.4491 11.7877 89.3675 11.853 89.2741 11.909C89.1808 11.965 89.0758 12.007 88.9591 12.035C88.8425 12.0677 88.7141 12.084 88.5741 12.084ZM88.7981 11.356C88.9195 11.356 89.0268 11.335 89.1201 11.293C89.2181 11.2463 89.3021 11.1857 89.3721 11.111C89.4421 11.0317 89.4958 10.943 89.5331 10.845C89.5751 10.7423 89.6031 10.6327 89.6171 10.516V10.509H88.8961C88.7515 10.509 88.6325 10.5277 88.5391 10.565C88.4505 10.5977 88.3851 10.6467 88.3431 10.712C88.3011 10.7773 88.2801 10.852 88.2801 10.936C88.2801 11.0293 88.3011 11.1063 88.3431 11.167C88.3851 11.2277 88.4458 11.2743 88.5251 11.307C88.6045 11.3397 88.6955 11.356 88.7981 11.356ZM91.6007 13.54L92.4547 11.608H92.2447L90.8307 8.472H91.8597L92.8677 10.747L93.7777 8.472H94.7787L92.6017 13.54H91.6007ZM96.5325 12.084C96.1965 12.084 95.8932 12.007 95.6225 11.853C95.3565 11.6943 95.1442 11.4773 94.9855 11.202C94.8315 10.922 94.7545 10.6023 94.7545 10.243C94.7545 9.87433 94.8315 9.55233 94.9855 9.277C95.1442 8.997 95.3588 8.78 95.6295 8.626C95.9002 8.46733 96.2035 8.388 96.5395 8.388C96.8802 8.388 97.1835 8.46733 97.4495 8.626C97.7202 8.78 97.9325 8.997 98.0865 9.277C98.2452 9.55233 98.3245 9.872 98.3245 10.236C98.3245 10.6 98.2452 10.922 98.0865 11.202C97.9325 11.4773 97.7202 11.6943 97.4495 11.853C97.1788 12.007 96.8732 12.084 96.5325 12.084ZM96.5325 11.265C96.6912 11.265 96.8312 11.2277 96.9525 11.153C97.0785 11.0783 97.1765 10.964 97.2465 10.81C97.3212 10.656 97.3585 10.4647 97.3585 10.236C97.3585 10.0073 97.3212 9.81833 97.2465 9.669C97.1765 9.515 97.0785 9.40067 96.9525 9.326C96.8312 9.24667 96.6935 9.207 96.5395 9.207C96.3902 9.207 96.2525 9.24667 96.1265 9.326C96.0005 9.40067 95.9002 9.515 95.8255 9.669C95.7555 9.81833 95.7205 10.0073 95.7205 10.236C95.7205 10.4647 95.7555 10.656 95.8255 10.81C95.9002 10.964 95.9982 11.0783 96.1195 11.153C96.2455 11.2277 96.3832 11.265 96.5325 11.265ZM98.9289 12V8.472H99.7689L99.8599 9.123C99.9439 8.969 100.049 8.83833 100.175 8.731C100.306 8.62367 100.453 8.53967 100.616 8.479C100.784 8.41833 100.968 8.388 101.169 8.388V9.389H100.847C100.707 9.389 100.576 9.40533 100.455 9.438C100.338 9.47067 100.236 9.52433 100.147 9.599C100.058 9.669 99.9906 9.767 99.9439 9.893C99.8973 10.019 99.8739 10.1777 99.8739 10.369V12H98.9289ZM103.223 12.084C102.868 12.084 102.553 12.0093 102.278 11.86C102.007 11.706 101.795 11.4937 101.641 11.223C101.491 10.9477 101.417 10.6303 101.417 10.271C101.417 9.90233 101.491 9.578 101.641 9.298C101.795 9.01333 102.007 8.79167 102.278 8.633C102.548 8.46967 102.863 8.388 103.223 8.388C103.573 8.388 103.878 8.465 104.14 8.619C104.401 8.773 104.604 8.98067 104.749 9.242C104.893 9.50333 104.966 9.79967 104.966 10.131C104.966 10.1777 104.966 10.2313 104.966 10.292C104.966 10.348 104.961 10.4063 104.952 10.467H102.089V9.893H104.014C104 9.66433 103.918 9.48467 103.769 9.354C103.624 9.22333 103.442 9.158 103.223 9.158C103.064 9.158 102.917 9.19533 102.782 9.27C102.646 9.34 102.539 9.44967 102.46 9.599C102.385 9.74833 102.348 9.93733 102.348 10.166V10.369C102.348 10.5603 102.383 10.7283 102.453 10.873C102.527 11.013 102.63 11.1227 102.761 11.202C102.891 11.2767 103.043 11.314 103.216 11.314C103.388 11.314 103.531 11.2767 103.643 11.202C103.759 11.1273 103.846 11.0317 103.902 10.915H104.868C104.802 11.1343 104.693 11.3327 104.539 11.51C104.385 11.6873 104.196 11.8273 103.972 11.93C103.748 12.0327 103.498 12.084 103.223 12.084ZM107.195 12.084C106.859 12.084 106.556 12.007 106.285 11.853C106.019 11.6943 105.807 11.4773 105.648 11.202C105.494 10.922 105.417 10.6023 105.417 10.243C105.417 9.87433 105.494 9.55233 105.648 9.277C105.807 8.997 106.022 8.78 106.292 8.626C106.563 8.46733 106.866 8.388 107.202 8.388C107.543 8.388 107.846 8.46733 108.112 8.626C108.383 8.78 108.595 8.997 108.749 9.277C108.908 9.55233 108.987 9.872 108.987 10.236C108.987 10.6 108.908 10.922 108.749 11.202C108.595 11.4773 108.383 11.6943 108.112 11.853C107.842 12.007 107.536 12.084 107.195 12.084ZM107.195 11.265C107.354 11.265 107.494 11.2277 107.615 11.153C107.741 11.0783 107.839 10.964 107.909 10.81C107.984 10.656 108.021 10.4647 108.021 10.236C108.021 10.0073 107.984 9.81833 107.909 9.669C107.839 9.515 107.741 9.40067 107.615 9.326C107.494 9.24667 107.356 9.207 107.202 9.207C107.053 9.207 106.915 9.24667 106.789 9.326C106.663 9.40067 106.563 9.515 106.488 9.669C106.418 9.81833 106.383 10.0073 106.383 10.236C106.383 10.4647 106.418 10.656 106.488 10.81C106.563 10.964 106.661 11.0783 106.782 11.153C106.908 11.2277 107.046 11.265 107.195 11.265Z" fill="#30BE52"/>
<g clip-path="url(#clip0_2016_5231)">
<path d="M15.9121 14.0477L12.9185 11.6319C12.6558 11.4199 12.6553 11.0328 12.8388 10.7658L16.1606 5.93855C16.2393 5.82409 16.3494 5.75493 16.4813 5.73409L19.1751 5.30766C19.4696 5.26115 19.6914 5.49551 19.7318 5.7957L20.1172 8.6578C20.139 8.81847 20.1019 8.95377 20.0135 9.08212L16.6743 13.935C16.5009 14.1872 16.1467 14.2364 15.9124 14.0474L15.9121 14.0477ZM19.0616 6.61111C19.0616 6.3976 18.9018 6.22455 18.7044 6.22455C18.5069 6.22455 18.3471 6.3976 18.3471 6.61111C18.3471 6.82463 18.5069 6.99768 18.7044 6.99768C18.9018 6.99768 19.0616 6.82463 19.0616 6.61111ZM16.4303 9.20987C16.579 9.09057 16.6891 8.92719 16.7594 8.74508C16.8896 8.40774 16.7747 8.06859 16.5112 7.8587C16.2566 7.65605 15.9294 7.63612 15.6756 7.85719C15.3504 8.14047 15.1583 8.64512 15.4464 9.02625C15.6971 9.35755 16.0959 9.47835 16.4303 9.20956V9.20987ZM18.0766 9.12832L17.7913 8.89729L14.7556 10.3134L15.0255 10.5396L18.0766 9.12802V9.12832ZM17.1652 11.6193C17.4879 11.3577 17.6951 10.8564 17.4315 10.4641C17.3626 10.3614 17.2742 10.2838 17.1755 10.2167C16.9212 10.0443 16.6049 10.0775 16.3809 10.2919C16.0399 10.6184 15.8948 11.1512 16.2527 11.5169C16.5159 11.786 16.8629 11.8645 17.1652 11.6193Z" fill="#30BE52"/>
<path d="M16.0501 5.81171L12.8362 10.4834L12.1225 9.53391C11.9443 9.29443 11.9633 8.96766 12.1613 8.74598L16.2696 5.13401C16.4063 5.01381 16.5407 4.98542 16.7183 5.00626L18.5696 5.22431L16.4459 5.56527C16.2944 5.60242 16.1514 5.66463 16.0501 5.81171Z" fill="#30BE52"/>
<path d="M16.7969 11.3182C16.7076 11.4036 16.6056 11.4133 16.5238 11.3508C16.4421 11.2883 16.4087 11.1759 16.4538 11.0624C16.5331 10.864 16.658 10.6849 16.8092 10.5426C16.8906 10.4659 16.9957 10.4611 17.0769 10.5233C17.158 10.5855 17.1884 10.7009 17.1416 10.8135C17.0627 11.0032 16.9439 11.1774 16.7969 11.3182Z" fill="#30BE52"/>
<path d="M16.0545 8.91503C15.9664 8.99869 15.8654 9.00322 15.7835 8.94161C15.7015 8.88 15.6705 8.76403 15.7171 8.65017C15.798 8.45327 15.9221 8.27327 16.0735 8.13435C16.156 8.05885 16.2578 8.05462 16.3368 8.11442C16.421 8.17814 16.4506 8.28867 16.4045 8.40223C16.3262 8.59491 16.2046 8.77279 16.0543 8.91503H16.0545Z" fill="#30BE52"/>
</g>
<defs>
<clipPath id="clip0_2016_5231">
<rect width="8.12264" height="9.16222" fill="white" transform="translate(12 5)"/>
</clipPath>
</defs>
</svg>
