<svg width="316" height="44" viewBox="0 0 316 44" fill="none" xmlns="http://www.w3.org/2000/svg">
<rect width="316" height="44" rx="7" fill="#D1F4F2" fill-opacity="0.49"/>
<circle cx="25" cy="23" r="11" fill="#FC7C68"/>
<path d="M30.8146 19.0569C30.695 18.9322 30.5361 18.8645 30.368 18.8654L27.2907 18.886C27.1965 18.0656 27.0142 17.439 26.7341 16.9726C26.5491 16.6646 26.319 16.4265 26.05 16.2649C25.7513 16.0854 25.3983 15.9961 25.0014 16.0001C24.6008 16.0027 24.2463 16.0934 23.9476 16.2695C23.676 16.4297 23.4446 16.6642 23.2598 16.9665C22.9768 17.4293 22.7945 18.0578 22.7037 18.8856L19.6165 18.8769C19.6159 18.8769 19.6154 18.8769 19.6148 18.8769C19.4509 18.8769 19.2968 18.9437 19.1807 19.0652C19.0642 19.1871 19 19.3492 19 19.5219L19.0002 26.7359C19.0002 27.0431 19.0569 27.338 19.1689 27.6126C19.2747 27.8721 19.4268 28.1066 19.6209 28.3096C20.0405 28.7484 20.6228 29 21.2185 29L28.9408 28.9754C29.4441 28.9738 29.957 28.7518 30.3483 28.3662C30.7443 27.976 30.9725 27.4587 30.9744 26.9468L31 19.9055V19.5241C31 19.3473 30.9341 19.1814 30.8146 19.0569ZM23.7411 18.8871C23.7857 18.5073 23.8626 18.0545 24.0375 17.6974C24.1369 17.4945 24.2606 17.3397 24.4054 17.2373C24.5586 17.1291 24.7434 17.0741 24.9549 17.0741C24.9693 17.0741 24.984 17.0744 24.9985 17.0748L25.0037 17.075L25.009 17.0747C25.2297 17.0625 25.4224 17.1137 25.5816 17.227C25.7232 17.3279 25.8456 17.4823 25.9455 17.6863C26.1198 18.042 26.2018 18.4841 26.2553 18.8866L23.7411 18.8871ZM22.6205 20.8198C22.6867 21.0916 22.8962 21.2704 23.1411 21.264C23.2592 21.2611 23.3795 21.2114 23.4709 21.1278C23.5732 21.0342 23.6317 20.9069 23.6357 20.7693L23.659 19.9638L26.3386 19.9646L26.3579 20.788C26.3643 21.066 26.5615 21.2953 26.8164 21.3212C26.956 21.3354 27.0901 21.2921 27.1941 21.1991C27.2962 21.1078 27.3626 20.974 27.3812 20.8219L27.3822 20.8129L27.3687 19.9654L29.9726 19.9627L29.9531 26.9294C29.9524 27.1767 29.8264 27.4214 29.5985 27.6184C29.3819 27.8056 29.1041 27.9173 28.8554 27.9173L21.1494 27.9185C20.9006 27.9185 20.6218 27.8081 20.404 27.6232C20.1741 27.4279 20.0469 27.1844 20.0461 26.9373L20.0218 19.9648L22.6289 19.9637L22.6164 20.8032L22.6205 20.8198Z" fill="white"/>
<path d="M45.497 21V16.1H47.079C47.6483 16.1 48.1173 16.2003 48.486 16.401C48.8593 16.6017 49.1347 16.8863 49.312 17.255C49.494 17.619 49.585 18.053 49.585 18.557C49.585 19.0517 49.494 19.4833 49.312 19.852C49.1347 20.216 48.8593 20.4983 48.486 20.699C48.1173 20.8997 47.6483 21 47.079 21H45.497ZM46.337 20.286H47.037C47.4617 20.286 47.7953 20.2183 48.038 20.083C48.2853 19.943 48.4603 19.7447 48.563 19.488C48.6703 19.2267 48.724 18.9163 48.724 18.557C48.724 18.193 48.6703 17.8827 48.563 17.626C48.4603 17.3647 48.2853 17.164 48.038 17.024C47.7953 16.8793 47.4617 16.807 47.037 16.807H46.337V20.286ZM51.9592 21.084C51.6092 21.084 51.3012 21.0093 51.0352 20.86C50.7692 20.706 50.5615 20.4913 50.4122 20.216C50.2629 19.9407 50.1882 19.6233 50.1882 19.264C50.1882 18.8907 50.2605 18.564 50.4052 18.284C50.5545 18.004 50.7622 17.7847 51.0282 17.626C51.2989 17.4673 51.6115 17.388 51.9662 17.388C52.3115 17.388 52.6125 17.465 52.8692 17.619C53.1259 17.773 53.3242 17.9807 53.4642 18.242C53.6042 18.4987 53.6742 18.788 53.6742 19.11C53.6742 19.1567 53.6742 19.208 53.6742 19.264C53.6742 19.32 53.6695 19.3783 53.6602 19.439H50.7902V18.9H52.8272C52.8179 18.6433 52.7315 18.4427 52.5682 18.298C52.4049 18.1487 52.2019 18.074 51.9592 18.074C51.7865 18.074 51.6279 18.1137 51.4832 18.193C51.3385 18.2723 51.2242 18.3913 51.1402 18.55C51.0562 18.704 51.0142 18.9 51.0142 19.138V19.341C51.0142 19.5603 51.0539 19.7493 51.1332 19.908C51.2172 20.0667 51.3292 20.188 51.4692 20.272C51.6139 20.3513 51.7749 20.391 51.9522 20.391C52.1482 20.391 52.3092 20.349 52.4352 20.265C52.5659 20.181 52.6615 20.069 52.7222 19.929H53.5762C53.5109 20.1483 53.4035 20.3467 53.2542 20.524C53.1049 20.6967 52.9205 20.8343 52.7012 20.937C52.4819 21.035 52.2345 21.084 51.9592 21.084ZM55.7868 21.084C55.4741 21.084 55.2011 21.035 54.9678 20.937C54.7391 20.8343 54.5571 20.6943 54.4218 20.517C54.2911 20.335 54.2141 20.1273 54.1908 19.894H55.0308C55.0541 19.992 55.0961 20.083 55.1568 20.167C55.2174 20.2463 55.2991 20.3093 55.4018 20.356C55.5091 20.4027 55.6351 20.426 55.7798 20.426C55.9198 20.426 56.0341 20.4073 56.1228 20.37C56.2114 20.328 56.2768 20.2743 56.3188 20.209C56.3608 20.1437 56.3818 20.0737 56.3818 19.999C56.3818 19.887 56.3514 19.8007 56.2908 19.74C56.2301 19.6793 56.1414 19.6327 56.0248 19.6C55.9128 19.5627 55.7774 19.5277 55.6188 19.495C55.4508 19.4623 55.2874 19.4227 55.1288 19.376C54.9748 19.3247 54.8348 19.2617 54.7088 19.187C54.5874 19.1123 54.4894 19.0167 54.4148 18.9C54.3448 18.7833 54.3098 18.641 54.3098 18.473C54.3098 18.2677 54.3634 18.0833 54.4708 17.92C54.5828 17.7567 54.7414 17.6283 54.9468 17.535C55.1568 17.437 55.4064 17.388 55.6958 17.388C56.1064 17.388 56.4331 17.4837 56.6758 17.675C56.9231 17.8617 57.0678 18.1253 57.1098 18.466H56.3118C56.2884 18.3353 56.2231 18.235 56.1158 18.165C56.0084 18.0903 55.8661 18.053 55.6888 18.053C55.5068 18.053 55.3668 18.088 55.2688 18.158C55.1754 18.2233 55.1288 18.312 55.1288 18.424C55.1288 18.494 55.1568 18.5593 55.2128 18.62C55.2734 18.676 55.3598 18.725 55.4718 18.767C55.5838 18.8043 55.7214 18.8417 55.8848 18.879C56.1461 18.9303 56.3771 18.991 56.5778 19.061C56.7784 19.131 56.9371 19.2337 57.0538 19.369C57.1704 19.5043 57.2288 19.6957 57.2288 19.943C57.2334 20.167 57.1751 20.3653 57.0538 20.538C56.9371 20.7107 56.7714 20.846 56.5568 20.944C56.3421 21.0373 56.0854 21.084 55.7868 21.084ZM59.6468 21.084C59.3015 21.084 58.9912 21.007 58.7158 20.853C58.4452 20.6943 58.2328 20.4773 58.0788 20.202C57.9295 19.922 57.8548 19.6047 57.8548 19.25C57.8548 18.8813 57.9295 18.5593 58.0788 18.284C58.2328 18.004 58.4452 17.7847 58.7158 17.626C58.9912 17.4673 59.3038 17.388 59.6538 17.388C60.0925 17.388 60.4612 17.5047 60.7598 17.738C61.0585 17.9667 61.2498 18.2817 61.3338 18.683H60.4518C60.4052 18.5057 60.3072 18.3657 60.1578 18.263C60.0132 18.1603 59.8405 18.109 59.6398 18.109C59.4672 18.109 59.3085 18.1533 59.1638 18.242C59.0238 18.3307 58.9118 18.459 58.8278 18.627C58.7485 18.795 58.7088 18.998 58.7088 19.236C58.7088 19.418 58.7322 19.579 58.7788 19.719C58.8255 19.859 58.8908 19.978 58.9748 20.076C59.0635 20.1693 59.1638 20.2417 59.2758 20.293C59.3878 20.3443 59.5092 20.37 59.6398 20.37C59.7752 20.37 59.8965 20.349 60.0038 20.307C60.1158 20.2603 60.2092 20.1927 60.2838 20.104C60.3632 20.0153 60.4192 19.9103 60.4518 19.789H61.3338C61.2498 20.181 61.0585 20.496 60.7598 20.734C60.4612 20.9673 60.0902 21.084 59.6468 21.084ZM63.3828 21.084C63.0981 21.084 62.8531 21.028 62.6478 20.916C62.4471 20.7993 62.2931 20.6267 62.1858 20.398C62.0784 20.1647 62.0248 19.8777 62.0248 19.537V17.472H62.8648V19.453C62.8648 19.7563 62.9278 19.9873 63.0538 20.146C63.1844 20.3 63.3804 20.377 63.6418 20.377C63.8098 20.377 63.9591 20.3373 64.0898 20.258C64.2251 20.1787 64.3301 20.0643 64.4048 19.915C64.4841 19.761 64.5238 19.5743 64.5238 19.355V17.472H65.3638V21H64.6218L64.5588 20.412C64.4514 20.6173 64.2951 20.7807 64.0898 20.902C63.8891 21.0233 63.6534 21.084 63.3828 21.084ZM68.2444 21.084C68.0577 21.084 67.8897 21.0583 67.7404 21.007C67.591 20.9603 67.4604 20.895 67.3484 20.811C67.2364 20.7223 67.143 20.622 67.0684 20.51L66.9774 21H66.2284V15.96H67.0684V17.99C67.1804 17.8173 67.332 17.675 67.5234 17.563C67.7147 17.4463 67.9527 17.388 68.2374 17.388C68.5687 17.388 68.8604 17.4697 69.1124 17.633C69.369 17.7917 69.5697 18.011 69.7144 18.291C69.8637 18.5663 69.9384 18.8837 69.9384 19.243C69.9384 19.593 69.866 19.908 69.7214 20.188C69.5767 20.468 69.376 20.6873 69.1194 20.846C68.8674 21.0047 68.5757 21.084 68.2444 21.084ZM68.0694 20.356C68.2654 20.356 68.4404 20.3093 68.5944 20.216C68.7484 20.118 68.8674 19.9873 68.9514 19.824C69.04 19.656 69.0844 19.46 69.0844 19.236C69.0844 19.0167 69.04 18.823 68.9514 18.655C68.8674 18.487 68.7484 18.3563 68.5944 18.263C68.4404 18.1697 68.2654 18.123 68.0694 18.123C67.8687 18.123 67.6914 18.1697 67.5374 18.263C67.388 18.3563 67.269 18.487 67.1804 18.655C67.0964 18.823 67.0544 19.0167 67.0544 19.236C67.0544 19.46 67.0964 19.656 67.1804 19.824C67.269 19.9873 67.388 20.118 67.5374 20.216C67.6914 20.3093 67.8687 20.356 68.0694 20.356ZM70.6838 21V17.472H71.4328L71.5098 18.13C71.5938 17.976 71.6988 17.8453 71.8248 17.738C71.9508 17.626 72.0978 17.5397 72.2658 17.479C72.4384 17.4183 72.6274 17.388 72.8328 17.388V18.277H72.5388C72.3988 18.277 72.2658 18.2957 72.1398 18.333C72.0138 18.3657 71.9041 18.4217 71.8108 18.501C71.7221 18.5757 71.6521 18.6807 71.6008 18.816C71.5494 18.9467 71.5238 19.1123 71.5238 19.313V21H70.6838ZM74.9728 21.084C74.6228 21.084 74.3148 21.0093 74.0488 20.86C73.7828 20.706 73.5751 20.4913 73.4258 20.216C73.2765 19.9407 73.2018 19.6233 73.2018 19.264C73.2018 18.8907 73.2741 18.564 73.4188 18.284C73.5681 18.004 73.7758 17.7847 74.0418 17.626C74.3125 17.4673 74.6251 17.388 74.9798 17.388C75.3251 17.388 75.6261 17.465 75.8828 17.619C76.1395 17.773 76.3378 17.9807 76.4778 18.242C76.6178 18.4987 76.6878 18.788 76.6878 19.11C76.6878 19.1567 76.6878 19.208 76.6878 19.264C76.6878 19.32 76.6831 19.3783 76.6738 19.439H73.8038V18.9H75.8408C75.8315 18.6433 75.7451 18.4427 75.5818 18.298C75.4185 18.1487 75.2155 18.074 74.9728 18.074C74.8001 18.074 74.6415 18.1137 74.4968 18.193C74.3521 18.2723 74.2378 18.3913 74.1538 18.55C74.0698 18.704 74.0278 18.9 74.0278 19.138V19.341C74.0278 19.5603 74.0675 19.7493 74.1468 19.908C74.2308 20.0667 74.3428 20.188 74.4828 20.272C74.6275 20.3513 74.7885 20.391 74.9658 20.391C75.1618 20.391 75.3228 20.349 75.4488 20.265C75.5795 20.181 75.6751 20.069 75.7358 19.929H76.5898C76.5245 20.1483 76.4171 20.3467 76.2678 20.524C76.1185 20.6967 75.9341 20.8343 75.7148 20.937C75.4955 21.035 75.2481 21.084 74.9728 21.084ZM79.0324 21V17.472H79.7744L79.8444 17.955C79.9564 17.7777 80.1034 17.64 80.2854 17.542C80.472 17.4393 80.6844 17.388 80.9224 17.388C81.0997 17.388 81.2584 17.4113 81.3984 17.458C81.543 17.5047 81.669 17.5747 81.7764 17.668C81.8884 17.7613 81.9794 17.878 82.0494 18.018C82.18 17.822 82.3504 17.668 82.5604 17.556C82.7704 17.444 82.999 17.388 83.2464 17.388C83.5404 17.388 83.79 17.4487 83.9954 17.57C84.2007 17.6867 84.357 17.8617 84.4644 18.095C84.5717 18.3237 84.6254 18.606 84.6254 18.942V21H83.7924V19.026C83.7924 18.7273 83.7317 18.4987 83.6104 18.34C83.489 18.1813 83.3094 18.102 83.0714 18.102C82.908 18.102 82.7634 18.1417 82.6374 18.221C82.516 18.3003 82.4204 18.417 82.3504 18.571C82.2804 18.7203 82.2454 18.9047 82.2454 19.124V21H81.4124V19.026C81.4124 18.7273 81.3517 18.4987 81.2304 18.34C81.109 18.1813 80.927 18.102 80.6844 18.102C80.5304 18.102 80.3904 18.1417 80.2644 18.221C80.143 18.3003 80.0474 18.417 79.9774 18.571C79.9074 18.7203 79.8724 18.9047 79.8724 19.124V21H79.0324ZM86.6188 21.084C86.3295 21.084 86.0892 21.035 85.8978 20.937C85.7065 20.839 85.5642 20.7083 85.4708 20.545C85.3775 20.3817 85.3308 20.2043 85.3308 20.013C85.3308 19.789 85.3868 19.5953 85.4988 19.432C85.6155 19.2687 85.7858 19.1427 86.0098 19.054C86.2338 18.9607 86.5092 18.914 86.8358 18.914H87.7248C87.7248 18.7273 87.6992 18.5733 87.6478 18.452C87.5965 18.326 87.5172 18.2327 87.4098 18.172C87.3025 18.1113 87.1648 18.081 86.9968 18.081C86.8055 18.081 86.6422 18.1253 86.5068 18.214C86.3715 18.298 86.2875 18.4287 86.2548 18.606H85.4288C85.4568 18.354 85.5408 18.1393 85.6808 17.962C85.8208 17.78 86.0052 17.64 86.2338 17.542C86.4672 17.4393 86.7215 17.388 86.9968 17.388C87.3282 17.388 87.6105 17.4463 87.8438 17.563C88.0772 17.675 88.2545 17.8383 88.3758 18.053C88.5018 18.263 88.5648 18.5173 88.5648 18.816V21H87.8508L87.7668 20.433C87.7202 20.5263 87.6595 20.6127 87.5848 20.692C87.5148 20.7713 87.4332 20.8413 87.3398 20.902C87.2465 20.958 87.1392 21.0023 87.0178 21.035C86.9012 21.0677 86.7682 21.084 86.6188 21.084ZM86.8078 20.419C86.9432 20.419 87.0622 20.3957 87.1648 20.349C87.2722 20.2977 87.3632 20.2277 87.4378 20.139C87.5172 20.0457 87.5778 19.943 87.6198 19.831C87.6618 19.719 87.6898 19.6 87.7038 19.474V19.46H86.9268C86.7635 19.46 86.6282 19.481 86.5208 19.523C86.4135 19.5603 86.3365 19.6163 86.2898 19.691C86.2432 19.7657 86.2198 19.852 86.2198 19.95C86.2198 20.048 86.2432 20.132 86.2898 20.202C86.3365 20.272 86.4042 20.3257 86.4928 20.363C86.5815 20.4003 86.6865 20.419 86.8078 20.419ZM86.2338 17.171L86.1568 16.604L87.6548 15.729L87.7528 16.38L86.2338 17.171ZM90.7994 21.084C90.4867 21.084 90.2137 21.035 89.9804 20.937C89.7517 20.8343 89.5697 20.6943 89.4344 20.517C89.3037 20.335 89.2267 20.1273 89.2034 19.894H90.0434C90.0667 19.992 90.1087 20.083 90.1694 20.167C90.23 20.2463 90.3117 20.3093 90.4144 20.356C90.5217 20.4027 90.6477 20.426 90.7924 20.426C90.9324 20.426 91.0467 20.4073 91.1354 20.37C91.224 20.328 91.2894 20.2743 91.3314 20.209C91.3734 20.1437 91.3944 20.0737 91.3944 19.999C91.3944 19.887 91.364 19.8007 91.3034 19.74C91.2427 19.6793 91.154 19.6327 91.0374 19.6C90.9254 19.5627 90.79 19.5277 90.6314 19.495C90.4634 19.4623 90.3 19.4227 90.1414 19.376C89.9874 19.3247 89.8474 19.2617 89.7214 19.187C89.6 19.1123 89.502 19.0167 89.4274 18.9C89.3574 18.7833 89.3224 18.641 89.3224 18.473C89.3224 18.2677 89.376 18.0833 89.4834 17.92C89.5954 17.7567 89.754 17.6283 89.9594 17.535C90.1694 17.437 90.419 17.388 90.7084 17.388C91.119 17.388 91.4457 17.4837 91.6884 17.675C91.9357 17.8617 92.0804 18.1253 92.1224 18.466H91.3244C91.301 18.3353 91.2357 18.235 91.1284 18.165C91.021 18.0903 90.8787 18.053 90.7014 18.053C90.5194 18.053 90.3794 18.088 90.2814 18.158C90.188 18.2233 90.1414 18.312 90.1414 18.424C90.1414 18.494 90.1694 18.5593 90.2254 18.62C90.286 18.676 90.3724 18.725 90.4844 18.767C90.5964 18.8043 90.734 18.8417 90.8974 18.879C91.1587 18.9303 91.3897 18.991 91.5904 19.061C91.791 19.131 91.9497 19.2337 92.0664 19.369C92.183 19.5043 92.2414 19.6957 92.2414 19.943C92.246 20.167 92.1877 20.3653 92.0664 20.538C91.9497 20.7107 91.784 20.846 91.5694 20.944C91.3547 21.0373 91.098 21.084 90.7994 21.084ZM96.1934 21.084C95.8667 21.084 95.5751 21.0047 95.3184 20.846C95.0617 20.6873 94.8611 20.468 94.7164 20.188C94.5764 19.908 94.5064 19.5907 94.5064 19.236C94.5064 18.8813 94.5787 18.5663 94.7234 18.291C94.8681 18.011 95.0687 17.7917 95.3254 17.633C95.5867 17.4697 95.8807 17.388 96.2074 17.388C96.4734 17.388 96.7044 17.4393 96.9004 17.542C97.1011 17.64 97.2597 17.78 97.3764 17.962V15.96H98.2164V21H97.4604L97.3764 20.489C97.3017 20.5917 97.2107 20.6897 97.1034 20.783C96.9961 20.8717 96.8677 20.944 96.7184 21C96.5691 21.056 96.3941 21.084 96.1934 21.084ZM96.3684 20.356C96.5691 20.356 96.7464 20.3093 96.9004 20.216C97.0544 20.118 97.1734 19.985 97.2574 19.817C97.3414 19.649 97.3834 19.4553 97.3834 19.236C97.3834 19.0167 97.3414 18.823 97.2574 18.655C97.1734 18.487 97.0544 18.3563 96.9004 18.263C96.7464 18.1697 96.5691 18.123 96.3684 18.123C96.1771 18.123 96.0044 18.1697 95.8504 18.263C95.6964 18.3563 95.5751 18.487 95.4864 18.655C95.4024 18.823 95.3604 19.0167 95.3604 19.236C95.3604 19.4553 95.4024 19.649 95.4864 19.817C95.5751 19.985 95.6964 20.118 95.8504 20.216C96.0044 20.3093 96.1771 20.356 96.3684 20.356ZM100.733 21.084C100.383 21.084 100.075 21.0093 99.8088 20.86C99.5428 20.706 99.3351 20.4913 99.1858 20.216C99.0365 19.9407 98.9618 19.6233 98.9618 19.264C98.9618 18.8907 99.0341 18.564 99.1788 18.284C99.3281 18.004 99.5358 17.7847 99.8018 17.626C100.072 17.4673 100.385 17.388 100.74 17.388C101.085 17.388 101.386 17.465 101.643 17.619C101.899 17.773 102.098 17.9807 102.238 18.242C102.378 18.4987 102.448 18.788 102.448 19.11C102.448 19.1567 102.448 19.208 102.448 19.264C102.448 19.32 102.443 19.3783 102.434 19.439H99.5638V18.9H101.601C101.591 18.6433 101.505 18.4427 101.342 18.298C101.178 18.1487 100.975 18.074 100.733 18.074C100.56 18.074 100.401 18.1137 100.257 18.193C100.112 18.2723 99.9978 18.3913 99.9138 18.55C99.8298 18.704 99.7878 18.9 99.7878 19.138V19.341C99.7878 19.5603 99.8275 19.7493 99.9068 19.908C99.9908 20.0667 100.103 20.188 100.243 20.272C100.387 20.3513 100.548 20.391 100.726 20.391C100.922 20.391 101.083 20.349 101.209 20.265C101.339 20.181 101.435 20.069 101.496 19.929H102.35C102.284 20.1483 102.177 20.3467 102.028 20.524C101.878 20.6967 101.694 20.8343 101.475 20.937C101.255 21.035 101.008 21.084 100.733 21.084ZM104.618 21C104.38 21 104.172 20.9627 103.995 20.888C103.822 20.8133 103.687 20.6897 103.589 20.517C103.491 20.3443 103.442 20.111 103.442 19.817V18.179H102.84V17.472H103.442L103.54 16.541H104.282V17.472H105.241V18.179H104.282V19.817C104.282 19.9943 104.319 20.118 104.394 20.188C104.473 20.2533 104.604 20.286 104.786 20.286H105.22V21H104.618ZM107.137 21.084C106.848 21.084 106.608 21.035 106.416 20.937C106.225 20.839 106.083 20.7083 105.989 20.545C105.896 20.3817 105.849 20.2043 105.849 20.013C105.849 19.789 105.905 19.5953 106.017 19.432C106.134 19.2687 106.304 19.1427 106.528 19.054C106.752 18.9607 107.028 18.914 107.354 18.914H108.243C108.243 18.7273 108.218 18.5733 108.166 18.452C108.115 18.326 108.036 18.2327 107.928 18.172C107.821 18.1113 107.683 18.081 107.515 18.081C107.324 18.081 107.161 18.1253 107.025 18.214C106.89 18.298 106.806 18.4287 106.773 18.606H105.947C105.975 18.354 106.059 18.1393 106.199 17.962C106.339 17.78 106.524 17.64 106.752 17.542C106.986 17.4393 107.24 17.388 107.515 17.388C107.847 17.388 108.129 17.4463 108.362 17.563C108.596 17.675 108.773 17.8383 108.894 18.053C109.02 18.263 109.083 18.5173 109.083 18.816V21H108.369L108.285 20.433C108.239 20.5263 108.178 20.6127 108.103 20.692C108.033 20.7713 107.952 20.8413 107.858 20.902C107.765 20.958 107.658 21.0023 107.536 21.035C107.42 21.0677 107.287 21.084 107.137 21.084ZM107.326 20.419C107.462 20.419 107.581 20.3957 107.683 20.349C107.791 20.2977 107.882 20.2277 107.956 20.139C108.036 20.0457 108.096 19.943 108.138 19.831C108.18 19.719 108.208 19.6 108.222 19.474V19.46H107.445C107.282 19.46 107.147 19.481 107.039 19.523C106.932 19.5603 106.855 19.6163 106.808 19.691C106.762 19.7657 106.738 19.852 106.738 19.95C106.738 20.048 106.762 20.132 106.808 20.202C106.855 20.272 106.923 20.3257 107.011 20.363C107.1 20.4003 107.205 20.419 107.326 20.419ZM109.911 21V15.96H110.751V21H109.911ZM111.618 21V15.96H112.458V21H111.618ZM114.978 21.084C114.628 21.084 114.32 21.0093 114.054 20.86C113.788 20.706 113.58 20.4913 113.431 20.216C113.281 19.9407 113.207 19.6233 113.207 19.264C113.207 18.8907 113.279 18.564 113.424 18.284C113.573 18.004 113.781 17.7847 114.047 17.626C114.317 17.4673 114.63 17.388 114.985 17.388C115.33 17.388 115.631 17.465 115.888 17.619C116.144 17.773 116.343 17.9807 116.483 18.242C116.623 18.4987 116.693 18.788 116.693 19.11C116.693 19.1567 116.693 19.208 116.693 19.264C116.693 19.32 116.688 19.3783 116.679 19.439H113.809V18.9H115.846C115.836 18.6433 115.75 18.4427 115.587 18.298C115.423 18.1487 115.22 18.074 114.978 18.074C114.805 18.074 114.646 18.1137 114.502 18.193C114.357 18.2723 114.243 18.3913 114.159 18.55C114.075 18.704 114.033 18.9 114.033 19.138V19.341C114.033 19.5603 114.072 19.7493 114.152 19.908C114.236 20.0667 114.348 20.188 114.488 20.272C114.632 20.3513 114.793 20.391 114.971 20.391C115.167 20.391 115.328 20.349 115.454 20.265C115.584 20.181 115.68 20.069 115.741 19.929H116.595C116.529 20.1483 116.422 20.3467 116.273 20.524C116.123 20.6967 115.939 20.8343 115.72 20.937C115.5 21.035 115.253 21.084 114.978 21.084ZM118.805 21.084C118.492 21.084 118.219 21.035 117.986 20.937C117.757 20.8343 117.575 20.6943 117.44 20.517C117.309 20.335 117.232 20.1273 117.209 19.894H118.049C118.072 19.992 118.114 20.083 118.175 20.167C118.236 20.2463 118.317 20.3093 118.42 20.356C118.527 20.4027 118.653 20.426 118.798 20.426C118.938 20.426 119.052 20.4073 119.141 20.37C119.23 20.328 119.295 20.2743 119.337 20.209C119.379 20.1437 119.4 20.0737 119.4 19.999C119.4 19.887 119.37 19.8007 119.309 19.74C119.248 19.6793 119.16 19.6327 119.043 19.6C118.931 19.5627 118.796 19.5277 118.637 19.495C118.469 19.4623 118.306 19.4227 118.147 19.376C117.993 19.3247 117.853 19.2617 117.727 19.187C117.606 19.1123 117.508 19.0167 117.433 18.9C117.363 18.7833 117.328 18.641 117.328 18.473C117.328 18.2677 117.382 18.0833 117.489 17.92C117.601 17.7567 117.76 17.6283 117.965 17.535C118.175 17.437 118.425 17.388 118.714 17.388C119.125 17.388 119.451 17.4837 119.694 17.675C119.941 17.8617 120.086 18.1253 120.128 18.466H119.33C119.307 18.3353 119.241 18.235 119.134 18.165C119.027 18.0903 118.884 18.053 118.707 18.053C118.525 18.053 118.385 18.088 118.287 18.158C118.194 18.2233 118.147 18.312 118.147 18.424C118.147 18.494 118.175 18.5593 118.231 18.62C118.292 18.676 118.378 18.725 118.49 18.767C118.602 18.8043 118.74 18.8417 118.903 18.879C119.164 18.9303 119.395 18.991 119.596 19.061C119.797 19.131 119.955 19.2337 120.072 19.369C120.189 19.5043 120.247 19.6957 120.247 19.943C120.252 20.167 120.193 20.3653 120.072 20.538C119.955 20.7107 119.79 20.846 119.575 20.944C119.36 21.0373 119.104 21.084 118.805 21.084ZM120.642 21.861L121.041 20.153H121.86L121.195 21.861H120.642ZM47.002 30C46.764 30 46.5563 29.9627 46.379 29.888C46.2063 29.8133 46.071 29.6897 45.973 29.517C45.875 29.3443 45.826 29.111 45.826 28.817V27.179H45.224V26.472H45.826L45.924 25.541H46.666V26.472H47.625V27.179H46.666V28.817C46.666 28.9943 46.7033 29.118 46.778 29.188C46.8573 29.2533 46.988 29.286 47.17 29.286H47.604V30H47.002ZM49.5213 30.084C49.232 30.084 48.9916 30.035 48.8003 29.937C48.609 29.839 48.4666 29.7083 48.3733 29.545C48.28 29.3817 48.2333 29.2043 48.2333 29.013C48.2333 28.789 48.2893 28.5953 48.4013 28.432C48.518 28.2687 48.6883 28.1427 48.9123 28.054C49.1363 27.9607 49.4116 27.914 49.7383 27.914H50.6273C50.6273 27.7273 50.6016 27.5733 50.5503 27.452C50.499 27.326 50.4196 27.2327 50.3123 27.172C50.205 27.1113 50.0673 27.081 49.8993 27.081C49.708 27.081 49.5446 27.1253 49.4093 27.214C49.274 27.298 49.19 27.4287 49.1573 27.606H48.3313C48.3593 27.354 48.4433 27.1393 48.5833 26.962C48.7233 26.78 48.9076 26.64 49.1363 26.542C49.3696 26.4393 49.624 26.388 49.8993 26.388C50.2306 26.388 50.513 26.4463 50.7463 26.563C50.9796 26.675 51.157 26.8383 51.2783 27.053C51.4043 27.263 51.4673 27.5173 51.4673 27.816V30H50.7533L50.6693 29.433C50.6226 29.5263 50.562 29.6127 50.4873 29.692C50.4173 29.7713 50.3356 29.8413 50.2423 29.902C50.149 29.958 50.0416 30.0023 49.9203 30.035C49.8036 30.0677 49.6706 30.084 49.5213 30.084ZM49.7103 29.419C49.8456 29.419 49.9646 29.3957 50.0673 29.349C50.1746 29.2977 50.2656 29.2277 50.3403 29.139C50.4196 29.0457 50.4803 28.943 50.5223 28.831C50.5643 28.719 50.5923 28.6 50.6063 28.474V28.46H49.8293C49.666 28.46 49.5306 28.481 49.4233 28.523C49.316 28.5603 49.239 28.6163 49.1923 28.691C49.1456 28.7657 49.1223 28.852 49.1223 28.95C49.1223 29.048 49.1456 29.132 49.1923 29.202C49.239 29.272 49.3066 29.3257 49.3953 29.363C49.484 29.4003 49.589 29.419 49.7103 29.419ZM52.2948 30V24.96H53.1348V30H52.2948ZM54.0022 30V24.96H54.8422V30H54.0022ZM55.7095 30V24.96H56.5495V30H55.7095ZM58.5929 30.084C58.3035 30.084 58.0632 30.035 57.8719 29.937C57.6805 29.839 57.5382 29.7083 57.4449 29.545C57.3515 29.3817 57.3049 29.2043 57.3049 29.013C57.3049 28.789 57.3609 28.5953 57.4729 28.432C57.5895 28.2687 57.7599 28.1427 57.9839 28.054C58.2079 27.9607 58.4832 27.914 58.8099 27.914H59.6989C59.6989 27.7273 59.6732 27.5733 59.6219 27.452C59.5705 27.326 59.4912 27.2327 59.3839 27.172C59.2765 27.1113 59.1389 27.081 58.9709 27.081C58.7795 27.081 58.6162 27.1253 58.4809 27.214C58.3455 27.298 58.2615 27.4287 58.2289 27.606H57.4029C57.4309 27.354 57.5149 27.1393 57.6549 26.962C57.7949 26.78 57.9792 26.64 58.2079 26.542C58.4412 26.4393 58.6955 26.388 58.9709 26.388C59.3022 26.388 59.5845 26.4463 59.8179 26.563C60.0512 26.675 60.2285 26.8383 60.3499 27.053C60.4759 27.263 60.5389 27.5173 60.5389 27.816V30H59.8249L59.7409 29.433C59.6942 29.5263 59.6335 29.6127 59.5589 29.692C59.4889 29.7713 59.4072 29.8413 59.3139 29.902C59.2205 29.958 59.1132 30.0023 58.9919 30.035C58.8752 30.0677 58.7422 30.084 58.5929 30.084ZM58.7819 29.419C58.9172 29.419 59.0362 29.3957 59.1389 29.349C59.2462 29.2977 59.3372 29.2277 59.4119 29.139C59.4912 29.0457 59.5519 28.943 59.5939 28.831C59.6359 28.719 59.6639 28.6 59.6779 28.474V28.46H58.9009C58.7375 28.46 58.6022 28.481 58.4949 28.523C58.3875 28.5603 58.3105 28.6163 58.2639 28.691C58.2172 28.7657 58.1939 28.852 58.1939 28.95C58.1939 29.048 58.2172 29.132 58.2639 29.202C58.3105 29.272 58.3782 29.3257 58.4669 29.363C58.5555 29.4003 58.6605 29.419 58.7819 29.419ZM62.7734 30.084C62.4607 30.084 62.1877 30.035 61.9544 29.937C61.7257 29.8343 61.5437 29.6943 61.4084 29.517C61.2777 29.335 61.2007 29.1273 61.1774 28.894H62.0174C62.0407 28.992 62.0827 29.083 62.1434 29.167C62.204 29.2463 62.2857 29.3093 62.3884 29.356C62.4957 29.4027 62.6217 29.426 62.7664 29.426C62.9064 29.426 63.0207 29.4073 63.1094 29.37C63.198 29.328 63.2634 29.2743 63.3054 29.209C63.3474 29.1437 63.3684 29.0737 63.3684 28.999C63.3684 28.887 63.338 28.8007 63.2774 28.74C63.2167 28.6793 63.128 28.6327 63.0114 28.6C62.8994 28.5627 62.764 28.5277 62.6054 28.495C62.4374 28.4623 62.274 28.4227 62.1154 28.376C61.9614 28.3247 61.8214 28.2617 61.6954 28.187C61.574 28.1123 61.476 28.0167 61.4014 27.9C61.3314 27.7833 61.2964 27.641 61.2964 27.473C61.2964 27.2677 61.35 27.0833 61.4574 26.92C61.5694 26.7567 61.728 26.6283 61.9334 26.535C62.1434 26.437 62.393 26.388 62.6824 26.388C63.093 26.388 63.4197 26.4837 63.6624 26.675C63.9097 26.8617 64.0544 27.1253 64.0964 27.466H63.2984C63.275 27.3353 63.2097 27.235 63.1024 27.165C62.995 27.0903 62.8527 27.053 62.6754 27.053C62.4934 27.053 62.3534 27.088 62.2554 27.158C62.162 27.2233 62.1154 27.312 62.1154 27.424C62.1154 27.494 62.1434 27.5593 62.1994 27.62C62.26 27.676 62.3464 27.725 62.4584 27.767C62.5704 27.8043 62.708 27.8417 62.8714 27.879C63.1327 27.9303 63.3637 27.991 63.5644 28.061C63.765 28.131 63.9237 28.2337 64.0404 28.369C64.157 28.5043 64.2154 28.6957 64.2154 28.943C64.22 29.167 64.1617 29.3653 64.0404 29.538C63.9237 29.7107 63.758 29.846 63.5434 29.944C63.3287 30.0373 63.072 30.084 62.7734 30.084ZM67.0264 31.54L67.8874 29.608H67.6774L66.2704 26.472H67.1874L68.2374 28.866L69.2314 26.472H70.1204L67.9154 31.54H67.0264ZM72.2973 30V26.472H73.0463L73.1233 27.13C73.2073 26.976 73.3123 26.8453 73.4383 26.738C73.5643 26.626 73.7113 26.5397 73.8793 26.479C74.052 26.4183 74.241 26.388 74.4463 26.388V27.277H74.1523C74.0123 27.277 73.8793 27.2957 73.7533 27.333C73.6273 27.3657 73.5177 27.4217 73.4243 27.501C73.3357 27.5757 73.2657 27.6807 73.2143 27.816C73.163 27.9467 73.1373 28.1123 73.1373 28.313V30H72.2973ZM76.5864 30.084C76.2364 30.084 75.9284 30.0093 75.6624 29.86C75.3964 29.706 75.1887 29.4913 75.0394 29.216C74.89 28.9407 74.8154 28.6233 74.8154 28.264C74.8154 27.8907 74.8877 27.564 75.0324 27.284C75.1817 27.004 75.3894 26.7847 75.6554 26.626C75.926 26.4673 76.2387 26.388 76.5934 26.388C76.9387 26.388 77.2397 26.465 77.4964 26.619C77.753 26.773 77.9514 26.9807 78.0914 27.242C78.2314 27.4987 78.3014 27.788 78.3014 28.11C78.3014 28.1567 78.3014 28.208 78.3014 28.264C78.3014 28.32 78.2967 28.3783 78.2874 28.439H75.4174V27.9H77.4544C77.445 27.6433 77.3587 27.4427 77.1954 27.298C77.032 27.1487 76.829 27.074 76.5864 27.074C76.4137 27.074 76.255 27.1137 76.1104 27.193C75.9657 27.2723 75.8514 27.3913 75.7674 27.55C75.6834 27.704 75.6414 27.9 75.6414 28.138V28.341C75.6414 28.5603 75.681 28.7493 75.7604 28.908C75.8444 29.0667 75.9564 29.188 76.0964 29.272C76.241 29.3513 76.402 29.391 76.5794 29.391C76.7754 29.391 76.9364 29.349 77.0624 29.265C77.193 29.181 77.2887 29.069 77.3494 28.929H78.2034C78.138 29.1483 78.0307 29.3467 77.8814 29.524C77.732 29.6967 77.5477 29.8343 77.3284 29.937C77.109 30.035 76.8617 30.084 76.5864 30.084ZM80.6799 30.084C80.3346 30.084 80.0243 30.007 79.7489 29.853C79.4783 29.6943 79.2659 29.4773 79.1119 29.202C78.9626 28.922 78.8879 28.6047 78.8879 28.25C78.8879 27.8813 78.9626 27.5593 79.1119 27.284C79.2659 27.004 79.4783 26.7847 79.7489 26.626C80.0243 26.4673 80.3369 26.388 80.6869 26.388C81.1256 26.388 81.4943 26.5047 81.7929 26.738C82.0916 26.9667 82.2829 27.2817 82.3669 27.683H81.4849C81.4383 27.5057 81.3403 27.3657 81.1909 27.263C81.0463 27.1603 80.8736 27.109 80.6729 27.109C80.5003 27.109 80.3416 27.1533 80.1969 27.242C80.0569 27.3307 79.9449 27.459 79.8609 27.627C79.7816 27.795 79.7419 27.998 79.7419 28.236C79.7419 28.418 79.7653 28.579 79.8119 28.719C79.8586 28.859 79.9239 28.978 80.0079 29.076C80.0966 29.1693 80.1969 29.2417 80.3089 29.293C80.4209 29.3443 80.5423 29.37 80.6729 29.37C80.8083 29.37 80.9296 29.349 81.0369 29.307C81.1489 29.2603 81.2423 29.1927 81.3169 29.104C81.3963 29.0153 81.4523 28.9103 81.4849 28.789H82.3669C82.2829 29.181 82.0916 29.496 81.7929 29.734C81.4943 29.9673 81.1233 30.084 80.6799 30.084ZM84.7519 30.084C84.4159 30.084 84.1125 30.007 83.8419 29.853C83.5759 29.6943 83.3659 29.4773 83.2119 29.202C83.0625 28.922 82.9879 28.6023 82.9879 28.243C82.9879 27.8743 83.0649 27.5523 83.2189 27.277C83.3729 26.997 83.5829 26.78 83.8489 26.626C84.1195 26.4673 84.4229 26.388 84.7589 26.388C85.0949 26.388 85.3959 26.4673 85.6619 26.626C85.9325 26.78 86.1425 26.9947 86.2919 27.27C86.4459 27.5453 86.5229 27.8673 86.5229 28.236C86.5229 28.6047 86.4459 28.9267 86.2919 29.202C86.1379 29.4773 85.9255 29.6943 85.6549 29.853C85.3889 30.007 85.0879 30.084 84.7519 30.084ZM84.7519 29.363C84.9199 29.363 85.0715 29.321 85.2069 29.237C85.3469 29.153 85.4589 29.027 85.5429 28.859C85.6269 28.691 85.6689 28.4833 85.6689 28.236C85.6689 27.9887 85.6269 27.7833 85.5429 27.62C85.4635 27.452 85.3539 27.326 85.2139 27.242C85.0785 27.158 84.9269 27.116 84.7589 27.116C84.5955 27.116 84.4439 27.158 84.3039 27.242C84.1639 27.326 84.0519 27.452 83.9679 27.62C83.8839 27.7833 83.8419 27.9887 83.8419 28.236C83.8419 28.4833 83.8839 28.691 83.9679 28.859C84.0519 29.027 84.1615 29.153 84.2969 29.237C84.4369 29.321 84.5885 29.363 84.7519 29.363ZM87.2751 30V26.472H88.0171L88.0871 26.955C88.1991 26.7777 88.3461 26.64 88.5281 26.542C88.7148 26.4393 88.9271 26.388 89.1651 26.388C89.3425 26.388 89.5011 26.4113 89.6411 26.458C89.7858 26.5047 89.9118 26.5747 90.0191 26.668C90.1311 26.7613 90.2221 26.878 90.2921 27.018C90.4228 26.822 90.5931 26.668 90.8031 26.556C91.0131 26.444 91.2418 26.388 91.4891 26.388C91.7831 26.388 92.0328 26.4487 92.2381 26.57C92.4435 26.6867 92.5998 26.8617 92.7071 27.095C92.8145 27.3237 92.8681 27.606 92.8681 27.942V30H92.0351V28.026C92.0351 27.7273 91.9745 27.4987 91.8531 27.34C91.7318 27.1813 91.5521 27.102 91.3141 27.102C91.1508 27.102 91.0061 27.1417 90.8801 27.221C90.7588 27.3003 90.6631 27.417 90.5931 27.571C90.5231 27.7203 90.4881 27.9047 90.4881 28.124V30H89.6551V28.026C89.6551 27.7273 89.5945 27.4987 89.4731 27.34C89.3518 27.1813 89.1698 27.102 88.9271 27.102C88.7731 27.102 88.6331 27.1417 88.5071 27.221C88.3858 27.3003 88.2901 27.417 88.2201 27.571C88.1501 27.7203 88.1151 27.9047 88.1151 28.124V30H87.2751ZM95.3376 30.084C94.9876 30.084 94.6796 30.0093 94.4136 29.86C94.1476 29.706 93.9399 29.4913 93.7906 29.216C93.6413 28.9407 93.5666 28.6233 93.5666 28.264C93.5666 27.8907 93.6389 27.564 93.7836 27.284C93.9329 27.004 94.1406 26.7847 94.4066 26.626C94.6773 26.4673 94.9899 26.388 95.3446 26.388C95.6899 26.388 95.9909 26.465 96.2476 26.619C96.5043 26.773 96.7026 26.9807 96.8426 27.242C96.9826 27.4987 97.0526 27.788 97.0526 28.11C97.0526 28.1567 97.0526 28.208 97.0526 28.264C97.0526 28.32 97.0479 28.3783 97.0386 28.439H94.1686V27.9H96.2056C96.1963 27.6433 96.1099 27.4427 95.9466 27.298C95.7833 27.1487 95.5803 27.074 95.3376 27.074C95.1649 27.074 95.0063 27.1137 94.8616 27.193C94.7169 27.2723 94.6026 27.3913 94.5186 27.55C94.4346 27.704 94.3926 27.9 94.3926 28.138V28.341C94.3926 28.5603 94.4323 28.7493 94.5116 28.908C94.5956 29.0667 94.7076 29.188 94.8476 29.272C94.9923 29.3513 95.1533 29.391 95.3306 29.391C95.5266 29.391 95.6876 29.349 95.8136 29.265C95.9443 29.181 96.0399 29.069 96.1006 28.929H96.9546C96.8893 29.1483 96.7819 29.3467 96.6326 29.524C96.4833 29.6967 96.2989 29.8343 96.0796 29.937C95.8603 30.035 95.6129 30.084 95.3376 30.084ZM97.7582 30V26.472H98.5002L98.5632 27.06C98.6705 26.8547 98.8245 26.6913 99.0252 26.57C99.2258 26.4487 99.4638 26.388 99.7392 26.388C100.024 26.388 100.267 26.4487 100.467 26.57C100.668 26.6867 100.822 26.8593 100.929 27.088C101.041 27.3167 101.097 27.6013 101.097 27.942V30H100.257V28.019C100.257 27.725 100.192 27.4987 100.061 27.34C99.9305 27.1813 99.7368 27.102 99.4802 27.102C99.3122 27.102 99.1605 27.1417 99.0252 27.221C98.8945 27.3003 98.7895 27.417 98.7102 27.571C98.6355 27.7203 98.5982 27.9023 98.5982 28.117V30H97.7582ZM103.481 30.084C103.154 30.084 102.862 30.0047 102.606 29.846C102.349 29.6873 102.148 29.468 102.004 29.188C101.864 28.908 101.794 28.5907 101.794 28.236C101.794 27.8813 101.866 27.5663 102.011 27.291C102.155 27.011 102.356 26.7917 102.613 26.633C102.874 26.4697 103.168 26.388 103.495 26.388C103.761 26.388 103.992 26.4393 104.188 26.542C104.388 26.64 104.547 26.78 104.664 26.962V24.96H105.504V30H104.748L104.664 29.489C104.589 29.5917 104.498 29.6897 104.391 29.783C104.283 29.8717 104.155 29.944 104.006 30C103.856 30.056 103.681 30.084 103.481 30.084ZM103.656 29.356C103.856 29.356 104.034 29.3093 104.188 29.216C104.342 29.118 104.461 28.985 104.545 28.817C104.629 28.649 104.671 28.4553 104.671 28.236C104.671 28.0167 104.629 27.823 104.545 27.655C104.461 27.487 104.342 27.3563 104.188 27.263C104.034 27.1697 103.856 27.123 103.656 27.123C103.464 27.123 103.292 27.1697 103.138 27.263C102.984 27.3563 102.862 27.487 102.774 27.655C102.69 27.823 102.648 28.0167 102.648 28.236C102.648 28.4553 102.69 28.649 102.774 28.817C102.862 28.985 102.984 29.118 103.138 29.216C103.292 29.3093 103.464 29.356 103.656 29.356ZM107.544 30.084C107.255 30.084 107.015 30.035 106.823 29.937C106.632 29.839 106.49 29.7083 106.396 29.545C106.303 29.3817 106.256 29.2043 106.256 29.013C106.256 28.789 106.312 28.5953 106.424 28.432C106.541 28.2687 106.711 28.1427 106.935 28.054C107.159 27.9607 107.435 27.914 107.761 27.914H108.65C108.65 27.7273 108.625 27.5733 108.573 27.452C108.522 27.326 108.443 27.2327 108.335 27.172C108.228 27.1113 108.09 27.081 107.922 27.081C107.731 27.081 107.568 27.1253 107.432 27.214C107.297 27.298 107.213 27.4287 107.18 27.606H106.354C106.382 27.354 106.466 27.1393 106.606 26.962C106.746 26.78 106.931 26.64 107.159 26.542C107.393 26.4393 107.647 26.388 107.922 26.388C108.254 26.388 108.536 26.4463 108.769 26.563C109.003 26.675 109.18 26.8383 109.301 27.053C109.427 27.263 109.49 27.5173 109.49 27.816V30H108.776L108.692 29.433C108.646 29.5263 108.585 29.6127 108.51 29.692C108.44 29.7713 108.359 29.8413 108.265 29.902C108.172 29.958 108.065 30.0023 107.943 30.035C107.827 30.0677 107.694 30.084 107.544 30.084ZM107.733 29.419C107.869 29.419 107.988 29.3957 108.09 29.349C108.198 29.2977 108.289 29.2277 108.363 29.139C108.443 29.0457 108.503 28.943 108.545 28.831C108.587 28.719 108.615 28.6 108.629 28.474V28.46H107.852C107.689 28.46 107.554 28.481 107.446 28.523C107.339 28.5603 107.262 28.6163 107.215 28.691C107.169 28.7657 107.145 28.852 107.145 28.95C107.145 29.048 107.169 29.132 107.215 29.202C107.262 29.272 107.33 29.3257 107.418 29.363C107.507 29.4003 107.612 29.419 107.733 29.419ZM111.991 30.084C111.645 30.084 111.335 30.007 111.06 29.853C110.789 29.6943 110.577 29.4773 110.423 29.202C110.273 28.922 110.199 28.6047 110.199 28.25C110.199 27.8813 110.273 27.5593 110.423 27.284C110.577 27.004 110.789 26.7847 111.06 26.626C111.335 26.4673 111.648 26.388 111.998 26.388C112.436 26.388 112.805 26.5047 113.104 26.738C113.402 26.9667 113.594 27.2817 113.678 27.683H112.796C112.749 27.5057 112.651 27.3657 112.502 27.263C112.357 27.1603 112.184 27.109 111.984 27.109C111.811 27.109 111.652 27.1533 111.508 27.242C111.368 27.3307 111.256 27.459 111.172 27.627C111.092 27.795 111.053 27.998 111.053 28.236C111.053 28.418 111.076 28.579 111.123 28.719C111.169 28.859 111.235 28.978 111.319 29.076C111.407 29.1693 111.508 29.2417 111.62 29.293C111.732 29.3443 111.853 29.37 111.984 29.37C112.119 29.37 112.24 29.349 112.348 29.307C112.46 29.2603 112.553 29.1927 112.628 29.104C112.707 29.0153 112.763 28.9103 112.796 28.789H113.678C113.594 29.181 113.402 29.496 113.104 29.734C112.805 29.9673 112.434 30.084 111.991 30.084ZM114.453 30V26.472H115.293V30H114.453ZM114.873 25.912C114.719 25.912 114.59 25.8653 114.488 25.772C114.39 25.674 114.341 25.555 114.341 25.415C114.341 25.2703 114.39 25.1537 114.488 25.065C114.59 24.9717 114.719 24.925 114.873 24.925C115.027 24.925 115.153 24.9717 115.251 25.065C115.353 25.1537 115.405 25.2703 115.405 25.415C115.405 25.555 115.353 25.674 115.251 25.772C115.153 25.8653 115.027 25.912 114.873 25.912ZM117.838 30.084C117.502 30.084 117.199 30.007 116.928 29.853C116.662 29.6943 116.452 29.4773 116.298 29.202C116.149 28.922 116.074 28.6023 116.074 28.243C116.074 27.8743 116.151 27.5523 116.305 27.277C116.459 26.997 116.669 26.78 116.935 26.626C117.206 26.4673 117.509 26.388 117.845 26.388C118.181 26.388 118.482 26.4673 118.748 26.626C119.019 26.78 119.229 26.9947 119.378 27.27C119.532 27.5453 119.609 27.8673 119.609 28.236C119.609 28.6047 119.532 28.9267 119.378 29.202C119.224 29.4773 119.012 29.6943 118.741 29.853C118.475 30.007 118.174 30.084 117.838 30.084ZM117.838 29.363C118.006 29.363 118.158 29.321 118.293 29.237C118.433 29.153 118.545 29.027 118.629 28.859C118.713 28.691 118.755 28.4833 118.755 28.236C118.755 27.9887 118.713 27.7833 118.629 27.62C118.55 27.452 118.44 27.326 118.3 27.242C118.165 27.158 118.013 27.116 117.845 27.116C117.682 27.116 117.53 27.158 117.39 27.242C117.25 27.326 117.138 27.452 117.054 27.62C116.97 27.7833 116.928 27.9887 116.928 28.236C116.928 28.4833 116.97 28.691 117.054 28.859C117.138 29.027 117.248 29.153 117.383 29.237C117.523 29.321 117.675 29.363 117.838 29.363ZM120.362 30V26.472H121.104L121.167 27.06C121.274 26.8547 121.428 26.6913 121.629 26.57C121.829 26.4487 122.067 26.388 122.343 26.388C122.627 26.388 122.87 26.4487 123.071 26.57C123.271 26.6867 123.425 26.8593 123.533 27.088C123.645 27.3167 123.701 27.6013 123.701 27.942V30H122.861V28.019C122.861 27.725 122.795 27.4987 122.665 27.34C122.534 27.1813 122.34 27.102 122.084 27.102C121.916 27.102 121.764 27.1417 121.629 27.221C121.498 27.3003 121.393 27.417 121.314 27.571C121.239 27.7203 121.202 27.9023 121.202 28.117V30H120.362ZM126.168 30.084C125.818 30.084 125.51 30.0093 125.244 29.86C124.978 29.706 124.771 29.4913 124.621 29.216C124.472 28.9407 124.397 28.6233 124.397 28.264C124.397 27.8907 124.47 27.564 124.614 27.284C124.764 27.004 124.971 26.7847 125.237 26.626C125.508 26.4673 125.821 26.388 126.175 26.388C126.521 26.388 126.822 26.465 127.078 26.619C127.335 26.773 127.533 26.9807 127.673 27.242C127.813 27.4987 127.883 27.788 127.883 28.11C127.883 28.1567 127.883 28.208 127.883 28.264C127.883 28.32 127.879 28.3783 127.869 28.439H124.999V27.9H127.036C127.027 27.6433 126.941 27.4427 126.777 27.298C126.614 27.1487 126.411 27.074 126.168 27.074C125.996 27.074 125.837 27.1137 125.692 27.193C125.548 27.2723 125.433 27.3913 125.349 27.55C125.265 27.704 125.223 27.9 125.223 28.138V28.341C125.223 28.5603 125.263 28.7493 125.342 28.908C125.426 29.0667 125.538 29.188 125.678 29.272C125.823 29.3513 125.984 29.391 126.161 29.391C126.357 29.391 126.518 29.349 126.644 29.265C126.775 29.181 126.871 29.069 126.931 28.929H127.785C127.72 29.1483 127.613 29.3467 127.463 29.524C127.314 29.6967 127.13 29.8343 126.91 29.937C126.691 30.035 126.444 30.084 126.168 30.084ZM129.996 30.084C129.683 30.084 129.41 30.035 129.177 29.937C128.948 29.8343 128.766 29.6943 128.631 29.517C128.5 29.335 128.423 29.1273 128.4 28.894H129.24C129.263 28.992 129.305 29.083 129.366 29.167C129.426 29.2463 129.508 29.3093 129.611 29.356C129.718 29.4027 129.844 29.426 129.989 29.426C130.129 29.426 130.243 29.4073 130.332 29.37C130.42 29.328 130.486 29.2743 130.528 29.209C130.57 29.1437 130.591 29.0737 130.591 28.999C130.591 28.887 130.56 28.8007 130.5 28.74C130.439 28.6793 130.35 28.6327 130.234 28.6C130.122 28.5627 129.986 28.5277 129.828 28.495C129.66 28.4623 129.496 28.4227 129.338 28.376C129.184 28.3247 129.044 28.2617 128.918 28.187C128.796 28.1123 128.698 28.0167 128.624 27.9C128.554 27.7833 128.519 27.641 128.519 27.473C128.519 27.2677 128.572 27.0833 128.68 26.92C128.792 26.7567 128.95 26.6283 129.156 26.535C129.366 26.437 129.615 26.388 129.905 26.388C130.315 26.388 130.642 26.4837 130.885 26.675C131.132 26.8617 131.277 27.1253 131.319 27.466H130.521C130.497 27.3353 130.432 27.235 130.325 27.165C130.217 27.0903 130.075 27.053 129.898 27.053C129.716 27.053 129.576 27.088 129.478 27.158C129.384 27.2233 129.338 27.312 129.338 27.424C129.338 27.494 129.366 27.5593 129.422 27.62C129.482 27.676 129.569 27.725 129.681 27.767C129.793 27.8043 129.93 27.8417 130.094 27.879C130.355 27.9303 130.586 27.991 130.787 28.061C130.987 28.131 131.146 28.2337 131.263 28.369C131.379 28.5043 131.438 28.6957 131.438 28.943C131.442 29.167 131.384 29.3653 131.263 29.538C131.146 29.7107 130.98 29.846 130.766 29.944C130.551 30.0373 130.294 30.084 129.996 30.084ZM132.547 30.035C132.388 30.035 132.26 29.986 132.162 29.888C132.064 29.79 132.015 29.6733 132.015 29.538C132.015 29.3933 132.064 29.272 132.162 29.174C132.26 29.076 132.388 29.027 132.547 29.027C132.701 29.027 132.827 29.076 132.925 29.174C133.023 29.272 133.072 29.3933 133.072 29.538C133.072 29.6733 133.023 29.79 132.925 29.888C132.827 29.986 132.701 30.035 132.547 30.035Z" fill="black"/>
</svg>
