<svg width="137" height="31" viewBox="0 0 137 31" fill="none" xmlns="http://www.w3.org/2000/svg">
<rect width="137" height="31" rx="7" fill="#7FDED9"/>
<path d="M84.1813 20.1436C83.6453 20.1436 83.1773 20.0596 82.7773 19.8916C82.3853 19.7156 82.0733 19.4756 81.8413 19.1716C81.6173 18.8596 81.4853 18.5036 81.4453 18.1036H82.8853C82.9253 18.2716 82.9973 18.4276 83.1013 18.5716C83.2053 18.7076 83.3453 18.8156 83.5213 18.8956C83.7053 18.9756 83.9213 19.0156 84.1693 19.0156C84.4093 19.0156 84.6053 18.9836 84.7573 18.9196C84.9093 18.8476 85.0213 18.7556 85.0933 18.6436C85.1653 18.5316 85.2013 18.4116 85.2013 18.2836C85.2013 18.0916 85.1493 17.9436 85.0453 17.8396C84.9413 17.7356 84.7893 17.6556 84.5893 17.5996C84.3973 17.5356 84.1653 17.4756 83.8933 17.4196C83.6053 17.3636 83.3253 17.2956 83.0533 17.2156C82.7893 17.1276 82.5493 17.0196 82.3333 16.8916C82.1253 16.7636 81.9573 16.5996 81.8293 16.3996C81.7093 16.1996 81.6493 15.9556 81.6493 15.6676C81.6493 15.3156 81.7413 14.9996 81.9253 14.7196C82.1173 14.4396 82.3893 14.2196 82.7413 14.0596C83.1013 13.8916 83.5293 13.8076 84.0253 13.8076C84.7293 13.8076 85.2893 13.9716 85.7053 14.2996C86.1293 14.6196 86.3773 15.0716 86.4493 15.6556H85.0813C85.0413 15.4316 84.9293 15.2596 84.7453 15.1396C84.5613 15.0116 84.3173 14.9476 84.0133 14.9476C83.7013 14.9476 83.4613 15.0076 83.2933 15.1276C83.1333 15.2396 83.0533 15.3916 83.0533 15.5836C83.0533 15.7036 83.1013 15.8156 83.1973 15.9196C83.3013 16.0156 83.4493 16.0996 83.6413 16.1716C83.8333 16.2356 84.0693 16.2996 84.3493 16.3636C84.7973 16.4516 85.1933 16.5556 85.5373 16.6756C85.8813 16.7956 86.1533 16.9716 86.3533 17.2036C86.5533 17.4356 86.6533 17.7636 86.6533 18.1876C86.6613 18.5716 86.5613 18.9116 86.3533 19.2076C86.1533 19.5036 85.8693 19.7356 85.5013 19.9036C85.1333 20.0636 84.6933 20.1436 84.1813 20.1436Z" fill="#076868"/>
<path d="M77.62 20.1436C77.02 20.1436 76.492 20.0156 76.036 19.7596C75.58 19.4956 75.224 19.1276 74.968 18.6556C74.712 18.1836 74.584 17.6396 74.584 17.0236C74.584 16.3836 74.708 15.8236 74.956 15.3436C75.212 14.8636 75.568 14.4876 76.024 14.2156C76.488 13.9436 77.024 13.8076 77.632 13.8076C78.224 13.8076 78.74 13.9396 79.18 14.2036C79.62 14.4676 79.96 14.8236 80.2 15.2716C80.44 15.7116 80.56 16.2076 80.56 16.7596C80.56 16.8396 80.56 16.9276 80.56 17.0236C80.56 17.1196 80.552 17.2196 80.536 17.3236H75.616V16.3996H79.108C79.092 15.9596 78.944 15.6156 78.664 15.3676C78.384 15.1116 78.036 14.9836 77.62 14.9836C77.324 14.9836 77.052 15.0516 76.804 15.1876C76.556 15.3236 76.36 15.5276 76.216 15.7996C76.072 16.0636 76 16.3996 76 16.8076V17.1556C76 17.5316 76.068 17.8556 76.204 18.1276C76.348 18.3996 76.54 18.6076 76.78 18.7516C77.028 18.8876 77.304 18.9556 77.608 18.9556C77.944 18.9556 78.22 18.8836 78.436 18.7396C78.66 18.5956 78.824 18.4036 78.928 18.1636H80.392C80.28 18.5396 80.096 18.8796 79.84 19.1836C79.584 19.4796 79.268 19.7156 78.892 19.8916C78.516 20.0596 78.092 20.1436 77.62 20.1436Z" fill="#076868"/>
<path d="M71.8604 20.0004V11.3604H73.3004V20.0004H71.8604Z" fill="#076868"/>
<path d="M68.9336 20.0004V11.3604H70.3736V20.0004H68.9336Z" fill="#076868"/>
<path d="M64.1797 20.1436C63.6837 20.1436 63.2717 20.0596 62.9437 19.8916C62.6157 19.7236 62.3717 19.4996 62.2117 19.2196C62.0517 18.9396 61.9717 18.6356 61.9717 18.3076C61.9717 17.9236 62.0677 17.5916 62.2597 17.3116C62.4597 17.0316 62.7517 16.8156 63.1357 16.6636C63.5197 16.5036 63.9917 16.4236 64.5517 16.4236H66.0757C66.0757 16.1036 66.0317 15.8396 65.9437 15.6316C65.8557 15.4156 65.7197 15.2556 65.5357 15.1516C65.3517 15.0476 65.1157 14.9956 64.8277 14.9956C64.4997 14.9956 64.2197 15.0716 63.9877 15.2236C63.7557 15.3676 63.6117 15.5916 63.5557 15.8956H62.1397C62.1877 15.4636 62.3317 15.0956 62.5717 14.7916C62.8117 14.4796 63.1277 14.2396 63.5197 14.0716C63.9197 13.8956 64.3557 13.8076 64.8277 13.8076C65.3957 13.8076 65.8797 13.9076 66.2797 14.1076C66.6797 14.2996 66.9837 14.5796 67.1917 14.9476C67.4077 15.3076 67.5157 15.7436 67.5157 16.2556V19.9996H66.2917L66.1477 19.0276C66.0677 19.1876 65.9637 19.3356 65.8357 19.4716C65.7157 19.6076 65.5757 19.7276 65.4157 19.8316C65.2557 19.9276 65.0717 20.0036 64.8637 20.0596C64.6637 20.1156 64.4357 20.1436 64.1797 20.1436ZM64.5037 19.0036C64.7357 19.0036 64.9397 18.9636 65.1157 18.8836C65.2997 18.7956 65.4557 18.6756 65.5837 18.5236C65.7197 18.3636 65.8237 18.1876 65.8957 17.9956C65.9677 17.8036 66.0157 17.5996 66.0397 17.3836V17.3596H64.7077C64.4277 17.3596 64.1957 17.3956 64.0117 17.4676C63.8277 17.5316 63.6957 17.6276 63.6157 17.7556C63.5357 17.8836 63.4957 18.0316 63.4957 18.1996C63.4957 18.3676 63.5357 18.5116 63.6157 18.6316C63.6957 18.7516 63.8117 18.8436 63.9637 18.9076C64.1157 18.9716 64.2957 19.0036 64.5037 19.0036Z" fill="#076868"/>
<path d="M59.8605 20.0004C59.4525 20.0004 59.0965 19.9364 58.7925 19.8084C58.4965 19.6804 58.2645 19.4684 58.0965 19.1724C57.9285 18.8764 57.8445 18.4764 57.8445 17.9724V15.1644H56.8125V13.9524H57.8445L58.0125 12.3564H59.2845V13.9524H60.9285V15.1644H59.2845V17.9724C59.2845 18.2764 59.3485 18.4884 59.4765 18.6084C59.6125 18.7204 59.8365 18.7764 60.1485 18.7764H60.8925V20.0004H59.8605Z" fill="#076868"/>
<path d="M53.2001 20.1436C52.6001 20.1436 52.0721 20.0156 51.6161 19.7596C51.1601 19.4956 50.8041 19.1276 50.5481 18.6556C50.2921 18.1836 50.1641 17.6396 50.1641 17.0236C50.1641 16.3836 50.2881 15.8236 50.5361 15.3436C50.7921 14.8636 51.1481 14.4876 51.6041 14.2156C52.0681 13.9436 52.6041 13.8076 53.2121 13.8076C53.8041 13.8076 54.3201 13.9396 54.7601 14.2036C55.2001 14.4676 55.5401 14.8236 55.7801 15.2716C56.0201 15.7116 56.1401 16.2076 56.1401 16.7596C56.1401 16.8396 56.1401 16.9276 56.1401 17.0236C56.1401 17.1196 56.1321 17.2196 56.1161 17.3236H51.1961V16.3996H54.6881C54.6721 15.9596 54.5241 15.6156 54.2441 15.3676C53.9641 15.1116 53.6161 14.9836 53.2001 14.9836C52.9041 14.9836 52.6321 15.0516 52.3841 15.1876C52.1361 15.3236 51.9401 15.5276 51.7961 15.7996C51.6521 16.0636 51.5801 16.3996 51.5801 16.8076V17.1556C51.5801 17.5316 51.6481 17.8556 51.7841 18.1276C51.9281 18.3996 52.1201 18.6076 52.3601 18.7516C52.6081 18.8876 52.8841 18.9556 53.1881 18.9556C53.5241 18.9556 53.8001 18.8836 54.0161 18.7396C54.2401 18.5956 54.4041 18.4036 54.5081 18.1636H55.9721C55.8601 18.5396 55.6761 18.8796 55.4201 19.1836C55.1641 19.4796 54.8481 19.7156 54.4721 19.8916C54.0961 20.0596 53.6721 20.1436 53.2001 20.1436Z" fill="#076868"/>
<path d="M45.4184 20.1444C44.8584 20.1444 44.3584 20.0084 43.9184 19.7364C43.4784 19.4644 43.1344 19.0884 42.8864 18.6084C42.6464 18.1284 42.5264 17.5844 42.5264 16.9764C42.5264 16.3684 42.6504 15.8284 42.8984 15.3564C43.1464 14.8764 43.4904 14.5004 43.9304 14.2284C44.3784 13.9484 44.8824 13.8084 45.4424 13.8084C45.8984 13.8084 46.2944 13.8964 46.6304 14.0724C46.9744 14.2404 47.2464 14.4804 47.4464 14.7924V11.3604H48.8864V20.0004H47.5904L47.4464 19.1244C47.3184 19.3004 47.1624 19.4684 46.9784 19.6284C46.7944 19.7804 46.5744 19.9044 46.3184 20.0004C46.0624 20.0964 45.7624 20.1444 45.4184 20.1444ZM45.7184 18.8964C46.0624 18.8964 46.3664 18.8164 46.6304 18.6564C46.8944 18.4884 47.0984 18.2604 47.2424 17.9724C47.3864 17.6844 47.4584 17.3524 47.4584 16.9764C47.4584 16.6004 47.3864 16.2684 47.2424 15.9804C47.0984 15.6924 46.8944 15.4684 46.6304 15.3084C46.3664 15.1484 46.0624 15.0684 45.7184 15.0684C45.3904 15.0684 45.0944 15.1484 44.8304 15.3084C44.5664 15.4684 44.3584 15.6924 44.2064 15.9804C44.0624 16.2684 43.9904 16.6004 43.9904 16.9764C43.9904 17.3524 44.0624 17.6844 44.2064 17.9724C44.3584 18.2604 44.5664 18.4884 44.8304 18.6564C45.0944 18.8164 45.3904 18.8964 45.7184 18.8964Z" fill="#076868"/>
<path d="M35.2715 19.9996V13.9516H36.5555L36.6875 15.0796C36.8315 14.8156 37.0115 14.5916 37.2275 14.4076C37.4435 14.2156 37.6955 14.0676 37.9835 13.9636C38.2795 13.8596 38.6035 13.8076 38.9555 13.8076V15.3316H38.4515C38.2115 15.3316 37.9835 15.3636 37.7675 15.4276C37.5515 15.4836 37.3635 15.5796 37.2035 15.7156C37.0515 15.8436 36.9315 16.0236 36.8435 16.2556C36.7555 16.4796 36.7115 16.7636 36.7115 17.1076V19.9996H35.2715Z" fill="#076868"/>
<path d="M31.1219 20.1436C30.5219 20.1436 29.9939 20.0156 29.5379 19.7596C29.0819 19.4956 28.7259 19.1276 28.4699 18.6556C28.2139 18.1836 28.0859 17.6396 28.0859 17.0236C28.0859 16.3836 28.2099 15.8236 28.4579 15.3436C28.7139 14.8636 29.0699 14.4876 29.5259 14.2156C29.9899 13.9436 30.5259 13.8076 31.1339 13.8076C31.7259 13.8076 32.2419 13.9396 32.6819 14.2036C33.1219 14.4676 33.4619 14.8236 33.7019 15.2716C33.9419 15.7116 34.0619 16.2076 34.0619 16.7596C34.0619 16.8396 34.0619 16.9276 34.0619 17.0236C34.0619 17.1196 34.0539 17.2196 34.0379 17.3236H29.1179V16.3996H32.6099C32.5939 15.9596 32.4459 15.6156 32.1659 15.3676C31.8859 15.1116 31.5379 14.9836 31.1219 14.9836C30.8259 14.9836 30.5539 15.0516 30.3059 15.1876C30.0579 15.3236 29.8619 15.5276 29.7179 15.7996C29.5739 16.0636 29.5019 16.3996 29.5019 16.8076V17.1556C29.5019 17.5316 29.5699 17.8556 29.7059 18.1276C29.8499 18.3996 30.0419 18.6076 30.2819 18.7516C30.5299 18.8876 30.8059 18.9556 31.1099 18.9556C31.4459 18.9556 31.7219 18.8836 31.9379 18.7396C32.1619 18.5956 32.3259 18.4036 32.4299 18.1636H33.8939C33.7819 18.5396 33.5979 18.8796 33.3419 19.1836C33.0859 19.4796 32.7699 19.7156 32.3939 19.8916C32.0179 20.0596 31.5939 20.1436 31.1219 20.1436Z" fill="#076868"/>
<path d="M23.2881 19.9996L20.2041 11.5996H21.7521L24.1641 18.5236L26.6121 11.5996H28.1361L25.0401 19.9996H23.2881Z" fill="#076868"/>
<path d="M117 15.5C117 21.299 112.299 26 106.5 26C100.701 26 96 21.299 96 15.5C96 9.70101 100.701 5 106.5 5C112.299 5 117 9.70101 117 15.5Z" fill="#D1F4F2" fill-opacity="0.79"/>
<path d="M105.216 8C105.242 8 105.296 8.01163 105.324 8.01423C107.199 8.17982 108.491 9.96412 107.971 11.7273C107.77 11.5377 107.521 11.4336 107.244 11.4212C107.463 10.488 107.027 9.55275 106.209 9.07404C105.358 8.57543 104.27 8.68088 103.537 9.30956C102.801 9.94147 102.571 10.9492 102.97 11.8294L102.97 13.0941C102.279 12.4858 101.936 11.622 101.996 10.7426C102.094 9.30513 103.273 8.14064 104.76 8.01362C104.796 8.01056 104.826 8.01056 104.852 8H105.216Z" fill="#076868"/>
<path d="M112.979 19.0489C112.875 21.0337 112.239 22.4058 110.085 22.8478C109.364 22.9956 108.62 23.016 107.887 22.9909C107.4 22.9741 106.931 22.9223 106.457 22.8102C105.879 22.6735 105.366 22.4155 104.905 22.0587C104.802 21.9785 104.698 21.9228 104.6 21.829L100.398 17.7947C99.7288 17.1523 99.9728 16.1117 100.618 15.5911C101.148 15.1641 102.121 15.1791 102.577 15.6128L103.556 16.543V10.9717C103.557 10.4681 103.82 10.0155 104.244 9.75262C104.684 9.47959 105.247 9.44087 105.717 9.67212C106.192 9.90535 106.503 10.37 106.506 10.8845L106.514 12.4167C107.367 11.9983 108.291 12.3835 108.594 13.2205C109.032 12.9691 109.549 12.9285 109.998 13.1314C110.367 13.2979 110.627 13.6004 110.766 13.9785C111.335 13.6196 112.147 13.703 112.601 14.19C112.817 14.422 112.992 14.7298 112.993 15.0594L113 18.5876C113 18.7489 112.987 18.8922 112.979 19.0489ZM111.679 14.6227C111.459 14.5844 111.248 14.6268 111.081 14.7661C110.939 14.8841 110.84 15.0679 110.84 15.2705L110.843 16.7912C110.843 17.0369 110.709 17.2476 110.442 17.2416C110.184 17.2358 110.054 17.0294 110.054 16.7912L110.056 14.5518C110.056 14.166 109.672 13.9178 109.336 13.9153C109 13.9129 108.685 14.1814 108.682 14.527L108.668 16.4478C108.666 16.6754 108.424 16.8159 108.214 16.7827C107.976 16.745 107.884 16.5569 107.883 16.3307V13.7868C107.883 13.6161 107.818 13.4511 107.69 13.34C107.473 13.1515 107.152 13.0952 106.887 13.2242C106.692 13.3191 106.524 13.5185 106.523 13.7422L106.519 15.723C106.518 15.9642 106.394 16.1714 106.138 16.1817C105.868 16.1927 105.721 15.9908 105.721 15.7412L105.716 11.0233C105.716 10.711 105.432 10.4649 105.143 10.4347C104.717 10.3905 104.35 10.7009 104.35 11.1096L104.35 18.372L102.15 16.2704C101.967 16.0955 101.672 16.0889 101.425 16.1524C101.212 16.2072 101.026 16.3684 100.922 16.5888C100.81 16.8238 100.827 17.1267 101.031 17.3229L105.038 21.1755C105.743 21.8535 106.611 22.129 107.589 22.2082C108.05 22.2457 108.501 22.2485 108.964 22.2239C109.59 22.1906 110.248 22.0844 110.812 21.8169C111.373 21.5505 111.777 21.0927 111.97 20.5181C112.078 20.1962 112.138 19.8725 112.168 19.5328C112.186 19.3299 112.203 19.1323 112.204 18.9272L112.211 18.1594L112.212 15.2579C112.212 14.9333 112.014 14.681 111.678 14.6228L111.679 14.6227Z" fill="#076868"/>
</svg>
