<svg width="500" height="99" viewBox="0 0 500 99" fill="none" xmlns="http://www.w3.org/2000/svg">
<path d="M0.19218 34.8V1.2H11.0402C14.9442 1.2 18.1602 1.888 20.6882 3.264C23.2482 4.64 25.1362 6.592 26.3522 9.12C27.6002 11.616 28.2242 14.592 28.2242 18.048C28.2242 21.44 27.6002 24.4 26.3522 26.928C25.1362 29.424 23.2482 31.36 20.6882 32.736C18.1602 34.112 14.9442 34.8 11.0402 34.8H0.19218ZM5.95218 29.904H10.7522C13.6642 29.904 15.9522 29.44 17.6162 28.512C19.3122 27.552 20.5122 26.192 21.2162 24.432C21.9522 22.64 22.3202 20.512 22.3202 18.048C22.3202 15.552 21.9522 13.424 21.2162 11.664C20.5122 9.872 19.3122 8.496 17.6162 7.536C15.9522 6.544 13.6642 6.048 10.7522 6.048H5.95218V29.904ZM44.5044 35.376C42.1044 35.376 39.9924 34.864 38.1684 33.84C36.3444 32.784 34.9204 31.312 33.8964 29.424C32.8724 27.536 32.3604 25.36 32.3604 22.896C32.3604 20.336 32.8564 18.096 33.8484 16.176C34.8724 14.256 36.2964 12.752 38.1204 11.664C39.9764 10.576 42.1204 10.032 44.5524 10.032C46.9204 10.032 48.9844 10.56 50.7444 11.616C52.5044 12.672 53.8644 14.096 54.8244 15.888C55.7844 17.648 56.2644 19.632 56.2644 21.84C56.2644 22.16 56.2644 22.512 56.2644 22.896C56.2644 23.28 56.2324 23.68 56.1684 24.096H36.4884V20.4H50.4564C50.3924 18.64 49.8004 17.264 48.6804 16.272C47.5604 15.248 46.1684 14.736 44.5044 14.736C43.3204 14.736 42.2324 15.008 41.2404 15.552C40.2484 16.096 39.4644 16.912 38.8884 18C38.3124 19.056 38.0244 20.4 38.0244 22.032V23.424C38.0244 24.928 38.2964 26.224 38.8404 27.312C39.4164 28.4 40.1844 29.232 41.1444 29.808C42.1364 30.352 43.2404 30.624 44.4564 30.624C45.8004 30.624 46.9044 30.336 47.7684 29.76C48.6644 29.184 49.3204 28.416 49.7364 27.456H55.5924C55.1444 28.96 54.4084 30.32 53.3844 31.536C52.3604 32.72 51.0964 33.664 49.5924 34.368C48.0884 35.04 46.3924 35.376 44.5044 35.376ZM70.7507 35.376C68.6067 35.376 66.7347 35.04 65.1347 34.368C63.5667 33.664 62.3187 32.704 61.3907 31.488C60.4947 30.24 59.9667 28.816 59.8067 27.216H65.5667C65.7267 27.888 66.0147 28.512 66.4307 29.088C66.8467 29.632 67.4067 30.064 68.1107 30.384C68.8467 30.704 69.7107 30.864 70.7027 30.864C71.6627 30.864 72.4467 30.736 73.0547 30.48C73.6627 30.192 74.1107 29.824 74.3987 29.376C74.6867 28.928 74.8307 28.448 74.8307 27.936C74.8307 27.168 74.6227 26.576 74.2067 26.16C73.7907 25.744 73.1827 25.424 72.3827 25.2C71.6147 24.944 70.6867 24.704 69.5987 24.48C68.4467 24.256 67.3267 23.984 66.2387 23.664C65.1827 23.312 64.2227 22.88 63.3587 22.368C62.5267 21.856 61.8547 21.2 61.3427 20.4C60.8627 19.6 60.6227 18.624 60.6227 17.472C60.6227 16.064 60.9907 14.8 61.7267 13.68C62.4947 12.56 63.5827 11.68 64.9907 11.04C66.4307 10.368 68.1427 10.032 70.1267 10.032C72.9427 10.032 75.1827 10.688 76.8467 12C78.5427 13.28 79.5347 15.088 79.8227 17.424H74.3507C74.1907 16.528 73.7427 15.84 73.0067 15.36C72.2707 14.848 71.2947 14.592 70.0787 14.592C68.8307 14.592 67.8707 14.832 67.1987 15.312C66.5587 15.76 66.2387 16.368 66.2387 17.136C66.2387 17.616 66.4307 18.064 66.8147 18.48C67.2307 18.864 67.8227 19.2 68.5907 19.488C69.3587 19.744 70.3027 20 71.4227 20.256C73.2147 20.608 74.7987 21.024 76.1747 21.504C77.5507 21.984 78.6387 22.688 79.4387 23.616C80.2387 24.544 80.6387 25.856 80.6387 27.552C80.6707 29.088 80.2707 30.448 79.4387 31.632C78.6387 32.816 77.5027 33.744 76.0307 34.416C74.5587 35.056 72.7987 35.376 70.7507 35.376ZM95.4159 34.8C93.7839 34.8 92.3599 34.544 91.1439 34.032C89.9599 33.52 89.0319 32.672 88.3599 31.488C87.6879 30.304 87.3519 28.704 87.3519 26.688V15.456H83.2239V10.608H87.3519L88.0239 4.224H93.1119V10.608H99.6879V15.456H93.1119V26.688C93.1119 27.904 93.3679 28.752 93.8799 29.232C94.4239 29.68 95.3199 29.904 96.5679 29.904H99.5439V34.8H95.4159ZM112.691 35.376C110.707 35.376 109.059 35.04 107.747 34.368C106.435 33.696 105.459 32.8 104.819 31.68C104.179 30.56 103.859 29.344 103.859 28.032C103.859 26.496 104.243 25.168 105.011 24.048C105.811 22.928 106.979 22.064 108.515 21.456C110.051 20.816 111.939 20.496 114.179 20.496H120.275C120.275 19.216 120.099 18.16 119.747 17.328C119.395 16.464 118.851 15.824 118.115 15.408C117.379 14.992 116.435 14.784 115.283 14.784C113.971 14.784 112.851 15.088 111.923 15.696C110.995 16.272 110.419 17.168 110.195 18.384H104.531C104.723 16.656 105.299 15.184 106.259 13.968C107.219 12.72 108.483 11.76 110.051 11.088C111.651 10.384 113.395 10.032 115.283 10.032C117.555 10.032 119.491 10.432 121.091 11.232C122.691 12 123.907 13.12 124.739 14.592C125.603 16.032 126.035 17.776 126.035 19.824V34.8H121.139L120.563 30.912C120.243 31.552 119.827 32.144 119.315 32.688C118.835 33.232 118.275 33.712 117.635 34.128C116.995 34.512 116.259 34.816 115.427 35.04C114.627 35.264 113.715 35.376 112.691 35.376ZM113.987 30.816C114.915 30.816 115.731 30.656 116.435 30.336C117.171 29.984 117.795 29.504 118.307 28.896C118.851 28.256 119.267 27.552 119.555 26.784C119.843 26.016 120.035 25.2 120.131 24.336V24.24H114.803C113.683 24.24 112.755 24.384 112.019 24.672C111.283 24.928 110.755 25.312 110.435 25.824C110.115 26.336 109.955 26.928 109.955 27.6C109.955 28.272 110.115 28.848 110.435 29.328C110.755 29.808 111.219 30.176 111.827 30.432C112.435 30.688 113.155 30.816 113.987 30.816ZM143.182 35.376C140.814 35.376 138.686 34.848 136.798 33.792C134.942 32.704 133.486 31.216 132.43 29.328C131.406 27.408 130.894 25.232 130.894 22.8C130.894 20.272 131.406 18.064 132.43 16.176C133.486 14.256 134.942 12.752 136.798 11.664C138.686 10.576 140.83 10.032 143.23 10.032C146.238 10.032 148.766 10.832 150.814 12.432C152.862 14 154.174 16.16 154.75 18.912H148.702C148.382 17.696 147.71 16.736 146.686 16.032C145.694 15.328 144.51 14.976 143.134 14.976C141.95 14.976 140.862 15.28 139.87 15.888C138.91 16.496 138.142 17.376 137.566 18.528C137.022 19.68 136.75 21.072 136.75 22.704C136.75 23.952 136.91 25.056 137.23 26.016C137.55 26.976 137.998 27.792 138.574 28.464C139.182 29.104 139.87 29.6 140.638 29.952C141.406 30.304 142.238 30.48 143.134 30.48C144.062 30.48 144.894 30.336 145.63 30.048C146.398 29.728 147.038 29.264 147.55 28.656C148.094 28.048 148.478 27.328 148.702 26.496H154.75C154.174 29.184 152.862 31.344 150.814 32.976C148.766 34.576 146.222 35.376 143.182 35.376ZM167.887 35.376C165.903 35.376 164.255 35.04 162.943 34.368C161.631 33.696 160.655 32.8 160.015 31.68C159.375 30.56 159.055 29.344 159.055 28.032C159.055 26.496 159.439 25.168 160.207 24.048C161.007 22.928 162.175 22.064 163.711 21.456C165.247 20.816 167.135 20.496 169.375 20.496H175.471C175.471 19.216 175.295 18.16 174.943 17.328C174.591 16.464 174.047 15.824 173.311 15.408C172.575 14.992 171.631 14.784 170.479 14.784C169.167 14.784 168.047 15.088 167.119 15.696C166.191 16.272 165.615 17.168 165.391 18.384H159.727C159.919 16.656 160.495 15.184 161.455 13.968C162.415 12.72 163.679 11.76 165.247 11.088C166.847 10.384 168.591 10.032 170.479 10.032C172.751 10.032 174.687 10.432 176.287 11.232C177.887 12 179.103 13.12 179.935 14.592C180.799 16.032 181.231 17.776 181.231 19.824V34.8H176.335L175.759 30.912C175.439 31.552 175.023 32.144 174.511 32.688C174.031 33.232 173.471 33.712 172.831 34.128C172.191 34.512 171.455 34.816 170.623 35.04C169.823 35.264 168.911 35.376 167.887 35.376ZM169.183 30.816C170.111 30.816 170.927 30.656 171.631 30.336C172.367 29.984 172.991 29.504 173.503 28.896C174.047 28.256 174.463 27.552 174.751 26.784C175.039 26.016 175.231 25.2 175.327 24.336V24.24H169.999C168.879 24.24 167.951 24.384 167.215 24.672C166.479 24.928 165.951 25.312 165.631 25.824C165.311 26.336 165.151 26.928 165.151 27.6C165.151 28.272 165.311 28.848 165.631 29.328C165.951 29.808 166.415 30.176 167.023 30.432C167.631 30.688 168.351 30.816 169.183 30.816ZM208.657 34.8C207.025 34.8 205.601 34.544 204.385 34.032C203.201 33.52 202.273 32.672 201.601 31.488C200.929 30.304 200.593 28.704 200.593 26.688V15.456H196.465V10.608H200.593L201.265 4.224H206.353V10.608H212.929V15.456H206.353V26.688C206.353 27.904 206.609 28.752 207.121 29.232C207.665 29.68 208.561 29.904 209.809 29.904H212.785V34.8H208.657ZM226.844 35.376C224.892 35.376 223.212 34.992 221.804 34.224C220.428 33.424 219.372 32.24 218.636 30.672C217.9 29.072 217.532 27.104 217.532 24.768V10.608H223.292V24.192C223.292 26.272 223.724 27.856 224.588 28.944C225.484 30 226.828 30.528 228.62 30.528C229.772 30.528 230.796 30.256 231.692 29.712C232.62 29.168 233.34 28.384 233.852 27.36C234.396 26.304 234.668 25.024 234.668 23.52V10.608H240.428V34.8H235.34L234.908 30.768C234.172 32.176 233.1 33.296 231.692 34.128C230.316 34.96 228.7 35.376 226.844 35.376ZM269.378 35.376C267.138 35.376 265.138 34.832 263.378 33.744C261.618 32.656 260.242 31.152 259.25 29.232C258.29 27.312 257.81 25.136 257.81 22.704C257.81 20.272 258.306 18.112 259.298 16.224C260.29 14.304 261.666 12.8 263.426 11.712C265.218 10.592 267.234 10.032 269.474 10.032C271.298 10.032 272.882 10.384 274.226 11.088C275.602 11.76 276.69 12.72 277.49 13.968V0.240002H283.25V34.8H278.066L277.49 31.296C276.978 32 276.354 32.672 275.618 33.312C274.882 33.92 274.002 34.416 272.978 34.8C271.954 35.184 270.754 35.376 269.378 35.376ZM270.578 30.384C271.954 30.384 273.17 30.064 274.226 29.424C275.282 28.752 276.098 27.84 276.674 26.688C277.25 25.536 277.538 24.208 277.538 22.704C277.538 21.2 277.25 19.872 276.674 18.72C276.098 17.568 275.282 16.672 274.226 16.032C273.17 15.392 271.954 15.072 270.578 15.072C269.266 15.072 268.082 15.392 267.026 16.032C265.97 16.672 265.138 17.568 264.53 18.72C263.954 19.872 263.666 21.2 263.666 22.704C263.666 24.208 263.954 25.536 264.53 26.688C265.138 27.84 265.97 28.752 267.026 29.424C268.082 30.064 269.266 30.384 270.578 30.384ZM289.418 34.8V10.608H295.178V34.8H289.418ZM292.298 6.768C291.242 6.768 290.362 6.448 289.658 5.808C288.986 5.136 288.65 4.32 288.65 3.36C288.65 2.368 288.986 1.568 289.658 0.960001C290.362 0.320002 291.242 1.90735e-06 292.298 1.90735e-06C293.354 1.90735e-06 294.218 0.320002 294.89 0.960001C295.594 1.568 295.946 2.368 295.946 3.36C295.946 4.32 295.594 5.136 294.89 5.808C294.218 6.448 293.354 6.768 292.298 6.768ZM311.002 35.376C308.858 35.376 306.986 35.04 305.386 34.368C303.818 33.664 302.57 32.704 301.642 31.488C300.746 30.24 300.218 28.816 300.058 27.216H305.818C305.978 27.888 306.266 28.512 306.682 29.088C307.098 29.632 307.658 30.064 308.362 30.384C309.098 30.704 309.962 30.864 310.954 30.864C311.914 30.864 312.698 30.736 313.306 30.48C313.914 30.192 314.362 29.824 314.65 29.376C314.938 28.928 315.082 28.448 315.082 27.936C315.082 27.168 314.874 26.576 314.458 26.16C314.042 25.744 313.434 25.424 312.634 25.2C311.866 24.944 310.938 24.704 309.85 24.48C308.698 24.256 307.578 23.984 306.49 23.664C305.434 23.312 304.474 22.88 303.61 22.368C302.778 21.856 302.106 21.2 301.594 20.4C301.114 19.6 300.874 18.624 300.874 17.472C300.874 16.064 301.242 14.8 301.978 13.68C302.746 12.56 303.834 11.68 305.242 11.04C306.682 10.368 308.394 10.032 310.378 10.032C313.194 10.032 315.434 10.688 317.098 12C318.794 13.28 319.786 15.088 320.074 17.424H314.602C314.442 16.528 313.994 15.84 313.258 15.36C312.522 14.848 311.546 14.592 310.33 14.592C309.082 14.592 308.122 14.832 307.45 15.312C306.81 15.76 306.49 16.368 306.49 17.136C306.49 17.616 306.682 18.064 307.066 18.48C307.482 18.864 308.074 19.2 308.842 19.488C309.61 19.744 310.554 20 311.674 20.256C313.466 20.608 315.05 21.024 316.426 21.504C317.802 21.984 318.89 22.688 319.69 23.616C320.49 24.544 320.89 25.856 320.89 27.552C320.922 29.088 320.522 30.448 319.69 31.632C318.89 32.816 317.754 33.744 316.282 34.416C314.81 35.056 313.05 35.376 311.002 35.376ZM337.327 35.376C334.927 35.376 332.815 34.864 330.991 33.84C329.167 32.784 327.743 31.312 326.719 29.424C325.695 27.536 325.183 25.36 325.183 22.896C325.183 20.336 325.679 18.096 326.671 16.176C327.695 14.256 329.119 12.752 330.943 11.664C332.799 10.576 334.943 10.032 337.375 10.032C339.743 10.032 341.807 10.56 343.567 11.616C345.327 12.672 346.687 14.096 347.647 15.888C348.607 17.648 349.087 19.632 349.087 21.84C349.087 22.16 349.087 22.512 349.087 22.896C349.087 23.28 349.055 23.68 348.991 24.096H329.311V20.4H343.279C343.215 18.64 342.623 17.264 341.503 16.272C340.383 15.248 338.991 14.736 337.327 14.736C336.143 14.736 335.055 15.008 334.063 15.552C333.071 16.096 332.287 16.912 331.711 18C331.135 19.056 330.847 20.4 330.847 22.032V23.424C330.847 24.928 331.119 26.224 331.663 27.312C332.239 28.4 333.007 29.232 333.967 29.808C334.959 30.352 336.063 30.624 337.279 30.624C338.623 30.624 339.727 30.336 340.591 29.76C341.487 29.184 342.143 28.416 342.559 27.456H348.415C347.967 28.96 347.231 30.32 346.207 31.536C345.183 32.72 343.919 33.664 342.415 34.368C340.911 35.04 339.215 35.376 337.327 35.376ZM353.925 34.8V10.608H359.013L359.445 14.64C360.181 13.232 361.237 12.112 362.613 11.28C363.989 10.448 365.621 10.032 367.509 10.032C369.461 10.032 371.125 10.448 372.501 11.28C373.877 12.08 374.933 13.264 375.669 14.832C376.437 16.4 376.821 18.352 376.821 20.688V34.8H371.061V21.216C371.061 19.2 370.613 17.648 369.717 16.56C368.821 15.472 367.493 14.928 365.733 14.928C364.581 14.928 363.541 15.2 362.613 15.744C361.717 16.288 360.997 17.088 360.453 18.144C359.941 19.168 359.685 20.416 359.685 21.888V34.8H353.925ZM368.997 7.44C368.101 7.44 367.333 7.264 366.693 6.912C366.085 6.528 365.509 6.16 364.965 5.808C364.421 5.424 363.829 5.232 363.189 5.232C362.645 5.232 362.181 5.408 361.797 5.76C361.445 6.112 361.221 6.656 361.125 7.392H358.005C358.293 5.408 358.917 3.952 359.877 3.024C360.837 2.096 362.021 1.632 363.429 1.632C364.325 1.632 365.077 1.824 365.685 2.208C366.325 2.56 366.917 2.928 367.461 3.312C368.005 3.664 368.597 3.84 369.237 3.84C369.781 3.84 370.229 3.664 370.581 3.312C370.965 2.928 371.205 2.384 371.301 1.68H374.469C374.181 3.632 373.541 5.088 372.549 6.048C371.589 6.976 370.405 7.44 368.997 7.44ZM393.694 35.376C391.39 35.376 389.31 34.848 387.454 33.792C385.63 32.704 384.19 31.216 383.134 29.328C382.11 27.408 381.598 25.216 381.598 22.752C381.598 20.224 382.126 18.016 383.182 16.128C384.238 14.208 385.678 12.72 387.502 11.664C389.358 10.576 391.438 10.032 393.742 10.032C396.046 10.032 398.11 10.576 399.934 11.664C401.79 12.72 403.23 14.192 404.254 16.08C405.31 17.968 405.838 20.176 405.838 22.704C405.838 25.232 405.31 27.44 404.254 29.328C403.198 31.216 401.742 32.704 399.886 33.792C398.062 34.848 395.998 35.376 393.694 35.376ZM393.694 30.432C394.846 30.432 395.886 30.144 396.814 29.568C397.774 28.992 398.542 28.128 399.118 26.976C399.694 25.824 399.982 24.4 399.982 22.704C399.982 21.008 399.694 19.6 399.118 18.48C398.574 17.328 397.822 16.464 396.862 15.888C395.934 15.312 394.894 15.024 393.742 15.024C392.622 15.024 391.582 15.312 390.622 15.888C389.662 16.464 388.894 17.328 388.318 18.48C387.742 19.6 387.454 21.008 387.454 22.704C387.454 24.4 387.742 25.824 388.318 26.976C388.894 28.128 389.646 28.992 390.574 29.568C391.534 30.144 392.574 30.432 393.694 30.432ZM434.306 35.376C432.034 35.376 429.986 34.848 428.162 33.792C426.37 32.736 424.962 31.264 423.938 29.376C422.914 27.456 422.402 25.248 422.402 22.752C422.402 20.192 422.914 17.968 423.938 16.08C424.962 14.192 426.37 12.72 428.162 11.664C429.986 10.576 432.034 10.032 434.306 10.032C437.186 10.032 439.586 10.784 441.506 12.288C443.426 13.76 444.642 15.744 445.154 18.24H441.026C440.706 16.736 439.922 15.568 438.674 14.736C437.426 13.904 435.954 13.488 434.258 13.488C432.882 13.488 431.602 13.84 430.418 14.544C429.234 15.216 428.29 16.24 427.586 17.616C426.882 18.992 426.53 20.688 426.53 22.704C426.53 24.208 426.738 25.552 427.154 26.736C427.57 27.888 428.13 28.848 428.834 29.616C429.538 30.384 430.354 30.976 431.282 31.392C432.242 31.776 433.234 31.968 434.258 31.968C435.41 31.968 436.45 31.792 437.378 31.44C438.306 31.056 439.09 30.496 439.73 29.76C440.37 29.024 440.802 28.16 441.026 27.168H445.154C444.642 29.6 443.41 31.584 441.458 33.12C439.538 34.624 437.154 35.376 434.306 35.376ZM461.199 35.376C458.959 35.376 456.943 34.864 455.151 33.84C453.359 32.784 451.951 31.312 450.927 29.424C449.903 27.504 449.391 25.28 449.391 22.752C449.391 20.16 449.903 17.92 450.927 16.032C451.983 14.112 453.407 12.64 455.199 11.616C457.023 10.56 459.055 10.032 461.295 10.032C463.599 10.032 465.631 10.56 467.391 11.616C469.183 12.64 470.591 14.112 471.615 16.032C472.671 17.92 473.199 20.144 473.199 22.704C473.199 25.264 472.671 27.504 471.615 29.424C470.559 31.312 469.135 32.784 467.343 33.84C465.551 34.864 463.503 35.376 461.199 35.376ZM461.247 31.92C462.623 31.92 463.903 31.584 465.087 30.912C466.271 30.208 467.231 29.168 467.967 27.792C468.703 26.416 469.071 24.72 469.071 22.704C469.071 20.656 468.703 18.96 467.967 17.616C467.263 16.24 466.319 15.216 465.135 14.544C463.983 13.84 462.703 13.488 461.295 13.488C459.951 13.488 458.671 13.84 457.455 14.544C456.271 15.216 455.311 16.24 454.575 17.616C453.871 18.96 453.519 20.656 453.519 22.704C453.519 24.72 453.871 26.416 454.575 27.792C455.311 29.168 456.255 30.208 457.407 30.912C458.591 31.584 459.871 31.92 461.247 31.92ZM478.372 34.8V10.608H482.02L482.212 14.832C482.98 13.328 484.068 12.16 485.476 11.328C486.916 10.464 488.548 10.032 490.372 10.032C492.26 10.032 493.892 10.416 495.268 11.184C496.644 11.92 497.716 13.056 498.484 14.592C499.252 16.096 499.636 18.016 499.636 20.352V34.8H495.604V20.784C495.604 18.352 495.06 16.528 493.972 15.312C492.916 14.096 491.412 13.488 489.46 13.488C488.116 13.488 486.916 13.824 485.86 14.496C484.804 15.136 483.956 16.08 483.316 17.328C482.708 18.544 482.404 20.064 482.404 21.888V34.8H478.372Z" fill="#333333"/>
<path d="M0.000179768 87.8V63.608H5.08818L5.52018 67.64C6.25618 66.232 7.31218 65.112 8.68818 64.28C10.0642 63.448 11.6962 63.032 13.5842 63.032C15.5362 63.032 17.2002 63.448 18.5762 64.28C19.9522 65.08 21.0082 66.264 21.7442 67.832C22.5122 69.4 22.8962 71.352 22.8962 73.688V87.8H17.1362V74.216C17.1362 72.2 16.6882 70.648 15.7922 69.56C14.8962 68.472 13.5682 67.928 11.8082 67.928C10.6562 67.928 9.61618 68.2 8.68818 68.744C7.79218 69.288 7.07218 70.088 6.52818 71.144C6.01618 72.168 5.76018 73.416 5.76018 74.888V87.8H0.000179768ZM37.4649 88.376C35.5129 88.376 33.8329 87.992 32.4249 87.224C31.0489 86.424 29.9929 85.24 29.2569 83.672C28.5209 82.072 28.1529 80.104 28.1529 77.768V63.608H33.9129V77.192C33.9129 79.272 34.3449 80.856 35.2089 81.944C36.1049 83 37.4489 83.528 39.2409 83.528C40.3929 83.528 41.4169 83.256 42.3129 82.712C43.2409 82.168 43.9609 81.384 44.4729 80.36C45.0169 79.304 45.2889 78.024 45.2889 76.52V63.608H51.0489V87.8H45.9609L45.5289 83.768C44.7929 85.176 43.7209 86.296 42.3129 87.128C40.9369 87.96 39.3209 88.376 37.4649 88.376ZM68.3057 88.376C65.9057 88.376 63.7937 87.864 61.9697 86.84C60.1457 85.784 58.7217 84.312 57.6977 82.424C56.6737 80.536 56.1617 78.36 56.1617 75.896C56.1617 73.336 56.6577 71.096 57.6497 69.176C58.6737 67.256 60.0977 65.752 61.9217 64.664C63.7777 63.576 65.9217 63.032 68.3537 63.032C70.7217 63.032 72.7857 63.56 74.5457 64.616C76.3057 65.672 77.6657 67.096 78.6257 68.888C79.5857 70.648 80.0657 72.632 80.0657 74.84C80.0657 75.16 80.0657 75.512 80.0657 75.896C80.0657 76.28 80.0337 76.68 79.9697 77.096H60.2897V73.4H74.2577C74.1937 71.64 73.6017 70.264 72.4817 69.272C71.3617 68.248 69.9697 67.736 68.3057 67.736C67.1217 67.736 66.0337 68.008 65.0417 68.552C64.0497 69.096 63.2657 69.912 62.6897 71C62.1137 72.056 61.8257 73.4 61.8257 75.032V76.424C61.8257 77.928 62.0977 79.224 62.6417 80.312C63.2177 81.4 63.9857 82.232 64.9457 82.808C65.9377 83.352 67.0417 83.624 68.2577 83.624C69.6017 83.624 70.7057 83.336 71.5697 82.76C72.4657 82.184 73.1217 81.416 73.5377 80.456H79.3937C78.9457 81.96 78.2097 83.32 77.1857 84.536C76.1617 85.72 74.8977 86.664 73.3937 87.368C71.8897 88.04 70.1937 88.376 68.3057 88.376ZM94.5519 88.376C92.4079 88.376 90.5359 88.04 88.9359 87.368C87.3679 86.664 86.1199 85.704 85.1919 84.488C84.2959 83.24 83.7679 81.816 83.6079 80.216H89.3679C89.5279 80.888 89.8159 81.512 90.2319 82.088C90.6479 82.632 91.2079 83.064 91.9119 83.384C92.6479 83.704 93.5119 83.864 94.5039 83.864C95.4639 83.864 96.2479 83.736 96.8559 83.48C97.4639 83.192 97.9119 82.824 98.1999 82.376C98.4879 81.928 98.6319 81.448 98.6319 80.936C98.6319 80.168 98.4239 79.576 98.0079 79.16C97.5919 78.744 96.9839 78.424 96.1839 78.2C95.4159 77.944 94.4879 77.704 93.3999 77.48C92.2479 77.256 91.1279 76.984 90.0399 76.664C88.9839 76.312 88.0239 75.88 87.1599 75.368C86.3279 74.856 85.6559 74.2 85.1439 73.4C84.6639 72.6 84.4239 71.624 84.4239 70.472C84.4239 69.064 84.7919 67.8 85.5279 66.68C86.2959 65.56 87.3839 64.68 88.7919 64.04C90.2319 63.368 91.9439 63.032 93.9279 63.032C96.7439 63.032 98.9839 63.688 100.648 65C102.344 66.28 103.336 68.088 103.624 70.424H98.1519C97.9919 69.528 97.5439 68.84 96.8079 68.36C96.0719 67.848 95.0959 67.592 93.8799 67.592C92.6319 67.592 91.6719 67.832 90.9999 68.312C90.3599 68.76 90.0399 69.368 90.0399 70.136C90.0399 70.616 90.2319 71.064 90.6159 71.48C91.0319 71.864 91.6239 72.2 92.3919 72.488C93.1599 72.744 94.1039 73 95.2239 73.256C97.0159 73.608 98.5999 74.024 99.9759 74.504C101.352 74.984 102.44 75.688 103.24 76.616C104.04 77.544 104.44 78.856 104.44 80.552C104.472 82.088 104.072 83.448 103.24 84.632C102.44 85.816 101.304 86.744 99.8319 87.416C98.3599 88.056 96.5999 88.376 94.5519 88.376ZM119.217 87.8C117.585 87.8 116.161 87.544 114.945 87.032C113.761 86.52 112.833 85.672 112.161 84.488C111.489 83.304 111.153 81.704 111.153 79.688V68.456H107.025V63.608H111.153L111.825 57.224H116.913V63.608H123.489V68.456H116.913V79.688C116.913 80.904 117.169 81.752 117.681 82.232C118.225 82.68 119.121 82.904 120.369 82.904H123.345V87.8H119.217ZM128.428 87.8V63.608H133.564L134.092 68.12C134.668 67.064 135.388 66.168 136.252 65.432C137.116 64.664 138.124 64.072 139.276 63.656C140.46 63.24 141.756 63.032 143.164 63.032V69.128H141.148C140.188 69.128 139.276 69.256 138.412 69.512C137.548 69.736 136.796 70.12 136.156 70.664C135.548 71.176 135.068 71.896 134.716 72.824C134.364 73.72 134.188 74.856 134.188 76.232V87.8H128.428ZM157.791 88.376C155.487 88.376 153.407 87.848 151.551 86.792C149.727 85.704 148.287 84.216 147.231 82.328C146.207 80.408 145.695 78.216 145.695 75.752C145.695 73.224 146.223 71.016 147.279 69.128C148.335 67.208 149.775 65.72 151.599 64.664C153.455 63.576 155.535 63.032 157.839 63.032C160.143 63.032 162.207 63.576 164.031 64.664C165.887 65.72 167.327 67.192 168.351 69.08C169.407 70.968 169.935 73.176 169.935 75.704C169.935 78.232 169.407 80.44 168.351 82.328C167.295 84.216 165.839 85.704 163.983 86.792C162.159 87.848 160.095 88.376 157.791 88.376ZM157.791 83.432C158.943 83.432 159.983 83.144 160.911 82.568C161.871 81.992 162.639 81.128 163.215 79.976C163.791 78.824 164.079 77.4 164.079 75.704C164.079 74.008 163.791 72.6 163.215 71.48C162.671 70.328 161.919 69.464 160.959 68.888C160.031 68.312 158.991 68.024 157.839 68.024C156.719 68.024 155.679 68.312 154.719 68.888C153.759 69.464 152.991 70.328 152.415 71.48C151.839 72.6 151.551 74.008 151.551 75.704C151.551 77.4 151.839 78.824 152.415 79.976C152.991 81.128 153.743 81.992 154.671 82.568C155.631 83.144 156.671 83.432 157.791 83.432ZM184.741 88.376C182.597 88.376 180.725 88.04 179.125 87.368C177.557 86.664 176.309 85.704 175.381 84.488C174.485 83.24 173.957 81.816 173.797 80.216H179.557C179.717 80.888 180.005 81.512 180.421 82.088C180.837 82.632 181.397 83.064 182.101 83.384C182.837 83.704 183.701 83.864 184.693 83.864C185.653 83.864 186.437 83.736 187.045 83.48C187.653 83.192 188.101 82.824 188.389 82.376C188.677 81.928 188.821 81.448 188.821 80.936C188.821 80.168 188.613 79.576 188.197 79.16C187.781 78.744 187.173 78.424 186.373 78.2C185.605 77.944 184.677 77.704 183.589 77.48C182.437 77.256 181.317 76.984 180.229 76.664C179.173 76.312 178.213 75.88 177.349 75.368C176.517 74.856 175.845 74.2 175.333 73.4C174.853 72.6 174.613 71.624 174.613 70.472C174.613 69.064 174.981 67.8 175.717 66.68C176.485 65.56 177.573 64.68 178.981 64.04C180.421 63.368 182.133 63.032 184.117 63.032C186.933 63.032 189.173 63.688 190.837 65C192.533 66.28 193.525 68.088 193.813 70.424H188.341C188.181 69.528 187.733 68.84 186.997 68.36C186.261 67.848 185.285 67.592 184.069 67.592C182.821 67.592 181.861 67.832 181.189 68.312C180.549 68.76 180.229 69.368 180.229 70.136C180.229 70.616 180.421 71.064 180.805 71.48C181.221 71.864 181.813 72.2 182.581 72.488C183.349 72.744 184.293 73 185.413 73.256C187.205 73.608 188.789 74.024 190.165 74.504C191.541 74.984 192.629 75.688 193.429 76.616C194.229 77.544 194.629 78.856 194.629 80.552C194.661 82.088 194.261 83.448 193.429 84.632C192.629 85.816 191.493 86.744 190.021 87.416C188.549 88.056 186.789 88.376 184.741 88.376ZM210.977 98.36V63.608H216.113L216.737 67.112C217.249 66.408 217.857 65.752 218.561 65.144C219.297 64.504 220.177 63.992 221.201 63.608C222.257 63.224 223.457 63.032 224.801 63.032C227.073 63.032 229.073 63.592 230.801 64.712C232.561 65.832 233.937 67.352 234.929 69.272C235.921 71.16 236.417 73.32 236.417 75.752C236.417 78.184 235.905 80.36 234.881 82.28C233.889 84.168 232.513 85.656 230.753 86.744C229.025 87.832 227.041 88.376 224.801 88.376C222.977 88.376 221.377 88.04 220.001 87.368C218.657 86.664 217.569 85.672 216.737 84.392V98.36H210.977ZM223.601 83.384C224.945 83.384 226.145 83.064 227.201 82.424C228.257 81.784 229.073 80.888 229.649 79.736C230.257 78.584 230.561 77.256 230.561 75.752C230.561 74.216 230.257 72.872 229.649 71.72C229.073 70.568 228.257 69.672 227.201 69.032C226.145 68.392 224.945 68.072 223.601 68.072C222.225 68.072 221.009 68.392 219.953 69.032C218.929 69.672 218.113 70.568 217.505 71.72C216.929 72.872 216.641 74.2 216.641 75.704C216.641 77.24 216.929 78.584 217.505 79.736C218.113 80.856 218.929 81.752 219.953 82.424C221.009 83.064 222.225 83.384 223.601 83.384ZM241.528 87.8V63.608H246.664L247.192 68.12C247.768 67.064 248.488 66.168 249.352 65.432C250.216 64.664 251.224 64.072 252.376 63.656C253.56 63.24 254.856 63.032 256.264 63.032V69.128H254.248C253.288 69.128 252.376 69.256 251.512 69.512C250.648 69.736 249.896 70.12 249.256 70.664C248.648 71.176 248.168 71.896 247.816 72.824C247.464 73.72 247.288 74.856 247.288 76.232V87.8H241.528ZM270.891 88.376C268.587 88.376 266.507 87.848 264.651 86.792C262.827 85.704 261.387 84.216 260.331 82.328C259.307 80.408 258.795 78.216 258.795 75.752C258.795 73.224 259.323 71.016 260.379 69.128C261.435 67.208 262.875 65.72 264.699 64.664C266.555 63.576 268.635 63.032 270.939 63.032C273.243 63.032 275.307 63.576 277.131 64.664C278.987 65.72 280.427 67.192 281.451 69.08C282.507 70.968 283.035 73.176 283.035 75.704C283.035 78.232 282.507 80.44 281.451 82.328C280.395 84.216 278.939 85.704 277.083 86.792C275.259 87.848 273.195 88.376 270.891 88.376ZM270.891 83.432C272.043 83.432 273.083 83.144 274.011 82.568C274.971 81.992 275.739 81.128 276.315 79.976C276.891 78.824 277.179 77.4 277.179 75.704C277.179 74.008 276.891 72.6 276.315 71.48C275.771 70.328 275.019 69.464 274.059 68.888C273.131 68.312 272.091 68.024 270.939 68.024C269.819 68.024 268.779 68.312 267.819 68.888C266.859 69.464 266.091 70.328 265.515 71.48C264.939 72.6 264.651 74.008 264.651 75.704C264.651 77.4 264.939 78.824 265.515 79.976C266.091 81.128 266.843 81.992 267.771 82.568C268.731 83.144 269.771 83.432 270.891 83.432ZM298.945 88.376C296.705 88.376 294.705 87.832 292.945 86.744C291.185 85.656 289.809 84.152 288.817 82.232C287.857 80.312 287.377 78.136 287.377 75.704C287.377 73.272 287.873 71.112 288.865 69.224C289.857 67.304 291.233 65.8 292.993 64.712C294.785 63.592 296.801 63.032 299.041 63.032C300.865 63.032 302.449 63.384 303.793 64.088C305.169 64.76 306.257 65.72 307.057 66.968V53.24H312.817V87.8H307.633L307.057 84.296C306.545 85 305.921 85.672 305.185 86.312C304.449 86.92 303.569 87.416 302.545 87.8C301.521 88.184 300.321 88.376 298.945 88.376ZM300.145 83.384C301.521 83.384 302.737 83.064 303.793 82.424C304.849 81.752 305.665 80.84 306.241 79.688C306.817 78.536 307.105 77.208 307.105 75.704C307.105 74.2 306.817 72.872 306.241 71.72C305.665 70.568 304.849 69.672 303.793 69.032C302.737 68.392 301.521 68.072 300.145 68.072C298.833 68.072 297.649 68.392 296.593 69.032C295.537 69.672 294.705 70.568 294.097 71.72C293.521 72.872 293.233 74.2 293.233 75.704C293.233 77.208 293.521 78.536 294.097 79.688C294.705 80.84 295.537 81.752 296.593 82.424C297.649 83.064 298.833 83.384 300.145 83.384ZM327.721 88.376C325.769 88.376 324.089 87.992 322.681 87.224C321.305 86.424 320.249 85.24 319.513 83.672C318.777 82.072 318.409 80.104 318.409 77.768V63.608H324.169V77.192C324.169 79.272 324.601 80.856 325.465 81.944C326.361 83 327.705 83.528 329.497 83.528C330.649 83.528 331.673 83.256 332.569 82.712C333.497 82.168 334.217 81.384 334.729 80.36C335.273 79.304 335.545 78.024 335.545 76.52V63.608H341.305V87.8H336.217L335.785 83.768C335.049 85.176 333.977 86.296 332.569 87.128C331.193 87.96 329.577 88.376 327.721 88.376ZM358.705 88.376C356.337 88.376 354.209 87.848 352.321 86.792C350.465 85.704 349.009 84.216 347.953 82.328C346.929 80.408 346.417 78.232 346.417 75.8C346.417 73.272 346.929 71.064 347.953 69.176C349.009 67.256 350.465 65.752 352.321 64.664C354.209 63.576 356.353 63.032 358.753 63.032C361.761 63.032 364.289 63.832 366.337 65.432C368.385 67 369.697 69.16 370.273 71.912H364.225C363.905 70.696 363.233 69.736 362.209 69.032C361.217 68.328 360.033 67.976 358.657 67.976C357.473 67.976 356.385 68.28 355.393 68.888C354.433 69.496 353.665 70.376 353.089 71.528C352.545 72.68 352.273 74.072 352.273 75.704C352.273 76.952 352.433 78.056 352.753 79.016C353.073 79.976 353.521 80.792 354.097 81.464C354.705 82.104 355.393 82.6 356.161 82.952C356.929 83.304 357.761 83.48 358.657 83.48C359.585 83.48 360.417 83.336 361.153 83.048C361.921 82.728 362.561 82.264 363.073 81.656C363.617 81.048 364.001 80.328 364.225 79.496H370.273C369.697 82.184 368.385 84.344 366.337 85.976C364.289 87.576 361.745 88.376 358.705 88.376ZM385.484 87.8C383.852 87.8 382.428 87.544 381.212 87.032C380.028 86.52 379.1 85.672 378.428 84.488C377.756 83.304 377.42 81.704 377.42 79.688V68.456H373.292V63.608H377.42L378.092 57.224H383.18V63.608H389.756V68.456H383.18V79.688C383.18 80.904 383.436 81.752 383.948 82.232C384.492 82.68 385.388 82.904 386.636 82.904H389.612V87.8H385.484ZM405.366 88.376C403.062 88.376 400.982 87.848 399.126 86.792C397.302 85.704 395.862 84.216 394.806 82.328C393.782 80.408 393.27 78.216 393.27 75.752C393.27 73.224 393.798 71.016 394.854 69.128C395.91 67.208 397.35 65.72 399.174 64.664C401.03 63.576 403.11 63.032 405.414 63.032C407.718 63.032 409.782 63.576 411.606 64.664C413.462 65.72 414.902 67.192 415.926 69.08C416.982 70.968 417.51 73.176 417.51 75.704C417.51 78.232 416.982 80.44 415.926 82.328C414.87 84.216 413.414 85.704 411.558 86.792C409.734 87.848 407.67 88.376 405.366 88.376ZM405.366 83.432C406.518 83.432 407.558 83.144 408.486 82.568C409.446 81.992 410.214 81.128 410.79 79.976C411.366 78.824 411.654 77.4 411.654 75.704C411.654 74.008 411.366 72.6 410.79 71.48C410.246 70.328 409.494 69.464 408.534 68.888C407.606 68.312 406.566 68.024 405.414 68.024C404.294 68.024 403.254 68.312 402.294 68.888C401.334 69.464 400.566 70.328 399.99 71.48C399.414 72.6 399.126 74.008 399.126 75.704C399.126 77.4 399.414 78.824 399.99 79.976C400.566 81.128 401.318 81.992 402.246 82.568C403.206 83.144 404.246 83.432 405.366 83.432ZM432.316 88.376C430.172 88.376 428.3 88.04 426.7 87.368C425.132 86.664 423.884 85.704 422.956 84.488C422.06 83.24 421.532 81.816 421.372 80.216H427.132C427.292 80.888 427.58 81.512 427.996 82.088C428.412 82.632 428.972 83.064 429.676 83.384C430.412 83.704 431.276 83.864 432.268 83.864C433.228 83.864 434.012 83.736 434.62 83.48C435.228 83.192 435.676 82.824 435.964 82.376C436.252 81.928 436.396 81.448 436.396 80.936C436.396 80.168 436.188 79.576 435.772 79.16C435.356 78.744 434.748 78.424 433.948 78.2C433.18 77.944 432.252 77.704 431.164 77.48C430.012 77.256 428.892 76.984 427.804 76.664C426.748 76.312 425.788 75.88 424.924 75.368C424.092 74.856 423.42 74.2 422.908 73.4C422.428 72.6 422.188 71.624 422.188 70.472C422.188 69.064 422.556 67.8 423.292 66.68C424.06 65.56 425.148 64.68 426.556 64.04C427.996 63.368 429.708 63.032 431.692 63.032C434.508 63.032 436.748 63.688 438.412 65C440.108 66.28 441.1 68.088 441.388 70.424H435.916C435.756 69.528 435.308 68.84 434.572 68.36C433.836 67.848 432.86 67.592 431.644 67.592C430.396 67.592 429.436 67.832 428.764 68.312C428.124 68.76 427.804 69.368 427.804 70.136C427.804 70.616 427.996 71.064 428.38 71.48C428.796 71.864 429.388 72.2 430.156 72.488C430.924 72.744 431.868 73 432.988 73.256C434.78 73.608 436.364 74.024 437.74 74.504C439.116 74.984 440.204 75.688 441.004 76.616C441.804 77.544 442.204 78.856 442.204 80.552C442.236 82.088 441.836 83.448 441.004 84.632C440.204 85.816 439.068 86.744 437.596 87.416C436.124 88.056 434.364 88.376 432.316 88.376Z" fill="#02BBBC"/>
</svg>
