<svg width="245" height="239" viewBox="0 0 245 239" fill="none" xmlns="http://www.w3.org/2000/svg">
<path d="M1 24H43.5" stroke="#BBEEEC" stroke-width="2" stroke-linecap="round"/>
<path d="M84.78 41L87.35 34H88.44L91.01 41H89.94L87.89 35.2L85.83 41H84.78ZM85.94 39.27L86.22 38.47H89.51L89.79 39.27H85.94ZM93.9237 41.12C93.437 41.12 93.0037 41.01 92.6237 40.79C92.2437 40.5633 91.9437 40.2533 91.7237 39.86C91.5103 39.4667 91.4037 39.01 91.4037 38.49C91.4037 37.9633 91.5103 37.5033 91.7237 37.11C91.9437 36.71 92.2437 36.4 92.6237 36.18C93.0037 35.9533 93.437 35.84 93.9237 35.84C94.537 35.84 95.0503 36 95.4637 36.32C95.877 36.64 96.1403 37.0733 96.2537 37.62H95.2137C95.147 37.3267 94.9937 37.1 94.7537 36.94C94.5203 36.78 94.2403 36.7 93.9137 36.7C93.647 36.7 93.4003 36.77 93.1737 36.91C92.947 37.0433 92.7637 37.2433 92.6237 37.51C92.4903 37.77 92.4237 38.0933 92.4237 38.48C92.4237 38.7667 92.4637 39.0233 92.5437 39.25C92.6237 39.47 92.7303 39.6567 92.8637 39.81C93.0037 39.9633 93.1637 40.08 93.3437 40.16C93.5237 40.2333 93.7137 40.27 93.9137 40.27C94.1337 40.27 94.3303 40.2367 94.5037 40.17C94.6837 40.0967 94.8337 39.99 94.9537 39.85C95.0803 39.71 95.167 39.5433 95.2137 39.35H96.2537C96.1403 39.8833 95.877 40.3133 95.4637 40.64C95.0503 40.96 94.537 41.12 93.9237 41.12ZM98.9938 41.12C98.5804 41.12 98.2371 41.05 97.9638 40.91C97.6904 40.77 97.4871 40.5833 97.3538 40.35C97.2204 40.11 97.1538 39.8533 97.1538 39.58C97.1538 39.2467 97.2404 38.9633 97.4138 38.73C97.5871 38.49 97.8338 38.3067 98.1538 38.18C98.4738 38.0533 98.8571 37.99 99.3038 37.99H100.614C100.614 37.6967 100.57 37.4533 100.484 37.26C100.397 37.0667 100.267 36.9233 100.094 36.83C99.9271 36.73 99.7138 36.68 99.4538 36.68C99.1538 36.68 98.8971 36.7533 98.6838 36.9C98.4704 37.04 98.3371 37.25 98.2838 37.53H97.2838C97.3238 37.1767 97.4438 36.8767 97.6438 36.63C97.8504 36.3767 98.1138 36.1833 98.4338 36.05C98.7538 35.91 99.0938 35.84 99.4538 35.84C99.9271 35.84 100.324 35.9233 100.644 36.09C100.964 36.2567 101.204 36.4933 101.364 36.8C101.53 37.1 101.614 37.46 101.614 37.88V41H100.744L100.664 40.15C100.59 40.2833 100.504 40.41 100.404 40.53C100.304 40.65 100.184 40.7533 100.044 40.84C99.9104 40.9267 99.7538 40.9933 99.5738 41.04C99.4004 41.0933 99.2071 41.12 98.9938 41.12ZM99.1838 40.31C99.3971 40.31 99.5904 40.2667 99.7638 40.18C99.9371 40.0933 100.084 39.9767 100.204 39.83C100.33 39.6767 100.424 39.5067 100.484 39.32C100.55 39.1267 100.587 38.93 100.594 38.73V38.7H99.4038C99.1171 38.7 98.8838 38.7367 98.7038 38.81C98.5304 38.8767 98.4038 38.97 98.3238 39.09C98.2438 39.21 98.2038 39.35 98.2038 39.51C98.2038 39.6767 98.2404 39.82 98.3138 39.94C98.3938 40.0533 98.5071 40.1433 98.6538 40.21C98.8004 40.2767 98.9771 40.31 99.1838 40.31ZM105.54 41.12C105.267 41.12 105.017 41.08 104.79 41C104.57 40.9267 104.377 40.8233 104.21 40.69C104.043 40.5567 103.903 40.4033 103.79 40.23L103.69 41H102.79V33.8H103.79V36.75C103.95 36.4967 104.173 36.2833 104.46 36.11C104.753 35.93 105.113 35.84 105.54 35.84C106.02 35.84 106.443 35.9567 106.81 36.19C107.177 36.4167 107.46 36.73 107.66 37.13C107.867 37.5233 107.97 37.9767 107.97 38.49C107.97 38.99 107.867 39.44 107.66 39.84C107.46 40.24 107.177 40.5533 106.81 40.78C106.443 41.0067 106.02 41.12 105.54 41.12ZM105.38 40.25C105.687 40.25 105.957 40.1767 106.19 40.03C106.43 39.8833 106.617 39.6767 106.75 39.41C106.89 39.1433 106.96 38.8333 106.96 38.48C106.96 38.1267 106.89 37.82 106.75 37.56C106.617 37.2933 106.43 37.0867 106.19 36.94C105.957 36.7867 105.687 36.71 105.38 36.71C105.067 36.71 104.79 36.7867 104.55 36.94C104.317 37.0867 104.133 37.2933 104 37.56C103.867 37.82 103.8 38.1267 103.8 38.48C103.8 38.8333 103.867 39.1433 104 39.41C104.133 39.6767 104.317 39.8833 104.55 40.03C104.79 40.1767 105.067 40.25 105.38 40.25ZM110.708 41.12C110.294 41.12 109.951 41.05 109.678 40.91C109.404 40.77 109.201 40.5833 109.068 40.35C108.934 40.11 108.868 39.8533 108.868 39.58C108.868 39.2467 108.954 38.9633 109.128 38.73C109.301 38.49 109.548 38.3067 109.868 38.18C110.188 38.0533 110.571 37.99 111.018 37.99H112.328C112.328 37.6967 112.284 37.4533 112.198 37.26C112.111 37.0667 111.981 36.9233 111.808 36.83C111.641 36.73 111.428 36.68 111.168 36.68C110.868 36.68 110.611 36.7533 110.398 36.9C110.184 37.04 110.051 37.25 109.998 37.53H108.998C109.038 37.1767 109.158 36.8767 109.358 36.63C109.564 36.3767 109.828 36.1833 110.148 36.05C110.468 35.91 110.808 35.84 111.168 35.84C111.641 35.84 112.038 35.9233 112.358 36.09C112.678 36.2567 112.918 36.4933 113.078 36.8C113.244 37.1 113.328 37.46 113.328 37.88V41H112.458L112.378 40.15C112.304 40.2833 112.218 40.41 112.118 40.53C112.018 40.65 111.898 40.7533 111.758 40.84C111.624 40.9267 111.468 40.9933 111.288 41.04C111.114 41.0933 110.921 41.12 110.708 41.12ZM110.898 40.31C111.111 40.31 111.304 40.2667 111.478 40.18C111.651 40.0933 111.798 39.9767 111.918 39.83C112.044 39.6767 112.138 39.5067 112.198 39.32C112.264 39.1267 112.301 38.93 112.308 38.73V38.7H111.118C110.831 38.7 110.598 38.7367 110.418 38.81C110.244 38.8767 110.118 38.97 110.038 39.09C109.958 39.21 109.918 39.35 109.918 39.51C109.918 39.6767 109.954 39.82 110.028 39.94C110.108 40.0533 110.221 40.1433 110.368 40.21C110.514 40.2767 110.691 40.31 110.898 40.31ZM116.744 41.12C116.264 41.12 115.841 41.0067 115.474 40.78C115.108 40.5467 114.821 40.2333 114.614 39.84C114.414 39.44 114.314 38.9867 114.314 38.48C114.314 37.9667 114.414 37.5133 114.614 37.12C114.821 36.7267 115.108 36.4167 115.474 36.19C115.848 35.9567 116.274 35.84 116.754 35.84C117.148 35.84 117.494 35.92 117.794 36.08C118.094 36.2333 118.328 36.4533 118.494 36.74V33.8H119.494V41H118.594L118.494 40.22C118.394 40.3733 118.264 40.52 118.104 40.66C117.944 40.7933 117.751 40.9033 117.524 40.99C117.298 41.0767 117.038 41.12 116.744 41.12ZM116.904 40.25C117.218 40.25 117.494 40.1767 117.734 40.03C117.974 39.8833 118.158 39.6767 118.284 39.41C118.418 39.1433 118.484 38.8333 118.484 38.48C118.484 38.1267 118.418 37.82 118.284 37.56C118.158 37.2933 117.974 37.0867 117.734 36.94C117.494 36.7867 117.218 36.71 116.904 36.71C116.604 36.71 116.334 36.7867 116.094 36.94C115.854 37.0867 115.668 37.2933 115.534 37.56C115.401 37.82 115.334 38.1267 115.334 38.48C115.334 38.8333 115.401 39.1433 115.534 39.41C115.668 39.6767 115.854 39.8833 116.094 40.03C116.334 40.1767 116.604 40.25 116.904 40.25ZM123.062 41.12C122.588 41.12 122.162 41.01 121.782 40.79C121.408 40.57 121.112 40.2633 120.892 39.87C120.678 39.47 120.572 39.01 120.572 38.49C120.572 37.9567 120.682 37.4933 120.902 37.1C121.122 36.7 121.422 36.39 121.802 36.17C122.182 35.95 122.608 35.84 123.082 35.84C123.562 35.84 123.988 35.95 124.362 36.17C124.735 36.39 125.028 36.6967 125.242 37.09C125.462 37.4833 125.572 37.9467 125.572 38.48C125.572 39.0133 125.462 39.4767 125.242 39.87C125.028 40.2633 124.732 40.57 124.352 40.79C123.972 41.01 123.542 41.12 123.062 41.12ZM123.062 40.26C123.335 40.26 123.582 40.1933 123.802 40.06C124.028 39.9267 124.208 39.73 124.342 39.47C124.482 39.2033 124.552 38.8733 124.552 38.48C124.552 38.0867 124.485 37.76 124.352 37.5C124.218 37.2333 124.038 37.0333 123.812 36.9C123.592 36.7667 123.348 36.7 123.082 36.7C122.815 36.7 122.568 36.7667 122.342 36.9C122.115 37.0333 121.932 37.2333 121.792 37.5C121.658 37.76 121.592 38.0867 121.592 38.48C121.592 38.8733 121.658 39.2033 121.792 39.47C121.932 39.73 122.112 39.9267 122.332 40.06C122.558 40.1933 122.802 40.26 123.062 40.26ZM128.598 41.12C128.171 41.12 127.798 41.05 127.478 40.91C127.158 40.77 126.905 40.5733 126.718 40.32C126.531 40.0667 126.418 39.77 126.378 39.43H127.398C127.431 39.59 127.495 39.7367 127.588 39.87C127.688 40.0033 127.821 40.11 127.988 40.19C128.161 40.27 128.365 40.31 128.598 40.31C128.818 40.31 128.998 40.28 129.138 40.22C129.285 40.1533 129.391 40.0667 129.458 39.96C129.525 39.8467 129.558 39.7267 129.558 39.6C129.558 39.4133 129.511 39.2733 129.418 39.18C129.331 39.08 129.198 39.0033 129.018 38.95C128.845 38.89 128.635 38.8367 128.388 38.79C128.155 38.75 127.928 38.6967 127.708 38.63C127.495 38.5567 127.301 38.4667 127.128 38.36C126.961 38.2533 126.828 38.12 126.728 37.96C126.628 37.7933 126.578 37.59 126.578 37.35C126.578 37.0633 126.655 36.8067 126.808 36.58C126.961 36.3467 127.178 36.1667 127.458 36.04C127.745 35.9067 128.081 35.84 128.468 35.84C129.028 35.84 129.478 35.9733 129.818 36.24C130.158 36.5067 130.358 36.8833 130.418 37.37H129.448C129.421 37.1433 129.321 36.97 129.148 36.85C128.975 36.7233 128.745 36.66 128.458 36.66C128.171 36.66 127.951 36.7167 127.798 36.83C127.645 36.9433 127.568 37.0933 127.568 37.28C127.568 37.4 127.611 37.5067 127.698 37.6C127.785 37.6933 127.911 37.7733 128.078 37.84C128.251 37.9 128.461 37.9567 128.708 38.01C129.061 38.0767 129.378 38.16 129.658 38.26C129.938 38.36 130.161 38.5067 130.328 38.7C130.495 38.8933 130.578 39.17 130.578 39.53C130.585 39.8433 130.505 40.12 130.338 40.36C130.178 40.6 129.948 40.7867 129.648 40.92C129.355 41.0533 129.005 41.12 128.598 41.12ZM136.354 41.12C135.874 41.12 135.451 41.0067 135.084 40.78C134.717 40.5467 134.431 40.2333 134.224 39.84C134.024 39.44 133.924 38.9867 133.924 38.48C133.924 37.9667 134.024 37.5133 134.224 37.12C134.431 36.7267 134.717 36.4167 135.084 36.19C135.457 35.9567 135.884 35.84 136.364 35.84C136.757 35.84 137.104 35.92 137.404 36.08C137.704 36.2333 137.937 36.4533 138.104 36.74V33.8H139.104V41H138.204L138.104 40.22C138.004 40.3733 137.874 40.52 137.714 40.66C137.554 40.7933 137.361 40.9033 137.134 40.99C136.907 41.0767 136.647 41.12 136.354 41.12ZM136.514 40.25C136.827 40.25 137.104 40.1767 137.344 40.03C137.584 39.8833 137.767 39.6767 137.894 39.41C138.027 39.1433 138.094 38.8333 138.094 38.48C138.094 38.1267 138.027 37.82 137.894 37.56C137.767 37.2933 137.584 37.0867 137.344 36.94C137.104 36.7867 136.827 36.71 136.514 36.71C136.214 36.71 135.944 36.7867 135.704 36.94C135.464 37.0867 135.277 37.2933 135.144 37.56C135.011 37.82 134.944 38.1267 134.944 38.48C134.944 38.8333 135.011 39.1433 135.144 39.41C135.277 39.6767 135.464 39.8833 135.704 40.03C135.944 40.1767 136.214 40.25 136.514 40.25ZM142.651 41.12C142.171 41.12 141.745 41.01 141.371 40.79C140.998 40.57 140.705 40.2633 140.491 39.87C140.285 39.4767 140.181 39.02 140.181 38.5C140.181 37.9667 140.285 37.5033 140.491 37.11C140.705 36.71 140.998 36.4 141.371 36.18C141.745 35.9533 142.178 35.84 142.671 35.84C143.165 35.84 143.588 35.95 143.941 36.17C144.295 36.39 144.568 36.6833 144.761 37.05C144.955 37.41 145.051 37.81 145.051 38.25C145.051 38.3167 145.048 38.39 145.041 38.47C145.041 38.5433 145.038 38.6267 145.031 38.72H140.911V38.01H144.051C144.031 37.59 143.891 37.2633 143.631 37.03C143.371 36.79 143.048 36.67 142.661 36.67C142.388 36.67 142.138 36.7333 141.911 36.86C141.685 36.98 141.501 37.16 141.361 37.4C141.228 37.6333 141.161 37.93 141.161 38.29V38.57C141.161 38.9433 141.228 39.26 141.361 39.52C141.501 39.7733 141.685 39.9667 141.911 40.1C142.138 40.2267 142.385 40.29 142.651 40.29C142.971 40.29 143.235 40.22 143.441 40.08C143.648 39.94 143.801 39.75 143.901 39.51H144.901C144.815 39.8167 144.668 40.0933 144.461 40.34C144.255 40.58 143.998 40.77 143.691 40.91C143.391 41.05 143.045 41.12 142.651 41.12ZM150.201 41.12C149.781 41.12 149.434 41.0533 149.161 40.92C148.888 40.78 148.684 40.5967 148.551 40.37C148.424 40.1367 148.361 39.88 148.361 39.6C148.361 39.2933 148.438 39.0233 148.591 38.79C148.751 38.5567 148.988 38.3733 149.301 38.24C149.621 38.1067 150.021 38.04 150.501 38.04H151.751C151.751 37.7933 151.718 37.59 151.651 37.43C151.584 37.2633 151.481 37.14 151.341 37.06C151.201 36.98 151.014 36.94 150.781 36.94C150.528 36.94 150.311 36.9967 150.131 37.11C149.958 37.2167 149.851 37.3833 149.811 37.61H148.501C148.534 37.25 148.651 36.94 148.851 36.68C149.058 36.4133 149.328 36.2067 149.661 36.06C150.001 35.9133 150.378 35.84 150.791 35.84C151.264 35.84 151.674 35.92 152.021 36.08C152.368 36.24 152.634 36.47 152.821 36.77C153.008 37.07 153.101 37.44 153.101 37.88V41H151.961L151.811 40.23C151.738 40.3633 151.651 40.4833 151.551 40.59C151.451 40.6967 151.334 40.79 151.201 40.87C151.068 40.95 150.918 41.01 150.751 41.05C150.584 41.0967 150.401 41.12 150.201 41.12ZM150.521 40.08C150.694 40.08 150.848 40.05 150.981 39.99C151.121 39.9233 151.241 39.8367 151.341 39.73C151.441 39.6167 151.518 39.49 151.571 39.35C151.631 39.2033 151.671 39.0467 151.691 38.88V38.87H150.661C150.454 38.87 150.284 38.8967 150.151 38.95C150.024 38.9967 149.931 39.0667 149.871 39.16C149.811 39.2533 149.781 39.36 149.781 39.48C149.781 39.6133 149.811 39.7233 149.871 39.81C149.931 39.8967 150.018 39.9633 150.131 40.01C150.244 40.0567 150.374 40.08 150.521 40.08ZM154.26 41V33.8H155.61V41H154.26ZM159.096 41C158.743 41 158.433 40.9467 158.166 40.84C157.906 40.7267 157.703 40.5433 157.556 40.29C157.41 40.03 157.336 39.6767 157.336 39.23V37.09H156.476V35.96H157.336L157.486 34.59H158.686V35.96H160.016V37.09H158.686V39.25C158.686 39.4767 158.736 39.6333 158.836 39.72C158.936 39.8067 159.106 39.85 159.346 39.85H160.006V41H159.096ZM162.753 41.12C162.333 41.12 161.986 41.0533 161.713 40.92C161.439 40.78 161.236 40.5967 161.103 40.37C160.976 40.1367 160.913 39.88 160.913 39.6C160.913 39.2933 160.989 39.0233 161.143 38.79C161.303 38.5567 161.539 38.3733 161.853 38.24C162.173 38.1067 162.573 38.04 163.053 38.04H164.303C164.303 37.7933 164.269 37.59 164.203 37.43C164.136 37.2633 164.033 37.14 163.893 37.06C163.753 36.98 163.566 36.94 163.333 36.94C163.079 36.94 162.863 36.9967 162.683 37.11C162.509 37.2167 162.403 37.3833 162.363 37.61H161.053C161.086 37.25 161.203 36.94 161.403 36.68C161.609 36.4133 161.879 36.2067 162.213 36.06C162.553 35.9133 162.929 35.84 163.343 35.84C163.816 35.84 164.226 35.92 164.573 36.08C164.919 36.24 165.186 36.47 165.373 36.77C165.559 37.07 165.653 37.44 165.653 37.88V41H164.513L164.363 40.23C164.289 40.3633 164.203 40.4833 164.103 40.59C164.003 40.6967 163.886 40.79 163.753 40.87C163.619 40.95 163.469 41.01 163.303 41.05C163.136 41.0967 162.953 41.12 162.753 41.12ZM163.073 40.08C163.246 40.08 163.399 40.05 163.533 39.99C163.673 39.9233 163.793 39.8367 163.893 39.73C163.993 39.6167 164.069 39.49 164.123 39.35C164.183 39.2033 164.223 39.0467 164.243 38.88V38.87H163.213C163.006 38.87 162.836 38.8967 162.703 38.95C162.576 38.9967 162.483 39.0667 162.423 39.16C162.363 39.2533 162.333 39.36 162.333 39.48C162.333 39.6133 162.363 39.7233 162.423 39.81C162.483 39.8967 162.569 39.9633 162.683 40.01C162.796 40.0567 162.926 40.08 163.073 40.08ZM171.505 41.12C170.999 41.12 170.549 41.0067 170.155 40.78C169.762 40.5533 169.455 40.2433 169.235 39.85C169.015 39.4567 168.905 39.0067 168.905 38.5C168.905 37.98 169.015 37.5233 169.235 37.13C169.455 36.73 169.762 36.4167 170.155 36.19C170.549 35.9567 170.999 35.84 171.505 35.84C172.152 35.84 172.695 36.01 173.135 36.35C173.575 36.69 173.855 37.1567 173.975 37.75H172.545C172.485 37.5167 172.359 37.3333 172.165 37.2C171.979 37.0667 171.755 37 171.495 37C171.262 37 171.052 37.06 170.865 37.18C170.685 37.2933 170.542 37.4633 170.435 37.69C170.335 37.91 170.285 38.1733 170.285 38.48C170.285 38.7133 170.315 38.9233 170.375 39.11C170.435 39.29 170.519 39.4467 170.625 39.58C170.732 39.7067 170.859 39.8033 171.005 39.87C171.159 39.9367 171.322 39.97 171.495 39.97C171.669 39.97 171.825 39.94 171.965 39.88C172.112 39.82 172.235 39.7367 172.335 39.63C172.435 39.5167 172.505 39.38 172.545 39.22H173.975C173.855 39.8 173.572 40.2633 173.125 40.61C172.685 40.95 172.145 41.12 171.505 41.12ZM176.74 41.12C176.32 41.12 175.973 41.0533 175.7 40.92C175.426 40.78 175.223 40.5967 175.09 40.37C174.963 40.1367 174.9 39.88 174.9 39.6C174.9 39.2933 174.976 39.0233 175.13 38.79C175.29 38.5567 175.526 38.3733 175.84 38.24C176.16 38.1067 176.56 38.04 177.04 38.04H178.29C178.29 37.7933 178.256 37.59 178.19 37.43C178.123 37.2633 178.02 37.14 177.88 37.06C177.74 36.98 177.553 36.94 177.32 36.94C177.066 36.94 176.85 36.9967 176.67 37.11C176.496 37.2167 176.39 37.3833 176.35 37.61H175.04C175.073 37.25 175.19 36.94 175.39 36.68C175.596 36.4133 175.866 36.2067 176.2 36.06C176.54 35.9133 176.916 35.84 177.33 35.84C177.803 35.84 178.213 35.92 178.56 36.08C178.906 36.24 179.173 36.47 179.36 36.77C179.546 37.07 179.64 37.44 179.64 37.88V41H178.5L178.35 40.23C178.276 40.3633 178.19 40.4833 178.09 40.59C177.99 40.6967 177.873 40.79 177.74 40.87C177.606 40.95 177.456 41.01 177.29 41.05C177.123 41.0967 176.94 41.12 176.74 41.12ZM177.06 40.08C177.233 40.08 177.386 40.05 177.52 39.99C177.66 39.9233 177.78 39.8367 177.88 39.73C177.98 39.6167 178.056 39.49 178.11 39.35C178.17 39.2033 178.21 39.0467 178.23 38.88V38.87H177.2C176.993 38.87 176.823 38.8967 176.69 38.95C176.563 38.9967 176.47 39.0667 176.41 39.16C176.35 39.2533 176.32 39.36 176.32 39.48C176.32 39.6133 176.35 39.7233 176.41 39.81C176.47 39.8967 176.556 39.9633 176.67 40.01C176.783 40.0567 176.913 40.08 177.06 40.08ZM180.799 41V33.8H182.149V41H180.799ZM183.395 41V35.96H184.745V41H183.395ZM184.075 35.27C183.835 35.27 183.635 35.2 183.475 35.06C183.322 34.9133 183.245 34.73 183.245 34.51C183.245 34.29 183.322 34.11 183.475 33.97C183.635 33.8233 183.835 33.75 184.075 33.75C184.322 33.75 184.522 33.8233 184.675 33.97C184.835 34.11 184.915 34.29 184.915 34.51C184.915 34.73 184.835 34.9133 184.675 35.06C184.522 35.2 184.322 35.27 184.075 35.27ZM188.249 41.12C187.789 41.12 187.376 41.0067 187.009 40.78C186.649 40.5533 186.366 40.24 186.159 39.84C185.953 39.44 185.849 38.99 185.849 38.49C185.849 37.9767 185.953 37.5233 186.159 37.13C186.373 36.73 186.663 36.4167 187.029 36.19C187.403 35.9567 187.819 35.84 188.279 35.84C188.639 35.84 188.956 35.9067 189.229 36.04C189.503 36.1733 189.723 36.3633 189.889 36.61V33.8H191.239V41H190.039L189.889 40.31C189.789 40.45 189.663 40.5833 189.509 40.71C189.363 40.8367 189.186 40.9367 188.979 41.01C188.773 41.0833 188.529 41.12 188.249 41.12ZM188.569 39.94C188.836 39.94 189.069 39.88 189.269 39.76C189.476 39.6333 189.636 39.46 189.749 39.24C189.863 39.02 189.919 38.7667 189.919 38.48C189.919 38.1933 189.863 37.94 189.749 37.72C189.636 37.5 189.476 37.33 189.269 37.21C189.069 37.0833 188.836 37.02 188.569 37.02C188.316 37.02 188.086 37.0833 187.879 37.21C187.673 37.33 187.509 37.5 187.389 37.72C187.276 37.94 187.219 38.19 187.219 38.47C187.219 38.7633 187.276 39.02 187.389 39.24C187.509 39.46 187.669 39.6333 187.869 39.76C188.076 39.88 188.309 39.94 188.569 39.94ZM194.162 41.12C193.742 41.12 193.395 41.0533 193.122 40.92C192.849 40.78 192.645 40.5967 192.512 40.37C192.385 40.1367 192.322 39.88 192.322 39.6C192.322 39.2933 192.399 39.0233 192.552 38.79C192.712 38.5567 192.949 38.3733 193.262 38.24C193.582 38.1067 193.982 38.04 194.462 38.04H195.712C195.712 37.7933 195.679 37.59 195.612 37.43C195.545 37.2633 195.442 37.14 195.302 37.06C195.162 36.98 194.975 36.94 194.742 36.94C194.489 36.94 194.272 36.9967 194.092 37.11C193.919 37.2167 193.812 37.3833 193.772 37.61H192.462C192.495 37.25 192.612 36.94 192.812 36.68C193.019 36.4133 193.289 36.2067 193.622 36.06C193.962 35.9133 194.339 35.84 194.752 35.84C195.225 35.84 195.635 35.92 195.982 36.08C196.329 36.24 196.595 36.47 196.782 36.77C196.969 37.07 197.062 37.44 197.062 37.88V41H195.922L195.772 40.23C195.699 40.3633 195.612 40.4833 195.512 40.59C195.412 40.6967 195.295 40.79 195.162 40.87C195.029 40.95 194.879 41.01 194.712 41.05C194.545 41.0967 194.362 41.12 194.162 41.12ZM194.482 40.08C194.655 40.08 194.809 40.05 194.942 39.99C195.082 39.9233 195.202 39.8367 195.302 39.73C195.402 39.6167 195.479 39.49 195.532 39.35C195.592 39.2033 195.632 39.0467 195.652 38.88V38.87H194.622C194.415 38.87 194.245 38.8967 194.112 38.95C193.985 38.9967 193.892 39.0667 193.832 39.16C193.772 39.2533 193.742 39.36 193.742 39.48C193.742 39.6133 193.772 39.7233 193.832 39.81C193.892 39.8967 193.979 39.9633 194.092 40.01C194.205 40.0567 194.335 40.08 194.482 40.08ZM200.461 41.12C200.001 41.12 199.588 41.0067 199.221 40.78C198.861 40.5533 198.578 40.24 198.371 39.84C198.165 39.44 198.061 38.99 198.061 38.49C198.061 37.9767 198.165 37.5233 198.371 37.13C198.585 36.73 198.875 36.4167 199.241 36.19C199.615 35.9567 200.031 35.84 200.491 35.84C200.851 35.84 201.168 35.9067 201.441 36.04C201.715 36.1733 201.935 36.3633 202.101 36.61V33.8H203.451V41H202.251L202.101 40.31C202.001 40.45 201.875 40.5833 201.721 40.71C201.575 40.8367 201.398 40.9367 201.191 41.01C200.985 41.0833 200.741 41.12 200.461 41.12ZM200.781 39.94C201.048 39.94 201.281 39.88 201.481 39.76C201.688 39.6333 201.848 39.46 201.961 39.24C202.075 39.02 202.131 38.7667 202.131 38.48C202.131 38.1933 202.075 37.94 201.961 37.72C201.848 37.5 201.688 37.33 201.481 37.21C201.281 37.0833 201.048 37.02 200.781 37.02C200.528 37.02 200.298 37.0833 200.091 37.21C199.885 37.33 199.721 37.5 199.601 37.72C199.488 37.94 199.431 38.19 199.431 38.47C199.431 38.7633 199.488 39.02 199.601 39.24C199.721 39.46 199.881 39.6333 200.081 39.76C200.288 39.88 200.521 39.94 200.781 39.94ZM205.284 41.05C205.031 41.05 204.827 40.9767 204.674 40.83C204.521 40.6767 204.444 40.49 204.444 40.27C204.444 40.05 204.521 39.8667 204.674 39.72C204.827 39.5667 205.031 39.49 205.284 39.49C205.524 39.49 205.721 39.5667 205.874 39.72C206.027 39.8667 206.104 40.05 206.104 40.27C206.104 40.49 206.027 40.6767 205.874 40.83C205.721 40.9767 205.524 41.05 205.284 41.05Z" fill="#3C3C3C"/>
<path d="M85.673 24V12.1H89.651C91.0337 12.1 92.1727 12.3493 93.068 12.848C93.9747 13.3353 94.6433 14.0267 95.074 14.922C95.516 15.806 95.737 16.8487 95.737 18.05C95.737 19.2513 95.516 20.2997 95.074 21.195C94.6433 22.079 93.9803 22.7703 93.085 23.269C92.1897 23.7563 91.045 24 89.651 24H85.673ZM87.968 22.028H89.532C90.5067 22.028 91.2717 21.8693 91.827 21.552C92.3937 21.2347 92.796 20.7813 93.034 20.192C93.272 19.5913 93.391 18.8773 93.391 18.05C93.391 17.2113 93.272 16.4973 93.034 15.908C92.796 15.3073 92.3937 14.8483 91.827 14.531C91.2717 14.2137 90.5067 14.055 89.532 14.055H87.968V22.028ZM97.5225 24V15.432H99.8175V24H97.5225ZM98.6785 14.259C98.2705 14.259 97.9305 14.14 97.6585 13.902C97.3979 13.6527 97.2675 13.341 97.2675 12.967C97.2675 12.593 97.3979 12.287 97.6585 12.049C97.9305 11.7997 98.2705 11.675 98.6785 11.675C99.0979 11.675 99.4379 11.7997 99.6985 12.049C99.9705 12.287 100.107 12.593 100.107 12.967C100.107 13.341 99.9705 13.6527 99.6985 13.902C99.4379 14.14 99.0979 14.259 98.6785 14.259ZM105.469 24.204C104.687 24.204 104.007 24.0793 103.429 23.83C102.851 23.5807 102.397 23.235 102.069 22.793C101.74 22.351 101.553 21.8523 101.508 21.297H103.786C103.842 21.5123 103.939 21.7107 104.075 21.892C104.211 22.062 104.392 22.198 104.619 22.3C104.845 22.402 105.117 22.453 105.435 22.453C105.741 22.453 105.99 22.4133 106.183 22.334C106.375 22.2433 106.517 22.1243 106.608 21.977C106.71 21.8297 106.761 21.6767 106.761 21.518C106.761 21.28 106.693 21.0987 106.557 20.974C106.421 20.838 106.222 20.7303 105.962 20.651C105.701 20.5717 105.384 20.4923 105.01 20.413C104.602 20.3337 104.199 20.2373 103.803 20.124C103.417 19.9993 103.072 19.8463 102.766 19.665C102.46 19.4837 102.216 19.2513 102.035 18.968C101.853 18.6847 101.763 18.3333 101.763 17.914C101.763 17.404 101.899 16.9507 102.171 16.554C102.443 16.146 102.839 15.823 103.361 15.585C103.882 15.347 104.511 15.228 105.248 15.228C106.279 15.228 107.095 15.4603 107.696 15.925C108.296 16.3897 108.653 17.03 108.767 17.846H106.608C106.54 17.5853 106.387 17.3813 106.149 17.234C105.922 17.0753 105.616 16.996 105.231 16.996C104.823 16.996 104.511 17.0697 104.296 17.217C104.08 17.3643 103.973 17.557 103.973 17.795C103.973 17.9537 104.041 18.0953 104.177 18.22C104.324 18.3447 104.528 18.4523 104.789 18.543C105.049 18.6223 105.367 18.7017 105.741 18.781C106.398 18.917 106.976 19.0757 107.475 19.257C107.973 19.427 108.364 19.6763 108.648 20.005C108.931 20.3223 109.073 20.787 109.073 21.399C109.073 21.943 108.925 22.4303 108.631 22.861C108.336 23.2803 107.917 23.609 107.373 23.847C106.84 24.085 106.205 24.204 105.469 24.204ZM114.958 24.204C114.097 24.204 113.332 24.0227 112.663 23.66C112.006 23.286 111.49 22.7703 111.116 22.113C110.754 21.4443 110.572 20.6737 110.572 19.801C110.572 18.9057 110.754 18.118 111.116 17.438C111.49 16.7467 112.006 16.2083 112.663 15.823C113.321 15.4263 114.086 15.228 114.958 15.228C115.808 15.228 116.551 15.415 117.185 15.789C117.82 16.163 118.313 16.6673 118.664 17.302C119.016 17.9367 119.191 18.6563 119.191 19.461C119.191 19.5743 119.191 19.7047 119.191 19.852C119.191 19.988 119.18 20.1297 119.157 20.277H112.204V18.883H116.879C116.845 18.3277 116.647 17.8913 116.284 17.574C115.933 17.2567 115.491 17.098 114.958 17.098C114.573 17.098 114.216 17.1887 113.887 17.37C113.559 17.54 113.298 17.8063 113.105 18.169C112.924 18.5317 112.833 18.9907 112.833 19.546V20.039C112.833 20.5037 112.918 20.9117 113.088 21.263C113.27 21.603 113.519 21.8693 113.836 22.062C114.154 22.2433 114.522 22.334 114.941 22.334C115.361 22.334 115.706 22.2433 115.978 22.062C116.262 21.8807 116.471 21.6483 116.607 21.365H118.953C118.795 21.8977 118.528 22.3793 118.154 22.81C117.78 23.2407 117.321 23.5807 116.777 23.83C116.233 24.0793 115.627 24.204 114.958 24.204ZM120.901 24V15.432H122.924L123.094 16.826C123.355 16.35 123.723 15.9647 124.199 15.67C124.686 15.3753 125.264 15.228 125.933 15.228C126.647 15.228 127.248 15.3753 127.735 15.67C128.222 15.9647 128.591 16.3953 128.84 16.962C129.101 17.5287 129.231 18.2257 129.231 19.053V24H126.953V19.274C126.953 18.594 126.806 18.0727 126.511 17.71C126.228 17.3473 125.786 17.166 125.185 17.166C124.8 17.166 124.454 17.2567 124.148 17.438C123.853 17.6193 123.621 17.88 123.451 18.22C123.281 18.5487 123.196 18.951 123.196 19.427V24H120.901ZM126.426 14.31C126.097 14.31 125.814 14.2477 125.576 14.123C125.349 13.9983 125.14 13.8737 124.947 13.749C124.754 13.613 124.539 13.545 124.301 13.545C124.12 13.545 123.961 13.6073 123.825 13.732C123.7 13.8567 123.615 14.0493 123.57 14.31H122.363C122.488 13.5507 122.726 12.9953 123.077 12.644C123.44 12.2927 123.882 12.117 124.403 12.117C124.732 12.117 125.009 12.185 125.236 12.321C125.463 12.4457 125.672 12.576 125.865 12.712C126.069 12.8367 126.29 12.899 126.528 12.899C126.721 12.899 126.879 12.8367 127.004 12.712C127.14 12.5873 127.225 12.3947 127.259 12.134H128.466C128.353 12.8933 128.115 13.4487 127.752 13.8C127.401 14.14 126.959 14.31 126.426 14.31ZM135.269 24.204C134.453 24.204 133.717 24.017 133.059 23.643C132.413 23.2577 131.898 22.7307 131.512 22.062C131.138 21.382 130.951 20.6057 130.951 19.733C130.951 18.8377 131.138 18.0557 131.512 17.387C131.898 16.707 132.419 16.18 133.076 15.806C133.734 15.4207 134.47 15.228 135.286 15.228C136.114 15.228 136.85 15.4207 137.496 15.806C138.154 16.18 138.669 16.707 139.043 17.387C139.429 18.0557 139.621 18.832 139.621 19.716C139.621 20.6 139.429 21.382 139.043 22.062C138.669 22.7307 138.154 23.2577 137.496 23.643C136.839 24.017 136.097 24.204 135.269 24.204ZM135.269 22.215C135.655 22.215 135.995 22.1243 136.289 21.943C136.595 21.7617 136.833 21.484 137.003 21.11C137.185 20.736 137.275 20.2713 137.275 19.716C137.275 19.1607 137.185 18.7017 137.003 18.339C136.833 17.965 136.595 17.6873 136.289 17.506C135.995 17.3133 135.66 17.217 135.286 17.217C134.924 17.217 134.589 17.3133 134.283 17.506C133.977 17.6873 133.734 17.965 133.552 18.339C133.382 18.7017 133.297 19.1607 133.297 19.716C133.297 20.2713 133.382 20.736 133.552 21.11C133.734 21.484 133.972 21.7617 134.266 21.943C134.572 22.1243 134.907 22.215 135.269 22.215ZM145.26 27.74V15.432H147.3L147.555 16.622C147.736 16.3727 147.952 16.146 148.201 15.942C148.45 15.7267 148.745 15.5567 149.085 15.432C149.436 15.296 149.844 15.228 150.309 15.228C151.114 15.228 151.822 15.4263 152.434 15.823C153.046 16.2197 153.528 16.758 153.879 17.438C154.242 18.1067 154.423 18.8717 154.423 19.733C154.423 20.5943 154.242 21.365 153.879 22.045C153.516 22.7137 153.029 23.2407 152.417 23.626C151.805 24.0113 151.108 24.204 150.326 24.204C149.691 24.204 149.142 24.0907 148.677 23.864C148.224 23.626 147.85 23.303 147.555 22.895V27.74H145.26ZM149.782 22.198C150.235 22.198 150.632 22.096 150.972 21.892C151.323 21.688 151.595 21.399 151.788 21.025C151.981 20.651 152.077 20.2203 152.077 19.733C152.077 19.2457 151.981 18.815 151.788 18.441C151.595 18.0557 151.323 17.761 150.972 17.557C150.632 17.3417 150.235 17.234 149.782 17.234C149.34 17.234 148.943 17.3417 148.592 17.557C148.252 17.761 147.98 18.05 147.776 18.424C147.583 18.798 147.487 19.2287 147.487 19.716C147.487 20.2033 147.583 20.6397 147.776 21.025C147.98 21.399 148.252 21.688 148.592 21.892C148.943 22.096 149.34 22.198 149.782 22.198ZM156.23 24V15.432H158.27L158.491 17.013C158.695 16.639 158.95 16.3217 159.256 16.061C159.573 15.8003 159.93 15.5963 160.327 15.449C160.735 15.3017 161.182 15.228 161.67 15.228V17.659H160.888C160.548 17.659 160.23 17.6987 159.936 17.778C159.652 17.8573 159.403 17.9877 159.188 18.169C158.972 18.339 158.808 18.577 158.695 18.883C158.581 19.189 158.525 19.5743 158.525 20.039V24H156.23ZM166.997 24.204C166.136 24.204 165.371 24.0227 164.702 23.66C164.045 23.286 163.529 22.7703 163.155 22.113C162.792 21.4443 162.611 20.6737 162.611 19.801C162.611 18.9057 162.792 18.118 163.155 17.438C163.529 16.7467 164.045 16.2083 164.702 15.823C165.359 15.4263 166.124 15.228 166.997 15.228C167.847 15.228 168.589 15.415 169.224 15.789C169.859 16.163 170.352 16.6673 170.703 17.302C171.054 17.9367 171.23 18.6563 171.23 19.461C171.23 19.5743 171.23 19.7047 171.23 19.852C171.23 19.988 171.219 20.1297 171.196 20.277H164.243V18.883H168.918C168.884 18.3277 168.686 17.8913 168.323 17.574C167.972 17.2567 167.53 17.098 166.997 17.098C166.612 17.098 166.255 17.1887 165.926 17.37C165.597 17.54 165.337 17.8063 165.144 18.169C164.963 18.5317 164.872 18.9907 164.872 19.546V20.039C164.872 20.5037 164.957 20.9117 165.127 21.263C165.308 21.603 165.558 21.8693 165.875 22.062C166.192 22.2433 166.561 22.334 166.98 22.334C167.399 22.334 167.745 22.2433 168.017 22.062C168.3 21.8807 168.51 21.6483 168.646 21.365H170.992C170.833 21.8977 170.567 22.3793 170.193 22.81C169.819 23.2407 169.36 23.5807 168.816 23.83C168.272 24.0793 167.666 24.204 166.997 24.204ZM172.94 24V15.432H174.963L175.15 16.571C175.422 16.163 175.779 15.84 176.221 15.602C176.674 15.3527 177.19 15.228 177.768 15.228C178.198 15.228 178.584 15.2847 178.924 15.398C179.264 15.5113 179.564 15.6757 179.825 15.891C180.097 16.1063 180.318 16.3783 180.488 16.707C180.805 16.2423 181.219 15.8797 181.729 15.619C182.239 15.3583 182.794 15.228 183.395 15.228C184.143 15.228 184.766 15.381 185.265 15.687C185.763 15.9817 186.137 16.4123 186.387 16.979C186.647 17.5457 186.778 18.2427 186.778 19.07V24H184.5V19.274C184.5 18.594 184.364 18.0727 184.092 17.71C183.831 17.3473 183.423 17.166 182.868 17.166C182.505 17.166 182.182 17.2567 181.899 17.438C181.615 17.6193 181.394 17.88 181.236 18.22C181.088 18.56 181.015 18.968 181.015 19.444V24H178.72V19.274C178.72 18.594 178.584 18.0727 178.312 17.71C178.04 17.3473 177.62 17.166 177.054 17.166C176.702 17.166 176.385 17.2567 176.102 17.438C175.83 17.6193 175.614 17.88 175.456 18.22C175.308 18.56 175.235 18.968 175.235 19.444V24H172.94ZM188.824 24V15.432H191.119V24H188.824ZM189.98 14.259C189.572 14.259 189.232 14.14 188.96 13.902C188.7 13.6527 188.569 13.341 188.569 12.967C188.569 12.593 188.7 12.287 188.96 12.049C189.232 11.7997 189.572 11.675 189.98 11.675C190.4 11.675 190.74 11.7997 191 12.049C191.272 12.287 191.408 12.593 191.408 12.967C191.408 13.341 191.272 13.6527 191 13.902C190.74 14.14 190.4 14.259 189.98 14.259ZM196.465 24.204C195.773 24.204 195.178 24.0623 194.68 23.779C194.192 23.4843 193.818 23.0593 193.558 22.504C193.297 21.9373 193.167 21.2403 193.167 20.413V15.432H195.462V20.175C195.462 20.8663 195.603 21.3877 195.887 21.739C196.181 22.0903 196.629 22.266 197.23 22.266C197.615 22.266 197.955 22.181 198.25 22.011C198.544 21.8297 198.777 21.5747 198.947 21.246C199.128 20.906 199.219 20.4923 199.219 20.005V15.432H201.497V24H199.491L199.304 22.606C199.054 23.0933 198.686 23.4843 198.199 23.779C197.711 24.0623 197.133 24.204 196.465 24.204ZM203.574 24V15.432H205.597L205.784 16.571C206.056 16.163 206.413 15.84 206.855 15.602C207.308 15.3527 207.824 15.228 208.402 15.228C208.833 15.228 209.218 15.2847 209.558 15.398C209.898 15.5113 210.198 15.6757 210.459 15.891C210.731 16.1063 210.952 16.3783 211.122 16.707C211.439 16.2423 211.853 15.8797 212.363 15.619C212.873 15.3583 213.428 15.228 214.029 15.228C214.777 15.228 215.4 15.381 215.899 15.687C216.398 15.9817 216.772 16.4123 217.021 16.979C217.282 17.5457 217.412 18.2427 217.412 19.07V24H215.134V19.274C215.134 18.594 214.998 18.0727 214.726 17.71C214.465 17.3473 214.057 17.166 213.502 17.166C213.139 17.166 212.816 17.2567 212.533 17.438C212.25 17.6193 212.029 17.88 211.87 18.22C211.723 18.56 211.649 18.968 211.649 19.444V24H209.354V19.274C209.354 18.594 209.218 18.0727 208.946 17.71C208.674 17.3473 208.255 17.166 207.688 17.166C207.337 17.166 207.019 17.2567 206.736 17.438C206.464 17.6193 206.249 17.88 206.09 18.22C205.943 18.56 205.869 18.968 205.869 19.444V24H203.574Z" fill="#02BBBC"/>
<g filter="url(#filter0_f_2123_6672)">
<ellipse cx="57.5" cy="25.5" rx="22" ry="21.5" fill="#7FDED9" fill-opacity="0.2"/>
</g>
<circle cx="57" cy="25.5" r="18.25" fill="#BBEEEC" stroke="#7FDED9" stroke-width="0.5"/>
<g clip-path="url(#clip0_2123_6672)">
<path d="M65.5002 32.3335V32.4762C65.4052 32.6239 65.2697 32.7016 65.0731 32.7113L63.2581 32.7986C62.9415 32.8139 62.5569 33.0244 62.3864 33.2798L61.3698 34.8022C61.3025 34.9033 61.1674 34.971 61.0529 34.9695C60.9384 34.968 60.8057 34.8862 60.7298 34.7613L58.057 30.3746L57.4361 30.7862C57.0066 31.071 56.3965 30.7092 55.9391 30.3731L53.227 34.8431L53.0246 34.9996H52.8377L52.6419 34.8542L51.6074 33.3099C51.4381 33.0571 51.0561 32.8433 50.7412 32.8276L48.837 32.7347C48.719 32.7291 48.5738 32.6428 48.5321 32.5592C48.4932 32.4811 48.4846 32.3238 48.5422 32.229L51.1032 28.0029C51.2325 27.7895 50.8521 27.8237 50.3596 27.5719C49.7095 27.2399 49.9676 26.5207 50.1276 25.8071C50.2062 25.4561 50.1513 25.1185 49.9131 24.8392L49.2855 24.1033C48.9226 23.6779 48.9748 23.2451 49.3252 22.8123L49.9684 22.0176C50.1591 21.7819 50.2261 21.4796 50.1665 21.1906L49.9812 20.2867C49.8741 19.7646 50.089 19.3894 50.6111 19.218L51.5665 18.9045C52.2724 18.6728 52.2868 17.9529 52.6582 17.2423C53.1589 16.2845 54.6496 17.3253 55.1515 17.0278C55.7047 16.6998 56.2587 16.1086 56.9206 16.0067C57.1686 15.9684 57.4396 16.0993 57.6288 16.2417L58.4355 16.8478C58.6675 17.0222 58.991 17.0966 59.2838 17.0356L60.3007 16.8236C60.8158 16.7162 61.1931 16.908 61.3799 17.3721L61.7471 18.285C62.0087 18.935 62.7375 18.9365 63.4913 19.2481C64.245 19.5597 63.9842 20.3056 63.8136 21.0649C63.7365 21.4085 63.7911 21.7406 64.0106 22.0251L64.6534 22.8576C64.9987 23.3053 65.0447 23.6813 64.6764 24.1163L64.0511 24.8548C63.8335 25.1118 63.7685 25.4331 63.8374 25.7554C64.0005 26.5185 64.2878 27.2715 63.5789 27.6009C63.339 27.7125 63.0801 27.7876 62.8127 27.8731L65.429 32.1706L65.5006 32.3335H65.5002ZM62.8037 23.4425C62.8037 20.3722 60.1987 17.883 56.9848 17.883C53.7709 17.883 51.1663 20.3722 51.1663 23.4425C51.1663 26.5129 53.7713 29.0021 56.9852 29.0021C60.1991 29.0021 62.8041 26.5129 62.8041 23.4425H62.8037Z" fill="#02BBBC"/>
<path d="M61.8999 23.4418C61.8999 26.0355 59.699 28.1383 56.9846 28.1383C54.2702 28.1383 52.0693 26.0358 52.0693 23.4418C52.0693 20.8478 54.2702 18.7454 56.9846 18.7454C59.699 18.7454 61.8999 20.8478 61.8999 23.4418ZM57.5445 25.7287L58.6953 26.2917C58.763 26.3248 58.9258 26.314 58.9787 26.2723C59.0317 26.2307 59.0901 26.0998 59.078 26.0277L58.8725 24.7846C58.823 24.4856 58.953 24.0937 59.1761 23.8799L60.1125 22.9833C60.1666 22.9313 60.2043 22.7799 60.1798 22.7126C60.1568 22.6498 60.0471 22.5639 59.9649 22.5516L58.6743 22.3556C58.3667 22.3088 58.0132 22.0782 57.8707 21.8127L57.2614 20.6767C57.2213 20.602 57.0886 20.5224 57.015 20.5254C56.9496 20.528 56.8223 20.6009 56.7884 20.6641L56.1799 21.8001C56.0366 22.0675 55.6916 22.3047 55.381 22.3523L54.0639 22.5542C53.9864 22.5661 53.8793 22.6572 53.8583 22.7175C53.8373 22.7777 53.8688 22.9272 53.9206 22.9763L54.841 23.8505C55.0773 24.0751 55.2198 24.4707 55.1664 24.7905L54.9624 26.0213C54.9488 26.1024 55.0111 26.2422 55.0718 26.2783C55.1259 26.3103 55.2755 26.3248 55.3358 26.295L56.4427 25.7488C56.758 25.5933 57.2135 25.5666 57.5448 25.7287H57.5445Z" fill="#02BBBC"/>
</g>
<path d="M1.5 119L83.5 119" stroke="#BBEEEC" stroke-width="2" stroke-linecap="round"/>
<path d="M120.21 135V128H122.47C123.283 128 123.953 128.143 124.48 128.43C125.013 128.717 125.407 129.123 125.66 129.65C125.92 130.17 126.05 130.79 126.05 131.51C126.05 132.217 125.92 132.833 125.66 133.36C125.407 133.88 125.013 134.283 124.48 134.57C123.953 134.857 123.283 135 122.47 135H120.21ZM121.41 133.98H122.41C123.017 133.98 123.493 133.883 123.84 133.69C124.193 133.49 124.443 133.207 124.59 132.84C124.743 132.467 124.82 132.023 124.82 131.51C124.82 130.99 124.743 130.547 124.59 130.18C124.443 129.807 124.193 129.52 123.84 129.32C123.493 129.113 123.017 129.01 122.41 129.01H121.41V133.98ZM127.132 135V129.96H128.332V135H127.132ZM127.732 129.16C127.512 129.16 127.328 129.093 127.182 128.96C127.042 128.82 126.972 128.65 126.972 128.45C126.972 128.243 127.042 128.077 127.182 127.95C127.328 127.817 127.512 127.75 127.732 127.75C127.952 127.75 128.132 127.817 128.272 127.95C128.418 128.077 128.492 128.243 128.492 128.45C128.492 128.65 128.418 128.82 128.272 128.96C128.132 129.093 127.952 129.16 127.732 129.16ZM131.628 135.12C131.182 135.12 130.792 135.05 130.458 134.91C130.132 134.763 129.872 134.563 129.678 134.31C129.492 134.05 129.382 133.753 129.348 133.42H130.548C130.582 133.56 130.642 133.69 130.728 133.81C130.815 133.923 130.932 134.013 131.078 134.08C131.232 134.147 131.412 134.18 131.618 134.18C131.818 134.18 131.982 134.153 132.108 134.1C132.235 134.04 132.328 133.963 132.388 133.87C132.448 133.777 132.478 133.677 132.478 133.57C132.478 133.41 132.435 133.287 132.348 133.2C132.262 133.113 132.135 133.047 131.968 133C131.808 132.947 131.615 132.897 131.388 132.85C131.148 132.803 130.915 132.747 130.688 132.68C130.468 132.607 130.268 132.517 130.088 132.41C129.915 132.303 129.775 132.167 129.668 132C129.568 131.833 129.518 131.63 129.518 131.39C129.518 131.097 129.595 130.833 129.748 130.6C129.908 130.367 130.135 130.183 130.428 130.05C130.728 129.91 131.085 129.84 131.498 129.84C132.085 129.84 132.552 129.977 132.898 130.25C133.252 130.517 133.458 130.893 133.518 131.38H132.378C132.345 131.193 132.252 131.05 132.098 130.95C131.945 130.843 131.742 130.79 131.488 130.79C131.228 130.79 131.028 130.84 130.888 130.94C130.755 131.033 130.688 131.16 130.688 131.32C130.688 131.42 130.728 131.513 130.808 131.6C130.895 131.68 131.018 131.75 131.178 131.81C131.338 131.863 131.535 131.917 131.768 131.97C132.142 132.043 132.472 132.13 132.758 132.23C133.045 132.33 133.272 132.477 133.438 132.67C133.605 132.863 133.688 133.137 133.688 133.49C133.695 133.81 133.612 134.093 133.438 134.34C133.272 134.587 133.035 134.78 132.728 134.92C132.422 135.053 132.055 135.12 131.628 135.12ZM137.113 135.12C136.613 135.12 136.173 135.013 135.793 134.8C135.413 134.58 135.116 134.273 134.903 133.88C134.689 133.487 134.583 133.033 134.583 132.52C134.583 131.987 134.686 131.52 134.893 131.12C135.106 130.72 135.403 130.407 135.783 130.18C136.169 129.953 136.616 129.84 137.123 129.84C137.616 129.84 138.046 129.95 138.413 130.17C138.779 130.39 139.063 130.687 139.263 131.06C139.463 131.427 139.563 131.84 139.563 132.3C139.563 132.367 139.563 132.44 139.563 132.52C139.563 132.6 139.556 132.683 139.543 132.77H135.443V132H138.353C138.339 131.633 138.216 131.347 137.983 131.14C137.749 130.927 137.459 130.82 137.113 130.82C136.866 130.82 136.639 130.877 136.433 130.99C136.226 131.103 136.063 131.273 135.943 131.5C135.823 131.72 135.763 132 135.763 132.34V132.63C135.763 132.943 135.819 133.213 135.933 133.44C136.053 133.667 136.213 133.84 136.413 133.96C136.619 134.073 136.849 134.13 137.103 134.13C137.383 134.13 137.613 134.07 137.793 133.95C137.979 133.83 138.116 133.67 138.203 133.47H139.423C139.329 133.783 139.176 134.067 138.963 134.32C138.749 134.567 138.486 134.763 138.173 134.91C137.859 135.05 137.506 135.12 137.113 135.12ZM140.571 135V129.96H141.631L141.721 130.8C141.874 130.507 142.094 130.273 142.381 130.1C142.667 129.927 143.007 129.84 143.401 129.84C143.807 129.84 144.154 129.927 144.441 130.1C144.727 130.267 144.947 130.513 145.101 130.84C145.261 131.167 145.341 131.573 145.341 132.06V135H144.141V132.17C144.141 131.75 144.047 131.427 143.861 131.2C143.674 130.973 143.397 130.86 143.031 130.86C142.791 130.86 142.574 130.917 142.381 131.03C142.194 131.143 142.044 131.31 141.931 131.53C141.824 131.743 141.771 132.003 141.771 132.31V135H140.571ZM143.711 129.3C143.524 129.3 143.364 129.263 143.231 129.19C143.104 129.11 142.984 129.033 142.871 128.96C142.757 128.88 142.634 128.84 142.501 128.84C142.387 128.84 142.291 128.877 142.211 128.95C142.137 129.023 142.091 129.137 142.071 129.29H141.421C141.481 128.877 141.611 128.573 141.811 128.38C142.011 128.187 142.257 128.09 142.551 128.09C142.737 128.09 142.894 128.13 143.021 128.21C143.154 128.283 143.277 128.36 143.391 128.44C143.504 128.513 143.627 128.55 143.761 128.55C143.874 128.55 143.967 128.513 144.041 128.44C144.121 128.36 144.171 128.247 144.191 128.1H144.851C144.791 128.507 144.657 128.81 144.451 129.01C144.251 129.203 144.004 129.3 143.711 129.3ZM148.186 135.12C147.773 135.12 147.429 135.05 147.156 134.91C146.883 134.77 146.679 134.583 146.546 134.35C146.413 134.117 146.346 133.863 146.346 133.59C146.346 133.27 146.426 132.993 146.586 132.76C146.753 132.527 146.996 132.347 147.316 132.22C147.636 132.087 148.029 132.02 148.496 132.02H149.766C149.766 131.753 149.729 131.533 149.656 131.36C149.583 131.18 149.469 131.047 149.316 130.96C149.163 130.873 148.966 130.83 148.726 130.83C148.453 130.83 148.219 130.893 148.026 131.02C147.833 131.14 147.713 131.327 147.666 131.58H146.486C146.526 131.22 146.646 130.913 146.846 130.66C147.046 130.4 147.309 130.2 147.636 130.06C147.969 129.913 148.333 129.84 148.726 129.84C149.199 129.84 149.603 129.923 149.936 130.09C150.269 130.25 150.523 130.483 150.696 130.79C150.876 131.09 150.966 131.453 150.966 131.88V135H149.946L149.826 134.19C149.759 134.323 149.673 134.447 149.566 134.56C149.466 134.673 149.349 134.773 149.216 134.86C149.083 134.94 148.929 135.003 148.756 135.05C148.589 135.097 148.399 135.12 148.186 135.12ZM148.456 134.17C148.649 134.17 148.819 134.137 148.966 134.07C149.119 133.997 149.249 133.897 149.356 133.77C149.469 133.637 149.556 133.49 149.616 133.33C149.676 133.17 149.716 133 149.736 132.82V132.8H148.626C148.393 132.8 148.199 132.83 148.046 132.89C147.893 132.943 147.783 133.023 147.716 133.13C147.649 133.237 147.616 133.36 147.616 133.5C147.616 133.64 147.649 133.76 147.716 133.86C147.783 133.96 147.879 134.037 148.006 134.09C148.133 134.143 148.283 134.17 148.456 134.17ZM151.648 136.23L152.218 133.79H153.388L152.438 136.23H151.648ZM159.045 135.12C158.552 135.12 158.108 135.01 157.715 134.79C157.328 134.563 157.025 134.253 156.805 133.86C156.592 133.46 156.485 133.007 156.485 132.5C156.485 131.973 156.592 131.513 156.805 131.12C157.025 130.72 157.328 130.407 157.715 130.18C158.108 129.953 158.555 129.84 159.055 129.84C159.682 129.84 160.208 130.007 160.635 130.34C161.062 130.667 161.335 131.117 161.455 131.69H160.195C160.128 131.437 159.988 131.237 159.775 131.09C159.568 130.943 159.322 130.87 159.035 130.87C158.788 130.87 158.562 130.933 158.355 131.06C158.155 131.187 157.995 131.37 157.875 131.61C157.762 131.85 157.705 132.14 157.705 132.48C157.705 132.74 157.738 132.97 157.805 133.17C157.872 133.37 157.965 133.54 158.085 133.68C158.212 133.813 158.355 133.917 158.515 133.99C158.675 134.063 158.848 134.1 159.035 134.1C159.228 134.1 159.402 134.07 159.555 134.01C159.715 133.943 159.848 133.847 159.955 133.72C160.068 133.593 160.148 133.443 160.195 133.27H161.455C161.335 133.83 161.062 134.28 160.635 134.62C160.208 134.953 159.678 135.12 159.045 135.12ZM164.862 135.12C164.382 135.12 163.949 135.01 163.562 134.79C163.182 134.563 162.882 134.253 162.662 133.86C162.449 133.46 162.342 133.003 162.342 132.49C162.342 131.963 162.452 131.503 162.672 131.11C162.892 130.71 163.192 130.4 163.572 130.18C163.959 129.953 164.392 129.84 164.872 129.84C165.352 129.84 165.782 129.953 166.162 130.18C166.549 130.4 166.849 130.707 167.062 131.1C167.282 131.493 167.392 131.953 167.392 132.48C167.392 133.007 167.282 133.467 167.062 133.86C166.842 134.253 166.539 134.563 166.152 134.79C165.772 135.01 165.342 135.12 164.862 135.12ZM164.862 134.09C165.102 134.09 165.319 134.03 165.512 133.91C165.712 133.79 165.872 133.61 165.992 133.37C166.112 133.13 166.172 132.833 166.172 132.48C166.172 132.127 166.112 131.833 165.992 131.6C165.879 131.36 165.722 131.18 165.522 131.06C165.329 130.94 165.112 130.88 164.872 130.88C164.639 130.88 164.422 130.94 164.222 131.06C164.022 131.18 163.862 131.36 163.742 131.6C163.622 131.833 163.562 132.127 163.562 132.48C163.562 132.833 163.622 133.13 163.742 133.37C163.862 133.61 164.019 133.79 164.212 133.91C164.412 134.03 164.629 134.09 164.862 134.09ZM170.462 135C170.122 135 169.825 134.947 169.572 134.84C169.325 134.733 169.132 134.557 168.992 134.31C168.852 134.063 168.782 133.73 168.782 133.31V130.97H167.922V129.96H168.782L168.922 128.63H169.982V129.96H171.352V130.97H169.982V133.31C169.982 133.563 170.035 133.74 170.142 133.84C170.255 133.933 170.442 133.98 170.702 133.98H171.322V135H170.462ZM172.431 135V129.96H173.631V135H172.431ZM173.031 129.16C172.811 129.16 172.627 129.093 172.481 128.96C172.341 128.82 172.271 128.65 172.271 128.45C172.271 128.243 172.341 128.077 172.481 127.95C172.627 127.817 172.811 127.75 173.031 127.75C173.251 127.75 173.431 127.817 173.571 127.95C173.717 128.077 173.791 128.243 173.791 128.45C173.791 128.65 173.717 128.82 173.571 128.96C173.431 129.093 173.251 129.16 173.031 129.16ZM174.587 135V134.03L177.197 130.96H174.627V129.96H178.577V130.93L175.937 134.01H178.627V135H174.587ZM181.312 135.12C180.898 135.12 180.555 135.05 180.282 134.91C180.008 134.77 179.805 134.583 179.672 134.35C179.538 134.117 179.472 133.863 179.472 133.59C179.472 133.27 179.552 132.993 179.712 132.76C179.878 132.527 180.122 132.347 180.442 132.22C180.762 132.087 181.155 132.02 181.622 132.02H182.892C182.892 131.753 182.855 131.533 182.782 131.36C182.708 131.18 182.595 131.047 182.442 130.96C182.288 130.873 182.092 130.83 181.852 130.83C181.578 130.83 181.345 130.893 181.152 131.02C180.958 131.14 180.838 131.327 180.792 131.58H179.612C179.652 131.22 179.772 130.913 179.972 130.66C180.172 130.4 180.435 130.2 180.762 130.06C181.095 129.913 181.458 129.84 181.852 129.84C182.325 129.84 182.728 129.923 183.062 130.09C183.395 130.25 183.648 130.483 183.822 130.79C184.002 131.09 184.092 131.453 184.092 131.88V135H183.072L182.952 134.19C182.885 134.323 182.798 134.447 182.692 134.56C182.592 134.673 182.475 134.773 182.342 134.86C182.208 134.94 182.055 135.003 181.882 135.05C181.715 135.097 181.525 135.12 181.312 135.12ZM181.582 134.17C181.775 134.17 181.945 134.137 182.092 134.07C182.245 133.997 182.375 133.897 182.482 133.77C182.595 133.637 182.682 133.49 182.742 133.33C182.802 133.17 182.842 133 182.862 132.82V132.8H181.752C181.518 132.8 181.325 132.83 181.172 132.89C181.018 132.943 180.908 133.023 180.842 133.13C180.775 133.237 180.742 133.36 180.742 133.5C180.742 133.64 180.775 133.76 180.842 133.86C180.908 133.96 181.005 134.037 181.132 134.09C181.258 134.143 181.408 134.17 181.582 134.17ZM188.225 137.2L189.455 134.44H189.155L187.145 129.96H188.455L189.955 133.38L191.375 129.96H192.645L189.495 137.2H188.225ZM198.145 135.12C197.652 135.12 197.208 135.01 196.815 134.79C196.428 134.563 196.125 134.253 195.905 133.86C195.692 133.46 195.585 133.007 195.585 132.5C195.585 131.973 195.692 131.513 195.905 131.12C196.125 130.72 196.428 130.407 196.815 130.18C197.208 129.953 197.655 129.84 198.155 129.84C198.782 129.84 199.308 130.007 199.735 130.34C200.162 130.667 200.435 131.117 200.555 131.69H199.295C199.228 131.437 199.088 131.237 198.875 131.09C198.668 130.943 198.422 130.87 198.135 130.87C197.888 130.87 197.662 130.933 197.455 131.06C197.255 131.187 197.095 131.37 196.975 131.61C196.862 131.85 196.805 132.14 196.805 132.48C196.805 132.74 196.838 132.97 196.905 133.17C196.972 133.37 197.065 133.54 197.185 133.68C197.312 133.813 197.455 133.917 197.615 133.99C197.775 134.063 197.948 134.1 198.135 134.1C198.328 134.1 198.502 134.07 198.655 134.01C198.815 133.943 198.948 133.847 199.055 133.72C199.168 133.593 199.248 133.443 199.295 133.27H200.555C200.435 133.83 200.162 134.28 199.735 134.62C199.308 134.953 198.778 135.12 198.145 135.12ZM203.962 135.12C203.482 135.12 203.049 135.01 202.662 134.79C202.282 134.563 201.982 134.253 201.762 133.86C201.549 133.46 201.442 133.003 201.442 132.49C201.442 131.963 201.552 131.503 201.772 131.11C201.992 130.71 202.292 130.4 202.672 130.18C203.059 129.953 203.492 129.84 203.972 129.84C204.452 129.84 204.882 129.953 205.262 130.18C205.649 130.4 205.949 130.707 206.162 131.1C206.382 131.493 206.492 131.953 206.492 132.48C206.492 133.007 206.382 133.467 206.162 133.86C205.942 134.253 205.639 134.563 205.252 134.79C204.872 135.01 204.442 135.12 203.962 135.12ZM203.962 134.09C204.202 134.09 204.419 134.03 204.612 133.91C204.812 133.79 204.972 133.61 205.092 133.37C205.212 133.13 205.272 132.833 205.272 132.48C205.272 132.127 205.212 131.833 205.092 131.6C204.979 131.36 204.822 131.18 204.622 131.06C204.429 130.94 204.212 130.88 203.972 130.88C203.739 130.88 203.522 130.94 203.322 131.06C203.122 131.18 202.962 131.36 202.842 131.6C202.722 131.833 202.662 132.127 202.662 132.48C202.662 132.833 202.722 133.13 202.842 133.37C202.962 133.61 203.119 133.79 203.312 133.91C203.512 134.03 203.729 134.09 203.962 134.09ZM207.567 135V129.96H208.627L208.727 130.65C208.887 130.397 209.097 130.2 209.357 130.06C209.624 129.913 209.927 129.84 210.267 129.84C210.52 129.84 210.747 129.873 210.947 129.94C211.154 130.007 211.334 130.107 211.487 130.24C211.647 130.373 211.777 130.54 211.877 130.74C212.064 130.46 212.307 130.24 212.607 130.08C212.907 129.92 213.234 129.84 213.587 129.84C214.007 129.84 214.364 129.927 214.657 130.1C214.95 130.267 215.174 130.517 215.327 130.85C215.48 131.177 215.557 131.58 215.557 132.06V135H214.367V132.18C214.367 131.753 214.28 131.427 214.107 131.2C213.934 130.973 213.677 130.86 213.337 130.86C213.104 130.86 212.897 130.917 212.717 131.03C212.544 131.143 212.407 131.31 212.307 131.53C212.207 131.743 212.157 132.007 212.157 132.32V135H210.967V132.18C210.967 131.753 210.88 131.427 210.707 131.2C210.534 130.973 210.274 130.86 209.927 130.86C209.707 130.86 209.507 130.917 209.327 131.03C209.154 131.143 209.017 131.31 208.917 131.53C208.817 131.743 208.767 132.007 208.767 132.32V135H207.567ZM216.725 137.2V129.96H217.795L217.925 130.69C218.031 130.543 218.158 130.407 218.305 130.28C218.458 130.147 218.641 130.04 218.855 129.96C219.075 129.88 219.325 129.84 219.605 129.84C220.078 129.84 220.495 129.957 220.855 130.19C221.221 130.423 221.508 130.74 221.715 131.14C221.921 131.533 222.025 131.983 222.025 132.49C222.025 132.997 221.918 133.45 221.705 133.85C221.498 134.243 221.211 134.553 220.845 134.78C220.485 135.007 220.071 135.12 219.605 135.12C219.225 135.12 218.891 135.05 218.605 134.91C218.325 134.763 218.098 134.557 217.925 134.29V137.2H216.725ZM219.355 134.08C219.635 134.08 219.885 134.013 220.105 133.88C220.325 133.747 220.495 133.56 220.615 133.32C220.741 133.08 220.805 132.803 220.805 132.49C220.805 132.17 220.741 131.89 220.615 131.65C220.495 131.41 220.325 131.223 220.105 131.09C219.885 130.957 219.635 130.89 219.355 130.89C219.068 130.89 218.815 130.957 218.595 131.09C218.381 131.223 218.211 131.41 218.085 131.65C217.965 131.89 217.905 132.167 217.905 132.48C217.905 132.8 217.965 133.08 218.085 133.32C218.211 133.553 218.381 133.74 218.595 133.88C218.815 134.013 219.068 134.08 219.355 134.08ZM223.09 135V129.96H224.16L224.27 130.9C224.39 130.68 224.54 130.493 224.72 130.34C224.9 130.18 225.11 130.057 225.35 129.97C225.596 129.883 225.866 129.84 226.16 129.84V131.11H225.74C225.54 131.11 225.35 131.137 225.17 131.19C224.99 131.237 224.833 131.317 224.7 131.43C224.573 131.537 224.473 131.687 224.4 131.88C224.326 132.067 224.29 132.303 224.29 132.59V135H223.09ZM228.644 135.12C228.231 135.12 227.887 135.05 227.614 134.91C227.341 134.77 227.137 134.583 227.004 134.35C226.871 134.117 226.804 133.863 226.804 133.59C226.804 133.27 226.884 132.993 227.044 132.76C227.211 132.527 227.454 132.347 227.774 132.22C228.094 132.087 228.487 132.02 228.954 132.02H230.224C230.224 131.753 230.187 131.533 230.114 131.36C230.041 131.18 229.927 131.047 229.774 130.96C229.621 130.873 229.424 130.83 229.184 130.83C228.911 130.83 228.677 130.893 228.484 131.02C228.291 131.14 228.171 131.327 228.124 131.58H226.944C226.984 131.22 227.104 130.913 227.304 130.66C227.504 130.4 227.767 130.2 228.094 130.06C228.427 129.913 228.791 129.84 229.184 129.84C229.657 129.84 230.061 129.923 230.394 130.09C230.727 130.25 230.981 130.483 231.154 130.79C231.334 131.09 231.424 131.453 231.424 131.88V135H230.404L230.284 134.19C230.217 134.323 230.131 134.447 230.024 134.56C229.924 134.673 229.807 134.773 229.674 134.86C229.541 134.94 229.387 135.003 229.214 135.05C229.047 135.097 228.857 135.12 228.644 135.12ZM228.914 134.17C229.107 134.17 229.277 134.137 229.424 134.07C229.577 133.997 229.707 133.897 229.814 133.77C229.927 133.637 230.014 133.49 230.074 133.33C230.134 133.17 230.174 133 230.194 132.82V132.8H229.084C228.851 132.8 228.657 132.83 228.504 132.89C228.351 132.943 228.241 133.023 228.174 133.13C228.107 133.237 228.074 133.36 228.074 133.5C228.074 133.64 228.107 133.76 228.174 133.86C228.241 133.96 228.337 134.037 228.464 134.09C228.591 134.143 228.741 134.17 228.914 134.17ZM233.126 135.05C232.9 135.05 232.716 134.98 232.576 134.84C232.436 134.7 232.366 134.533 232.366 134.34C232.366 134.133 232.436 133.96 232.576 133.82C232.716 133.68 232.9 133.61 233.126 133.61C233.346 133.61 233.526 133.68 233.666 133.82C233.806 133.96 233.876 134.133 233.876 134.34C233.876 134.533 233.806 134.7 233.666 134.84C233.526 134.98 233.346 135.05 233.126 135.05Z" fill="#3C3C3C"/>
<path d="M123.444 118V107.953H119.959V106.1H129.19V107.953H125.722V118H123.444ZM133.114 118.204C132.298 118.204 131.562 118.017 130.904 117.643C130.258 117.258 129.743 116.731 129.357 116.062C128.983 115.382 128.796 114.606 128.796 113.733C128.796 112.838 128.983 112.056 129.357 111.387C129.743 110.707 130.264 110.18 130.921 109.806C131.579 109.421 132.315 109.228 133.131 109.228C133.959 109.228 134.695 109.421 135.341 109.806C135.999 110.18 136.514 110.707 136.888 111.387C137.274 112.056 137.466 112.832 137.466 113.716C137.466 114.6 137.274 115.382 136.888 116.062C136.514 116.731 135.999 117.258 135.341 117.643C134.684 118.017 133.942 118.204 133.114 118.204ZM133.114 116.215C133.5 116.215 133.84 116.124 134.134 115.943C134.44 115.762 134.678 115.484 134.848 115.11C135.03 114.736 135.12 114.271 135.12 113.716C135.12 113.161 135.03 112.702 134.848 112.339C134.678 111.965 134.44 111.687 134.134 111.506C133.84 111.313 133.505 111.217 133.131 111.217C132.769 111.217 132.434 111.313 132.128 111.506C131.822 111.687 131.579 111.965 131.397 112.339C131.227 112.702 131.142 113.161 131.142 113.716C131.142 114.271 131.227 114.736 131.397 115.11C131.579 115.484 131.817 115.762 132.111 115.943C132.417 116.124 132.752 116.215 133.114 116.215ZM143.082 118.204C142.3 118.204 141.598 118.011 140.974 117.626C140.362 117.241 139.881 116.708 139.529 116.028C139.178 115.348 139.002 114.583 139.002 113.733C139.002 112.86 139.178 112.09 139.529 111.421C139.892 110.741 140.385 110.208 141.008 109.823C141.643 109.426 142.351 109.228 143.133 109.228C143.745 109.228 144.284 109.341 144.748 109.568C145.213 109.795 145.587 110.118 145.87 110.537V105.76H148.165V118H146.125L145.87 116.827C145.7 117.065 145.485 117.292 145.224 117.507C144.975 117.722 144.675 117.892 144.323 118.017C143.972 118.142 143.558 118.204 143.082 118.204ZM143.626 116.198C144.08 116.198 144.476 116.096 144.816 115.892C145.168 115.677 145.44 115.382 145.632 115.008C145.825 114.634 145.921 114.203 145.921 113.716C145.921 113.229 145.825 112.798 145.632 112.424C145.44 112.05 145.168 111.761 144.816 111.557C144.476 111.342 144.08 111.234 143.626 111.234C143.196 111.234 142.805 111.342 142.453 111.557C142.102 111.761 141.824 112.05 141.62 112.424C141.428 112.798 141.331 113.223 141.331 113.699C141.331 114.198 141.428 114.634 141.62 115.008C141.824 115.382 142.096 115.677 142.436 115.892C142.788 116.096 143.184 116.198 143.626 116.198ZM154.29 118.204C153.474 118.204 152.737 118.017 152.08 117.643C151.434 117.258 150.918 116.731 150.533 116.062C150.159 115.382 149.972 114.606 149.972 113.733C149.972 112.838 150.159 112.056 150.533 111.387C150.918 110.707 151.44 110.18 152.097 109.806C152.754 109.421 153.491 109.228 154.307 109.228C155.134 109.228 155.871 109.421 156.517 109.806C157.174 110.18 157.69 110.707 158.064 111.387C158.449 112.056 158.642 112.832 158.642 113.716C158.642 114.6 158.449 115.382 158.064 116.062C157.69 116.731 157.174 117.258 156.517 117.643C155.86 118.017 155.117 118.204 154.29 118.204ZM154.29 116.215C154.675 116.215 155.015 116.124 155.31 115.943C155.616 115.762 155.854 115.484 156.024 115.11C156.205 114.736 156.296 114.271 156.296 113.716C156.296 113.161 156.205 112.702 156.024 112.339C155.854 111.965 155.616 111.687 155.31 111.506C155.015 111.313 154.681 111.217 154.307 111.217C153.944 111.217 153.61 111.313 153.304 111.506C152.998 111.687 152.754 111.965 152.573 112.339C152.403 112.702 152.318 113.161 152.318 113.716C152.318 114.271 152.403 114.736 152.573 115.11C152.754 115.484 152.992 115.762 153.287 115.943C153.593 116.124 153.927 116.215 154.29 116.215ZM168.395 118.204C167.533 118.204 166.768 118.023 166.1 117.66C165.442 117.286 164.927 116.77 164.553 116.113C164.19 115.444 164.009 114.674 164.009 113.801C164.009 112.906 164.19 112.118 164.553 111.438C164.927 110.747 165.442 110.208 166.1 109.823C166.757 109.426 167.522 109.228 168.395 109.228C169.245 109.228 169.987 109.415 170.622 109.789C171.256 110.163 171.749 110.667 172.101 111.302C172.452 111.937 172.628 112.656 172.628 113.461C172.628 113.574 172.628 113.705 172.628 113.852C172.628 113.988 172.616 114.13 172.594 114.277H165.641V112.883H170.316C170.282 112.328 170.083 111.891 169.721 111.574C169.369 111.257 168.927 111.098 168.395 111.098C168.009 111.098 167.652 111.189 167.324 111.37C166.995 111.54 166.734 111.806 166.542 112.169C166.36 112.532 166.27 112.991 166.27 113.546V114.039C166.27 114.504 166.355 114.912 166.525 115.263C166.706 115.603 166.955 115.869 167.273 116.062C167.59 116.243 167.958 116.334 168.378 116.334C168.797 116.334 169.143 116.243 169.415 116.062C169.698 115.881 169.908 115.648 170.044 115.365H172.39C172.231 115.898 171.965 116.379 171.591 116.81C171.217 117.241 170.758 117.581 170.214 117.83C169.67 118.079 169.063 118.204 168.395 118.204ZM174.337 118V109.432H176.36L176.53 110.826C176.791 110.35 177.159 109.965 177.635 109.67C178.123 109.375 178.701 109.228 179.369 109.228C180.083 109.228 180.684 109.375 181.171 109.67C181.659 109.965 182.027 110.395 182.276 110.962C182.537 111.529 182.667 112.226 182.667 113.053V118H180.389V113.274C180.389 112.594 180.242 112.073 179.947 111.71C179.664 111.347 179.222 111.166 178.621 111.166C178.236 111.166 177.89 111.257 177.584 111.438C177.29 111.619 177.057 111.88 176.887 112.22C176.717 112.549 176.632 112.951 176.632 113.427V118H174.337ZM191.687 118.204C190.995 118.204 190.4 118.062 189.902 117.779C189.414 117.484 189.04 117.059 188.78 116.504C188.519 115.937 188.389 115.24 188.389 114.413V109.432H190.684V114.175C190.684 114.866 190.825 115.388 191.109 115.739C191.403 116.09 191.851 116.266 192.452 116.266C192.837 116.266 193.177 116.181 193.472 116.011C193.766 115.83 193.999 115.575 194.169 115.246C194.35 114.906 194.441 114.492 194.441 114.005V109.432H196.719V118H194.713L194.526 116.606C194.276 117.093 193.908 117.484 193.421 117.779C192.933 118.062 192.355 118.204 191.687 118.204ZM198.796 118V109.432H200.819L200.989 110.826C201.25 110.35 201.618 109.965 202.094 109.67C202.581 109.375 203.159 109.228 203.828 109.228C204.542 109.228 205.143 109.375 205.63 109.67C206.117 109.965 206.486 110.395 206.735 110.962C206.996 111.529 207.126 112.226 207.126 113.053V118H204.848V113.274C204.848 112.594 204.701 112.073 204.406 111.71C204.123 111.347 203.681 111.166 203.08 111.166C202.695 111.166 202.349 111.257 202.043 111.438C201.748 111.619 201.516 111.88 201.346 112.22C201.176 112.549 201.091 112.951 201.091 113.427V118H198.796ZM213.164 118.204C212.348 118.204 211.612 118.017 210.954 117.643C210.308 117.258 209.793 116.731 209.407 116.062C209.033 115.382 208.846 114.606 208.846 113.733C208.846 112.838 209.033 112.056 209.407 111.387C209.793 110.707 210.314 110.18 210.971 109.806C211.629 109.421 212.365 109.228 213.181 109.228C214.009 109.228 214.745 109.421 215.391 109.806C216.049 110.18 216.564 110.707 216.938 111.387C217.324 112.056 217.516 112.832 217.516 113.716C217.516 114.6 217.324 115.382 216.938 116.062C216.564 116.731 216.049 117.258 215.391 117.643C214.734 118.017 213.992 118.204 213.164 118.204ZM213.164 116.215C213.55 116.215 213.89 116.124 214.184 115.943C214.49 115.762 214.728 115.484 214.898 115.11C215.08 114.736 215.17 114.271 215.17 113.716C215.17 113.161 215.08 112.702 214.898 112.339C214.728 111.965 214.49 111.687 214.184 111.506C213.89 111.313 213.555 111.217 213.181 111.217C212.819 111.217 212.484 111.313 212.178 111.506C211.872 111.687 211.629 111.965 211.447 112.339C211.277 112.702 211.192 113.161 211.192 113.716C211.192 114.271 211.277 114.736 211.447 115.11C211.629 115.484 211.867 115.762 212.161 115.943C212.467 116.124 212.802 116.215 213.164 116.215Z" fill="#02BBBC"/>
<g filter="url(#filter1_f_2123_6672)">
<ellipse cx="92.5" cy="119.5" rx="22" ry="21.5" fill="#7FDED9" fill-opacity="0.2"/>
</g>
<circle cx="92" cy="119.5" r="18.25" fill="#BBEEEC" stroke="#7FDED9" stroke-width="0.5"/>
<path d="M101.5 119.217C101.491 124.336 97.4734 128.434 92.4742 128.425C87.5214 128.414 83.4914 124.272 83.5 119.196C83.5086 114.089 87.5438 109.984 92.5379 110C97.525 110.016 101.509 114.114 101.5 119.217ZM91.5515 120.583C90.9179 119.933 90.3361 119.33 89.749 118.732C89.1861 118.159 88.4734 118.112 88 118.607C87.5025 119.125 87.5404 119.807 88.1067 120.393C88.9434 121.256 89.7835 122.116 90.6236 122.975C91.2158 123.579 91.863 123.576 92.4673 122.966C93.0474 122.379 93.6224 121.785 94.1991 121.195C95.1098 120.262 96.0256 119.331 96.9311 118.396C97.4786 117.83 97.5061 117.142 97.0189 116.64C96.5283 116.134 95.8621 116.164 95.3095 116.716C95.2269 116.797 95.1459 116.881 95.0668 116.964C93.9065 118.159 92.7462 119.353 91.5532 120.583H91.5515Z" fill="#02BBBC"/>
<path d="M89.6 229V222H90.95V229H89.6ZM85.19 229V222H86.54V229H85.19ZM86.35 225.97V224.88H89.83V225.97H86.35ZM93.8987 229.12C93.4787 229.12 93.132 229.053 92.8587 228.92C92.5853 228.78 92.382 228.597 92.2487 228.37C92.122 228.137 92.0587 227.88 92.0587 227.6C92.0587 227.293 92.1353 227.023 92.2887 226.79C92.4487 226.557 92.6853 226.373 92.9987 226.24C93.3187 226.107 93.7187 226.04 94.1987 226.04H95.4487C95.4487 225.793 95.4153 225.59 95.3487 225.43C95.282 225.263 95.1787 225.14 95.0387 225.06C94.8987 224.98 94.712 224.94 94.4787 224.94C94.2253 224.94 94.0087 224.997 93.8287 225.11C93.6553 225.217 93.5487 225.383 93.5087 225.61H92.1987C92.232 225.25 92.3487 224.94 92.5487 224.68C92.7553 224.413 93.0253 224.207 93.3587 224.06C93.6987 223.913 94.0753 223.84 94.4887 223.84C94.962 223.84 95.372 223.92 95.7187 224.08C96.0653 224.24 96.332 224.47 96.5187 224.77C96.7053 225.07 96.7987 225.44 96.7987 225.88V229H95.6587L95.5087 228.23C95.4353 228.363 95.3487 228.483 95.2487 228.59C95.1487 228.697 95.032 228.79 94.8987 228.87C94.7653 228.95 94.6153 229.01 94.4487 229.05C94.282 229.097 94.0987 229.12 93.8987 229.12ZM94.2187 228.08C94.392 228.08 94.5453 228.05 94.6787 227.99C94.8187 227.923 94.9387 227.837 95.0387 227.73C95.1387 227.617 95.2153 227.49 95.2687 227.35C95.3287 227.203 95.3687 227.047 95.3887 226.88V226.87H94.3587C94.152 226.87 93.982 226.897 93.8487 226.95C93.722 226.997 93.6287 227.067 93.5687 227.16C93.5087 227.253 93.4787 227.36 93.4787 227.48C93.4787 227.613 93.5087 227.723 93.5687 227.81C93.6287 227.897 93.7153 227.963 93.8287 228.01C93.942 228.057 94.072 228.08 94.2187 228.08ZM97.628 229V227.92L100.168 225.08H97.658V223.96H101.718V225.05L99.158 227.88H101.768V229H97.628ZM102.76 229V221.8H104.11V229H102.76ZM107.706 229.12C107.226 229.12 106.793 229.01 106.406 228.79C106.026 228.563 105.723 228.253 105.496 227.86C105.276 227.46 105.166 227.003 105.166 226.49C105.166 225.963 105.276 225.503 105.496 225.11C105.723 224.71 106.03 224.4 106.416 224.18C106.803 223.953 107.236 223.84 107.716 223.84C108.203 223.84 108.636 223.953 109.016 224.18C109.403 224.4 109.706 224.71 109.926 225.11C110.153 225.503 110.266 225.96 110.266 226.48C110.266 227 110.153 227.46 109.926 227.86C109.706 228.253 109.403 228.563 109.016 228.79C108.63 229.01 108.193 229.12 107.706 229.12ZM107.706 227.95C107.933 227.95 108.133 227.897 108.306 227.79C108.486 227.683 108.626 227.52 108.726 227.3C108.833 227.08 108.886 226.807 108.886 226.48C108.886 226.153 108.833 225.883 108.726 225.67C108.626 225.45 108.486 225.287 108.306 225.18C108.133 225.067 107.936 225.01 107.716 225.01C107.503 225.01 107.306 225.067 107.126 225.18C106.946 225.287 106.803 225.45 106.696 225.67C106.596 225.883 106.546 226.153 106.546 226.48C106.546 226.807 106.596 227.08 106.696 227.3C106.803 227.52 106.943 227.683 107.116 227.79C107.296 227.897 107.493 227.95 107.706 227.95ZM115.479 229.12C115.065 229.12 114.722 229.05 114.449 228.91C114.175 228.77 113.972 228.583 113.839 228.35C113.705 228.11 113.639 227.853 113.639 227.58C113.639 227.247 113.725 226.963 113.899 226.73C114.072 226.49 114.319 226.307 114.639 226.18C114.959 226.053 115.342 225.99 115.789 225.99H117.099C117.099 225.697 117.055 225.453 116.969 225.26C116.882 225.067 116.752 224.923 116.579 224.83C116.412 224.73 116.199 224.68 115.939 224.68C115.639 224.68 115.382 224.753 115.169 224.9C114.955 225.04 114.822 225.25 114.769 225.53H113.769C113.809 225.177 113.929 224.877 114.129 224.63C114.335 224.377 114.599 224.183 114.919 224.05C115.239 223.91 115.579 223.84 115.939 223.84C116.412 223.84 116.809 223.923 117.129 224.09C117.449 224.257 117.689 224.493 117.849 224.8C118.015 225.1 118.099 225.46 118.099 225.88V229H117.229L117.149 228.15C117.075 228.283 116.989 228.41 116.889 228.53C116.789 228.65 116.669 228.753 116.529 228.84C116.395 228.927 116.239 228.993 116.059 229.04C115.885 229.093 115.692 229.12 115.479 229.12ZM115.669 228.31C115.882 228.31 116.075 228.267 116.249 228.18C116.422 228.093 116.569 227.977 116.689 227.83C116.815 227.677 116.909 227.507 116.969 227.32C117.035 227.127 117.072 226.93 117.079 226.73V226.7H115.889C115.602 226.7 115.369 226.737 115.189 226.81C115.015 226.877 114.889 226.97 114.809 227.09C114.729 227.21 114.689 227.35 114.689 227.51C114.689 227.677 114.725 227.82 114.799 227.94C114.879 228.053 114.992 228.143 115.139 228.21C115.285 228.277 115.462 228.31 115.669 228.31ZM123.814 229C123.494 229 123.217 228.95 122.984 228.85C122.75 228.75 122.57 228.583 122.444 228.35C122.317 228.117 122.254 227.8 122.254 227.4V224.81H121.384V223.96H122.254L122.374 222.7H123.254V223.96H124.684V224.81H123.254V227.41C123.254 227.697 123.314 227.893 123.434 228C123.554 228.1 123.76 228.15 124.054 228.15H124.634V229H123.814ZM127.536 229.12C127.143 229.12 126.8 229.04 126.506 228.88C126.22 228.72 125.996 228.48 125.836 228.16C125.683 227.84 125.606 227.437 125.606 226.95V223.96H126.606V226.84C126.606 227.313 126.71 227.67 126.916 227.91C127.123 228.15 127.42 228.27 127.806 228.27C128.066 228.27 128.3 228.207 128.506 228.08C128.72 227.953 128.886 227.77 129.006 227.53C129.126 227.29 129.186 226.997 129.186 226.65V223.96H130.186V229H129.296L129.226 228.14C129.073 228.447 128.85 228.687 128.556 228.86C128.263 229.033 127.923 229.12 127.536 229.12ZM133.914 229V223.96H134.814L134.884 224.67C135.044 224.41 135.257 224.207 135.524 224.06C135.791 223.913 136.091 223.84 136.424 223.84C136.677 223.84 136.907 223.877 137.114 223.95C137.321 224.017 137.504 224.12 137.664 224.26C137.824 224.4 137.954 224.573 138.054 224.78C138.234 224.487 138.474 224.257 138.774 224.09C139.081 223.923 139.404 223.84 139.744 223.84C140.151 223.84 140.501 223.923 140.794 224.09C141.087 224.25 141.311 224.493 141.464 224.82C141.617 225.14 141.694 225.54 141.694 226.02V229H140.704V226.12C140.704 225.653 140.607 225.3 140.414 225.06C140.227 224.82 139.951 224.7 139.584 224.7C139.337 224.7 139.117 224.763 138.924 224.89C138.731 225.017 138.577 225.2 138.464 225.44C138.357 225.68 138.304 225.973 138.304 226.32V229H137.304V226.12C137.304 225.653 137.207 225.3 137.014 225.06C136.827 224.82 136.551 224.7 136.184 224.7C135.951 224.7 135.737 224.763 135.544 224.89C135.351 225.017 135.197 225.2 135.084 225.44C134.971 225.68 134.914 225.973 134.914 226.32V229H133.914ZM144.556 229.12C144.143 229.12 143.8 229.05 143.526 228.91C143.253 228.77 143.05 228.583 142.916 228.35C142.783 228.11 142.716 227.853 142.716 227.58C142.716 227.247 142.803 226.963 142.976 226.73C143.15 226.49 143.396 226.307 143.716 226.18C144.036 226.053 144.42 225.99 144.866 225.99H146.176C146.176 225.697 146.133 225.453 146.046 225.26C145.96 225.067 145.83 224.923 145.656 224.83C145.49 224.73 145.276 224.68 145.016 224.68C144.716 224.68 144.46 224.753 144.246 224.9C144.033 225.04 143.9 225.25 143.846 225.53H142.846C142.886 225.177 143.006 224.877 143.206 224.63C143.413 224.377 143.676 224.183 143.996 224.05C144.316 223.91 144.656 223.84 145.016 223.84C145.49 223.84 145.886 223.923 146.206 224.09C146.526 224.257 146.766 224.493 146.926 224.8C147.093 225.1 147.176 225.46 147.176 225.88V229H146.306L146.226 228.15C146.153 228.283 146.066 228.41 145.966 228.53C145.866 228.65 145.746 228.753 145.606 228.84C145.473 228.927 145.316 228.993 145.136 229.04C144.963 229.093 144.77 229.12 144.556 229.12ZM144.746 228.31C144.96 228.31 145.153 228.267 145.326 228.18C145.5 228.093 145.646 227.977 145.766 227.83C145.893 227.677 145.986 227.507 146.046 227.32C146.113 227.127 146.15 226.93 146.156 226.73V226.7H144.966C144.68 226.7 144.446 226.737 144.266 226.81C144.093 226.877 143.966 226.97 143.886 227.09C143.806 227.21 143.766 227.35 143.766 227.51C143.766 227.677 143.803 227.82 143.876 227.94C143.956 228.053 144.07 228.143 144.216 228.21C144.363 228.277 144.54 228.31 144.746 228.31ZM148.353 229V223.96H149.253L149.313 224.82C149.473 224.52 149.699 224.283 149.993 224.11C150.286 223.93 150.623 223.84 151.003 223.84C151.403 223.84 151.746 223.92 152.033 224.08C152.319 224.24 152.543 224.483 152.703 224.81C152.863 225.13 152.943 225.533 152.943 226.02V229H151.943V226.12C151.943 225.653 151.839 225.3 151.633 225.06C151.426 224.82 151.126 224.7 150.733 224.7C150.473 224.7 150.239 224.763 150.033 224.89C149.826 225.01 149.659 225.19 149.533 225.43C149.413 225.67 149.353 225.963 149.353 226.31V229H148.353ZM156.402 229.12C155.922 229.12 155.495 229.01 155.122 228.79C154.748 228.57 154.455 228.263 154.242 227.87C154.035 227.477 153.932 227.02 153.932 226.5C153.932 225.967 154.035 225.503 154.242 225.11C154.455 224.71 154.748 224.4 155.122 224.18C155.495 223.953 155.928 223.84 156.422 223.84C156.915 223.84 157.338 223.95 157.692 224.17C158.045 224.39 158.318 224.683 158.512 225.05C158.705 225.41 158.802 225.81 158.802 226.25C158.802 226.317 158.798 226.39 158.792 226.47C158.792 226.543 158.788 226.627 158.782 226.72H154.662V226.01H157.802C157.782 225.59 157.642 225.263 157.382 225.03C157.122 224.79 156.798 224.67 156.412 224.67C156.138 224.67 155.888 224.733 155.662 224.86C155.435 224.98 155.252 225.16 155.112 225.4C154.978 225.633 154.912 225.93 154.912 226.29V226.57C154.912 226.943 154.978 227.26 155.112 227.52C155.252 227.773 155.435 227.967 155.662 228.1C155.888 228.227 156.135 228.29 156.402 228.29C156.722 228.29 156.985 228.22 157.192 228.08C157.398 227.94 157.552 227.75 157.652 227.51H158.652C158.565 227.817 158.418 228.093 158.212 228.34C158.005 228.58 157.748 228.77 157.442 228.91C157.142 229.05 156.795 229.12 156.402 229.12ZM159.813 229V223.96H160.713L160.803 224.91C160.916 224.683 161.063 224.493 161.243 224.34C161.423 224.18 161.633 224.057 161.873 223.97C162.119 223.883 162.399 223.84 162.713 223.84V224.9H162.353C162.146 224.9 161.949 224.927 161.763 224.98C161.576 225.027 161.409 225.11 161.263 225.23C161.123 225.35 161.013 225.513 160.933 225.72C160.853 225.927 160.813 226.183 160.813 226.49V229H159.813ZM165.201 229.12C164.788 229.12 164.445 229.05 164.171 228.91C163.898 228.77 163.695 228.583 163.561 228.35C163.428 228.11 163.361 227.853 163.361 227.58C163.361 227.247 163.448 226.963 163.621 226.73C163.795 226.49 164.041 226.307 164.361 226.18C164.681 226.053 165.065 225.99 165.511 225.99H166.821C166.821 225.697 166.778 225.453 166.691 225.26C166.605 225.067 166.475 224.923 166.301 224.83C166.135 224.73 165.921 224.68 165.661 224.68C165.361 224.68 165.105 224.753 164.891 224.9C164.678 225.04 164.545 225.25 164.491 225.53H163.491C163.531 225.177 163.651 224.877 163.851 224.63C164.058 224.377 164.321 224.183 164.641 224.05C164.961 223.91 165.301 223.84 165.661 223.84C166.135 223.84 166.531 223.923 166.851 224.09C167.171 224.257 167.411 224.493 167.571 224.8C167.738 225.1 167.821 225.46 167.821 225.88V229H166.951L166.871 228.15C166.798 228.283 166.711 228.41 166.611 228.53C166.511 228.65 166.391 228.753 166.251 228.84C166.118 228.927 165.961 228.993 165.781 229.04C165.608 229.093 165.415 229.12 165.201 229.12ZM165.391 228.31C165.605 228.31 165.798 228.267 165.971 228.18C166.145 228.093 166.291 227.977 166.411 227.83C166.538 227.677 166.631 227.507 166.691 227.32C166.758 227.127 166.795 226.93 166.801 226.73V226.7H165.611C165.325 226.7 165.091 226.737 164.911 226.81C164.738 226.877 164.611 226.97 164.531 227.09C164.451 227.21 164.411 227.35 164.411 227.51C164.411 227.677 164.448 227.82 164.521 227.94C164.601 228.053 164.715 228.143 164.861 228.21C165.008 228.277 165.185 228.31 165.391 228.31ZM169.398 229.05C169.204 229.05 169.044 228.99 168.918 228.87C168.798 228.743 168.738 228.593 168.738 228.42C168.738 228.24 168.798 228.09 168.918 227.97C169.044 227.843 169.204 227.78 169.398 227.78C169.591 227.78 169.748 227.843 169.868 227.97C169.988 228.09 170.048 228.24 170.048 228.42C170.048 228.593 169.988 228.743 169.868 228.87C169.748 228.99 169.591 229.05 169.398 229.05Z" fill="#3C3C3C"/>
<path d="M86.98 211V202.28L84.996 202.808V201.08L87.908 199.8H89.22V211H86.98ZM95.8001 211.192C94.7868 211.192 93.9121 210.947 93.1761 210.456C92.4401 209.965 91.8748 209.288 91.4801 208.424C91.0961 207.549 90.9041 206.541 90.9041 205.4C90.9041 204.259 91.0961 203.256 91.4801 202.392C91.8748 201.517 92.4348 200.835 93.1601 200.344C93.8961 199.853 94.7761 199.608 95.8001 199.608C96.8241 199.608 97.6988 199.853 98.4241 200.344C99.1601 200.835 99.7201 201.517 100.104 202.392C100.499 203.256 100.696 204.259 100.696 205.4C100.696 206.541 100.499 207.549 100.104 208.424C99.7201 209.288 99.1601 209.965 98.4241 210.456C97.6988 210.947 96.8241 211.192 95.8001 211.192ZM95.8001 209.256C96.3335 209.256 96.8028 209.101 97.2081 208.792C97.6135 208.472 97.9281 208.024 98.1521 207.448C98.3868 206.872 98.5041 206.189 98.5041 205.4C98.5041 204.6 98.3868 203.917 98.1521 203.352C97.9281 202.776 97.6135 202.333 97.2081 202.024C96.8028 201.715 96.3335 201.56 95.8001 201.56C95.2668 201.56 94.7975 201.715 94.3921 202.024C93.9868 202.333 93.6668 202.776 93.4321 203.352C93.2081 203.917 93.0961 204.6 93.0961 205.4C93.0961 206.189 93.2081 206.872 93.4321 207.448C93.6668 208.024 93.9868 208.472 94.3921 208.792C94.7975 209.101 95.2668 209.256 95.8001 209.256ZM106.906 211.192C105.892 211.192 105.018 210.947 104.282 210.456C103.546 209.965 102.98 209.288 102.586 208.424C102.202 207.549 102.01 206.541 102.01 205.4C102.01 204.259 102.202 203.256 102.586 202.392C102.98 201.517 103.54 200.835 104.266 200.344C105.002 199.853 105.882 199.608 106.906 199.608C107.93 199.608 108.804 199.853 109.53 200.344C110.266 200.835 110.826 201.517 111.21 202.392C111.604 203.256 111.802 204.259 111.802 205.4C111.802 206.541 111.604 207.549 111.21 208.424C110.826 209.288 110.266 209.965 109.53 210.456C108.804 210.947 107.93 211.192 106.906 211.192ZM106.906 209.256C107.439 209.256 107.908 209.101 108.314 208.792C108.719 208.472 109.034 208.024 109.258 207.448C109.492 206.872 109.61 206.189 109.61 205.4C109.61 204.6 109.492 203.917 109.258 203.352C109.034 202.776 108.719 202.333 108.314 202.024C107.908 201.715 107.439 201.56 106.906 201.56C106.372 201.56 105.903 201.715 105.498 202.024C105.092 202.333 104.772 202.776 104.538 203.352C104.314 203.917 104.202 204.6 104.202 205.4C104.202 206.189 104.314 206.872 104.538 207.448C104.772 208.024 105.092 208.472 105.498 208.792C105.903 209.101 106.372 209.256 106.906 209.256ZM115.371 211L121.659 199.8H123.755L117.467 211H115.371ZM123.371 211.192C122.849 211.192 122.374 211.08 121.947 210.856C121.531 210.621 121.201 210.291 120.955 209.864C120.71 209.427 120.587 208.915 120.587 208.328C120.587 207.731 120.71 207.219 120.955 206.792C121.201 206.365 121.531 206.04 121.947 205.816C122.374 205.581 122.849 205.464 123.371 205.464C123.894 205.464 124.363 205.581 124.779 205.816C125.195 206.04 125.526 206.365 125.771 206.792C126.017 207.219 126.139 207.731 126.139 208.328C126.139 208.915 126.017 209.427 125.771 209.864C125.526 210.291 125.195 210.621 124.779 210.856C124.363 211.08 123.894 211.192 123.371 211.192ZM123.355 209.704C123.569 209.704 123.755 209.651 123.915 209.544C124.075 209.437 124.203 209.283 124.299 209.08C124.395 208.877 124.443 208.627 124.443 208.328C124.443 208.019 124.395 207.763 124.299 207.56C124.214 207.347 124.086 207.187 123.915 207.08C123.755 206.973 123.569 206.92 123.355 206.92C123.153 206.92 122.966 206.973 122.795 207.08C122.635 207.187 122.507 207.347 122.411 207.56C122.315 207.763 122.267 208.019 122.267 208.328C122.267 208.627 122.315 208.877 122.411 209.08C122.507 209.283 122.635 209.437 122.795 209.544C122.966 209.651 123.153 209.704 123.355 209.704ZM115.835 205.352C115.323 205.352 114.854 205.235 114.427 205C114.011 204.765 113.675 204.435 113.419 204.008C113.174 203.581 113.051 203.075 113.051 202.488C113.051 201.88 113.174 201.368 113.419 200.952C113.675 200.525 114.011 200.195 114.427 199.96C114.854 199.725 115.329 199.608 115.851 199.608C116.374 199.608 116.838 199.725 117.243 199.96C117.659 200.195 117.99 200.525 118.235 200.952C118.491 201.368 118.619 201.88 118.619 202.488C118.619 203.075 118.491 203.581 118.235 204.008C117.99 204.435 117.659 204.765 117.243 205C116.827 205.235 116.358 205.352 115.835 205.352ZM115.835 203.864C116.038 203.864 116.219 203.811 116.379 203.704C116.55 203.597 116.683 203.443 116.779 203.24C116.875 203.037 116.923 202.787 116.923 202.488C116.923 202.168 116.875 201.907 116.779 201.704C116.683 201.501 116.55 201.347 116.379 201.24C116.219 201.133 116.038 201.08 115.835 201.08C115.633 201.08 115.446 201.133 115.275 201.24C115.115 201.347 114.987 201.507 114.891 201.72C114.795 201.923 114.747 202.179 114.747 202.488C114.747 202.787 114.795 203.037 114.891 203.24C114.987 203.443 115.115 203.597 115.275 203.704C115.446 203.811 115.633 203.864 115.835 203.864ZM131.319 214.52V202.936H133.239L133.479 204.056C133.649 203.821 133.852 203.608 134.087 203.416C134.321 203.213 134.599 203.053 134.919 202.936C135.249 202.808 135.633 202.744 136.071 202.744C136.828 202.744 137.495 202.931 138.071 203.304C138.647 203.677 139.1 204.184 139.431 204.824C139.772 205.453 139.943 206.173 139.943 206.984C139.943 207.795 139.772 208.52 139.431 209.16C139.089 209.789 138.631 210.285 138.055 210.648C137.479 211.011 136.823 211.192 136.087 211.192C135.489 211.192 134.972 211.085 134.535 210.872C134.108 210.648 133.756 210.344 133.479 209.96V214.52H131.319ZM135.575 209.304C136.001 209.304 136.375 209.208 136.695 209.016C137.025 208.824 137.281 208.552 137.463 208.2C137.644 207.848 137.735 207.443 137.735 206.984C137.735 206.525 137.644 206.12 137.463 205.768C137.281 205.405 137.025 205.128 136.695 204.936C136.375 204.733 136.001 204.632 135.575 204.632C135.159 204.632 134.785 204.733 134.455 204.936C134.135 205.128 133.879 205.4 133.687 205.752C133.505 206.104 133.415 206.509 133.415 206.968C133.415 207.427 133.505 207.837 133.687 208.2C133.879 208.552 134.135 208.824 134.455 209.016C134.785 209.208 135.159 209.304 135.575 209.304ZM145.515 211.192C144.704 211.192 143.984 211.021 143.355 210.68C142.736 210.328 142.251 209.843 141.899 209.224C141.558 208.595 141.387 207.869 141.387 207.048C141.387 206.205 141.558 205.464 141.899 204.824C142.251 204.173 142.736 203.667 143.355 203.304C143.974 202.931 144.694 202.744 145.515 202.744C146.315 202.744 147.014 202.92 147.611 203.272C148.208 203.624 148.672 204.099 149.003 204.696C149.334 205.293 149.499 205.971 149.499 206.728C149.499 206.835 149.499 206.957 149.499 207.096C149.499 207.224 149.488 207.357 149.467 207.496H142.923V206.184H147.323C147.291 205.661 147.104 205.251 146.763 204.952C146.432 204.653 146.016 204.504 145.515 204.504C145.152 204.504 144.816 204.589 144.507 204.76C144.198 204.92 143.952 205.171 143.771 205.512C143.6 205.853 143.515 206.285 143.515 206.808V207.272C143.515 207.709 143.595 208.093 143.755 208.424C143.926 208.744 144.16 208.995 144.459 209.176C144.758 209.347 145.104 209.432 145.499 209.432C145.894 209.432 146.219 209.347 146.475 209.176C146.742 209.005 146.939 208.787 147.067 208.52H149.275C149.126 209.021 148.875 209.475 148.523 209.88C148.171 210.285 147.739 210.605 147.227 210.84C146.715 211.075 146.144 211.192 145.515 211.192ZM151.108 211V202.936H153.028L153.236 204.424C153.428 204.072 153.668 203.773 153.956 203.528C154.255 203.283 154.591 203.091 154.964 202.952C155.348 202.813 155.769 202.744 156.228 202.744V205.032H155.492C155.172 205.032 154.873 205.069 154.596 205.144C154.329 205.219 154.095 205.341 153.892 205.512C153.689 205.672 153.535 205.896 153.428 206.184C153.321 206.472 153.268 206.835 153.268 207.272V211H151.108ZM160.791 211.192C160.055 211.192 159.415 211.075 158.871 210.84C158.327 210.605 157.9 210.28 157.591 209.864C157.281 209.448 157.105 208.979 157.063 208.456H159.207C159.26 208.659 159.351 208.845 159.479 209.016C159.607 209.176 159.777 209.304 159.991 209.4C160.204 209.496 160.46 209.544 160.759 209.544C161.047 209.544 161.281 209.507 161.463 209.432C161.644 209.347 161.777 209.235 161.863 209.096C161.959 208.957 162.007 208.813 162.007 208.664C162.007 208.44 161.943 208.269 161.815 208.152C161.687 208.024 161.5 207.923 161.255 207.848C161.009 207.773 160.711 207.699 160.359 207.624C159.975 207.549 159.596 207.459 159.223 207.352C158.86 207.235 158.535 207.091 158.247 206.92C157.959 206.749 157.729 206.531 157.559 206.264C157.388 205.997 157.303 205.667 157.303 205.272C157.303 204.792 157.431 204.365 157.687 203.992C157.943 203.608 158.316 203.304 158.807 203.08C159.297 202.856 159.889 202.744 160.583 202.744C161.553 202.744 162.321 202.963 162.887 203.4C163.452 203.837 163.788 204.44 163.895 205.208H161.863C161.799 204.963 161.655 204.771 161.431 204.632C161.217 204.483 160.929 204.408 160.567 204.408C160.183 204.408 159.889 204.477 159.687 204.616C159.484 204.755 159.383 204.936 159.383 205.16C159.383 205.309 159.447 205.443 159.575 205.56C159.713 205.677 159.905 205.779 160.151 205.864C160.396 205.939 160.695 206.013 161.047 206.088C161.665 206.216 162.209 206.365 162.679 206.536C163.148 206.696 163.516 206.931 163.783 207.24C164.049 207.539 164.183 207.976 164.183 208.552C164.183 209.064 164.044 209.523 163.767 209.928C163.489 210.323 163.095 210.632 162.583 210.856C162.081 211.08 161.484 211.192 160.791 211.192ZM169.658 211.192C168.89 211.192 168.197 211.016 167.578 210.664C166.97 210.301 166.485 209.805 166.122 209.176C165.77 208.536 165.594 207.805 165.594 206.984C165.594 206.141 165.77 205.405 166.122 204.776C166.485 204.136 166.976 203.64 167.594 203.288C168.213 202.925 168.906 202.744 169.674 202.744C170.453 202.744 171.146 202.925 171.754 203.288C172.373 203.64 172.858 204.136 173.21 204.776C173.573 205.405 173.754 206.136 173.754 206.968C173.754 207.8 173.573 208.536 173.21 209.176C172.858 209.805 172.373 210.301 171.754 210.664C171.136 211.016 170.437 211.192 169.658 211.192ZM169.658 209.32C170.021 209.32 170.341 209.235 170.618 209.064C170.906 208.893 171.13 208.632 171.29 208.28C171.461 207.928 171.546 207.491 171.546 206.968C171.546 206.445 171.461 206.013 171.29 205.672C171.13 205.32 170.906 205.059 170.618 204.888C170.341 204.707 170.026 204.616 169.674 204.616C169.333 204.616 169.018 204.707 168.73 204.888C168.442 205.059 168.213 205.32 168.042 205.672C167.882 206.013 167.802 206.445 167.802 206.968C167.802 207.491 167.882 207.928 168.042 208.28C168.213 208.632 168.437 208.893 168.714 209.064C169.002 209.235 169.317 209.32 169.658 209.32ZM175.456 211V202.936H177.36L177.52 204.248C177.765 203.8 178.112 203.437 178.56 203.16C179.019 202.883 179.563 202.744 180.192 202.744C180.864 202.744 181.429 202.883 181.888 203.16C182.347 203.437 182.693 203.843 182.928 204.376C183.173 204.909 183.296 205.565 183.296 206.344V211H181.152V206.552C181.152 205.912 181.013 205.421 180.736 205.08C180.469 204.739 180.053 204.568 179.488 204.568C179.125 204.568 178.8 204.653 178.512 204.824C178.235 204.995 178.016 205.24 177.856 205.56C177.696 205.869 177.616 206.248 177.616 206.696V211H175.456ZM187.891 211.192C187.219 211.192 186.664 211.085 186.227 210.872C185.79 210.648 185.464 210.355 185.251 209.992C185.048 209.619 184.947 209.208 184.947 208.76C184.947 208.269 185.07 207.837 185.315 207.464C185.571 207.091 185.95 206.797 186.451 206.584C186.963 206.371 187.603 206.264 188.371 206.264H190.371C190.371 205.869 190.318 205.544 190.211 205.288C190.104 205.021 189.939 204.824 189.715 204.696C189.491 204.568 189.192 204.504 188.819 204.504C188.414 204.504 188.067 204.595 187.779 204.776C187.502 204.947 187.331 205.213 187.267 205.576H185.171C185.224 205 185.411 204.504 185.731 204.088C186.062 203.661 186.494 203.331 187.027 203.096C187.571 202.861 188.174 202.744 188.835 202.744C189.592 202.744 190.248 202.872 190.803 203.128C191.358 203.384 191.784 203.752 192.083 204.232C192.382 204.712 192.531 205.304 192.531 206.008V211H190.707L190.467 209.768C190.35 209.981 190.211 210.173 190.051 210.344C189.891 210.515 189.704 210.664 189.491 210.792C189.278 210.92 189.038 211.016 188.771 211.08C188.504 211.155 188.211 211.192 187.891 211.192ZM188.403 209.528C188.68 209.528 188.926 209.48 189.139 209.384C189.363 209.277 189.555 209.139 189.715 208.968C189.875 208.787 189.998 208.584 190.083 208.36C190.179 208.125 190.243 207.875 190.275 207.608V207.592H188.627C188.296 207.592 188.024 207.635 187.811 207.72C187.608 207.795 187.459 207.907 187.363 208.056C187.267 208.205 187.219 208.376 187.219 208.568C187.219 208.781 187.267 208.957 187.363 209.096C187.459 209.235 187.598 209.341 187.779 209.416C187.96 209.491 188.168 209.528 188.403 209.528ZM194.386 211V199.48H196.546V211H194.386ZM198.54 211V202.936H200.7V211H198.54ZM199.628 201.832C199.244 201.832 198.924 201.72 198.668 201.496C198.422 201.261 198.3 200.968 198.3 200.616C198.3 200.264 198.422 199.976 198.668 199.752C198.924 199.517 199.244 199.4 199.628 199.4C200.022 199.4 200.342 199.517 200.588 199.752C200.844 199.976 200.972 200.264 200.972 200.616C200.972 200.968 200.844 201.261 200.588 201.496C200.342 201.72 200.022 201.832 199.628 201.832ZM202.194 211V209.272L206.258 204.728H202.242V202.936H208.738V204.68L204.642 209.208H208.818V211H202.194ZM213.126 211.192C212.454 211.192 211.899 211.085 211.462 210.872C211.025 210.648 210.699 210.355 210.486 209.992C210.283 209.619 210.182 209.208 210.182 208.76C210.182 208.269 210.305 207.837 210.55 207.464C210.806 207.091 211.185 206.797 211.686 206.584C212.198 206.371 212.838 206.264 213.606 206.264H215.606C215.606 205.869 215.553 205.544 215.446 205.288C215.339 205.021 215.174 204.824 214.95 204.696C214.726 204.568 214.427 204.504 214.054 204.504C213.649 204.504 213.302 204.595 213.014 204.776C212.737 204.947 212.566 205.213 212.502 205.576H210.406C210.459 205 210.646 204.504 210.966 204.088C211.297 203.661 211.729 203.331 212.262 203.096C212.806 202.861 213.409 202.744 214.07 202.744C214.827 202.744 215.483 202.872 216.038 203.128C216.593 203.384 217.019 203.752 217.318 204.232C217.617 204.712 217.766 205.304 217.766 206.008V211H215.942L215.702 209.768C215.585 209.981 215.446 210.173 215.286 210.344C215.126 210.515 214.939 210.664 214.726 210.792C214.513 210.92 214.273 211.016 214.006 211.08C213.739 211.155 213.446 211.192 213.126 211.192ZM213.638 209.528C213.915 209.528 214.161 209.48 214.374 209.384C214.598 209.277 214.79 209.139 214.95 208.968C215.11 208.787 215.233 208.584 215.318 208.36C215.414 208.125 215.478 207.875 215.51 207.608V207.592H213.862C213.531 207.592 213.259 207.635 213.046 207.72C212.843 207.795 212.694 207.907 212.598 208.056C212.502 208.205 212.454 208.376 212.454 208.568C212.454 208.781 212.502 208.957 212.598 209.096C212.694 209.235 212.833 209.341 213.014 209.416C213.195 209.491 213.403 209.528 213.638 209.528ZM224.389 211.192C223.973 211.192 223.6 211.139 223.269 211.032C222.949 210.925 222.661 210.781 222.405 210.6C222.16 210.408 221.952 210.195 221.781 209.96L221.541 211H219.621V199.48H221.781V204.056C222.037 203.683 222.373 203.373 222.789 203.128C223.216 202.872 223.744 202.744 224.373 202.744C225.12 202.744 225.781 202.931 226.357 203.304C226.944 203.667 227.402 204.168 227.733 204.808C228.074 205.437 228.245 206.163 228.245 206.984C228.245 207.784 228.074 208.504 227.733 209.144C227.402 209.784 226.949 210.285 226.373 210.648C225.797 211.011 225.136 211.192 224.389 211.192ZM223.877 209.304C224.304 209.304 224.677 209.208 224.997 209.016C225.328 208.813 225.584 208.541 225.765 208.2C225.946 207.848 226.037 207.443 226.037 206.984C226.037 206.525 225.946 206.12 225.765 205.768C225.584 205.405 225.328 205.128 224.997 204.936C224.677 204.733 224.304 204.632 223.877 204.632C223.461 204.632 223.088 204.733 222.757 204.936C222.437 205.128 222.181 205.4 221.989 205.752C221.808 206.104 221.717 206.509 221.717 206.968C221.717 207.427 221.808 207.837 221.989 208.2C222.181 208.552 222.437 208.824 222.757 209.016C223.088 209.208 223.461 209.304 223.877 209.304ZM229.945 211V199.48H232.105V211H229.945ZM237.923 211.192C237.112 211.192 236.392 211.021 235.763 210.68C235.144 210.328 234.659 209.843 234.307 209.224C233.966 208.595 233.795 207.869 233.795 207.048C233.795 206.205 233.966 205.464 234.307 204.824C234.659 204.173 235.144 203.667 235.763 203.304C236.382 202.931 237.102 202.744 237.923 202.744C238.723 202.744 239.422 202.92 240.019 203.272C240.616 203.624 241.08 204.099 241.411 204.696C241.742 205.293 241.907 205.971 241.907 206.728C241.907 206.835 241.907 206.957 241.907 207.096C241.907 207.224 241.896 207.357 241.875 207.496H235.331V206.184H239.731C239.699 205.661 239.512 205.251 239.171 204.952C238.84 204.653 238.424 204.504 237.923 204.504C237.56 204.504 237.224 204.589 236.915 204.76C236.606 204.92 236.36 205.171 236.179 205.512C236.008 205.853 235.923 206.285 235.923 206.808V207.272C235.923 207.709 236.003 208.093 236.163 208.424C236.334 208.744 236.568 208.995 236.867 209.176C237.166 209.347 237.512 209.432 237.907 209.432C238.302 209.432 238.627 209.347 238.883 209.176C239.15 209.005 239.347 208.787 239.475 208.52H241.683C241.534 209.021 241.283 209.475 240.931 209.88C240.579 210.285 240.147 210.605 239.635 210.84C239.123 211.075 238.552 211.192 237.923 211.192Z" fill="#02BBBC"/>
<path d="M3 213H52.5" stroke="#BBEEEC" stroke-width="2" stroke-linecap="round"/>
<g filter="url(#filter2_f_2123_6672)">
<ellipse cx="57.5" cy="213.5" rx="22" ry="21.5" fill="#7FDED9" fill-opacity="0.2"/>
</g>
<circle cx="57" cy="213.5" r="18.25" fill="#BBEEEC" stroke="#7FDED9" stroke-width="0.5"/>
<g clip-path="url(#clip1_2123_6672)">
<path d="M61.8245 218.169L59.5061 218.181C58.8395 218.184 58.2609 218.643 58.0137 219.205C57.7267 219.856 57.8481 220.571 58.3032 221.09C58.7582 221.61 58.8931 222.317 58.5935 222.981C58.3528 223.513 57.7818 223.986 57.1429 223.998C51.8829 224.099 47.3562 220.204 46.608 215.015C46.1228 211.65 47.2804 208.251 49.7647 205.89C51.6068 204.139 54.0218 203.103 56.5786 203.008C59.241 202.91 61.8915 203.705 63.9838 205.361C64.9249 206.106 65.7242 207.002 66.3275 208.04C67.1308 209.423 67.5563 210.989 67.4939 212.579C67.3737 215.636 64.8887 218.085 61.8245 218.169ZM55.834 207.082C55.834 206.115 55.0506 205.332 54.0839 205.332C53.1172 205.332 52.3337 206.115 52.3337 207.082C52.3337 208.049 53.1172 208.833 54.0839 208.833C55.0506 208.833 55.834 208.049 55.834 207.082ZM61.6696 207.082C61.6696 206.115 60.8858 205.331 59.9191 205.331C58.9524 205.331 58.1686 206.115 58.1686 207.082C58.1686 208.049 58.9524 208.833 59.9191 208.833C60.8858 208.833 61.6696 208.049 61.6696 207.082ZM52.3337 211.752C52.3337 210.785 51.5502 210.001 50.5838 210.001C49.6174 210.001 48.8339 210.785 48.8339 211.752C48.8339 212.719 49.6174 213.502 50.5838 213.502C51.5502 213.502 52.3337 212.719 52.3337 211.752ZM65.169 211.752C65.169 210.785 64.3856 210.001 63.4189 210.001C62.4522 210.001 61.6687 210.785 61.6687 211.752C61.6687 212.719 62.4522 213.502 63.4189 213.502C64.3856 213.502 65.169 212.719 65.169 211.752Z" fill="#02BBBC"/>
</g>
<defs>
<filter id="filter0_f_2123_6672" x="31.5" y="0" width="52" height="51" filterUnits="userSpaceOnUse" color-interpolation-filters="sRGB">
<feFlood flood-opacity="0" result="BackgroundImageFix"/>
<feBlend mode="normal" in="SourceGraphic" in2="BackgroundImageFix" result="shape"/>
<feGaussianBlur stdDeviation="2" result="effect1_foregroundBlur_2123_6672"/>
</filter>
<filter id="filter1_f_2123_6672" x="66.5" y="93.9999" width="52" height="51" filterUnits="userSpaceOnUse" color-interpolation-filters="sRGB">
<feFlood flood-opacity="0" result="BackgroundImageFix"/>
<feBlend mode="normal" in="SourceGraphic" in2="BackgroundImageFix" result="shape"/>
<feGaussianBlur stdDeviation="2" result="effect1_foregroundBlur_2123_6672"/>
</filter>
<filter id="filter2_f_2123_6672" x="31.5" y="188" width="52" height="51" filterUnits="userSpaceOnUse" color-interpolation-filters="sRGB">
<feFlood flood-opacity="0" result="BackgroundImageFix"/>
<feBlend mode="normal" in="SourceGraphic" in2="BackgroundImageFix" result="shape"/>
<feGaussianBlur stdDeviation="2" result="effect1_foregroundBlur_2123_6672"/>
</filter>
<clipPath id="clip0_2123_6672">
<rect width="17" height="19" fill="white" transform="translate(48.5 16)"/>
</clipPath>
<clipPath id="clip1_2123_6672">
<rect width="21" height="21" fill="white" transform="translate(46.5 203)"/>
</clipPath>
</defs>
</svg>
