<svg width="418" height="68" viewBox="0 0 418 68" fill="none" xmlns="http://www.w3.org/2000/svg">
<path d="M12.4601 26.775C10.1034 26.775 8.01506 26.25 6.19506 25.2C4.39839 24.1267 2.98673 22.645 1.96006 20.755C0.933392 18.8417 0.420059 16.625 0.420059 14.105C0.420059 11.6083 0.933392 9.415 1.96006 7.525C2.98673 5.61167 4.39839 4.11834 6.19506 3.045C8.01506 1.97167 10.1034 1.435 12.4601 1.435C14.8634 1.435 16.9751 1.97167 18.7951 3.045C20.6151 4.11834 22.0267 5.61167 23.0301 7.525C24.0334 9.415 24.5351 11.6083 24.5351 14.105C24.5351 16.625 24.0334 18.8417 23.0301 20.755C22.0267 22.645 20.6151 24.1267 18.7951 25.2C16.9751 26.25 14.8634 26.775 12.4601 26.775ZM12.4951 22.995C14.0584 22.995 15.4234 22.645 16.5901 21.945C17.7567 21.2217 18.6551 20.195 19.2851 18.865C19.9151 17.535 20.2301 15.9483 20.2301 14.105C20.2301 12.2617 19.9151 10.675 19.2851 9.345C18.6551 8.015 17.7567 7 16.5901 6.3C15.4234 5.57667 14.0584 5.215 12.4951 5.215C10.9317 5.215 9.56673 5.57667 8.40006 6.3C7.23339 7 6.32339 8.015 5.67006 9.345C5.04006 10.675 4.72506 12.2617 4.72506 14.105C4.72506 15.9483 5.04006 17.535 5.67006 18.865C6.32339 20.195 7.23339 21.2217 8.40006 21.945C9.56673 22.645 10.9317 22.995 12.4951 22.995ZM38.2288 26.775C37.2955 26.775 36.4555 26.6467 35.7088 26.39C34.9621 26.1567 34.3088 25.83 33.7488 25.41C33.1888 24.9667 32.7221 24.465 32.3488 23.905L31.8938 26.355H28.1488V1.155H32.3488V11.305C32.9088 10.4417 33.6671 9.73 34.6238 9.17C35.5805 8.58667 36.7705 8.295 38.1938 8.295C39.8505 8.295 41.3088 8.70334 42.5688 9.52C43.8521 10.3133 44.8555 11.41 45.5788 12.81C46.3255 14.1867 46.6988 15.7733 46.6988 17.57C46.6988 19.32 46.3371 20.895 45.6138 22.295C44.8905 23.695 43.8871 24.7917 42.6038 25.585C41.3438 26.3783 39.8855 26.775 38.2288 26.775ZM37.3538 23.135C38.3338 23.135 39.2088 22.9017 39.9788 22.435C40.7488 21.945 41.3438 21.2917 41.7638 20.475C42.2071 19.635 42.4288 18.655 42.4288 17.535C42.4288 16.4383 42.2071 15.47 41.7638 14.63C41.3438 13.79 40.7488 13.1367 39.9788 12.67C39.2088 12.2033 38.3338 11.97 37.3538 11.97C36.3505 11.97 35.4638 12.2033 34.6938 12.67C33.9471 13.1367 33.3521 13.79 32.9088 14.63C32.4888 15.47 32.2788 16.4383 32.2788 17.535C32.2788 18.655 32.4888 19.635 32.9088 20.475C33.3521 21.2917 33.9471 21.945 34.6938 22.435C35.4638 22.9017 36.3505 23.135 37.3538 23.135ZM57.4072 26.355C56.2172 26.355 55.1788 26.1683 54.2922 25.795C53.4288 25.4217 52.7522 24.8033 52.2622 23.94C51.7722 23.0767 51.5272 21.91 51.5272 20.44V12.25H48.5172V8.715H51.5272L52.0172 4.06H55.7272V8.715H60.5222V12.25H55.7272V20.44C55.7272 21.3267 55.9138 21.945 56.2872 22.295C56.6838 22.6217 57.3372 22.785 58.2472 22.785H60.4172V26.355H57.4072ZM71.9393 26.775C70.1893 26.775 68.6493 26.4017 67.3193 25.655C65.9893 24.885 64.9509 23.8117 64.2043 22.435C63.4576 21.0583 63.0843 19.4717 63.0843 17.675C63.0843 15.8083 63.4459 14.175 64.1693 12.775C64.9159 11.375 65.9543 10.2783 67.2843 9.485C68.6376 8.69167 70.2009 8.295 71.9743 8.295C73.7009 8.295 75.2059 8.68 76.4893 9.45C77.7726 10.22 78.7643 11.2583 79.4643 12.565C80.1643 13.8483 80.5143 15.295 80.5143 16.905C80.5143 17.1383 80.5143 17.395 80.5143 17.675C80.5143 17.955 80.4909 18.2467 80.4443 18.55H66.0943V15.855H76.2793C76.2326 14.5717 75.8009 13.5683 74.9843 12.845C74.1676 12.0983 73.1526 11.725 71.9393 11.725C71.0759 11.725 70.2826 11.9233 69.5593 12.32C68.8359 12.7167 68.2643 13.3117 67.8443 14.105C67.4243 14.875 67.2143 15.855 67.2143 17.045V18.06C67.2143 19.1567 67.4126 20.1017 67.8093 20.895C68.2293 21.6883 68.7893 22.295 69.4893 22.715C70.2126 23.1117 71.0176 23.31 71.9043 23.31C72.8843 23.31 73.6893 23.1 74.3193 22.68C74.9726 22.26 75.4509 21.7 75.7543 21H80.0243C79.6976 22.0967 79.1609 23.0883 78.4143 23.975C77.6676 24.8383 76.7459 25.5267 75.6493 26.04C74.5526 26.53 73.3159 26.775 71.9393 26.775ZM68.2293 7.21L67.8443 4.375L75.3343 2.6226e-06L75.8243 3.255L68.2293 7.21ZM84.0422 26.355V8.715H87.7522L88.0672 11.655C88.6038 10.6283 89.3738 9.81167 90.3772 9.205C91.3805 8.59834 92.5705 8.295 93.9472 8.295C95.3705 8.295 96.5838 8.59834 97.5872 9.205C98.5905 9.78834 99.3605 10.6517 99.8972 11.795C100.457 12.9383 100.737 14.3617 100.737 16.065V26.355H96.5372V16.45C96.5372 14.98 96.2105 13.8483 95.5572 13.055C94.9038 12.2617 93.9355 11.865 92.6522 11.865C91.8122 11.865 91.0538 12.0633 90.3772 12.46C89.7238 12.8567 89.1988 13.44 88.8022 14.21C88.4288 14.9567 88.2422 15.8667 88.2422 16.94V26.355H84.0422ZM121.375 26.775C119.648 26.775 118.097 26.39 116.72 25.62C115.367 24.8267 114.305 23.7417 113.535 22.365C112.788 20.965 112.415 19.3783 112.415 17.605C112.415 15.7617 112.788 14.1517 113.535 12.775C114.305 11.375 115.367 10.2783 116.72 9.485C118.097 8.69167 119.66 8.295 121.41 8.295C123.603 8.295 125.447 8.87834 126.94 10.045C128.433 11.1883 129.39 12.7633 129.81 14.77H125.4C125.167 13.8833 124.677 13.1833 123.93 12.67C123.207 12.1567 122.343 11.9 121.34 11.9C120.477 11.9 119.683 12.1217 118.96 12.565C118.26 13.0083 117.7 13.65 117.28 14.49C116.883 15.33 116.685 16.345 116.685 17.535C116.685 18.445 116.802 19.25 117.035 19.95C117.268 20.65 117.595 21.245 118.015 21.735C118.458 22.2017 118.96 22.5633 119.52 22.82C120.08 23.0767 120.687 23.205 121.34 23.205C122.017 23.205 122.623 23.1 123.16 22.89C123.72 22.6567 124.187 22.3183 124.56 21.875C124.957 21.4317 125.237 20.9067 125.4 20.3H129.81C129.39 22.26 128.433 23.835 126.94 25.025C125.447 26.1917 123.592 26.775 121.375 26.775ZM139.39 26.775C137.943 26.775 136.741 26.53 135.785 26.04C134.828 25.55 134.116 24.8967 133.65 24.08C133.183 23.2633 132.95 22.3767 132.95 21.42C132.95 20.3 133.23 19.3317 133.79 18.515C134.373 17.6983 135.225 17.0683 136.345 16.625C137.465 16.1583 138.841 15.925 140.475 15.925H144.92C144.92 14.9917 144.791 14.2217 144.535 13.615C144.278 12.985 143.881 12.5183 143.345 12.215C142.808 11.9117 142.12 11.76 141.28 11.76C140.323 11.76 139.506 11.9817 138.83 12.425C138.153 12.845 137.733 13.4983 137.57 14.385H133.44C133.58 13.125 134 12.0517 134.7 11.165C135.4 10.255 136.321 9.555 137.465 9.065C138.631 8.55167 139.903 8.295 141.28 8.295C142.936 8.295 144.348 8.58667 145.515 9.17C146.681 9.73 147.568 10.5467 148.175 11.62C148.805 12.67 149.12 13.9417 149.12 15.435V26.355H145.55L145.13 23.52C144.896 23.9867 144.593 24.4183 144.22 24.815C143.87 25.2117 143.461 25.5617 142.995 25.865C142.528 26.145 141.991 26.3667 141.385 26.53C140.801 26.6933 140.136 26.775 139.39 26.775ZM140.335 23.45C141.011 23.45 141.606 23.3333 142.12 23.1C142.656 22.8433 143.111 22.4933 143.485 22.05C143.881 21.5833 144.185 21.07 144.395 20.51C144.605 19.95 144.745 19.355 144.815 18.725V18.655H140.93C140.113 18.655 139.436 18.76 138.9 18.97C138.363 19.1567 137.978 19.4367 137.745 19.81C137.511 20.1833 137.395 20.615 137.395 21.105C137.395 21.595 137.511 22.015 137.745 22.365C137.978 22.715 138.316 22.9833 138.76 23.17C139.203 23.3567 139.728 23.45 140.335 23.45ZM153.257 26.355V1.155H157.457V26.355H153.257ZM161.969 26.355V8.715H166.169V26.355H161.969ZM164.069 5.915C163.299 5.915 162.657 5.68167 162.144 5.215C161.654 4.725 161.409 4.13 161.409 3.43C161.409 2.70667 161.654 2.12334 162.144 1.68C162.657 1.21334 163.299 0.980003 164.069 0.980003C164.839 0.980003 165.469 1.21334 165.959 1.68C166.472 2.12334 166.729 2.70667 166.729 3.43C166.729 4.13 166.472 4.725 165.959 5.215C165.469 5.68167 164.839 5.915 164.069 5.915ZM178.513 26.775C176.879 26.775 175.421 26.3783 174.138 25.585C172.854 24.7917 171.851 23.695 171.128 22.295C170.428 20.895 170.078 19.3083 170.078 17.535C170.078 15.7617 170.439 14.1867 171.163 12.81C171.886 11.41 172.889 10.3133 174.173 9.52C175.479 8.70334 176.949 8.295 178.583 8.295C179.913 8.295 181.068 8.55167 182.048 9.065C183.051 9.555 183.844 10.255 184.428 11.165V1.155H188.628V26.355H184.848L184.428 23.8C184.054 24.3133 183.599 24.8033 183.063 25.27C182.526 25.7133 181.884 26.075 181.138 26.355C180.391 26.635 179.516 26.775 178.513 26.775ZM179.388 23.135C180.391 23.135 181.278 22.9017 182.048 22.435C182.818 21.945 183.413 21.28 183.833 20.44C184.253 19.6 184.463 18.6317 184.463 17.535C184.463 16.4383 184.253 15.47 183.833 14.63C183.413 13.79 182.818 13.1367 182.048 12.67C181.278 12.2033 180.391 11.97 179.388 11.97C178.431 11.97 177.568 12.2033 176.798 12.67C176.028 13.1367 175.421 13.79 174.978 14.63C174.558 15.47 174.348 16.4383 174.348 17.535C174.348 18.6317 174.558 19.6 174.978 20.44C175.421 21.28 176.028 21.945 176.798 22.435C177.568 22.9017 178.431 23.135 179.388 23.135ZM198.83 26.775C197.383 26.775 196.181 26.53 195.225 26.04C194.268 25.55 193.556 24.8967 193.09 24.08C192.623 23.2633 192.39 22.3767 192.39 21.42C192.39 20.3 192.67 19.3317 193.23 18.515C193.813 17.6983 194.665 17.0683 195.785 16.625C196.905 16.1583 198.281 15.925 199.915 15.925H204.36C204.36 14.9917 204.231 14.2217 203.975 13.615C203.718 12.985 203.321 12.5183 202.785 12.215C202.248 11.9117 201.56 11.76 200.72 11.76C199.763 11.76 198.946 11.9817 198.27 12.425C197.593 12.845 197.173 13.4983 197.01 14.385H192.88C193.02 13.125 193.44 12.0517 194.14 11.165C194.84 10.255 195.761 9.555 196.905 9.065C198.071 8.55167 199.343 8.295 200.72 8.295C202.376 8.295 203.788 8.58667 204.955 9.17C206.121 9.73 207.008 10.5467 207.615 11.62C208.245 12.67 208.56 13.9417 208.56 15.435V26.355H204.99L204.57 23.52C204.336 23.9867 204.033 24.4183 203.66 24.815C203.31 25.2117 202.901 25.5617 202.435 25.865C201.968 26.145 201.431 26.3667 200.825 26.53C200.241 26.6933 199.576 26.775 198.83 26.775ZM199.775 23.45C200.451 23.45 201.046 23.3333 201.56 23.1C202.096 22.8433 202.551 22.4933 202.925 22.05C203.321 21.5833 203.625 21.07 203.835 20.51C204.045 19.95 204.185 19.355 204.255 18.725V18.655H200.37C199.553 18.655 198.876 18.76 198.34 18.97C197.803 19.1567 197.418 19.4367 197.185 19.81C196.951 20.1833 196.835 20.615 196.835 21.105C196.835 21.595 196.951 22.015 197.185 22.365C197.418 22.715 197.756 22.9833 198.2 23.17C198.643 23.3567 199.168 23.45 199.775 23.45ZM220.537 26.775C218.904 26.775 217.446 26.3783 216.162 25.585C214.879 24.7917 213.876 23.695 213.152 22.295C212.452 20.895 212.102 19.3083 212.102 17.535C212.102 15.7617 212.464 14.1867 213.187 12.81C213.911 11.41 214.914 10.3133 216.197 9.52C217.504 8.70334 218.974 8.295 220.607 8.295C221.937 8.295 223.092 8.55167 224.072 9.065C225.076 9.555 225.869 10.255 226.452 11.165V1.155H230.652V26.355H226.872L226.452 23.8C226.079 24.3133 225.624 24.8033 225.087 25.27C224.551 25.7133 223.909 26.075 223.162 26.355C222.416 26.635 221.541 26.775 220.537 26.775ZM221.412 23.135C222.416 23.135 223.302 22.9017 224.072 22.435C224.842 21.945 225.437 21.28 225.857 20.44C226.277 19.6 226.487 18.6317 226.487 17.535C226.487 16.4383 226.277 15.47 225.857 14.63C225.437 13.79 224.842 13.1367 224.072 12.67C223.302 12.2033 222.416 11.97 221.412 11.97C220.456 11.97 219.592 12.2033 218.822 12.67C218.052 13.1367 217.446 13.79 217.002 14.63C216.582 15.47 216.372 16.4383 216.372 17.535C216.372 18.6317 216.582 19.6 217.002 20.44C217.446 21.28 218.052 21.945 218.822 22.435C219.592 22.9017 220.456 23.135 221.412 23.135ZM258.131 34.055V23.485C257.571 24.395 256.754 25.1767 255.681 25.83C254.631 26.46 253.348 26.775 251.831 26.775C250.104 26.775 248.599 26.3783 247.316 25.585C246.033 24.7683 245.041 23.6717 244.341 22.295C243.641 20.895 243.291 19.3083 243.291 17.535C243.291 15.7617 243.641 14.1867 244.341 12.81C245.041 11.41 246.033 10.3133 247.316 9.52C248.623 8.70334 250.128 8.295 251.831 8.295C252.834 8.295 253.733 8.435 254.526 8.715C255.343 8.995 256.054 9.39167 256.661 9.905C257.268 10.395 257.758 10.9667 258.131 11.62L258.411 8.715H261.071V34.055H258.131ZM252.146 24.22C253.313 24.22 254.339 23.94 255.226 23.38C256.113 22.82 256.801 22.05 257.291 21.07C257.781 20.0667 258.026 18.8883 258.026 17.535C258.026 16.205 257.781 15.0383 257.291 14.035C256.801 13.0317 256.113 12.25 255.226 11.69C254.339 11.13 253.313 10.85 252.146 10.85C251.003 10.85 249.988 11.13 249.101 11.69C248.214 12.25 247.526 13.0317 247.036 14.035C246.546 15.0383 246.301 16.205 246.301 17.535C246.301 18.8883 246.546 20.0667 247.036 21.07C247.526 22.05 248.214 22.82 249.101 23.38C249.988 23.94 251.003 24.22 252.146 24.22ZM272.024 26.775C270.671 26.775 269.481 26.5067 268.454 25.97C267.451 25.4333 266.669 24.605 266.109 23.485C265.573 22.365 265.304 20.965 265.304 19.285V8.715H268.244V18.97C268.244 20.72 268.629 22.0383 269.399 22.925C270.169 23.8117 271.254 24.255 272.654 24.255C273.634 24.255 274.521 24.0217 275.314 23.555C276.108 23.065 276.726 22.3767 277.169 21.49C277.636 20.58 277.869 19.4717 277.869 18.165V8.715H280.809V26.355H278.149L277.974 23.275C277.438 24.3717 276.644 25.235 275.594 25.865C274.544 26.4717 273.354 26.775 272.024 26.775ZM293.068 26.775C291.411 26.775 289.941 26.39 288.658 25.62C287.398 24.85 286.406 23.7767 285.683 22.4C284.96 21 284.598 19.3783 284.598 17.535C284.598 15.6683 284.948 14.0467 285.648 12.67C286.371 11.2933 287.375 10.22 288.658 9.45C289.965 8.68 291.458 8.295 293.138 8.295C294.865 8.295 296.323 8.68 297.513 9.45C298.726 10.22 299.648 11.235 300.278 12.495C300.931 13.7317 301.258 15.0967 301.258 16.59C301.258 16.8233 301.258 17.0683 301.258 17.325C301.258 17.5817 301.246 17.8733 301.223 18.2H286.803V15.925H298.388C298.318 14.315 297.781 13.055 296.778 12.145C295.798 11.235 294.561 10.78 293.068 10.78C292.065 10.78 291.131 11.0133 290.268 11.48C289.428 11.9233 288.751 12.5883 288.238 13.475C287.725 14.3383 287.468 15.4233 287.468 16.73V17.71C287.468 19.1567 287.725 20.37 288.238 21.35C288.775 22.33 289.463 23.065 290.303 23.555C291.166 24.045 292.088 24.29 293.068 24.29C294.305 24.29 295.32 24.0217 296.113 23.485C296.93 22.925 297.513 22.1783 297.863 21.245H300.768C300.488 22.295 299.998 23.24 299.298 24.08C298.598 24.92 297.723 25.585 296.673 26.075C295.646 26.5417 294.445 26.775 293.068 26.775ZM313.822 26.355V8.715H316.482L316.692 12.075C317.089 11.2817 317.591 10.605 318.197 10.045C318.827 9.485 319.574 9.05334 320.437 8.75C321.324 8.44667 322.327 8.295 323.447 8.295V11.375H322.362C321.616 11.375 320.904 11.48 320.227 11.69C319.551 11.8767 318.944 12.1917 318.407 12.635C317.894 13.0783 317.486 13.685 317.182 14.455C316.902 15.2017 316.762 16.135 316.762 17.255V26.355H313.822ZM333.512 26.775C331.855 26.775 330.385 26.39 329.102 25.62C327.842 24.85 326.85 23.7767 326.127 22.4C325.404 21 325.042 19.3783 325.042 17.535C325.042 15.6683 325.392 14.0467 326.092 12.67C326.815 11.2933 327.819 10.22 329.102 9.45C330.409 8.68 331.902 8.295 333.582 8.295C335.309 8.295 336.767 8.68 337.957 9.45C339.17 10.22 340.092 11.235 340.722 12.495C341.375 13.7317 341.702 15.0967 341.702 16.59C341.702 16.8233 341.702 17.0683 341.702 17.325C341.702 17.5817 341.69 17.8733 341.667 18.2H327.247V15.925H338.832C338.762 14.315 338.225 13.055 337.222 12.145C336.242 11.235 335.005 10.78 333.512 10.78C332.509 10.78 331.575 11.0133 330.712 11.48C329.872 11.9233 329.195 12.5883 328.682 13.475C328.169 14.3383 327.912 15.4233 327.912 16.73V17.71C327.912 19.1567 328.169 20.37 328.682 21.35C329.219 22.33 329.907 23.065 330.747 23.555C331.61 24.045 332.532 24.29 333.512 24.29C334.749 24.29 335.764 24.0217 336.557 23.485C337.374 22.925 337.957 22.1783 338.307 21.245H341.212C340.932 22.295 340.442 23.24 339.742 24.08C339.042 24.92 338.167 25.585 337.117 26.075C336.09 26.5417 334.889 26.775 333.512 26.775ZM351.97 26.775C350.5 26.775 349.216 26.53 348.12 26.04C347.046 25.55 346.183 24.8733 345.53 24.01C344.9 23.1233 344.515 22.085 344.375 20.895H347.385C347.501 21.5017 347.746 22.0617 348.12 22.575C348.493 23.0883 348.995 23.5083 349.625 23.835C350.278 24.1383 351.071 24.29 352.005 24.29C352.821 24.29 353.498 24.1733 354.035 23.94C354.571 23.6833 354.968 23.345 355.225 22.925C355.505 22.505 355.645 22.05 355.645 21.56C355.645 20.8367 355.47 20.2883 355.12 19.915C354.793 19.5417 354.303 19.25 353.65 19.04C352.996 18.8067 352.203 18.6083 351.27 18.445C350.5 18.305 349.741 18.1183 348.995 17.885C348.248 17.6517 347.583 17.3483 347 16.975C346.416 16.5783 345.95 16.1 345.6 15.54C345.273 14.98 345.11 14.2917 345.11 13.475C345.11 12.4717 345.366 11.585 345.88 10.815C346.393 10.0217 347.128 9.40334 348.085 8.96C349.065 8.51667 350.196 8.295 351.48 8.295C353.37 8.295 354.898 8.75 356.065 9.66C357.231 10.57 357.92 11.8883 358.13 13.615H355.225C355.108 12.7283 354.723 12.04 354.07 11.55C353.44 11.0367 352.565 10.78 351.445 10.78C350.348 10.78 349.508 11.0017 348.925 11.445C348.365 11.8883 348.085 12.4717 348.085 13.195C348.085 13.6617 348.236 14.0817 348.54 14.455C348.866 14.805 349.333 15.1083 349.94 15.365C350.57 15.6217 351.34 15.8317 352.25 15.995C353.416 16.205 354.478 16.485 355.435 16.835C356.391 17.185 357.161 17.71 357.745 18.41C358.351 19.0867 358.655 20.055 358.655 21.315C358.655 22.4117 358.375 23.3683 357.815 24.185C357.278 25.0017 356.508 25.6433 355.505 26.11C354.501 26.5533 353.323 26.775 351.97 26.775ZM368.278 26.775C366.855 26.775 365.665 26.53 364.708 26.04C363.751 25.5267 363.04 24.8617 362.573 24.045C362.106 23.205 361.873 22.295 361.873 21.315C361.873 20.125 362.176 19.1217 362.783 18.305C363.413 17.465 364.288 16.835 365.408 16.415C366.551 15.9717 367.893 15.75 369.433 15.75H374.088C374.088 14.6533 373.913 13.7433 373.563 13.02C373.236 12.2733 372.746 11.7133 372.093 11.34C371.463 10.9667 370.67 10.78 369.713 10.78C368.593 10.78 367.625 11.06 366.808 11.62C365.991 12.18 365.49 13.0083 365.303 14.105H362.293C362.433 12.845 362.853 11.795 363.553 10.955C364.276 10.0917 365.186 9.43834 366.283 8.995C367.38 8.52834 368.523 8.295 369.713 8.295C371.346 8.295 372.7 8.59834 373.773 9.205C374.87 9.78834 375.686 10.6167 376.223 11.69C376.76 12.74 377.028 13.9883 377.028 15.435V26.355H374.403L374.228 23.24C373.995 23.73 373.691 24.1967 373.318 24.64C372.968 25.06 372.548 25.4333 372.058 25.76C371.568 26.0633 371.008 26.3083 370.378 26.495C369.771 26.6817 369.071 26.775 368.278 26.775ZM368.733 24.29C369.55 24.29 370.285 24.1267 370.938 23.8C371.615 23.45 372.186 22.9833 372.653 22.4C373.12 21.7933 373.47 21.1283 373.703 20.405C373.96 19.6817 374.088 18.9233 374.088 18.13V18.025H369.678C368.535 18.025 367.613 18.165 366.913 18.445C366.213 18.7017 365.711 19.075 365.408 19.565C365.105 20.0317 364.953 20.5683 364.953 21.175C364.953 21.805 365.093 22.3533 365.373 22.82C365.676 23.2867 366.108 23.6483 366.668 23.905C367.251 24.1617 367.94 24.29 368.733 24.29ZM381.226 26.355V1.155H384.166V26.355H381.226ZM395.599 26.355C394.549 26.355 393.639 26.1917 392.869 25.865C392.099 25.5383 391.504 24.99 391.084 24.22C390.687 23.4267 390.489 22.365 390.489 21.035V11.2H387.409V8.715H390.489L390.874 4.445H393.429V8.715H398.539V11.2H393.429V21.035C393.429 22.1317 393.651 22.8783 394.094 23.275C394.537 23.6483 395.319 23.835 396.439 23.835H398.329V26.355H395.599ZM409.282 26.775C407.625 26.775 406.155 26.39 404.872 25.62C403.612 24.85 402.62 23.7767 401.897 22.4C401.173 21 400.812 19.3783 400.812 17.535C400.812 15.6683 401.162 14.0467 401.862 12.67C402.585 11.2933 403.588 10.22 404.872 9.45C406.178 8.68 407.672 8.295 409.352 8.295C411.078 8.295 412.537 8.68 413.727 9.45C414.94 10.22 415.862 11.235 416.492 12.495C417.145 13.7317 417.472 15.0967 417.472 16.59C417.472 16.8233 417.472 17.0683 417.472 17.325C417.472 17.5817 417.46 17.8733 417.437 18.2H403.017V15.925H414.602C414.532 14.315 413.995 13.055 412.992 12.145C412.012 11.235 410.775 10.78 409.282 10.78C408.278 10.78 407.345 11.0133 406.482 11.48C405.642 11.9233 404.965 12.5883 404.452 13.475C403.938 14.3383 403.682 15.4233 403.682 16.73V17.71C403.682 19.1567 403.938 20.37 404.452 21.35C404.988 22.33 405.677 23.065 406.517 23.555C407.38 24.045 408.302 24.29 409.282 24.29C410.518 24.29 411.533 24.0217 412.327 23.485C413.143 22.925 413.727 22.1783 414.077 21.245H416.982C416.702 22.295 416.212 23.24 415.512 24.08C414.812 24.92 413.937 25.585 412.887 26.075C411.86 26.5417 410.658 26.775 409.282 26.775ZM8.19006 67.355C7.14006 67.355 6.23006 67.1917 5.46006 66.865C4.69006 66.5383 4.09506 65.99 3.67506 65.22C3.27839 64.4267 3.08006 63.365 3.08006 62.035V52.2H5.86584e-05V49.715H3.08006L3.46506 45.445H6.02006V49.715H11.1301V52.2H6.02006V62.035C6.02006 63.1317 6.24173 63.8783 6.68506 64.275C7.12839 64.6483 7.91006 64.835 9.03006 64.835H10.9201V67.355H8.19006ZM21.0211 67.775C19.6678 67.775 18.4778 67.5067 17.4511 66.97C16.4478 66.4333 15.6661 65.605 15.1061 64.485C14.5694 63.365 14.3011 61.965 14.3011 60.285V49.715H17.2411V59.97C17.2411 61.72 17.6261 63.0383 18.3961 63.925C19.1661 64.8117 20.2511 65.255 21.6511 65.255C22.6311 65.255 23.5178 65.0217 24.3111 64.555C25.1044 64.065 25.7228 63.3767 26.1661 62.49C26.6328 61.58 26.8661 60.4717 26.8661 59.165V49.715H29.8061V67.355H27.1461L26.9711 64.275C26.4344 65.3717 25.6411 66.235 24.5911 66.865C23.5411 67.4717 22.3511 67.775 21.0211 67.775ZM43.5565 67.355V49.715H46.4965V67.355H43.5565ZM45.0265 45.97C44.4431 45.97 43.9531 45.7833 43.5565 45.41C43.1831 45.0133 42.9965 44.5233 42.9965 43.94C42.9965 43.3567 43.1831 42.89 43.5565 42.54C43.9531 42.1667 44.4431 41.98 45.0265 41.98C45.5865 41.98 46.0648 42.1667 46.4615 42.54C46.8581 42.89 47.0565 43.3567 47.0565 43.94C47.0565 44.5233 46.8581 45.0133 46.4615 45.41C46.0648 45.7833 45.5865 45.97 45.0265 45.97ZM59.1047 67.775C57.4013 67.775 55.908 67.3783 54.6247 66.585C53.3413 65.7683 52.3497 64.66 51.6497 63.26C50.9497 61.86 50.5997 60.2733 50.5997 58.5C50.5997 56.7267 50.9497 55.1517 51.6497 53.775C52.3497 52.375 53.3413 51.2783 54.6247 50.485C55.9313 49.6917 57.4363 49.295 59.1397 49.295C60.5863 49.295 61.8463 49.5867 62.9197 50.17C64.0163 50.7533 64.8563 51.57 65.4397 52.62V42.155H68.3797V67.355H65.7197L65.4747 64.45C65.1013 65.0333 64.623 65.5817 64.0397 66.095C63.4563 66.585 62.7563 66.9933 61.9397 67.32C61.123 67.6233 60.178 67.775 59.1047 67.775ZM59.4547 65.22C60.6213 65.22 61.648 64.94 62.5347 64.38C63.4213 63.82 64.1097 63.05 64.5997 62.07C65.0897 61.0667 65.3347 59.8883 65.3347 58.535C65.3347 57.205 65.0897 56.0383 64.5997 55.035C64.1097 54.0317 63.4213 53.25 62.5347 52.69C61.648 52.13 60.6213 51.85 59.4547 51.85C58.3113 51.85 57.2963 52.13 56.4097 52.69C55.523 53.25 54.8347 54.0317 54.3447 55.035C53.8547 56.0383 53.6097 57.205 53.6097 58.535C53.6097 59.8883 53.8547 61.0667 54.3447 62.07C54.8347 63.05 55.523 63.82 56.4097 64.38C57.2963 64.94 58.3113 65.22 59.4547 65.22ZM80.663 67.775C79.0064 67.775 77.5364 67.39 76.253 66.62C74.993 65.85 74.0014 64.7767 73.278 63.4C72.5547 62 72.193 60.3783 72.193 58.535C72.193 56.6683 72.543 55.0467 73.243 53.67C73.9664 52.2933 74.9697 51.22 76.253 50.45C77.5597 49.68 79.053 49.295 80.733 49.295C82.4597 49.295 83.918 49.68 85.108 50.45C86.3214 51.22 87.243 52.235 87.873 53.495C88.5264 54.7317 88.853 56.0967 88.853 57.59C88.853 57.8233 88.853 58.0683 88.853 58.325C88.853 58.5817 88.8414 58.8733 88.818 59.2H74.398V56.925H85.983C85.913 55.315 85.3764 54.055 84.373 53.145C83.393 52.235 82.1564 51.78 80.663 51.78C79.6597 51.78 78.7264 52.0133 77.863 52.48C77.023 52.9233 76.3464 53.5883 75.833 54.475C75.3197 55.3383 75.063 56.4233 75.063 57.73V58.71C75.063 60.1567 75.3197 61.37 75.833 62.35C76.3697 63.33 77.058 64.065 77.898 64.555C78.7614 65.045 79.683 65.29 80.663 65.29C81.8997 65.29 82.9147 65.0217 83.708 64.485C84.5247 63.925 85.108 63.1783 85.458 62.245H88.363C88.083 63.295 87.593 64.24 86.893 65.08C86.193 65.92 85.318 66.585 84.268 67.075C83.2414 67.5417 82.0397 67.775 80.663 67.775ZM92.4706 67.355V49.715H95.1306L95.2706 52.795C95.8306 51.6983 96.6239 50.8467 97.6506 50.24C98.7006 49.61 99.8906 49.295 101.221 49.295C102.597 49.295 103.787 49.575 104.791 50.135C105.794 50.6717 106.576 51.5 107.136 52.62C107.696 53.7167 107.976 55.1167 107.976 56.82V67.355H105.036V57.135C105.036 55.3617 104.639 54.0317 103.846 53.145C103.076 52.2583 101.979 51.815 100.556 51.815C99.5756 51.815 98.7006 52.06 97.9306 52.55C97.1606 53.0167 96.5423 53.705 96.0756 54.615C95.6323 55.5017 95.4106 56.61 95.4106 57.94V67.355H92.4706ZM119.148 67.355C118.098 67.355 117.188 67.1917 116.418 66.865C115.648 66.5383 115.053 65.99 114.633 65.22C114.237 64.4267 114.038 63.365 114.038 62.035V52.2H110.958V49.715H114.038L114.423 45.445H116.978V49.715H122.088V52.2H116.978V62.035C116.978 63.1317 117.2 63.8783 117.643 64.275C118.087 64.6483 118.868 64.835 119.988 64.835H121.878V67.355H119.148ZM125.854 67.355V49.715H128.794V67.355H125.854ZM127.324 45.97C126.741 45.97 126.251 45.7833 125.854 45.41C125.481 45.0133 125.294 44.5233 125.294 43.94C125.294 43.3567 125.481 42.89 125.854 42.54C126.251 42.1667 126.741 41.98 127.324 41.98C127.884 41.98 128.363 42.1667 128.759 42.54C129.156 42.89 129.354 43.3567 129.354 43.94C129.354 44.5233 129.156 45.0133 128.759 45.41C128.363 45.7833 127.884 45.97 127.324 45.97ZM141.403 67.775C139.699 67.775 138.206 67.3783 136.923 66.585C135.639 65.7683 134.648 64.66 133.948 63.26C133.248 61.86 132.898 60.2733 132.898 58.5C132.898 56.7267 133.248 55.1517 133.948 53.775C134.648 52.375 135.639 51.2783 136.923 50.485C138.229 49.6917 139.734 49.295 141.438 49.295C142.884 49.295 144.144 49.5867 145.218 50.17C146.314 50.7533 147.154 51.57 147.738 52.62V42.155H150.678V67.355H148.018L147.773 64.45C147.399 65.0333 146.921 65.5817 146.338 66.095C145.754 66.585 145.054 66.9933 144.238 67.32C143.421 67.6233 142.476 67.775 141.403 67.775ZM141.753 65.22C142.919 65.22 143.946 64.94 144.833 64.38C145.719 63.82 146.408 63.05 146.898 62.07C147.388 61.0667 147.633 59.8883 147.633 58.535C147.633 57.205 147.388 56.0383 146.898 55.035C146.408 54.0317 145.719 53.25 144.833 52.69C143.946 52.13 142.919 51.85 141.753 51.85C140.609 51.85 139.594 52.13 138.708 52.69C137.821 53.25 137.133 54.0317 136.643 55.035C136.153 56.0383 135.908 57.205 135.908 58.535C135.908 59.8883 136.153 61.0667 136.643 62.07C137.133 63.05 137.821 63.82 138.708 64.38C139.594 64.94 140.609 65.22 141.753 65.22ZM160.966 67.775C159.543 67.775 158.353 67.53 157.396 67.04C156.439 66.5267 155.728 65.8617 155.261 65.045C154.794 64.205 154.561 63.295 154.561 62.315C154.561 61.125 154.864 60.1217 155.471 59.305C156.101 58.465 156.976 57.835 158.096 57.415C159.239 56.9717 160.581 56.75 162.121 56.75H166.776C166.776 55.6533 166.601 54.7433 166.251 54.02C165.924 53.2733 165.434 52.7133 164.781 52.34C164.151 51.9667 163.358 51.78 162.401 51.78C161.281 51.78 160.313 52.06 159.496 52.62C158.679 53.18 158.178 54.0083 157.991 55.105H154.981C155.121 53.845 155.541 52.795 156.241 51.955C156.964 51.0917 157.874 50.4383 158.971 49.995C160.068 49.5283 161.211 49.295 162.401 49.295C164.034 49.295 165.388 49.5983 166.461 50.205C167.558 50.7883 168.374 51.6167 168.911 52.69C169.448 53.74 169.716 54.9883 169.716 56.435V67.355H167.091L166.916 64.24C166.683 64.73 166.379 65.1967 166.006 65.64C165.656 66.06 165.236 66.4333 164.746 66.76C164.256 67.0633 163.696 67.3083 163.066 67.495C162.459 67.6817 161.759 67.775 160.966 67.775ZM161.421 65.29C162.238 65.29 162.973 65.1267 163.626 64.8C164.303 64.45 164.874 63.9833 165.341 63.4C165.808 62.7933 166.158 62.1283 166.391 61.405C166.648 60.6817 166.776 59.9233 166.776 59.13V59.025H162.366C161.223 59.025 160.301 59.165 159.601 59.445C158.901 59.7017 158.399 60.075 158.096 60.565C157.793 61.0317 157.641 61.5683 157.641 62.175C157.641 62.805 157.781 63.3533 158.061 63.82C158.364 64.2867 158.796 64.6483 159.356 64.905C159.939 65.1617 160.628 65.29 161.421 65.29ZM181.684 67.775C179.981 67.775 178.487 67.3783 177.204 66.585C175.921 65.7683 174.929 64.66 174.229 63.26C173.529 61.86 173.179 60.2733 173.179 58.5C173.179 56.7267 173.529 55.1517 174.229 53.775C174.929 52.375 175.921 51.2783 177.204 50.485C178.511 49.6917 180.016 49.295 181.719 49.295C183.166 49.295 184.426 49.5867 185.499 50.17C186.596 50.7533 187.436 51.57 188.019 52.62V42.155H190.959V67.355H188.299L188.054 64.45C187.681 65.0333 187.202 65.5817 186.619 66.095C186.036 66.585 185.336 66.9933 184.519 67.32C183.702 67.6233 182.757 67.775 181.684 67.775ZM182.034 65.22C183.201 65.22 184.227 64.94 185.114 64.38C186.001 63.82 186.689 63.05 187.179 62.07C187.669 61.0667 187.914 59.8883 187.914 58.535C187.914 57.205 187.669 56.0383 187.179 55.035C186.689 54.0317 186.001 53.25 185.114 52.69C184.227 52.13 183.201 51.85 182.034 51.85C180.891 51.85 179.876 52.13 178.989 52.69C178.102 53.25 177.414 54.0317 176.924 55.035C176.434 56.0383 176.189 57.205 176.189 58.535C176.189 59.8883 176.434 61.0667 176.924 62.07C177.414 63.05 178.102 63.82 178.989 64.38C179.876 64.94 180.891 65.22 182.034 65.22ZM196.557 67.53C195.974 67.53 195.484 67.3433 195.087 66.97C194.714 66.5733 194.527 66.095 194.527 65.535C194.527 64.975 194.714 64.5083 195.087 64.135C195.484 63.7383 195.974 63.54 196.557 63.54C197.141 63.54 197.619 63.7383 197.992 64.135C198.366 64.5083 198.552 64.975 198.552 65.535C198.552 66.095 198.366 66.5733 197.992 66.97C197.619 67.3433 197.141 67.53 196.557 67.53Z" fill="#333333"/>
</svg>
