<svg width="216" height="49" viewBox="0 0 216 49" fill="none" xmlns="http://www.w3.org/2000/svg">
<g filter="url(#filter0_d_2002_7804)">
<rect x="4" width="208" height="41" rx="20.5" fill="white"/>
</g>
<path d="M178.863 30.0727C177.75 30.0727 176.777 29.8982 175.946 29.5492C175.132 29.1835 174.483 28.6849 174.001 28.0533C173.536 27.405 173.262 26.6654 173.179 25.8344H176.171C176.254 26.1834 176.403 26.5075 176.619 26.8067C176.835 27.0892 177.126 27.3136 177.492 27.4798C177.874 27.6461 178.323 27.7292 178.838 27.7292C179.337 27.7292 179.744 27.6627 180.06 27.5297C180.376 27.3801 180.608 27.189 180.758 26.9563C180.908 26.7236 180.982 26.4743 180.982 26.2083C180.982 25.8094 180.874 25.5019 180.658 25.2859C180.442 25.0698 180.126 24.9036 179.711 24.7872C179.312 24.6543 178.83 24.5296 178.265 24.4132C177.666 24.2969 177.085 24.1556 176.52 23.9894C175.971 23.8066 175.472 23.5822 175.024 23.3163C174.592 23.0503 174.242 22.7096 173.977 22.2941C173.727 21.8785 173.603 21.3716 173.603 20.7732C173.603 20.0419 173.794 19.3854 174.176 18.8036C174.575 18.2219 175.14 17.7648 175.871 17.4324C176.619 17.0833 177.509 16.9088 178.539 16.9088C180.002 16.9088 181.165 17.2495 182.029 17.931C182.91 18.5959 183.426 19.5349 183.575 20.7483H180.733C180.65 20.2829 180.417 19.9255 180.035 19.6762C179.653 19.4103 179.146 19.2773 178.514 19.2773C177.866 19.2773 177.367 19.402 177.018 19.6513C176.686 19.884 176.52 20.1998 176.52 20.5987C176.52 20.848 176.619 21.0807 176.819 21.2968C177.035 21.4962 177.342 21.6708 177.741 21.8204C178.14 21.9533 178.63 22.0863 179.212 22.2193C180.143 22.4021 180.966 22.6182 181.68 22.8675C182.395 23.1168 182.96 23.4825 183.376 23.9645C183.791 24.4465 183.999 25.128 183.999 26.0089C184.016 26.8067 183.808 27.5131 183.376 28.1281C182.96 28.743 182.37 29.2251 181.606 29.5741C180.841 29.9065 179.927 30.0727 178.863 30.0727Z" fill="#68A7A4"/>
<path d="M164.865 30.0727C163.668 30.0727 162.588 29.7985 161.624 29.25C160.676 28.6849 159.928 27.912 159.38 26.9313C158.848 25.9341 158.582 24.7955 158.582 23.5157C158.582 22.2026 158.856 21.0558 159.405 20.0751C159.953 19.0779 160.701 18.305 161.649 17.7565C162.613 17.1914 163.693 16.9088 164.89 16.9088C166.086 16.9088 167.159 17.1914 168.106 17.7565C169.07 18.305 169.818 19.0696 170.35 20.0502C170.898 21.0309 171.173 22.1777 171.173 23.4908C171.173 24.8038 170.898 25.9507 170.35 26.9313C169.801 27.912 169.045 28.6849 168.081 29.25C167.134 29.7985 166.062 30.0727 164.865 30.0727ZM164.865 27.5048C165.463 27.5048 166.003 27.3552 166.485 27.056C166.984 26.7568 167.383 26.3081 167.682 25.7097C167.981 25.1113 168.131 24.3717 168.131 23.4908C168.131 22.6099 167.981 21.8785 167.682 21.2968C167.4 20.6984 167.009 20.2497 166.51 19.9505C166.028 19.6513 165.488 19.5017 164.89 19.5017C164.308 19.5017 163.768 19.6513 163.269 19.9505C162.771 20.2497 162.372 20.6984 162.072 21.2968C161.773 21.8785 161.624 22.6099 161.624 23.4908C161.624 24.3717 161.773 25.1113 162.072 25.7097C162.372 26.3081 162.762 26.7568 163.244 27.056C163.743 27.3552 164.283 27.5048 164.865 27.5048Z" fill="#68A7A4"/>
<path d="M144.208 29.7736V17.208H146.851L147.076 19.3023C147.458 18.5709 148.006 17.9892 148.721 17.557C149.436 17.1249 150.284 16.9088 151.264 16.9088C152.278 16.9088 153.142 17.1249 153.857 17.557C154.572 17.9726 155.12 18.5875 155.503 19.402C155.901 20.2164 156.101 21.2303 156.101 22.4436V29.7736H153.109V22.7179C153.109 21.6708 152.876 20.8646 152.411 20.2995C151.946 19.7344 151.256 19.4518 150.342 19.4518C149.743 19.4518 149.203 19.5931 148.721 19.8757C148.256 20.1582 147.882 20.5738 147.599 21.1223C147.333 21.6541 147.2 22.3024 147.2 23.0669V29.7736H144.208Z" fill="#68A7A4"/>
<path d="M134.33 30.0727C133.3 30.0727 132.444 29.8982 131.762 29.5492C131.081 29.2001 130.574 28.7347 130.241 28.153C129.909 27.5713 129.743 26.9397 129.743 26.2582C129.743 25.4604 129.942 24.7706 130.341 24.1889C130.757 23.6071 131.363 23.1584 132.161 22.8426C132.959 22.5101 133.94 22.3439 135.103 22.3439H138.269C138.269 21.6791 138.178 21.1306 137.995 20.6984C137.812 20.2497 137.53 19.9172 137.147 19.7012C136.765 19.4851 136.275 19.377 135.676 19.377C134.995 19.377 134.413 19.5349 133.931 19.8508C133.449 20.1499 133.15 20.6153 133.034 21.2469H130.092C130.191 20.3494 130.491 19.5848 130.989 18.9532C131.488 18.305 132.144 17.8064 132.959 17.4573C133.79 17.0916 134.696 16.9088 135.676 16.9088C136.857 16.9088 137.862 17.1166 138.693 17.5321C139.524 17.931 140.156 18.5128 140.588 19.2773C141.037 20.0253 141.261 20.9311 141.261 21.9949V29.7736H138.718L138.419 27.7541C138.253 28.0865 138.037 28.394 137.771 28.6766C137.521 28.9591 137.23 29.2084 136.898 29.4245C136.566 29.624 136.183 29.7819 135.751 29.8982C135.336 30.0146 134.862 30.0727 134.33 30.0727ZM135.003 27.7042C135.485 27.7042 135.909 27.6211 136.275 27.4549C136.657 27.2721 136.981 27.0228 137.247 26.707C137.53 26.3745 137.746 26.0089 137.895 25.61C138.045 25.2111 138.145 24.7872 138.195 24.3385V24.2886H135.427C134.845 24.2886 134.363 24.3634 133.981 24.513C133.599 24.6459 133.325 24.8454 133.158 25.1113C132.992 25.3773 132.909 25.6848 132.909 26.0338C132.909 26.3828 132.992 26.682 133.158 26.9313C133.325 27.1807 133.566 27.3718 133.881 27.5048C134.197 27.6377 134.571 27.7042 135.003 27.7042Z" fill="#68A7A4"/>
<path d="M125.357 29.7736C124.509 29.7736 123.77 29.6406 123.138 29.3747C122.523 29.1087 122.041 28.6683 121.692 28.0533C121.343 27.4383 121.169 26.6072 121.169 25.5601V19.7261H119.024V17.208H121.169L121.518 13.8921H124.16V17.208H127.576V19.7261H124.16V25.5601C124.16 26.1917 124.293 26.6322 124.559 26.8815C124.842 27.1142 125.307 27.2305 125.955 27.2305H127.501V29.7736H125.357Z" fill="#68A7A4"/>
<path d="M111.448 30.0727C110.218 30.0727 109.113 29.7985 108.132 29.25C107.168 28.6849 106.412 27.912 105.863 26.9313C105.331 25.9341 105.065 24.8038 105.065 23.5406C105.065 22.2276 105.331 21.0807 105.863 20.1001C106.412 19.1028 107.168 18.3216 108.132 17.7565C109.113 17.1914 110.226 16.9088 111.473 16.9088C113.035 16.9088 114.348 17.3243 115.412 18.1554C116.476 18.9698 117.157 20.0918 117.456 21.5212H114.315C114.149 20.8896 113.8 20.3909 113.268 20.0253C112.753 19.6596 112.138 19.4768 111.423 19.4768C110.808 19.4768 110.243 19.6347 109.728 19.9505C109.229 20.2663 108.83 20.7234 108.531 21.3217C108.248 21.9201 108.107 22.6431 108.107 23.4908C108.107 24.139 108.19 24.7124 108.356 25.2111C108.523 25.7097 108.755 26.1335 109.054 26.4826C109.37 26.815 109.728 27.0726 110.127 27.2555C110.525 27.4383 110.958 27.5297 111.423 27.5297C111.905 27.5297 112.337 27.4549 112.719 27.3053C113.118 27.1391 113.451 26.8981 113.717 26.5823C113.999 26.2665 114.199 25.8925 114.315 25.4604H117.456C117.157 26.8566 116.476 27.9785 115.412 28.8262C114.348 29.6572 113.027 30.0727 111.448 30.0727Z" fill="#68A7A4"/>
<path d="M95.6109 30.0727C94.5804 30.0727 93.7244 29.8982 93.0429 29.5492C92.3614 29.2001 91.8545 28.7347 91.5221 28.153C91.1896 27.5713 91.0234 26.9397 91.0234 26.2582C91.0234 25.4604 91.2229 24.7706 91.6218 24.1889C92.0373 23.6071 92.644 23.1583 93.4418 22.8425C94.2396 22.5101 95.2203 22.3439 96.3837 22.3439H99.5501C99.5501 21.6791 99.4587 21.1306 99.2758 20.6984C99.093 20.2497 98.8104 19.9172 98.4281 19.7012C98.0459 19.4851 97.5555 19.377 96.9572 19.377C96.2757 19.377 95.694 19.5349 95.212 19.8507C94.7299 20.1499 94.4308 20.6153 94.3144 21.2469H91.3725C91.4722 20.3494 91.7714 19.5848 92.27 18.9532C92.7687 18.305 93.4252 17.8063 94.2396 17.4573C95.0707 17.0916 95.9765 16.9088 96.9572 16.9088C98.1373 16.9088 99.1429 17.1166 99.9739 17.5321C100.805 17.931 101.437 18.5127 101.869 19.2773C102.317 20.0253 102.542 20.9311 102.542 21.9949V29.7736H99.9988L99.6997 27.7541C99.5334 28.0865 99.3174 28.394 99.0514 28.6766C98.8021 28.9591 98.5113 29.2084 98.1788 29.4245C97.8464 29.624 97.4641 29.7819 97.032 29.8982C96.6164 30.0146 96.1427 30.0727 95.6109 30.0727ZM96.284 27.7042C96.766 27.7042 97.1899 27.6211 97.5555 27.4549C97.9378 27.2721 98.2619 27.0228 98.5279 26.707C98.8104 26.3745 99.0265 26.0089 99.1761 25.61C99.3257 25.2111 99.4254 24.7872 99.4753 24.3384V24.2886H96.7079C96.1261 24.2886 95.6441 24.3634 95.2618 24.513C94.8795 24.6459 94.6053 24.8454 94.4391 25.1113C94.2729 25.3773 94.1898 25.6848 94.1898 26.0338C94.1898 26.3828 94.2729 26.682 94.4391 26.9313C94.6053 27.1807 94.8463 27.3718 95.1621 27.5048C95.4779 27.6377 95.8519 27.7042 96.284 27.7042ZM94.2396 16.1359L93.9654 14.1165L99.3008 11L99.6498 13.3186L94.2396 16.1359Z" fill="#68A7A4"/>
<path d="M86.6383 29.7736C85.7906 29.7736 85.051 29.6406 84.4194 29.3747C83.8044 29.1087 83.3224 28.6683 82.9734 28.0533C82.6243 27.4383 82.4498 26.6072 82.4498 25.5601V19.7261H80.3057V17.208H82.4498L82.7988 13.8921H85.4416V17.208H88.8572V19.7261H85.4416V25.5601C85.4416 26.1917 85.5746 26.6322 85.8405 26.8815C86.1231 27.1142 86.5884 27.2305 87.2367 27.2305H88.7824V29.7736H86.6383Z" fill="#68A7A4"/>
<path d="M66.3809 29.7736V17.208H69.0236L69.248 19.3023C69.6303 18.5709 70.1788 17.9892 70.8935 17.557C71.6082 17.1249 72.4559 16.9088 73.4365 16.9088C74.4504 16.9088 75.3147 17.1249 76.0294 17.557C76.7441 17.9726 77.2926 18.5875 77.6749 19.402C78.0738 20.2164 78.2733 21.2303 78.2733 22.4436V29.7736H75.2815V22.7179C75.2815 21.6708 75.0488 20.8646 74.5834 20.2995C74.118 19.7344 73.4282 19.4518 72.5141 19.4518C71.9157 19.4518 71.3755 19.5931 70.8935 19.8757C70.4281 20.1582 70.0541 20.5738 69.7716 21.1223C69.5056 21.6541 69.3727 22.3024 69.3727 23.0669V29.7736H66.3809Z" fill="#68A7A4"/>
<path d="M57.3936 30.0727C56.1969 30.0727 55.1165 29.7985 54.1525 29.25C53.2051 28.6849 52.4571 27.912 51.9087 26.9313C51.3768 25.9341 51.1108 24.7955 51.1108 23.5157C51.1108 22.2026 51.3851 21.0558 51.9336 20.0751C52.4821 19.0779 53.23 18.305 54.1774 17.7565C55.1415 17.1914 56.2218 16.9088 57.4186 16.9088C58.6153 16.9088 59.6873 17.1914 60.6347 17.7565C61.5988 18.305 62.3467 19.0696 62.8786 20.0502C63.4271 21.0309 63.7013 22.1777 63.7013 23.4908C63.7013 24.8038 63.4271 25.9507 62.8786 26.9313C62.3301 27.912 61.5738 28.6849 60.6098 29.25C59.6624 29.7985 58.5903 30.0727 57.3936 30.0727ZM57.3936 27.5048C57.992 27.5048 58.5322 27.3552 59.0142 27.056C59.5128 26.7568 59.9117 26.3081 60.2109 25.7097C60.5101 25.1113 60.6597 24.3717 60.6597 23.4908C60.6597 22.6099 60.5101 21.8785 60.2109 21.2968C59.9283 20.6984 59.5377 20.2497 59.0391 19.9505C58.5571 19.6513 58.0169 19.5017 57.4186 19.5017C56.8368 19.5017 56.2966 19.6513 55.798 19.9505C55.2994 20.2497 54.9005 20.6984 54.6013 21.2968C54.3021 21.8785 54.1525 22.6099 54.1525 23.4908C54.1525 24.3717 54.3021 25.1113 54.6013 25.7097C54.9005 26.3081 55.2911 26.7568 55.7731 27.056C56.2717 27.3552 56.8119 27.5048 57.3936 27.5048Z" fill="#68A7A4"/>
<path d="M41.377 30.0728C39.6484 30.0728 38.1525 29.6988 36.8893 28.9508C35.6428 28.1863 34.6787 27.1308 33.9973 25.7845C33.3324 24.4216 33 22.8509 33 21.0724C33 19.2773 33.3324 17.7066 33.9973 16.3603C34.6787 14.9974 35.6428 13.9336 36.8893 13.1691C38.1525 12.4045 39.6484 12.0222 41.377 12.0222C43.4547 12.0222 45.15 12.5375 46.4631 13.568C47.7762 14.5819 48.6072 16.0196 48.9563 17.8812H45.6653C45.4326 16.9005 44.9589 16.1276 44.2442 15.5625C43.5295 14.9974 42.5655 14.7148 41.3521 14.7148C40.2551 14.7148 39.3077 14.9725 38.5099 15.4877C37.7287 15.9864 37.122 16.7177 36.6899 17.6817C36.2744 18.6291 36.0666 19.7593 36.0666 21.0724C36.0666 22.3855 36.2744 23.5157 36.6899 24.4631C37.122 25.3939 37.7287 26.1169 38.5099 26.6322C39.3077 27.1308 40.2551 27.3801 41.3521 27.3801C42.5655 27.3801 43.5295 27.1225 44.2442 26.6072C44.9589 26.0754 45.4326 25.344 45.6653 24.4133H48.9563C48.6238 26.1751 47.7928 27.563 46.4631 28.5768C45.15 29.5741 43.4547 30.0728 41.377 30.0728Z" fill="#68A7A4"/>
<defs>
<filter id="filter0_d_2002_7804" x="0" y="0" width="216" height="49" filterUnits="userSpaceOnUse" color-interpolation-filters="sRGB">
<feFlood flood-opacity="0" result="BackgroundImageFix"/>
<feColorMatrix in="SourceAlpha" type="matrix" values="0 0 0 0 0 0 0 0 0 0 0 0 0 0 0 0 0 0 127 0" result="hardAlpha"/>
<feOffset dy="4"/>
<feGaussianBlur stdDeviation="2"/>
<feComposite in2="hardAlpha" operator="out"/>
<feColorMatrix type="matrix" values="0 0 0 0 0.36388 0 0 0 0 0.523835 0 0 0 0 0.516218 0 0 0 1 0"/>
<feBlend mode="normal" in2="BackgroundImageFix" result="effect1_dropShadow_2002_7804"/>
<feBlend mode="normal" in="SourceGraphic" in2="effect1_dropShadow_2002_7804" result="shape"/>
</filter>
</defs>
</svg>
