<svg width="878" height="666" viewBox="0 0 878 666" fill="none" xmlns="http://www.w3.org/2000/svg">
<rect x="80" y="79.0001" width="722" height="507" fill="#85D9D5"/>
<path d="M223.375 240V208.5H242.86V211.605H227.155V222.585H241.51V225.645H227.155V236.895H242.86V240H223.375ZM245.894 240L253.589 228.66L245.894 217.32H250.034L256.154 226.59L262.364 217.32H266.414L258.719 228.66L266.414 240H262.364L256.154 230.685L250.034 240H245.894ZM270.019 249.9V217.32H273.439L273.754 221.01C274.234 220.29 274.849 219.615 275.599 218.985C276.349 218.325 277.249 217.8 278.299 217.41C279.349 216.99 280.549 216.78 281.899 216.78C284.119 216.78 286.039 217.305 287.659 218.355C289.309 219.405 290.584 220.83 291.484 222.63C292.414 224.4 292.879 226.425 292.879 228.705C292.879 230.985 292.414 233.025 291.484 234.825C290.584 236.595 289.309 237.99 287.659 239.01C286.009 240.03 284.074 240.54 281.854 240.54C280.024 240.54 278.404 240.165 276.994 239.415C275.614 238.665 274.549 237.615 273.799 236.265V249.9H270.019ZM281.449 237.255C282.919 237.255 284.224 236.895 285.364 236.175C286.504 235.455 287.389 234.465 288.019 233.205C288.679 231.915 289.009 230.4 289.009 228.66C289.009 226.95 288.679 225.45 288.019 224.16C287.389 222.87 286.504 221.865 285.364 221.145C284.224 220.425 282.919 220.065 281.449 220.065C279.949 220.065 278.629 220.425 277.489 221.145C276.349 221.865 275.464 222.87 274.834 224.16C274.204 225.45 273.889 226.95 273.889 228.66C273.889 230.4 274.204 231.915 274.834 233.205C275.464 234.465 276.349 235.455 277.489 236.175C278.629 236.895 279.949 237.255 281.449 237.255ZM307.683 240.54C305.553 240.54 303.663 240.045 302.013 239.055C300.393 238.065 299.118 236.685 298.188 234.915C297.258 233.115 296.793 231.03 296.793 228.66C296.793 226.26 297.243 224.175 298.143 222.405C299.073 220.635 300.363 219.255 302.013 218.265C303.693 217.275 305.613 216.78 307.773 216.78C309.993 216.78 311.868 217.275 313.398 218.265C314.958 219.255 316.143 220.56 316.953 222.18C317.793 223.77 318.213 225.525 318.213 227.445C318.213 227.745 318.213 228.06 318.213 228.39C318.213 228.72 318.198 229.095 318.168 229.515H299.628V226.59H314.523C314.433 224.52 313.743 222.9 312.453 221.73C311.193 220.56 309.603 219.975 307.683 219.975C306.393 219.975 305.193 220.275 304.083 220.875C303.003 221.445 302.133 222.3 301.473 223.44C300.813 224.55 300.483 225.945 300.483 227.625V228.885C300.483 230.745 300.813 232.305 301.473 233.565C302.163 234.825 303.048 235.77 304.128 236.4C305.238 237.03 306.423 237.345 307.683 237.345C309.273 237.345 310.578 237 311.598 236.31C312.648 235.59 313.398 234.63 313.848 233.43H317.583C317.223 234.78 316.593 235.995 315.693 237.075C314.793 238.155 313.668 239.01 312.318 239.64C310.998 240.24 309.453 240.54 307.683 240.54ZM322.864 240V217.32H326.284L326.554 221.64C327.064 220.62 327.709 219.75 328.489 219.03C329.299 218.31 330.259 217.755 331.369 217.365C332.509 216.975 333.799 216.78 335.239 216.78V220.74H333.844C332.884 220.74 331.969 220.875 331.099 221.145C330.229 221.385 329.449 221.79 328.759 222.36C328.099 222.93 327.574 223.71 327.184 224.7C326.824 225.66 326.644 226.86 326.644 228.3V240H322.864ZM339.429 240V217.32H343.209V240H339.429ZM341.319 212.505C340.569 212.505 339.939 212.265 339.429 211.785C338.949 211.275 338.709 210.645 338.709 209.895C338.709 209.145 338.949 208.545 339.429 208.095C339.939 207.615 340.569 207.375 341.319 207.375C342.039 207.375 342.654 207.615 343.164 208.095C343.674 208.545 343.929 209.145 343.929 209.895C343.929 210.645 343.674 211.275 343.164 211.785C342.654 212.265 342.039 212.505 341.319 212.505ZM359.374 240.54C357.244 240.54 355.354 240.045 353.704 239.055C352.084 238.065 350.809 236.685 349.879 234.915C348.949 233.115 348.484 231.03 348.484 228.66C348.484 226.26 348.934 224.175 349.834 222.405C350.764 220.635 352.054 219.255 353.704 218.265C355.384 217.275 357.304 216.78 359.464 216.78C361.684 216.78 363.559 217.275 365.089 218.265C366.649 219.255 367.834 220.56 368.644 222.18C369.484 223.77 369.904 225.525 369.904 227.445C369.904 227.745 369.904 228.06 369.904 228.39C369.904 228.72 369.889 229.095 369.859 229.515H351.319V226.59H366.214C366.124 224.52 365.434 222.9 364.144 221.73C362.884 220.56 361.294 219.975 359.374 219.975C358.084 219.975 356.884 220.275 355.774 220.875C354.694 221.445 353.824 222.3 353.164 223.44C352.504 224.55 352.174 225.945 352.174 227.625V228.885C352.174 230.745 352.504 232.305 353.164 233.565C353.854 234.825 354.739 235.77 355.819 236.4C356.929 237.03 358.114 237.345 359.374 237.345C360.964 237.345 362.269 237 363.289 236.31C364.339 235.59 365.089 234.63 365.539 233.43H369.274C368.914 234.78 368.284 235.995 367.384 237.075C366.484 238.155 365.359 239.01 364.009 239.64C362.689 240.24 361.144 240.54 359.374 240.54ZM374.556 240V217.32H377.976L378.156 221.28C378.876 219.87 379.896 218.775 381.216 217.995C382.566 217.185 384.096 216.78 385.806 216.78C387.576 216.78 389.106 217.14 390.396 217.86C391.686 218.55 392.691 219.615 393.411 221.055C394.131 222.465 394.491 224.265 394.491 226.455V240H390.711V226.86C390.711 224.58 390.201 222.87 389.181 221.73C388.191 220.59 386.781 220.02 384.951 220.02C383.691 220.02 382.566 220.335 381.576 220.965C380.586 221.565 379.791 222.45 379.191 223.62C378.621 224.76 378.336 226.185 378.336 227.895V240H374.556ZM410.161 240.54C408.031 240.54 406.111 240.045 404.401 239.055C402.721 238.065 401.401 236.685 400.441 234.915C399.481 233.115 399.001 231.045 399.001 228.705C399.001 226.305 399.481 224.22 400.441 222.45C401.401 220.68 402.721 219.3 404.401 218.31C406.111 217.29 408.031 216.78 410.161 216.78C412.861 216.78 415.111 217.485 416.911 218.895C418.711 220.275 419.851 222.135 420.331 224.475H416.461C416.161 223.065 415.426 221.97 414.256 221.19C413.086 220.41 411.706 220.02 410.116 220.02C408.826 220.02 407.626 220.35 406.516 221.01C405.406 221.64 404.521 222.6 403.861 223.89C403.201 225.18 402.871 226.77 402.871 228.66C402.871 230.07 403.066 231.33 403.456 232.44C403.846 233.52 404.371 234.42 405.031 235.14C405.691 235.86 406.456 236.415 407.326 236.805C408.226 237.165 409.156 237.345 410.116 237.345C411.196 237.345 412.171 237.18 413.041 236.85C413.911 236.49 414.646 235.965 415.246 235.275C415.846 234.585 416.251 233.775 416.461 232.845H420.331C419.851 235.125 418.696 236.985 416.866 238.425C415.066 239.835 412.831 240.54 410.161 240.54ZM425.607 240V217.32H429.387V240H425.607ZM427.497 212.505C426.747 212.505 426.117 212.265 425.607 211.785C425.127 211.275 424.887 210.645 424.887 209.895C424.887 209.145 425.127 208.545 425.607 208.095C426.117 207.615 426.747 207.375 427.497 207.375C428.217 207.375 428.832 207.615 429.342 208.095C429.852 208.545 430.107 209.145 430.107 209.895C430.107 210.645 429.852 211.275 429.342 211.785C428.832 212.265 428.217 212.505 427.497 212.505ZM442.988 240.54C441.158 240.54 439.628 240.225 438.398 239.595C437.168 238.935 436.253 238.08 435.653 237.03C435.053 235.95 434.753 234.78 434.753 233.52C434.753 231.99 435.143 230.7 435.923 229.65C436.733 228.57 437.858 227.76 439.298 227.22C440.768 226.65 442.493 226.365 444.473 226.365H450.458C450.458 224.955 450.233 223.785 449.783 222.855C449.363 221.895 448.733 221.175 447.893 220.695C447.083 220.215 446.063 219.975 444.833 219.975C443.393 219.975 442.148 220.335 441.098 221.055C440.048 221.775 439.403 222.84 439.163 224.25H435.293C435.473 222.63 436.013 221.28 436.913 220.2C437.843 219.09 439.013 218.25 440.423 217.68C441.833 217.08 443.303 216.78 444.833 216.78C446.933 216.78 448.673 217.17 450.053 217.95C451.463 218.7 452.513 219.765 453.203 221.145C453.893 222.495 454.238 224.1 454.238 225.96V240H450.863L450.638 235.995C450.338 236.625 449.948 237.225 449.468 237.795C449.018 238.335 448.478 238.815 447.848 239.235C447.218 239.625 446.498 239.94 445.688 240.18C444.908 240.42 444.008 240.54 442.988 240.54ZM443.573 237.345C444.623 237.345 445.568 237.135 446.408 236.715C447.278 236.265 448.013 235.665 448.613 234.915C449.213 234.135 449.663 233.28 449.963 232.35C450.293 231.42 450.458 230.445 450.458 229.425V229.29H444.788C443.318 229.29 442.133 229.47 441.233 229.83C440.333 230.16 439.688 230.64 439.298 231.27C438.908 231.87 438.713 232.56 438.713 233.34C438.713 234.15 438.893 234.855 439.253 235.455C439.643 236.055 440.198 236.52 440.918 236.85C441.668 237.18 442.553 237.345 443.573 237.345ZM489.274 249.9V236.31C488.554 237.48 487.504 238.485 486.124 239.325C484.774 240.135 483.124 240.54 481.174 240.54C478.954 240.54 477.019 240.03 475.369 239.01C473.719 237.96 472.444 236.55 471.544 234.78C470.644 232.98 470.194 230.94 470.194 228.66C470.194 226.38 470.644 224.355 471.544 222.585C472.444 220.785 473.719 219.375 475.369 218.355C477.049 217.305 478.984 216.78 481.174 216.78C482.464 216.78 483.619 216.96 484.639 217.32C485.689 217.68 486.604 218.19 487.384 218.85C488.164 219.48 488.794 220.215 489.274 221.055L489.634 217.32H493.054V249.9H489.274ZM481.579 237.255C483.079 237.255 484.399 236.895 485.539 236.175C486.679 235.455 487.564 234.465 488.194 233.205C488.824 231.915 489.139 230.4 489.139 228.66C489.139 226.95 488.824 225.45 488.194 224.16C487.564 222.87 486.679 221.865 485.539 221.145C484.399 220.425 483.079 220.065 481.579 220.065C480.109 220.065 478.804 220.425 477.664 221.145C476.524 221.865 475.639 222.87 475.009 224.16C474.379 225.45 474.064 226.95 474.064 228.66C474.064 230.4 474.379 231.915 475.009 233.205C475.639 234.465 476.524 235.455 477.664 236.175C478.804 236.895 480.109 237.255 481.579 237.255ZM507.137 240.54C505.397 240.54 503.867 240.195 502.547 239.505C501.257 238.815 500.252 237.75 499.532 236.31C498.842 234.87 498.497 233.07 498.497 230.91V217.32H502.277V230.505C502.277 232.755 502.772 234.45 503.762 235.59C504.752 236.73 506.147 237.3 507.947 237.3C509.207 237.3 510.347 237 511.367 236.4C512.387 235.77 513.182 234.885 513.752 233.745C514.352 232.575 514.652 231.15 514.652 229.47V217.32H518.432V240H515.012L514.787 236.04C514.097 237.45 513.077 238.56 511.727 239.37C510.377 240.15 508.847 240.54 507.137 240.54ZM534.192 240.54C532.062 240.54 530.172 240.045 528.522 239.055C526.902 238.065 525.627 236.685 524.697 234.915C523.767 233.115 523.302 231.03 523.302 228.66C523.302 226.26 523.752 224.175 524.652 222.405C525.582 220.635 526.872 219.255 528.522 218.265C530.202 217.275 532.122 216.78 534.282 216.78C536.502 216.78 538.377 217.275 539.907 218.265C541.467 219.255 542.652 220.56 543.462 222.18C544.302 223.77 544.722 225.525 544.722 227.445C544.722 227.745 544.722 228.06 544.722 228.39C544.722 228.72 544.707 229.095 544.677 229.515H526.137V226.59H541.032C540.942 224.52 540.252 222.9 538.962 221.73C537.702 220.56 536.112 219.975 534.192 219.975C532.902 219.975 531.702 220.275 530.592 220.875C529.512 221.445 528.642 222.3 527.982 223.44C527.322 224.55 526.992 225.945 526.992 227.625V228.885C526.992 230.745 527.322 232.305 527.982 233.565C528.672 234.825 529.557 235.77 530.637 236.4C531.747 237.03 532.932 237.345 534.192 237.345C535.782 237.345 537.087 237 538.107 236.31C539.157 235.59 539.907 234.63 540.357 233.43H544.092C543.732 234.78 543.102 235.995 542.202 237.075C541.302 238.155 540.177 239.01 538.827 239.64C537.507 240.24 535.962 240.54 534.192 240.54ZM232.24 299.54C230.17 299.54 228.37 299.21 226.84 298.55C225.31 297.89 224.11 296.975 223.24 295.805C222.37 294.635 221.875 293.315 221.755 291.845H227.785C227.935 292.415 228.19 292.94 228.55 293.42C228.91 293.87 229.39 294.23 229.99 294.5C230.59 294.77 231.31 294.905 232.15 294.905C232.96 294.905 233.62 294.8 234.13 294.59C234.64 294.35 235.015 294.035 235.255 293.645C235.525 293.255 235.66 292.85 235.66 292.43C235.66 291.8 235.48 291.32 235.12 290.99C234.76 290.63 234.235 290.345 233.545 290.135C232.855 289.925 232.015 289.715 231.025 289.505C229.945 289.295 228.88 289.04 227.83 288.74C226.81 288.41 225.895 288.005 225.085 287.525C224.275 287.045 223.63 286.43 223.15 285.68C222.67 284.93 222.43 284 222.43 282.89C222.43 281.54 222.79 280.34 223.51 279.29C224.23 278.21 225.28 277.355 226.66 276.725C228.04 276.095 229.705 275.78 231.655 275.78C234.385 275.78 236.545 276.395 238.135 277.625C239.725 278.855 240.67 280.55 240.97 282.71H235.255C235.075 282.02 234.67 281.48 234.04 281.09C233.44 280.67 232.63 280.46 231.61 280.46C230.53 280.46 229.705 280.655 229.135 281.045C228.565 281.435 228.28 281.945 228.28 282.575C228.28 282.995 228.46 283.37 228.82 283.7C229.21 284.03 229.75 284.315 230.44 284.555C231.13 284.765 231.97 284.975 232.96 285.185C234.7 285.545 236.23 285.965 237.55 286.445C238.87 286.895 239.905 287.555 240.655 288.425C241.405 289.265 241.78 290.495 241.78 292.115C241.78 293.555 241.39 294.845 240.61 295.985C239.83 297.095 238.72 297.965 237.28 298.595C235.87 299.225 234.19 299.54 232.24 299.54ZM254.93 299.54C253.1 299.54 251.525 299.165 250.205 298.415C248.915 297.635 247.925 296.51 247.235 295.04C246.545 293.54 246.2 291.695 246.2 289.505V276.32H252.275V288.875C252.275 290.705 252.65 292.085 253.4 293.015C254.18 293.945 255.365 294.41 256.955 294.41C257.975 294.41 258.875 294.185 259.655 293.735C260.435 293.255 261.05 292.58 261.5 291.71C261.98 290.81 262.22 289.715 262.22 288.425V276.32H268.25V299H262.94L262.445 295.31C261.785 296.6 260.81 297.635 259.52 298.415C258.23 299.165 256.7 299.54 254.93 299.54ZM273.75 308.9V276.32H279.15L279.825 279.47C280.305 278.81 280.875 278.21 281.535 277.67C282.195 277.1 282.975 276.65 283.875 276.32C284.805 275.96 285.885 275.78 287.115 275.78C289.245 275.78 291.12 276.305 292.74 277.355C294.36 278.405 295.635 279.83 296.565 281.63C297.525 283.4 298.005 285.425 298.005 287.705C298.005 289.985 297.525 292.025 296.565 293.825C295.605 295.595 294.315 296.99 292.695 298.01C291.075 299.03 289.23 299.54 287.16 299.54C285.48 299.54 284.025 299.24 282.795 298.64C281.595 298.01 280.605 297.155 279.825 296.075V308.9H273.75ZM285.72 294.23C286.92 294.23 287.97 293.96 288.87 293.42C289.8 292.88 290.52 292.115 291.03 291.125C291.54 290.135 291.795 288.995 291.795 287.705C291.795 286.415 291.54 285.275 291.03 284.285C290.52 283.265 289.8 282.485 288.87 281.945C287.97 281.375 286.92 281.09 285.72 281.09C284.55 281.09 283.5 281.375 282.57 281.945C281.67 282.485 280.95 283.25 280.41 284.24C279.9 285.23 279.645 286.37 279.645 287.66C279.645 288.95 279.9 290.105 280.41 291.125C280.95 292.115 281.67 292.88 282.57 293.42C283.5 293.96 284.55 294.23 285.72 294.23ZM313.677 299.54C311.397 299.54 309.372 299.06 307.602 298.1C305.862 297.11 304.497 295.745 303.507 294.005C302.547 292.235 302.067 290.195 302.067 287.885C302.067 285.515 302.547 283.43 303.507 281.63C304.497 279.8 305.862 278.375 307.602 277.355C309.342 276.305 311.367 275.78 313.677 275.78C315.927 275.78 317.892 276.275 319.572 277.265C321.252 278.255 322.557 279.59 323.487 281.27C324.417 282.95 324.882 284.855 324.882 286.985C324.882 287.285 324.882 287.63 324.882 288.02C324.882 288.38 324.852 288.755 324.792 289.145H306.387V285.455H318.762C318.672 283.985 318.147 282.83 317.187 281.99C316.257 281.15 315.087 280.73 313.677 280.73C312.657 280.73 311.712 280.97 310.842 281.45C309.972 281.9 309.282 282.605 308.772 283.565C308.292 284.525 308.052 285.74 308.052 287.21V288.515C308.052 289.745 308.277 290.825 308.727 291.755C309.207 292.655 309.867 293.36 310.707 293.87C311.547 294.35 312.522 294.59 313.632 294.59C314.742 294.59 315.657 294.35 316.377 293.87C317.127 293.39 317.682 292.775 318.042 292.025H324.252C323.832 293.435 323.127 294.71 322.137 295.85C321.147 296.99 319.932 297.89 318.492 298.55C317.052 299.21 315.447 299.54 313.677 299.54ZM329.407 299V276.32H334.807L335.392 280.505C335.932 279.515 336.607 278.675 337.417 277.985C338.257 277.295 339.202 276.755 340.252 276.365C341.332 275.975 342.517 275.78 343.807 275.78V282.215H341.737C340.837 282.215 339.997 282.32 339.217 282.53C338.467 282.74 337.807 283.085 337.237 283.565C336.667 284.015 336.232 284.645 335.932 285.455C335.632 286.265 335.482 287.285 335.482 288.515V299H329.407ZM355.02 299.54C353.13 299.54 351.57 299.24 350.34 298.64C349.11 298.01 348.195 297.185 347.595 296.165C347.025 295.115 346.74 293.96 346.74 292.7C346.74 291.32 347.085 290.105 347.775 289.055C348.495 288.005 349.56 287.18 350.97 286.58C352.41 285.98 354.21 285.68 356.37 285.68H361.995C361.995 284.57 361.845 283.655 361.545 282.935C361.245 282.185 360.78 281.63 360.15 281.27C359.52 280.91 358.68 280.73 357.63 280.73C356.49 280.73 355.515 280.985 354.705 281.495C353.925 281.975 353.445 282.725 353.265 283.745H347.37C347.52 282.125 348.045 280.73 348.945 279.56C349.875 278.36 351.09 277.43 352.59 276.77C354.12 276.11 355.815 275.78 357.675 275.78C359.805 275.78 361.65 276.14 363.21 276.86C364.77 277.58 365.97 278.615 366.81 279.965C367.65 281.315 368.07 282.98 368.07 284.96V299H362.94L362.265 295.535C361.935 296.135 361.545 296.675 361.095 297.155C360.645 297.635 360.12 298.055 359.52 298.415C358.92 298.775 358.245 299.045 357.495 299.225C356.745 299.435 355.92 299.54 355.02 299.54ZM356.46 294.86C357.24 294.86 357.93 294.725 358.53 294.455C359.16 294.155 359.7 293.765 360.15 293.285C360.6 292.775 360.945 292.205 361.185 291.575C361.455 290.915 361.635 290.21 361.725 289.46V289.415H357.09C356.16 289.415 355.395 289.535 354.795 289.775C354.225 289.985 353.805 290.3 353.535 290.72C353.265 291.14 353.13 291.62 353.13 292.16C353.13 292.76 353.265 293.255 353.535 293.645C353.805 294.035 354.195 294.335 354.705 294.545C355.215 294.755 355.8 294.86 356.46 294.86ZM394.318 299.54C392.038 299.54 390.013 299.06 388.243 298.1C386.503 297.11 385.138 295.745 384.148 294.005C383.188 292.235 382.708 290.195 382.708 287.885C382.708 285.515 383.188 283.43 384.148 281.63C385.138 279.8 386.503 278.375 388.243 277.355C389.983 276.305 392.008 275.78 394.318 275.78C396.568 275.78 398.533 276.275 400.213 277.265C401.893 278.255 403.198 279.59 404.128 281.27C405.058 282.95 405.523 284.855 405.523 286.985C405.523 287.285 405.523 287.63 405.523 288.02C405.523 288.38 405.493 288.755 405.433 289.145H387.028V285.455H399.403C399.313 283.985 398.788 282.83 397.828 281.99C396.898 281.15 395.728 280.73 394.318 280.73C393.298 280.73 392.353 280.97 391.483 281.45C390.613 281.9 389.923 282.605 389.413 283.565C388.933 284.525 388.693 285.74 388.693 287.21V288.515C388.693 289.745 388.918 290.825 389.368 291.755C389.848 292.655 390.508 293.36 391.348 293.87C392.188 294.35 393.163 294.59 394.273 294.59C395.383 294.59 396.298 294.35 397.018 293.87C397.768 293.39 398.323 292.775 398.683 292.025H404.893C404.473 293.435 403.768 294.71 402.778 295.85C401.788 296.99 400.573 297.89 399.133 298.55C397.693 299.21 396.088 299.54 394.318 299.54ZM406.308 299L414.453 287.66L406.308 276.32H412.878L418.323 284.105L423.768 276.32H430.293L422.148 287.66L430.293 299H423.768L418.323 291.17L412.878 299H406.308ZM433.681 308.9V276.32H439.081L439.756 279.47C440.236 278.81 440.806 278.21 441.466 277.67C442.126 277.1 442.906 276.65 443.806 276.32C444.736 275.96 445.816 275.78 447.046 275.78C449.176 275.78 451.051 276.305 452.671 277.355C454.291 278.405 455.566 279.83 456.496 281.63C457.456 283.4 457.936 285.425 457.936 287.705C457.936 289.985 457.456 292.025 456.496 293.825C455.536 295.595 454.246 296.99 452.626 298.01C451.006 299.03 449.161 299.54 447.091 299.54C445.411 299.54 443.956 299.24 442.726 298.64C441.526 298.01 440.536 297.155 439.756 296.075V308.9H433.681ZM445.651 294.23C446.851 294.23 447.901 293.96 448.801 293.42C449.731 292.88 450.451 292.115 450.961 291.125C451.471 290.135 451.726 288.995 451.726 287.705C451.726 286.415 451.471 285.275 450.961 284.285C450.451 283.265 449.731 282.485 448.801 281.945C447.901 281.375 446.851 281.09 445.651 281.09C444.481 281.09 443.431 281.375 442.501 281.945C441.601 282.485 440.881 283.25 440.341 284.24C439.831 285.23 439.576 286.37 439.576 287.66C439.576 288.95 439.831 290.105 440.341 291.125C440.881 292.115 441.601 292.88 442.501 293.42C443.431 293.96 444.481 294.23 445.651 294.23ZM473.608 299.54C471.328 299.54 469.303 299.06 467.533 298.1C465.793 297.11 464.428 295.745 463.438 294.005C462.478 292.235 461.998 290.195 461.998 287.885C461.998 285.515 462.478 283.43 463.438 281.63C464.428 279.8 465.793 278.375 467.533 277.355C469.273 276.305 471.298 275.78 473.608 275.78C475.858 275.78 477.823 276.275 479.503 277.265C481.183 278.255 482.488 279.59 483.418 281.27C484.348 282.95 484.813 284.855 484.813 286.985C484.813 287.285 484.813 287.63 484.813 288.02C484.813 288.38 484.783 288.755 484.723 289.145H466.318V285.455H478.693C478.603 283.985 478.078 282.83 477.118 281.99C476.188 281.15 475.018 280.73 473.608 280.73C472.588 280.73 471.643 280.97 470.773 281.45C469.903 281.9 469.213 282.605 468.703 283.565C468.223 284.525 467.983 285.74 467.983 287.21V288.515C467.983 289.745 468.208 290.825 468.658 291.755C469.138 292.655 469.798 293.36 470.638 293.87C471.478 294.35 472.453 294.59 473.563 294.59C474.673 294.59 475.588 294.35 476.308 293.87C477.058 293.39 477.613 292.775 477.973 292.025H484.183C483.763 293.435 483.058 294.71 482.068 295.85C481.078 296.99 479.863 297.89 478.423 298.55C476.983 299.21 475.378 299.54 473.608 299.54ZM500.318 299.54C498.038 299.54 496.013 299.03 494.243 298.01C492.473 296.99 491.093 295.595 490.103 293.825C489.113 292.055 488.618 290.03 488.618 287.75C488.618 285.41 489.113 283.355 490.103 281.585C491.093 279.785 492.473 278.375 494.243 277.355C496.013 276.305 498.038 275.78 500.318 275.78C503.228 275.78 505.673 276.545 507.653 278.075C509.633 279.605 510.893 281.705 511.433 284.375H504.998C504.728 283.325 504.158 282.5 503.288 281.9C502.448 281.3 501.443 281 500.273 281C499.223 281 498.278 281.27 497.438 281.81C496.628 282.32 495.983 283.085 495.503 284.105C495.053 285.095 494.828 286.28 494.828 287.66C494.828 288.71 494.963 289.655 495.233 290.495C495.503 291.305 495.878 292.01 496.358 292.61C496.838 293.18 497.408 293.615 498.068 293.915C498.758 294.215 499.493 294.365 500.273 294.365C501.053 294.365 501.758 294.23 502.388 293.96C503.048 293.69 503.603 293.315 504.053 292.835C504.503 292.325 504.818 291.71 504.998 290.99H511.433C510.893 293.6 509.618 295.685 507.608 297.245C505.628 298.775 503.198 299.54 500.318 299.54ZM526.174 299C524.584 299 523.189 298.76 521.989 298.28C520.819 297.77 519.904 296.945 519.244 295.805C518.584 294.635 518.254 293.045 518.254 291.035V281.405H514.384V276.32H518.254L518.929 270.155H524.329V276.32H530.314V281.405H524.329V291.125C524.329 292.145 524.554 292.85 525.004 293.24C525.454 293.63 526.219 293.825 527.299 293.825H530.269V299H526.174ZM542.626 299.54C540.736 299.54 539.176 299.24 537.946 298.64C536.716 298.01 535.801 297.185 535.201 296.165C534.631 295.115 534.346 293.96 534.346 292.7C534.346 291.32 534.691 290.105 535.381 289.055C536.101 288.005 537.166 287.18 538.576 286.58C540.016 285.98 541.816 285.68 543.976 285.68H549.601C549.601 284.57 549.451 283.655 549.151 282.935C548.851 282.185 548.386 281.63 547.756 281.27C547.126 280.91 546.286 280.73 545.236 280.73C544.096 280.73 543.121 280.985 542.311 281.495C541.531 281.975 541.051 282.725 540.871 283.745H534.976C535.126 282.125 535.651 280.73 536.551 279.56C537.481 278.36 538.696 277.43 540.196 276.77C541.726 276.11 543.421 275.78 545.281 275.78C547.411 275.78 549.256 276.14 550.816 276.86C552.376 277.58 553.576 278.615 554.416 279.965C555.256 281.315 555.676 282.98 555.676 284.96V299H550.546L549.871 295.535C549.541 296.135 549.151 296.675 548.701 297.155C548.251 297.635 547.726 298.055 547.126 298.415C546.526 298.775 545.851 299.045 545.101 299.225C544.351 299.435 543.526 299.54 542.626 299.54ZM544.066 294.86C544.846 294.86 545.536 294.725 546.136 294.455C546.766 294.155 547.306 293.765 547.756 293.285C548.206 292.775 548.551 292.205 548.791 291.575C549.061 290.915 549.241 290.21 549.331 289.46V289.415H544.696C543.766 289.415 543.001 289.535 542.401 289.775C541.831 289.985 541.411 290.3 541.141 290.72C540.871 291.14 540.736 291.62 540.736 292.16C540.736 292.76 540.871 293.255 541.141 293.645C541.411 294.035 541.801 294.335 542.311 294.545C542.821 294.755 543.406 294.86 544.066 294.86ZM570.845 299C569.255 299 567.86 298.76 566.66 298.28C565.49 297.77 564.575 296.945 563.915 295.805C563.255 294.635 562.925 293.045 562.925 291.035V281.405H559.055V276.32H562.925L563.6 270.155H569V276.32H574.985V281.405H569V291.125C569 292.145 569.225 292.85 569.675 293.24C570.125 293.63 570.89 293.825 571.97 293.825H574.94V299H570.845ZM579.783 299V276.32H585.858V299H579.783ZM582.843 273.215C581.763 273.215 580.863 272.9 580.143 272.27C579.453 271.61 579.108 270.785 579.108 269.795C579.108 268.805 579.453 267.995 580.143 267.365C580.863 266.705 581.763 266.375 582.843 266.375C583.953 266.375 584.853 266.705 585.543 267.365C586.263 267.995 586.623 268.805 586.623 269.795C586.623 270.785 586.263 271.61 585.543 272.27C584.853 272.9 583.953 273.215 582.843 273.215ZM597.621 299L589.296 276.32H595.686L601.311 293.285L606.936 276.32H613.281L605.001 299H597.621ZM622.828 299.54C620.938 299.54 619.378 299.24 618.148 298.64C616.918 298.01 616.003 297.185 615.403 296.165C614.833 295.115 614.548 293.96 614.548 292.7C614.548 291.32 614.893 290.105 615.583 289.055C616.303 288.005 617.368 287.18 618.778 286.58C620.218 285.98 622.018 285.68 624.178 285.68H629.803C629.803 284.57 629.653 283.655 629.353 282.935C629.053 282.185 628.588 281.63 627.958 281.27C627.328 280.91 626.488 280.73 625.438 280.73C624.298 280.73 623.323 280.985 622.513 281.495C621.733 281.975 621.253 282.725 621.073 283.745H615.178C615.328 282.125 615.853 280.73 616.753 279.56C617.683 278.36 618.898 277.43 620.398 276.77C621.928 276.11 623.623 275.78 625.483 275.78C627.613 275.78 629.458 276.14 631.018 276.86C632.578 277.58 633.778 278.615 634.618 279.965C635.458 281.315 635.878 282.98 635.878 284.96V299H630.748L630.073 295.535C629.743 296.135 629.353 296.675 628.903 297.155C628.453 297.635 627.928 298.055 627.328 298.415C626.728 298.775 626.053 299.045 625.303 299.225C624.553 299.435 623.728 299.54 622.828 299.54ZM624.268 294.86C625.048 294.86 625.738 294.725 626.338 294.455C626.968 294.155 627.508 293.765 627.958 293.285C628.408 292.775 628.753 292.205 628.993 291.575C629.263 290.915 629.443 290.21 629.533 289.46V289.415H624.898C623.968 289.415 623.203 289.535 622.603 289.775C622.033 289.985 621.613 290.3 621.343 290.72C621.073 291.14 620.938 291.62 620.938 292.16C620.938 292.76 621.073 293.255 621.343 293.645C621.613 294.035 622.003 294.335 622.513 294.545C623.023 294.755 623.608 294.86 624.268 294.86ZM650.366 299.54C648.296 299.54 646.496 299.21 644.966 298.55C643.436 297.89 642.236 296.975 641.366 295.805C640.496 294.635 640.001 293.315 639.881 291.845H645.911C646.061 292.415 646.316 292.94 646.676 293.42C647.036 293.87 647.516 294.23 648.116 294.5C648.716 294.77 649.436 294.905 650.276 294.905C651.086 294.905 651.746 294.8 652.256 294.59C652.766 294.35 653.141 294.035 653.381 293.645C653.651 293.255 653.786 292.85 653.786 292.43C653.786 291.8 653.606 291.32 653.246 290.99C652.886 290.63 652.361 290.345 651.671 290.135C650.981 289.925 650.141 289.715 649.151 289.505C648.071 289.295 647.006 289.04 645.956 288.74C644.936 288.41 644.021 288.005 643.211 287.525C642.401 287.045 641.756 286.43 641.276 285.68C640.796 284.93 640.556 284 640.556 282.89C640.556 281.54 640.916 280.34 641.636 279.29C642.356 278.21 643.406 277.355 644.786 276.725C646.166 276.095 647.831 275.78 649.781 275.78C652.511 275.78 654.671 276.395 656.261 277.625C657.851 278.855 658.796 280.55 659.096 282.71H653.381C653.201 282.02 652.796 281.48 652.166 281.09C651.566 280.67 650.756 280.46 649.736 280.46C648.656 280.46 647.831 280.655 647.261 281.045C646.691 281.435 646.406 281.945 646.406 282.575C646.406 282.995 646.586 283.37 646.946 283.7C647.336 284.03 647.876 284.315 648.566 284.555C649.256 284.765 650.096 284.975 651.086 285.185C652.826 285.545 654.356 285.965 655.676 286.445C656.996 286.895 658.031 287.555 658.781 288.425C659.531 289.265 659.906 290.495 659.906 292.115C659.906 293.555 659.516 294.845 658.736 295.985C657.956 297.095 656.846 297.965 655.406 298.595C653.996 299.225 652.316 299.54 650.366 299.54Z" fill="white"/>
<path d="M226.825 364V346.5H232.8C234.2 346.5 235.35 346.733 236.25 347.2C237.15 347.667 237.817 348.292 238.25 349.075C238.683 349.858 238.9 350.75 238.9 351.75C238.9 352.7 238.683 353.575 238.25 354.375C237.833 355.158 237.175 355.792 236.275 356.275C235.375 356.742 234.217 356.975 232.8 356.975H229.325V364H226.825ZM229.325 354.9H232.7C234.017 354.9 234.95 354.617 235.5 354.05C236.067 353.467 236.35 352.7 236.35 351.75C236.35 350.733 236.067 349.95 235.5 349.4C234.95 348.85 234.017 348.575 232.7 348.575H229.325V354.9ZM241.221 364V351.4H243.471L243.696 353.775C243.979 353.208 244.346 352.733 244.796 352.35C245.246 351.95 245.771 351.642 246.371 351.425C246.987 351.208 247.687 351.1 248.471 351.1V353.75H247.571C247.054 353.75 246.562 353.817 246.096 353.95C245.629 354.067 245.212 354.275 244.846 354.575C244.496 354.875 244.221 355.283 244.021 355.8C243.821 356.317 243.721 356.958 243.721 357.725V364H241.221ZM255.9 364.3C254.717 364.3 253.65 364.025 252.7 363.475C251.767 362.925 251.025 362.158 250.475 361.175C249.942 360.175 249.675 359.025 249.675 357.725C249.675 356.392 249.95 355.233 250.5 354.25C251.05 353.25 251.8 352.475 252.75 351.925C253.7 351.375 254.767 351.1 255.95 351.1C257.15 351.1 258.217 351.375 259.15 351.925C260.084 352.475 260.817 353.242 261.35 354.225C261.9 355.208 262.175 356.367 262.175 357.7C262.175 359.033 261.9 360.192 261.35 361.175C260.817 362.158 260.075 362.925 259.125 363.475C258.175 364.025 257.1 364.3 255.9 364.3ZM255.9 362.15C256.584 362.15 257.2 361.983 257.75 361.65C258.317 361.317 258.767 360.825 259.1 360.175C259.45 359.508 259.625 358.683 259.625 357.7C259.625 356.717 259.459 355.9 259.125 355.25C258.792 354.583 258.342 354.083 257.775 353.75C257.225 353.417 256.617 353.25 255.95 353.25C255.284 353.25 254.667 353.417 254.1 353.75C253.534 354.083 253.075 354.583 252.725 355.25C252.392 355.9 252.225 356.717 252.225 357.7C252.225 358.683 252.392 359.508 252.725 360.175C253.075 360.825 253.525 361.317 254.075 361.65C254.642 361.983 255.25 362.15 255.9 362.15ZM270.466 364.3C269.266 364.3 268.208 364.017 267.291 363.45C266.374 362.867 265.658 362.083 265.141 361.1C264.641 360.1 264.391 358.967 264.391 357.7C264.391 356.417 264.641 355.283 265.141 354.3C265.658 353.317 266.374 352.542 267.291 351.975C268.224 351.392 269.291 351.1 270.491 351.1C271.474 351.1 272.341 351.3 273.091 351.7C273.841 352.083 274.424 352.633 274.841 353.35V346H277.341V364H275.091L274.841 362.05C274.591 362.433 274.266 362.8 273.866 363.15C273.466 363.483 272.983 363.758 272.416 363.975C271.849 364.192 271.199 364.3 270.466 364.3ZM270.866 362.125C271.649 362.125 272.341 361.942 272.941 361.575C273.541 361.208 273.999 360.692 274.316 360.025C274.649 359.358 274.816 358.583 274.816 357.7C274.816 356.817 274.649 356.05 274.316 355.4C273.999 354.733 273.541 354.217 272.941 353.85C272.341 353.467 271.649 353.275 270.866 353.275C270.116 353.275 269.441 353.467 268.841 353.85C268.241 354.217 267.774 354.733 267.441 355.4C267.108 356.05 266.941 356.817 266.941 357.7C266.941 358.583 267.108 359.358 267.441 360.025C267.774 360.692 268.241 361.208 268.841 361.575C269.441 361.942 270.116 362.125 270.866 362.125ZM285.135 364.3C284.151 364.3 283.293 364.1 282.56 363.7C281.843 363.3 281.285 362.7 280.885 361.9C280.501 361.1 280.31 360.092 280.31 358.875V351.4H282.81V358.6C282.81 359.783 283.068 360.675 283.585 361.275C284.101 361.875 284.843 362.175 285.81 362.175C286.46 362.175 287.043 362.017 287.56 361.7C288.093 361.383 288.51 360.925 288.81 360.325C289.11 359.725 289.26 358.992 289.26 358.125V351.4H291.76V364H289.535L289.36 361.85C288.976 362.617 288.418 363.217 287.685 363.65C286.951 364.083 286.101 364.3 285.135 364.3ZM300.757 364.3C299.541 364.3 298.457 364.025 297.507 363.475C296.557 362.908 295.807 362.133 295.257 361.15C294.724 360.167 294.457 359.025 294.457 357.725C294.457 356.408 294.724 355.258 295.257 354.275C295.807 353.275 296.557 352.5 297.507 351.95C298.457 351.383 299.541 351.1 300.757 351.1C302.291 351.1 303.574 351.5 304.607 352.3C305.641 353.1 306.299 354.183 306.582 355.55H303.982C303.816 354.817 303.432 354.25 302.832 353.85C302.249 353.45 301.549 353.25 300.732 353.25C300.066 353.25 299.449 353.425 298.882 353.775C298.316 354.108 297.857 354.608 297.507 355.275C297.174 355.925 297.007 356.733 297.007 357.7C297.007 358.417 297.107 359.058 297.307 359.625C297.507 360.175 297.774 360.642 298.107 361.025C298.457 361.408 298.857 361.7 299.307 361.9C299.757 362.083 300.232 362.175 300.732 362.175C301.282 362.175 301.774 362.092 302.207 361.925C302.657 361.742 303.032 361.475 303.332 361.125C303.649 360.775 303.866 360.358 303.982 359.875H306.582C306.299 361.208 305.641 362.283 304.607 363.1C303.574 363.9 302.291 364.3 300.757 364.3ZM314.189 364C313.389 364 312.697 363.875 312.114 363.625C311.531 363.375 311.081 362.958 310.764 362.375C310.447 361.792 310.289 361 310.289 360V353.525H308.114V351.4H310.289L310.589 348.25H312.789V351.4H316.364V353.525H312.789V360.025C312.789 360.742 312.939 361.233 313.239 361.5C313.539 361.75 314.056 361.875 314.789 361.875H316.239V364H314.189ZM324.279 364.3C323.096 364.3 322.029 364.025 321.079 363.475C320.146 362.925 319.404 362.158 318.854 361.175C318.321 360.175 318.054 359.025 318.054 357.725C318.054 356.392 318.329 355.233 318.879 354.25C319.429 353.25 320.179 352.475 321.129 351.925C322.079 351.375 323.146 351.1 324.329 351.1C325.529 351.1 326.596 351.375 327.529 351.925C328.462 352.475 329.196 353.242 329.729 354.225C330.279 355.208 330.554 356.367 330.554 357.7C330.554 359.033 330.279 360.192 329.729 361.175C329.196 362.158 328.454 362.925 327.504 363.475C326.554 364.025 325.479 364.3 324.279 364.3ZM324.279 362.15C324.962 362.15 325.579 361.983 326.129 361.65C326.696 361.317 327.146 360.825 327.479 360.175C327.829 359.508 328.004 358.683 328.004 357.7C328.004 356.717 327.837 355.9 327.504 355.25C327.171 354.583 326.721 354.083 326.154 353.75C325.604 353.417 324.996 353.25 324.329 353.25C323.662 353.25 323.046 353.417 322.479 353.75C321.912 354.083 321.454 354.583 321.104 355.25C320.771 355.9 320.604 356.717 320.604 357.7C320.604 358.683 320.771 359.508 321.104 360.175C321.454 360.825 321.904 361.317 322.454 361.65C323.021 361.983 323.629 362.15 324.279 362.15ZM338.12 364.3C337.053 364.3 336.12 364.125 335.32 363.775C334.52 363.425 333.887 362.933 333.42 362.3C332.953 361.667 332.67 360.925 332.57 360.075H335.12C335.203 360.475 335.362 360.842 335.595 361.175C335.845 361.508 336.178 361.775 336.595 361.975C337.028 362.175 337.537 362.275 338.12 362.275C338.67 362.275 339.12 362.2 339.47 362.05C339.837 361.883 340.103 361.667 340.27 361.4C340.437 361.117 340.52 360.817 340.52 360.5C340.52 360.033 340.403 359.683 340.17 359.45C339.953 359.2 339.62 359.008 339.17 358.875C338.737 358.725 338.212 358.592 337.595 358.475C337.012 358.375 336.445 358.242 335.895 358.075C335.362 357.892 334.878 357.667 334.445 357.4C334.028 357.133 333.695 356.8 333.445 356.4C333.195 355.983 333.07 355.475 333.07 354.875C333.07 354.158 333.262 353.517 333.645 352.95C334.028 352.367 334.57 351.917 335.27 351.6C335.987 351.267 336.828 351.1 337.795 351.1C339.195 351.1 340.32 351.433 341.17 352.1C342.02 352.767 342.52 353.708 342.67 354.925H340.245C340.178 354.358 339.928 353.925 339.495 353.625C339.062 353.308 338.487 353.15 337.77 353.15C337.053 353.15 336.503 353.292 336.12 353.575C335.737 353.858 335.545 354.233 335.545 354.7C335.545 355 335.653 355.267 335.87 355.5C336.087 355.733 336.403 355.933 336.82 356.1C337.253 356.25 337.778 356.392 338.395 356.525C339.278 356.692 340.07 356.9 340.77 357.15C341.47 357.4 342.028 357.767 342.445 358.25C342.862 358.733 343.07 359.425 343.07 360.325C343.087 361.108 342.887 361.8 342.47 362.4C342.07 363 341.495 363.467 340.745 363.8C340.012 364.133 339.137 364.3 338.12 364.3ZM361.885 369.5V362.05C361.485 362.683 360.918 363.217 360.185 363.65C359.468 364.083 358.585 364.3 357.535 364.3C356.335 364.3 355.268 364.017 354.335 363.45C353.418 362.867 352.702 362.083 352.185 361.1C351.685 360.1 351.435 358.967 351.435 357.7C351.435 356.433 351.693 355.308 352.21 354.325C352.727 353.325 353.443 352.542 354.36 351.975C355.277 351.392 356.335 351.1 357.535 351.1C358.218 351.1 358.835 351.2 359.385 351.4C359.952 351.583 360.443 351.842 360.86 352.175C361.277 352.508 361.618 352.9 361.885 353.35L362.135 351.4H364.385V369.5H361.885ZM357.91 362.125C358.693 362.125 359.385 361.942 359.985 361.575C360.585 361.208 361.043 360.692 361.36 360.025C361.693 359.358 361.86 358.583 361.86 357.7C361.86 356.817 361.693 356.05 361.36 355.4C361.043 354.733 360.585 354.217 359.985 353.85C359.385 353.467 358.693 353.275 357.91 353.275C357.16 353.275 356.485 353.467 355.885 353.85C355.285 354.217 354.818 354.733 354.485 355.4C354.152 356.05 353.985 356.817 353.985 357.7C353.985 358.583 354.152 359.358 354.485 360.025C354.818 360.692 355.285 361.208 355.885 361.575C356.485 361.942 357.16 362.125 357.91 362.125ZM372.179 364.3C371.195 364.3 370.337 364.1 369.604 363.7C368.887 363.3 368.329 362.7 367.929 361.9C367.545 361.1 367.354 360.092 367.354 358.875V351.4H369.854V358.6C369.854 359.783 370.112 360.675 370.629 361.275C371.145 361.875 371.887 362.175 372.854 362.175C373.504 362.175 374.087 362.017 374.604 361.7C375.137 361.383 375.554 360.925 375.854 360.325C376.154 359.725 376.304 358.992 376.304 358.125V351.4H378.804V364H376.579L376.404 361.85C376.02 362.617 375.462 363.217 374.729 363.65C373.995 364.083 373.145 364.3 372.179 364.3ZM387.676 364.3C386.476 364.3 385.41 364.025 384.476 363.475C383.543 362.925 382.81 362.158 382.276 361.175C381.76 360.192 381.501 359.05 381.501 357.75C381.501 356.417 381.76 355.258 382.276 354.275C382.81 353.275 383.543 352.5 384.476 351.95C385.41 351.383 386.493 351.1 387.726 351.1C388.96 351.1 390.018 351.375 390.901 351.925C391.785 352.475 392.468 353.208 392.951 354.125C393.435 355.025 393.676 356.025 393.676 357.125C393.676 357.292 393.668 357.475 393.651 357.675C393.651 357.858 393.643 358.067 393.626 358.3H383.326V356.525H391.176C391.126 355.475 390.776 354.658 390.126 354.075C389.476 353.475 388.668 353.175 387.701 353.175C387.018 353.175 386.393 353.333 385.826 353.65C385.26 353.95 384.801 354.4 384.451 355C384.118 355.583 383.951 356.325 383.951 357.225V357.925C383.951 358.858 384.118 359.65 384.451 360.3C384.801 360.933 385.26 361.417 385.826 361.75C386.393 362.067 387.01 362.225 387.676 362.225C388.476 362.225 389.135 362.05 389.651 361.7C390.168 361.35 390.551 360.875 390.801 360.275H393.301C393.085 361.042 392.718 361.733 392.201 362.35C391.685 362.95 391.043 363.425 390.276 363.775C389.526 364.125 388.66 364.3 387.676 364.3ZM408.175 364.3C406.959 364.3 405.875 364.025 404.925 363.475C403.975 362.908 403.225 362.133 402.675 361.15C402.142 360.167 401.875 359.025 401.875 357.725C401.875 356.408 402.142 355.258 402.675 354.275C403.225 353.275 403.975 352.5 404.925 351.95C405.875 351.383 406.959 351.1 408.175 351.1C409.709 351.1 410.992 351.5 412.025 352.3C413.059 353.1 413.717 354.183 414 355.55H411.4C411.234 354.817 410.85 354.25 410.25 353.85C409.667 353.45 408.967 353.25 408.15 353.25C407.484 353.25 406.867 353.425 406.3 353.775C405.734 354.108 405.275 354.608 404.925 355.275C404.592 355.925 404.425 356.733 404.425 357.7C404.425 358.417 404.525 359.058 404.725 359.625C404.925 360.175 405.192 360.642 405.525 361.025C405.875 361.408 406.275 361.7 406.725 361.9C407.175 362.083 407.65 362.175 408.15 362.175C408.7 362.175 409.192 362.092 409.625 361.925C410.075 361.742 410.45 361.475 410.75 361.125C411.067 360.775 411.284 360.358 411.4 359.875H414C413.717 361.208 413.059 362.283 412.025 363.1C410.992 363.9 409.709 364.3 408.175 364.3ZM422.426 364.3C421.242 364.3 420.176 364.025 419.226 363.475C418.292 362.925 417.551 362.158 417.001 361.175C416.467 360.175 416.201 359.025 416.201 357.725C416.201 356.392 416.476 355.233 417.026 354.25C417.576 353.25 418.326 352.475 419.276 351.925C420.226 351.375 421.292 351.1 422.476 351.1C423.676 351.1 424.742 351.375 425.676 351.925C426.609 352.475 427.342 353.242 427.876 354.225C428.426 355.208 428.701 356.367 428.701 357.7C428.701 359.033 428.426 360.192 427.876 361.175C427.342 362.158 426.601 362.925 425.651 363.475C424.701 364.025 423.626 364.3 422.426 364.3ZM422.426 362.15C423.109 362.15 423.726 361.983 424.276 361.65C424.842 361.317 425.292 360.825 425.626 360.175C425.976 359.508 426.151 358.683 426.151 357.7C426.151 356.717 425.984 355.9 425.651 355.25C425.317 354.583 424.867 354.083 424.301 353.75C423.751 353.417 423.142 353.25 422.476 353.25C421.809 353.25 421.192 353.417 420.626 353.75C420.059 354.083 419.601 354.583 419.251 355.25C418.917 355.9 418.751 356.717 418.751 357.7C418.751 358.683 418.917 359.508 419.251 360.175C419.601 360.825 420.051 361.317 420.601 361.65C421.167 361.983 421.776 362.15 422.426 362.15ZM431.391 364V351.4H433.641L433.791 353.55C434.191 352.8 434.758 352.208 435.491 351.775C436.225 351.325 437.066 351.1 438.016 351.1C439.016 351.1 439.875 351.3 440.591 351.7C441.308 352.1 441.866 352.708 442.266 353.525C442.666 354.325 442.866 355.333 442.866 356.55V364H440.366V356.8C440.366 355.633 440.108 354.75 439.591 354.15C439.075 353.55 438.325 353.25 437.341 353.25C436.691 353.25 436.108 353.408 435.591 353.725C435.075 354.025 434.658 354.475 434.341 355.075C434.041 355.675 433.891 356.408 433.891 357.275V364H431.391ZM452.689 364.3C452.006 364.3 451.381 364.2 450.814 364C450.264 363.817 449.781 363.558 449.364 363.225C448.948 362.892 448.598 362.508 448.314 362.075L448.064 364H445.814V346H448.314V353.375C448.714 352.742 449.273 352.208 449.989 351.775C450.723 351.325 451.623 351.1 452.689 351.1C453.889 351.1 454.948 351.392 455.864 351.975C456.781 352.542 457.489 353.325 457.989 354.325C458.506 355.308 458.764 356.442 458.764 357.725C458.764 358.975 458.506 360.1 457.989 361.1C457.489 362.1 456.781 362.883 455.864 363.45C454.948 364.017 453.889 364.3 452.689 364.3ZM452.289 362.125C453.056 362.125 453.731 361.942 454.314 361.575C454.914 361.208 455.381 360.692 455.714 360.025C456.064 359.358 456.239 358.583 456.239 357.7C456.239 356.817 456.064 356.05 455.714 355.4C455.381 354.733 454.914 354.217 454.314 353.85C453.731 353.467 453.056 353.275 452.289 353.275C451.506 353.275 450.814 353.467 450.214 353.85C449.631 354.217 449.173 354.733 448.839 355.4C448.506 356.05 448.339 356.817 448.339 357.7C448.339 358.583 448.506 359.358 448.839 360.025C449.173 360.692 449.631 361.208 450.214 361.575C450.814 361.942 451.506 362.125 452.289 362.125ZM461.608 364V351.4H464.108V364H461.608ZM462.883 349.025C462.4 349.025 462 348.875 461.683 348.575C461.383 348.275 461.233 347.892 461.233 347.425C461.233 346.975 461.383 346.608 461.683 346.325C462 346.025 462.4 345.875 462.883 345.875C463.35 345.875 463.742 346.025 464.058 346.325C464.375 346.608 464.533 346.975 464.533 347.425C464.533 347.892 464.375 348.275 464.058 348.575C463.742 348.875 463.35 349.025 462.883 349.025ZM467.433 364V351.4H469.683L469.833 353.55C470.233 352.8 470.8 352.208 471.533 351.775C472.267 351.325 473.108 351.1 474.058 351.1C475.058 351.1 475.917 351.3 476.633 351.7C477.35 352.1 477.908 352.708 478.308 353.525C478.708 354.325 478.908 355.333 478.908 356.55V364H476.408V356.8C476.408 355.633 476.15 354.75 475.633 354.15C475.117 353.55 474.367 353.25 473.383 353.25C472.733 353.25 472.15 353.408 471.633 353.725C471.117 354.025 470.7 354.475 470.383 355.075C470.083 355.675 469.933 356.408 469.933 357.275V364H467.433ZM486.031 364.3C484.998 364.3 484.14 364.125 483.456 363.775C482.773 363.425 482.265 362.958 481.931 362.375C481.598 361.775 481.431 361.133 481.431 360.45C481.431 359.617 481.648 358.908 482.081 358.325C482.515 357.725 483.131 357.267 483.931 356.95C484.731 356.633 485.69 356.475 486.806 356.475H490.081C490.081 355.742 489.973 355.133 489.756 354.65C489.54 354.167 489.215 353.808 488.781 353.575C488.365 353.325 487.831 353.2 487.181 353.2C486.431 353.2 485.79 353.383 485.256 353.75C484.723 354.1 484.39 354.625 484.256 355.325H481.756C481.856 354.442 482.156 353.692 482.656 353.075C483.173 352.442 483.831 351.958 484.631 351.625C485.431 351.275 486.281 351.1 487.181 351.1C488.365 351.1 489.356 351.308 490.156 351.725C490.956 352.142 491.556 352.733 491.956 353.5C492.373 354.25 492.581 355.15 492.581 356.2V364H490.406L490.206 361.875C490.023 362.208 489.806 362.525 489.556 362.825C489.306 363.125 489.006 363.383 488.656 363.6C488.323 363.817 487.931 363.983 487.481 364.1C487.048 364.233 486.565 364.3 486.031 364.3ZM486.506 362.275C487.04 362.275 487.523 362.167 487.956 361.95C488.39 361.733 488.756 361.442 489.056 361.075C489.373 360.692 489.606 360.267 489.756 359.8C489.923 359.317 490.015 358.825 490.031 358.325V358.25H487.056C486.34 358.25 485.756 358.342 485.306 358.525C484.873 358.692 484.556 358.925 484.356 359.225C484.156 359.525 484.056 359.875 484.056 360.275C484.056 360.692 484.148 361.05 484.331 361.35C484.531 361.633 484.815 361.858 485.181 362.025C485.548 362.192 485.99 362.275 486.506 362.275ZM495.522 364V351.4H497.772L497.922 353.55C498.322 352.8 498.889 352.208 499.622 351.775C500.356 351.325 501.197 351.1 502.147 351.1C503.147 351.1 504.006 351.3 504.722 351.7C505.439 352.1 505.997 352.708 506.397 353.525C506.797 354.325 506.997 355.333 506.997 356.55V364H504.497V356.8C504.497 355.633 504.239 354.75 503.722 354.15C503.206 353.55 502.456 353.25 501.472 353.25C500.822 353.25 500.239 353.408 499.722 353.725C499.206 354.025 498.789 354.475 498.472 355.075C498.172 355.675 498.022 356.408 498.022 357.275V364H495.522ZM522.967 364.3C522.283 364.3 521.658 364.2 521.092 364C520.542 363.817 520.058 363.558 519.642 363.225C519.225 362.892 518.875 362.508 518.592 362.075L518.342 364H516.092V346H518.592V353.375C518.992 352.742 519.55 352.208 520.267 351.775C521 351.325 521.9 351.1 522.967 351.1C524.167 351.1 525.225 351.392 526.142 351.975C527.058 352.542 527.767 353.325 528.267 354.325C528.783 355.308 529.042 356.442 529.042 357.725C529.042 358.975 528.783 360.1 528.267 361.1C527.767 362.1 527.058 362.883 526.142 363.45C525.225 364.017 524.167 364.3 522.967 364.3ZM522.567 362.125C523.333 362.125 524.008 361.942 524.592 361.575C525.192 361.208 525.658 360.692 525.992 360.025C526.342 359.358 526.517 358.583 526.517 357.7C526.517 356.817 526.342 356.05 525.992 355.4C525.658 354.733 525.192 354.217 524.592 353.85C524.008 353.467 523.333 353.275 522.567 353.275C521.783 353.275 521.092 353.467 520.492 353.85C519.908 354.217 519.45 354.733 519.117 355.4C518.783 356.05 518.617 356.817 518.617 357.7C518.617 358.583 518.783 359.358 519.117 360.025C519.45 360.692 519.908 361.208 520.492 361.575C521.092 361.942 521.783 362.125 522.567 362.125ZM536.336 364.3C535.352 364.3 534.494 364.1 533.761 363.7C533.044 363.3 532.486 362.7 532.086 361.9C531.702 361.1 531.511 360.092 531.511 358.875V351.4H534.011V358.6C534.011 359.783 534.269 360.675 534.786 361.275C535.302 361.875 536.044 362.175 537.011 362.175C537.661 362.175 538.244 362.017 538.761 361.7C539.294 361.383 539.711 360.925 540.011 360.325C540.311 359.725 540.461 358.992 540.461 358.125V351.4H542.961V364H540.736L540.561 361.85C540.177 362.617 539.619 363.217 538.886 363.65C538.152 364.083 537.302 364.3 536.336 364.3ZM551.834 364.3C550.634 364.3 549.567 364.025 548.634 363.475C547.7 362.925 546.967 362.158 546.434 361.175C545.917 360.192 545.659 359.05 545.659 357.75C545.659 356.417 545.917 355.258 546.434 354.275C546.967 353.275 547.7 352.5 548.634 351.95C549.567 351.383 550.65 351.1 551.884 351.1C553.117 351.1 554.175 351.375 555.059 351.925C555.942 352.475 556.625 353.208 557.109 354.125C557.592 355.025 557.834 356.025 557.834 357.125C557.834 357.292 557.825 357.475 557.809 357.675C557.809 357.858 557.8 358.067 557.784 358.3H547.484V356.525H555.334C555.284 355.475 554.934 354.658 554.284 354.075C553.634 353.475 552.825 353.175 551.859 353.175C551.175 353.175 550.55 353.333 549.984 353.65C549.417 353.95 548.959 354.4 548.609 355C548.275 355.583 548.109 356.325 548.109 357.225V357.925C548.109 358.858 548.275 359.65 548.609 360.3C548.959 360.933 549.417 361.417 549.984 361.75C550.55 362.067 551.167 362.225 551.834 362.225C552.634 362.225 553.292 362.05 553.809 361.7C554.325 361.35 554.709 360.875 554.959 360.275H557.459C557.242 361.042 556.875 361.733 556.359 362.35C555.842 362.95 555.2 363.425 554.434 363.775C553.684 364.125 552.817 364.3 551.834 364.3ZM560.361 364V351.4H562.611L562.761 353.55C563.161 352.8 563.728 352.208 564.461 351.775C565.194 351.325 566.036 351.1 566.986 351.1C567.986 351.1 568.844 351.3 569.561 351.7C570.278 352.1 570.836 352.708 571.236 353.525C571.636 354.325 571.836 355.333 571.836 356.55V364H569.336V356.8C569.336 355.633 569.078 354.75 568.561 354.15C568.044 353.55 567.294 353.25 566.311 353.25C565.661 353.25 565.078 353.408 564.561 353.725C564.044 354.025 563.628 354.475 563.311 355.075C563.011 355.675 562.861 356.408 562.861 357.275V364H560.361ZM586.53 364.3C585.33 364.3 584.272 364.017 583.355 363.45C582.439 362.867 581.722 362.083 581.205 361.1C580.705 360.1 580.455 358.967 580.455 357.7C580.455 356.417 580.705 355.283 581.205 354.3C581.722 353.317 582.439 352.542 583.355 351.975C584.289 351.392 585.355 351.1 586.555 351.1C587.539 351.1 588.405 351.3 589.155 351.7C589.905 352.083 590.489 352.633 590.905 353.35V346H593.405V364H591.155L590.905 362.05C590.655 362.433 590.33 362.8 589.93 363.15C589.53 363.483 589.047 363.758 588.48 363.975C587.914 364.192 587.264 364.3 586.53 364.3ZM586.93 362.125C587.714 362.125 588.405 361.942 589.005 361.575C589.605 361.208 590.064 360.692 590.38 360.025C590.714 359.358 590.88 358.583 590.88 357.7C590.88 356.817 590.714 356.05 590.38 355.4C590.064 354.733 589.605 354.217 589.005 353.85C588.405 353.467 587.714 353.275 586.93 353.275C586.18 353.275 585.505 353.467 584.905 353.85C584.305 354.217 583.839 354.733 583.505 355.4C583.172 356.05 583.005 356.817 583.005 357.7C583.005 358.583 583.172 359.358 583.505 360.025C583.839 360.692 584.305 361.208 584.905 361.575C585.505 361.942 586.18 362.125 586.93 362.125ZM596.749 364V351.4H599.249V364H596.749ZM598.024 349.025C597.541 349.025 597.141 348.875 596.824 348.575C596.524 348.275 596.374 347.892 596.374 347.425C596.374 346.975 596.524 346.608 596.824 346.325C597.141 346.025 597.541 345.875 598.024 345.875C598.491 345.875 598.882 346.025 599.199 346.325C599.516 346.608 599.674 346.975 599.674 347.425C599.674 347.892 599.516 348.275 599.199 348.575C598.882 348.875 598.491 349.025 598.024 349.025ZM607.449 364.3C606.382 364.3 605.449 364.125 604.649 363.775C603.849 363.425 603.216 362.933 602.749 362.3C602.282 361.667 601.999 360.925 601.899 360.075H604.449C604.532 360.475 604.691 360.842 604.924 361.175C605.174 361.508 605.507 361.775 605.924 361.975C606.357 362.175 606.866 362.275 607.449 362.275C607.999 362.275 608.449 362.2 608.799 362.05C609.166 361.883 609.432 361.667 609.599 361.4C609.766 361.117 609.849 360.817 609.849 360.5C609.849 360.033 609.732 359.683 609.499 359.45C609.282 359.2 608.949 359.008 608.499 358.875C608.066 358.725 607.541 358.592 606.924 358.475C606.341 358.375 605.774 358.242 605.224 358.075C604.691 357.892 604.207 357.667 603.774 357.4C603.357 357.133 603.024 356.8 602.774 356.4C602.524 355.983 602.399 355.475 602.399 354.875C602.399 354.158 602.591 353.517 602.974 352.95C603.357 352.367 603.899 351.917 604.599 351.6C605.316 351.267 606.157 351.1 607.124 351.1C608.524 351.1 609.649 351.433 610.499 352.1C611.349 352.767 611.849 353.708 611.999 354.925H609.574C609.507 354.358 609.257 353.925 608.824 353.625C608.391 353.308 607.816 353.15 607.099 353.15C606.382 353.15 605.832 353.292 605.449 353.575C605.066 353.858 604.874 354.233 604.874 354.7C604.874 355 604.982 355.267 605.199 355.5C605.416 355.733 605.732 355.933 606.149 356.1C606.582 356.25 607.107 356.392 607.724 356.525C608.607 356.692 609.399 356.9 610.099 357.15C610.799 357.4 611.357 357.767 611.774 358.25C612.191 358.733 612.399 359.425 612.399 360.325C612.416 361.108 612.216 361.8 611.799 362.4C611.399 363 610.824 363.467 610.074 363.8C609.341 364.133 608.466 364.3 607.449 364.3ZM620.793 364.3C619.593 364.3 618.526 364.025 617.593 363.475C616.659 362.925 615.926 362.158 615.393 361.175C614.876 360.192 614.618 359.05 614.618 357.75C614.618 356.417 614.876 355.258 615.393 354.275C615.926 353.275 616.659 352.5 617.593 351.95C618.526 351.383 619.609 351.1 620.843 351.1C622.076 351.1 623.134 351.375 624.018 351.925C624.901 352.475 625.584 353.208 626.068 354.125C626.551 355.025 626.793 356.025 626.793 357.125C626.793 357.292 626.784 357.475 626.768 357.675C626.768 357.858 626.759 358.067 626.743 358.3H616.443V356.525H624.293C624.243 355.475 623.893 354.658 623.243 354.075C622.593 353.475 621.784 353.175 620.818 353.175C620.134 353.175 619.509 353.333 618.943 353.65C618.376 353.95 617.918 354.4 617.568 355C617.234 355.583 617.068 356.325 617.068 357.225V357.925C617.068 358.858 617.234 359.65 617.568 360.3C617.918 360.933 618.376 361.417 618.943 361.75C619.509 362.067 620.126 362.225 620.793 362.225C621.593 362.225 622.251 362.05 622.768 361.7C623.284 361.35 623.668 360.875 623.918 360.275H626.418C626.201 361.042 625.834 361.733 625.318 362.35C624.801 362.95 624.159 363.425 623.393 363.775C622.643 364.125 621.776 364.3 620.793 364.3ZM629.32 364V351.4H631.57L631.72 353.55C632.12 352.8 632.687 352.208 633.42 351.775C634.153 351.325 634.995 351.1 635.945 351.1C636.945 351.1 637.803 351.3 638.52 351.7C639.237 352.1 639.795 352.708 640.195 353.525C640.595 354.325 640.795 355.333 640.795 356.55V364H638.295V356.8C638.295 355.633 638.037 354.75 637.52 354.15C637.003 353.55 636.253 353.25 635.27 353.25C634.62 353.25 634.037 353.408 633.52 353.725C633.003 354.025 632.587 354.475 632.27 355.075C631.97 355.675 631.82 356.408 631.82 357.275V364H629.32ZM636.82 349.75C636.37 349.75 635.987 349.658 635.67 349.475C635.353 349.275 635.062 349.083 634.795 348.9C634.528 348.7 634.22 348.6 633.87 348.6C633.603 348.6 633.37 348.692 633.17 348.875C632.987 349.058 632.87 349.342 632.82 349.725H631.42C631.553 348.808 631.845 348.125 632.295 347.675C632.762 347.208 633.328 346.975 633.995 346.975C634.445 346.975 634.82 347.075 635.12 347.275C635.437 347.458 635.728 347.65 635.995 347.85C636.278 348.05 636.595 348.15 636.945 348.15C637.228 348.15 637.462 348.058 637.645 347.875C637.845 347.675 637.97 347.392 638.02 347.025H639.42C639.303 347.925 639.012 348.608 638.545 349.075C638.078 349.525 637.503 349.75 636.82 349.75ZM649.493 364.3C648.31 364.3 647.243 364.025 646.293 363.475C645.36 362.925 644.618 362.158 644.068 361.175C643.535 360.175 643.268 359.025 643.268 357.725C643.268 356.392 643.543 355.233 644.093 354.25C644.643 353.25 645.393 352.475 646.343 351.925C647.293 351.375 648.36 351.1 649.543 351.1C650.743 351.1 651.81 351.375 652.743 351.925C653.676 352.475 654.41 353.242 654.943 354.225C655.493 355.208 655.768 356.367 655.768 357.7C655.768 359.033 655.493 360.192 654.943 361.175C654.41 362.158 653.668 362.925 652.718 363.475C651.768 364.025 650.693 364.3 649.493 364.3ZM649.493 362.15C650.176 362.15 650.793 361.983 651.343 361.65C651.91 361.317 652.36 360.825 652.693 360.175C653.043 359.508 653.218 358.683 653.218 357.7C653.218 356.717 653.051 355.9 652.718 355.25C652.385 354.583 651.935 354.083 651.368 353.75C650.818 353.417 650.21 353.25 649.543 353.25C648.876 353.25 648.26 353.417 647.693 353.75C647.126 354.083 646.668 354.583 646.318 355.25C645.985 355.9 645.818 356.717 645.818 357.7C645.818 358.683 645.985 359.508 646.318 360.175C646.668 360.825 647.118 361.317 647.668 361.65C648.235 361.983 648.843 362.15 649.493 362.15ZM232.525 397.3C231.308 397.3 230.225 397.025 229.275 396.475C228.325 395.908 227.575 395.133 227.025 394.15C226.492 393.167 226.225 392.025 226.225 390.725C226.225 389.408 226.492 388.258 227.025 387.275C227.575 386.275 228.325 385.5 229.275 384.95C230.225 384.383 231.308 384.1 232.525 384.1C234.058 384.1 235.342 384.5 236.375 385.3C237.408 386.1 238.067 387.183 238.35 388.55H235.75C235.583 387.817 235.2 387.25 234.6 386.85C234.017 386.45 233.317 386.25 232.5 386.25C231.833 386.25 231.217 386.425 230.65 386.775C230.083 387.108 229.625 387.608 229.275 388.275C228.942 388.925 228.775 389.733 228.775 390.7C228.775 391.417 228.875 392.058 229.075 392.625C229.275 393.175 229.542 393.642 229.875 394.025C230.225 394.408 230.625 394.7 231.075 394.9C231.525 395.083 232 395.175 232.5 395.175C233.05 395.175 233.542 395.092 233.975 394.925C234.425 394.742 234.8 394.475 235.1 394.125C235.417 393.775 235.633 393.358 235.75 392.875H238.35C238.067 394.208 237.408 395.283 236.375 396.1C235.342 396.9 234.058 397.3 232.525 397.3ZM246.775 397.3C245.592 397.3 244.525 397.025 243.575 396.475C242.642 395.925 241.9 395.158 241.35 394.175C240.817 393.175 240.55 392.025 240.55 390.725C240.55 389.392 240.825 388.233 241.375 387.25C241.925 386.25 242.675 385.475 243.625 384.925C244.575 384.375 245.642 384.1 246.825 384.1C248.025 384.1 249.092 384.375 250.025 384.925C250.959 385.475 251.692 386.242 252.225 387.225C252.775 388.208 253.05 389.367 253.05 390.7C253.05 392.033 252.775 393.192 252.225 394.175C251.692 395.158 250.95 395.925 250 396.475C249.05 397.025 247.975 397.3 246.775 397.3ZM246.775 395.15C247.459 395.15 248.075 394.983 248.625 394.65C249.192 394.317 249.642 393.825 249.975 393.175C250.325 392.508 250.5 391.683 250.5 390.7C250.5 389.717 250.334 388.9 250 388.25C249.667 387.583 249.217 387.083 248.65 386.75C248.1 386.417 247.492 386.25 246.825 386.25C246.159 386.25 245.542 386.417 244.975 386.75C244.409 387.083 243.95 387.583 243.6 388.25C243.267 388.9 243.1 389.717 243.1 390.7C243.1 391.683 243.267 392.508 243.6 393.175C243.95 393.825 244.4 394.317 244.95 394.65C245.517 394.983 246.125 395.15 246.775 395.15ZM255.741 397V384.4H257.991L258.141 386.55C258.541 385.8 259.108 385.208 259.841 384.775C260.574 384.325 261.416 384.1 262.366 384.1C263.366 384.1 264.224 384.3 264.941 384.7C265.658 385.1 266.216 385.708 266.616 386.525C267.016 387.325 267.216 388.333 267.216 389.55V397H264.716V389.8C264.716 388.633 264.458 387.75 263.941 387.15C263.424 386.55 262.674 386.25 261.691 386.25C261.041 386.25 260.458 386.408 259.941 386.725C259.424 387.025 259.008 387.475 258.691 388.075C258.391 388.675 258.241 389.408 258.241 390.275V397H255.741ZM276.31 397V379H278.81V397H276.31ZM286.168 397.3C285.135 397.3 284.276 397.125 283.593 396.775C282.91 396.425 282.401 395.958 282.068 395.375C281.735 394.775 281.568 394.133 281.568 393.45C281.568 392.617 281.785 391.908 282.218 391.325C282.651 390.725 283.268 390.267 284.068 389.95C284.868 389.633 285.826 389.475 286.943 389.475H290.218C290.218 388.742 290.11 388.133 289.893 387.65C289.676 387.167 289.351 386.808 288.918 386.575C288.501 386.325 287.968 386.2 287.318 386.2C286.568 386.2 285.926 386.383 285.393 386.75C284.86 387.1 284.526 387.625 284.393 388.325H281.893C281.993 387.442 282.293 386.692 282.793 386.075C283.31 385.442 283.968 384.958 284.768 384.625C285.568 384.275 286.418 384.1 287.318 384.1C288.501 384.1 289.493 384.308 290.293 384.725C291.093 385.142 291.693 385.733 292.093 386.5C292.51 387.25 292.718 388.15 292.718 389.2V397H290.543L290.343 394.875C290.16 395.208 289.943 395.525 289.693 395.825C289.443 396.125 289.143 396.383 288.793 396.6C288.46 396.817 288.068 396.983 287.618 397.1C287.185 397.233 286.701 397.3 286.168 397.3ZM286.643 395.275C287.176 395.275 287.66 395.167 288.093 394.95C288.526 394.733 288.893 394.442 289.193 394.075C289.51 393.692 289.743 393.267 289.893 392.8C290.06 392.317 290.151 391.825 290.168 391.325V391.25H287.193C286.476 391.25 285.893 391.342 285.443 391.525C285.01 391.692 284.693 391.925 284.493 392.225C284.293 392.525 284.193 392.875 284.193 393.275C284.193 393.692 284.285 394.05 284.468 394.35C284.668 394.633 284.951 394.858 285.318 395.025C285.685 395.192 286.126 395.275 286.643 395.275ZM307.63 397.3C306.414 397.3 305.33 397.025 304.38 396.475C303.43 395.908 302.68 395.133 302.13 394.15C301.597 393.167 301.33 392.025 301.33 390.725C301.33 389.408 301.597 388.258 302.13 387.275C302.68 386.275 303.43 385.5 304.38 384.95C305.33 384.383 306.414 384.1 307.63 384.1C309.164 384.1 310.447 384.5 311.48 385.3C312.514 386.1 313.172 387.183 313.455 388.55H310.855C310.689 387.817 310.305 387.25 309.705 386.85C309.122 386.45 308.422 386.25 307.605 386.25C306.939 386.25 306.322 386.425 305.755 386.775C305.189 387.108 304.73 387.608 304.38 388.275C304.047 388.925 303.88 389.733 303.88 390.7C303.88 391.417 303.98 392.058 304.18 392.625C304.38 393.175 304.647 393.642 304.98 394.025C305.33 394.408 305.73 394.7 306.18 394.9C306.63 395.083 307.105 395.175 307.605 395.175C308.155 395.175 308.647 395.092 309.08 394.925C309.53 394.742 309.905 394.475 310.205 394.125C310.522 393.775 310.739 393.358 310.855 392.875H313.455C313.172 394.208 312.514 395.283 311.48 396.1C310.447 396.9 309.164 397.3 307.63 397.3ZM320.306 397.3C319.272 397.3 318.414 397.125 317.731 396.775C317.047 396.425 316.539 395.958 316.206 395.375C315.872 394.775 315.706 394.133 315.706 393.45C315.706 392.617 315.922 391.908 316.356 391.325C316.789 390.725 317.406 390.267 318.206 389.95C319.006 389.633 319.964 389.475 321.081 389.475H324.356C324.356 388.742 324.247 388.133 324.031 387.65C323.814 387.167 323.489 386.808 323.056 386.575C322.639 386.325 322.106 386.2 321.456 386.2C320.706 386.2 320.064 386.383 319.531 386.75C318.997 387.1 318.664 387.625 318.531 388.325H316.031C316.131 387.442 316.431 386.692 316.931 386.075C317.447 385.442 318.106 384.958 318.906 384.625C319.706 384.275 320.556 384.1 321.456 384.1C322.639 384.1 323.631 384.308 324.431 384.725C325.231 385.142 325.831 385.733 326.231 386.5C326.647 387.25 326.856 388.15 326.856 389.2V397H324.681L324.481 394.875C324.297 395.208 324.081 395.525 323.831 395.825C323.581 396.125 323.281 396.383 322.931 396.6C322.597 396.817 322.206 396.983 321.756 397.1C321.322 397.233 320.839 397.3 320.306 397.3ZM320.781 395.275C321.314 395.275 321.797 395.167 322.231 394.95C322.664 394.733 323.031 394.442 323.331 394.075C323.647 393.692 323.881 393.267 324.031 392.8C324.197 392.317 324.289 391.825 324.306 391.325V391.25H321.331C320.614 391.25 320.031 391.342 319.581 391.525C319.147 391.692 318.831 391.925 318.631 392.225C318.431 392.525 318.331 392.875 318.331 393.275C318.331 393.692 318.422 394.05 318.606 394.35C318.806 394.633 319.089 394.858 319.456 395.025C319.822 395.192 320.264 395.275 320.781 395.275ZM329.797 397V379H332.297V397H329.797ZM335.654 397V384.4H338.154V397H335.654ZM336.929 382.025C336.446 382.025 336.046 381.875 335.729 381.575C335.429 381.275 335.279 380.892 335.279 380.425C335.279 379.975 335.429 379.608 335.729 379.325C336.046 379.025 336.446 378.875 336.929 378.875C337.396 378.875 337.788 379.025 338.104 379.325C338.421 379.608 338.579 379.975 338.579 380.425C338.579 380.892 338.421 381.275 338.104 381.575C337.788 381.875 337.396 382.025 336.929 382.025ZM347.079 397.3C345.879 397.3 344.821 397.017 343.904 396.45C342.988 395.867 342.271 395.083 341.754 394.1C341.254 393.1 341.004 391.967 341.004 390.7C341.004 389.417 341.254 388.283 341.754 387.3C342.271 386.317 342.988 385.542 343.904 384.975C344.838 384.392 345.904 384.1 347.104 384.1C348.088 384.1 348.954 384.3 349.704 384.7C350.454 385.083 351.038 385.633 351.454 386.35V379H353.954V397H351.704L351.454 395.05C351.204 395.433 350.879 395.8 350.479 396.15C350.079 396.483 349.596 396.758 349.029 396.975C348.463 397.192 347.813 397.3 347.079 397.3ZM347.479 395.125C348.263 395.125 348.954 394.942 349.554 394.575C350.154 394.208 350.613 393.692 350.929 393.025C351.263 392.358 351.429 391.583 351.429 390.7C351.429 389.817 351.263 389.05 350.929 388.4C350.613 387.733 350.154 387.217 349.554 386.85C348.954 386.467 348.263 386.275 347.479 386.275C346.729 386.275 346.054 386.467 345.454 386.85C344.854 387.217 344.388 387.733 344.054 388.4C343.721 389.05 343.554 389.817 343.554 390.7C343.554 391.583 343.721 392.358 344.054 393.025C344.388 393.692 344.854 394.208 345.454 394.575C346.054 394.942 346.729 395.125 347.479 395.125ZM361.298 397.3C360.265 397.3 359.406 397.125 358.723 396.775C358.04 396.425 357.531 395.958 357.198 395.375C356.865 394.775 356.698 394.133 356.698 393.45C356.698 392.617 356.915 391.908 357.348 391.325C357.781 390.725 358.398 390.267 359.198 389.95C359.998 389.633 360.956 389.475 362.073 389.475H365.348C365.348 388.742 365.24 388.133 365.023 387.65C364.806 387.167 364.481 386.808 364.048 386.575C363.631 386.325 363.098 386.2 362.448 386.2C361.698 386.2 361.056 386.383 360.523 386.75C359.99 387.1 359.656 387.625 359.523 388.325H357.023C357.123 387.442 357.423 386.692 357.923 386.075C358.44 385.442 359.098 384.958 359.898 384.625C360.698 384.275 361.548 384.1 362.448 384.1C363.631 384.1 364.623 384.308 365.423 384.725C366.223 385.142 366.823 385.733 367.223 386.5C367.64 387.25 367.848 388.15 367.848 389.2V397H365.673L365.473 394.875C365.29 395.208 365.073 395.525 364.823 395.825C364.573 396.125 364.273 396.383 363.923 396.6C363.59 396.817 363.198 396.983 362.748 397.1C362.315 397.233 361.831 397.3 361.298 397.3ZM361.773 395.275C362.306 395.275 362.79 395.167 363.223 394.95C363.656 394.733 364.023 394.442 364.323 394.075C364.64 393.692 364.873 393.267 365.023 392.8C365.19 392.317 365.281 391.825 365.298 391.325V391.25H362.323C361.606 391.25 361.023 391.342 360.573 391.525C360.14 391.692 359.823 391.925 359.623 392.225C359.423 392.525 359.323 392.875 359.323 393.275C359.323 393.692 359.415 394.05 359.598 394.35C359.798 394.633 360.081 394.858 360.448 395.025C360.815 395.192 361.256 395.275 361.773 395.275ZM376.389 397.3C375.189 397.3 374.131 397.017 373.214 396.45C372.297 395.867 371.581 395.083 371.064 394.1C370.564 393.1 370.314 391.967 370.314 390.7C370.314 389.417 370.564 388.283 371.064 387.3C371.581 386.317 372.297 385.542 373.214 384.975C374.147 384.392 375.214 384.1 376.414 384.1C377.397 384.1 378.264 384.3 379.014 384.7C379.764 385.083 380.347 385.633 380.764 386.35V379H383.264V397H381.014L380.764 395.05C380.514 395.433 380.189 395.8 379.789 396.15C379.389 396.483 378.906 396.758 378.339 396.975C377.772 397.192 377.122 397.3 376.389 397.3ZM376.789 395.125C377.572 395.125 378.264 394.942 378.864 394.575C379.464 394.208 379.922 393.692 380.239 393.025C380.572 392.358 380.739 391.583 380.739 390.7C380.739 389.817 380.572 389.05 380.239 388.4C379.922 387.733 379.464 387.217 378.864 386.85C378.264 386.467 377.572 386.275 376.789 386.275C376.039 386.275 375.364 386.467 374.764 386.85C374.164 387.217 373.697 387.733 373.364 388.4C373.031 389.05 372.864 389.817 372.864 390.7C372.864 391.583 373.031 392.358 373.364 393.025C373.697 393.692 374.164 394.208 374.764 394.575C375.364 394.942 376.039 395.125 376.789 395.125ZM402.554 402.5V395.05C402.154 395.683 401.587 396.217 400.854 396.65C400.137 397.083 399.254 397.3 398.204 397.3C397.004 397.3 395.937 397.017 395.004 396.45C394.087 395.867 393.371 395.083 392.854 394.1C392.354 393.1 392.104 391.967 392.104 390.7C392.104 389.433 392.362 388.308 392.879 387.325C393.396 386.325 394.112 385.542 395.029 384.975C395.946 384.392 397.004 384.1 398.204 384.1C398.887 384.1 399.504 384.2 400.054 384.4C400.621 384.583 401.112 384.842 401.529 385.175C401.946 385.508 402.287 385.9 402.554 386.35L402.804 384.4H405.054V402.5H402.554ZM398.579 395.125C399.362 395.125 400.054 394.942 400.654 394.575C401.254 394.208 401.712 393.692 402.029 393.025C402.362 392.358 402.529 391.583 402.529 390.7C402.529 389.817 402.362 389.05 402.029 388.4C401.712 387.733 401.254 387.217 400.654 386.85C400.054 386.467 399.362 386.275 398.579 386.275C397.829 386.275 397.154 386.467 396.554 386.85C395.954 387.217 395.487 387.733 395.154 388.4C394.821 389.05 394.654 389.817 394.654 390.7C394.654 391.583 394.821 392.358 395.154 393.025C395.487 393.692 395.954 394.208 396.554 394.575C397.154 394.942 397.829 395.125 398.579 395.125ZM412.847 397.3C411.864 397.3 411.006 397.1 410.272 396.7C409.556 396.3 408.997 395.7 408.597 394.9C408.214 394.1 408.022 393.092 408.022 391.875V384.4H410.522V391.6C410.522 392.783 410.781 393.675 411.297 394.275C411.814 394.875 412.556 395.175 413.522 395.175C414.172 395.175 414.756 395.017 415.272 394.7C415.806 394.383 416.222 393.925 416.522 393.325C416.822 392.725 416.972 391.992 416.972 391.125V384.4H419.472V397H417.247L417.072 394.85C416.689 395.617 416.131 396.217 415.397 396.65C414.664 397.083 413.814 397.3 412.847 397.3ZM428.345 397.3C427.145 397.3 426.079 397.025 425.145 396.475C424.212 395.925 423.479 395.158 422.945 394.175C422.429 393.192 422.17 392.05 422.17 390.75C422.17 389.417 422.429 388.258 422.945 387.275C423.479 386.275 424.212 385.5 425.145 384.95C426.079 384.383 427.162 384.1 428.395 384.1C429.629 384.1 430.687 384.375 431.57 384.925C432.454 385.475 433.137 386.208 433.62 387.125C434.104 388.025 434.345 389.025 434.345 390.125C434.345 390.292 434.337 390.475 434.32 390.675C434.32 390.858 434.312 391.067 434.295 391.3H423.995V389.525H431.845C431.795 388.475 431.445 387.658 430.795 387.075C430.145 386.475 429.337 386.175 428.37 386.175C427.687 386.175 427.062 386.333 426.495 386.65C425.929 386.95 425.47 387.4 425.12 388C424.787 388.583 424.62 389.325 424.62 390.225V390.925C424.62 391.858 424.787 392.65 425.12 393.3C425.47 393.933 425.929 394.417 426.495 394.75C427.062 395.067 427.679 395.225 428.345 395.225C429.145 395.225 429.804 395.05 430.32 394.7C430.837 394.35 431.22 393.875 431.47 393.275H433.97C433.754 394.042 433.387 394.733 432.87 395.35C432.354 395.95 431.712 396.425 430.945 396.775C430.195 397.125 429.329 397.3 428.345 397.3ZM448.719 397.3C447.519 397.3 446.453 397.025 445.519 396.475C444.586 395.925 443.853 395.158 443.319 394.175C442.803 393.192 442.544 392.05 442.544 390.75C442.544 389.417 442.803 388.258 443.319 387.275C443.853 386.275 444.586 385.5 445.519 384.95C446.453 384.383 447.536 384.1 448.769 384.1C450.003 384.1 451.061 384.375 451.944 384.925C452.828 385.475 453.511 386.208 453.994 387.125C454.478 388.025 454.719 389.025 454.719 390.125C454.719 390.292 454.711 390.475 454.694 390.675C454.694 390.858 454.686 391.067 454.669 391.3H444.369V389.525H452.219C452.169 388.475 451.819 387.658 451.169 387.075C450.519 386.475 449.711 386.175 448.744 386.175C448.061 386.175 447.436 386.333 446.869 386.65C446.303 386.95 445.844 387.4 445.494 388C445.161 388.583 444.994 389.325 444.994 390.225V390.925C444.994 391.858 445.161 392.65 445.494 393.3C445.844 393.933 446.303 394.417 446.869 394.75C447.436 395.067 448.053 395.225 448.719 395.225C449.519 395.225 450.178 395.05 450.694 394.7C451.211 394.35 451.594 393.875 451.844 393.275H454.344C454.128 394.042 453.761 394.733 453.244 395.35C452.728 395.95 452.086 396.425 451.319 396.775C450.569 397.125 449.703 397.3 448.719 397.3ZM462.122 397.3C461.055 397.3 460.122 397.125 459.322 396.775C458.522 396.425 457.889 395.933 457.422 395.3C456.955 394.667 456.672 393.925 456.572 393.075H459.122C459.205 393.475 459.364 393.842 459.597 394.175C459.847 394.508 460.18 394.775 460.597 394.975C461.03 395.175 461.539 395.275 462.122 395.275C462.672 395.275 463.122 395.2 463.472 395.05C463.839 394.883 464.105 394.667 464.272 394.4C464.439 394.117 464.522 393.817 464.522 393.5C464.522 393.033 464.405 392.683 464.172 392.45C463.955 392.2 463.622 392.008 463.172 391.875C462.739 391.725 462.214 391.592 461.597 391.475C461.014 391.375 460.447 391.242 459.897 391.075C459.364 390.892 458.88 390.667 458.447 390.4C458.03 390.133 457.697 389.8 457.447 389.4C457.197 388.983 457.072 388.475 457.072 387.875C457.072 387.158 457.264 386.517 457.647 385.95C458.03 385.367 458.572 384.917 459.272 384.6C459.989 384.267 460.83 384.1 461.797 384.1C463.197 384.1 464.322 384.433 465.172 385.1C466.022 385.767 466.522 386.708 466.672 387.925H464.247C464.18 387.358 463.93 386.925 463.497 386.625C463.064 386.308 462.489 386.15 461.772 386.15C461.055 386.15 460.505 386.292 460.122 386.575C459.739 386.858 459.547 387.233 459.547 387.7C459.547 388 459.655 388.267 459.872 388.5C460.089 388.733 460.405 388.933 460.822 389.1C461.255 389.25 461.78 389.392 462.397 389.525C463.28 389.692 464.072 389.9 464.772 390.15C465.472 390.4 466.03 390.767 466.447 391.25C466.864 391.733 467.072 392.425 467.072 393.325C467.089 394.108 466.889 394.8 466.472 395.4C466.072 396 465.497 396.467 464.747 396.8C464.014 397.133 463.139 397.3 462.122 397.3ZM469.765 402.5V384.4H472.015L472.265 386.35C472.532 385.967 472.865 385.608 473.265 385.275C473.665 384.925 474.14 384.642 474.69 384.425C475.257 384.208 475.915 384.1 476.665 384.1C477.865 384.1 478.915 384.392 479.815 384.975C480.732 385.558 481.44 386.35 481.94 387.35C482.457 388.333 482.715 389.458 482.715 390.725C482.715 391.992 482.457 393.125 481.94 394.125C481.424 395.108 480.707 395.883 479.79 396.45C478.89 397.017 477.84 397.3 476.64 397.3C475.657 397.3 474.79 397.108 474.04 396.725C473.29 396.325 472.699 395.775 472.265 395.075V402.5H469.765ZM476.24 395.125C477.007 395.125 477.682 394.942 478.265 394.575C478.865 394.208 479.332 393.692 479.665 393.025C480.015 392.358 480.19 391.583 480.19 390.7C480.19 389.817 480.015 389.05 479.665 388.4C479.332 387.733 478.865 387.217 478.265 386.85C477.682 386.467 477.007 386.275 476.24 386.275C475.457 386.275 474.765 386.467 474.165 386.85C473.582 387.217 473.124 387.733 472.79 388.4C472.457 389.05 472.29 389.817 472.29 390.7C472.29 391.583 472.457 392.358 472.79 393.025C473.124 393.692 473.582 394.208 474.165 394.575C474.765 394.942 475.457 395.125 476.24 395.125ZM491.085 397.3C489.885 397.3 488.818 397.025 487.885 396.475C486.951 395.925 486.218 395.158 485.685 394.175C485.168 393.192 484.91 392.05 484.91 390.75C484.91 389.417 485.168 388.258 485.685 387.275C486.218 386.275 486.951 385.5 487.885 384.95C488.818 384.383 489.901 384.1 491.135 384.1C492.368 384.1 493.426 384.375 494.31 384.925C495.193 385.475 495.876 386.208 496.36 387.125C496.843 388.025 497.085 389.025 497.085 390.125C497.085 390.292 497.076 390.475 497.06 390.675C497.06 390.858 497.051 391.067 497.035 391.3H486.735V389.525H494.585C494.535 388.475 494.185 387.658 493.535 387.075C492.885 386.475 492.076 386.175 491.11 386.175C490.426 386.175 489.801 386.333 489.235 386.65C488.668 386.95 488.21 387.4 487.86 388C487.526 388.583 487.36 389.325 487.36 390.225V390.925C487.36 391.858 487.526 392.65 487.86 393.3C488.21 393.933 488.668 394.417 489.235 394.75C489.801 395.067 490.418 395.225 491.085 395.225C491.885 395.225 492.543 395.05 493.06 394.7C493.576 394.35 493.96 393.875 494.21 393.275H496.71C496.493 394.042 496.126 394.733 495.61 395.35C495.093 395.95 494.451 396.425 493.685 396.775C492.935 397.125 492.068 397.3 491.085 397.3ZM499.612 397V384.4H501.862L502.087 386.775C502.37 386.208 502.737 385.733 503.187 385.35C503.637 384.95 504.162 384.642 504.762 384.425C505.379 384.208 506.079 384.1 506.862 384.1V386.75H505.962C505.445 386.75 504.954 386.817 504.487 386.95C504.02 387.067 503.604 387.275 503.237 387.575C502.887 387.875 502.612 388.283 502.412 388.8C502.212 389.317 502.112 389.958 502.112 390.725V397H499.612ZM513.083 397.3C512.05 397.3 511.191 397.125 510.508 396.775C509.825 396.425 509.316 395.958 508.983 395.375C508.65 394.775 508.483 394.133 508.483 393.45C508.483 392.617 508.7 391.908 509.133 391.325C509.566 390.725 510.183 390.267 510.983 389.95C511.783 389.633 512.741 389.475 513.858 389.475H517.133C517.133 388.742 517.025 388.133 516.808 387.65C516.591 387.167 516.266 386.808 515.833 386.575C515.416 386.325 514.883 386.2 514.233 386.2C513.483 386.2 512.841 386.383 512.308 386.75C511.775 387.1 511.441 387.625 511.308 388.325H508.808C508.908 387.442 509.208 386.692 509.708 386.075C510.225 385.442 510.883 384.958 511.683 384.625C512.483 384.275 513.333 384.1 514.233 384.1C515.416 384.1 516.408 384.308 517.208 384.725C518.008 385.142 518.608 385.733 519.008 386.5C519.425 387.25 519.633 388.15 519.633 389.2V397H517.458L517.258 394.875C517.075 395.208 516.858 395.525 516.608 395.825C516.358 396.125 516.058 396.383 515.708 396.6C515.375 396.817 514.983 396.983 514.533 397.1C514.1 397.233 513.616 397.3 513.083 397.3ZM513.558 395.275C514.091 395.275 514.575 395.167 515.008 394.95C515.441 394.733 515.808 394.442 516.108 394.075C516.425 393.692 516.658 393.267 516.808 392.8C516.975 392.317 517.066 391.825 517.083 391.325V391.25H514.108C513.391 391.25 512.808 391.342 512.358 391.525C511.925 391.692 511.608 391.925 511.408 392.225C511.208 392.525 511.108 392.875 511.108 393.275C511.108 393.692 511.2 394.05 511.383 394.35C511.583 394.633 511.866 394.858 512.233 395.025C512.6 395.192 513.041 395.275 513.558 395.275ZM527.449 397.3C526.382 397.3 525.449 397.125 524.649 396.775C523.849 396.425 523.216 395.933 522.749 395.3C522.282 394.667 521.999 393.925 521.899 393.075H524.449C524.532 393.475 524.691 393.842 524.924 394.175C525.174 394.508 525.507 394.775 525.924 394.975C526.357 395.175 526.866 395.275 527.449 395.275C527.999 395.275 528.449 395.2 528.799 395.05C529.166 394.883 529.432 394.667 529.599 394.4C529.766 394.117 529.849 393.817 529.849 393.5C529.849 393.033 529.732 392.683 529.499 392.45C529.282 392.2 528.949 392.008 528.499 391.875C528.066 391.725 527.541 391.592 526.924 391.475C526.341 391.375 525.774 391.242 525.224 391.075C524.691 390.892 524.207 390.667 523.774 390.4C523.357 390.133 523.024 389.8 522.774 389.4C522.524 388.983 522.399 388.475 522.399 387.875C522.399 387.158 522.591 386.517 522.974 385.95C523.357 385.367 523.899 384.917 524.599 384.6C525.316 384.267 526.157 384.1 527.124 384.1C528.524 384.1 529.649 384.433 530.499 385.1C531.349 385.767 531.849 386.708 531.999 387.925H529.574C529.507 387.358 529.257 386.925 528.824 386.625C528.391 386.308 527.816 386.15 527.099 386.15C526.382 386.15 525.832 386.292 525.449 386.575C525.066 386.858 524.874 387.233 524.874 387.7C524.874 388 524.982 388.267 525.199 388.5C525.416 388.733 525.732 388.933 526.149 389.1C526.582 389.25 527.107 389.392 527.724 389.525C528.607 389.692 529.399 389.9 530.099 390.15C530.799 390.4 531.357 390.767 531.774 391.25C532.191 391.733 532.399 392.425 532.399 393.325C532.416 394.108 532.216 394.8 531.799 395.4C531.399 396 530.824 396.467 530.074 396.8C529.341 397.133 528.466 397.3 527.449 397.3ZM536.093 397.125C535.609 397.125 535.209 396.975 534.893 396.675C534.593 396.358 534.443 395.983 534.443 395.55C534.443 395.1 534.593 394.725 534.893 394.425C535.209 394.108 535.609 393.95 536.093 393.95C536.576 393.95 536.968 394.108 537.268 394.425C537.568 394.725 537.718 395.1 537.718 395.55C537.718 395.983 537.568 396.358 537.268 396.675C536.968 396.975 536.576 397.125 536.093 397.125Z" fill="white"/>
<g filter="url(#filter0_g_2029_5288)">
<path fill-rule="evenodd" clip-rule="evenodd" d="M731.843 79.3773L794.999 79L798.01 583.027C798.01 583.027 751.676 445.171 733.465 350.75C715.253 256.328 731.843 79.3773 731.843 79.3773Z" fill="url(#paint0_linear_2029_5288)" fill-opacity="0.4"/>
</g>
<g filter="url(#filter1_g_2029_5288)">
<path fill-rule="evenodd" clip-rule="evenodd" d="M143.159 586.051L80.0019 586.176L79.0001 82.1412C79.0001 82.1412 124.785 220.181 142.619 314.674C160.454 409.167 143.159 586.051 143.159 586.051Z" fill="url(#paint1_linear_2029_5288)" fill-opacity="0.4"/>
</g>
<g filter="url(#filter2_d_2029_5288)">
<circle cx="167.5" cy="165.5" r="29.5" fill="#13E5DB" fill-opacity="0.2" shape-rendering="crispEdges"/>
</g>
<path d="M163.764 177.238C162.948 174.875 162.423 172.522 161.268 170.261C158.527 164.896 153.126 164.068 147 162.725C150.265 161.788 152.383 161.657 155.71 160.227C161.37 157.801 162.197 153.004 163.746 148C165.532 153.513 166.286 158.331 172.904 160.672C175.357 161.538 177.803 162.021 180.532 162.702C174.716 164.042 169.14 164.797 166.381 170.079C165.138 172.289 164.705 174.559 163.761 177.238H163.764Z" fill="white"/>
<path d="M178.973 183.25C178.12 180.58 177.639 177.967 174.643 176.631C172.606 175.723 171.764 175.867 169.96 175.176C176.491 173.763 177.402 172.672 178.973 167.185C180.787 172.934 181.436 173.635 188 175.176C187.701 175.31 187.351 175.438 187.019 175.512C181.148 176.829 180.583 178.233 178.969 183.25H178.973Z" fill="white"/>
<defs>
<filter id="filter0_g_2029_5288" x="645.928" y="0" width="231.083" height="662.027" filterUnits="userSpaceOnUse" color-interpolation-filters="sRGB">
<feFlood flood-opacity="0" result="BackgroundImageFix"/>
<feBlend mode="normal" in="SourceGraphic" in2="BackgroundImageFix" result="shape"/>
<feTurbulence type="fractalNoise" baseFrequency="0.99900001287460327 0.99900001287460327" numOctaves="3" seed="3922" />
<feDisplacementMap in="shape" scale="158" xChannelSelector="R" yChannelSelector="G" result="displacedImage" width="100%" height="100%" />
<feMerge result="effect1_texture_2029_5288">
<feMergeNode in="displacedImage"/>
</feMerge>
</filter>
<filter id="filter1_g_2029_5288" x="0" y="3.1412" width="229.688" height="662.035" filterUnits="userSpaceOnUse" color-interpolation-filters="sRGB">
<feFlood flood-opacity="0" result="BackgroundImageFix"/>
<feBlend mode="normal" in="SourceGraphic" in2="BackgroundImageFix" result="shape"/>
<feTurbulence type="fractalNoise" baseFrequency="0.99900001287460327 0.99900001287460327" numOctaves="3" seed="3922" />
<feDisplacementMap in="shape" scale="158" xChannelSelector="R" yChannelSelector="G" result="displacedImage" width="100%" height="100%" />
<feMerge result="effect1_texture_2029_5288">
<feMergeNode in="displacedImage"/>
</feMerge>
</filter>
<filter id="filter2_d_2029_5288" x="134" y="136" width="67" height="67" filterUnits="userSpaceOnUse" color-interpolation-filters="sRGB">
<feFlood flood-opacity="0" result="BackgroundImageFix"/>
<feColorMatrix in="SourceAlpha" type="matrix" values="0 0 0 0 0 0 0 0 0 0 0 0 0 0 0 0 0 0 127 0" result="hardAlpha"/>
<feOffset dy="4"/>
<feGaussianBlur stdDeviation="2"/>
<feComposite in2="hardAlpha" operator="out"/>
<feColorMatrix type="matrix" values="0 0 0 0 0.20948 0 0 0 0 0.653489 0 0 0 0 0.647797 0 0 0 1 0"/>
<feBlend mode="normal" in2="BackgroundImageFix" result="effect1_dropShadow_2029_5288"/>
<feBlend mode="normal" in="BackgroundImageFix" in2="effect1_dropShadow_2029_5288" result="BackgroundImageFix"/>
<feBlend mode="normal" in="SourceGraphic" in2="BackgroundImageFix" result="shape"/>
</filter>
<linearGradient id="paint0_linear_2029_5288" x1="761.321" y1="583.246" x2="764.791" y2="79.2333" gradientUnits="userSpaceOnUse">
<stop offset="0.135257" stop-color="#7FDED9"/>
<stop offset="0.875" stop-color="#CCFFFB"/>
</linearGradient>
<linearGradient id="paint1_linear_2029_5288" x1="115.69" y1="82.0683" x2="110.211" y2="586.063" gradientUnits="userSpaceOnUse">
<stop offset="0.135257" stop-color="#7FDED9"/>
<stop offset="0.875" stop-color="#CCFFFB"/>
</linearGradient>
</defs>
</svg>
