<svg width="721" height="55" viewBox="0 0 721 55" fill="none" xmlns="http://www.w3.org/2000/svg">
<g filter="url(#filter0_d_1783_7517)">
<rect x="152" y="4" width="125" height="41" rx="20.5" fill="white"/>
</g>
<path d="M185.456 31V17H187.856V31H185.456ZM176.616 31V17H179.016V31H176.616ZM178.656 24.84V22.88H185.916V24.84H178.656ZM195.118 31.24C194.158 31.24 193.291 31.02 192.518 30.58C191.758 30.1267 191.158 29.5067 190.718 28.72C190.291 27.92 190.078 27.0067 190.078 25.98C190.078 24.9267 190.298 24.0067 190.738 23.22C191.178 22.42 191.778 21.8 192.538 21.36C193.311 20.9067 194.178 20.68 195.138 20.68C196.098 20.68 196.958 20.9067 197.718 21.36C198.491 21.8 199.091 22.4133 199.518 23.2C199.958 23.9867 200.178 24.9067 200.178 25.96C200.178 27.0133 199.958 27.9333 199.518 28.72C199.078 29.5067 198.471 30.1267 197.698 30.58C196.938 31.02 196.078 31.24 195.118 31.24ZM195.118 29.18C195.598 29.18 196.031 29.06 196.418 28.82C196.818 28.58 197.138 28.22 197.378 27.74C197.618 27.26 197.738 26.6667 197.738 25.96C197.738 25.2533 197.618 24.6667 197.378 24.2C197.151 23.72 196.838 23.36 196.438 23.12C196.051 22.88 195.618 22.76 195.138 22.76C194.671 22.76 194.238 22.88 193.838 23.12C193.438 23.36 193.118 23.72 192.878 24.2C192.638 24.6667 192.518 25.2533 192.518 25.96C192.518 26.6667 192.638 27.26 192.878 27.74C193.118 28.22 193.431 28.58 193.818 28.82C194.218 29.06 194.651 29.18 195.118 29.18ZM207.027 31.24C206.067 31.24 205.2 31.02 204.427 30.58C203.667 30.1267 203.067 29.5067 202.627 28.72C202.2 27.92 201.987 27.0067 201.987 25.98C201.987 24.9267 202.207 24.0067 202.647 23.22C203.087 22.42 203.687 21.8 204.447 21.36C205.22 20.9067 206.087 20.68 207.047 20.68C208.007 20.68 208.867 20.9067 209.627 21.36C210.4 21.8 211 22.4133 211.427 23.2C211.867 23.9867 212.087 24.9067 212.087 25.96C212.087 27.0133 211.867 27.9333 211.427 28.72C210.987 29.5067 210.38 30.1267 209.607 30.58C208.847 31.02 207.987 31.24 207.027 31.24ZM207.027 29.18C207.507 29.18 207.94 29.06 208.327 28.82C208.727 28.58 209.047 28.22 209.287 27.74C209.527 27.26 209.647 26.6667 209.647 25.96C209.647 25.2533 209.527 24.6667 209.287 24.2C209.06 23.72 208.747 23.36 208.347 23.12C207.96 22.88 207.527 22.76 207.047 22.76C206.58 22.76 206.147 22.88 205.747 23.12C205.347 23.36 205.027 23.72 204.787 24.2C204.547 24.6667 204.427 25.2533 204.427 25.96C204.427 26.6667 204.547 27.26 204.787 27.74C205.027 28.22 205.34 28.58 205.727 28.82C206.127 29.06 206.56 29.18 207.027 29.18ZM218.716 31.24C217.783 31.24 216.95 31.0133 216.216 30.56C215.483 30.1067 214.91 29.48 214.496 28.68C214.096 27.88 213.896 26.9733 213.896 25.96C213.896 24.9467 214.103 24.0467 214.516 23.26C214.93 22.46 215.503 21.8333 216.236 21.38C216.983 20.9133 217.823 20.68 218.756 20.68C219.516 20.68 220.176 20.8267 220.736 21.12C221.31 21.4 221.763 21.8 222.096 22.32V16.6H224.496V31H222.336L222.096 29.54C221.883 29.8333 221.623 30.1133 221.316 30.38C221.01 30.6333 220.643 30.84 220.216 31C219.79 31.16 219.29 31.24 218.716 31.24ZM219.216 29.16C219.79 29.16 220.296 29.0267 220.736 28.76C221.176 28.48 221.516 28.1 221.756 27.62C221.996 27.14 222.116 26.5867 222.116 25.96C222.116 25.3333 221.996 24.78 221.756 24.3C221.516 23.82 221.176 23.4467 220.736 23.18C220.296 22.9133 219.79 22.78 219.216 22.78C218.67 22.78 218.176 22.9133 217.736 23.18C217.296 23.4467 216.95 23.82 216.696 24.3C216.456 24.78 216.336 25.3333 216.336 25.96C216.336 26.5867 216.456 27.14 216.696 27.62C216.95 28.1 217.296 28.48 217.736 28.76C218.176 29.0267 218.67 29.16 219.216 29.16ZM227.066 31V20.92H229.466V31H227.066ZM228.266 19.32C227.826 19.32 227.46 19.1867 227.166 18.92C226.886 18.64 226.746 18.3 226.746 17.9C226.746 17.4867 226.886 17.1533 227.166 16.9C227.46 16.6333 227.826 16.5 228.266 16.5C228.706 16.5 229.066 16.6333 229.346 16.9C229.64 17.1533 229.786 17.4867 229.786 17.9C229.786 18.3 229.64 18.64 229.346 18.92C229.066 19.1867 228.706 19.32 228.266 19.32ZM236.76 31.24C235.76 31.24 234.88 31.0267 234.12 30.6C233.36 30.16 232.766 29.5467 232.34 28.76C231.913 27.9733 231.7 27.0667 231.7 26.04C231.7 24.9733 231.906 24.04 232.32 23.24C232.746 22.44 233.34 21.8133 234.1 21.36C234.873 20.9067 235.766 20.68 236.78 20.68C237.766 20.68 238.626 20.9 239.36 21.34C240.093 21.78 240.66 22.3733 241.06 23.12C241.46 23.8533 241.66 24.68 241.66 25.6C241.66 25.7333 241.66 25.88 241.66 26.04C241.66 26.2 241.646 26.3667 241.62 26.54H233.42V25H239.24C239.213 24.2667 238.966 23.6933 238.5 23.28C238.033 22.8533 237.453 22.64 236.76 22.64C236.266 22.64 235.813 22.7533 235.4 22.98C234.986 23.2067 234.66 23.5467 234.42 24C234.18 24.44 234.06 25 234.06 25.68V26.26C234.06 26.8867 234.173 27.4267 234.4 27.88C234.64 28.3333 234.96 28.68 235.36 28.92C235.773 29.1467 236.233 29.26 236.74 29.26C237.3 29.26 237.76 29.14 238.12 28.9C238.493 28.66 238.766 28.34 238.94 27.94H241.38C241.193 28.5667 240.886 29.1333 240.46 29.64C240.033 30.1333 239.506 30.5267 238.88 30.82C238.253 31.1 237.546 31.24 236.76 31.24ZM247.696 31.24C246.802 31.24 246.022 31.1 245.356 30.82C244.702 30.5267 244.182 30.1267 243.796 29.62C243.422 29.1 243.202 28.5067 243.136 27.84H245.536C245.602 28.12 245.722 28.38 245.896 28.62C246.069 28.8467 246.302 29.0267 246.596 29.16C246.902 29.2933 247.262 29.36 247.676 29.36C248.076 29.36 248.402 29.3067 248.656 29.2C248.909 29.08 249.096 28.9267 249.216 28.74C249.336 28.5533 249.396 28.3533 249.396 28.14C249.396 27.82 249.309 27.5733 249.136 27.4C248.962 27.2267 248.709 27.0933 248.376 27C248.056 26.8933 247.669 26.7933 247.216 26.7C246.736 26.6067 246.269 26.4933 245.816 26.36C245.376 26.2133 244.976 26.0333 244.616 25.82C244.269 25.6067 243.989 25.3333 243.776 25C243.576 24.6667 243.476 24.26 243.476 23.78C243.476 23.1933 243.629 22.6667 243.936 22.2C244.256 21.7333 244.709 21.3667 245.296 21.1C245.896 20.82 246.609 20.68 247.436 20.68C248.609 20.68 249.542 20.9533 250.236 21.5C250.942 22.0333 251.356 22.7867 251.476 23.76H249.196C249.129 23.3867 248.942 23.1 248.636 22.9C248.329 22.6867 247.922 22.58 247.416 22.58C246.896 22.58 246.496 22.68 246.216 22.88C245.949 23.0667 245.816 23.32 245.816 23.64C245.816 23.84 245.896 24.0267 246.056 24.2C246.229 24.36 246.476 24.5 246.796 24.62C247.116 24.7267 247.509 24.8333 247.976 24.94C248.722 25.0867 249.382 25.26 249.956 25.46C250.529 25.66 250.982 25.9533 251.316 26.34C251.649 26.7267 251.816 27.2733 251.816 27.98C251.829 28.62 251.662 29.1867 251.316 29.68C250.982 30.1733 250.509 30.56 249.896 30.84C249.282 31.1067 248.549 31.24 247.696 31.24Z" fill="black"/>
<g filter="url(#filter1_d_1783_7517)">
<rect x="298" y="4" width="125" height="41" rx="20.5" fill="white"/>
</g>
<path d="M321.641 31V17H326.681C327.801 17 328.728 17.1933 329.461 17.58C330.195 17.9533 330.741 18.46 331.101 19.1C331.461 19.74 331.641 20.4733 331.641 21.3C331.641 22.0733 331.468 22.7867 331.121 23.44C330.775 24.08 330.235 24.6 329.501 25C328.768 25.3867 327.828 25.58 326.681 25.58H324.041V31H321.641ZM324.041 23.62H326.541C327.488 23.62 328.168 23.4133 328.581 23C328.995 22.5733 329.201 22.0067 329.201 21.3C329.201 20.5667 328.995 19.9933 328.581 19.58C328.168 19.1667 327.488 18.96 326.541 18.96H324.041V23.62ZM333.432 31V16.6H335.832V31H333.432ZM341.67 31.24C340.843 31.24 340.157 31.1 339.61 30.82C339.063 30.54 338.657 30.1667 338.39 29.7C338.123 29.2333 337.99 28.7267 337.99 28.18C337.99 27.54 338.15 26.9867 338.47 26.52C338.803 26.0533 339.29 25.6933 339.93 25.44C340.57 25.1733 341.357 25.04 342.29 25.04H344.83C344.83 24.5067 344.757 24.0667 344.61 23.72C344.463 23.36 344.237 23.0933 343.93 22.92C343.623 22.7467 343.23 22.66 342.75 22.66C342.203 22.66 341.737 22.7867 341.35 23.04C340.963 23.28 340.723 23.6533 340.63 24.16H338.27C338.35 23.44 338.59 22.8267 338.99 22.32C339.39 21.8 339.917 21.4 340.57 21.12C341.237 20.8267 341.963 20.68 342.75 20.68C343.697 20.68 344.503 20.8467 345.17 21.18C345.837 21.5 346.343 21.9667 346.69 22.58C347.05 23.18 347.23 23.9067 347.23 24.76V31H345.19L344.95 29.38C344.817 29.6467 344.643 29.8933 344.43 30.12C344.23 30.3467 343.997 30.5467 343.73 30.72C343.463 30.88 343.157 31.0067 342.81 31.1C342.477 31.1933 342.097 31.24 341.67 31.24ZM342.21 29.34C342.597 29.34 342.937 29.2733 343.23 29.14C343.537 28.9933 343.797 28.7933 344.01 28.54C344.237 28.2733 344.41 27.98 344.53 27.66C344.65 27.34 344.73 27 344.77 26.64V26.6H342.55C342.083 26.6 341.697 26.66 341.39 26.78C341.083 26.8867 340.863 27.0467 340.73 27.26C340.597 27.4733 340.53 27.72 340.53 28C340.53 28.28 340.597 28.52 340.73 28.72C340.863 28.92 341.057 29.0733 341.31 29.18C341.563 29.2867 341.863 29.34 342.21 29.34ZM350.482 35.4L352.942 29.88H352.342L348.322 20.92H350.942L353.942 27.76L356.782 20.92H359.322L353.022 35.4H350.482ZM364.7 31.24C363.7 31.24 362.82 31.0267 362.06 30.6C361.3 30.16 360.707 29.5467 360.28 28.76C359.854 27.9733 359.64 27.0667 359.64 26.04C359.64 24.9733 359.847 24.04 360.26 23.24C360.687 22.44 361.28 21.8133 362.04 21.36C362.814 20.9067 363.707 20.68 364.72 20.68C365.707 20.68 366.567 20.9 367.3 21.34C368.034 21.78 368.6 22.3733 369 23.12C369.4 23.8533 369.6 24.68 369.6 25.6C369.6 25.7333 369.6 25.88 369.6 26.04C369.6 26.2 369.587 26.3667 369.56 26.54H361.36V25H367.18C367.154 24.2667 366.907 23.6933 366.44 23.28C365.974 22.8533 365.394 22.64 364.7 22.64C364.207 22.64 363.754 22.7533 363.34 22.98C362.927 23.2067 362.6 23.5467 362.36 24C362.12 24.44 362 25 362 25.68V26.26C362 26.8867 362.114 27.4267 362.34 27.88C362.58 28.3333 362.9 28.68 363.3 28.92C363.714 29.1467 364.174 29.26 364.68 29.26C365.24 29.26 365.7 29.14 366.06 28.9C366.434 28.66 366.707 28.34 366.88 27.94H369.32C369.134 28.5667 368.827 29.1333 368.4 29.64C367.974 30.1333 367.447 30.5267 366.82 30.82C366.194 31.1 365.487 31.24 364.7 31.24ZM371.616 31V20.92H373.756L373.976 22.8C374.216 22.36 374.516 21.9867 374.876 21.68C375.236 21.36 375.656 21.1133 376.136 20.94C376.63 20.7667 377.17 20.68 377.756 20.68V23.22H376.916C376.516 23.22 376.136 23.2733 375.776 23.38C375.416 23.4733 375.103 23.6333 374.836 23.86C374.583 24.0733 374.383 24.3733 374.236 24.76C374.09 25.1333 374.016 25.6067 374.016 26.18V31H371.616ZM382.725 31.24C381.899 31.24 381.212 31.1 380.665 30.82C380.119 30.54 379.712 30.1667 379.445 29.7C379.179 29.2333 379.045 28.7267 379.045 28.18C379.045 27.54 379.205 26.9867 379.525 26.52C379.859 26.0533 380.345 25.6933 380.985 25.44C381.625 25.1733 382.412 25.04 383.345 25.04H385.885C385.885 24.5067 385.812 24.0667 385.665 23.72C385.519 23.36 385.292 23.0933 384.985 22.92C384.679 22.7467 384.285 22.66 383.805 22.66C383.259 22.66 382.792 22.7867 382.405 23.04C382.019 23.28 381.779 23.6533 381.685 24.16H379.325C379.405 23.44 379.645 22.8267 380.045 22.32C380.445 21.8 380.972 21.4 381.625 21.12C382.292 20.8267 383.019 20.68 383.805 20.68C384.752 20.68 385.559 20.8467 386.225 21.18C386.892 21.5 387.399 21.9667 387.745 22.58C388.105 23.18 388.285 23.9067 388.285 24.76V31H386.245L386.005 29.38C385.872 29.6467 385.699 29.8933 385.485 30.12C385.285 30.3467 385.052 30.5467 384.785 30.72C384.519 30.88 384.212 31.0067 383.865 31.1C383.532 31.1933 383.152 31.24 382.725 31.24ZM383.265 29.34C383.652 29.34 383.992 29.2733 384.285 29.14C384.592 28.9933 384.852 28.7933 385.065 28.54C385.292 28.2733 385.465 27.98 385.585 27.66C385.705 27.34 385.785 27 385.825 26.64V26.6H383.605C383.139 26.6 382.752 26.66 382.445 26.78C382.139 26.8867 381.919 27.0467 381.785 27.26C381.652 27.4733 381.585 27.72 381.585 28C381.585 28.28 381.652 28.52 381.785 28.72C381.919 28.92 382.112 29.0733 382.365 29.18C382.619 29.2867 382.919 29.34 383.265 29.34ZM394.67 31.24C393.776 31.24 392.996 31.1 392.33 30.82C391.676 30.5267 391.156 30.1267 390.77 29.62C390.396 29.1 390.176 28.5067 390.11 27.84H392.51C392.576 28.12 392.696 28.38 392.87 28.62C393.043 28.8467 393.276 29.0267 393.57 29.16C393.876 29.2933 394.236 29.36 394.65 29.36C395.05 29.36 395.376 29.3067 395.63 29.2C395.883 29.08 396.07 28.9267 396.19 28.74C396.31 28.5533 396.37 28.3533 396.37 28.14C396.37 27.82 396.283 27.5733 396.11 27.4C395.936 27.2267 395.683 27.0933 395.35 27C395.03 26.8933 394.643 26.7933 394.19 26.7C393.71 26.6067 393.243 26.4933 392.79 26.36C392.35 26.2133 391.95 26.0333 391.59 25.82C391.243 25.6067 390.963 25.3333 390.75 25C390.55 24.6667 390.45 24.26 390.45 23.78C390.45 23.1933 390.603 22.6667 390.91 22.2C391.23 21.7333 391.683 21.3667 392.27 21.1C392.87 20.82 393.583 20.68 394.41 20.68C395.583 20.68 396.516 20.9533 397.21 21.5C397.916 22.0333 398.33 22.7867 398.45 23.76H396.17C396.103 23.3867 395.916 23.1 395.61 22.9C395.303 22.6867 394.896 22.58 394.39 22.58C393.87 22.58 393.47 22.68 393.19 22.88C392.923 23.0667 392.79 23.32 392.79 23.64C392.79 23.84 392.87 24.0267 393.03 24.2C393.203 24.36 393.45 24.5 393.77 24.62C394.09 24.7267 394.483 24.8333 394.95 24.94C395.696 25.0867 396.356 25.26 396.93 25.46C397.503 25.66 397.956 25.9533 398.29 26.34C398.623 26.7267 398.79 27.2733 398.79 27.98C398.803 28.62 398.636 29.1867 398.29 29.68C397.956 30.1733 397.483 30.56 396.87 30.84C396.256 31.1067 395.523 31.24 394.67 31.24Z" fill="black"/>
<g filter="url(#filter2_d_1783_7517)">
<rect x="444" y="4" width="125" height="41" rx="20.5" fill="white"/>
</g>
<path d="M475.77 31V18.94H471.65V17H482.27V18.94H478.15V31H475.77ZM486.891 31.24C485.891 31.24 485.011 31.0267 484.251 30.6C483.491 30.16 482.898 29.5467 482.471 28.76C482.045 27.9733 481.831 27.0667 481.831 26.04C481.831 24.9733 482.038 24.04 482.451 23.24C482.878 22.44 483.471 21.8133 484.231 21.36C485.005 20.9067 485.898 20.68 486.911 20.68C487.898 20.68 488.758 20.9 489.491 21.34C490.225 21.78 490.791 22.3733 491.191 23.12C491.591 23.8533 491.791 24.68 491.791 25.6C491.791 25.7333 491.791 25.88 491.791 26.04C491.791 26.2 491.778 26.3667 491.751 26.54H483.551V25H489.371C489.345 24.2667 489.098 23.6933 488.631 23.28C488.165 22.8533 487.585 22.64 486.891 22.64C486.398 22.64 485.945 22.7533 485.531 22.98C485.118 23.2067 484.791 23.5467 484.551 24C484.311 24.44 484.191 25 484.191 25.68V26.26C484.191 26.8867 484.305 27.4267 484.531 27.88C484.771 28.3333 485.091 28.68 485.491 28.92C485.905 29.1467 486.365 29.26 486.871 29.26C487.431 29.26 487.891 29.14 488.251 28.9C488.625 28.66 488.898 28.34 489.071 27.94H491.511C491.325 28.5667 491.018 29.1333 490.591 29.64C490.165 30.1333 489.638 30.5267 489.011 30.82C488.385 31.1 487.678 31.24 486.891 31.24ZM493.807 31V20.92H495.947L496.167 22.8C496.407 22.36 496.707 21.9867 497.067 21.68C497.427 21.36 497.847 21.1133 498.327 20.94C498.821 20.7667 499.361 20.68 499.947 20.68V23.22H499.107C498.707 23.22 498.327 23.2733 497.967 23.38C497.607 23.4733 497.294 23.6333 497.027 23.86C496.774 24.0733 496.574 24.3733 496.427 24.76C496.281 25.1333 496.207 25.6067 496.207 26.18V31H493.807ZM501.556 31V20.92H503.676L503.876 22.3C504.196 21.7933 504.616 21.4 505.136 21.12C505.67 20.8267 506.276 20.68 506.956 20.68C507.463 20.68 507.916 20.7467 508.316 20.88C508.73 21.0133 509.09 21.2133 509.396 21.48C509.716 21.7467 509.976 22.08 510.176 22.48C510.55 21.92 511.036 21.48 511.636 21.16C512.236 20.84 512.89 20.68 513.596 20.68C514.436 20.68 515.15 20.8533 515.736 21.2C516.323 21.5333 516.77 22.0333 517.076 22.7C517.383 23.3533 517.536 24.16 517.536 25.12V31H515.156V25.36C515.156 24.5067 514.983 23.8533 514.636 23.4C514.29 22.9467 513.776 22.72 513.096 22.72C512.63 22.72 512.216 22.8333 511.856 23.06C511.51 23.2867 511.236 23.62 511.036 24.06C510.836 24.4867 510.736 25.0133 510.736 25.64V31H508.356V25.36C508.356 24.5067 508.183 23.8533 507.836 23.4C507.49 22.9467 506.97 22.72 506.276 22.72C505.836 22.72 505.436 22.8333 505.076 23.06C504.73 23.2867 504.456 23.62 504.256 24.06C504.056 24.4867 503.956 25.0133 503.956 25.64V31H501.556ZM524.572 31.24C523.612 31.24 522.745 31.02 521.972 30.58C521.212 30.1267 520.612 29.5067 520.172 28.72C519.745 27.92 519.532 27.0067 519.532 25.98C519.532 24.9267 519.752 24.0067 520.192 23.22C520.632 22.42 521.232 21.8 521.992 21.36C522.765 20.9067 523.632 20.68 524.592 20.68C525.552 20.68 526.412 20.9067 527.172 21.36C527.945 21.8 528.545 22.4133 528.972 23.2C529.412 23.9867 529.632 24.9067 529.632 25.96C529.632 27.0133 529.412 27.9333 528.972 28.72C528.532 29.5067 527.925 30.1267 527.152 30.58C526.392 31.02 525.532 31.24 524.572 31.24ZM524.572 29.18C525.052 29.18 525.485 29.06 525.872 28.82C526.272 28.58 526.592 28.22 526.832 27.74C527.072 27.26 527.192 26.6667 527.192 25.96C527.192 25.2533 527.072 24.6667 526.832 24.2C526.605 23.72 526.292 23.36 525.892 23.12C525.505 22.88 525.072 22.76 524.592 22.76C524.125 22.76 523.692 22.88 523.292 23.12C522.892 23.36 522.572 23.72 522.332 24.2C522.092 24.6667 521.972 25.2533 521.972 25.96C521.972 26.6667 522.092 27.26 522.332 27.74C522.572 28.22 522.885 28.58 523.272 28.82C523.672 29.06 524.105 29.18 524.572 29.18ZM535.801 31.24C534.908 31.24 534.128 31.1 533.461 30.82C532.808 30.5267 532.288 30.1267 531.901 29.62C531.528 29.1 531.308 28.5067 531.241 27.84H533.641C533.708 28.12 533.828 28.38 534.001 28.62C534.175 28.8467 534.408 29.0267 534.701 29.16C535.008 29.2933 535.368 29.36 535.781 29.36C536.181 29.36 536.508 29.3067 536.761 29.2C537.015 29.08 537.201 28.9267 537.321 28.74C537.441 28.5533 537.501 28.3533 537.501 28.14C537.501 27.82 537.415 27.5733 537.241 27.4C537.068 27.2267 536.815 27.0933 536.481 27C536.161 26.8933 535.775 26.7933 535.321 26.7C534.841 26.6067 534.375 26.4933 533.921 26.36C533.481 26.2133 533.081 26.0333 532.721 25.82C532.375 25.6067 532.095 25.3333 531.881 25C531.681 24.6667 531.581 24.26 531.581 23.78C531.581 23.1933 531.735 22.6667 532.041 22.2C532.361 21.7333 532.815 21.3667 533.401 21.1C534.001 20.82 534.715 20.68 535.541 20.68C536.715 20.68 537.648 20.9533 538.341 21.5C539.048 22.0333 539.461 22.7867 539.581 23.76H537.301C537.235 23.3867 537.048 23.1 536.741 22.9C536.435 22.6867 536.028 22.58 535.521 22.58C535.001 22.58 534.601 22.68 534.321 22.88C534.055 23.0667 533.921 23.32 533.921 23.64C533.921 23.84 534.001 24.0267 534.161 24.2C534.335 24.36 534.581 24.5 534.901 24.62C535.221 24.7267 535.615 24.8333 536.081 24.94C536.828 25.0867 537.488 25.26 538.061 25.46C538.635 25.66 539.088 25.9533 539.421 26.34C539.755 26.7267 539.921 27.2733 539.921 27.98C539.935 28.62 539.768 29.1867 539.421 29.68C539.088 30.1733 538.615 30.56 538.001 30.84C537.388 31.1067 536.655 31.24 535.801 31.24Z" fill="black"/>
<g filter="url(#filter3_d_1783_7517)">
<rect x="590" y="4" width="125" height="41" rx="20.5" fill="white"/>
</g>
<path d="M611.588 31L616.708 17H619.388L624.508 31H621.968L618.028 19.8L614.088 31H611.588ZM613.868 27.7L614.508 25.8H621.408L622.048 27.7H613.868ZM630.394 35.64C629.447 35.64 628.614 35.52 627.894 35.28C627.187 35.0533 626.634 34.7 626.234 34.22C625.847 33.7533 625.654 33.1667 625.654 32.46C625.654 32.0467 625.754 31.64 625.954 31.24C626.167 30.8533 626.481 30.4933 626.894 30.16C627.321 29.8133 627.861 29.5133 628.514 29.26L629.574 30.42C628.934 30.6467 628.487 30.92 628.234 31.24C627.981 31.56 627.854 31.8867 627.854 32.22C627.854 32.5667 627.961 32.8533 628.174 33.08C628.401 33.32 628.701 33.5 629.074 33.62C629.461 33.74 629.894 33.8 630.374 33.8C630.841 33.8 631.247 33.7333 631.594 33.6C631.941 33.48 632.207 33.3067 632.394 33.08C632.594 32.8533 632.694 32.58 632.694 32.26C632.694 31.86 632.554 31.5333 632.274 31.28C631.994 31.04 631.441 30.8933 630.614 30.84C629.907 30.7867 629.287 30.7133 628.754 30.62C628.221 30.5133 627.761 30.3933 627.374 30.26C627.001 30.1267 626.681 29.98 626.414 29.82C626.147 29.6467 625.927 29.4733 625.754 29.3V28.84L627.854 26.64L629.634 27.22L627.274 29.52L627.894 28.36C628.027 28.4533 628.161 28.54 628.294 28.62C628.441 28.7 628.621 28.7733 628.834 28.84C629.061 28.8933 629.354 28.9467 629.714 29C630.074 29.0533 630.541 29.1067 631.114 29.16C632.007 29.2267 632.734 29.3867 633.294 29.64C633.854 29.8933 634.267 30.2333 634.534 30.66C634.801 31.0867 634.934 31.6 634.934 32.2C634.934 32.7867 634.767 33.34 634.434 33.86C634.114 34.38 633.621 34.8067 632.954 35.14C632.287 35.4733 631.434 35.64 630.394 35.64ZM630.394 27.98C629.554 27.98 628.827 27.82 628.214 27.5C627.614 27.1667 627.154 26.7267 626.834 26.18C626.514 25.62 626.354 25.0067 626.354 24.34C626.354 23.66 626.514 23.0467 626.834 22.5C627.154 21.9533 627.614 21.5133 628.214 21.18C628.827 20.8467 629.554 20.68 630.394 20.68C631.234 20.68 631.954 20.8467 632.554 21.18C633.154 21.5133 633.614 21.9533 633.934 22.5C634.254 23.0467 634.414 23.66 634.414 24.34C634.414 25.0067 634.254 25.62 633.934 26.18C633.614 26.7267 633.154 27.1667 632.554 27.5C631.954 27.82 631.234 27.98 630.394 27.98ZM630.394 26.12C630.967 26.12 631.427 25.9667 631.774 25.66C632.121 25.3533 632.294 24.9133 632.294 24.34C632.294 23.7667 632.121 23.3333 631.774 23.04C631.427 22.7333 630.967 22.58 630.394 22.58C629.821 22.58 629.354 22.7333 628.994 23.04C628.634 23.3333 628.454 23.7667 628.454 24.34C628.454 24.9133 628.634 25.3533 628.994 25.66C629.354 25.9667 629.821 26.12 630.394 26.12ZM632.054 22.68L631.594 20.92H635.734V22.42L632.054 22.68ZM641.983 31.24C640.983 31.24 640.103 31.0267 639.343 30.6C638.583 30.16 637.989 29.5467 637.563 28.76C637.136 27.9733 636.923 27.0667 636.923 26.04C636.923 24.9733 637.129 24.04 637.543 23.24C637.969 22.44 638.563 21.8133 639.323 21.36C640.096 20.9067 640.989 20.68 642.003 20.68C642.989 20.68 643.849 20.9 644.583 21.34C645.316 21.78 645.883 22.3733 646.283 23.12C646.683 23.8533 646.883 24.68 646.883 25.6C646.883 25.7333 646.883 25.88 646.883 26.04C646.883 26.2 646.869 26.3667 646.843 26.54H638.643V25H644.463C644.436 24.2667 644.189 23.6933 643.723 23.28C643.256 22.8533 642.676 22.64 641.983 22.64C641.489 22.64 641.036 22.7533 640.623 22.98C640.209 23.2067 639.883 23.5467 639.643 24C639.403 24.44 639.283 25 639.283 25.68V26.26C639.283 26.8867 639.396 27.4267 639.623 27.88C639.863 28.3333 640.183 28.68 640.583 28.92C640.996 29.1467 641.456 29.26 641.963 29.26C642.523 29.26 642.983 29.14 643.343 28.9C643.716 28.66 643.989 28.34 644.163 27.94H646.603C646.416 28.5667 646.109 29.1333 645.683 29.64C645.256 30.1333 644.729 30.5267 644.103 30.82C643.476 31.1 642.769 31.24 641.983 31.24ZM648.899 31V20.92H651.019L651.199 22.6C651.505 22.0133 651.945 21.5467 652.519 21.2C653.092 20.8533 653.772 20.68 654.559 20.68C655.372 20.68 656.065 20.8533 656.639 21.2C657.212 21.5333 657.652 22.0267 657.959 22.68C658.279 23.3333 658.439 24.1467 658.439 25.12V31H656.039V25.34C656.039 24.5 655.852 23.8533 655.479 23.4C655.105 22.9467 654.552 22.72 653.819 22.72C653.339 22.72 652.905 22.8333 652.519 23.06C652.145 23.2867 651.845 23.62 651.619 24.06C651.405 24.4867 651.299 25.0067 651.299 25.62V31H648.899ZM665.249 31.24C664.316 31.24 663.482 31.0133 662.749 30.56C662.016 30.1067 661.442 29.48 661.029 28.68C660.629 27.88 660.429 26.9733 660.429 25.96C660.429 24.9467 660.636 24.0467 661.049 23.26C661.462 22.46 662.036 21.8333 662.769 21.38C663.516 20.9133 664.356 20.68 665.289 20.68C666.049 20.68 666.709 20.8267 667.269 21.12C667.842 21.4 668.296 21.8 668.629 22.32V16.6H671.029V31H668.869L668.629 29.54C668.416 29.8333 668.156 30.1133 667.849 30.38C667.542 30.6333 667.176 30.84 666.749 31C666.322 31.16 665.822 31.24 665.249 31.24ZM665.749 29.16C666.322 29.16 666.829 29.0267 667.269 28.76C667.709 28.48 668.049 28.1 668.289 27.62C668.529 27.14 668.649 26.5867 668.649 25.96C668.649 25.3333 668.529 24.78 668.289 24.3C668.049 23.82 667.709 23.4467 667.269 23.18C666.829 22.9133 666.322 22.78 665.749 22.78C665.202 22.78 664.709 22.9133 664.269 23.18C663.829 23.4467 663.482 23.82 663.229 24.3C662.989 24.78 662.869 25.3333 662.869 25.96C662.869 26.5867 662.989 27.14 663.229 27.62C663.482 28.1 663.829 28.48 664.269 28.76C664.709 29.0267 665.202 29.16 665.749 29.16ZM676.859 31.24C676.032 31.24 675.345 31.1 674.799 30.82C674.252 30.54 673.845 30.1667 673.579 29.7C673.312 29.2333 673.179 28.7267 673.179 28.18C673.179 27.54 673.339 26.9867 673.659 26.52C673.992 26.0533 674.479 25.6933 675.119 25.44C675.759 25.1733 676.545 25.04 677.479 25.04H680.019C680.019 24.5067 679.945 24.0667 679.799 23.72C679.652 23.36 679.425 23.0933 679.119 22.92C678.812 22.7467 678.419 22.66 677.939 22.66C677.392 22.66 676.925 22.7867 676.539 23.04C676.152 23.28 675.912 23.6533 675.819 24.16H673.459C673.539 23.44 673.779 22.8267 674.179 22.32C674.579 21.8 675.105 21.4 675.759 21.12C676.425 20.8267 677.152 20.68 677.939 20.68C678.885 20.68 679.692 20.8467 680.359 21.18C681.025 21.5 681.532 21.9667 681.879 22.58C682.239 23.18 682.419 23.9067 682.419 24.76V31H680.379L680.139 29.38C680.005 29.6467 679.832 29.8933 679.619 30.12C679.419 30.3467 679.185 30.5467 678.919 30.72C678.652 30.88 678.345 31.0067 677.999 31.1C677.665 31.1933 677.285 31.24 676.859 31.24ZM677.399 29.34C677.785 29.34 678.125 29.2733 678.419 29.14C678.725 28.9933 678.985 28.7933 679.199 28.54C679.425 28.2733 679.599 27.98 679.719 27.66C679.839 27.34 679.919 27 679.959 26.64V26.6H677.739C677.272 26.6 676.885 26.66 676.579 26.78C676.272 26.8867 676.052 27.0467 675.919 27.26C675.785 27.4733 675.719 27.72 675.719 28C675.719 28.28 675.785 28.52 675.919 28.72C676.052 28.92 676.245 29.0733 676.499 29.18C676.752 29.2867 677.052 29.34 677.399 29.34ZM688.803 31.24C687.91 31.24 687.13 31.1 686.463 30.82C685.81 30.5267 685.29 30.1267 684.903 29.62C684.53 29.1 684.31 28.5067 684.243 27.84H686.643C686.71 28.12 686.83 28.38 687.003 28.62C687.176 28.8467 687.41 29.0267 687.703 29.16C688.01 29.2933 688.37 29.36 688.783 29.36C689.183 29.36 689.51 29.3067 689.763 29.2C690.016 29.08 690.203 28.9267 690.323 28.74C690.443 28.5533 690.503 28.3533 690.503 28.14C690.503 27.82 690.416 27.5733 690.243 27.4C690.07 27.2267 689.816 27.0933 689.483 27C689.163 26.8933 688.776 26.7933 688.323 26.7C687.843 26.6067 687.376 26.4933 686.923 26.36C686.483 26.2133 686.083 26.0333 685.723 25.82C685.376 25.6067 685.096 25.3333 684.883 25C684.683 24.6667 684.583 24.26 684.583 23.78C684.583 23.1933 684.736 22.6667 685.043 22.2C685.363 21.7333 685.816 21.3667 686.403 21.1C687.003 20.82 687.716 20.68 688.543 20.68C689.716 20.68 690.65 20.9533 691.343 21.5C692.05 22.0333 692.463 22.7867 692.583 23.76H690.303C690.236 23.3867 690.05 23.1 689.743 22.9C689.436 22.6867 689.03 22.58 688.523 22.58C688.003 22.58 687.603 22.68 687.323 22.88C687.056 23.0667 686.923 23.32 686.923 23.64C686.923 23.84 687.003 24.0267 687.163 24.2C687.336 24.36 687.583 24.5 687.903 24.62C688.223 24.7267 688.616 24.8333 689.083 24.94C689.83 25.0867 690.49 25.26 691.063 25.46C691.636 25.66 692.09 25.9533 692.423 26.34C692.756 26.7267 692.923 27.2733 692.923 27.98C692.936 28.62 692.77 29.1867 692.423 29.68C692.09 30.1733 691.616 30.56 691.003 30.84C690.39 31.1067 689.656 31.24 688.803 31.24Z" fill="black"/>
<g filter="url(#filter4_d_1783_7517)">
<rect x="6" y="4" width="125" height="41" rx="20.5" fill="white"/>
</g>
<path d="M43.8149 31.24C42.4949 31.24 41.3349 30.94 40.3349 30.34C39.3483 29.74 38.5816 28.9067 38.0349 27.84C37.4883 26.76 37.2149 25.5 37.2149 24.06C37.2149 22.6333 37.4949 21.3733 38.0549 20.28C38.6149 19.1733 39.4149 18.3133 40.4549 17.7C41.5083 17.0733 42.7549 16.76 44.1949 16.76C45.8216 16.76 47.1683 17.1533 48.2349 17.94C49.3149 18.7133 50.0149 19.7933 50.3349 21.18H47.6349C47.4349 20.4867 47.0416 19.9467 46.4549 19.56C45.8683 19.1733 45.1083 18.98 44.1749 18.98C43.2283 18.98 42.4149 19.1867 41.7349 19.6C41.0683 20 40.5549 20.5867 40.1949 21.36C39.8483 22.12 39.6749 23.0267 39.6749 24.08C39.6749 25.1333 39.8483 26.04 40.1949 26.8C40.5549 27.56 41.0616 28.14 41.7149 28.54C42.3683 28.9267 43.1349 29.12 44.0149 29.12C45.3216 29.12 46.3083 28.7533 46.9749 28.02C47.6416 27.2867 48.0349 26.3333 48.1549 25.16H44.5349V23.34H50.5749V31H48.3749L48.1749 29.08C47.8683 29.5333 47.5149 29.9267 47.1149 30.26C46.7149 30.58 46.2416 30.8267 45.6949 31C45.1616 31.16 44.5349 31.24 43.8149 31.24ZM57.5841 31.24C56.6241 31.24 55.7575 31.02 54.9841 30.58C54.2241 30.1267 53.6241 29.5067 53.1841 28.72C52.7575 27.92 52.5441 27.0067 52.5441 25.98C52.5441 24.9267 52.7641 24.0067 53.2041 23.22C53.6441 22.42 54.2441 21.8 55.0041 21.36C55.7775 20.9067 56.6441 20.68 57.6041 20.68C58.5641 20.68 59.4241 20.9067 60.1841 21.36C60.9575 21.8 61.5575 22.4133 61.9841 23.2C62.4241 23.9867 62.6441 24.9067 62.6441 25.96C62.6441 27.0133 62.4241 27.9333 61.9841 28.72C61.5441 29.5067 60.9375 30.1267 60.1641 30.58C59.4041 31.02 58.5441 31.24 57.5841 31.24ZM57.5841 29.18C58.0641 29.18 58.4975 29.06 58.8841 28.82C59.2841 28.58 59.6041 28.22 59.8441 27.74C60.0841 27.26 60.2041 26.6667 60.2041 25.96C60.2041 25.2533 60.0841 24.6667 59.8441 24.2C59.6175 23.72 59.3041 23.36 58.9041 23.12C58.5175 22.88 58.0841 22.76 57.6041 22.76C57.1375 22.76 56.7041 22.88 56.3041 23.12C55.9041 23.36 55.5841 23.72 55.3441 24.2C55.1041 24.6667 54.9841 25.2533 54.9841 25.96C54.9841 26.6667 55.1041 27.26 55.3441 27.74C55.5841 28.22 55.8975 28.58 56.2841 28.82C56.6841 29.06 57.1175 29.18 57.5841 29.18ZM64.7935 31V20.92H66.9335L67.1535 22.8C67.3935 22.36 67.6935 21.9867 68.0535 21.68C68.4135 21.36 68.8335 21.1133 69.3135 20.94C69.8068 20.7667 70.3468 20.68 70.9335 20.68V23.22H70.0935C69.6935 23.22 69.3135 23.2733 68.9535 23.38C68.5935 23.4733 68.2802 23.6333 68.0135 23.86C67.7602 24.0733 67.5602 24.3733 67.4135 24.76C67.2668 25.1333 67.1935 25.6067 67.1935 26.18V31H64.7935ZM72.5427 31V20.92H74.6827L74.9027 22.8C75.1427 22.36 75.4427 21.9867 75.8027 21.68C76.1627 21.36 76.5827 21.1133 77.0627 20.94C77.5561 20.7667 78.0961 20.68 78.6827 20.68V23.22H77.8427C77.4427 23.22 77.0627 23.2733 76.7027 23.38C76.3427 23.4733 76.0294 23.6333 75.7627 23.86C75.5094 24.0733 75.3094 24.3733 75.1627 24.76C75.0161 25.1333 74.9427 25.6067 74.9427 26.18V31H72.5427ZM83.652 31.24C82.8253 31.24 82.1386 31.1 81.592 30.82C81.0453 30.54 80.6386 30.1667 80.372 29.7C80.1053 29.2333 79.972 28.7267 79.972 28.18C79.972 27.54 80.132 26.9867 80.452 26.52C80.7853 26.0533 81.272 25.6933 81.912 25.44C82.552 25.1733 83.3386 25.04 84.272 25.04H86.812C86.812 24.5067 86.7386 24.0667 86.592 23.72C86.4453 23.36 86.2186 23.0933 85.912 22.92C85.6053 22.7467 85.212 22.66 84.732 22.66C84.1853 22.66 83.7186 22.7867 83.332 23.04C82.9453 23.28 82.7053 23.6533 82.612 24.16H80.252C80.332 23.44 80.572 22.8267 80.972 22.32C81.372 21.8 81.8986 21.4 82.552 21.12C83.2186 20.8267 83.9453 20.68 84.732 20.68C85.6786 20.68 86.4853 20.8467 87.152 21.18C87.8186 21.5 88.3253 21.9667 88.672 22.58C89.032 23.18 89.212 23.9067 89.212 24.76V31H87.172L86.932 29.38C86.7986 29.6467 86.6253 29.8933 86.412 30.12C86.212 30.3467 85.9786 30.5467 85.712 30.72C85.4453 30.88 85.1386 31.0067 84.792 31.1C84.4586 31.1933 84.0786 31.24 83.652 31.24ZM84.192 29.34C84.5786 29.34 84.9186 29.2733 85.212 29.14C85.5186 28.9933 85.7786 28.7933 85.992 28.54C86.2186 28.2733 86.392 27.98 86.512 27.66C86.632 27.34 86.712 27 86.752 26.64V26.6H84.532C84.0653 26.6 83.6786 26.66 83.372 26.78C83.0653 26.8867 82.8453 27.0467 82.712 27.26C82.5786 27.4733 82.512 27.72 82.512 28C82.512 28.28 82.5786 28.52 82.712 28.72C82.8453 28.92 83.0386 29.0733 83.292 29.18C83.5453 29.2867 83.8453 29.34 84.192 29.34ZM95.5963 31.24C94.703 31.24 93.923 31.1 93.2563 30.82C92.603 30.5267 92.083 30.1267 91.6963 29.62C91.323 29.1 91.103 28.5067 91.0363 27.84H93.4363C93.503 28.12 93.623 28.38 93.7963 28.62C93.9697 28.8467 94.203 29.0267 94.4963 29.16C94.803 29.2933 95.163 29.36 95.5763 29.36C95.9763 29.36 96.303 29.3067 96.5563 29.2C96.8097 29.08 96.9963 28.9267 97.1163 28.74C97.2363 28.5533 97.2963 28.3533 97.2963 28.14C97.2963 27.82 97.2097 27.5733 97.0363 27.4C96.863 27.2267 96.6097 27.0933 96.2763 27C95.9563 26.8933 95.5697 26.7933 95.1163 26.7C94.6363 26.6067 94.1697 26.4933 93.7163 26.36C93.2763 26.2133 92.8763 26.0333 92.5163 25.82C92.1697 25.6067 91.8897 25.3333 91.6763 25C91.4763 24.6667 91.3763 24.26 91.3763 23.78C91.3763 23.1933 91.5297 22.6667 91.8363 22.2C92.1563 21.7333 92.6097 21.3667 93.1963 21.1C93.7963 20.82 94.5097 20.68 95.3363 20.68C96.5097 20.68 97.443 20.9533 98.1363 21.5C98.843 22.0333 99.2563 22.7867 99.3763 23.76H97.0963C97.0297 23.3867 96.843 23.1 96.5363 22.9C96.2297 22.6867 95.823 22.58 95.3163 22.58C94.7963 22.58 94.3963 22.68 94.1163 22.88C93.8497 23.0667 93.7163 23.32 93.7163 23.64C93.7163 23.84 93.7963 24.0267 93.9563 24.2C94.1297 24.36 94.3763 24.5 94.6963 24.62C95.0163 24.7267 95.4097 24.8333 95.8763 24.94C96.623 25.0867 97.283 25.26 97.8563 25.46C98.4297 25.66 98.883 25.9533 99.2163 26.34C99.5497 26.7267 99.7163 27.2733 99.7163 27.98C99.7297 28.62 99.563 29.1867 99.2163 29.68C98.883 30.1733 98.4097 30.56 97.7963 30.84C97.183 31.1067 96.4497 31.24 95.5963 31.24Z" fill="black"/>
<defs>
<filter id="filter0_d_1783_7517" x="146" y="2" width="137" height="53" filterUnits="userSpaceOnUse" color-interpolation-filters="sRGB">
<feFlood flood-opacity="0" result="BackgroundImageFix"/>
<feColorMatrix in="SourceAlpha" type="matrix" values="0 0 0 0 0 0 0 0 0 0 0 0 0 0 0 0 0 0 127 0" result="hardAlpha"/>
<feMorphology radius="2" operator="dilate" in="SourceAlpha" result="effect1_dropShadow_1783_7517"/>
<feOffset dy="4"/>
<feGaussianBlur stdDeviation="2"/>
<feComposite in2="hardAlpha" operator="out"/>
<feColorMatrix type="matrix" values="0 0 0 0 0 0 0 0 0 0 0 0 0 0 0 0 0 0 0.08 0"/>
<feBlend mode="normal" in2="BackgroundImageFix" result="effect1_dropShadow_1783_7517"/>
<feBlend mode="normal" in="SourceGraphic" in2="effect1_dropShadow_1783_7517" result="shape"/>
</filter>
<filter id="filter1_d_1783_7517" x="292" y="2" width="137" height="53" filterUnits="userSpaceOnUse" color-interpolation-filters="sRGB">
<feFlood flood-opacity="0" result="BackgroundImageFix"/>
<feColorMatrix in="SourceAlpha" type="matrix" values="0 0 0 0 0 0 0 0 0 0 0 0 0 0 0 0 0 0 127 0" result="hardAlpha"/>
<feMorphology radius="2" operator="dilate" in="SourceAlpha" result="effect1_dropShadow_1783_7517"/>
<feOffset dy="4"/>
<feGaussianBlur stdDeviation="2"/>
<feComposite in2="hardAlpha" operator="out"/>
<feColorMatrix type="matrix" values="0 0 0 0 0 0 0 0 0 0 0 0 0 0 0 0 0 0 0.08 0"/>
<feBlend mode="normal" in2="BackgroundImageFix" result="effect1_dropShadow_1783_7517"/>
<feBlend mode="normal" in="SourceGraphic" in2="effect1_dropShadow_1783_7517" result="shape"/>
</filter>
<filter id="filter2_d_1783_7517" x="438" y="2" width="137" height="53" filterUnits="userSpaceOnUse" color-interpolation-filters="sRGB">
<feFlood flood-opacity="0" result="BackgroundImageFix"/>
<feColorMatrix in="SourceAlpha" type="matrix" values="0 0 0 0 0 0 0 0 0 0 0 0 0 0 0 0 0 0 127 0" result="hardAlpha"/>
<feMorphology radius="2" operator="dilate" in="SourceAlpha" result="effect1_dropShadow_1783_7517"/>
<feOffset dy="4"/>
<feGaussianBlur stdDeviation="2"/>
<feComposite in2="hardAlpha" operator="out"/>
<feColorMatrix type="matrix" values="0 0 0 0 0 0 0 0 0 0 0 0 0 0 0 0 0 0 0.08 0"/>
<feBlend mode="normal" in2="BackgroundImageFix" result="effect1_dropShadow_1783_7517"/>
<feBlend mode="normal" in="SourceGraphic" in2="effect1_dropShadow_1783_7517" result="shape"/>
</filter>
<filter id="filter3_d_1783_7517" x="584" y="2" width="137" height="53" filterUnits="userSpaceOnUse" color-interpolation-filters="sRGB">
<feFlood flood-opacity="0" result="BackgroundImageFix"/>
<feColorMatrix in="SourceAlpha" type="matrix" values="0 0 0 0 0 0 0 0 0 0 0 0 0 0 0 0 0 0 127 0" result="hardAlpha"/>
<feMorphology radius="2" operator="dilate" in="SourceAlpha" result="effect1_dropShadow_1783_7517"/>
<feOffset dy="4"/>
<feGaussianBlur stdDeviation="2"/>
<feComposite in2="hardAlpha" operator="out"/>
<feColorMatrix type="matrix" values="0 0 0 0 0 0 0 0 0 0 0 0 0 0 0 0 0 0 0.08 0"/>
<feBlend mode="normal" in2="BackgroundImageFix" result="effect1_dropShadow_1783_7517"/>
<feBlend mode="normal" in="SourceGraphic" in2="effect1_dropShadow_1783_7517" result="shape"/>
</filter>
<filter id="filter4_d_1783_7517" x="0" y="2" width="137" height="53" filterUnits="userSpaceOnUse" color-interpolation-filters="sRGB">
<feFlood flood-opacity="0" result="BackgroundImageFix"/>
<feColorMatrix in="SourceAlpha" type="matrix" values="0 0 0 0 0 0 0 0 0 0 0 0 0 0 0 0 0 0 127 0" result="hardAlpha"/>
<feMorphology radius="2" operator="dilate" in="SourceAlpha" result="effect1_dropShadow_1783_7517"/>
<feOffset dy="4"/>
<feGaussianBlur stdDeviation="2"/>
<feComposite in2="hardAlpha" operator="out"/>
<feColorMatrix type="matrix" values="0 0 0 0 0 0 0 0 0 0 0 0 0 0 0 0 0 0 0.08 0"/>
<feBlend mode="normal" in2="BackgroundImageFix" result="effect1_dropShadow_1783_7517"/>
<feBlend mode="normal" in="SourceGraphic" in2="effect1_dropShadow_1783_7517" result="shape"/>
</filter>
</defs>
</svg>
