<svg width="547" height="37" viewBox="0 0 547 37" fill="none" xmlns="http://www.w3.org/2000/svg">
<path d="M0.000195429 36.25V1.25H22.3502V6.1H6.0002V16.35H19.3502V21.1H6.0002V36.25H0.000195429ZM33.6396 36.85C31.573 36.85 29.8563 36.5 28.4896 35.8C27.123 35.1 26.1063 34.1667 25.4396 33C24.773 31.8333 24.4396 30.5667 24.4396 29.2C24.4396 27.6 24.8396 26.2167 25.6396 25.05C26.473 23.8833 27.6896 22.9833 29.2896 22.35C30.8896 21.6833 32.8563 21.35 35.1896 21.35H41.5396C41.5396 20.0167 41.3563 18.9167 40.9896 18.05C40.623 17.15 40.0563 16.4833 39.2896 16.05C38.523 15.6167 37.5396 15.4 36.3396 15.4C34.973 15.4 33.8063 15.7167 32.8396 16.35C31.873 16.95 31.273 17.8833 31.0396 19.15H25.1396C25.3396 17.35 25.9396 15.8167 26.9396 14.55C27.9396 13.25 29.2563 12.25 30.8896 11.55C32.5563 10.8167 34.373 10.45 36.3396 10.45C38.7063 10.45 40.723 10.8667 42.3896 11.7C44.0563 12.5 45.323 13.6667 46.1896 15.2C47.0896 16.7 47.5396 18.5167 47.5396 20.65V36.25H42.4396L41.8396 32.2C41.5063 32.8667 41.073 33.4833 40.5396 34.05C40.0396 34.6167 39.4563 35.1167 38.7896 35.55C38.123 35.95 37.3563 36.2667 36.4896 36.5C35.6563 36.7333 34.7063 36.85 33.6396 36.85ZM34.9896 32.1C35.9563 32.1 36.8063 31.9333 37.5396 31.6C38.3063 31.2333 38.9563 30.7333 39.4896 30.1C40.0563 29.4333 40.4896 28.7 40.7896 27.9C41.0896 27.1 41.2896 26.25 41.3896 25.35V25.25H35.8396C34.673 25.25 33.7063 25.4 32.9396 25.7C32.173 25.9667 31.623 26.3667 31.2896 26.9C30.9563 27.4333 30.7896 28.05 30.7896 28.75C30.7896 29.45 30.9563 30.05 31.2896 30.55C31.623 31.05 32.1063 31.4333 32.7396 31.7C33.373 31.9667 34.123 32.1 34.9896 32.1ZM60.0693 36.25L50.7693 11.05H57.0693L63.7193 30.55L70.3693 11.05H76.5693L67.2693 36.25H60.0693ZM91.3842 36.85C88.9842 36.85 86.8175 36.3 84.8842 35.2C82.9842 34.0667 81.4842 32.5167 80.3842 30.55C79.3175 28.55 78.7842 26.2667 78.7842 23.7C78.7842 21.0667 79.3342 18.7667 80.4342 16.8C81.5342 14.8 83.0342 13.25 84.9342 12.15C86.8675 11.0167 89.0342 10.45 91.4342 10.45C93.8342 10.45 95.9842 11.0167 97.8842 12.15C99.8175 13.25 101.318 14.7833 102.384 16.75C103.484 18.7167 104.034 21.0167 104.034 23.65C104.034 26.2833 103.484 28.5833 102.384 30.55C101.284 32.5167 99.7675 34.0667 97.8342 35.2C95.9342 36.3 93.7842 36.85 91.3842 36.85ZM91.3842 31.7C92.5842 31.7 93.6675 31.4 94.6342 30.8C95.6342 30.2 96.4342 29.3 97.0342 28.1C97.6342 26.9 97.9342 25.4167 97.9342 23.65C97.9342 21.8833 97.6342 20.4167 97.0342 19.25C96.4675 18.05 95.6842 17.15 94.6842 16.55C93.7175 15.95 92.6342 15.65 91.4342 15.65C90.2675 15.65 89.1842 15.95 88.1842 16.55C87.1842 17.15 86.3842 18.05 85.7842 19.25C85.1842 20.4167 84.8842 21.8833 84.8842 23.65C84.8842 25.4167 85.1842 26.9 85.7842 28.1C86.3842 29.3 87.1675 30.2 88.1342 30.8C89.1342 31.4 90.2175 31.7 91.3842 31.7ZM109.908 36.25V11.05H115.258L115.808 15.75C116.408 14.65 117.158 13.7167 118.058 12.95C118.958 12.15 120.008 11.5333 121.208 11.1C122.441 10.6667 123.791 10.45 125.258 10.45V16.8H123.158C122.158 16.8 121.208 16.9333 120.308 17.2C119.408 17.4333 118.624 17.8333 117.958 18.4C117.324 18.9333 116.824 19.6833 116.458 20.65C116.091 21.5833 115.908 22.7667 115.908 24.2V36.25H109.908ZM130.031 36.25V11.05H136.031V36.25H130.031ZM133.031 7.05C131.931 7.05 131.014 6.71666 130.281 6.05C129.581 5.35 129.231 4.5 129.231 3.5C129.231 2.46666 129.581 1.63333 130.281 0.999998C131.014 0.333332 131.931 -1.19209e-06 133.031 -1.19209e-06C134.131 -1.19209e-06 135.031 0.333332 135.731 0.999998C136.464 1.63333 136.831 2.46666 136.831 3.5C136.831 4.5 136.464 5.35 135.731 6.05C135.031 6.71666 134.131 7.05 133.031 7.05ZM153.914 36.25C152.214 36.25 150.731 35.9833 149.464 35.45C148.231 34.9167 147.264 34.0333 146.564 32.8C145.864 31.5667 145.514 29.9 145.514 27.8V16.1H141.214V11.05H145.514L146.214 4.4H151.514V11.05H158.364V16.1H151.514V27.8C151.514 29.0667 151.781 29.95 152.314 30.45C152.881 30.9167 153.814 31.15 155.114 31.15H158.214V36.25H153.914ZM175.124 36.85C172.724 36.85 170.558 36.3 168.624 35.2C166.724 34.0667 165.224 32.5167 164.124 30.55C163.058 28.55 162.524 26.2667 162.524 23.7C162.524 21.0667 163.074 18.7667 164.174 16.8C165.274 14.8 166.774 13.25 168.674 12.15C170.608 11.0167 172.774 10.45 175.174 10.45C177.574 10.45 179.724 11.0167 181.624 12.15C183.558 13.25 185.058 14.7833 186.124 16.75C187.224 18.7167 187.774 21.0167 187.774 23.65C187.774 26.2833 187.224 28.5833 186.124 30.55C185.024 32.5167 183.508 34.0667 181.574 35.2C179.674 36.3 177.524 36.85 175.124 36.85ZM175.124 31.7C176.324 31.7 177.408 31.4 178.374 30.8C179.374 30.2 180.174 29.3 180.774 28.1C181.374 26.9 181.674 25.4167 181.674 23.65C181.674 21.8833 181.374 20.4167 180.774 19.25C180.208 18.05 179.424 17.15 178.424 16.55C177.458 15.95 176.374 15.65 175.174 15.65C174.008 15.65 172.924 15.95 171.924 16.55C170.924 17.15 170.124 18.05 169.524 19.25C168.924 20.4167 168.624 21.8833 168.624 23.65C168.624 25.4167 168.924 26.9 169.524 28.1C170.124 29.3 170.908 30.2 171.874 30.8C172.874 31.4 173.958 31.7 175.124 31.7ZM203.698 36.85C201.465 36.85 199.515 36.5 197.848 35.8C196.215 35.0667 194.915 34.0667 193.948 32.8C193.015 31.5 192.465 30.0167 192.298 28.35H198.298C198.465 29.05 198.765 29.7 199.198 30.3C199.631 30.8667 200.215 31.3167 200.948 31.65C201.715 31.9833 202.615 32.15 203.648 32.15C204.648 32.15 205.465 32.0167 206.098 31.75C206.731 31.45 207.198 31.0667 207.498 30.6C207.798 30.1333 207.948 29.6333 207.948 29.1C207.948 28.3 207.731 27.6833 207.298 27.25C206.865 26.8167 206.231 26.4833 205.398 26.25C204.598 25.9833 203.631 25.7333 202.498 25.5C201.298 25.2667 200.131 24.9833 198.998 24.65C197.898 24.2833 196.898 23.8333 195.998 23.3C195.131 22.7667 194.431 22.0833 193.898 21.25C193.398 20.4167 193.148 19.4 193.148 18.2C193.148 16.7333 193.531 15.4167 194.298 14.25C195.098 13.0833 196.231 12.1667 197.698 11.5C199.198 10.8 200.981 10.45 203.048 10.45C205.981 10.45 208.315 11.1333 210.048 12.5C211.815 13.8333 212.848 15.7167 213.148 18.15H207.448C207.281 17.2167 206.815 16.5 206.048 16C205.281 15.4667 204.265 15.2 202.998 15.2C201.698 15.2 200.698 15.45 199.998 15.95C199.331 16.4167 198.998 17.05 198.998 17.85C198.998 18.35 199.198 18.8167 199.598 19.25C200.031 19.65 200.648 20 201.448 20.3C202.248 20.5667 203.231 20.8333 204.398 21.1C206.265 21.4667 207.915 21.9 209.348 22.4C210.781 22.9 211.915 23.6333 212.748 24.6C213.581 25.5667 213.998 26.9333 213.998 28.7C214.031 30.3 213.615 31.7167 212.748 32.95C211.915 34.1833 210.731 35.15 209.198 35.85C207.665 36.5167 205.831 36.85 203.698 36.85Z" fill="#333333"/>
<path d="M243.227 36.85C240.893 36.85 238.81 36.2833 236.977 35.15C235.143 34.0167 233.71 32.45 232.677 30.45C231.677 28.45 231.177 26.1833 231.177 23.65C231.177 21.1167 231.693 18.8667 232.727 16.9C233.76 14.9 235.193 13.3333 237.027 12.2C238.893 11.0333 240.993 10.45 243.327 10.45C245.227 10.45 246.877 10.8167 248.277 11.55C249.71 12.25 250.843 13.25 251.677 14.55V0.249999H257.677V36.25H252.277L251.677 32.6C251.143 33.3333 250.493 34.0333 249.727 34.7C248.96 35.3333 248.043 35.85 246.977 36.25C245.91 36.65 244.66 36.85 243.227 36.85ZM244.477 31.65C245.91 31.65 247.177 31.3167 248.277 30.65C249.377 29.95 250.227 29 250.827 27.8C251.427 26.6 251.727 25.2167 251.727 23.65C251.727 22.0833 251.427 20.7 250.827 19.5C250.227 18.3 249.377 17.3667 248.277 16.7C247.177 16.0333 245.91 15.7 244.477 15.7C243.11 15.7 241.877 16.0333 240.777 16.7C239.677 17.3667 238.81 18.3 238.177 19.5C237.577 20.7 237.277 22.0833 237.277 23.65C237.277 25.2167 237.577 26.6 238.177 27.8C238.81 29 239.677 29.95 240.777 30.65C241.877 31.3167 243.11 31.65 244.477 31.65ZM276.151 36.85C273.651 36.85 271.451 36.3167 269.551 35.25C267.651 34.15 266.168 32.6167 265.101 30.65C264.034 28.6833 263.501 26.4167 263.501 23.85C263.501 21.1833 264.018 18.85 265.051 16.85C266.118 14.85 267.601 13.2833 269.501 12.15C271.434 11.0167 273.668 10.45 276.201 10.45C278.668 10.45 280.818 11 282.651 12.1C284.484 13.2 285.901 14.6833 286.901 16.55C287.901 18.3833 288.401 20.45 288.401 22.75C288.401 23.0833 288.401 23.45 288.401 23.85C288.401 24.25 288.368 24.6667 288.301 25.1H267.801V21.25H282.351C282.284 19.4167 281.668 17.9833 280.501 16.95C279.334 15.8833 277.884 15.35 276.151 15.35C274.918 15.35 273.784 15.6333 272.751 16.2C271.718 16.7667 270.901 17.6167 270.301 18.75C269.701 19.85 269.401 21.25 269.401 22.95V24.4C269.401 25.9667 269.684 27.3167 270.251 28.45C270.851 29.5833 271.651 30.45 272.651 31.05C273.684 31.6167 274.834 31.9 276.101 31.9C277.501 31.9 278.651 31.6 279.551 31C280.484 30.4 281.168 29.6 281.601 28.6H287.701C287.234 30.1667 286.468 31.5833 285.401 32.85C284.334 34.0833 283.018 35.0667 281.451 35.8C279.884 36.5 278.118 36.85 276.151 36.85ZM293.941 36.25V0.249999H299.941V36.25H293.941ZM318.843 36.25V11.05H324.143L324.643 14.5C325.443 13.2333 326.493 12.25 327.793 11.55C329.126 10.8167 330.643 10.45 332.343 10.45C333.61 10.45 334.743 10.6167 335.743 10.95C336.776 11.2833 337.676 11.7833 338.443 12.45C339.243 13.1167 339.893 13.95 340.393 14.95C341.326 13.55 342.543 12.45 344.043 11.65C345.543 10.85 347.176 10.45 348.943 10.45C351.043 10.45 352.826 10.8833 354.293 11.75C355.76 12.5833 356.877 13.8333 357.643 15.5C358.41 17.1333 358.793 19.15 358.793 21.55V36.25H352.843V22.15C352.843 20.0167 352.41 18.3833 351.543 17.25C350.676 16.1167 349.393 15.55 347.693 15.55C346.526 15.55 345.493 15.8333 344.593 16.4C343.726 16.9667 343.043 17.8 342.543 18.9C342.043 19.9667 341.793 21.2833 341.793 22.85V36.25H335.843V22.15C335.843 20.0167 335.41 18.3833 334.543 17.25C333.676 16.1167 332.376 15.55 330.643 15.55C329.543 15.55 328.543 15.8333 327.643 16.4C326.776 16.9667 326.093 17.8 325.593 18.9C325.093 19.9667 324.843 21.2833 324.843 22.85V36.25H318.843ZM376.882 36.85C374.482 36.85 372.316 36.3 370.382 35.2C368.482 34.0667 366.982 32.5167 365.882 30.55C364.816 28.55 364.282 26.2667 364.282 23.7C364.282 21.0667 364.832 18.7667 365.932 16.8C367.032 14.8 368.532 13.25 370.432 12.15C372.366 11.0167 374.532 10.45 376.932 10.45C379.332 10.45 381.482 11.0167 383.382 12.15C385.316 13.25 386.816 14.7833 387.882 16.75C388.982 18.7167 389.532 21.0167 389.532 23.65C389.532 26.2833 388.982 28.5833 387.882 30.55C386.782 32.5167 385.266 34.0667 383.332 35.2C381.432 36.3 379.282 36.85 376.882 36.85ZM376.882 31.7C378.082 31.7 379.166 31.4 380.132 30.8C381.132 30.2 381.932 29.3 382.532 28.1C383.132 26.9 383.432 25.4167 383.432 23.65C383.432 21.8833 383.132 20.4167 382.532 19.25C381.966 18.05 381.182 17.15 380.182 16.55C379.216 15.95 378.132 15.65 376.932 15.65C375.766 15.65 374.682 15.95 373.682 16.55C372.682 17.15 371.882 18.05 371.282 19.25C370.682 20.4167 370.382 21.8833 370.382 23.65C370.382 25.4167 370.682 26.9 371.282 28.1C371.882 29.3 372.666 30.2 373.632 30.8C374.632 31.4 375.716 31.7 376.882 31.7ZM395.406 36.25V11.05H400.706L401.206 14.5C402.006 13.2333 403.056 12.25 404.356 11.55C405.689 10.8167 407.206 10.45 408.906 10.45C410.172 10.45 411.306 10.6167 412.306 10.95C413.339 11.2833 414.239 11.7833 415.006 12.45C415.806 13.1167 416.456 13.95 416.956 14.95C417.889 13.55 419.106 12.45 420.606 11.65C422.106 10.85 423.739 10.45 425.506 10.45C427.606 10.45 429.389 10.8833 430.856 11.75C432.322 12.5833 433.439 13.8333 434.206 15.5C434.972 17.1333 435.356 19.15 435.356 21.55V36.25H429.406V22.15C429.406 20.0167 428.972 18.3833 428.106 17.25C427.239 16.1167 425.956 15.55 424.256 15.55C423.089 15.55 422.056 15.8333 421.156 16.4C420.289 16.9667 419.606 17.8 419.106 18.9C418.606 19.9667 418.356 21.2833 418.356 22.85V36.25H412.406V22.15C412.406 20.0167 411.972 18.3833 411.106 17.25C410.239 16.1167 408.939 15.55 407.206 15.55C406.106 15.55 405.106 15.8333 404.206 16.4C403.339 16.9667 402.656 17.8 402.156 18.9C401.656 19.9667 401.406 21.2833 401.406 22.85V36.25H395.406ZM453.495 36.85C450.995 36.85 448.795 36.3167 446.895 35.25C444.995 34.15 443.511 32.6167 442.445 30.65C441.378 28.6833 440.845 26.4167 440.845 23.85C440.845 21.1833 441.361 18.85 442.395 16.85C443.461 14.85 444.945 13.2833 446.845 12.15C448.778 11.0167 451.011 10.45 453.545 10.45C456.011 10.45 458.161 11 459.995 12.1C461.828 13.2 463.245 14.6833 464.245 16.55C465.245 18.3833 465.745 20.45 465.745 22.75C465.745 23.0833 465.745 23.45 465.745 23.85C465.745 24.25 465.711 24.6667 465.645 25.1H445.145V21.25H459.695C459.628 19.4167 459.011 17.9833 457.845 16.95C456.678 15.8833 455.228 15.35 453.495 15.35C452.261 15.35 451.128 15.6333 450.095 16.2C449.061 16.7667 448.245 17.6167 447.645 18.75C447.045 19.85 446.745 21.25 446.745 22.95V24.4C446.745 25.9667 447.028 27.3167 447.595 28.45C448.195 29.5833 448.995 30.45 449.995 31.05C451.028 31.6167 452.178 31.9 453.445 31.9C454.845 31.9 455.995 31.6 456.895 31C457.828 30.4 458.511 29.6 458.945 28.6H465.045C464.578 30.1667 463.811 31.5833 462.745 32.85C461.678 34.0833 460.361 35.0667 458.795 35.8C457.228 36.5 455.461 36.85 453.495 36.85ZM471.285 36.25V11.05H476.585L477.035 15.25C477.801 13.7833 478.901 12.6167 480.335 11.75C481.768 10.8833 483.468 10.45 485.435 10.45C487.468 10.45 489.201 10.8833 490.635 11.75C492.068 12.5833 493.168 13.8167 493.935 15.45C494.735 17.0833 495.135 19.1167 495.135 21.55V36.25H489.135V22.1C489.135 20 488.668 18.3833 487.735 17.25C486.801 16.1167 485.418 15.55 483.585 15.55C482.385 15.55 481.301 15.8333 480.335 16.4C479.401 16.9667 478.651 17.8 478.085 18.9C477.551 19.9667 477.285 21.2667 477.285 22.8V36.25H471.285ZM512.41 36.25C510.71 36.25 509.227 35.9833 507.96 35.45C506.727 34.9167 505.76 34.0333 505.06 32.8C504.36 31.5667 504.01 29.9 504.01 27.8V16.1H499.71V11.05H504.01L504.71 4.4H510.01V11.05H516.86V16.1H510.01V27.8C510.01 29.0667 510.277 29.95 510.81 30.45C511.377 30.9167 512.31 31.15 513.61 31.15H516.71V36.25H512.41ZM533.621 36.85C531.221 36.85 529.054 36.3 527.121 35.2C525.221 34.0667 523.721 32.5167 522.621 30.55C521.554 28.55 521.021 26.2667 521.021 23.7C521.021 21.0667 521.571 18.7667 522.671 16.8C523.771 14.8 525.271 13.25 527.171 12.15C529.104 11.0167 531.271 10.45 533.671 10.45C536.071 10.45 538.221 11.0167 540.121 12.15C542.054 13.25 543.554 14.7833 544.621 16.75C545.721 18.7167 546.271 21.0167 546.271 23.65C546.271 26.2833 545.721 28.5833 544.621 30.55C543.521 32.5167 542.004 34.0667 540.071 35.2C538.171 36.3 536.021 36.85 533.621 36.85ZM533.621 31.7C534.821 31.7 535.904 31.4 536.871 30.8C537.871 30.2 538.671 29.3 539.271 28.1C539.871 26.9 540.171 25.4167 540.171 23.65C540.171 21.8833 539.871 20.4167 539.271 19.25C538.704 18.05 537.921 17.15 536.921 16.55C535.954 15.95 534.871 15.65 533.671 15.65C532.504 15.65 531.421 15.95 530.421 16.55C529.421 17.15 528.621 18.05 528.021 19.25C527.421 20.4167 527.121 21.8833 527.121 23.65C527.121 25.4167 527.421 26.9 528.021 28.1C528.621 29.3 529.404 30.2 530.371 30.8C531.371 31.4 532.454 31.7 533.621 31.7Z" fill="#2AB5B6"/>
</svg>
