<svg width="63" height="62" viewBox="0 0 63 62" fill="none" xmlns="http://www.w3.org/2000/svg">
<g filter="url(#filter0_d_1754_7095)">
<ellipse cx="30.5" cy="26" rx="21.5" ry="21" fill="white"/>
</g>
<path d="M37.9357 17.515C35.3293 16.4478 32.5603 17.0843 30.4941 19.2141C28.2543 16.9057 25.1915 16.3555 22.4552 17.7848C18.5317 19.9548 18.2792 24.3835 20.0576 27.6349C20.8054 29.0453 21.9296 30.3244 23.4944 31.5442L30.4941 37L38.0498 31.0793C39.1484 30.2191 40.0674 29.1234 40.9415 27.6314L40.9451 27.6243C41.6286 26.3204 41.9636 25.1088 41.9976 23.8108C42.0704 21.0646 40.4777 18.5929 37.9357 17.515Z" fill="#00A5A3"/>
<defs>
<filter id="filter0_d_1754_7095" x="0" y="0" width="63" height="62" filterUnits="userSpaceOnUse" color-interpolation-filters="sRGB">
<feFlood flood-opacity="0" result="BackgroundImageFix"/>
<feColorMatrix in="SourceAlpha" type="matrix" values="0 0 0 0 0 0 0 0 0 0 0 0 0 0 0 0 0 0 127 0" result="hardAlpha"/>
<feMorphology radius="1" operator="dilate" in="SourceAlpha" result="effect1_dropShadow_1754_7095"/>
<feOffset dx="1" dy="5"/>
<feGaussianBlur stdDeviation="4.5"/>
<feComposite in2="hardAlpha" operator="out"/>
<feColorMatrix type="matrix" values="0 0 0 0 0 0 0 0 0 0 0 0 0 0 0 0 0 0 0.17 0"/>
<feBlend mode="normal" in2="BackgroundImageFix" result="effect1_dropShadow_1754_7095"/>
<feBlend mode="normal" in="SourceGraphic" in2="effect1_dropShadow_1754_7095" result="shape"/>
</filter>
</defs>
</svg>
