<svg width="275" height="76" viewBox="0 0 275 76" fill="none" xmlns="http://www.w3.org/2000/svg">
<g filter="url(#filter0_d_1992_7017)">
<rect x="4" y="2" width="267" height="68" rx="34" fill="#FF705A" fill-opacity="0.2" shape-rendering="crispEdges"/>
</g>
<rect x="9" y="8" width="256" height="56" rx="28" fill="#FF705A"/>
<path d="M44.51 43L38.599 26.9H41.566L46.189 40.171L50.881 26.9H53.802L47.868 43H44.51ZM59.7542 43.276C58.6042 43.276 57.5922 43.0307 56.7182 42.54C55.8442 42.034 55.1618 41.3287 54.6712 40.424C54.1805 39.5193 53.9352 38.4767 53.9352 37.296C53.9352 36.0693 54.1728 34.996 54.6482 34.076C55.1388 33.156 55.8212 32.4353 56.6952 31.914C57.5845 31.3927 58.6118 31.132 59.7772 31.132C60.9118 31.132 61.9008 31.385 62.7442 31.891C63.5875 32.397 64.2392 33.0793 64.6992 33.938C65.1592 34.7813 65.3892 35.732 65.3892 36.79C65.3892 36.9433 65.3892 37.112 65.3892 37.296C65.3892 37.48 65.3738 37.6717 65.3432 37.871H55.9132V36.1H62.6062C62.5755 35.2567 62.2918 34.5973 61.7552 34.122C61.2185 33.6313 60.5515 33.386 59.7542 33.386C59.1868 33.386 58.6655 33.5163 58.1902 33.777C57.7148 34.0377 57.3392 34.4287 57.0632 34.95C56.7872 35.456 56.6492 36.1 56.6492 36.882V37.549C56.6492 38.2697 56.7795 38.8907 57.0402 39.412C57.3162 39.9333 57.6842 40.332 58.1442 40.608C58.6195 40.8687 59.1485 40.999 59.7312 40.999C60.3752 40.999 60.9042 40.861 61.3182 40.585C61.7475 40.309 62.0618 39.941 62.2612 39.481H65.0672C64.8525 40.2017 64.4998 40.8533 64.0092 41.436C63.5185 42.0033 62.9128 42.4557 62.1922 42.793C61.4715 43.115 60.6588 43.276 59.7542 43.276ZM67.9375 43V31.408H70.3985L70.6515 33.57C70.9275 33.064 71.2725 32.6347 71.6865 32.282C72.1005 31.914 72.5835 31.6303 73.1355 31.431C73.7028 31.2317 74.3238 31.132 74.9985 31.132V34.053H74.0325C73.5725 34.053 73.1355 34.1143 72.7215 34.237C72.3075 34.3443 71.9472 34.5283 71.6405 34.789C71.3492 35.0343 71.1192 35.3793 70.9505 35.824C70.7818 36.2533 70.6975 36.7977 70.6975 37.457V43H67.9375ZM88.1913 43.276C87.0567 43.276 86.037 43.023 85.1323 42.517C84.243 41.9957 83.5453 41.2827 83.0393 40.378C82.5487 39.458 82.3033 38.4153 82.3033 37.25C82.3033 36.0387 82.5487 34.9807 83.0393 34.076C83.5453 33.156 84.243 32.4353 85.1323 31.914C86.037 31.3927 87.0643 31.132 88.2143 31.132C89.6557 31.132 90.867 31.5153 91.8483 32.282C92.8297 33.0333 93.4583 34.0683 93.7343 35.387H90.8363C90.683 34.8043 90.361 34.3443 89.8703 34.007C89.395 33.6697 88.8277 33.501 88.1683 33.501C87.601 33.501 87.0797 33.6467 86.6043 33.938C86.1443 34.2293 85.7763 34.651 85.5003 35.203C85.2397 35.755 85.1093 36.422 85.1093 37.204C85.1093 37.802 85.186 38.331 85.3393 38.791C85.4927 39.251 85.7073 39.642 85.9833 39.964C86.2747 40.2707 86.6043 40.5083 86.9723 40.677C87.3403 40.8457 87.739 40.93 88.1683 40.93C88.613 40.93 89.0117 40.861 89.3643 40.723C89.7323 40.5697 90.039 40.3473 90.2843 40.056C90.545 39.7647 90.729 39.4197 90.8363 39.021H93.7343C93.4583 40.309 92.8297 41.344 91.8483 42.126C90.867 42.8927 89.648 43.276 88.1913 43.276ZM100.259 43.276C99.3088 43.276 98.5192 43.115 97.8905 42.793C97.2618 42.471 96.7942 42.0417 96.4875 41.505C96.1808 40.9683 96.0275 40.3857 96.0275 39.757C96.0275 39.021 96.2115 38.3847 96.5795 37.848C96.9628 37.3113 97.5225 36.8973 98.2585 36.606C98.9945 36.2993 99.8992 36.146 100.972 36.146H103.893C103.893 35.5327 103.809 35.0267 103.64 34.628C103.472 34.214 103.211 33.9073 102.858 33.708C102.506 33.5087 102.053 33.409 101.501 33.409C100.873 33.409 100.336 33.5547 99.8915 33.846C99.4468 34.122 99.1708 34.5513 99.0635 35.134H96.3495C96.4415 34.306 96.7175 33.6007 97.1775 33.018C97.6375 32.42 98.2432 31.96 98.9945 31.638C99.7612 31.3007 100.597 31.132 101.501 31.132C102.59 31.132 103.518 31.3237 104.284 31.707C105.051 32.075 105.634 32.6117 106.032 33.317C106.446 34.007 106.653 34.8427 106.653 35.824V43H104.307L104.031 41.137C103.878 41.4437 103.679 41.7273 103.433 41.988C103.203 42.2487 102.935 42.4787 102.628 42.678C102.322 42.862 101.969 43.0077 101.57 43.115C101.187 43.2223 100.75 43.276 100.259 43.276ZM100.88 41.091C101.325 41.091 101.716 41.0143 102.053 40.861C102.406 40.6923 102.705 40.4623 102.95 40.171C103.211 39.8643 103.41 39.527 103.548 39.159C103.686 38.791 103.778 38.4 103.824 37.986V37.94H101.271C100.735 37.94 100.29 38.009 99.9375 38.147C99.5848 38.2697 99.3318 38.4537 99.1785 38.699C99.0252 38.9443 98.9485 39.228 98.9485 39.55C98.9485 39.872 99.0252 40.148 99.1785 40.378C99.3318 40.608 99.5542 40.7843 99.8455 40.907C100.137 41.0297 100.482 41.091 100.88 41.091ZM114.46 43C113.678 43 112.996 42.8773 112.413 42.632C111.846 42.3867 111.401 41.9803 111.079 41.413C110.757 40.8457 110.596 40.079 110.596 39.113V33.731H108.618V31.408H110.596L110.918 28.349H113.356V31.408H116.507V33.731H113.356V39.113C113.356 39.6957 113.479 40.102 113.724 40.332C113.985 40.5467 114.414 40.654 115.012 40.654H116.438V43H114.46ZM122.968 43.276C122.017 43.276 121.227 43.115 120.598 42.793C119.97 42.471 119.502 42.0417 119.196 41.505C118.889 40.9683 118.736 40.3857 118.736 39.757C118.736 39.021 118.92 38.3847 119.288 37.848C119.671 37.3113 120.231 36.8973 120.967 36.606C121.703 36.2993 122.607 36.146 123.681 36.146H126.602C126.602 35.5327 126.517 35.0267 126.349 34.628C126.18 34.214 125.919 33.9073 125.567 33.708C125.214 33.5087 124.762 33.409 124.21 33.409C123.581 33.409 123.044 33.5547 122.6 33.846C122.155 34.122 121.879 34.5513 121.772 35.134H119.058C119.15 34.306 119.426 33.6007 119.886 33.018C120.346 32.42 120.951 31.96 121.703 31.638C122.469 31.3007 123.305 31.132 124.21 31.132C125.298 31.132 126.226 31.3237 126.993 31.707C127.759 32.075 128.342 32.6117 128.741 33.317C129.155 34.007 129.362 34.8427 129.362 35.824V43H127.016L126.74 41.137C126.586 41.4437 126.387 41.7273 126.142 41.988C125.912 42.2487 125.643 42.4787 125.337 42.678C125.03 42.862 124.677 43.0077 124.279 43.115C123.895 43.2223 123.458 43.276 122.968 43.276ZM123.589 41.091C124.033 41.091 124.424 41.0143 124.762 40.861C125.114 40.6923 125.413 40.4623 125.659 40.171C125.919 39.8643 126.119 39.527 126.257 39.159C126.395 38.791 126.487 38.4 126.533 37.986V37.94H123.98C123.443 37.94 122.998 38.009 122.646 38.147C122.293 38.2697 122.04 38.4537 121.887 38.699C121.733 38.9443 121.657 39.228 121.657 39.55C121.657 39.872 121.733 40.148 121.887 40.378C122.04 40.608 122.262 40.7843 122.554 40.907C122.845 41.0297 123.19 41.091 123.589 41.091ZM121.703 30.419L121.45 28.556L126.372 25.681L126.694 27.82L121.703 30.419ZM132.311 43V26.44H135.071V43H132.311ZM143.555 43.276C142.451 43.276 141.455 43.023 140.565 42.517C139.691 41.9957 139.001 41.2827 138.495 40.378C138.005 39.458 137.759 38.4077 137.759 37.227C137.759 36.0157 138.012 34.9577 138.518 34.053C139.024 33.133 139.714 32.42 140.588 31.914C141.478 31.3927 142.474 31.132 143.578 31.132C144.682 31.132 145.671 31.3927 146.545 31.914C147.435 32.42 148.125 33.1253 148.615 34.03C149.121 34.9347 149.374 35.9927 149.374 37.204C149.374 38.4153 149.121 39.4733 148.615 40.378C148.109 41.2827 147.412 41.9957 146.522 42.517C145.648 43.023 144.659 43.276 143.555 43.276ZM143.555 40.907C144.107 40.907 144.606 40.769 145.05 40.493C145.51 40.217 145.878 39.803 146.154 39.251C146.43 38.699 146.568 38.0167 146.568 37.204C146.568 36.3913 146.43 35.7167 146.154 35.18C145.894 34.628 145.533 34.214 145.073 33.938C144.629 33.662 144.13 33.524 143.578 33.524C143.042 33.524 142.543 33.662 142.083 33.938C141.623 34.214 141.255 34.628 140.979 35.18C140.703 35.7167 140.565 36.3913 140.565 37.204C140.565 38.0167 140.703 38.699 140.979 39.251C141.255 39.803 141.616 40.217 142.06 40.493C142.52 40.769 143.019 40.907 143.555 40.907ZM156.278 48.336C155.19 48.336 154.231 48.198 153.403 47.922C152.591 47.6613 151.954 47.255 151.494 46.703C151.05 46.1663 150.827 45.4917 150.827 44.679C150.827 44.2037 150.942 43.736 151.172 43.276C151.418 42.8313 151.778 42.4173 152.253 42.034C152.744 41.6353 153.365 41.2903 154.116 40.999L155.335 42.333C154.599 42.5937 154.086 42.908 153.794 43.276C153.503 43.644 153.357 44.0197 153.357 44.403C153.357 44.8017 153.48 45.1313 153.725 45.392C153.986 45.668 154.331 45.875 154.76 46.013C155.205 46.151 155.703 46.22 156.255 46.22C156.792 46.22 157.26 46.1433 157.658 45.99C158.057 45.852 158.364 45.6527 158.578 45.392C158.808 45.1313 158.923 44.817 158.923 44.449C158.923 43.989 158.762 43.6133 158.44 43.322C158.118 43.046 157.482 42.8773 156.531 42.816C155.719 42.7547 155.006 42.6703 154.392 42.563C153.779 42.4403 153.25 42.3023 152.805 42.149C152.376 41.9957 152.008 41.827 151.701 41.643C151.395 41.4437 151.142 41.2443 150.942 41.045V40.516L153.357 37.986L155.404 38.653L152.69 41.298L153.403 39.964C153.557 40.0713 153.71 40.171 153.863 40.263C154.032 40.355 154.239 40.4393 154.484 40.516C154.745 40.5773 155.082 40.6387 155.496 40.7C155.91 40.7613 156.447 40.8227 157.106 40.884C158.134 40.9607 158.969 41.1447 159.613 41.436C160.257 41.7273 160.733 42.1183 161.039 42.609C161.346 43.0997 161.499 43.69 161.499 44.38C161.499 45.0547 161.308 45.691 160.924 46.289C160.556 46.887 159.989 47.3777 159.222 47.761C158.456 48.1443 157.474 48.336 156.278 48.336ZM156.278 39.527C155.312 39.527 154.477 39.343 153.771 38.975C153.081 38.5917 152.552 38.0857 152.184 37.457C151.816 36.813 151.632 36.1077 151.632 35.341C151.632 34.559 151.816 33.8537 152.184 33.225C152.552 32.5963 153.081 32.0903 153.771 31.707C154.477 31.3237 155.312 31.132 156.278 31.132C157.244 31.132 158.072 31.3237 158.762 31.707C159.452 32.0903 159.981 32.5963 160.349 33.225C160.717 33.8537 160.901 34.559 160.901 35.341C160.901 36.1077 160.717 36.813 160.349 37.457C159.981 38.0857 159.452 38.5917 158.762 38.975C158.072 39.343 157.244 39.527 156.278 39.527ZM156.278 37.388C156.938 37.388 157.467 37.2117 157.865 36.859C158.264 36.5063 158.463 36.0003 158.463 35.341C158.463 34.6817 158.264 34.1833 157.865 33.846C157.467 33.4933 156.938 33.317 156.278 33.317C155.619 33.317 155.082 33.4933 154.668 33.846C154.254 34.1833 154.047 34.6817 154.047 35.341C154.047 36.0003 154.254 36.5063 154.668 36.859C155.082 37.2117 155.619 37.388 156.278 37.388ZM158.187 33.432L157.658 31.408H162.419V33.133L158.187 33.432ZM169.812 43.276C168.708 43.276 167.712 43.023 166.822 42.517C165.948 41.9957 165.258 41.2827 164.752 40.378C164.262 39.458 164.016 38.4077 164.016 37.227C164.016 36.0157 164.269 34.9577 164.775 34.053C165.281 33.133 165.971 32.42 166.845 31.914C167.735 31.3927 168.731 31.132 169.835 31.132C170.939 31.132 171.928 31.3927 172.802 31.914C173.692 32.42 174.382 33.1253 174.872 34.03C175.378 34.9347 175.631 35.9927 175.631 37.204C175.631 38.4153 175.378 39.4733 174.872 40.378C174.366 41.2827 173.669 41.9957 172.779 42.517C171.905 43.023 170.916 43.276 169.812 43.276ZM169.812 40.907C170.364 40.907 170.863 40.769 171.307 40.493C171.767 40.217 172.135 39.803 172.411 39.251C172.687 38.699 172.825 38.0167 172.825 37.204C172.825 36.3913 172.687 35.7167 172.411 35.18C172.151 34.628 171.79 34.214 171.33 33.938C170.886 33.662 170.387 33.524 169.835 33.524C169.299 33.524 168.8 33.662 168.34 33.938C167.88 34.214 167.512 34.628 167.236 35.18C166.96 35.7167 166.822 36.3913 166.822 37.204C166.822 38.0167 166.96 38.699 167.236 39.251C167.512 39.803 167.873 40.217 168.317 40.493C168.777 40.769 169.276 40.907 169.812 40.907Z" fill="white"/>
<path d="M235.5 34.0519C236.328 34.0519 237 34.7235 237 35.5519C237 36.3803 236.328 37.0519 235.5 37.0519H218.5C217.672 37.0519 217 36.3803 217 35.5519C217 34.7235 217.672 34.0519 218.5 34.0519H235.5Z" fill="white"/>
<path d="M236.738 34.119C237.305 34.7233 237.274 35.6726 236.67 36.2392C236.065 36.8058 235.116 36.7752 234.549 36.1709L227.026 28.1462C226.459 27.5418 226.49 26.5926 227.094 26.0259C227.699 25.4593 228.648 25.4899 229.214 26.0943L236.738 34.119Z" fill="white"/>
<path d="M234.591 34.314C235.115 33.6727 236.06 33.5779 236.701 34.1023C237.343 34.6268 237.437 35.5718 236.913 36.2131L229.95 44.7284C229.425 45.3698 228.48 45.4645 227.839 44.9401C227.198 44.4157 227.103 43.4707 227.627 42.8294L234.591 34.314Z" fill="white"/>
<defs>
<filter id="filter0_d_1992_7017" x="0" y="0" width="275" height="76" filterUnits="userSpaceOnUse" color-interpolation-filters="sRGB">
<feFlood flood-opacity="0" result="BackgroundImageFix"/>
<feColorMatrix in="SourceAlpha" type="matrix" values="0 0 0 0 0 0 0 0 0 0 0 0 0 0 0 0 0 0 127 0" result="hardAlpha"/>
<feOffset dy="2"/>
<feGaussianBlur stdDeviation="2"/>
<feComposite in2="hardAlpha" operator="out"/>
<feColorMatrix type="matrix" values="0 0 0 0 0.988235 0 0 0 0 0.486275 0 0 0 0 0.407843 0 0 0 0.62 0"/>
<feBlend mode="normal" in2="BackgroundImageFix" result="effect1_dropShadow_1992_7017"/>
<feBlend mode="normal" in="BackgroundImageFix" in2="effect1_dropShadow_1992_7017" result="BackgroundImageFix"/>
<feBlend mode="normal" in="SourceGraphic" in2="BackgroundImageFix" result="shape"/>
</filter>
</defs>
</svg>
