<svg width="208" height="55" viewBox="0 0 208 55" fill="none" xmlns="http://www.w3.org/2000/svg">
<rect width="208" height="55" rx="27.5" fill="#ECF9F9"/>
<path d="M72.241 33V21.1H79.755V22.494H73.941V26.302H79.245V27.662H73.941V31.606H79.755V33H72.241ZM80.8819 33L83.8399 28.716L80.8819 24.432H82.7179L84.9619 27.764L87.2229 24.432H89.0419L86.0839 28.716L89.0419 33H87.2229L84.9619 29.651L82.7179 33H80.8819ZM90.3599 36.74V24.432H91.8899L92.0599 25.758C92.2413 25.4973 92.4679 25.2537 92.7399 25.027C93.0119 24.789 93.3349 24.5963 93.7089 24.449C94.0943 24.3017 94.5419 24.228 95.0519 24.228C95.8679 24.228 96.5819 24.4263 97.1939 24.823C97.8173 25.2197 98.2989 25.758 98.6389 26.438C98.9903 27.1067 99.1659 27.8717 99.1659 28.733C99.1659 29.5943 98.9903 30.365 98.6389 31.045C98.2876 31.7137 97.8003 32.2407 97.1769 32.626C96.5649 33.0113 95.8509 33.204 95.0349 33.204C94.3663 33.204 93.7769 33.0737 93.2669 32.813C92.7569 32.541 92.3546 32.167 92.0599 31.691V36.74H90.3599ZM94.7629 31.725C95.2843 31.725 95.7433 31.6003 96.1399 31.351C96.5479 31.1017 96.8653 30.7503 97.0919 30.297C97.3299 29.8437 97.4489 29.3167 97.4489 28.716C97.4489 28.1153 97.3299 27.594 97.0919 27.152C96.8653 26.6987 96.5479 26.3473 96.1399 26.098C95.7433 25.8373 95.2843 25.707 94.7629 25.707C94.2303 25.707 93.7599 25.8373 93.3519 26.098C92.9553 26.3473 92.6436 26.6987 92.4169 27.152C92.1903 27.594 92.0769 28.1153 92.0769 28.716C92.0769 29.3167 92.1903 29.8437 92.4169 30.297C92.6436 30.7503 92.9553 31.1017 93.3519 31.351C93.7599 31.6003 94.2303 31.725 94.7629 31.725ZM100.981 33V20.76H102.681V33H100.981ZM108.755 33.204C107.95 33.204 107.225 33.017 106.579 32.643C105.944 32.269 105.44 31.7477 105.066 31.079C104.703 30.399 104.522 29.617 104.522 28.733C104.522 27.8263 104.709 27.0387 105.083 26.37C105.457 25.69 105.967 25.163 106.613 24.789C107.259 24.415 107.984 24.228 108.789 24.228C109.605 24.228 110.33 24.415 110.965 24.789C111.6 25.163 112.098 25.6843 112.461 26.353C112.835 27.0217 113.022 27.8093 113.022 28.716C113.022 29.6227 112.835 30.4103 112.461 31.079C112.098 31.7477 111.594 32.269 110.948 32.643C110.302 33.017 109.571 33.204 108.755 33.204ZM108.755 31.742C109.22 31.742 109.639 31.6287 110.013 31.402C110.398 31.1753 110.704 30.841 110.931 30.399C111.169 29.9457 111.288 29.3847 111.288 28.716C111.288 28.0473 111.175 27.492 110.948 27.05C110.721 26.5967 110.415 26.2567 110.03 26.03C109.656 25.8033 109.242 25.69 108.789 25.69C108.336 25.69 107.916 25.8033 107.531 26.03C107.146 26.2567 106.834 26.5967 106.596 27.05C106.369 27.492 106.256 28.0473 106.256 28.716C106.256 29.3847 106.369 29.9457 106.596 30.399C106.834 30.841 107.14 31.1753 107.514 31.402C107.899 31.6287 108.313 31.742 108.755 31.742ZM114.852 33V24.432H116.382L116.535 26.047C116.728 25.6617 116.977 25.3387 117.283 25.078C117.589 24.806 117.946 24.5963 118.354 24.449C118.773 24.3017 119.249 24.228 119.782 24.228V26.03H119.17C118.819 26.03 118.484 26.0753 118.167 26.166C117.85 26.2453 117.566 26.387 117.317 26.591C117.079 26.795 116.892 27.0727 116.756 27.424C116.62 27.7753 116.552 28.2117 116.552 28.733V33H114.852ZM124.012 33.204C123.309 33.204 122.726 33.085 122.261 32.847C121.796 32.609 121.451 32.2917 121.224 31.895C120.997 31.487 120.884 31.0507 120.884 30.586C120.884 30.0193 121.031 29.5377 121.326 29.141C121.621 28.733 122.04 28.4213 122.584 28.206C123.128 27.9907 123.78 27.883 124.539 27.883H126.766C126.766 27.3843 126.692 26.9707 126.545 26.642C126.398 26.3133 126.177 26.0697 125.882 25.911C125.599 25.741 125.236 25.656 124.794 25.656C124.284 25.656 123.848 25.7807 123.485 26.03C123.122 26.268 122.896 26.625 122.805 27.101H121.105C121.173 26.5003 121.377 25.9903 121.717 25.571C122.068 25.1403 122.516 24.8117 123.06 24.585C123.604 24.347 124.182 24.228 124.794 24.228C125.599 24.228 126.273 24.3697 126.817 24.653C127.361 24.9363 127.769 25.3387 128.041 25.86C128.324 26.37 128.466 26.982 128.466 27.696V33H126.987L126.851 31.555C126.726 31.7817 126.579 31.997 126.409 32.201C126.239 32.405 126.035 32.5807 125.797 32.728C125.57 32.8753 125.304 32.9887 124.998 33.068C124.703 33.1587 124.375 33.204 124.012 33.204ZM124.335 31.827C124.698 31.827 125.026 31.7533 125.321 31.606C125.616 31.4587 125.865 31.2603 126.069 31.011C126.284 30.7503 126.443 30.4613 126.545 30.144C126.658 29.8153 126.721 29.481 126.732 29.141V29.09H124.709C124.222 29.09 123.825 29.1523 123.519 29.277C123.224 29.3903 123.009 29.549 122.873 29.753C122.737 29.957 122.669 30.195 122.669 30.467C122.669 30.7503 122.731 30.994 122.856 31.198C122.992 31.3907 123.185 31.5437 123.434 31.657C123.683 31.7703 123.984 31.827 124.335 31.827ZM130.466 33V24.432H131.996L132.149 26.047C132.342 25.6617 132.591 25.3387 132.897 25.078C133.203 24.806 133.56 24.5963 133.968 24.449C134.387 24.3017 134.863 24.228 135.396 24.228V26.03H134.784C134.433 26.03 134.098 26.0753 133.781 26.166C133.464 26.2453 133.18 26.387 132.931 26.591C132.693 26.795 132.506 27.0727 132.37 27.424C132.234 27.7753 132.166 28.2117 132.166 28.733V33H130.466Z" fill="#00C5C9"/>
<path d="M162.633 24.226C162.428 24.0581 162.164 23.9786 161.9 24.005C161.637 24.0314 161.394 24.1615 161.226 24.3668C161.058 24.572 160.979 24.8356 161.005 25.0995C161.031 25.3634 161.161 25.606 161.367 25.774C161.367 25.774 161.367 25.774 161.367 25.774C161.555 25.9277 161.734 26.073 161.922 26.2255C162.808 26.9418 163.7 27.6537 164.604 28.3549C165.056 28.7054 165.512 29.0547 165.979 29.3986C166.215 29.572 166.45 29.7418 166.699 29.9118C166.829 30.0008 166.956 30.0851 167.096 30.1718C167.175 30.2196 167.24 30.2589 167.34 30.3121C167.385 30.3354 167.438 30.3628 167.516 30.3954C167.588 30.417 167.667 30.4856 168 30.5C168.314 30.4901 168.429 30.4111 168.497 30.3873C168.575 30.352 168.636 30.3177 168.677 30.2936C168.772 30.2373 168.837 30.1926 168.906 30.1444C169.035 30.0527 169.145 29.9671 169.256 29.8783C169.47 29.7062 169.668 29.5361 169.866 29.3627C170.255 29.0208 170.633 28.6725 171.005 28.3251C171.749 27.6277 172.473 26.9257 173.197 26.2123C173.368 26.0441 173.538 25.8757 173.707 25.7071C173.895 25.5196 174 25.2652 174 25C174 24.7348 173.895 24.4804 173.707 24.2929C173.52 24.1054 173.265 24 173 24C172.735 24 172.48 24.1054 172.293 24.2929C172.293 24.2929 172.293 24.2929 172.293 24.2929C172.131 24.4541 171.961 24.6227 171.793 24.7879C171.079 25.4916 170.363 26.1854 169.638 26.865C169.276 27.2031 168.91 27.5407 168.546 27.8596C168.363 28.0207 168.181 28.1767 168.004 28.3184C167.914 28.3908 167.827 28.4577 167.752 28.5106C167.714 28.5376 167.681 28.5595 167.664 28.5688C167.658 28.5727 167.654 28.5737 167.677 28.5632C167.699 28.5607 167.733 28.5115 168 28.5C168.281 28.5155 168.27 28.552 168.288 28.5505C168.298 28.5549 168.284 28.5489 168.271 28.5417C168.237 28.5241 168.195 28.4995 168.143 28.4677C168.047 28.4084 167.94 28.3376 167.827 28.2605C167.61 28.112 167.388 27.9522 167.164 27.7876C166.72 27.4602 166.273 27.1184 165.829 26.7746C164.942 26.086 164.057 25.38 163.181 24.6708C162.995 24.5203 162.815 24.3747 162.633 24.226Z" fill="#00C5C9"/>
<g clip-path="url(#clip0_1992_7146)">
<path d="M47.8682 38.1829C47.3751 36.5304 47.058 34.8846 46.3601 33.3037C44.7045 29.5515 41.4417 28.9723 37.7407 28.0331C39.7134 27.3779 40.9925 27.2863 43.0026 26.2867C46.4218 24.5895 46.9215 21.2353 47.8572 17.7357C48.936 21.5908 49.3918 24.9607 53.3899 26.5975C54.8716 27.2035 56.3489 27.5412 57.9979 28.0175C54.4841 28.9544 51.1156 29.4821 49.449 33.1762C48.6982 34.7214 48.4363 36.3091 47.866 38.1829H47.8682Z" fill="#00C5C9"/>
<path d="M39.535 45.7331C39.0198 43.866 38.7292 42.039 36.9194 41.1043C35.6887 40.4693 35.1801 40.5699 34.0903 40.0869C38.0357 39.0985 38.5861 38.336 39.535 34.4988C40.6314 38.5194 41.0233 39.0091 44.9884 40.0869C44.8079 40.1808 44.5965 40.2702 44.3962 40.3217C40.8493 41.243 40.5081 42.2246 39.5328 45.7331H39.535Z" fill="#00C5C9"/>
<path d="M39.5351 21.4199C39.0112 19.5215 38.7161 17.6655 36.8778 16.7151C35.6272 16.0689 35.1099 16.1717 34.0024 15.6798C38.0094 14.6758 38.5708 13.9021 39.5351 10C40.6492 14.0877 41.0477 14.5841 45.0789 15.6798C44.8939 15.7759 44.6804 15.8654 44.4778 15.9191C40.8737 16.856 40.5259 17.8533 39.5351 21.4199Z" fill="#00C5C9"/>
</g>
<defs>
<clipPath id="clip0_1992_7146">
<rect width="24" height="35" fill="white" transform="translate(34 10)"/>
</clipPath>
</defs>
</svg>
