<svg width="268" height="60" viewBox="0 0 268 60" fill="none" xmlns="http://www.w3.org/2000/svg">
<path d="M80.0678 47V39.764H77.5958V38.6H83.9678V39.764H81.4958V47H80.0678ZM86.6332 47.144C86.1452 47.144 85.7252 47.048 85.3732 46.856C85.0292 46.656 84.7652 46.36 84.5812 45.968C84.3972 45.568 84.3052 45.076 84.3052 44.492V40.952H85.7452V44.348C85.7452 44.868 85.8532 45.264 86.0692 45.536C86.2932 45.8 86.6292 45.932 87.0772 45.932C87.3652 45.932 87.6212 45.864 87.8452 45.728C88.0772 45.592 88.2572 45.396 88.3852 45.14C88.5212 44.876 88.5892 44.556 88.5892 44.18V40.952H90.0292V47H88.7572L88.6492 45.992C88.4652 46.344 88.1972 46.624 87.8452 46.832C87.5012 47.04 87.0972 47.144 86.6332 47.144ZM85.9132 40.436L85.7812 39.464L88.3492 37.964L88.5172 39.08L85.9132 40.436ZM94.381 47V40.952H95.821V47H94.381ZM95.101 39.992C94.837 39.992 94.617 39.912 94.441 39.752C94.273 39.584 94.189 39.38 94.189 39.14C94.189 38.892 94.273 38.692 94.441 38.54C94.617 38.38 94.837 38.3 95.101 38.3C95.365 38.3 95.581 38.38 95.749 38.54C95.925 38.692 96.013 38.892 96.013 39.14C96.013 39.38 95.925 39.584 95.749 39.752C95.581 39.912 95.365 39.992 95.101 39.992ZM97.3651 47V40.952H98.6371L98.7571 41.78C98.9491 41.476 99.2011 41.24 99.5131 41.072C99.8331 40.896 100.197 40.808 100.605 40.808C100.909 40.808 101.181 40.848 101.421 40.928C101.669 41.008 101.885 41.128 102.069 41.288C102.261 41.448 102.417 41.648 102.537 41.888C102.761 41.552 103.053 41.288 103.413 41.096C103.773 40.904 104.165 40.808 104.589 40.808C105.093 40.808 105.521 40.912 105.873 41.12C106.225 41.32 106.493 41.62 106.677 42.02C106.861 42.412 106.953 42.896 106.953 43.472V47H105.525V43.616C105.525 43.104 105.421 42.712 105.213 42.44C105.005 42.168 104.697 42.032 104.289 42.032C104.009 42.032 103.761 42.1 103.545 42.236C103.337 42.372 103.173 42.572 103.053 42.836C102.933 43.092 102.873 43.408 102.873 43.784V47H101.445V43.616C101.445 43.104 101.341 42.712 101.133 42.44C100.925 42.168 100.613 42.032 100.197 42.032C99.9331 42.032 99.6931 42.1 99.4771 42.236C99.2691 42.372 99.1051 42.572 98.9851 42.836C98.8651 43.092 98.8051 43.408 98.8051 43.784V47H97.3651ZM110.37 47.144C109.874 47.144 109.462 47.06 109.134 46.892C108.806 46.724 108.562 46.5 108.402 46.22C108.242 45.94 108.162 45.636 108.162 45.308C108.162 44.924 108.258 44.592 108.45 44.312C108.65 44.032 108.942 43.816 109.326 43.664C109.71 43.504 110.182 43.424 110.742 43.424H112.266C112.266 43.104 112.222 42.84 112.134 42.632C112.046 42.416 111.91 42.256 111.726 42.152C111.542 42.048 111.306 41.996 111.018 41.996C110.69 41.996 110.41 42.072 110.178 42.224C109.946 42.368 109.802 42.592 109.746 42.896H108.33C108.378 42.464 108.522 42.096 108.762 41.792C109.002 41.48 109.318 41.24 109.71 41.072C110.11 40.896 110.546 40.808 111.018 40.808C111.586 40.808 112.07 40.908 112.47 41.108C112.87 41.3 113.174 41.58 113.382 41.948C113.598 42.308 113.706 42.744 113.706 43.256V47H112.482L112.338 46.028C112.258 46.188 112.154 46.336 112.026 46.472C111.906 46.608 111.766 46.728 111.606 46.832C111.446 46.928 111.262 47.004 111.054 47.06C110.854 47.116 110.626 47.144 110.37 47.144ZM110.694 46.004C110.926 46.004 111.13 45.964 111.306 45.884C111.49 45.796 111.646 45.676 111.774 45.524C111.91 45.364 112.014 45.188 112.086 44.996C112.158 44.804 112.206 44.6 112.23 44.384V44.36H110.898C110.618 44.36 110.386 44.396 110.202 44.468C110.018 44.532 109.886 44.628 109.806 44.756C109.726 44.884 109.686 45.032 109.686 45.2C109.686 45.368 109.726 45.512 109.806 45.632C109.886 45.752 110.002 45.844 110.154 45.908C110.306 45.972 110.486 46.004 110.694 46.004ZM117.669 49.784C117.101 49.784 116.601 49.712 116.169 49.568C115.745 49.432 115.413 49.22 115.173 48.932C114.941 48.652 114.825 48.3 114.825 47.876C114.825 47.628 114.885 47.384 115.005 47.144C115.133 46.912 115.321 46.696 115.569 46.496C115.825 46.288 116.149 46.108 116.541 45.956L117.177 46.652C116.793 46.788 116.525 46.952 116.373 47.144C116.221 47.336 116.145 47.532 116.145 47.732C116.145 47.94 116.209 48.112 116.337 48.248C116.473 48.392 116.653 48.5 116.877 48.572C117.109 48.644 117.369 48.68 117.657 48.68C117.937 48.68 118.181 48.64 118.389 48.56C118.597 48.488 118.757 48.384 118.869 48.248C118.989 48.112 119.049 47.948 119.049 47.756C119.049 47.516 118.965 47.32 118.797 47.168C118.629 47.024 118.297 46.936 117.801 46.904C117.377 46.872 117.005 46.828 116.685 46.772C116.365 46.708 116.089 46.636 115.857 46.556C115.633 46.476 115.441 46.388 115.281 46.292C115.121 46.188 114.989 46.084 114.885 45.98V45.704L116.145 44.384L117.213 44.732L115.797 46.112L116.169 45.416C116.249 45.472 116.329 45.524 116.409 45.572C116.497 45.62 116.605 45.664 116.733 45.704C116.869 45.736 117.045 45.768 117.261 45.8C117.477 45.832 117.757 45.864 118.101 45.896C118.637 45.936 119.073 46.032 119.409 46.184C119.745 46.336 119.993 46.54 120.153 46.796C120.313 47.052 120.393 47.36 120.393 47.72C120.393 48.072 120.293 48.404 120.093 48.716C119.901 49.028 119.605 49.284 119.205 49.484C118.805 49.684 118.293 49.784 117.669 49.784ZM117.669 45.188C117.165 45.188 116.729 45.092 116.361 44.9C116.001 44.7 115.725 44.436 115.533 44.108C115.341 43.772 115.245 43.404 115.245 43.004C115.245 42.596 115.341 42.228 115.533 41.9C115.725 41.572 116.001 41.308 116.361 41.108C116.729 40.908 117.165 40.808 117.669 40.808C118.173 40.808 118.605 40.908 118.965 41.108C119.325 41.308 119.601 41.572 119.793 41.9C119.985 42.228 120.081 42.596 120.081 43.004C120.081 43.404 119.985 43.772 119.793 44.108C119.601 44.436 119.325 44.7 118.965 44.9C118.605 45.092 118.173 45.188 117.669 45.188ZM117.669 44.072C118.013 44.072 118.289 43.98 118.497 43.796C118.705 43.612 118.809 43.348 118.809 43.004C118.809 42.66 118.705 42.4 118.497 42.224C118.289 42.04 118.013 41.948 117.669 41.948C117.325 41.948 117.045 42.04 116.829 42.224C116.613 42.4 116.505 42.66 116.505 43.004C116.505 43.348 116.613 43.612 116.829 43.796C117.045 43.98 117.325 44.072 117.669 44.072ZM118.665 42.008L118.389 40.952H120.873V41.852L118.665 42.008ZM122.085 47V40.952H123.525V47H122.085ZM122.805 39.992C122.541 39.992 122.321 39.912 122.145 39.752C121.977 39.584 121.893 39.38 121.893 39.14C121.893 38.892 121.977 38.692 122.145 38.54C122.321 38.38 122.541 38.3 122.805 38.3C123.069 38.3 123.285 38.38 123.453 38.54C123.629 38.692 123.717 38.892 123.717 39.14C123.717 39.38 123.629 39.584 123.453 39.752C123.285 39.912 123.069 39.992 122.805 39.992ZM125.069 47V40.952H126.341L126.449 41.96C126.633 41.608 126.897 41.328 127.241 41.12C127.585 40.912 127.993 40.808 128.465 40.808C128.953 40.808 129.369 40.912 129.713 41.12C130.057 41.32 130.321 41.616 130.505 42.008C130.697 42.4 130.793 42.888 130.793 43.472V47H129.353V43.604C129.353 43.1 129.241 42.712 129.017 42.44C128.793 42.168 128.461 42.032 128.021 42.032C127.733 42.032 127.473 42.1 127.241 42.236C127.017 42.372 126.837 42.572 126.701 42.836C126.573 43.092 126.509 43.404 126.509 43.772V47H125.069ZM134.207 47.144C133.711 47.144 133.299 47.06 132.971 46.892C132.643 46.724 132.399 46.5 132.239 46.22C132.079 45.94 131.999 45.636 131.999 45.308C131.999 44.924 132.095 44.592 132.287 44.312C132.487 44.032 132.779 43.816 133.163 43.664C133.547 43.504 134.019 43.424 134.579 43.424H136.103C136.103 43.104 136.059 42.84 135.971 42.632C135.883 42.416 135.747 42.256 135.563 42.152C135.379 42.048 135.143 41.996 134.855 41.996C134.527 41.996 134.247 42.072 134.015 42.224C133.783 42.368 133.639 42.592 133.583 42.896H132.167C132.215 42.464 132.359 42.096 132.599 41.792C132.839 41.48 133.155 41.24 133.547 41.072C133.947 40.896 134.383 40.808 134.855 40.808C135.423 40.808 135.907 40.908 136.307 41.108C136.707 41.3 137.011 41.58 137.219 41.948C137.435 42.308 137.543 42.744 137.543 43.256V47H136.319L136.175 46.028C136.095 46.188 135.991 46.336 135.863 46.472C135.743 46.608 135.603 46.728 135.443 46.832C135.283 46.928 135.099 47.004 134.891 47.06C134.691 47.116 134.463 47.144 134.207 47.144ZM134.531 46.004C134.763 46.004 134.967 45.964 135.143 45.884C135.327 45.796 135.483 45.676 135.611 45.524C135.747 45.364 135.851 45.188 135.923 44.996C135.995 44.804 136.043 44.6 136.067 44.384V44.36H134.735C134.455 44.36 134.223 44.396 134.039 44.468C133.855 44.532 133.723 44.628 133.643 44.756C133.563 44.884 133.523 45.032 133.523 45.2C133.523 45.368 133.563 45.512 133.643 45.632C133.723 45.752 133.839 45.844 133.991 45.908C134.143 45.972 134.323 46.004 134.531 46.004ZM141.373 47.144C140.837 47.144 140.369 47.06 139.969 46.892C139.577 46.716 139.265 46.476 139.033 46.172C138.809 45.86 138.677 45.504 138.637 45.104H140.077C140.117 45.272 140.189 45.428 140.293 45.572C140.397 45.708 140.537 45.816 140.713 45.896C140.897 45.976 141.113 46.016 141.361 46.016C141.601 46.016 141.797 45.984 141.949 45.92C142.101 45.848 142.213 45.756 142.285 45.644C142.357 45.532 142.393 45.412 142.393 45.284C142.393 45.092 142.341 44.944 142.237 44.84C142.133 44.736 141.981 44.656 141.781 44.6C141.589 44.536 141.357 44.476 141.085 44.42C140.797 44.364 140.517 44.296 140.245 44.216C139.981 44.128 139.741 44.02 139.525 43.892C139.317 43.764 139.149 43.6 139.021 43.4C138.901 43.2 138.841 42.956 138.841 42.668C138.841 42.316 138.933 42 139.117 41.72C139.309 41.44 139.581 41.22 139.933 41.06C140.293 40.892 140.721 40.808 141.217 40.808C141.921 40.808 142.481 40.972 142.897 41.3C143.321 41.62 143.569 42.072 143.641 42.656H142.273C142.233 42.432 142.121 42.26 141.937 42.14C141.753 42.012 141.509 41.948 141.205 41.948C140.893 41.948 140.653 42.008 140.485 42.128C140.325 42.24 140.245 42.392 140.245 42.584C140.245 42.704 140.293 42.816 140.389 42.92C140.493 43.016 140.641 43.1 140.833 43.172C141.025 43.236 141.261 43.3 141.541 43.364C141.989 43.452 142.385 43.556 142.729 43.676C143.073 43.796 143.345 43.972 143.545 44.204C143.745 44.436 143.845 44.764 143.845 45.188C143.853 45.572 143.753 45.912 143.545 46.208C143.345 46.504 143.061 46.736 142.693 46.904C142.325 47.064 141.885 47.144 141.373 47.144ZM144.523 48.476L145.207 45.548H146.611L145.471 48.476H144.523ZM150.531 47V40.952H151.803L151.911 41.96C152.095 41.608 152.359 41.328 152.703 41.12C153.047 40.912 153.455 40.808 153.927 40.808C154.415 40.808 154.831 40.912 155.175 41.12C155.519 41.32 155.783 41.616 155.967 42.008C156.159 42.4 156.255 42.888 156.255 43.472V47H154.815V43.604C154.815 43.1 154.703 42.712 154.479 42.44C154.255 42.168 153.923 42.032 153.483 42.032C153.195 42.032 152.935 42.1 152.703 42.236C152.479 42.372 152.299 42.572 152.163 42.836C152.035 43.092 151.971 43.404 151.971 43.772V47H150.531ZM160.473 47.144C159.897 47.144 159.377 47.012 158.913 46.748C158.457 46.476 158.097 46.104 157.833 45.632C157.577 45.152 157.449 44.604 157.449 43.988C157.449 43.356 157.581 42.804 157.845 42.332C158.109 41.852 158.469 41.48 158.925 41.216C159.389 40.944 159.909 40.808 160.485 40.808C161.061 40.808 161.577 40.944 162.033 41.216C162.497 41.48 162.857 41.848 163.113 42.32C163.377 42.792 163.509 43.344 163.509 43.976C163.509 44.608 163.377 45.16 163.113 45.632C162.849 46.104 162.485 46.476 162.021 46.748C161.565 47.012 161.049 47.144 160.473 47.144ZM160.473 45.908C160.761 45.908 161.021 45.836 161.253 45.692C161.493 45.548 161.685 45.332 161.829 45.044C161.973 44.756 162.045 44.4 162.045 43.976C162.045 43.552 161.973 43.2 161.829 42.92C161.693 42.632 161.505 42.416 161.265 42.272C161.033 42.128 160.773 42.056 160.485 42.056C160.205 42.056 159.945 42.128 159.705 42.272C159.465 42.416 159.273 42.632 159.129 42.92C158.985 43.2 158.913 43.552 158.913 43.976C158.913 44.4 158.985 44.756 159.129 45.044C159.273 45.332 159.461 45.548 159.693 45.692C159.933 45.836 160.193 45.908 160.473 45.908ZM167.211 47.144C166.675 47.144 166.207 47.06 165.807 46.892C165.415 46.716 165.103 46.476 164.871 46.172C164.647 45.86 164.515 45.504 164.475 45.104H165.915C165.955 45.272 166.027 45.428 166.131 45.572C166.235 45.708 166.375 45.816 166.551 45.896C166.735 45.976 166.951 46.016 167.199 46.016C167.439 46.016 167.635 45.984 167.787 45.92C167.939 45.848 168.051 45.756 168.123 45.644C168.195 45.532 168.231 45.412 168.231 45.284C168.231 45.092 168.179 44.944 168.075 44.84C167.971 44.736 167.819 44.656 167.619 44.6C167.427 44.536 167.195 44.476 166.923 44.42C166.635 44.364 166.355 44.296 166.083 44.216C165.819 44.128 165.579 44.02 165.363 43.892C165.155 43.764 164.987 43.6 164.859 43.4C164.739 43.2 164.679 42.956 164.679 42.668C164.679 42.316 164.771 42 164.955 41.72C165.147 41.44 165.419 41.22 165.771 41.06C166.131 40.892 166.559 40.808 167.055 40.808C167.759 40.808 168.319 40.972 168.735 41.3C169.159 41.62 169.407 42.072 169.479 42.656H168.111C168.071 42.432 167.959 42.26 167.775 42.14C167.591 42.012 167.347 41.948 167.043 41.948C166.731 41.948 166.491 42.008 166.323 42.128C166.163 42.24 166.083 42.392 166.083 42.584C166.083 42.704 166.131 42.816 166.227 42.92C166.331 43.016 166.479 43.1 166.671 43.172C166.863 43.236 167.099 43.3 167.379 43.364C167.827 43.452 168.223 43.556 168.567 43.676C168.911 43.796 169.183 43.972 169.383 44.204C169.583 44.436 169.683 44.764 169.683 45.188C169.691 45.572 169.591 45.912 169.383 46.208C169.183 46.504 168.899 46.736 168.531 46.904C168.163 47.064 167.723 47.144 167.211 47.144ZM173.78 47.144C173.204 47.144 172.684 47.012 172.22 46.748C171.764 46.476 171.404 46.104 171.14 45.632C170.884 45.152 170.756 44.604 170.756 43.988C170.756 43.356 170.888 42.804 171.152 42.332C171.416 41.852 171.776 41.48 172.232 41.216C172.696 40.944 173.216 40.808 173.792 40.808C174.368 40.808 174.884 40.944 175.34 41.216C175.804 41.48 176.164 41.848 176.42 42.32C176.684 42.792 176.816 43.344 176.816 43.976C176.816 44.608 176.684 45.16 176.42 45.632C176.156 46.104 175.792 46.476 175.328 46.748C174.872 47.012 174.356 47.144 173.78 47.144ZM173.78 45.908C174.068 45.908 174.328 45.836 174.56 45.692C174.8 45.548 174.992 45.332 175.136 45.044C175.28 44.756 175.352 44.4 175.352 43.976C175.352 43.552 175.28 43.2 175.136 42.92C175 42.632 174.812 42.416 174.572 42.272C174.34 42.128 174.08 42.056 173.792 42.056C173.512 42.056 173.252 42.128 173.012 42.272C172.772 42.416 172.58 42.632 172.436 42.92C172.292 43.2 172.22 43.552 172.22 43.976C172.22 44.4 172.292 44.756 172.436 45.044C172.58 45.332 172.768 45.548 173 45.692C173.24 45.836 173.5 45.908 173.78 45.908ZM180.499 47C180.091 47 179.735 46.936 179.431 46.808C179.135 46.68 178.903 46.468 178.735 46.172C178.567 45.876 178.483 45.476 178.483 44.972V42.164H177.451V40.952H178.483L178.651 39.356H179.923V40.952H181.567V42.164H179.923V44.972C179.923 45.276 179.987 45.488 180.115 45.608C180.251 45.72 180.475 45.776 180.787 45.776H181.531V47H180.499ZM182.802 47V40.952H184.086L184.218 42.08C184.362 41.816 184.542 41.592 184.758 41.408C184.974 41.216 185.226 41.068 185.514 40.964C185.81 40.86 186.134 40.808 186.486 40.808V42.332H185.982C185.742 42.332 185.514 42.364 185.298 42.428C185.082 42.484 184.894 42.58 184.734 42.716C184.582 42.844 184.462 43.024 184.374 43.256C184.286 43.48 184.242 43.764 184.242 44.108V47H182.802ZM190.143 47.144C189.567 47.144 189.047 47.012 188.583 46.748C188.127 46.476 187.767 46.104 187.503 45.632C187.247 45.152 187.119 44.604 187.119 43.988C187.119 43.356 187.251 42.804 187.515 42.332C187.779 41.852 188.139 41.48 188.595 41.216C189.059 40.944 189.579 40.808 190.155 40.808C190.731 40.808 191.247 40.944 191.703 41.216C192.167 41.48 192.527 41.848 192.783 42.32C193.047 42.792 193.179 43.344 193.179 43.976C193.179 44.608 193.047 45.16 192.783 45.632C192.519 46.104 192.155 46.476 191.691 46.748C191.235 47.012 190.719 47.144 190.143 47.144ZM190.143 45.908C190.431 45.908 190.691 45.836 190.923 45.692C191.163 45.548 191.355 45.332 191.499 45.044C191.643 44.756 191.715 44.4 191.715 43.976C191.715 43.552 191.643 43.2 191.499 42.92C191.363 42.632 191.175 42.416 190.935 42.272C190.703 42.128 190.443 42.056 190.155 42.056C189.875 42.056 189.615 42.128 189.375 42.272C189.135 42.416 188.943 42.632 188.799 42.92C188.655 43.2 188.583 43.552 188.583 43.976C188.583 44.4 188.655 44.756 188.799 45.044C188.943 45.332 189.131 45.548 189.363 45.692C189.603 45.836 189.863 45.908 190.143 45.908ZM196.881 47.144C196.345 47.144 195.877 47.06 195.477 46.892C195.085 46.716 194.773 46.476 194.541 46.172C194.317 45.86 194.185 45.504 194.145 45.104H195.585C195.625 45.272 195.697 45.428 195.801 45.572C195.905 45.708 196.045 45.816 196.221 45.896C196.405 45.976 196.621 46.016 196.869 46.016C197.109 46.016 197.305 45.984 197.457 45.92C197.609 45.848 197.721 45.756 197.793 45.644C197.865 45.532 197.901 45.412 197.901 45.284C197.901 45.092 197.849 44.944 197.745 44.84C197.641 44.736 197.489 44.656 197.289 44.6C197.097 44.536 196.865 44.476 196.593 44.42C196.305 44.364 196.025 44.296 195.753 44.216C195.489 44.128 195.249 44.02 195.033 43.892C194.825 43.764 194.657 43.6 194.529 43.4C194.409 43.2 194.349 42.956 194.349 42.668C194.349 42.316 194.441 42 194.625 41.72C194.817 41.44 195.089 41.22 195.441 41.06C195.801 40.892 196.229 40.808 196.725 40.808C197.429 40.808 197.989 40.972 198.405 41.3C198.829 41.62 199.077 42.072 199.149 42.656H197.781C197.741 42.432 197.629 42.26 197.445 42.14C197.261 42.012 197.017 41.948 196.713 41.948C196.401 41.948 196.161 42.008 195.993 42.128C195.833 42.24 195.753 42.392 195.753 42.584C195.753 42.704 195.801 42.816 195.897 42.92C196.001 43.016 196.149 43.1 196.341 43.172C196.533 43.236 196.769 43.3 197.049 43.364C197.497 43.452 197.893 43.556 198.237 43.676C198.581 43.796 198.853 43.972 199.053 44.204C199.253 44.436 199.353 44.764 199.353 45.188C199.361 45.572 199.261 45.912 199.053 46.208C198.853 46.504 198.569 46.736 198.201 46.904C197.833 47.064 197.393 47.144 196.881 47.144ZM203.439 47V38.36H204.879V47H203.439ZM209.186 47.144C208.61 47.144 208.09 47.012 207.626 46.748C207.17 46.476 206.81 46.104 206.546 45.632C206.29 45.152 206.162 44.604 206.162 43.988C206.162 43.356 206.294 42.804 206.558 42.332C206.822 41.852 207.182 41.48 207.638 41.216C208.102 40.944 208.622 40.808 209.198 40.808C209.774 40.808 210.29 40.944 210.746 41.216C211.21 41.48 211.57 41.848 211.826 42.32C212.09 42.792 212.222 43.344 212.222 43.976C212.222 44.608 212.09 45.16 211.826 45.632C211.562 46.104 211.198 46.476 210.734 46.748C210.278 47.012 209.762 47.144 209.186 47.144ZM209.186 45.908C209.474 45.908 209.734 45.836 209.966 45.692C210.206 45.548 210.398 45.332 210.542 45.044C210.686 44.756 210.758 44.4 210.758 43.976C210.758 43.552 210.686 43.2 210.542 42.92C210.406 42.632 210.218 42.416 209.978 42.272C209.746 42.128 209.486 42.056 209.198 42.056C208.918 42.056 208.658 42.128 208.418 42.272C208.178 42.416 207.986 42.632 207.842 42.92C207.698 43.2 207.626 43.552 207.626 43.976C207.626 44.4 207.698 44.756 207.842 45.044C207.986 45.332 208.174 45.548 208.406 45.692C208.646 45.836 208.906 45.908 209.186 45.908ZM216.322 47V38.36H217.762V41.888C217.962 41.56 218.234 41.3 218.578 41.108C218.922 40.908 219.31 40.808 219.742 40.808C220.238 40.808 220.658 40.912 221.002 41.12C221.346 41.32 221.606 41.62 221.782 42.02C221.966 42.412 222.058 42.904 222.058 43.496V47H220.63V43.628C220.63 43.108 220.518 42.712 220.294 42.44C220.078 42.168 219.746 42.032 219.298 42.032C219.01 42.032 218.75 42.104 218.518 42.248C218.286 42.384 218.102 42.584 217.966 42.848C217.83 43.104 217.762 43.42 217.762 43.796V47H216.322ZM225.483 47.144C224.987 47.144 224.575 47.06 224.247 46.892C223.919 46.724 223.675 46.5 223.515 46.22C223.355 45.94 223.275 45.636 223.275 45.308C223.275 44.924 223.371 44.592 223.563 44.312C223.763 44.032 224.055 43.816 224.439 43.664C224.823 43.504 225.295 43.424 225.855 43.424H227.379C227.379 43.104 227.335 42.84 227.247 42.632C227.159 42.416 227.023 42.256 226.839 42.152C226.655 42.048 226.419 41.996 226.131 41.996C225.803 41.996 225.523 42.072 225.291 42.224C225.059 42.368 224.915 42.592 224.859 42.896H223.443C223.491 42.464 223.635 42.096 223.875 41.792C224.115 41.48 224.431 41.24 224.823 41.072C225.223 40.896 225.659 40.808 226.131 40.808C226.699 40.808 227.183 40.908 227.583 41.108C227.983 41.3 228.287 41.58 228.495 41.948C228.711 42.308 228.819 42.744 228.819 43.256V47H227.595L227.451 46.028C227.371 46.188 227.267 46.336 227.139 46.472C227.019 46.608 226.879 46.728 226.719 46.832C226.559 46.928 226.375 47.004 226.167 47.06C225.967 47.116 225.739 47.144 225.483 47.144ZM225.807 46.004C226.039 46.004 226.243 45.964 226.419 45.884C226.603 45.796 226.759 45.676 226.887 45.524C227.023 45.364 227.127 45.188 227.199 44.996C227.271 44.804 227.319 44.6 227.343 44.384V44.36H226.011C225.731 44.36 225.499 44.396 225.315 44.468C225.131 44.532 224.999 44.628 224.919 44.756C224.839 44.884 224.799 45.032 224.799 45.2C224.799 45.368 224.839 45.512 224.919 45.632C224.999 45.752 225.115 45.844 225.267 45.908C225.419 45.972 225.599 46.004 225.807 46.004ZM233.106 47.144C232.514 47.144 231.982 47.012 231.51 46.748C231.046 46.476 230.682 46.104 230.418 45.632C230.162 45.152 230.034 44.608 230.034 44C230.034 43.368 230.162 42.816 230.418 42.344C230.682 41.864 231.046 41.488 231.51 41.216C231.982 40.944 232.518 40.808 233.118 40.808C233.87 40.808 234.502 41.008 235.014 41.408C235.526 41.8 235.854 42.34 235.998 43.028H234.486C234.406 42.724 234.238 42.484 233.982 42.308C233.734 42.132 233.438 42.044 233.094 42.044C232.798 42.044 232.526 42.12 232.278 42.272C232.038 42.424 231.846 42.644 231.702 42.932C231.566 43.22 231.498 43.568 231.498 43.976C231.498 44.288 231.538 44.564 231.618 44.804C231.698 45.044 231.81 45.248 231.954 45.416C232.106 45.576 232.278 45.7 232.47 45.788C232.662 45.876 232.87 45.92 233.094 45.92C233.326 45.92 233.534 45.884 233.718 45.812C233.91 45.732 234.07 45.616 234.198 45.464C234.334 45.312 234.43 45.132 234.486 44.924H235.998C235.854 45.596 235.526 46.136 235.014 46.544C234.502 46.944 233.866 47.144 233.106 47.144ZM240.098 47.144C239.498 47.144 238.97 47.016 238.514 46.76C238.058 46.496 237.702 46.128 237.446 45.656C237.19 45.184 237.062 44.64 237.062 44.024C237.062 43.384 237.186 42.824 237.434 42.344C237.69 41.864 238.046 41.488 238.502 41.216C238.966 40.944 239.502 40.808 240.11 40.808C240.702 40.808 241.218 40.94 241.658 41.204C242.098 41.468 242.438 41.824 242.678 42.272C242.918 42.712 243.038 43.208 243.038 43.76C243.038 43.84 243.038 43.928 243.038 44.024C243.038 44.12 243.03 44.22 243.014 44.324H238.094V43.4H241.586C241.57 42.96 241.422 42.616 241.142 42.368C240.862 42.112 240.514 41.984 240.098 41.984C239.802 41.984 239.53 42.052 239.282 42.188C239.034 42.324 238.838 42.528 238.694 42.8C238.55 43.064 238.478 43.4 238.478 43.808V44.156C238.478 44.532 238.546 44.856 238.682 45.128C238.826 45.4 239.018 45.608 239.258 45.752C239.506 45.888 239.782 45.956 240.086 45.956C240.422 45.956 240.698 45.884 240.914 45.74C241.138 45.596 241.302 45.404 241.406 45.164H242.87C242.758 45.54 242.574 45.88 242.318 46.184C242.062 46.48 241.746 46.716 241.37 46.892C240.994 47.06 240.57 47.144 240.098 47.144ZM244.248 47V40.952H245.52L245.64 41.78C245.832 41.476 246.084 41.24 246.396 41.072C246.716 40.896 247.08 40.808 247.488 40.808C247.792 40.808 248.064 40.848 248.304 40.928C248.552 41.008 248.768 41.128 248.952 41.288C249.144 41.448 249.3 41.648 249.42 41.888C249.644 41.552 249.936 41.288 250.296 41.096C250.656 40.904 251.048 40.808 251.472 40.808C251.976 40.808 252.404 40.912 252.756 41.12C253.108 41.32 253.376 41.62 253.56 42.02C253.744 42.412 253.836 42.896 253.836 43.472V47H252.408V43.616C252.408 43.104 252.304 42.712 252.096 42.44C251.888 42.168 251.58 42.032 251.172 42.032C250.892 42.032 250.644 42.1 250.428 42.236C250.22 42.372 250.056 42.572 249.936 42.836C249.816 43.092 249.756 43.408 249.756 43.784V47H248.328V43.616C248.328 43.104 248.224 42.712 248.016 42.44C247.808 42.168 247.496 42.032 247.08 42.032C246.816 42.032 246.576 42.1 246.36 42.236C246.152 42.372 245.988 42.572 245.868 42.836C245.748 43.092 245.688 43.408 245.688 43.784V47H244.248ZM258.057 47.144C257.481 47.144 256.961 47.012 256.497 46.748C256.041 46.476 255.681 46.104 255.417 45.632C255.161 45.152 255.033 44.604 255.033 43.988C255.033 43.356 255.165 42.804 255.429 42.332C255.693 41.852 256.053 41.48 256.509 41.216C256.973 40.944 257.493 40.808 258.069 40.808C258.645 40.808 259.161 40.944 259.617 41.216C260.081 41.48 260.441 41.848 260.697 42.32C260.961 42.792 261.093 43.344 261.093 43.976C261.093 44.608 260.961 45.16 260.697 45.632C260.433 46.104 260.069 46.476 259.605 46.748C259.149 47.012 258.633 47.144 258.057 47.144ZM258.057 45.908C258.345 45.908 258.605 45.836 258.837 45.692C259.077 45.548 259.269 45.332 259.413 45.044C259.557 44.756 259.629 44.4 259.629 43.976C259.629 43.552 259.557 43.2 259.413 42.92C259.277 42.632 259.089 42.416 258.849 42.272C258.617 42.128 258.357 42.056 258.069 42.056C257.789 42.056 257.529 42.128 257.289 42.272C257.049 42.416 256.857 42.632 256.713 42.92C256.569 43.2 256.497 43.552 256.497 43.976C256.497 44.4 256.569 44.756 256.713 45.044C256.857 45.332 257.045 45.548 257.277 45.692C257.517 45.836 257.777 45.908 258.057 45.908ZM264.795 47.144C264.259 47.144 263.791 47.06 263.391 46.892C262.999 46.716 262.687 46.476 262.455 46.172C262.231 45.86 262.099 45.504 262.059 45.104H263.499C263.539 45.272 263.611 45.428 263.715 45.572C263.819 45.708 263.959 45.816 264.135 45.896C264.319 45.976 264.535 46.016 264.783 46.016C265.023 46.016 265.219 45.984 265.371 45.92C265.523 45.848 265.635 45.756 265.707 45.644C265.779 45.532 265.815 45.412 265.815 45.284C265.815 45.092 265.763 44.944 265.659 44.84C265.555 44.736 265.403 44.656 265.203 44.6C265.011 44.536 264.779 44.476 264.507 44.42C264.219 44.364 263.939 44.296 263.667 44.216C263.403 44.128 263.163 44.02 262.947 43.892C262.739 43.764 262.571 43.6 262.443 43.4C262.323 43.2 262.263 42.956 262.263 42.668C262.263 42.316 262.355 42 262.539 41.72C262.731 41.44 263.003 41.22 263.355 41.06C263.715 40.892 264.143 40.808 264.639 40.808C265.343 40.808 265.903 40.972 266.319 41.3C266.743 41.62 266.991 42.072 267.063 42.656H265.695C265.655 42.432 265.543 42.26 265.359 42.14C265.175 42.012 264.931 41.948 264.627 41.948C264.315 41.948 264.075 42.008 263.907 42.128C263.747 42.24 263.667 42.392 263.667 42.584C263.667 42.704 263.715 42.816 263.811 42.92C263.915 43.016 264.063 43.1 264.255 43.172C264.447 43.236 264.683 43.3 264.963 43.364C265.411 43.452 265.807 43.556 266.151 43.676C266.495 43.796 266.767 43.972 266.967 44.204C267.167 44.436 267.267 44.764 267.267 45.188C267.275 45.572 267.175 45.912 266.967 46.208C266.767 46.504 266.483 46.736 266.115 46.904C265.747 47.064 265.307 47.144 264.795 47.144Z" fill="#666666"/>
<path d="M78.4659 25V13.8H82.2099C83.5112 13.8 84.5832 14.0347 85.4259 14.504C86.2792 14.9627 86.9085 15.6133 87.3139 16.456C87.7299 17.288 87.9379 18.2693 87.9379 19.4C87.9379 20.5307 87.7299 21.5173 87.3139 22.36C86.9085 23.192 86.2845 23.8427 85.4419 24.312C84.5992 24.7707 83.5219 25 82.2099 25H78.4659ZM80.6259 23.144H82.0979C83.0152 23.144 83.7352 22.9947 84.2579 22.696C84.7912 22.3973 85.1699 21.9707 85.3939 21.416C85.6179 20.8507 85.7299 20.1787 85.7299 19.4C85.7299 18.6107 85.6179 17.9387 85.3939 17.384C85.1699 16.8187 84.7912 16.3867 84.2579 16.088C83.7352 15.7893 83.0152 15.64 82.0979 15.64H80.6259V23.144ZM89.6184 25V16.936H91.7784V25H89.6184ZM90.7064 15.832C90.3224 15.832 90.0024 15.72 89.7464 15.496C89.501 15.2613 89.3784 14.968 89.3784 14.616C89.3784 14.264 89.501 13.976 89.7464 13.752C90.0024 13.5173 90.3224 13.4 90.7064 13.4C91.101 13.4 91.421 13.5173 91.6664 13.752C91.9224 13.976 92.0504 14.264 92.0504 14.616C92.0504 14.968 91.9224 15.2613 91.6664 15.496C91.421 15.72 91.101 15.832 90.7064 15.832ZM97.097 25.192C96.361 25.192 95.721 25.0747 95.177 24.84C94.633 24.6053 94.2063 24.28 93.897 23.864C93.5877 23.448 93.4117 22.9787 93.369 22.456H95.513C95.5663 22.6587 95.657 22.8453 95.785 23.016C95.913 23.176 96.0837 23.304 96.297 23.4C96.5103 23.496 96.7663 23.544 97.065 23.544C97.353 23.544 97.5877 23.5067 97.769 23.432C97.9503 23.3467 98.0837 23.2347 98.169 23.096C98.265 22.9573 98.313 22.8133 98.313 22.664C98.313 22.44 98.249 22.2693 98.121 22.152C97.993 22.024 97.8063 21.9227 97.561 21.848C97.3157 21.7733 97.017 21.6987 96.665 21.624C96.281 21.5493 95.9023 21.4587 95.529 21.352C95.1663 21.2347 94.841 21.0907 94.553 20.92C94.265 20.7493 94.0357 20.5307 93.865 20.264C93.6943 19.9973 93.609 19.6667 93.609 19.272C93.609 18.792 93.737 18.3653 93.993 17.992C94.249 17.608 94.6223 17.304 95.113 17.08C95.6037 16.856 96.1957 16.744 96.889 16.744C97.8597 16.744 98.6277 16.9627 99.193 17.4C99.7583 17.8373 100.094 18.44 100.201 19.208H98.169C98.105 18.9627 97.961 18.7707 97.737 18.632C97.5237 18.4827 97.2357 18.408 96.873 18.408C96.489 18.408 96.1957 18.4773 95.993 18.616C95.7903 18.7547 95.689 18.936 95.689 19.16C95.689 19.3093 95.753 19.4427 95.881 19.56C96.0197 19.6773 96.2117 19.7787 96.457 19.864C96.7023 19.9387 97.001 20.0133 97.353 20.088C97.9717 20.216 98.5157 20.3653 98.985 20.536C99.4543 20.696 99.8223 20.9307 100.089 21.24C100.356 21.5387 100.489 21.976 100.489 22.552C100.489 23.064 100.35 23.5227 100.073 23.928C99.7957 24.3227 99.401 24.632 98.889 24.856C98.3877 25.08 97.7903 25.192 97.097 25.192ZM106.029 25.192C105.218 25.192 104.498 25.0213 103.869 24.68C103.25 24.328 102.765 23.8427 102.413 23.224C102.071 22.5947 101.901 21.8693 101.901 21.048C101.901 20.2053 102.071 19.464 102.413 18.824C102.765 18.1733 103.25 17.6667 103.869 17.304C104.487 16.9307 105.207 16.744 106.029 16.744C106.829 16.744 107.527 16.92 108.125 17.272C108.722 17.624 109.186 18.0987 109.517 18.696C109.847 19.2933 110.013 19.9707 110.013 20.728C110.013 20.8347 110.013 20.9573 110.013 21.096C110.013 21.224 110.002 21.3573 109.981 21.496H103.437V20.184H107.837C107.805 19.6613 107.618 19.2507 107.277 18.952C106.946 18.6533 106.53 18.504 106.029 18.504C105.666 18.504 105.33 18.5893 105.021 18.76C104.711 18.92 104.466 19.1707 104.285 19.512C104.114 19.8533 104.029 20.2853 104.029 20.808V21.272C104.029 21.7093 104.109 22.0933 104.269 22.424C104.439 22.744 104.674 22.9947 104.973 23.176C105.271 23.3467 105.618 23.432 106.013 23.432C106.407 23.432 106.733 23.3467 106.989 23.176C107.255 23.0053 107.453 22.7867 107.581 22.52H109.789C109.639 23.0213 109.389 23.4747 109.037 23.88C108.685 24.2853 108.253 24.6053 107.741 24.84C107.229 25.0747 106.658 25.192 106.029 25.192ZM111.622 25V16.936H113.526L113.686 18.248C113.931 17.8 114.278 17.4373 114.726 17.16C115.184 16.8827 115.728 16.744 116.358 16.744C117.03 16.744 117.595 16.8827 118.054 17.16C118.512 17.4373 118.859 17.8427 119.094 18.376C119.339 18.9093 119.462 19.5653 119.462 20.344V25H117.318V20.552C117.318 19.912 117.179 19.4213 116.902 19.08C116.635 18.7387 116.219 18.568 115.654 18.568C115.291 18.568 114.966 18.6533 114.678 18.824C114.4 18.9947 114.182 19.24 114.022 19.56C113.862 19.8693 113.782 20.248 113.782 20.696V25H111.622ZM116.822 15.88C116.512 15.88 116.246 15.8213 116.022 15.704C115.808 15.5867 115.611 15.4693 115.43 15.352C115.248 15.224 115.046 15.16 114.822 15.16C114.651 15.16 114.502 15.2187 114.374 15.336C114.256 15.4533 114.176 15.6347 114.134 15.88H112.998C113.115 15.1653 113.339 14.6427 113.67 14.312C114.011 13.9813 114.427 13.816 114.918 13.816C115.227 13.816 115.488 13.88 115.702 14.008C115.915 14.1253 116.112 14.248 116.294 14.376C116.486 14.4933 116.694 14.552 116.918 14.552C117.099 14.552 117.248 14.4933 117.366 14.376C117.494 14.2587 117.574 14.0773 117.606 13.832H118.742C118.635 14.5467 118.411 15.0693 118.07 15.4C117.739 15.72 117.323 15.88 116.822 15.88ZM125.145 25.192C124.377 25.192 123.683 25.016 123.065 24.664C122.457 24.3013 121.971 23.8053 121.609 23.176C121.257 22.536 121.081 21.8053 121.081 20.984C121.081 20.1413 121.257 19.4053 121.609 18.776C121.971 18.136 122.462 17.64 123.081 17.288C123.699 16.9253 124.393 16.744 125.161 16.744C125.939 16.744 126.633 16.9253 127.241 17.288C127.859 17.64 128.345 18.136 128.697 18.776C129.059 19.4053 129.241 20.136 129.241 20.968C129.241 21.8 129.059 22.536 128.697 23.176C128.345 23.8053 127.859 24.3013 127.241 24.664C126.622 25.016 125.923 25.192 125.145 25.192ZM125.145 23.32C125.507 23.32 125.827 23.2347 126.105 23.064C126.393 22.8933 126.617 22.632 126.777 22.28C126.947 21.928 127.033 21.4907 127.033 20.968C127.033 20.4453 126.947 20.0133 126.777 19.672C126.617 19.32 126.393 19.0587 126.105 18.888C125.827 18.7067 125.513 18.616 125.161 18.616C124.819 18.616 124.505 18.7067 124.217 18.888C123.929 19.0587 123.699 19.32 123.529 19.672C123.369 20.0133 123.289 20.4453 123.289 20.968C123.289 21.4907 123.369 21.928 123.529 22.28C123.699 22.632 123.923 22.8933 124.201 23.064C124.489 23.2347 124.803 23.32 125.145 23.32ZM134.238 25.192C133.502 25.192 132.862 25.0747 132.318 24.84C131.774 24.6053 131.348 24.28 131.038 23.864C130.729 23.448 130.553 22.9787 130.51 22.456H132.654C132.708 22.6587 132.798 22.8453 132.926 23.016C133.054 23.176 133.225 23.304 133.438 23.4C133.652 23.496 133.908 23.544 134.206 23.544C134.494 23.544 134.729 23.5067 134.91 23.432C135.092 23.3467 135.225 23.2347 135.31 23.096C135.406 22.9573 135.454 22.8133 135.454 22.664C135.454 22.44 135.39 22.2693 135.262 22.152C135.134 22.024 134.948 21.9227 134.702 21.848C134.457 21.7733 134.158 21.6987 133.806 21.624C133.422 21.5493 133.044 21.4587 132.67 21.352C132.308 21.2347 131.982 21.0907 131.694 20.92C131.406 20.7493 131.177 20.5307 131.006 20.264C130.836 19.9973 130.75 19.6667 130.75 19.272C130.75 18.792 130.878 18.3653 131.134 17.992C131.39 17.608 131.764 17.304 132.254 17.08C132.745 16.856 133.337 16.744 134.03 16.744C135.001 16.744 135.769 16.9627 136.334 17.4C136.9 17.8373 137.236 18.44 137.342 19.208H135.31C135.246 18.9627 135.102 18.7707 134.878 18.632C134.665 18.4827 134.377 18.408 134.014 18.408C133.63 18.408 133.337 18.4773 133.134 18.616C132.932 18.7547 132.83 18.936 132.83 19.16C132.83 19.3093 132.894 19.4427 133.022 19.56C133.161 19.6773 133.353 19.7787 133.598 19.864C133.844 19.9387 134.142 20.0133 134.494 20.088C135.113 20.216 135.657 20.3653 136.126 20.536C136.596 20.696 136.964 20.9307 137.23 21.24C137.497 21.5387 137.63 21.976 137.63 22.552C137.63 23.064 137.492 23.5227 137.214 23.928C136.937 24.3227 136.542 24.632 136.03 24.856C135.529 25.08 134.932 25.192 134.238 25.192ZM146.2 25.192C145.464 25.192 144.824 25.0747 144.28 24.84C143.736 24.6053 143.309 24.28 143 23.864C142.69 23.448 142.514 22.9787 142.472 22.456H144.616C144.669 22.6587 144.76 22.8453 144.888 23.016C145.016 23.176 145.186 23.304 145.4 23.4C145.613 23.496 145.869 23.544 146.168 23.544C146.456 23.544 146.69 23.5067 146.872 23.432C147.053 23.3467 147.186 23.2347 147.272 23.096C147.368 22.9573 147.416 22.8133 147.416 22.664C147.416 22.44 147.352 22.2693 147.224 22.152C147.096 22.024 146.909 21.9227 146.664 21.848C146.418 21.7733 146.12 21.6987 145.768 21.624C145.384 21.5493 145.005 21.4587 144.632 21.352C144.269 21.2347 143.944 21.0907 143.656 20.92C143.368 20.7493 143.138 20.5307 142.968 20.264C142.797 19.9973 142.712 19.6667 142.712 19.272C142.712 18.792 142.84 18.3653 143.096 17.992C143.352 17.608 143.725 17.304 144.216 17.08C144.706 16.856 145.298 16.744 145.992 16.744C146.962 16.744 147.73 16.9627 148.296 17.4C148.861 17.8373 149.197 18.44 149.304 19.208H147.272C147.208 18.9627 147.064 18.7707 146.84 18.632C146.626 18.4827 146.338 18.408 145.976 18.408C145.592 18.408 145.298 18.4773 145.096 18.616C144.893 18.7547 144.792 18.936 144.792 19.16C144.792 19.3093 144.856 19.4427 144.984 19.56C145.122 19.6773 145.314 19.7787 145.56 19.864C145.805 19.9387 146.104 20.0133 146.456 20.088C147.074 20.216 147.618 20.3653 148.088 20.536C148.557 20.696 148.925 20.9307 149.192 21.24C149.458 21.5387 149.592 21.976 149.592 22.552C149.592 23.064 149.453 23.5227 149.176 23.928C148.898 24.3227 148.504 24.632 147.992 24.856C147.49 25.08 146.893 25.192 146.2 25.192ZM151.307 25V16.936H153.467V25H151.307ZM152.395 15.832C152.011 15.832 151.691 15.72 151.435 15.496C151.19 15.2613 151.067 14.968 151.067 14.616C151.067 14.264 151.19 13.976 151.435 13.752C151.691 13.5173 152.011 13.4 152.395 13.4C152.79 13.4 153.11 13.5173 153.355 13.752C153.611 13.976 153.739 14.264 153.739 14.616C153.739 14.968 153.611 15.2613 153.355 15.496C153.11 15.72 152.79 15.832 152.395 15.832ZM155.49 25V16.936H157.394L157.554 18.248C157.799 17.8 158.146 17.4373 158.594 17.16C159.052 16.8827 159.596 16.744 160.226 16.744C160.898 16.744 161.463 16.8827 161.922 17.16C162.38 17.4373 162.727 17.8427 162.962 18.376C163.207 18.9093 163.33 19.5653 163.33 20.344V25H161.186V20.552C161.186 19.912 161.047 19.4213 160.77 19.08C160.503 18.7387 160.087 18.568 159.522 18.568C159.159 18.568 158.834 18.6533 158.546 18.824C158.268 18.9947 158.05 19.24 157.89 19.56C157.73 19.8693 157.65 20.248 157.65 20.696V25H155.49ZM168.81 25V13.48H170.97V25H168.81ZM172.916 25V16.936H175.076V25H172.916ZM172.308 16.248L172.116 14.824L175.62 12.824L175.876 14.472L172.308 16.248ZM177.022 25V16.936H178.926L179.102 18.008C179.358 17.624 179.694 17.32 180.11 17.096C180.536 16.8613 181.022 16.744 181.566 16.744C181.971 16.744 182.334 16.7973 182.654 16.904C182.974 17.0107 183.256 17.1653 183.502 17.368C183.758 17.5707 183.966 17.8267 184.126 18.136C184.424 17.6987 184.814 17.3573 185.294 17.112C185.774 16.8667 186.296 16.744 186.862 16.744C187.566 16.744 188.152 16.888 188.622 17.176C189.091 17.4533 189.443 17.8587 189.678 18.392C189.923 18.9253 190.046 19.5813 190.046 20.36V25H187.902V20.552C187.902 19.912 187.774 19.4213 187.518 19.08C187.272 18.7387 186.888 18.568 186.366 18.568C186.024 18.568 185.72 18.6533 185.454 18.824C185.187 18.9947 184.979 19.24 184.83 19.56C184.691 19.88 184.622 20.264 184.622 20.712V25H182.462V20.552C182.462 19.912 182.334 19.4213 182.078 19.08C181.822 18.7387 181.427 18.568 180.894 18.568C180.563 18.568 180.264 18.6533 179.998 18.824C179.742 18.9947 179.539 19.24 179.39 19.56C179.251 19.88 179.182 20.264 179.182 20.712V25H177.022ZM191.972 25V16.936H194.132V25H191.972ZM193.06 15.832C192.676 15.832 192.356 15.72 192.1 15.496C191.855 15.2613 191.732 14.968 191.732 14.616C191.732 14.264 191.855 13.976 192.1 13.752C192.356 13.5173 192.676 13.4 193.06 13.4C193.455 13.4 193.775 13.5173 194.02 13.752C194.276 13.976 194.404 14.264 194.404 14.616C194.404 14.968 194.276 15.2613 194.02 15.496C193.775 15.72 193.455 15.832 193.06 15.832ZM199.787 25C199.221 25 198.725 24.9147 198.299 24.744C197.883 24.5627 197.557 24.2693 197.323 23.864C197.088 23.448 196.971 22.8827 196.971 22.168V18.744H195.595V16.936H196.971L197.211 14.744H199.131V16.936H201.259V18.744H199.131V22.2C199.131 22.5627 199.211 22.8133 199.371 22.952C199.531 23.0907 199.803 23.16 200.187 23.16H201.243V25H199.787ZM206.586 25.192C205.775 25.192 205.055 25.0213 204.426 24.68C203.807 24.328 203.322 23.8427 202.97 23.224C202.628 22.5947 202.458 21.8693 202.458 21.048C202.458 20.2053 202.628 19.464 202.97 18.824C203.322 18.1733 203.807 17.6667 204.426 17.304C205.044 16.9307 205.764 16.744 206.586 16.744C207.386 16.744 208.084 16.92 208.682 17.272C209.279 17.624 209.743 18.0987 210.074 18.696C210.404 19.2933 210.57 19.9707 210.57 20.728C210.57 20.8347 210.57 20.9573 210.57 21.096C210.57 21.224 210.559 21.3573 210.538 21.496H203.994V20.184H208.394C208.362 19.6613 208.175 19.2507 207.834 18.952C207.503 18.6533 207.087 18.504 206.586 18.504C206.223 18.504 205.887 18.5893 205.578 18.76C205.268 18.92 205.023 19.1707 204.842 19.512C204.671 19.8533 204.586 20.2853 204.586 20.808V21.272C204.586 21.7093 204.666 22.0933 204.826 22.424C204.996 22.744 205.231 22.9947 205.53 23.176C205.828 23.3467 206.175 23.432 206.57 23.432C206.964 23.432 207.29 23.3467 207.546 23.176C207.812 23.0053 208.01 22.7867 208.138 22.52H210.346C210.196 23.0213 209.946 23.4747 209.594 23.88C209.242 24.2853 208.81 24.6053 208.298 24.84C207.786 25.0747 207.215 25.192 206.586 25.192ZM215.474 25.192C214.738 25.192 214.098 25.0747 213.554 24.84C213.01 24.6053 212.584 24.28 212.274 23.864C211.965 23.448 211.789 22.9787 211.746 22.456H213.89C213.944 22.6587 214.034 22.8453 214.162 23.016C214.29 23.176 214.461 23.304 214.674 23.4C214.888 23.496 215.144 23.544 215.442 23.544C215.73 23.544 215.965 23.5067 216.146 23.432C216.328 23.3467 216.461 23.2347 216.546 23.096C216.642 22.9573 216.69 22.8133 216.69 22.664C216.69 22.44 216.626 22.2693 216.498 22.152C216.37 22.024 216.184 21.9227 215.938 21.848C215.693 21.7733 215.394 21.6987 215.042 21.624C214.658 21.5493 214.28 21.4587 213.906 21.352C213.544 21.2347 213.218 21.0907 212.93 20.92C212.642 20.7493 212.413 20.5307 212.242 20.264C212.072 19.9973 211.986 19.6667 211.986 19.272C211.986 18.792 212.114 18.3653 212.37 17.992C212.626 17.608 213 17.304 213.49 17.08C213.981 16.856 214.573 16.744 215.266 16.744C216.237 16.744 217.005 16.9627 217.57 17.4C218.136 17.8373 218.472 18.44 218.578 19.208H216.546C216.482 18.9627 216.338 18.7707 216.114 18.632C215.901 18.4827 215.613 18.408 215.25 18.408C214.866 18.408 214.573 18.4773 214.37 18.616C214.168 18.7547 214.066 18.936 214.066 19.16C214.066 19.3093 214.13 19.4427 214.258 19.56C214.397 19.6773 214.589 19.7787 214.834 19.864C215.08 19.9387 215.378 20.0133 215.73 20.088C216.349 20.216 216.893 20.3653 217.362 20.536C217.832 20.696 218.2 20.9307 218.466 21.24C218.733 21.5387 218.866 21.976 218.866 22.552C218.866 23.064 218.728 23.5227 218.45 23.928C218.173 24.3227 217.778 24.632 217.266 24.856C216.765 25.08 216.168 25.192 215.474 25.192Z" fill="black"/>
<foreignObject x="-10" y="-10" width="80" height="80"><div xmlns="http://www.w3.org/1999/xhtml" style="backdrop-filter:blur(5px);clip-path:url(#bgblur_0_1992_7091_clip_path);height:100%;width:100%"></div></foreignObject><circle data-figma-bg-blur-radius="10" cx="30" cy="30" r="30" fill="#7FDED9" fill-opacity="0.2"/>
<circle cx="30.3893" cy="30.3892" r="26.3351" fill="#D1F4F2" fill-opacity="0.98"/>
<path d="M26.2638 39.137L25.1088 40.2966L23.9628 41.4617L22.6668 42.794C21.418 44.078 20.3679 44.4553 18.8715 43.3422C17.866 42.4012 17.7291 41.0019 18.4685 39.7794L24.7067 33.4542L31.9049 26.1884L35.5204 29.8204C35.1287 30.1357 34.8247 30.4423 34.5415 30.7991L33.5287 31.7906L32.9456 32.3697L31.174 34.1609L28.7104 36.6605L27.4049 37.9701L26.2638 39.1374V39.137Z" fill="#00BFB1"/>
<path d="M41.3151 20.6113C40.6716 19.8754 40.0339 19.5847 39.1162 19.6057C38.3371 19.6244 37.7711 19.8672 37.224 20.4181L36.023 21.6274L33.39 24.3257L33.3882 24.4292C33.3837 24.7035 33.4188 25.0652 33.6138 25.2311C33.8268 25.4125 34.3361 25.3701 34.5307 25.2484L34.564 25.2275L34.5897 25.1978C34.7873 24.9668 35.0391 24.7253 35.2827 24.4916C35.4461 24.3348 35.615 24.1726 35.7659 24.0154L36.8543 22.8804L38.1061 21.6224C38.1566 21.5718 38.2012 21.5231 38.2408 21.4802C38.3795 21.3299 38.4628 21.2392 38.6614 21.1704C39.4084 20.9129 40.1118 21.231 40.4122 21.9623C40.6274 22.4867 40.491 23.0449 40.0474 23.455C39.5408 23.9234 39.0621 24.4141 38.5997 24.8889C38.2818 25.2152 37.953 25.5523 37.6171 25.8804L36.5521 26.9202C36.2545 27.2109 36.1063 27.7094 36.4184 28.0616C36.5422 28.201 36.7687 28.2739 36.9903 28.2739C37.1726 28.2739 37.3514 28.2247 37.4662 28.1226L38.0404 27.6119L39.2508 26.3625L40.4442 25.16L41.4659 24.0273C42.3143 23.0864 42.0675 21.472 41.316 20.6118L41.3151 20.6113Z" fill="#00BFB1"/>
<path d="M28.1416 26.2695L27.7093 26.2021C27.7075 25.6088 27.7737 25.1413 27.6823 24.6584C27.5126 23.7626 26.9677 22.9132 26.2643 22.3359C25.5618 21.7595 24.3865 21.8602 23.4719 21.8447C23.3972 21.8434 23.2423 21.559 23.3112 21.5281C23.7484 21.3308 25.4821 21.6529 26.6673 20.5097C26.9794 20.2085 27.2428 19.7059 27.4545 19.3123C27.7679 18.729 27.7242 18.0219 27.717 17.3685L27.7138 17.1001C27.7129 17.0281 27.9282 16.9707 27.9831 17.0162C28.0381 17.0618 28.1232 17.2249 28.1259 17.3088L28.1804 19.1519C28.4375 19.6298 28.8441 20.2185 29.1652 20.6541C30.608 21.6342 32.1242 21.3312 32.552 21.5344C32.615 21.5645 32.4772 21.8352 32.407 21.8365L30.9791 21.8652C30.4662 21.8757 29.8515 22.0644 29.4444 22.3888C28.9234 22.8043 28.3587 23.4814 28.2123 24.1462C28.0592 24.8424 28.1759 25.509 28.1416 26.2695Z" fill="#00BFB1"/>
<path d="M38.8955 37.1549C38.8964 37.1905 38.7492 37.385 38.7429 37.3504L38.6996 37.1189C38.5848 36.5033 38.6726 35.7224 38.1138 35.2722C37.6351 34.8867 36.8763 34.8844 36.3022 34.7464C37.4901 34.6375 38.0035 34.7063 38.583 33.5448L38.7384 32.264C38.7852 32.2918 38.9198 32.511 38.9203 32.6021C38.9257 33.3858 39.3287 34.3627 40.1321 34.596L41.4632 34.7746C40.708 34.9068 40.0105 34.8375 39.4769 35.3825C39.0594 35.8089 38.8834 36.6797 38.8955 37.1558V37.1549Z" fill="#00BFB1"/>
<path d="M22.0494 28.5801C21.9237 27.5235 21.0416 27.7331 20.1887 27.4606C20.952 27.4164 21.6833 27.1981 22.0426 26.5137L22.1183 25.6002C22.3074 26.7757 23.0135 27.3485 24.2077 27.4856C23.0076 27.4998 22.2291 28.1235 22.1399 29.3388L22.0494 28.5806V28.5801Z" fill="#00BFB1"/>
<defs>
<clipPath id="bgblur_0_1992_7091_clip_path" transform="translate(10 10)"><circle cx="30" cy="30" r="30"/>
</clipPath></defs>
</svg>
