<svg width="189" height="60" viewBox="0 0 189 60" fill="none" xmlns="http://www.w3.org/2000/svg">
<path d="M77.6411 46L80.7131 37.6H82.3211L85.3931 46H83.8691L81.5051 39.28L79.1411 46H77.6411ZM79.0091 44.02L79.3931 42.88H83.5331L83.9171 44.02H79.0091ZM91.8183 46C91.4103 46 91.0543 45.936 90.7503 45.808C90.4543 45.68 90.2223 45.468 90.0543 45.172C89.8863 44.876 89.8023 44.476 89.8023 43.972V41.164H88.7703V39.952H89.8023L89.9703 38.356H91.2423V39.952H92.8863V41.164H91.2423V43.972C91.2423 44.276 91.3063 44.488 91.4343 44.608C91.5703 44.72 91.7943 44.776 92.1063 44.776H92.8503V46H91.8183ZM96.7887 46.144C96.2127 46.144 95.6927 46.012 95.2287 45.748C94.7727 45.476 94.4127 45.104 94.1487 44.632C93.8927 44.152 93.7647 43.604 93.7647 42.988C93.7647 42.356 93.8967 41.804 94.1607 41.332C94.4247 40.852 94.7847 40.48 95.2407 40.216C95.7047 39.944 96.2247 39.808 96.8007 39.808C97.3767 39.808 97.8927 39.944 98.3487 40.216C98.8127 40.48 99.1727 40.848 99.4287 41.32C99.6927 41.792 99.8247 42.344 99.8247 42.976C99.8247 43.608 99.6927 44.16 99.4287 44.632C99.1647 45.104 98.8007 45.476 98.3367 45.748C97.8807 46.012 97.3647 46.144 96.7887 46.144ZM96.7887 44.908C97.0767 44.908 97.3367 44.836 97.5687 44.692C97.8087 44.548 98.0007 44.332 98.1447 44.044C98.2887 43.756 98.3607 43.4 98.3607 42.976C98.3607 42.552 98.2887 42.2 98.1447 41.92C98.0087 41.632 97.8207 41.416 97.5807 41.272C97.3487 41.128 97.0887 41.056 96.8007 41.056C96.5207 41.056 96.2607 41.128 96.0207 41.272C95.7807 41.416 95.5887 41.632 95.4447 41.92C95.3007 42.2 95.2287 42.552 95.2287 42.976C95.2287 43.4 95.3007 43.756 95.4447 44.044C95.5887 44.332 95.7767 44.548 96.0087 44.692C96.2487 44.836 96.5087 44.908 96.7887 44.908ZM103.802 46.144C103.242 46.144 102.742 46.008 102.302 45.736C101.862 45.464 101.518 45.088 101.27 44.608C101.03 44.128 100.91 43.584 100.91 42.976C100.91 42.368 101.034 41.828 101.282 41.356C101.53 40.876 101.874 40.5 102.314 40.228C102.762 39.948 103.266 39.808 103.826 39.808C104.282 39.808 104.678 39.896 105.014 40.072C105.358 40.24 105.63 40.48 105.83 40.792V37.36H107.27V46H105.974L105.83 45.124C105.702 45.3 105.546 45.468 105.362 45.628C105.178 45.78 104.958 45.904 104.702 46C104.446 46.096 104.146 46.144 103.802 46.144ZM104.102 44.896C104.446 44.896 104.75 44.816 105.014 44.656C105.278 44.488 105.482 44.26 105.626 43.972C105.77 43.684 105.842 43.352 105.842 42.976C105.842 42.6 105.77 42.268 105.626 41.98C105.482 41.692 105.278 41.468 105.014 41.308C104.75 41.148 104.446 41.068 104.102 41.068C103.774 41.068 103.478 41.148 103.214 41.308C102.95 41.468 102.742 41.692 102.59 41.98C102.446 42.268 102.374 42.6 102.374 42.976C102.374 43.352 102.446 43.684 102.59 43.972C102.742 44.26 102.95 44.488 103.214 44.656C103.478 44.816 103.774 44.896 104.102 44.896ZM111.572 46.144C110.996 46.144 110.476 46.012 110.012 45.748C109.556 45.476 109.196 45.104 108.932 44.632C108.676 44.152 108.548 43.604 108.548 42.988C108.548 42.356 108.68 41.804 108.944 41.332C109.208 40.852 109.568 40.48 110.024 40.216C110.488 39.944 111.008 39.808 111.584 39.808C112.16 39.808 112.676 39.944 113.132 40.216C113.596 40.48 113.956 40.848 114.212 41.32C114.476 41.792 114.608 42.344 114.608 42.976C114.608 43.608 114.476 44.16 114.212 44.632C113.948 45.104 113.584 45.476 113.12 45.748C112.664 46.012 112.148 46.144 111.572 46.144ZM111.572 44.908C111.86 44.908 112.12 44.836 112.352 44.692C112.592 44.548 112.784 44.332 112.928 44.044C113.072 43.756 113.144 43.4 113.144 42.976C113.144 42.552 113.072 42.2 112.928 41.92C112.792 41.632 112.604 41.416 112.364 41.272C112.132 41.128 111.872 41.056 111.584 41.056C111.304 41.056 111.044 41.128 110.804 41.272C110.564 41.416 110.372 41.632 110.228 41.92C110.084 42.2 110.012 42.552 110.012 42.976C110.012 43.4 110.084 43.756 110.228 44.044C110.372 44.332 110.56 44.548 110.792 44.692C111.032 44.836 111.292 44.908 111.572 44.908ZM118.755 46V37.6H120.459L123.147 43.024L125.811 37.6H127.527V46H126.087V40.072L123.711 44.824H122.583L120.195 40.084V46H118.755ZM131.896 46.144C131.296 46.144 130.768 46.016 130.312 45.76C129.856 45.496 129.5 45.128 129.244 44.656C128.988 44.184 128.86 43.64 128.86 43.024C128.86 42.384 128.984 41.824 129.232 41.344C129.488 40.864 129.844 40.488 130.3 40.216C130.764 39.944 131.3 39.808 131.908 39.808C132.5 39.808 133.016 39.94 133.456 40.204C133.896 40.468 134.236 40.824 134.476 41.272C134.716 41.712 134.836 42.208 134.836 42.76C134.836 42.84 134.836 42.928 134.836 43.024C134.836 43.12 134.828 43.22 134.812 43.324H129.892V42.4H133.384C133.368 41.96 133.22 41.616 132.94 41.368C132.66 41.112 132.312 40.984 131.896 40.984C131.6 40.984 131.328 41.052 131.08 41.188C130.832 41.324 130.636 41.528 130.492 41.8C130.348 42.064 130.276 42.4 130.276 42.808V43.156C130.276 43.532 130.344 43.856 130.48 44.128C130.624 44.4 130.816 44.608 131.056 44.752C131.304 44.888 131.58 44.956 131.884 44.956C132.22 44.956 132.496 44.884 132.712 44.74C132.936 44.596 133.1 44.404 133.204 44.164H134.668C134.556 44.54 134.372 44.88 134.116 45.184C133.86 45.48 133.544 45.716 133.168 45.892C132.792 46.06 132.368 46.144 131.896 46.144ZM130.624 39.436L130.492 38.464L133.06 36.964L133.228 38.08L130.624 39.436ZM135.095 46L137.231 42.976L135.095 39.952H136.643L138.155 42.148L139.667 39.952H141.215L139.079 42.976L141.215 46H139.667L138.155 43.804L136.643 46H135.095ZM142.185 46V39.952H143.625V46H142.185ZM142.905 38.992C142.641 38.992 142.421 38.912 142.245 38.752C142.077 38.584 141.993 38.38 141.993 38.14C141.993 37.892 142.077 37.692 142.245 37.54C142.421 37.38 142.641 37.3 142.905 37.3C143.169 37.3 143.385 37.38 143.553 37.54C143.729 37.692 143.817 37.892 143.817 38.14C143.817 38.38 143.729 38.584 143.553 38.752C143.385 38.912 143.169 38.992 142.905 38.992ZM148.037 46.144C147.445 46.144 146.913 46.012 146.441 45.748C145.977 45.476 145.613 45.104 145.349 44.632C145.093 44.152 144.965 43.608 144.965 43C144.965 42.368 145.093 41.816 145.349 41.344C145.613 40.864 145.977 40.488 146.441 40.216C146.913 39.944 147.449 39.808 148.049 39.808C148.801 39.808 149.433 40.008 149.945 40.408C150.457 40.8 150.785 41.34 150.929 42.028H149.417C149.337 41.724 149.169 41.484 148.913 41.308C148.665 41.132 148.369 41.044 148.025 41.044C147.729 41.044 147.457 41.12 147.209 41.272C146.969 41.424 146.777 41.644 146.633 41.932C146.497 42.22 146.429 42.568 146.429 42.976C146.429 43.288 146.469 43.564 146.549 43.804C146.629 44.044 146.741 44.248 146.885 44.416C147.037 44.576 147.209 44.7 147.401 44.788C147.593 44.876 147.801 44.92 148.025 44.92C148.257 44.92 148.465 44.884 148.649 44.812C148.841 44.732 149.001 44.616 149.129 44.464C149.265 44.312 149.361 44.132 149.417 43.924H150.929C150.785 44.596 150.457 45.136 149.945 45.544C149.433 45.944 148.797 46.144 148.037 46.144ZM155.017 46.144C154.441 46.144 153.921 46.012 153.457 45.748C153.001 45.476 152.641 45.104 152.377 44.632C152.121 44.152 151.993 43.604 151.993 42.988C151.993 42.356 152.125 41.804 152.389 41.332C152.653 40.852 153.013 40.48 153.469 40.216C153.933 39.944 154.453 39.808 155.029 39.808C155.605 39.808 156.121 39.944 156.577 40.216C157.041 40.48 157.401 40.848 157.657 41.32C157.921 41.792 158.053 42.344 158.053 42.976C158.053 43.608 157.921 44.16 157.657 44.632C157.393 45.104 157.029 45.476 156.565 45.748C156.109 46.012 155.593 46.144 155.017 46.144ZM155.017 44.908C155.305 44.908 155.565 44.836 155.797 44.692C156.037 44.548 156.229 44.332 156.373 44.044C156.517 43.756 156.589 43.4 156.589 42.976C156.589 42.552 156.517 42.2 156.373 41.92C156.237 41.632 156.049 41.416 155.809 41.272C155.577 41.128 155.317 41.056 155.029 41.056C154.749 41.056 154.489 41.128 154.249 41.272C154.009 41.416 153.817 41.632 153.673 41.92C153.529 42.2 153.457 42.552 153.457 42.976C153.457 43.4 153.529 43.756 153.673 44.044C153.817 44.332 154.005 44.548 154.237 44.692C154.477 44.836 154.737 44.908 155.017 44.908Z" fill="#666666"/>
<path d="M78.1128 25V13.8H85.4728V15.544H80.2728V18.472H84.9928V20.152H80.2728V23.256H85.4728V25H78.1128ZM87.2329 25V16.936H89.1369L89.2969 18.248C89.5422 17.8 89.8889 17.4373 90.3369 17.16C90.7955 16.8827 91.3395 16.744 91.9689 16.744C92.6409 16.744 93.2062 16.8827 93.6649 17.16C94.1235 17.4373 94.4702 17.8427 94.7049 18.376C94.9502 18.9093 95.0729 19.5653 95.0729 20.344V25H92.9289V20.552C92.9289 19.912 92.7902 19.4213 92.5129 19.08C92.2462 18.7387 91.8302 18.568 91.2649 18.568C90.9022 18.568 90.5769 18.6533 90.2889 18.824C90.0115 18.9947 89.7929 19.24 89.6329 19.56C89.4729 19.8693 89.3929 20.248 89.3929 20.696V25H87.2329ZM99.0454 25L96.0854 16.936H98.3574L100.357 22.968L102.357 16.936H104.613L101.669 25H99.0454ZM105.772 25V16.936H107.932V25H105.772ZM105.164 16.248L104.972 14.824L108.476 12.824L108.732 14.472L105.164 16.248ZM113.686 25.192C112.918 25.192 112.225 25.016 111.606 24.664C110.998 24.3013 110.513 23.8053 110.15 23.176C109.798 22.536 109.622 21.8053 109.622 20.984C109.622 20.1413 109.798 19.4053 110.15 18.776C110.513 18.136 111.003 17.64 111.622 17.288C112.241 16.9253 112.934 16.744 113.702 16.744C114.481 16.744 115.174 16.9253 115.782 17.288C116.401 17.64 116.886 18.136 117.238 18.776C117.601 19.4053 117.782 20.136 117.782 20.968C117.782 21.8 117.601 22.536 117.238 23.176C116.886 23.8053 116.401 24.3013 115.782 24.664C115.163 25.016 114.465 25.192 113.686 25.192ZM113.686 23.32C114.049 23.32 114.369 23.2347 114.646 23.064C114.934 22.8933 115.158 22.632 115.318 22.28C115.489 21.928 115.574 21.4907 115.574 20.968C115.574 20.4453 115.489 20.0133 115.318 19.672C115.158 19.32 114.934 19.0587 114.646 18.888C114.369 18.7067 114.054 18.616 113.702 18.616C113.361 18.616 113.046 18.7067 112.758 18.888C112.47 19.0587 112.241 19.32 112.07 19.672C111.91 20.0133 111.83 20.4453 111.83 20.968C111.83 21.4907 111.91 21.928 112.07 22.28C112.241 22.632 112.465 22.8933 112.742 23.064C113.03 23.2347 113.345 23.32 113.686 23.32ZM122.78 25.192C122.044 25.192 121.404 25.0747 120.86 24.84C120.316 24.6053 119.889 24.28 119.58 23.864C119.27 23.448 119.094 22.9787 119.052 22.456H121.196C121.249 22.6587 121.34 22.8453 121.468 23.016C121.596 23.176 121.766 23.304 121.98 23.4C122.193 23.496 122.449 23.544 122.748 23.544C123.036 23.544 123.27 23.5067 123.452 23.432C123.633 23.3467 123.766 23.2347 123.852 23.096C123.948 22.9573 123.996 22.8133 123.996 22.664C123.996 22.44 123.932 22.2693 123.804 22.152C123.676 22.024 123.489 21.9227 123.244 21.848C122.998 21.7733 122.7 21.6987 122.348 21.624C121.964 21.5493 121.585 21.4587 121.212 21.352C120.849 21.2347 120.524 21.0907 120.236 20.92C119.948 20.7493 119.718 20.5307 119.548 20.264C119.377 19.9973 119.292 19.6667 119.292 19.272C119.292 18.792 119.42 18.3653 119.676 17.992C119.932 17.608 120.305 17.304 120.796 17.08C121.286 16.856 121.878 16.744 122.572 16.744C123.542 16.744 124.31 16.9627 124.876 17.4C125.441 17.8373 125.777 18.44 125.884 19.208H123.852C123.788 18.9627 123.644 18.7707 123.42 18.632C123.206 18.4827 122.918 18.408 122.556 18.408C122.172 18.408 121.878 18.4773 121.676 18.616C121.473 18.7547 121.372 18.936 121.372 19.16C121.372 19.3093 121.436 19.4427 121.564 19.56C121.702 19.6773 121.894 19.7787 122.14 19.864C122.385 19.9387 122.684 20.0133 123.036 20.088C123.654 20.216 124.198 20.3653 124.668 20.536C125.137 20.696 125.505 20.9307 125.772 21.24C126.038 21.5387 126.172 21.976 126.172 22.552C126.172 23.064 126.033 23.5227 125.756 23.928C125.478 24.3227 125.084 24.632 124.572 24.856C124.07 25.08 123.473 25.192 122.78 25.192ZM131.445 25V16.936H133.365L133.573 18.424C133.765 18.072 134.005 17.7733 134.293 17.528C134.591 17.2827 134.927 17.0907 135.301 16.952C135.685 16.8133 136.106 16.744 136.565 16.744V19.032H135.829C135.509 19.032 135.21 19.0693 134.933 19.144C134.666 19.2187 134.431 19.3413 134.229 19.512C134.026 19.672 133.871 19.896 133.765 20.184C133.658 20.472 133.605 20.8347 133.605 21.272V25H131.445ZM140.552 25.192C139.88 25.192 139.325 25.0853 138.888 24.872C138.45 24.648 138.125 24.3547 137.912 23.992C137.709 23.6187 137.608 23.208 137.608 22.76C137.608 22.2693 137.73 21.8373 137.976 21.464C138.232 21.0907 138.61 20.7973 139.112 20.584C139.624 20.3707 140.264 20.264 141.032 20.264H143.032C143.032 19.8693 142.978 19.544 142.872 19.288C142.765 19.0213 142.6 18.824 142.376 18.696C142.152 18.568 141.853 18.504 141.48 18.504C141.074 18.504 140.728 18.5947 140.44 18.776C140.162 18.9467 139.992 19.2133 139.928 19.576H137.832C137.885 19 138.072 18.504 138.392 18.088C138.722 17.6613 139.154 17.3307 139.688 17.096C140.232 16.8613 140.834 16.744 141.496 16.744C142.253 16.744 142.909 16.872 143.464 17.128C144.018 17.384 144.445 17.752 144.744 18.232C145.042 18.712 145.192 19.304 145.192 20.008V25H143.368L143.128 23.768C143.01 23.9813 142.872 24.1733 142.712 24.344C142.552 24.5147 142.365 24.664 142.152 24.792C141.938 24.92 141.698 25.016 141.432 25.08C141.165 25.1547 140.872 25.192 140.552 25.192ZM141.064 23.528C141.341 23.528 141.586 23.48 141.8 23.384C142.024 23.2773 142.216 23.1387 142.376 22.968C142.536 22.7867 142.658 22.584 142.744 22.36C142.84 22.1253 142.904 21.8747 142.936 21.608V21.592H141.288C140.957 21.592 140.685 21.6347 140.472 21.72C140.269 21.7947 140.12 21.9067 140.024 22.056C139.928 22.2053 139.88 22.376 139.88 22.568C139.88 22.7813 139.928 22.9573 140.024 23.096C140.12 23.2347 140.258 23.3413 140.44 23.416C140.621 23.4907 140.829 23.528 141.064 23.528ZM139.72 16.248L139.528 14.824L143.032 12.824L143.288 14.472L139.72 16.248ZM147.047 28.52V16.936H148.967L149.207 18.056C149.377 17.8213 149.58 17.608 149.815 17.416C150.049 17.2133 150.327 17.0533 150.647 16.936C150.977 16.808 151.361 16.744 151.799 16.744C152.556 16.744 153.223 16.9307 153.799 17.304C154.375 17.6773 154.828 18.184 155.159 18.824C155.5 19.4533 155.671 20.1733 155.671 20.984C155.671 21.7947 155.5 22.52 155.159 23.16C154.817 23.7893 154.359 24.2853 153.783 24.648C153.207 25.0107 152.551 25.192 151.815 25.192C151.217 25.192 150.7 25.0853 150.263 24.872C149.836 24.648 149.484 24.344 149.207 23.96V28.52H147.047ZM151.303 23.304C151.729 23.304 152.103 23.208 152.423 23.016C152.753 22.824 153.009 22.552 153.191 22.2C153.372 21.848 153.463 21.4427 153.463 20.984C153.463 20.5253 153.372 20.12 153.191 19.768C153.009 19.4053 152.753 19.128 152.423 18.936C152.103 18.7333 151.729 18.632 151.303 18.632C150.887 18.632 150.513 18.7333 150.183 18.936C149.863 19.128 149.607 19.4 149.415 19.752C149.233 20.104 149.143 20.5093 149.143 20.968C149.143 21.4267 149.233 21.8373 149.415 22.2C149.607 22.552 149.863 22.824 150.183 23.016C150.513 23.208 150.887 23.304 151.303 23.304ZM157.419 25V16.936H159.579V25H157.419ZM158.507 15.832C158.123 15.832 157.803 15.72 157.547 15.496C157.302 15.2613 157.179 14.968 157.179 14.616C157.179 14.264 157.302 13.976 157.547 13.752C157.803 13.5173 158.123 13.4 158.507 13.4C158.902 13.4 159.222 13.5173 159.467 13.752C159.723 13.976 159.851 14.264 159.851 14.616C159.851 14.968 159.723 15.2613 159.467 15.496C159.222 15.72 158.902 15.832 158.507 15.832ZM165.186 25.192C164.45 25.192 163.788 25.0107 163.202 24.648C162.626 24.2853 162.172 23.784 161.842 23.144C161.511 22.504 161.346 21.784 161.346 20.984C161.346 20.1627 161.511 19.4373 161.842 18.808C162.183 18.168 162.647 17.6667 163.234 17.304C163.831 16.9307 164.498 16.744 165.234 16.744C165.81 16.744 166.316 16.8507 166.754 17.064C167.191 17.2773 167.543 17.5813 167.81 17.976V13.48H169.97V25H168.05L167.81 23.896C167.65 24.12 167.447 24.3333 167.202 24.536C166.967 24.7387 166.684 24.8987 166.354 25.016C166.023 25.1333 165.634 25.192 165.186 25.192ZM165.698 23.304C166.124 23.304 166.498 23.208 166.818 23.016C167.148 22.8133 167.404 22.536 167.586 22.184C167.767 21.832 167.858 21.4267 167.858 20.968C167.858 20.5093 167.767 20.104 167.586 19.752C167.404 19.4 167.148 19.128 166.818 18.936C166.498 18.7333 166.124 18.632 165.698 18.632C165.292 18.632 164.924 18.7333 164.594 18.936C164.263 19.128 164.002 19.4 163.81 19.752C163.628 20.104 163.538 20.504 163.538 20.952C163.538 21.4213 163.628 21.832 163.81 22.184C164.002 22.536 164.258 22.8133 164.578 23.016C164.908 23.208 165.282 23.304 165.698 23.304ZM175.734 25.192C174.966 25.192 174.273 25.016 173.654 24.664C173.046 24.3013 172.561 23.8053 172.198 23.176C171.846 22.536 171.67 21.8053 171.67 20.984C171.67 20.1413 171.846 19.4053 172.198 18.776C172.561 18.136 173.051 17.64 173.67 17.288C174.289 16.9253 174.982 16.744 175.75 16.744C176.529 16.744 177.222 16.9253 177.83 17.288C178.449 17.64 178.934 18.136 179.286 18.776C179.649 19.4053 179.83 20.136 179.83 20.968C179.83 21.8 179.649 22.536 179.286 23.176C178.934 23.8053 178.449 24.3013 177.83 24.664C177.211 25.016 176.513 25.192 175.734 25.192ZM175.734 23.32C176.097 23.32 176.417 23.2347 176.694 23.064C176.982 22.8933 177.206 22.632 177.366 22.28C177.537 21.928 177.622 21.4907 177.622 20.968C177.622 20.4453 177.537 20.0133 177.366 19.672C177.206 19.32 176.982 19.0587 176.694 18.888C176.417 18.7067 176.102 18.616 175.75 18.616C175.409 18.616 175.094 18.7067 174.806 18.888C174.518 19.0587 174.289 19.32 174.118 19.672C173.958 20.0133 173.878 20.4453 173.878 20.968C173.878 21.4907 173.958 21.928 174.118 22.28C174.289 22.632 174.513 22.8933 174.79 23.064C175.078 23.2347 175.393 23.32 175.734 23.32ZM184.828 25.192C184.092 25.192 183.452 25.0747 182.908 24.84C182.364 24.6053 181.937 24.28 181.628 23.864C181.318 23.448 181.142 22.9787 181.1 22.456H183.244C183.297 22.6587 183.388 22.8453 183.516 23.016C183.644 23.176 183.814 23.304 184.028 23.4C184.241 23.496 184.497 23.544 184.796 23.544C185.084 23.544 185.318 23.5067 185.5 23.432C185.681 23.3467 185.814 23.2347 185.9 23.096C185.996 22.9573 186.044 22.8133 186.044 22.664C186.044 22.44 185.98 22.2693 185.852 22.152C185.724 22.024 185.537 21.9227 185.292 21.848C185.046 21.7733 184.748 21.6987 184.396 21.624C184.012 21.5493 183.633 21.4587 183.26 21.352C182.897 21.2347 182.572 21.0907 182.284 20.92C181.996 20.7493 181.766 20.5307 181.596 20.264C181.425 19.9973 181.34 19.6667 181.34 19.272C181.34 18.792 181.468 18.3653 181.724 17.992C181.98 17.608 182.353 17.304 182.844 17.08C183.334 16.856 183.926 16.744 184.62 16.744C185.59 16.744 186.358 16.9627 186.924 17.4C187.489 17.8373 187.825 18.44 187.932 19.208H185.9C185.836 18.9627 185.692 18.7707 185.468 18.632C185.254 18.4827 184.966 18.408 184.604 18.408C184.22 18.408 183.926 18.4773 183.724 18.616C183.521 18.7547 183.42 18.936 183.42 19.16C183.42 19.3093 183.484 19.4427 183.612 19.56C183.75 19.6773 183.942 19.7787 184.188 19.864C184.433 19.9387 184.732 20.0133 185.084 20.088C185.702 20.216 186.246 20.3653 186.716 20.536C187.185 20.696 187.553 20.9307 187.82 21.24C188.086 21.5387 188.22 21.976 188.22 22.552C188.22 23.064 188.081 23.5227 187.804 23.928C187.526 24.3227 187.132 24.632 186.62 24.856C186.118 25.08 185.521 25.192 184.828 25.192Z" fill="black"/>
<foreignObject x="-10" y="-10" width="80" height="80"><div xmlns="http://www.w3.org/1999/xhtml" style="backdrop-filter:blur(5px);clip-path:url(#bgblur_0_1992_7082_clip_path);height:100%;width:100%"></div></foreignObject><circle data-figma-bg-blur-radius="10" cx="30" cy="30" r="30" fill="#7FDED9" fill-opacity="0.2"/>
<circle cx="30.3893" cy="30.3892" r="26.3351" fill="#D1F4F2" fill-opacity="0.98"/>
<path d="M48.9416 31.0027C48.9367 30.6466 48.8272 30.2136 48.6552 29.8714L45.4597 23.5199C45.1486 22.9012 44.5252 22.5612 43.7045 22.5612H43.7002L38.2334 22.5693L38.2048 20.9226C38.1913 20.1582 37.5238 19.0022 36.5472 19.0022L20.0012 19C19.5558 19 19.1314 19.2066 18.8074 19.5821C18.4089 20.0436 18.1969 20.7257 18.28 21.2793C18.3086 21.4697 18.4035 21.6273 18.5545 21.7349C18.7216 21.8544 18.9513 21.9022 19.1681 21.863C19.5057 21.8016 19.7553 21.4762 19.7758 21.0706C19.7861 20.8672 19.9058 20.4869 20.1484 20.4869L36.2382 20.4837C36.4253 20.4837 36.703 20.6563 36.7036 20.8947L36.7127 35.8884H29.7749C29.2033 34.3321 27.7544 33.3181 26.1043 33.3428C24.4898 33.3681 23.0797 34.3848 22.5383 35.8932L20.0298 35.8658C19.9274 35.8647 19.7753 35.5328 19.7677 35.2934C19.7543 34.8776 19.4544 34.5371 19.0711 34.5005C18.8845 34.4833 18.679 34.55 18.5221 34.6796C18.3744 34.8017 18.2843 34.9685 18.2676 35.1493C18.2174 35.6937 18.4116 36.3015 18.7739 36.7351C19.0775 37.0988 19.4809 37.3204 19.9096 37.3592C20.5167 37.414 21.1094 37.4097 21.682 37.4054C21.8945 37.4038 22.1129 37.4022 22.3291 37.4038C22.3874 38.3404 22.7826 39.2124 23.4577 39.8816C24.1857 40.6035 25.1418 41 26.1539 41C26.1647 41 26.1755 41 26.1858 41C28.21 40.9833 29.8412 39.4222 30.0009 37.4017H37.9465C38.0862 39.4286 39.7158 40.9887 41.7595 40.9995C42.7856 41.0054 43.7482 40.6105 44.4783 39.8891C45.1518 39.2237 45.5498 38.3495 45.6139 37.4054L47.0445 37.4119C47.6113 37.4162 48.1182 37.215 48.4805 36.8508C48.8219 36.507 49.0068 36.0342 48.9998 35.5188L48.941 31.0027H48.9416ZM41.7816 34.8518C43.0628 34.8518 44.1051 35.8916 44.1051 37.1698C44.1051 38.448 43.0628 39.4878 41.7816 39.4878C40.5003 39.4878 39.458 38.448 39.458 37.1698C39.458 35.8916 40.5003 34.8518 41.7816 34.8518ZM42.0426 25.8433L42.0232 25.7965C41.9088 25.5194 41.63 25.2311 41.3189 25.2149C40.915 25.1934 40.5866 25.4844 40.5252 25.9223L40.5214 31.2292L47.4306 31.2373L47.4856 35.6383C47.4468 35.7571 47.3697 35.8486 47.2726 35.89L45.4042 35.8873C44.8455 34.3784 43.4376 33.3627 41.8447 33.3401C41.8263 33.3401 41.8085 33.3401 41.7902 33.3401C40.2329 33.3401 38.8438 34.2815 38.2258 35.7281L38.2237 24.0815L43.6085 24.0734H43.6128C43.8754 24.0734 44.0097 24.1111 44.1197 24.2192L46.8763 29.7165L42.0409 29.7273L42.0426 25.8433ZM28.4824 37.1714C28.4824 38.4496 27.44 39.49 26.1582 39.49C24.8765 39.49 23.8341 38.4501 23.8341 37.1714C23.8341 35.8927 24.8765 34.8528 26.1582 34.8528C27.44 34.8528 28.4824 35.8927 28.4824 37.1714Z" fill="#00BFB1"/>
<path d="M25.1973 24.3515C25.3828 24.3515 25.5532 24.2789 25.6897 24.1412C25.8406 23.9895 25.9372 23.7641 25.935 23.5672C25.9318 23.2251 25.6282 22.8426 25.227 22.8426L16.865 22.8437C16.6919 22.8437 16.5248 22.927 16.3943 23.0793C16.2401 23.2589 16.157 23.5064 16.1867 23.6947C16.2498 24.096 16.5749 24.3553 17.0149 24.3553L25.1973 24.3515Z" fill="#00BFB1"/>
<path d="M24.0563 29.0532L15.752 29.0511C15.3228 29.0511 14.9869 29.4497 14.9836 29.7924C14.982 29.9892 15.0656 30.1872 15.2133 30.3357C15.3595 30.4825 15.5509 30.5638 15.7526 30.5638L24.1038 30.5589C24.272 30.5589 24.4273 30.4809 24.5411 30.3394C24.7039 30.1377 24.7605 29.8332 24.7212 29.6563C24.6667 29.4099 24.3982 29.0532 24.0558 29.0532H24.0563Z" fill="#00BFB1"/>
<path d="M21.7602 33.43C21.9042 33.2745 21.9759 33.0593 21.9576 32.8393C21.9317 32.5241 21.5839 32.1583 21.1746 32.1577L13.0354 32.1561C12.5393 32.1561 12.2173 32.4692 12.2146 32.9544C12.2141 33.1185 12.2966 33.2998 12.4357 33.4397C12.5867 33.5908 12.7792 33.6742 12.9782 33.6742H21.1719C21.4065 33.6737 21.6152 33.5871 21.7597 33.4305L21.7602 33.43Z" fill="#00BFB1"/>
<path d="M13.3082 27.5195L21.5343 27.5233C21.7899 27.5233 22.0029 27.4426 22.1506 27.2903C22.2914 27.1456 22.362 26.9466 22.3545 26.7158C22.3437 26.3839 22.0309 26.0143 21.6001 26.0143L13.3816 26.0133C12.9674 26.0133 12.6412 26.3113 12.6067 26.7223C12.5889 26.9321 12.7221 27.1585 12.8418 27.2887C12.9787 27.4372 13.1443 27.5195 13.3082 27.5195Z" fill="#00BFB1"/>
<path d="M13.7677 30.5665C14.0233 30.5665 14.2481 30.4809 14.4013 30.326C14.5393 30.1861 14.611 30.0005 14.6072 29.7902C14.6008 29.3668 14.2384 29.0484 13.765 29.0484H13.7639L10.77 29.0521C10.3537 29.0521 10.0011 29.3921 10 29.794C10 29.9855 10.0782 30.1786 10.2162 30.3233C10.3624 30.4772 10.556 30.5616 10.7619 30.5622L13.766 30.5665H13.7677Z" fill="#00BFB1"/>
<path d="M13.3719 24.3435L14.672 24.3569C14.6752 24.3569 14.6784 24.3569 14.6822 24.3569C14.9092 24.3569 15.1147 24.2762 15.2613 24.1283C15.4059 23.983 15.4835 23.7824 15.4792 23.5629C15.4722 23.1691 15.1017 22.8377 14.6693 22.8377H14.6671L13.4797 22.8404C13.0553 22.8415 12.7205 23.1433 12.6832 23.5586C12.6655 23.7582 12.7868 23.9707 12.9065 24.1025C13.0462 24.2563 13.2106 24.3418 13.3708 24.3435H13.3719Z" fill="#00BFB1"/>
<defs>
<clipPath id="bgblur_0_1992_7082_clip_path" transform="translate(10 10)"><circle cx="30" cy="30" r="30"/>
</clipPath></defs>
</svg>
