<svg width="1305" height="111" viewBox="0 0 1305 111" fill="none" xmlns="http://www.w3.org/2000/svg">
<g filter="url(#filter0_d_1996_7281)">
<rect x="4" width="1297" height="103" rx="23" fill="white"/>
</g>
<path d="M317 70C317 70.5523 316.552 71 316 71C315.448 71 315 70.5523 315 70L315 34C315 33.4477 315.448 33 316 33C316.552 33 317 33.4477 317 34L317 70Z" fill="#E8E8E8" fill-opacity="0.38"/>
<path d="M610 70C610 70.5523 609.552 71 609 71C608.448 71 608 70.5523 608 70L608 34C608 33.4477 608.448 33 609 33C609.552 33 610 33.4477 610 34L610 70Z" fill="#E8E8E8" fill-opacity="0.38"/>
<path d="M982 70C982 70.5523 981.552 71 981 71C980.448 71 980 70.5523 980 70L980 34C980 33.4477 980.448 33 981 33C981.552 33 982 33.4477 982 34L982 70Z" fill="#E8E8E8" fill-opacity="0.38"/>
<defs>
<filter id="filter0_d_1996_7281" x="0" y="0" width="1305" height="111" filterUnits="userSpaceOnUse" color-interpolation-filters="sRGB">
<feFlood flood-opacity="0" result="BackgroundImageFix"/>
<feColorMatrix in="SourceAlpha" type="matrix" values="0 0 0 0 0 0 0 0 0 0 0 0 0 0 0 0 0 0 127 0" result="hardAlpha"/>
<feOffset dy="4"/>
<feGaussianBlur stdDeviation="2"/>
<feComposite in2="hardAlpha" operator="out"/>
<feColorMatrix type="matrix" values="0 0 0 0 0 0 0 0 0 0 0 0 0 0 0 0 0 0 0.1 0"/>
<feBlend mode="normal" in2="BackgroundImageFix" result="effect1_dropShadow_1996_7281"/>
<feBlend mode="normal" in="SourceGraphic" in2="effect1_dropShadow_1996_7281" result="shape"/>
</filter>
</defs>
</svg>
