<svg width="270" height="47" viewBox="0 0 270 47" fill="none" xmlns="http://www.w3.org/2000/svg">
<g filter="url(#filter0_d_1992_7027)">
<rect x="4" width="262" height="39" rx="19.5" fill="white"/>
</g>
<path d="M53.104 24V12.8H57.296C58.2027 12.8 58.9547 12.9547 59.552 13.264C60.1493 13.5733 60.592 13.9893 60.88 14.512C61.168 15.0347 61.312 15.632 61.312 16.304C61.312 16.9227 61.1733 17.4933 60.896 18.016C60.6187 18.5387 60.1813 18.9653 59.584 19.296C58.9867 19.616 58.224 19.776 57.296 19.776H55.264V24H53.104ZM55.264 18.032H57.168C57.8613 18.032 58.3573 17.8773 58.656 17.568C58.9653 17.248 59.12 16.8267 59.12 16.304C59.12 15.7493 58.9653 15.3227 58.656 15.024C58.3573 14.7147 57.8613 14.56 57.168 14.56H55.264V18.032ZM62.6121 24V12.8H69.9721V14.544H64.7721V17.472H69.4921V19.152H64.7721V22.256H69.9721V24H62.6121ZM71.6203 24V12.8H75.7963C76.7029 12.8 77.4496 12.9547 78.0363 13.264C78.6229 13.5733 79.0603 13.9893 79.3483 14.512C79.6363 15.024 79.7803 15.5947 79.7803 16.224C79.7803 16.8213 79.6416 17.3813 79.3643 17.904C79.0869 18.416 78.6496 18.832 78.0523 19.152C77.4656 19.4613 76.7083 19.616 75.7803 19.616H73.7803V24H71.6203ZM77.4283 24L75.1243 19.072H77.4603L79.8923 24H77.4283ZM73.7803 18.048H75.6683C76.3189 18.048 76.7989 17.888 77.1083 17.568C77.4176 17.248 77.5723 16.8267 77.5723 16.304C77.5723 15.7813 77.4176 15.3707 77.1083 15.072C76.8096 14.7627 76.3296 14.608 75.6683 14.608H73.7803V18.048ZM85.25 24.192C84.4393 24.192 83.714 24.0533 83.074 23.776C82.4447 23.4987 81.9433 23.0933 81.57 22.56C81.2073 22.0267 81.0207 21.3813 81.01 20.624H83.298C83.3087 20.9547 83.394 21.2533 83.554 21.52C83.714 21.7867 83.9327 22 84.21 22.16C84.498 22.3093 84.8393 22.384 85.234 22.384C85.5753 22.384 85.8687 22.3307 86.114 22.224C86.37 22.1067 86.5673 21.9467 86.706 21.744C86.8447 21.5413 86.914 21.3013 86.914 21.024C86.914 20.704 86.834 20.4373 86.674 20.224C86.5247 20.0107 86.3113 19.8293 86.034 19.68C85.7673 19.5307 85.4527 19.3973 85.09 19.28C84.738 19.152 84.3647 19.0187 83.97 18.88C83.0847 18.592 82.4073 18.208 81.938 17.728C81.4793 17.248 81.25 16.6133 81.25 15.824C81.25 15.152 81.41 14.576 81.73 14.096C82.0607 13.616 82.514 13.248 83.09 12.992C83.666 12.736 84.322 12.608 85.058 12.608C85.8153 12.608 86.4767 12.7413 87.042 13.008C87.618 13.264 88.0713 13.6373 88.402 14.128C88.7433 14.6187 88.9193 15.1947 88.93 15.856H86.626C86.6153 15.6107 86.5407 15.3813 86.402 15.168C86.274 14.944 86.0927 14.768 85.858 14.64C85.6233 14.5013 85.346 14.432 85.026 14.432C84.7487 14.4213 84.4927 14.464 84.258 14.56C84.034 14.656 83.8527 14.8 83.714 14.992C83.586 15.1733 83.522 15.4027 83.522 15.68C83.522 15.9467 83.586 16.1707 83.714 16.352C83.8527 16.5333 84.0393 16.6933 84.274 16.832C84.5087 16.96 84.786 17.0827 85.106 17.2C85.426 17.3067 85.7727 17.4187 86.146 17.536C86.7007 17.728 87.2127 17.9573 87.682 18.224C88.1513 18.48 88.5247 18.816 88.802 19.232C89.0793 19.648 89.218 20.1973 89.218 20.88C89.218 21.4667 89.0633 22.0107 88.754 22.512C88.4447 23.0133 87.9967 23.4187 87.41 23.728C86.834 24.0373 86.114 24.192 85.25 24.192ZM95.8983 24.192C94.8103 24.192 93.8503 23.9467 93.0183 23.456C92.1863 22.9653 91.5356 22.288 91.0663 21.424C90.5969 20.5493 90.3623 19.5413 90.3623 18.4C90.3623 17.2587 90.5969 16.256 91.0663 15.392C91.5356 14.5173 92.1863 13.8347 93.0183 13.344C93.8503 12.8533 94.8103 12.608 95.8983 12.608C96.9969 12.608 97.9623 12.8533 98.7943 13.344C99.6263 13.8347 100.272 14.5173 100.73 15.392C101.2 16.256 101.434 17.2587 101.434 18.4C101.434 19.5413 101.2 20.5493 100.73 21.424C100.272 22.288 99.6263 22.9653 98.7943 23.456C97.9623 23.9467 96.9969 24.192 95.8983 24.192ZM95.8983 22.256C96.5809 22.256 97.1676 22.1013 97.6583 21.792C98.1596 21.472 98.5489 21.024 98.8263 20.448C99.1036 19.872 99.2423 19.1893 99.2423 18.4C99.2423 17.6 99.1036 16.9173 98.8263 16.352C98.5489 15.776 98.1596 15.3333 97.6583 15.024C97.1676 14.7147 96.5809 14.56 95.8983 14.56C95.2263 14.56 94.6396 14.7147 94.1383 15.024C93.6369 15.3333 93.2476 15.776 92.9703 16.352C92.6929 16.9173 92.5543 17.6 92.5543 18.4C92.5543 19.1893 92.6929 19.872 92.9703 20.448C93.2476 21.024 93.6369 21.472 94.1383 21.792C94.6396 22.1013 95.2263 22.256 95.8983 22.256ZM102.957 24V12.8H105.117L110.269 20.528V12.8H112.429V24H110.269L105.117 16.288V24H102.957ZM113.541 24L117.637 12.8H120.085L124.165 24H121.877L118.853 15.264L115.813 24H113.541ZM115.349 21.456L115.925 19.776H121.621L122.181 21.456H115.349ZM125.317 24V12.8H127.477V22.32H132.389V24H125.317ZM133.919 24V12.8H136.079V24H133.919ZM137.638 24V22.336L142.806 14.592H137.67V12.8H145.286V14.464L140.102 22.208H145.318V24H137.638ZM146.121 24L150.217 12.8H152.665L156.745 24H154.457L151.433 15.264L148.393 24H146.121ZM147.929 21.456L148.505 19.776H154.201L154.761 21.456H147.929ZM163.95 24V14.544H160.67V12.8H169.358V14.544H166.094V24H163.95ZM174.905 24.192C174.084 24.192 173.337 24.0267 172.665 23.696C171.993 23.3653 171.46 22.8693 171.065 22.208C170.67 21.5467 170.473 20.704 170.473 19.68V12.8H172.633V19.696C172.633 20.2507 172.724 20.72 172.905 21.104C173.086 21.4773 173.348 21.7547 173.689 21.936C174.041 22.1173 174.457 22.208 174.937 22.208C175.428 22.208 175.844 22.1173 176.185 21.936C176.537 21.7547 176.804 21.4773 176.985 21.104C177.166 20.72 177.257 20.2507 177.257 19.696V12.8H179.417V19.68C179.417 20.704 179.214 21.5467 178.809 22.208C178.404 22.8693 177.854 23.3653 177.161 23.696C176.478 24.0267 175.726 24.192 174.905 24.192ZM184.648 24V12.8H187.224L190.648 19.792L194.04 12.8H196.616V24H194.456V16.48L191.496 22.432H189.784L186.808 16.48V24H184.648ZM197.748 24L201.844 12.8H204.292L208.372 24H206.084L203.06 15.264L200.02 24H197.748ZM199.556 21.456L200.132 19.776H205.828L206.388 21.456H199.556ZM209.523 24V12.8H213.699C214.606 12.8 215.353 12.9547 215.939 13.264C216.526 13.5733 216.963 13.9893 217.251 14.512C217.539 15.024 217.683 15.5947 217.683 16.224C217.683 16.8213 217.545 17.3813 217.267 17.904C216.99 18.416 216.553 18.832 215.955 19.152C215.369 19.4613 214.611 19.616 213.683 19.616H211.683V24H209.523ZM215.331 24L213.027 19.072H215.363L217.795 24H215.331ZM211.683 18.048H213.571C214.222 18.048 214.702 17.888 215.011 17.568C215.321 17.248 215.475 16.8267 215.475 16.304C215.475 15.7813 215.321 15.3707 215.011 15.072C214.713 14.7627 214.233 14.608 213.571 14.608H211.683V18.048ZM224.321 24.192C223.201 24.192 222.236 23.952 221.425 23.472C220.625 22.9813 220.006 22.304 219.569 21.44C219.142 20.5653 218.929 19.5573 218.929 18.416C218.929 17.2747 219.142 16.2667 219.569 15.392C220.006 14.5173 220.625 13.8347 221.425 13.344C222.236 12.8533 223.201 12.608 224.321 12.608C225.676 12.608 226.785 12.944 227.649 13.616C228.513 14.288 229.052 15.2373 229.265 16.464H226.913C226.774 15.8667 226.481 15.4027 226.033 15.072C225.596 14.7307 225.02 14.56 224.305 14.56C223.644 14.56 223.073 14.72 222.593 15.04C222.124 15.3493 221.761 15.792 221.505 16.368C221.249 16.9333 221.121 17.616 221.121 18.416C221.121 19.2053 221.249 19.888 221.505 20.464C221.761 21.04 222.124 21.4827 222.593 21.792C223.073 22.1013 223.644 22.256 224.305 22.256C225.02 22.256 225.596 22.1013 226.033 21.792C226.47 21.472 226.758 21.0293 226.897 20.464H229.265C229.052 21.6267 228.513 22.5387 227.649 23.2C226.785 23.8613 225.676 24.192 224.321 24.192ZM229.928 24L234.024 12.8H236.472L240.552 24H238.264L235.24 15.264L232.2 24H229.928ZM231.736 21.456L232.312 19.776H238.008L238.568 21.456H231.736Z" fill="#01D0C5"/>
<path d="M37.6677 25.3516C37.3594 24.3342 37.1612 23.3209 36.7249 22.3475C35.69 20.0374 33.6503 19.6808 31.3368 19.1026C32.5699 18.6992 33.3695 18.6427 34.6261 18.0273C36.7635 16.9824 37.0759 14.9173 37.6608 12.7627C38.3352 15.1362 38.6201 17.2109 41.1194 18.2187C42.0457 18.5918 42.9692 18.7997 44 19.0929C41.8034 19.6698 39.6977 19.9947 38.6559 22.2691C38.1866 23.2204 38.0228 24.1979 37.6663 25.3516H37.6677Z" fill="#01D0C5"/>
<path d="M32.4584 30C32.1363 28.8504 31.9547 27.7256 30.8234 27.1502C30.054 26.7592 29.7361 26.8211 29.0548 26.5237C31.5211 25.9152 31.8652 25.4458 32.4584 23.0833C33.1438 25.5587 33.3888 25.8602 35.8675 26.5237C35.7546 26.5816 35.6225 26.6366 35.4972 26.6683C33.28 27.2355 33.0667 27.8399 32.457 30H32.4584Z" fill="#01D0C5"/>
<path d="M32.4586 15.031C32.1311 13.8621 31.9466 12.7194 30.7974 12.1343C30.0157 11.7365 29.6923 11.7998 29 11.4969C31.5048 10.8788 31.8558 10.4024 32.4586 8C33.155 10.5167 33.4041 10.8223 35.9241 11.4969C35.8085 11.5561 35.675 11.6112 35.5484 11.6442C33.2954 12.2211 33.0779 12.8351 32.4586 15.031Z" fill="#01D0C5"/>
<defs>
<filter id="filter0_d_1992_7027" x="0" y="0" width="270" height="47" filterUnits="userSpaceOnUse" color-interpolation-filters="sRGB">
<feFlood flood-opacity="0" result="BackgroundImageFix"/>
<feColorMatrix in="SourceAlpha" type="matrix" values="0 0 0 0 0 0 0 0 0 0 0 0 0 0 0 0 0 0 127 0" result="hardAlpha"/>
<feOffset dy="4"/>
<feGaussianBlur stdDeviation="2"/>
<feComposite in2="hardAlpha" operator="out"/>
<feColorMatrix type="matrix" values="0 0 0 0 0 0 0 0 0 0 0 0 0 0 0 0 0 0 0.03 0"/>
<feBlend mode="normal" in2="BackgroundImageFix" result="effect1_dropShadow_1992_7027"/>
<feBlend mode="normal" in="SourceGraphic" in2="effect1_dropShadow_1992_7027" result="shape"/>
</filter>
</defs>
</svg>
