<svg width="330" height="219" viewBox="0 0 330 219" fill="none" xmlns="http://www.w3.org/2000/svg">
<g filter="url(#filter0_d_2383_6449)">
<rect x="6" y="5" width="318" height="207" rx="14" fill="#FBFCFD"/>
</g>
<path d="M80.9161 34.897V32.9091H91.3607V34.897H87.3145V46H84.9623V34.897H80.9161ZM94.7613 46.1982C94.1391 46.1982 93.5787 46.0874 93.0802 45.8658C92.5858 45.6399 92.1938 45.3075 91.904 44.8686C91.6185 44.4297 91.4758 43.8885 91.4758 43.245C91.4758 42.6911 91.578 42.233 91.7826 41.8707C91.9871 41.5085 92.2662 41.2188 92.6199 41.0014C92.9736 40.7841 93.3721 40.62 93.8153 40.5092C94.2627 40.3942 94.7251 40.3111 95.2023 40.2599C95.7776 40.2003 96.2442 40.147 96.6022 40.1001C96.9601 40.049 97.2201 39.9723 97.382 39.87C97.5482 39.7635 97.6313 39.5994 97.6313 39.3778V39.3395C97.6313 38.858 97.4885 38.4851 97.203 38.2209C96.9175 37.9567 96.5063 37.8246 95.9694 37.8246C95.4026 37.8246 94.953 37.9482 94.6207 38.1953C94.2925 38.4425 94.0709 38.7344 93.9559 39.071L91.7954 38.7642C91.9658 38.1676 92.2471 37.669 92.6391 37.2685C93.0312 36.8636 93.5106 36.5611 94.0773 36.3608C94.6441 36.1562 95.2705 36.054 95.9566 36.054C96.4296 36.054 96.9005 36.1094 97.3692 36.2202C97.838 36.331 98.2662 36.5142 98.654 36.7699C99.0418 37.0213 99.3529 37.3643 99.5873 37.799C99.8259 38.2337 99.9452 38.777 99.9452 39.429V46H97.7208V44.6513H97.6441C97.5035 44.924 97.3053 45.1797 97.0496 45.4183C96.7982 45.6527 96.4807 45.8423 96.0972 45.9872C95.718 46.1278 95.2726 46.1982 94.7613 46.1982ZM95.3621 44.4979C95.8266 44.4979 96.2293 44.4062 96.5702 44.223C96.9111 44.0355 97.1732 43.7884 97.3564 43.4815C97.5439 43.1747 97.6377 42.8402 97.6377 42.478V41.321C97.5653 41.3807 97.4417 41.4361 97.267 41.4872C97.0965 41.5384 96.9047 41.5831 96.6917 41.6214C96.4786 41.6598 96.2677 41.6939 96.0589 41.7237C95.8501 41.7536 95.6689 41.7791 95.5155 41.8004C95.1704 41.8473 94.8614 41.924 94.5887 42.0305C94.316 42.1371 94.1008 42.2862 93.9431 42.478C93.7854 42.6655 93.7066 42.9084 93.7066 43.2067C93.7066 43.6328 93.8621 43.9545 94.1732 44.1719C94.4843 44.3892 94.8806 44.4979 95.3621 44.4979ZM102.272 46V36.1818H104.484V37.8501H104.599C104.803 37.2876 105.142 36.8487 105.615 36.5334C106.088 36.2138 106.653 36.054 107.309 36.054C107.974 36.054 108.534 36.2159 108.99 36.5398C109.45 36.8594 109.774 37.2962 109.962 37.8501H110.064C110.281 37.3047 110.648 36.87 111.163 36.5462C111.683 36.218 112.299 36.054 113.011 36.054C113.914 36.054 114.651 36.3395 115.222 36.9105C115.793 37.4815 116.079 38.3146 116.079 39.4098V46H113.758V39.7678C113.758 39.1584 113.597 38.7131 113.273 38.4318C112.949 38.1463 112.552 38.0036 112.084 38.0036C111.525 38.0036 111.089 38.1783 110.773 38.5277C110.462 38.8729 110.307 39.3224 110.307 39.8764V46H108.038V39.6719C108.038 39.1648 107.884 38.7599 107.577 38.4574C107.275 38.1548 106.878 38.0036 106.388 38.0036C106.056 38.0036 105.753 38.0888 105.481 38.2592C105.208 38.4254 104.991 38.6619 104.829 38.9688C104.667 39.2713 104.586 39.625 104.586 40.0298V46H102.272ZM118.426 49.6818V36.1818H120.702V37.8054H120.836C120.955 37.5668 121.124 37.3132 121.341 37.0447C121.558 36.772 121.852 36.5398 122.223 36.348C122.594 36.152 123.067 36.054 123.642 36.054C124.401 36.054 125.085 36.2479 125.694 36.6357C126.308 37.0192 126.793 37.5881 127.151 38.3423C127.514 39.0923 127.695 40.0128 127.695 41.1037C127.695 42.1818 127.518 43.098 127.164 43.8523C126.81 44.6065 126.329 45.1818 125.72 45.5781C125.11 45.9744 124.42 46.1726 123.649 46.1726C123.086 46.1726 122.619 46.0788 122.249 45.8913C121.878 45.7038 121.58 45.478 121.354 45.2138C121.132 44.9453 120.96 44.6918 120.836 44.4531H120.74V49.6818H118.426ZM120.695 41.0909C120.695 41.7259 120.785 42.282 120.964 42.7592C121.147 43.2365 121.409 43.6094 121.75 43.8778C122.095 44.142 122.513 44.2741 123.003 44.2741C123.514 44.2741 123.943 44.1378 124.288 43.8651C124.633 43.5881 124.893 43.2109 125.068 42.7337C125.247 42.2521 125.336 41.7045 125.336 41.0909C125.336 40.4815 125.249 39.9403 125.074 39.4673C124.899 38.9943 124.639 38.6236 124.294 38.3551C123.949 38.0866 123.519 37.9524 123.003 37.9524C122.509 37.9524 122.089 38.0824 121.744 38.3423C121.399 38.6023 121.136 38.9666 120.957 39.4354C120.783 39.9041 120.695 40.456 120.695 41.0909ZM133.959 46.1918C133 46.1918 132.169 45.9808 131.466 45.5589C130.763 45.1371 130.217 44.5469 129.83 43.7884C129.446 43.0298 129.254 42.1435 129.254 41.1293C129.254 40.1151 129.446 39.2266 129.83 38.4638C130.217 37.701 130.763 37.1087 131.466 36.6868C132.169 36.2649 133 36.054 133.959 36.054C134.918 36.054 135.749 36.2649 136.452 36.6868C137.155 37.1087 137.698 37.701 138.082 38.4638C138.47 39.2266 138.663 40.1151 138.663 41.1293C138.663 42.1435 138.47 43.0298 138.082 43.7884C137.698 44.5469 137.155 45.1371 136.452 45.5589C135.749 45.9808 134.918 46.1918 133.959 46.1918ZM133.972 44.3381C134.492 44.3381 134.926 44.1953 135.276 43.9098C135.625 43.62 135.885 43.2322 136.055 42.7464C136.23 42.2607 136.318 41.7195 136.318 41.1229C136.318 40.522 136.23 39.9787 136.055 39.4929C135.885 39.0028 135.625 38.6129 135.276 38.3232C134.926 38.0334 134.492 37.8885 133.972 37.8885C133.439 37.8885 132.996 38.0334 132.642 38.3232C132.293 38.6129 132.031 39.0028 131.856 39.4929C131.685 39.9787 131.6 40.522 131.6 41.1229C131.6 41.7195 131.685 42.2607 131.856 42.7464C132.031 43.2322 132.293 43.62 132.642 43.9098C132.996 44.1953 133.439 44.3381 133.972 44.3381ZM144.897 49.8864C144.066 49.8864 143.353 49.7734 142.756 49.5476C142.159 49.326 141.68 49.0277 141.318 48.6527C140.956 48.2777 140.704 47.8622 140.563 47.4062L142.647 46.9013C142.741 47.093 142.877 47.2827 143.056 47.4702C143.235 47.6619 143.476 47.8196 143.779 47.9432C144.085 48.071 144.471 48.1349 144.936 48.1349C145.592 48.1349 146.135 47.9751 146.566 47.6555C146.996 47.3402 147.211 46.8203 147.211 46.0959V44.2358H147.096C146.977 44.4744 146.802 44.7195 146.572 44.9709C146.346 45.2223 146.046 45.4332 145.671 45.6037C145.3 45.7741 144.833 45.8594 144.271 45.8594C143.517 45.8594 142.833 45.6825 142.219 45.3288C141.61 44.9709 141.124 44.4382 140.762 43.7308C140.404 43.0192 140.225 42.1286 140.225 41.0589C140.225 39.9808 140.404 39.071 140.762 38.3295C141.124 37.5838 141.612 37.0192 142.225 36.6357C142.839 36.2479 143.523 36.054 144.277 36.054C144.853 36.054 145.326 36.152 145.696 36.348C146.071 36.5398 146.37 36.772 146.591 37.0447C146.813 37.3132 146.981 37.5668 147.096 37.8054H147.224V36.1818H149.506V46.1598C149.506 46.9993 149.306 47.6939 148.905 48.2436C148.505 48.7933 147.957 49.2045 147.262 49.4773C146.568 49.75 145.779 49.8864 144.897 49.8864ZM144.916 44.044C145.407 44.044 145.824 43.9247 146.169 43.6861C146.514 43.4474 146.777 43.1044 146.956 42.657C147.134 42.2095 147.224 41.6726 147.224 41.0462C147.224 40.4283 147.134 39.8871 146.956 39.4226C146.781 38.9581 146.521 38.598 146.176 38.3423C145.835 38.0824 145.415 37.9524 144.916 37.9524C144.401 37.9524 143.97 38.0866 143.625 38.3551C143.28 38.6236 143.02 38.9922 142.845 39.4609C142.671 39.9254 142.583 40.4538 142.583 41.0462C142.583 41.647 142.671 42.1733 142.845 42.625C143.024 43.0724 143.286 43.4219 143.632 43.6733C143.981 43.9205 144.409 44.044 144.916 44.044ZM151.877 46V36.1818H154.121V37.8182H154.223C154.402 37.2514 154.709 36.8146 155.144 36.5078C155.583 36.1967 156.083 36.0412 156.646 36.0412C156.774 36.0412 156.916 36.0476 157.074 36.0604C157.236 36.0689 157.37 36.0838 157.477 36.1051V38.2337C157.379 38.1996 157.223 38.1697 157.01 38.1442C156.801 38.1143 156.599 38.0994 156.403 38.0994C155.981 38.0994 155.602 38.1911 155.265 38.3743C154.933 38.5533 154.671 38.8026 154.479 39.1222C154.287 39.4418 154.191 39.8104 154.191 40.228V46H151.877ZM161.664 46.1982C161.041 46.1982 160.481 46.0874 159.983 45.8658C159.488 45.6399 159.096 45.3075 158.806 44.8686C158.521 44.4297 158.378 43.8885 158.378 43.245C158.378 42.6911 158.48 42.233 158.685 41.8707C158.889 41.5085 159.169 41.2188 159.522 41.0014C159.876 40.7841 160.274 40.62 160.718 40.5092C161.165 40.3942 161.627 40.3111 162.105 40.2599C162.68 40.2003 163.147 40.147 163.505 40.1001C163.862 40.049 164.122 39.9723 164.284 39.87C164.451 39.7635 164.534 39.5994 164.534 39.3778V39.3395C164.534 38.858 164.391 38.4851 164.105 38.2209C163.82 37.9567 163.409 37.8246 162.872 37.8246C162.305 37.8246 161.855 37.9482 161.523 38.1953C161.195 38.4425 160.973 38.7344 160.858 39.071L158.698 38.7642C158.868 38.1676 159.149 37.669 159.541 37.2685C159.934 36.8636 160.413 36.5611 160.98 36.3608C161.546 36.1562 162.173 36.054 162.859 36.054C163.332 36.054 163.803 36.1094 164.272 36.2202C164.74 36.331 165.169 36.5142 165.556 36.7699C165.944 37.0213 166.255 37.3643 166.49 37.799C166.728 38.2337 166.848 38.777 166.848 39.429V46H164.623V44.6513H164.546C164.406 44.924 164.208 45.1797 163.952 45.4183C163.701 45.6527 163.383 45.8423 163 45.9872C162.62 46.1278 162.175 46.1982 161.664 46.1982ZM162.264 44.4979C162.729 44.4979 163.132 44.4062 163.473 44.223C163.813 44.0355 164.076 43.7884 164.259 43.4815C164.446 43.1747 164.54 42.8402 164.54 42.478V41.321C164.468 41.3807 164.344 41.4361 164.169 41.4872C163.999 41.5384 163.807 41.5831 163.594 41.6214C163.381 41.6598 163.17 41.6939 162.961 41.7237C162.752 41.7536 162.571 41.7791 162.418 41.8004C162.073 41.8473 161.764 41.924 161.491 42.0305C161.218 42.1371 161.003 42.2862 160.845 42.478C160.688 42.6655 160.609 42.9084 160.609 43.2067C160.609 43.6328 160.764 43.9545 161.076 44.1719C161.387 44.3892 161.783 44.4979 162.264 44.4979ZM174.147 36.1818V37.9716H168.343V36.1818H174.147ZM169.794 46V35.255C169.794 34.5945 169.931 34.0447 170.203 33.6058C170.48 33.1669 170.851 32.8388 171.316 32.6214C171.78 32.4041 172.296 32.2955 172.862 32.2955C173.263 32.2955 173.619 32.3274 173.93 32.3913C174.241 32.4553 174.471 32.5128 174.62 32.5639L174.16 34.3537C174.062 34.3239 173.938 34.294 173.789 34.2642C173.64 34.2301 173.474 34.2131 173.291 34.2131C172.86 34.2131 172.556 34.3175 172.377 34.5263C172.202 34.7308 172.115 35.0249 172.115 35.4084V46H169.794ZM175.959 46V36.1818H178.273V46H175.959ZM176.234 34.8906L177.666 31.9695H179.929L177.967 34.8906H176.234ZM183.478 46.1982C182.856 46.1982 182.296 46.0874 181.797 45.8658C181.303 45.6399 180.911 45.3075 180.621 44.8686C180.335 44.4297 180.193 43.8885 180.193 43.245C180.193 42.6911 180.295 42.233 180.499 41.8707C180.704 41.5085 180.983 41.2188 181.337 41.0014C181.69 40.7841 182.089 40.62 182.532 40.5092C182.979 40.3942 183.442 40.3111 183.919 40.2599C184.494 40.2003 184.961 40.147 185.319 40.1001C185.677 40.049 185.937 39.9723 186.099 39.87C186.265 39.7635 186.348 39.5994 186.348 39.3778V39.3395C186.348 38.858 186.205 38.4851 185.92 38.2209C185.634 37.9567 185.223 37.8246 184.686 37.8246C184.119 37.8246 183.67 37.9482 183.337 38.1953C183.009 38.4425 182.788 38.7344 182.673 39.071L180.512 38.7642C180.683 38.1676 180.964 37.669 181.356 37.2685C181.748 36.8636 182.227 36.5611 182.794 36.3608C183.361 36.1562 183.987 36.054 184.673 36.054C185.146 36.054 185.617 36.1094 186.086 36.2202C186.555 36.331 186.983 36.5142 187.371 36.7699C187.759 37.0213 188.07 37.3643 188.304 37.799C188.543 38.2337 188.662 38.777 188.662 39.429V46H186.438V44.6513H186.361C186.22 44.924 186.022 45.1797 185.766 45.4183C185.515 45.6527 185.198 45.8423 184.814 45.9872C184.435 46.1278 183.989 46.1982 183.478 46.1982ZM184.079 44.4979C184.543 44.4979 184.946 44.4062 185.287 44.223C185.628 44.0355 185.89 43.7884 186.073 43.4815C186.261 43.1747 186.354 42.8402 186.354 42.478V41.321C186.282 41.3807 186.158 41.4361 185.984 41.4872C185.813 41.5384 185.622 41.5831 185.408 41.6214C185.195 41.6598 184.984 41.6939 184.776 41.7237C184.567 41.7536 184.386 41.7791 184.232 41.8004C183.887 41.8473 183.578 41.924 183.305 42.0305C183.033 42.1371 182.818 42.2862 182.66 42.478C182.502 42.6655 182.423 42.9084 182.423 43.2067C182.423 43.6328 182.579 43.9545 182.89 44.1719C183.201 44.3892 183.597 44.4979 184.079 44.4979Z" fill="#00C5C9"/>
<circle cx="48" cy="41" r="21" fill="#7FDED9"/>
<rect x="27.5" y="113.5" width="120" height="34" rx="4.5" stroke="#D9D9D9"/>
<path d="M27.9982 103V95.7273H30.5906C31.1564 95.7273 31.6251 95.8303 31.9968 96.0362C32.3685 96.2422 32.6467 96.5239 32.8313 96.8814C33.016 97.2365 33.1083 97.6366 33.1083 98.0817C33.1083 98.5291 33.0148 98.9316 32.8278 99.2891C32.6431 99.6442 32.3638 99.9259 31.9897 100.134C31.618 100.34 31.1504 100.443 30.587 100.443H28.8043V99.5128H30.4876C30.8451 99.5128 31.1351 99.4512 31.3576 99.3281C31.5801 99.2027 31.7435 99.0322 31.8477 98.8168C31.9518 98.6013 32.0039 98.3563 32.0039 98.0817C32.0039 97.8071 31.9518 97.5632 31.8477 97.3501C31.7435 97.1371 31.579 96.9702 31.354 96.8494C31.1315 96.7287 30.8379 96.6683 30.4734 96.6683H29.0955V103H27.9982ZM36.5387 103.11C36.0273 103.11 35.5811 102.993 35.1999 102.759C34.8188 102.524 34.5228 102.196 34.3121 101.775C34.1014 101.353 33.9961 100.861 33.9961 100.298C33.9961 99.7318 34.1014 99.237 34.3121 98.8132C34.5228 98.3894 34.8188 98.0604 35.1999 97.826C35.5811 97.5916 36.0273 97.4744 36.5387 97.4744C37.0501 97.4744 37.4963 97.5916 37.8775 97.826C38.2586 98.0604 38.5546 98.3894 38.7653 98.8132C38.976 99.237 39.0813 99.7318 39.0813 100.298C39.0813 100.861 38.976 101.353 38.7653 101.775C38.5546 102.196 38.2586 102.524 37.8775 102.759C37.4963 102.993 37.0501 103.11 36.5387 103.11ZM36.5423 102.219C36.8737 102.219 37.1483 102.131 37.3661 101.956C37.5839 101.781 37.7449 101.548 37.8491 101.256C37.9556 100.965 38.0089 100.644 38.0089 100.294C38.0089 99.946 37.9556 99.6264 37.8491 99.3352C37.7449 99.0417 37.5839 98.8061 37.3661 98.6286C37.1483 98.451 36.8737 98.3622 36.5423 98.3622C36.2085 98.3622 35.9315 98.451 35.7113 98.6286C35.4935 98.8061 35.3313 99.0417 35.2248 99.3352C35.1206 99.6264 35.0685 99.946 35.0685 100.294C35.0685 100.644 35.1206 100.965 35.2248 101.256C35.3313 101.548 35.4935 101.781 35.7113 101.956C35.9315 102.131 36.2085 102.219 36.5423 102.219ZM44.3539 98.8771L43.3915 99.0476C43.3513 98.9245 43.2873 98.8073 43.1998 98.696C43.1145 98.5848 42.9985 98.4936 42.8517 98.4226C42.705 98.3516 42.5215 98.3161 42.3013 98.3161C42.0007 98.3161 41.7497 98.3835 41.5485 98.5185C41.3472 98.651 41.2466 98.8227 41.2466 99.0334C41.2466 99.2157 41.3141 99.3625 41.449 99.4737C41.584 99.585 41.8018 99.6761 42.1025 99.7472L42.9689 99.946C43.4708 100.062 43.8449 100.241 44.0911 100.482C44.3373 100.724 44.4604 101.037 44.4604 101.423C44.4604 101.75 44.3657 102.041 44.1763 102.297C43.9893 102.55 43.7277 102.749 43.3915 102.893C43.0577 103.038 42.6706 103.11 42.2303 103.11C41.6195 103.11 41.1212 102.98 40.7353 102.719C40.3494 102.457 40.1126 102.084 40.025 101.601L41.0513 101.445C41.1152 101.712 41.2466 101.915 41.4455 102.052C41.6444 102.187 41.9036 102.254 42.2232 102.254C42.5712 102.254 42.8494 102.182 43.0577 102.038C43.266 101.891 43.3702 101.712 43.3702 101.501C43.3702 101.331 43.3063 101.188 43.1784 101.072C43.053 100.956 42.86 100.868 42.5996 100.809L41.6763 100.607C41.1673 100.491 40.7909 100.306 40.5471 100.053C40.3056 99.7992 40.1848 99.4785 40.1848 99.0902C40.1848 98.7682 40.2748 98.4865 40.4547 98.245C40.6346 98.0036 40.8832 97.8153 41.2005 97.6804C41.5177 97.5431 41.8811 97.4744 42.2907 97.4744C42.8801 97.4744 43.3442 97.6023 43.6827 97.858C44.0212 98.1113 44.245 98.451 44.3539 98.8771ZM45.6278 103V97.5455H46.6896V103H45.6278ZM46.1641 96.7038C45.9794 96.7038 45.8208 96.6423 45.6882 96.5192C45.558 96.3937 45.4929 96.2446 45.4929 96.0717C45.4929 95.8965 45.558 95.7474 45.6882 95.6243C45.8208 95.4988 45.9794 95.4361 46.1641 95.4361C46.3487 95.4361 46.5062 95.4988 46.6364 95.6243C46.7689 95.7474 46.8352 95.8965 46.8352 96.0717C46.8352 96.2446 46.7689 96.3937 46.6364 96.5192C46.5062 96.6423 46.3487 96.7038 46.1641 96.7038ZM50.4157 103.11C49.8877 103.11 49.4332 102.991 49.052 102.751C48.6732 102.51 48.382 102.177 48.1784 101.754C47.9748 101.33 47.873 100.844 47.873 100.298C47.873 99.7436 47.9772 99.2547 48.1855 98.831C48.3939 98.4048 48.6874 98.0722 49.0662 97.8331C49.445 97.594 49.8913 97.4744 50.405 97.4744C50.8193 97.4744 51.1886 97.5514 51.513 97.7053C51.8373 97.8568 52.0989 98.0698 52.2978 98.3445C52.499 98.6191 52.6185 98.9399 52.6564 99.3068H51.623C51.5662 99.0511 51.436 98.831 51.2324 98.6463C51.0312 98.4616 50.7613 98.3693 50.4228 98.3693C50.1268 98.3693 49.8676 98.4474 49.6451 98.6037C49.4249 98.7576 49.2533 98.9777 49.1301 99.2642C49.007 99.5483 48.9455 99.8845 48.9455 100.273C48.9455 100.67 49.0059 101.014 49.1266 101.303C49.2473 101.591 49.4178 101.815 49.638 101.974C49.8605 102.132 50.1221 102.212 50.4228 102.212C50.624 102.212 50.8063 102.175 50.9696 102.102C51.1354 102.026 51.2739 101.918 51.3851 101.778C51.4988 101.639 51.5781 101.471 51.623 101.274H52.6564C52.6185 101.627 52.5037 101.942 52.312 102.219C52.1202 102.496 51.8633 102.714 51.5414 102.872C51.2218 103.031 50.8465 103.11 50.4157 103.11ZM53.7919 103V97.5455H54.8537V103H53.7919ZM54.3281 96.7038C54.1435 96.7038 53.9848 96.6423 53.8523 96.5192C53.7221 96.3937 53.657 96.2446 53.657 96.0717C53.657 95.8965 53.7221 95.7474 53.8523 95.6243C53.9848 95.4988 54.1435 95.4361 54.3281 95.4361C54.5128 95.4361 54.6702 95.4988 54.8004 95.6243C54.933 95.7474 54.9993 95.8965 54.9993 96.0717C54.9993 96.2446 54.933 96.3937 54.8004 96.5192C54.6702 96.6423 54.5128 96.7038 54.3281 96.7038ZM58.5797 103.11C58.0684 103.11 57.6221 102.993 57.2409 102.759C56.8598 102.524 56.5639 102.196 56.3532 101.775C56.1425 101.353 56.0371 100.861 56.0371 100.298C56.0371 99.7318 56.1425 99.237 56.3532 98.8132C56.5639 98.3894 56.8598 98.0604 57.2409 97.826C57.6221 97.5916 58.0684 97.4744 58.5797 97.4744C59.0911 97.4744 59.5373 97.5916 59.9185 97.826C60.2997 98.0604 60.5956 98.3894 60.8063 98.8132C61.017 99.237 61.1223 99.7318 61.1223 100.298C61.1223 100.861 61.017 101.353 60.8063 101.775C60.5956 102.196 60.2997 102.524 59.9185 102.759C59.5373 102.993 59.0911 103.11 58.5797 103.11ZM58.5833 102.219C58.9147 102.219 59.1893 102.131 59.4071 101.956C59.6249 101.781 59.7859 101.548 59.8901 101.256C59.9966 100.965 60.0499 100.644 60.0499 100.294C60.0499 99.946 59.9966 99.6264 59.8901 99.3352C59.7859 99.0417 59.6249 98.8061 59.4071 98.6286C59.1893 98.451 58.9147 98.3622 58.5833 98.3622C58.2495 98.3622 57.9725 98.451 57.7523 98.6286C57.5345 98.8061 57.3723 99.0417 57.2658 99.3352C57.1616 99.6264 57.1096 99.946 57.1096 100.294C57.1096 100.644 57.1616 100.965 57.2658 101.256C57.3723 101.548 57.5345 101.781 57.7523 101.956C57.9725 102.131 58.2495 102.219 58.5833 102.219ZM63.3693 99.7614V103H62.3075V97.5455H63.3267V98.4332H63.3942C63.5196 98.1444 63.7161 97.9124 63.9837 97.7372C64.2536 97.562 64.5933 97.4744 65.0028 97.4744C65.3745 97.4744 65.7 97.5526 65.9794 97.7088C66.2588 97.8627 66.4754 98.0923 66.6293 98.3977C66.7831 98.7031 66.8601 99.0807 66.8601 99.5305V103H65.7983V99.6584C65.7983 99.263 65.6953 98.9541 65.4893 98.7315C65.2834 98.5066 65.0005 98.3942 64.6406 98.3942C64.3944 98.3942 64.1754 98.4474 63.9837 98.554C63.7943 98.6605 63.6439 98.8168 63.5327 99.0227C63.4238 99.2263 63.3693 99.4725 63.3693 99.7614ZM70.6349 103.11C70.0975 103.11 69.6347 102.995 69.2464 102.766C68.8606 102.534 68.5623 102.208 68.3516 101.789C68.1432 101.368 68.0391 100.874 68.0391 100.308C68.0391 99.7495 68.1432 99.2571 68.3516 98.831C68.5623 98.4048 68.8558 98.0722 69.2322 97.8331C69.611 97.594 70.0537 97.4744 70.5604 97.4744C70.8681 97.4744 71.1664 97.5253 71.4553 97.6271C71.7441 97.7289 72.0033 97.8887 72.233 98.1065C72.4626 98.3243 72.6437 98.6072 72.7763 98.9553C72.9089 99.3009 72.9751 99.7211 72.9751 100.216V100.592H68.6392V99.7969H71.9347C71.9347 99.5175 71.8778 99.2701 71.7642 99.0547C71.6506 98.8369 71.4908 98.6652 71.2848 98.5398C71.0812 98.4143 70.8421 98.3516 70.5675 98.3516C70.2692 98.3516 70.0088 98.425 69.7862 98.5717C69.5661 98.7161 69.3956 98.9055 69.2749 99.1399C69.1565 99.3719 69.0973 99.6241 69.0973 99.8963V100.518C69.0973 100.882 69.1612 101.192 69.2891 101.448C69.4193 101.704 69.6004 101.899 69.8324 102.034C70.0644 102.167 70.3355 102.233 70.6456 102.233C70.8468 102.233 71.0303 102.205 71.196 102.148C71.3617 102.089 71.505 102.001 71.6257 101.885C71.7464 101.769 71.8388 101.626 71.9027 101.455L72.9077 101.636C72.8272 101.932 72.6828 102.192 72.4744 102.414C72.2685 102.634 72.0092 102.806 71.6967 102.929C71.3866 103.05 71.0327 103.11 70.6349 103.11ZM78.2406 98.8771L77.2782 99.0476C77.238 98.9245 77.1741 98.8073 77.0865 98.696C77.0012 98.5848 76.8852 98.4936 76.7385 98.4226C76.5917 98.3516 76.4082 98.3161 76.188 98.3161C75.8874 98.3161 75.6364 98.3835 75.4352 98.5185C75.234 98.651 75.1333 98.8227 75.1333 99.0334C75.1333 99.2157 75.2008 99.3625 75.3358 99.4737C75.4707 99.585 75.6885 99.6761 75.9892 99.7472L76.8556 99.946C77.3575 100.062 77.7316 100.241 77.9778 100.482C78.224 100.724 78.3471 101.037 78.3471 101.423C78.3471 101.75 78.2524 102.041 78.063 102.297C77.876 102.55 77.6144 102.749 77.2782 102.893C76.9444 103.038 76.5574 103.11 76.117 103.11C75.5062 103.11 75.0079 102.98 74.622 102.719C74.2361 102.457 73.9993 102.084 73.9118 101.601L74.938 101.445C75.002 101.712 75.1333 101.915 75.3322 102.052C75.5311 102.187 75.7903 102.254 76.1099 102.254C76.4579 102.254 76.7361 102.182 76.9444 102.038C77.1528 101.891 77.2569 101.712 77.2569 101.501C77.2569 101.331 77.193 101.188 77.0652 101.072C76.9397 100.956 76.7467 100.868 76.4863 100.809L75.563 100.607C75.054 100.491 74.6776 100.306 74.4338 100.053C74.1923 99.7992 74.0716 99.4785 74.0716 99.0902C74.0716 98.7682 74.1615 98.4865 74.3414 98.245C74.5214 98.0036 74.7699 97.8153 75.0872 97.6804C75.4044 97.5431 75.7678 97.4744 76.1774 97.4744C76.7669 97.4744 77.2309 97.6023 77.5694 97.858C77.908 98.1113 78.1317 98.451 78.2406 98.8771Z" fill="#666666"/>
<path d="M163.562 96.6719V95.7273H169.191V96.6719H166.922V103H165.828V96.6719H163.562ZM170.35 103V97.5455H171.411V103H170.35ZM170.886 96.7038C170.701 96.7038 170.542 96.6423 170.41 96.5192C170.28 96.3937 170.215 96.2446 170.215 96.0717C170.215 95.8965 170.28 95.7474 170.41 95.6243C170.542 95.4988 170.701 95.4361 170.886 95.4361C171.07 95.4361 171.228 95.4988 171.358 95.6243C171.491 95.7474 171.557 95.8965 171.557 96.0717C171.557 96.2446 171.491 96.3937 171.358 96.5192C171.228 96.6423 171.07 96.7038 170.886 96.7038ZM173.902 99.7614V103H172.84V97.5455H173.859V98.4332H173.926C174.052 98.1444 174.248 97.9124 174.516 97.7372C174.786 97.562 175.126 97.4744 175.535 97.4744C175.907 97.4744 176.232 97.5526 176.512 97.7088C176.791 97.8627 177.008 98.0923 177.161 98.3977C177.315 98.7031 177.392 99.0807 177.392 99.5305V103H176.331V99.6584C176.331 99.263 176.228 98.9541 176.022 98.7315C175.816 98.5066 175.533 98.3942 175.173 98.3942C174.927 98.3942 174.708 98.4474 174.516 98.554C174.326 98.6605 174.176 98.8168 174.065 99.0227C173.956 99.2263 173.902 99.4725 173.902 99.7614ZM181.362 97.5455V98.3977H178.383V97.5455H181.362ZM179.182 96.2386H180.244V101.398C180.244 101.604 180.275 101.759 180.336 101.864C180.398 101.965 180.477 102.035 180.574 102.073C180.674 102.109 180.781 102.126 180.897 102.126C180.983 102.126 181.057 102.121 181.121 102.109C181.185 102.097 181.235 102.087 181.27 102.08L181.462 102.957C181.4 102.981 181.313 103.005 181.199 103.028C181.085 103.054 180.943 103.069 180.773 103.071C180.494 103.076 180.233 103.026 179.992 102.922C179.75 102.818 179.555 102.657 179.406 102.439C179.257 102.221 179.182 101.948 179.182 101.619V96.2386ZM184.124 103.121C183.779 103.121 183.466 103.057 183.187 102.929C182.908 102.799 182.686 102.611 182.523 102.364C182.362 102.118 182.281 101.816 182.281 101.459C182.281 101.151 182.341 100.898 182.459 100.699C182.577 100.5 182.737 100.343 182.938 100.227C183.14 100.111 183.364 100.023 183.613 99.9638C183.862 99.9046 184.115 99.8596 184.373 99.8288C184.7 99.791 184.965 99.7602 185.168 99.7365C185.372 99.7105 185.52 99.669 185.612 99.6122C185.705 99.5554 185.751 99.4631 185.751 99.3352V99.3104C185.751 99.0002 185.663 98.7599 185.488 98.5895C185.315 98.419 185.057 98.3338 184.714 98.3338C184.356 98.3338 184.075 98.4131 183.869 98.5717C183.665 98.728 183.524 98.902 183.446 99.0938L182.448 98.8665C182.567 98.535 182.739 98.2675 182.967 98.0639C183.196 97.858 183.46 97.7088 183.759 97.6165C184.057 97.5218 184.371 97.4744 184.7 97.4744C184.917 97.4744 185.148 97.5005 185.392 97.5526C185.638 97.6023 185.868 97.6946 186.081 97.8295C186.296 97.9645 186.473 98.1574 186.61 98.4084C186.747 98.657 186.816 98.9801 186.816 99.3778V103H185.779V102.254H185.737C185.668 102.392 185.565 102.527 185.428 102.659C185.29 102.792 185.114 102.902 184.899 102.989C184.683 103.077 184.425 103.121 184.124 103.121ZM184.355 102.268C184.649 102.268 184.9 102.21 185.108 102.094C185.319 101.978 185.479 101.827 185.587 101.64C185.699 101.451 185.754 101.248 185.754 101.033V100.33C185.716 100.367 185.643 100.403 185.534 100.436C185.428 100.467 185.306 100.494 185.168 100.518C185.031 100.539 184.897 100.559 184.767 100.578C184.637 100.595 184.528 100.609 184.44 100.621C184.234 100.647 184.046 100.691 183.876 100.752C183.708 100.814 183.573 100.902 183.471 101.018C183.372 101.132 183.322 101.284 183.322 101.473C183.322 101.736 183.419 101.935 183.613 102.07C183.807 102.202 184.055 102.268 184.355 102.268ZM192.318 98.8771L191.355 99.0476C191.315 98.9245 191.251 98.8073 191.164 98.696C191.078 98.5848 190.962 98.4936 190.816 98.4226C190.669 98.3516 190.485 98.3161 190.265 98.3161C189.965 98.3161 189.714 98.3835 189.512 98.5185C189.311 98.651 189.21 98.8227 189.21 99.0334C189.21 99.2157 189.278 99.3625 189.413 99.4737C189.548 99.585 189.766 99.6761 190.066 99.7472L190.933 99.946C191.435 100.062 191.809 100.241 192.055 100.482C192.301 100.724 192.424 101.037 192.424 101.423C192.424 101.75 192.33 102.041 192.14 102.297C191.953 102.55 191.692 102.749 191.355 102.893C191.022 103.038 190.634 103.11 190.194 103.11C189.583 103.11 189.085 102.98 188.699 102.719C188.313 102.457 188.076 102.084 187.989 101.601L189.015 101.445C189.079 101.712 189.21 101.915 189.409 102.052C189.608 102.187 189.867 102.254 190.187 102.254C190.535 102.254 190.813 102.182 191.022 102.038C191.23 101.891 191.334 101.712 191.334 101.501C191.334 101.331 191.27 101.188 191.142 101.072C191.017 100.956 190.824 100.868 190.563 100.809L189.64 100.607C189.131 100.491 188.755 100.306 188.511 100.053C188.269 99.7992 188.149 99.4785 188.149 99.0902C188.149 98.7682 188.239 98.4865 188.419 98.245C188.599 98.0036 188.847 97.8153 189.164 97.6804C189.482 97.5431 189.845 97.4744 190.255 97.4744C190.844 97.4744 191.308 97.6023 191.647 97.858C191.985 98.1113 192.209 98.451 192.318 98.8771Z" fill="#666666"/>
<rect x="161.5" y="113.5" width="120" height="34" rx="4.5" stroke="#D9D9D9"/>
<path d="M28.0558 190V182.727H30.6482C31.214 182.727 31.6827 182.83 32.0544 183.036C32.4261 183.242 32.7043 183.524 32.8889 183.881C33.0736 184.237 33.1659 184.637 33.1659 185.082C33.1659 185.529 33.0724 185.932 32.8854 186.289C32.7007 186.644 32.4214 186.926 32.0473 187.134C31.6756 187.34 31.2081 187.443 30.6446 187.443H28.8619V186.513H30.5452C30.9027 186.513 31.1927 186.451 31.4152 186.328C31.6378 186.203 31.8011 186.032 31.9053 185.817C32.0094 185.601 32.0615 185.356 32.0615 185.082C32.0615 184.807 32.0094 184.563 31.9053 184.35C31.8011 184.137 31.6366 183.97 31.4117 183.849C31.1891 183.729 30.8956 183.668 30.531 183.668H29.1531V190H28.0558ZM34.3671 190V184.545H35.3934V185.412H35.4502C35.5496 185.118 35.7248 184.888 35.9758 184.719C36.2291 184.549 36.5155 184.464 36.8351 184.464C36.9014 184.464 36.9796 184.466 37.0695 184.471C37.1618 184.476 37.234 184.482 37.2861 184.489V185.504C37.2435 185.492 37.1678 185.479 37.0589 185.465C36.95 185.449 36.8411 185.44 36.7322 185.44C36.4812 185.44 36.2575 185.494 36.061 185.6C35.8669 185.704 35.713 185.85 35.5993 186.037C35.4857 186.222 35.4289 186.432 35.4289 186.669V190H34.3671ZM40.3605 190.11C39.8231 190.11 39.3603 189.995 38.972 189.766C38.5861 189.534 38.2878 189.208 38.0771 188.789C37.8688 188.368 37.7646 187.874 37.7646 187.308C37.7646 186.75 37.8688 186.257 38.0771 185.831C38.2878 185.405 38.5814 185.072 38.9578 184.833C39.3366 184.594 39.7793 184.474 40.286 184.474C40.5937 184.474 40.892 184.525 41.1808 184.627C41.4697 184.729 41.7289 184.889 41.9585 185.107C42.1882 185.324 42.3693 185.607 42.5019 185.955C42.6344 186.301 42.7007 186.721 42.7007 187.216V187.592H38.3648V186.797H41.6602C41.6602 186.518 41.6034 186.27 41.4898 186.055C41.3762 185.837 41.2164 185.665 41.0104 185.54C40.8068 185.414 40.5677 185.352 40.2931 185.352C39.9948 185.352 39.7343 185.425 39.5118 185.572C39.2916 185.716 39.1212 185.906 39.0004 186.14C38.8821 186.372 38.8229 186.624 38.8229 186.896V187.518C38.8229 187.882 38.8868 188.192 39.0146 188.448C39.1449 188.704 39.326 188.899 39.558 189.034C39.79 189.167 40.061 189.233 40.3712 189.233C40.5724 189.233 40.7559 189.205 40.9216 189.148C41.0873 189.089 41.2306 189.001 41.3513 188.885C41.472 188.769 41.5644 188.626 41.6283 188.455L42.6333 188.636C42.5528 188.932 42.4084 189.192 42.2 189.414C41.9941 189.634 41.7348 189.806 41.4223 189.929C41.1122 190.05 40.7583 190.11 40.3605 190.11ZM46.1764 190.11C45.6485 190.11 45.1939 189.991 44.8128 189.751C44.434 189.51 44.1428 189.177 43.9392 188.754C43.7356 188.33 43.6338 187.844 43.6338 187.298C43.6338 186.744 43.738 186.255 43.9463 185.831C44.1546 185.405 44.4482 185.072 44.827 184.833C45.2058 184.594 45.652 184.474 46.1657 184.474C46.58 184.474 46.9494 184.551 47.2737 184.705C47.598 184.857 47.8596 185.07 48.0585 185.344C48.2597 185.619 48.3793 185.94 48.4172 186.307H47.3838C47.327 186.051 47.1968 185.831 46.9932 185.646C46.7919 185.462 46.522 185.369 46.1835 185.369C45.8876 185.369 45.6283 185.447 45.4058 185.604C45.1856 185.758 45.014 185.978 44.8909 186.264C44.7678 186.548 44.7062 186.884 44.7062 187.273C44.7062 187.67 44.7666 188.014 44.8873 188.303C45.0081 188.591 45.1785 188.815 45.3987 188.974C45.6212 189.132 45.8828 189.212 46.1835 189.212C46.3847 189.212 46.567 189.175 46.7304 189.102C46.8961 189.026 47.0346 188.918 47.1459 188.778C47.2595 188.639 47.3388 188.471 47.3838 188.274H48.4172C48.3793 188.627 48.2645 188.942 48.0727 189.219C47.8809 189.496 47.6241 189.714 47.3021 189.872C46.9825 190.031 46.6073 190.11 46.1764 190.11ZM49.5526 190V184.545H50.6144V190H49.5526ZM50.0889 183.704C49.9042 183.704 49.7456 183.642 49.613 183.519C49.4828 183.394 49.4177 183.245 49.4177 183.072C49.4177 182.897 49.4828 182.747 49.613 182.624C49.7456 182.499 49.9042 182.436 50.0889 182.436C50.2735 182.436 50.431 182.499 50.5612 182.624C50.6937 182.747 50.76 182.897 50.76 183.072C50.76 183.245 50.6937 183.394 50.5612 183.519C50.431 183.642 50.2735 183.704 50.0889 183.704ZM54.3405 190.11C53.8291 190.11 53.3828 189.993 53.0017 189.759C52.6205 189.524 52.3246 189.196 52.1139 188.775C51.9032 188.353 51.7979 187.861 51.7979 187.298C51.7979 186.732 51.9032 186.237 52.1139 185.813C52.3246 185.389 52.6205 185.06 53.0017 184.826C53.3828 184.592 53.8291 184.474 54.3405 184.474C54.8518 184.474 55.2981 184.592 55.6792 184.826C56.0604 185.06 56.3563 185.389 56.567 185.813C56.7777 186.237 56.8831 186.732 56.8831 187.298C56.8831 187.861 56.7777 188.353 56.567 188.775C56.3563 189.196 56.0604 189.524 55.6792 189.759C55.2981 189.993 54.8518 190.11 54.3405 190.11ZM54.344 189.219C54.6755 189.219 54.9501 189.131 55.1679 188.956C55.3857 188.781 55.5467 188.548 55.6508 188.256C55.7574 187.965 55.8106 187.644 55.8106 187.294C55.8106 186.946 55.7574 186.626 55.6508 186.335C55.5467 186.042 55.3857 185.806 55.1679 185.629C54.9501 185.451 54.6755 185.362 54.344 185.362C54.0102 185.362 53.7332 185.451 53.5131 185.629C53.2952 185.806 53.1331 186.042 53.0265 186.335C52.9224 186.626 52.8703 186.946 52.8703 187.294C52.8703 187.644 52.9224 187.965 53.0265 188.256C53.1331 188.548 53.2952 188.781 53.5131 188.956C53.7332 189.131 54.0102 189.219 54.344 189.219ZM62.7567 190.107C62.3163 190.107 61.9233 189.994 61.5777 189.769C61.2344 189.542 60.9645 189.219 60.768 188.8C60.5739 188.378 60.4768 187.873 60.4768 187.283C60.4768 186.694 60.5751 186.19 60.7716 185.771C60.9704 185.352 61.2427 185.031 61.5883 184.808C61.934 184.586 62.3258 184.474 62.7638 184.474C63.1023 184.474 63.3746 184.531 63.5805 184.645C63.7889 184.756 63.9498 184.886 64.0635 185.036C64.1795 185.185 64.2694 185.316 64.3334 185.43H64.3973V182.727H65.4591V190H64.4221V189.151H64.3334C64.2694 189.267 64.1771 189.4 64.0564 189.549C63.938 189.698 63.7747 189.828 63.5663 189.94C63.358 190.051 63.0881 190.107 62.7567 190.107ZM62.991 189.201C63.2964 189.201 63.5545 189.121 63.7652 188.96C63.9782 188.796 64.1392 188.57 64.2481 188.281C64.3594 187.992 64.415 187.656 64.415 187.273C64.415 186.894 64.3606 186.562 64.2517 186.278C64.1428 185.994 63.983 185.773 63.7723 185.614C63.5616 185.456 63.3012 185.376 62.991 185.376C62.6714 185.376 62.4051 185.459 62.192 185.625C61.979 185.791 61.818 186.017 61.7091 186.303C61.6025 186.59 61.5493 186.913 61.5493 187.273C61.5493 187.637 61.6037 187.965 61.7126 188.256C61.8215 188.548 61.9825 188.778 62.1956 188.949C62.411 189.117 62.6762 189.201 62.991 189.201ZM69.3254 190.11C68.788 190.11 68.3251 189.995 67.9369 189.766C67.551 189.534 67.2527 189.208 67.042 188.789C66.8337 188.368 66.7295 187.874 66.7295 187.308C66.7295 186.75 66.8337 186.257 67.042 185.831C67.2527 185.405 67.5463 185.072 67.9227 184.833C68.3015 184.594 68.7442 184.474 69.2508 184.474C69.5586 184.474 69.8569 184.525 70.1457 184.627C70.4345 184.729 70.6937 184.889 70.9234 185.107C71.153 185.324 71.3341 185.607 71.4667 185.955C71.5993 186.301 71.6656 186.721 71.6656 187.216V187.592H67.3296V186.797H70.6251C70.6251 186.518 70.5683 186.27 70.4546 186.055C70.341 185.837 70.1812 185.665 69.9752 185.54C69.7716 185.414 69.5325 185.352 69.2579 185.352C68.9596 185.352 68.6992 185.425 68.4767 185.572C68.2565 185.716 68.086 185.906 67.9653 186.14C67.8469 186.372 67.7877 186.624 67.7877 186.896V187.518C67.7877 187.882 67.8517 188.192 67.9795 188.448C68.1097 188.704 68.2908 188.899 68.5228 189.034C68.7548 189.167 69.0259 189.233 69.336 189.233C69.5373 189.233 69.7207 189.205 69.8865 189.148C70.0522 189.089 70.1954 189.001 70.3161 188.885C70.4369 188.769 70.5292 188.626 70.5931 188.455L71.5981 188.636C71.5176 188.932 71.3732 189.192 71.1649 189.414C70.9589 189.634 70.6997 189.806 70.3872 189.929C70.077 190.05 69.7231 190.11 69.3254 190.11ZM77.841 190.11C77.3036 190.11 76.8408 189.995 76.4525 189.766C76.0666 189.534 75.7683 189.208 75.5576 188.789C75.3493 188.368 75.2451 187.874 75.2451 187.308C75.2451 186.75 75.3493 186.257 75.5576 185.831C75.7683 185.405 76.0619 185.072 76.4383 184.833C76.8171 184.594 77.2598 184.474 77.7664 184.474C78.0742 184.474 78.3725 184.525 78.6613 184.627C78.9501 184.729 79.2094 184.889 79.439 185.107C79.6686 185.324 79.8498 185.607 79.9823 185.955C80.1149 186.301 80.1812 186.721 80.1812 187.216V187.592H75.8453V186.797H79.1407C79.1407 186.518 79.0839 186.27 78.9703 186.055C78.8566 185.837 78.6968 185.665 78.4909 185.54C78.2873 185.414 78.0481 185.352 77.7735 185.352C77.4752 185.352 77.2148 185.425 76.9923 185.572C76.7721 185.716 76.6017 185.906 76.4809 186.14C76.3625 186.372 76.3034 186.624 76.3034 186.896V187.518C76.3034 187.882 76.3673 188.192 76.4951 188.448C76.6253 188.704 76.8064 188.899 77.0384 189.034C77.2704 189.167 77.5415 189.233 77.8517 189.233C78.0529 189.233 78.2364 189.205 78.4021 189.148C78.5678 189.089 78.711 189.001 78.8318 188.885C78.9525 188.769 79.0448 188.626 79.1088 188.455L80.1137 188.636C80.0332 188.932 79.8888 189.192 79.6805 189.414C79.4745 189.634 79.2153 189.806 78.9028 189.929C78.5927 190.05 78.2387 190.11 77.841 190.11ZM85.4466 185.877L84.4843 186.048C84.444 185.924 84.3801 185.807 84.2925 185.696C84.2073 185.585 84.0913 185.494 83.9445 185.423C83.7977 185.352 83.6143 185.316 83.3941 185.316C83.0934 185.316 82.8425 185.384 82.6412 185.518C82.44 185.651 82.3394 185.823 82.3394 186.033C82.3394 186.216 82.4069 186.362 82.5418 186.474C82.6768 186.585 82.8946 186.676 83.1952 186.747L84.0617 186.946C84.5636 187.062 84.9376 187.241 85.1839 187.482C85.4301 187.724 85.5532 188.037 85.5532 188.423C85.5532 188.75 85.4585 189.041 85.2691 189.297C85.0821 189.55 84.8205 189.749 84.4843 189.893C84.1505 190.038 83.7634 190.11 83.3231 190.11C82.7123 190.11 82.2139 189.98 81.828 189.719C81.4421 189.457 81.2054 189.084 81.1178 188.601L82.1441 188.445C82.208 188.712 82.3394 188.915 82.5383 189.052C82.7371 189.187 82.9964 189.254 83.316 189.254C83.664 189.254 83.9421 189.182 84.1505 189.038C84.3588 188.891 84.463 188.712 84.463 188.501C84.463 188.331 84.3991 188.188 84.2712 188.072C84.1457 187.956 83.9528 187.868 83.6924 187.809L82.7691 187.607C82.2601 187.491 81.8837 187.306 81.6398 187.053C81.3983 186.799 81.2776 186.478 81.2776 186.09C81.2776 185.768 81.3676 185.487 81.5475 185.245C81.7274 185.004 81.976 184.815 82.2932 184.68C82.6105 184.543 82.9739 184.474 83.3834 184.474C83.9729 184.474 84.4369 184.602 84.7755 184.858C85.114 185.111 85.3377 185.451 85.4466 185.877ZM89.2668 184.545V185.398H86.2874V184.545H89.2668ZM87.0864 183.239H88.1482V188.398C88.1482 188.604 88.1789 188.759 88.2405 188.864C88.3021 188.965 88.3814 189.035 88.4784 189.073C88.5779 189.109 88.6856 189.126 88.8016 189.126C88.8868 189.126 88.9614 189.121 89.0253 189.109C89.0892 189.097 89.1389 189.087 89.1744 189.08L89.3662 189.957C89.3047 189.981 89.2171 190.005 89.1034 190.028C88.9898 190.054 88.8477 190.069 88.6773 190.071C88.3979 190.076 88.1375 190.026 87.896 189.922C87.6546 189.818 87.4593 189.657 87.3101 189.439C87.161 189.221 87.0864 188.948 87.0864 188.619V183.239ZM92.0287 190.121C91.683 190.121 91.3705 190.057 91.0912 189.929C90.8118 189.799 90.5905 189.611 90.4271 189.364C90.2661 189.118 90.1856 188.816 90.1856 188.459C90.1856 188.151 90.2448 187.898 90.3632 187.699C90.4816 187.5 90.6414 187.343 90.8426 187.227C91.0438 187.111 91.2687 187.023 91.5173 186.964C91.7659 186.905 92.0192 186.86 92.2773 186.829C92.604 186.791 92.8691 186.76 93.0727 186.737C93.2763 186.71 93.4243 186.669 93.5166 186.612C93.6089 186.555 93.6551 186.463 93.6551 186.335V186.31C93.6551 186 93.5675 185.76 93.3923 185.589C93.2195 185.419 92.9614 185.334 92.6182 185.334C92.2607 185.334 91.979 185.413 91.773 185.572C91.5694 185.728 91.4285 185.902 91.3504 186.094L90.3525 185.866C90.4709 185.535 90.6437 185.268 90.871 185.064C91.1006 184.858 91.3646 184.709 91.6629 184.616C91.9612 184.522 92.2749 184.474 92.604 184.474C92.8218 184.474 93.0526 184.5 93.2964 184.553C93.5426 184.602 93.7723 184.695 93.9854 184.83C94.2008 184.964 94.3772 185.157 94.5145 185.408C94.6518 185.657 94.7204 185.98 94.7204 186.378V190H93.6835V189.254H93.6409C93.5722 189.392 93.4693 189.527 93.3319 189.659C93.1946 189.792 93.0183 189.902 92.8028 189.989C92.5874 190.077 92.3293 190.121 92.0287 190.121ZM92.2595 189.268C92.5531 189.268 92.804 189.21 93.0123 189.094C93.223 188.978 93.3828 188.827 93.4917 188.64C93.603 188.451 93.6586 188.248 93.6586 188.033V187.33C93.6208 187.367 93.5474 187.403 93.4385 187.436C93.3319 187.467 93.21 187.494 93.0727 187.518C92.9354 187.539 92.8016 187.559 92.6714 187.578C92.5412 187.595 92.4323 187.609 92.3447 187.621C92.1388 187.647 91.9506 187.691 91.7801 187.752C91.612 187.814 91.4771 187.902 91.3753 188.018C91.2758 188.132 91.2261 188.284 91.2261 188.473C91.2261 188.736 91.3232 188.935 91.5173 189.07C91.7114 189.202 91.9588 189.268 92.2595 189.268ZM101.327 184.545V185.398H98.3479V184.545H101.327ZM99.1469 183.239H100.209V188.398C100.209 188.604 100.239 188.759 100.301 188.864C100.363 188.965 100.442 189.035 100.539 189.073C100.638 189.109 100.746 189.126 100.862 189.126C100.947 189.126 101.022 189.121 101.086 189.109C101.15 189.097 101.199 189.087 101.235 189.08L101.427 189.957C101.365 189.981 101.278 190.005 101.164 190.028C101.05 190.054 100.908 190.069 100.738 190.071C100.458 190.076 100.198 190.026 99.9566 189.922C99.7151 189.818 99.5198 189.657 99.3706 189.439C99.2215 189.221 99.1469 188.948 99.1469 188.619V183.239ZM104.794 190.11C104.257 190.11 103.794 189.995 103.406 189.766C103.02 189.534 102.721 189.208 102.511 188.789C102.302 188.368 102.198 187.874 102.198 187.308C102.198 186.75 102.302 186.257 102.511 185.831C102.721 185.405 103.015 185.072 103.391 184.833C103.77 184.594 104.213 184.474 104.72 184.474C105.027 184.474 105.326 184.525 105.614 184.627C105.903 184.729 106.162 184.889 106.392 185.107C106.622 185.324 106.803 185.607 106.935 185.955C107.068 186.301 107.134 186.721 107.134 187.216V187.592H102.798V186.797H106.094C106.094 186.518 106.037 186.27 105.923 186.055C105.81 185.837 105.65 185.665 105.444 185.54C105.24 185.414 105.001 185.352 104.727 185.352C104.428 185.352 104.168 185.425 103.945 185.572C103.725 185.716 103.555 185.906 103.434 186.14C103.316 186.372 103.256 186.624 103.256 186.896V187.518C103.256 187.882 103.32 188.192 103.448 188.448C103.578 188.704 103.76 188.899 103.992 189.034C104.224 189.167 104.495 189.233 104.805 189.233C105.006 189.233 105.189 189.205 105.355 189.148C105.521 189.089 105.664 189.001 105.785 188.885C105.906 188.769 105.998 188.626 106.062 188.455L107.067 188.636C106.986 188.932 106.842 189.192 106.634 189.414C106.428 189.634 106.168 189.806 105.856 189.929C105.546 190.05 105.192 190.11 104.794 190.11ZM104.24 183.817L105.071 182.18H106.19L105.089 183.817H104.24ZM110.61 190.11C110.082 190.11 109.628 189.991 109.246 189.751C108.868 189.51 108.576 189.177 108.373 188.754C108.169 188.33 108.067 187.844 108.067 187.298C108.067 186.744 108.172 186.255 108.38 185.831C108.588 185.405 108.882 185.072 109.261 184.833C109.639 184.594 110.086 184.474 110.599 184.474C111.014 184.474 111.383 184.551 111.707 184.705C112.032 184.857 112.293 185.07 112.492 185.344C112.693 185.619 112.813 185.94 112.851 186.307H111.817C111.761 186.051 111.63 185.831 111.427 185.646C111.226 185.462 110.956 185.369 110.617 185.369C110.321 185.369 110.062 185.447 109.839 185.604C109.619 185.758 109.448 185.978 109.324 186.264C109.201 186.548 109.14 186.884 109.14 187.273C109.14 187.67 109.2 188.014 109.321 188.303C109.442 188.591 109.612 188.815 109.832 188.974C110.055 189.132 110.316 189.212 110.617 189.212C110.818 189.212 111.001 189.175 111.164 189.102C111.33 189.026 111.468 188.918 111.579 188.778C111.693 188.639 111.772 188.471 111.817 188.274H112.851C112.813 188.627 112.698 188.942 112.506 189.219C112.315 189.496 112.058 189.714 111.736 189.872C111.416 190.031 111.041 190.11 110.61 190.11ZM115.048 186.761V190H113.986V184.545H115.005V185.433H115.073C115.198 185.144 115.395 184.912 115.662 184.737C115.932 184.562 116.272 184.474 116.682 184.474C117.053 184.474 117.379 184.553 117.658 184.709C117.937 184.863 118.154 185.092 118.308 185.398C118.462 185.703 118.539 186.081 118.539 186.531V190H117.477V186.658C117.477 186.263 117.374 185.954 117.168 185.732C116.962 185.507 116.679 185.394 116.319 185.394C116.073 185.394 115.854 185.447 115.662 185.554C115.473 185.661 115.323 185.817 115.211 186.023C115.102 186.226 115.048 186.473 115.048 186.761ZM119.963 190V184.545H121.025V190H119.963ZM120.499 183.704C120.314 183.704 120.156 183.642 120.023 183.519C119.893 183.394 119.828 183.245 119.828 183.072C119.828 182.897 119.893 182.747 120.023 182.624C120.156 182.499 120.314 182.436 120.499 182.436C120.684 182.436 120.841 182.499 120.971 182.624C121.104 182.747 121.17 182.897 121.17 183.072C121.17 183.245 121.104 183.394 120.971 183.519C120.841 183.642 120.684 183.704 120.499 183.704ZM124.751 190.11C124.223 190.11 123.768 189.991 123.387 189.751C123.008 189.51 122.717 189.177 122.513 188.754C122.31 188.33 122.208 187.844 122.208 187.298C122.208 186.744 122.312 186.255 122.521 185.831C122.729 185.405 123.022 185.072 123.401 184.833C123.78 184.594 124.226 184.474 124.74 184.474C125.154 184.474 125.524 184.551 125.848 184.705C126.172 184.857 126.434 185.07 126.633 185.344C126.834 185.619 126.954 185.94 126.991 186.307H125.958C125.901 186.051 125.771 185.831 125.567 185.646C125.366 185.462 125.096 185.369 124.758 185.369C124.462 185.369 124.203 185.447 123.98 185.604C123.76 185.758 123.588 185.978 123.465 186.264C123.342 186.548 123.28 186.884 123.28 187.273C123.28 187.67 123.341 188.014 123.462 188.303C123.582 188.591 123.753 188.815 123.973 188.974C124.195 189.132 124.457 189.212 124.758 189.212C124.959 189.212 125.141 189.175 125.305 189.102C125.47 189.026 125.609 188.918 125.72 188.778C125.834 188.639 125.913 188.471 125.958 188.274H126.991C126.954 188.627 126.839 188.942 126.647 189.219C126.455 189.496 126.198 189.714 125.876 189.872C125.557 190.031 125.181 190.11 124.751 190.11ZM129.714 190.121C129.369 190.121 129.056 190.057 128.777 189.929C128.497 189.799 128.276 189.611 128.113 189.364C127.952 189.118 127.871 188.816 127.871 188.459C127.871 188.151 127.93 187.898 128.049 187.699C128.167 187.5 128.327 187.343 128.528 187.227C128.729 187.111 128.954 187.023 129.203 186.964C129.451 186.905 129.705 186.86 129.963 186.829C130.29 186.791 130.555 186.76 130.758 186.737C130.962 186.71 131.11 186.669 131.202 186.612C131.294 186.555 131.341 186.463 131.341 186.335V186.31C131.341 186 131.253 185.76 131.078 185.589C130.905 185.419 130.647 185.334 130.304 185.334C129.946 185.334 129.665 185.413 129.459 185.572C129.255 185.728 129.114 185.902 129.036 186.094L128.038 185.866C128.156 185.535 128.329 185.268 128.557 185.064C128.786 184.858 129.05 184.709 129.348 184.616C129.647 184.522 129.96 184.474 130.29 184.474C130.507 184.474 130.738 184.5 130.982 184.553C131.228 184.602 131.458 184.695 131.671 184.83C131.886 184.964 132.063 185.157 132.2 185.408C132.337 185.657 132.406 185.98 132.406 186.378V190H131.369V189.254H131.326C131.258 189.392 131.155 189.527 131.017 189.659C130.88 189.792 130.704 189.902 130.488 189.989C130.273 190.077 130.015 190.121 129.714 190.121ZM129.945 189.268C130.239 189.268 130.49 189.21 130.698 189.094C130.909 188.978 131.068 188.827 131.177 188.64C131.289 188.451 131.344 188.248 131.344 188.033V187.33C131.306 187.367 131.233 187.403 131.124 187.436C131.017 187.467 130.896 187.494 130.758 187.518C130.621 187.539 130.487 187.559 130.357 187.578C130.227 187.595 130.118 187.609 130.03 187.621C129.824 187.647 129.636 187.691 129.466 187.752C129.298 187.814 129.163 187.902 129.061 188.018C128.961 188.132 128.912 188.284 128.912 188.473C128.912 188.736 129.009 188.935 129.203 189.07C129.397 189.202 129.644 189.268 129.945 189.268ZM136.776 186.982C136.776 186.091 136.893 185.272 137.127 184.524C137.362 183.776 137.704 183.086 138.153 182.454H139.127C138.951 182.688 138.788 182.976 138.636 183.317C138.485 183.658 138.352 184.032 138.239 184.439C138.125 184.844 138.036 185.264 137.972 185.7C137.908 186.133 137.877 186.56 137.877 186.982C137.877 187.545 137.932 188.116 138.043 188.693C138.155 189.271 138.305 189.807 138.494 190.302C138.684 190.797 138.895 191.2 139.127 191.513H138.153C137.704 190.881 137.362 190.191 137.127 189.442C136.893 188.694 136.776 187.874 136.776 186.982ZM144.333 185.877L143.371 186.048C143.331 185.924 143.267 185.807 143.179 185.696C143.094 185.585 142.978 185.494 142.831 185.423C142.684 185.352 142.501 185.316 142.281 185.316C141.98 185.316 141.729 185.384 141.528 185.518C141.327 185.651 141.226 185.823 141.226 186.033C141.226 186.216 141.294 186.362 141.429 186.474C141.563 186.585 141.781 186.676 142.082 186.747L142.948 186.946C143.45 187.062 143.824 187.241 144.071 187.482C144.317 187.724 144.44 188.037 144.44 188.423C144.44 188.75 144.345 189.041 144.156 189.297C143.969 189.55 143.707 189.749 143.371 189.893C143.037 190.038 142.65 190.11 142.21 190.11C141.599 190.11 141.101 189.98 140.715 189.719C140.329 189.457 140.092 189.084 140.005 188.601L141.031 188.445C141.095 188.712 141.226 188.915 141.425 189.052C141.624 189.187 141.883 189.254 142.203 189.254C142.551 189.254 142.829 189.182 143.037 189.038C143.246 188.891 143.35 188.712 143.35 188.501C143.35 188.331 143.286 188.188 143.158 188.072C143.032 187.956 142.84 187.868 142.579 187.809L141.656 187.607C141.147 187.491 140.77 187.306 140.527 187.053C140.285 186.799 140.164 186.478 140.164 186.09C140.164 185.768 140.254 185.487 140.434 185.245C140.614 185.004 140.863 184.815 141.18 184.68C141.497 184.543 141.861 184.474 142.27 184.474C142.86 184.474 143.324 184.602 143.662 184.858C144.001 185.111 144.224 185.451 144.333 185.877ZM145.607 190V184.545H146.669V190H145.607ZM146.144 183.704C145.959 183.704 145.8 183.642 145.668 183.519C145.537 183.394 145.472 183.245 145.472 183.072C145.472 182.897 145.537 182.747 145.668 182.624C145.8 182.499 145.959 182.436 146.144 182.436C146.328 182.436 146.486 182.499 146.616 182.624C146.748 182.747 146.815 182.897 146.815 183.072C146.815 183.245 146.748 183.394 146.616 183.519C146.486 183.642 146.328 183.704 146.144 183.704ZM149.159 186.761V190H148.098V184.545H149.117V185.433H149.184C149.31 185.144 149.506 184.912 149.774 184.737C150.044 184.562 150.383 184.474 150.793 184.474C151.165 184.474 151.49 184.553 151.769 184.709C152.049 184.863 152.265 185.092 152.419 185.398C152.573 185.703 152.65 186.081 152.65 186.531V190H151.588V186.658C151.588 186.263 151.485 185.954 151.279 185.732C151.073 185.507 150.791 185.394 150.431 185.394C150.184 185.394 149.965 185.447 149.774 185.554C149.584 185.661 149.434 185.817 149.323 186.023C149.214 186.226 149.159 186.473 149.159 186.761ZM157.903 182.727V190H156.806V182.727H157.903ZM160.137 182.727L162.161 188.651H162.243L164.267 182.727H165.453L162.836 190H161.568L158.951 182.727H160.137ZM166.375 190H165.21L167.828 182.727H169.095L171.713 190H170.548L168.492 184.048H168.435L166.375 190ZM166.571 187.152H170.349V188.075H166.571V187.152ZM174.72 186.364C174.72 187.256 174.602 188.076 174.368 188.825C174.134 189.573 173.792 190.263 173.342 190.895H172.369C172.544 190.661 172.707 190.373 172.859 190.032C173.01 189.691 173.143 189.318 173.256 188.913C173.37 188.506 173.459 188.085 173.523 187.649C173.587 187.214 173.619 186.785 173.619 186.364C173.619 185.803 173.563 185.233 173.452 184.656C173.341 184.078 173.19 183.542 173.001 183.047C172.811 182.552 172.601 182.148 172.369 181.836H173.342C173.792 182.468 174.134 183.158 174.368 183.906C174.602 184.654 174.72 185.473 174.72 186.364Z" fill="#666666"/>
<path d="M235.987 191.091V180.182H236.686V191.091H235.987ZM237.841 183.783C237.806 183.439 237.66 183.172 237.402 182.982C237.143 182.791 236.792 182.696 236.349 182.696C236.048 182.696 235.794 182.739 235.586 182.824C235.379 182.906 235.22 183.021 235.109 183.169C235.001 183.317 234.947 183.484 234.947 183.672C234.941 183.828 234.974 183.964 235.045 184.081C235.119 184.197 235.22 184.298 235.348 184.384C235.475 184.466 235.623 184.538 235.791 184.601C235.958 184.661 236.137 184.712 236.328 184.754L237.112 184.942C237.493 185.027 237.842 185.141 238.16 185.283C238.478 185.425 238.754 185.599 238.987 185.807C239.22 186.014 239.4 186.259 239.528 186.54C239.659 186.821 239.725 187.143 239.728 187.507C239.725 188.041 239.589 188.504 239.319 188.896C239.052 189.286 238.666 189.588 238.16 189.804C237.657 190.017 237.051 190.124 236.341 190.124C235.636 190.124 235.022 190.016 234.5 189.8C233.98 189.584 233.574 189.264 233.281 188.841C232.991 188.415 232.839 187.888 232.825 187.26H234.61C234.63 187.553 234.714 187.797 234.862 187.993C235.012 188.186 235.213 188.332 235.463 188.432C235.716 188.528 236.001 188.577 236.319 188.577C236.632 188.577 236.903 188.531 237.133 188.44C237.366 188.349 237.547 188.223 237.674 188.061C237.802 187.899 237.866 187.713 237.866 187.503C237.866 187.307 237.808 187.142 237.691 187.009C237.578 186.875 237.41 186.761 237.189 186.668C236.97 186.574 236.701 186.489 236.383 186.412L235.433 186.173C234.697 185.994 234.116 185.714 233.69 185.334C233.264 184.953 233.052 184.44 233.055 183.795C233.052 183.267 233.193 182.805 233.477 182.411C233.764 182.016 234.157 181.707 234.657 181.486C235.157 181.264 235.725 181.153 236.362 181.153C237.01 181.153 237.575 181.264 238.058 181.486C238.544 181.707 238.922 182.016 239.191 182.411C239.461 182.805 239.6 183.263 239.609 183.783H237.841ZM244.715 181.273V190H242.87V183.024H242.819L240.82 184.277V182.641L242.981 181.273H244.715ZM250.015 190.119C249.379 190.119 248.812 190.01 248.315 189.791C247.821 189.57 247.43 189.266 247.143 188.879C246.859 188.49 246.713 188.041 246.704 187.533H248.562C248.574 187.746 248.643 187.933 248.771 188.095C248.902 188.254 249.075 188.378 249.291 188.466C249.507 188.554 249.75 188.598 250.02 188.598C250.301 188.598 250.549 188.548 250.765 188.449C250.981 188.349 251.15 188.212 251.272 188.036C251.395 187.859 251.456 187.656 251.456 187.426C251.456 187.193 251.39 186.987 251.26 186.808C251.132 186.626 250.947 186.484 250.706 186.382C250.467 186.28 250.183 186.229 249.853 186.229H249.039V184.874H249.853C250.132 184.874 250.377 184.825 250.591 184.729C250.806 184.632 250.974 184.499 251.093 184.328C251.213 184.155 251.272 183.953 251.272 183.723C251.272 183.504 251.22 183.312 251.115 183.148C251.012 182.98 250.868 182.849 250.68 182.756C250.495 182.662 250.279 182.615 250.032 182.615C249.782 182.615 249.554 182.661 249.346 182.751C249.139 182.839 248.973 182.966 248.848 183.131C248.723 183.295 248.656 183.489 248.647 183.71H246.879C246.887 183.207 247.031 182.764 247.309 182.381C247.588 181.997 247.963 181.697 248.434 181.482C248.909 181.263 249.444 181.153 250.041 181.153C250.643 181.153 251.17 181.263 251.622 181.482C252.074 181.7 252.424 181.996 252.674 182.368C252.927 182.737 253.052 183.152 253.049 183.612C253.052 184.101 252.9 184.509 252.593 184.835C252.289 185.162 251.893 185.369 251.404 185.457V185.526C252.047 185.608 252.535 185.831 252.87 186.195C253.208 186.555 253.376 187.007 253.373 187.55C253.376 188.047 253.233 188.489 252.943 188.875C252.656 189.261 252.26 189.565 251.754 189.787C251.248 190.009 250.669 190.119 250.015 190.119ZM255.532 190.111C255.25 190.111 255.009 190.011 254.807 189.812C254.608 189.611 254.509 189.369 254.509 189.088C254.509 188.81 254.608 188.571 254.807 188.372C255.009 188.173 255.25 188.074 255.532 188.074C255.804 188.074 256.043 188.173 256.248 188.372C256.452 188.571 256.554 188.81 256.554 189.088C256.554 189.276 256.506 189.447 256.409 189.604C256.316 189.757 256.192 189.881 256.039 189.974C255.885 190.065 255.716 190.111 255.532 190.111ZM261.098 190.192C260.365 190.189 259.734 190.009 259.206 189.651C258.68 189.293 258.276 188.774 257.991 188.095C257.71 187.416 257.571 186.599 257.574 185.645C257.574 184.693 257.714 183.882 257.996 183.212C258.28 182.541 258.685 182.031 259.21 181.682C259.739 181.33 260.368 181.153 261.098 181.153C261.828 181.153 262.456 181.33 262.982 181.682C263.51 182.034 263.916 182.545 264.2 183.216C264.484 183.884 264.625 184.693 264.622 185.645C264.622 186.602 264.48 187.42 264.196 188.099C263.915 188.778 263.511 189.297 262.986 189.655C262.46 190.013 261.831 190.192 261.098 190.192ZM261.098 188.662C261.598 188.662 261.997 188.411 262.295 187.908C262.594 187.405 262.741 186.651 262.739 185.645C262.739 184.983 262.67 184.432 262.534 183.991C262.401 183.551 262.21 183.22 261.963 182.999C261.719 182.777 261.43 182.666 261.098 182.666C260.601 182.666 260.203 182.915 259.905 183.412C259.607 183.909 259.456 184.653 259.453 185.645C259.453 186.315 259.52 186.875 259.653 187.324C259.79 187.77 259.982 188.105 260.229 188.33C260.476 188.551 260.766 188.662 261.098 188.662ZM269.36 190.192C268.627 190.189 267.996 190.009 267.468 189.651C266.942 189.293 266.537 188.774 266.253 188.095C265.972 187.416 265.833 186.599 265.836 185.645C265.836 184.693 265.976 183.882 266.257 183.212C266.542 182.541 266.946 182.031 267.472 181.682C268 181.33 268.63 181.153 269.36 181.153C270.09 181.153 270.718 181.33 271.243 181.682C271.772 182.034 272.178 182.545 272.462 183.216C272.746 183.884 272.887 184.693 272.884 185.645C272.884 186.602 272.742 187.42 272.458 188.099C272.176 188.778 271.773 189.297 271.248 189.655C270.722 190.013 270.093 190.192 269.36 190.192ZM269.36 188.662C269.86 188.662 270.259 188.411 270.557 187.908C270.855 187.405 271.003 186.651 271 185.645C271 184.983 270.932 184.432 270.796 183.991C270.662 183.551 270.472 183.22 270.225 182.999C269.98 182.777 269.692 182.666 269.36 182.666C268.863 182.666 268.465 182.915 268.167 183.412C267.868 183.909 267.718 184.653 267.715 185.645C267.715 186.315 267.782 186.875 267.915 187.324C268.051 187.77 268.243 188.105 268.49 188.33C268.738 188.551 269.027 188.662 269.36 188.662ZM277.028 181.273H279.304L281.707 187.136H281.809L284.213 181.273H286.488V190H284.699V184.32H284.626L282.368 189.957H281.149L278.89 184.298H278.818V190H277.028V181.273ZM289.739 181.273L291.499 184.247H291.567L293.335 181.273H295.419L292.756 185.636L295.479 190H293.357L291.567 187.021H291.499L289.709 190H287.595L290.327 185.636L287.646 181.273H289.739ZM303.886 181.273V190H302.293L298.496 184.507H298.432V190H296.587V181.273H298.206L301.973 186.761H302.05V181.273H303.886Z" fill="#00AAA4"/>
<mask id="path-10-inside-1_2383_6449" fill="white">
</mask>
<path d="M25 75.5C29.5667 75.5333 34.1333 75.565 38.7 75.595C79.8 75.865 120.9 76 162 76C203.1 76 244.2 75.865 285.3 75.595C289.867 75.565 294.433 75.5333 299 75.5C294.433 75.4667 289.867 75.435 285.3 75.405C244.2 75.135 203.1 75 162 75C120.9 75 79.8 75.135 38.7 75.405C34.1333 75.435 29.5667 75.4667 25 75.5Z" fill="#D9D9D9" mask="url(#path-10-inside-1_2383_6449)"/>
<g filter="url(#filter1_d_2383_6449)">
<circle cx="299" cy="35" r="12" fill="white"/>
</g>
<path d="M299.924 29C300.485 29.0766 300.92 29.5159 300.923 30.053L300.925 30.4295L302.847 30.4304C303.439 30.4306 303.912 30.8322 304 31.3437V32.2814C303.924 32.4613 303.757 32.5409 303.537 32.5418L303.2 32.5435L302.517 40.0592C302.447 40.563 302.031 40.9326 301.481 41H296.522C295.972 40.9319 295.555 40.5627 295.486 40.0592L294.803 32.5428L294.385 32.5378C294.177 32.5355 294.003 32.3831 294.004 32.1886C294.006 31.9186 293.99 31.6614 294.011 31.3932C294.055 30.8477 294.559 30.4313 295.155 30.4309L297.078 30.429L297.08 30.0542C297.082 29.5091 297.513 29.0921 298.078 29H299.924ZM300.153 30.4297L300.156 30.0758C300.158 29.8771 299.999 29.7036 299.77 29.7036H298.232C298.004 29.7036 297.845 29.8781 297.846 30.0758L297.849 30.4299H300.154L300.153 30.4297ZM303.226 31.8359L303.233 31.5055C303.232 31.3061 303.079 31.133 302.842 31.133L295.187 31.1326C294.941 31.1326 294.768 31.2864 294.771 31.5083L294.775 31.8359H303.227H303.226ZM301.37 40.2971C301.594 40.2852 301.727 40.1576 301.754 39.9672L302.428 32.539L295.574 32.5397L296.249 39.9677C296.274 40.1663 296.427 40.2943 296.647 40.2974H301.37V40.2971Z" fill="black"/>
<path d="M297.847 39.2509C297.847 39.4604 297.654 39.586 297.475 39.5921C297.288 39.5985 297.08 39.4637 297.08 39.2622L297.079 33.597C297.079 33.3924 297.255 33.2492 297.451 33.2438C297.659 33.2381 297.848 33.3849 297.848 33.597L297.847 39.2509Z" fill="black"/>
<path d="M299.385 39.2509C299.385 39.4604 299.192 39.586 299.012 39.5921C298.833 39.5983 298.618 39.4637 298.618 39.2622L298.617 33.597C298.617 33.3924 298.793 33.2492 298.989 33.2438C299.196 33.2381 299.386 33.3849 299.386 33.597L299.385 39.2509Z" fill="black"/>
<path d="M300.923 39.2509C300.923 39.4604 300.73 39.586 300.551 39.5921C300.364 39.5985 300.156 39.4637 300.156 39.2622L300.155 33.597C300.155 33.3924 300.331 33.2492 300.527 33.2438C300.735 33.2381 300.924 33.3849 300.924 33.597L300.923 39.2509Z" fill="black"/>
<path d="M42.0128 41.6518C42.4881 44.7298 45.1249 46.914 48.2102 46.8155C51.2041 46.7198 53.798 44.3175 53.9913 41.2181L53.9537 38.7014L41.9913 38.7068L42.0128 41.6518Z" fill="white"/>
<path d="M55.5756 32H40.3776V37.0307H55.5756V32Z" fill="white"/>
<path d="M59.7886 48.3027C59.6329 48.1032 59.4046 47.9941 59.1468 47.9941L36.9459 47.9834C36.6855 47.9834 36.4465 48.0872 36.2746 48.2734C36.084 48.4809 35.9793 48.7816 36.0034 49.0636C36.0518 49.6196 36.476 49.9947 37.0587 49.9947L58.83 50C59.6114 50 59.8799 49.6009 59.9658 49.2631C60.0356 48.9891 60.0088 48.5847 59.7886 48.3027Z" fill="white"/>
<defs>
<filter id="filter0_d_2383_6449" x="0" y="0" width="330" height="219" filterUnits="userSpaceOnUse" color-interpolation-filters="sRGB">
<feFlood flood-opacity="0" result="BackgroundImageFix"/>
<feColorMatrix in="SourceAlpha" type="matrix" values="0 0 0 0 0 0 0 0 0 0 0 0 0 0 0 0 0 0 127 0" result="hardAlpha"/>
<feMorphology radius="1" operator="dilate" in="SourceAlpha" result="effect1_dropShadow_2383_6449"/>
<feOffset dy="1"/>
<feGaussianBlur stdDeviation="2.5"/>
<feComposite in2="hardAlpha" operator="out"/>
<feColorMatrix type="matrix" values="0 0 0 0 0.890196 0 0 0 0 0.894118 0 0 0 0 0.909804 0 0 0 1 0"/>
<feBlend mode="normal" in2="BackgroundImageFix" result="effect1_dropShadow_2383_6449"/>
<feBlend mode="normal" in="SourceGraphic" in2="effect1_dropShadow_2383_6449" result="shape"/>
</filter>
<filter id="filter1_d_2383_6449" x="284" y="21" width="30" height="30" filterUnits="userSpaceOnUse" color-interpolation-filters="sRGB">
<feFlood flood-opacity="0" result="BackgroundImageFix"/>
<feColorMatrix in="SourceAlpha" type="matrix" values="0 0 0 0 0 0 0 0 0 0 0 0 0 0 0 0 0 0 127 0" result="hardAlpha"/>
<feOffset dy="1"/>
<feGaussianBlur stdDeviation="1.5"/>
<feComposite in2="hardAlpha" operator="out"/>
<feColorMatrix type="matrix" values="0 0 0 0 0 0 0 0 0 0 0 0 0 0 0 0 0 0 0.25 0"/>
<feBlend mode="normal" in2="BackgroundImageFix" result="effect1_dropShadow_2383_6449"/>
<feBlend mode="normal" in="SourceGraphic" in2="effect1_dropShadow_2383_6449" result="shape"/>
</filter>
</defs>
</svg>
