<svg width="407" height="268" viewBox="0 0 407 268" fill="none" xmlns="http://www.w3.org/2000/svg">
<path d="M102.606 27.396C100.318 27.396 98.3381 26.901 96.6661 25.911C95.0161 24.899 93.7401 23.502 92.8381 21.72C91.9581 19.916 91.5181 17.837 91.5181 15.483C91.5181 13.107 91.9581 11.028 92.8381 9.246C93.7401 7.442 95.0161 6.034 96.6661 5.022C98.3381 4.01 100.318 3.504 102.606 3.504C105.356 3.504 107.6 4.186 109.338 5.55C111.076 6.892 112.176 8.795 112.638 11.259H108.282C107.974 9.961 107.347 8.938 106.401 8.19C105.455 7.442 104.179 7.068 102.573 7.068C101.121 7.068 99.8671 7.409 98.8111 8.091C97.7771 8.751 96.9741 9.719 96.4021 10.995C95.8521 12.249 95.5771 13.745 95.5771 15.483C95.5771 17.221 95.8521 18.717 96.4021 19.971C96.9741 21.203 97.7771 22.16 98.8111 22.842C99.8671 23.502 101.121 23.832 102.573 23.832C104.179 23.832 105.455 23.491 106.401 22.809C107.347 22.105 107.974 21.137 108.282 19.905H112.638C112.198 22.237 111.098 24.074 109.338 25.416C107.6 26.736 105.356 27.396 102.606 27.396Z" fill="#5E5E5E"/>
<path d="M121.595 27.396C120.231 27.396 119.098 27.165 118.196 26.703C117.294 26.241 116.623 25.625 116.183 24.855C115.743 24.085 115.523 23.249 115.523 22.347C115.523 21.291 115.787 20.378 116.315 19.608C116.865 18.838 117.668 18.244 118.724 17.826C119.78 17.386 121.078 17.166 122.618 17.166H126.809C126.809 16.286 126.688 15.56 126.446 14.988C126.204 14.394 125.83 13.954 125.324 13.668C124.818 13.382 124.169 13.239 123.377 13.239C122.475 13.239 121.705 13.448 121.067 13.866C120.429 14.262 120.033 14.878 119.879 15.714H115.985C116.117 14.526 116.513 13.514 117.173 12.678C117.833 11.82 118.702 11.16 119.78 10.698C120.88 10.214 122.079 9.972 123.377 9.972C124.939 9.972 126.27 10.247 127.37 10.797C128.47 11.325 129.306 12.095 129.878 13.107C130.472 14.097 130.769 15.296 130.769 16.704V27H127.403L127.007 24.327C126.787 24.767 126.501 25.174 126.149 25.548C125.819 25.922 125.434 26.252 124.994 26.538C124.554 26.802 124.048 27.011 123.476 27.165C122.926 27.319 122.299 27.396 121.595 27.396ZM122.486 24.261C123.124 24.261 123.685 24.151 124.169 23.931C124.675 23.689 125.104 23.359 125.456 22.941C125.83 22.501 126.116 22.017 126.314 21.489C126.512 20.961 126.644 20.4 126.71 19.806V19.74H123.047C122.277 19.74 121.639 19.839 121.133 20.037C120.627 20.213 120.264 20.477 120.044 20.829C119.824 21.181 119.714 21.588 119.714 22.05C119.714 22.512 119.824 22.908 120.044 23.238C120.264 23.568 120.583 23.821 121.001 23.997C121.419 24.173 121.914 24.261 122.486 24.261Z" fill="#5E5E5E"/>
<path d="M134.67 27V3.24H138.63V27H134.67Z" fill="#5E5E5E"/>
<path d="M142.884 27V10.368H146.844V27H142.884ZM144.864 7.728C144.138 7.728 143.533 7.508 143.049 7.068C142.587 6.606 142.356 6.045 142.356 5.385C142.356 4.703 142.587 4.153 143.049 3.735C143.533 3.295 144.138 3.075 144.864 3.075C145.59 3.075 146.184 3.295 146.646 3.735C147.13 4.153 147.372 4.703 147.372 5.385C147.372 6.045 147.13 6.606 146.646 7.068C146.184 7.508 145.59 7.728 144.864 7.728Z" fill="#5E5E5E"/>
<path d="M158.482 27.396C156.942 27.396 155.567 27.022 154.357 26.274C153.147 25.526 152.201 24.492 151.519 23.172C150.859 21.852 150.529 20.356 150.529 18.684C150.529 17.012 150.87 15.527 151.552 14.229C152.234 12.909 153.18 11.875 154.39 11.127C155.622 10.357 157.008 9.972 158.548 9.972C159.802 9.972 160.891 10.214 161.815 10.698C162.761 11.16 163.509 11.82 164.059 12.678V3.24H168.019V27H164.455L164.059 24.591C163.707 25.075 163.278 25.537 162.772 25.977C162.266 26.395 161.661 26.736 160.957 27C160.253 27.264 159.428 27.396 158.482 27.396ZM159.307 23.964C160.253 23.964 161.089 23.744 161.815 23.304C162.541 22.842 163.102 22.215 163.498 21.423C163.894 20.631 164.092 19.718 164.092 18.684C164.092 17.65 163.894 16.737 163.498 15.945C163.102 15.153 162.541 14.537 161.815 14.097C161.089 13.657 160.253 13.437 159.307 13.437C158.405 13.437 157.591 13.657 156.865 14.097C156.139 14.537 155.567 15.153 155.149 15.945C154.753 16.737 154.555 17.65 154.555 18.684C154.555 19.718 154.753 20.631 155.149 21.423C155.567 22.215 156.139 22.842 156.865 23.304C157.591 23.744 158.405 23.964 159.307 23.964Z" fill="#5E5E5E"/>
<path d="M177.638 27.396C176.274 27.396 175.141 27.165 174.239 26.703C173.337 26.241 172.666 25.625 172.226 24.855C171.786 24.085 171.566 23.249 171.566 22.347C171.566 21.291 171.83 20.378 172.358 19.608C172.908 18.838 173.711 18.244 174.767 17.826C175.823 17.386 177.121 17.166 178.661 17.166H182.852C182.852 16.286 182.731 15.56 182.489 14.988C182.247 14.394 181.873 13.954 181.367 13.668C180.861 13.382 180.212 13.239 179.42 13.239C178.518 13.239 177.748 13.448 177.11 13.866C176.472 14.262 176.076 14.878 175.922 15.714H172.028C172.16 14.526 172.556 13.514 173.216 12.678C173.876 11.82 174.745 11.16 175.823 10.698C176.923 10.214 178.122 9.972 179.42 9.972C180.982 9.972 182.313 10.247 183.413 10.797C184.513 11.325 185.349 12.095 185.921 13.107C186.515 14.097 186.812 15.296 186.812 16.704V27H183.446L183.05 24.327C182.83 24.767 182.544 25.174 182.192 25.548C181.862 25.922 181.477 26.252 181.037 26.538C180.597 26.802 180.091 27.011 179.519 27.165C178.969 27.319 178.342 27.396 177.638 27.396ZM178.529 24.261C179.167 24.261 179.728 24.151 180.212 23.931C180.718 23.689 181.147 23.359 181.499 22.941C181.873 22.501 182.159 22.017 182.357 21.489C182.555 20.961 182.687 20.4 182.753 19.806V19.74H179.09C178.32 19.74 177.682 19.839 177.176 20.037C176.67 20.213 176.307 20.477 176.087 20.829C175.867 21.181 175.757 21.588 175.757 22.05C175.757 22.512 175.867 22.908 176.087 23.238C176.307 23.568 176.626 23.821 177.044 23.997C177.462 24.173 177.957 24.261 178.529 24.261Z" fill="#5E5E5E"/>
<path d="M198.105 27.396C196.565 27.396 195.19 27.022 193.98 26.274C192.77 25.526 191.825 24.492 191.143 23.172C190.483 21.852 190.152 20.356 190.152 18.684C190.152 17.012 190.493 15.527 191.175 14.229C191.857 12.909 192.804 11.875 194.014 11.127C195.246 10.357 196.631 9.972 198.171 9.972C199.425 9.972 200.514 10.214 201.438 10.698C202.384 11.16 203.132 11.82 203.682 12.678V3.24H207.643V27H204.079L203.682 24.591C203.33 25.075 202.901 25.537 202.395 25.977C201.889 26.395 201.285 26.736 200.581 27C199.877 27.264 199.051 27.396 198.105 27.396ZM198.93 23.964C199.876 23.964 200.712 23.744 201.438 23.304C202.164 22.842 202.726 22.215 203.122 21.423C203.518 20.631 203.715 19.718 203.715 18.684C203.715 17.65 203.518 16.737 203.122 15.945C202.726 15.153 202.164 14.537 201.438 14.097C200.712 13.657 199.876 13.437 198.93 13.437C198.028 13.437 197.214 13.657 196.488 14.097C195.762 14.537 195.19 15.153 194.772 15.945C194.376 16.737 194.178 17.65 194.178 18.684C194.178 19.718 194.376 20.631 194.772 21.423C195.19 22.215 195.762 22.842 196.488 23.304C197.214 23.744 198.028 23.964 198.93 23.964Z" fill="#5E5E5E"/>
<path d="M100.098 127.396C98.4261 127.396 96.9411 127.099 95.6431 126.505C94.3451 125.911 93.3331 125.064 92.6071 123.964C91.8811 122.864 91.5071 121.555 91.4851 120.037H95.6761C95.6761 120.807 95.8521 121.5 96.2041 122.116C96.5781 122.71 97.0841 123.183 97.7221 123.535C98.3821 123.887 99.1741 124.063 100.098 124.063C100.89 124.063 101.572 123.942 102.144 123.7C102.738 123.436 103.189 123.073 103.497 122.611C103.827 122.127 103.992 121.566 103.992 120.928C103.992 120.202 103.816 119.608 103.464 119.146C103.134 118.662 102.672 118.255 102.078 117.925C101.484 117.595 100.802 117.309 100.032 117.067C99.2621 116.803 98.4481 116.528 97.5901 116.242C95.7641 115.626 94.3891 114.845 93.4651 113.899C92.5411 112.931 92.0791 111.644 92.0791 110.038C92.0791 108.696 92.3981 107.541 93.0361 106.573C93.6741 105.605 94.5651 104.857 95.7091 104.329C96.8751 103.779 98.2171 103.504 99.7351 103.504C101.275 103.504 102.617 103.779 103.761 104.329C104.927 104.879 105.84 105.649 106.5 106.639C107.182 107.607 107.534 108.773 107.556 110.137H103.332C103.31 109.565 103.156 109.037 102.87 108.553C102.584 108.047 102.166 107.64 101.616 107.332C101.088 107.002 100.439 106.837 99.6691 106.837C99.0091 106.815 98.4151 106.925 97.8871 107.167C97.3811 107.387 96.9741 107.717 96.6661 108.157C96.3801 108.575 96.2371 109.103 96.2371 109.741C96.2371 110.357 96.3691 110.874 96.6331 111.292C96.9191 111.688 97.3261 112.029 97.8541 112.315C98.3821 112.579 98.9981 112.832 99.7021 113.074C100.406 113.316 101.176 113.58 102.012 113.866C103.156 114.24 104.19 114.702 105.114 115.252C106.06 115.78 106.808 116.473 107.358 117.331C107.908 118.189 108.183 119.3 108.183 120.664C108.183 121.852 107.875 122.963 107.259 123.997C106.643 125.009 105.741 125.834 104.553 126.472C103.365 127.088 101.88 127.396 100.098 127.396Z" fill="#5E5E5E"/>
<path d="M117.116 127.396C115.752 127.396 114.619 127.165 113.717 126.703C112.815 126.241 112.144 125.625 111.704 124.855C111.264 124.085 111.044 123.249 111.044 122.347C111.044 121.291 111.308 120.378 111.836 119.608C112.386 118.838 113.189 118.244 114.245 117.826C115.301 117.386 116.599 117.166 118.139 117.166H122.33C122.33 116.286 122.209 115.56 121.967 114.988C121.725 114.394 121.351 113.954 120.845 113.668C120.339 113.382 119.69 113.239 118.898 113.239C117.996 113.239 117.226 113.448 116.588 113.866C115.95 114.262 115.554 114.878 115.4 115.714H111.506C111.638 114.526 112.034 113.514 112.694 112.678C113.354 111.82 114.223 111.16 115.301 110.698C116.401 110.214 117.6 109.972 118.898 109.972C120.46 109.972 121.791 110.247 122.891 110.797C123.991 111.325 124.827 112.095 125.399 113.107C125.993 114.097 126.29 115.296 126.29 116.704V127H122.924L122.528 124.327C122.308 124.767 122.022 125.174 121.67 125.548C121.34 125.922 120.955 126.252 120.515 126.538C120.075 126.802 119.569 127.011 118.997 127.165C118.447 127.319 117.82 127.396 117.116 127.396ZM118.007 124.261C118.645 124.261 119.206 124.151 119.69 123.931C120.196 123.689 120.625 123.359 120.977 122.941C121.351 122.501 121.637 122.017 121.835 121.489C122.033 120.961 122.165 120.4 122.231 119.806V119.74H118.568C117.798 119.74 117.16 119.839 116.654 120.037C116.148 120.213 115.785 120.477 115.565 120.829C115.345 121.181 115.235 121.588 115.235 122.05C115.235 122.512 115.345 122.908 115.565 123.238C115.785 123.568 116.104 123.821 116.522 123.997C116.94 124.173 117.435 124.261 118.007 124.261Z" fill="#5E5E5E"/>
<path d="M137.16 127C136.038 127 135.059 126.824 134.223 126.472C133.409 126.12 132.771 125.537 132.309 124.723C131.847 123.909 131.616 122.809 131.616 121.423V113.701H128.778V110.368H131.616L132.078 105.979H135.576V110.368H140.097V113.701H135.576V121.423C135.576 122.259 135.752 122.842 136.104 123.172C136.478 123.48 137.094 123.634 137.952 123.634H139.998V127H137.16Z" fill="#5E5E5E"/>
<path d="M143.658 127V110.368H147.618V127H143.658ZM145.638 107.728C144.912 107.728 144.307 107.508 143.823 107.068C143.361 106.606 143.13 106.045 143.13 105.385C143.13 104.703 143.361 104.153 143.823 103.735C144.307 103.295 144.912 103.075 145.638 103.075C146.364 103.075 146.958 103.295 147.42 103.735C147.904 104.153 148.146 104.703 148.146 105.385C148.146 106.045 147.904 106.606 147.42 107.068C146.958 107.508 146.364 107.728 145.638 107.728Z" fill="#5E5E5E"/>
<path d="M158.497 127.396C157.023 127.396 155.736 127.165 154.636 126.703C153.558 126.219 152.7 125.559 152.062 124.723C151.446 123.865 151.083 122.886 150.973 121.786H154.933C155.043 122.248 155.241 122.677 155.527 123.073C155.813 123.447 156.198 123.744 156.682 123.964C157.188 124.184 157.782 124.294 158.464 124.294C159.124 124.294 159.663 124.206 160.081 124.03C160.499 123.832 160.807 123.579 161.005 123.271C161.203 122.963 161.302 122.633 161.302 122.281C161.302 121.753 161.159 121.346 160.873 121.06C160.587 120.774 160.169 120.554 159.619 120.4C159.091 120.224 158.453 120.059 157.705 119.905C156.913 119.751 156.143 119.564 155.395 119.344C154.669 119.102 154.009 118.805 153.415 118.453C152.843 118.101 152.381 117.65 152.029 117.1C151.699 116.55 151.534 115.879 151.534 115.087C151.534 114.119 151.787 113.25 152.293 112.48C152.821 111.71 153.569 111.105 154.537 110.665C155.527 110.203 156.704 109.972 158.068 109.972C160.004 109.972 161.544 110.423 162.688 111.325C163.854 112.205 164.536 113.448 164.734 115.054H160.972C160.862 114.438 160.554 113.965 160.048 113.635C159.542 113.283 158.871 113.107 158.035 113.107C157.177 113.107 156.517 113.272 156.055 113.602C155.615 113.91 155.395 114.328 155.395 114.856C155.395 115.186 155.527 115.494 155.791 115.78C156.077 116.044 156.484 116.275 157.012 116.473C157.54 116.649 158.189 116.825 158.959 117.001C160.191 117.243 161.28 117.529 162.226 117.859C163.172 118.189 163.92 118.673 164.47 119.311C165.02 119.949 165.295 120.851 165.295 122.017C165.317 123.073 165.042 124.008 164.47 124.822C163.92 125.636 163.139 126.274 162.127 126.736C161.115 127.176 159.905 127.396 158.497 127.396Z" fill="#5E5E5E"/>
<path d="M169.632 127V108.553C169.632 107.277 169.841 106.254 170.259 105.484C170.699 104.692 171.326 104.12 172.14 103.768C172.954 103.416 173.922 103.24 175.044 103.24H177.024V106.606H175.638C174.912 106.606 174.384 106.76 174.054 107.068C173.746 107.354 173.592 107.86 173.592 108.586V127H169.632ZM167.256 113.701V110.368H177.354V113.701H167.256Z" fill="#5E5E5E"/>
<path d="M185.333 127.396C183.969 127.396 182.836 127.165 181.934 126.703C181.032 126.241 180.361 125.625 179.921 124.855C179.481 124.085 179.261 123.249 179.261 122.347C179.261 121.291 179.525 120.378 180.053 119.608C180.603 118.838 181.406 118.244 182.462 117.826C183.518 117.386 184.816 117.166 186.356 117.166H190.547C190.547 116.286 190.426 115.56 190.184 114.988C189.942 114.394 189.568 113.954 189.062 113.668C188.556 113.382 187.907 113.239 187.115 113.239C186.213 113.239 185.443 113.448 184.805 113.866C184.167 114.262 183.771 114.878 183.617 115.714H179.723C179.855 114.526 180.251 113.514 180.911 112.678C181.571 111.82 182.44 111.16 183.518 110.698C184.618 110.214 185.817 109.972 187.115 109.972C188.677 109.972 190.008 110.247 191.108 110.797C192.208 111.325 193.044 112.095 193.616 113.107C194.21 114.097 194.507 115.296 194.507 116.704V127H191.141L190.745 124.327C190.525 124.767 190.239 125.174 189.887 125.548C189.557 125.922 189.172 126.252 188.732 126.538C188.292 126.802 187.786 127.011 187.214 127.165C186.664 127.319 186.037 127.396 185.333 127.396ZM186.224 124.261C186.862 124.261 187.423 124.151 187.907 123.931C188.413 123.689 188.842 123.359 189.194 122.941C189.568 122.501 189.854 122.017 190.052 121.489C190.25 120.961 190.382 120.4 190.448 119.806V119.74H186.785C186.015 119.74 185.377 119.839 184.871 120.037C184.365 120.213 184.002 120.477 183.782 120.829C183.562 121.181 183.452 121.588 183.452 122.05C183.452 122.512 183.562 122.908 183.782 123.238C184.002 123.568 184.321 123.821 184.739 123.997C185.157 124.173 185.652 124.261 186.224 124.261Z" fill="#5E5E5E"/>
<path d="M206.295 127.396C204.667 127.396 203.204 127.033 201.906 126.307C200.63 125.559 199.629 124.536 198.903 123.238C198.199 121.918 197.847 120.422 197.847 118.75C197.847 117.012 198.199 115.494 198.903 114.196C199.629 112.876 200.63 111.842 201.906 111.094C203.204 110.346 204.678 109.972 206.328 109.972C208.396 109.972 210.134 110.522 211.542 111.622C212.95 112.7 213.852 114.185 214.248 116.077H210.09C209.87 115.241 209.408 114.581 208.704 114.097C208.022 113.613 207.208 113.371 206.262 113.371C205.448 113.371 204.7 113.58 204.018 113.998C203.358 114.416 202.83 115.021 202.434 115.813C202.06 116.605 201.873 117.562 201.873 118.684C201.873 119.542 201.983 120.301 202.203 120.961C202.423 121.621 202.731 122.182 203.127 122.644C203.545 123.084 204.018 123.425 204.546 123.667C205.074 123.909 205.646 124.03 206.262 124.03C206.9 124.03 207.472 123.931 207.978 123.733C208.506 123.513 208.946 123.194 209.298 122.776C209.672 122.358 209.936 121.863 210.09 121.291H214.248C213.852 123.139 212.95 124.624 211.542 125.746C210.134 126.846 208.385 127.396 206.295 127.396Z" fill="#5E5E5E"/>
<path d="M225.623 127.396C223.995 127.396 222.532 127.033 221.234 126.307C219.958 125.559 218.957 124.536 218.231 123.238C217.527 121.918 217.175 120.422 217.175 118.75C217.175 117.012 217.527 115.494 218.231 114.196C218.957 112.876 219.958 111.842 221.234 111.094C222.532 110.346 224.006 109.972 225.656 109.972C227.724 109.972 229.462 110.522 230.87 111.622C232.278 112.7 233.18 114.185 233.576 116.077H229.418C229.198 115.241 228.736 114.581 228.032 114.097C227.35 113.613 226.536 113.371 225.59 113.371C224.776 113.371 224.028 113.58 223.346 113.998C222.686 114.416 222.158 115.021 221.762 115.813C221.388 116.605 221.201 117.562 221.201 118.684C221.201 119.542 221.311 120.301 221.531 120.961C221.751 121.621 222.059 122.182 222.455 122.644C222.873 123.084 223.346 123.425 223.874 123.667C224.402 123.909 224.974 124.03 225.59 124.03C226.228 124.03 226.8 123.931 227.306 123.733C227.834 123.513 228.274 123.194 228.626 122.776C229 122.358 229.264 121.863 229.418 121.291H233.576C233.18 123.139 232.278 124.624 230.87 125.746C229.462 126.846 227.713 127.396 225.623 127.396Z" fill="#5E5E5E"/>
<path d="M237.229 127V110.368H241.189V127H237.229ZM239.209 107.728C238.483 107.728 237.878 107.508 237.394 107.068C236.932 106.606 236.701 106.045 236.701 105.385C236.701 104.703 236.932 104.153 237.394 103.735C237.878 103.295 238.483 103.075 239.209 103.075C239.935 103.075 240.529 103.295 240.991 103.735C241.475 104.153 241.717 104.703 241.717 105.385C241.717 106.045 241.475 106.606 240.991 107.068C240.529 107.508 239.935 107.728 239.209 107.728Z" fill="#5E5E5E"/>
<path d="M253.19 127.396C251.606 127.396 250.176 127.033 248.9 126.307C247.646 125.559 246.656 124.536 245.93 123.238C245.226 121.918 244.874 120.411 244.874 118.717C244.874 116.979 245.237 115.461 245.963 114.163C246.689 112.843 247.679 111.82 248.933 111.094C250.209 110.346 251.639 109.972 253.223 109.972C254.807 109.972 256.226 110.346 257.48 111.094C258.756 111.82 259.747 112.832 260.451 114.13C261.177 115.428 261.539 116.946 261.539 118.684C261.539 120.422 261.177 121.94 260.451 123.238C259.725 124.536 258.723 125.559 257.447 126.307C256.193 127.033 254.774 127.396 253.19 127.396ZM253.19 123.997C253.982 123.997 254.697 123.799 255.335 123.403C255.995 123.007 256.523 122.413 256.919 121.621C257.315 120.829 257.513 119.85 257.513 118.684C257.513 117.518 257.315 116.55 256.919 115.78C256.545 114.988 256.028 114.394 255.368 113.998C254.73 113.602 254.015 113.404 253.223 113.404C252.453 113.404 251.738 113.602 251.078 113.998C250.418 114.394 249.89 114.988 249.494 115.78C249.098 116.55 248.9 117.518 248.9 118.684C248.9 119.85 249.098 120.829 249.494 121.621C249.89 122.413 250.407 123.007 251.045 123.403C251.705 123.799 252.42 123.997 253.19 123.997ZM249.824 108.949L249.461 106.276L256.523 102.151L256.986 105.22L249.824 108.949Z" fill="#5E5E5E"/>
<path d="M265.086 127V110.368H268.584L268.881 113.14C269.387 112.172 270.113 111.402 271.059 110.83C272.005 110.258 273.127 109.972 274.425 109.972C275.767 109.972 276.911 110.258 277.857 110.83C278.803 111.38 279.529 112.194 280.035 113.272C280.563 114.35 280.827 115.692 280.827 117.298V127H276.867V117.661C276.867 116.275 276.559 115.208 275.943 114.46C275.327 113.712 274.414 113.338 273.204 113.338C272.412 113.338 271.697 113.525 271.059 113.899C270.443 114.273 269.948 114.823 269.574 115.549C269.222 116.253 269.046 117.111 269.046 118.123V127H265.086Z" fill="#5E5E5E"/>
<path d="M102.606 227.396C100.318 227.396 98.3381 226.901 96.6661 225.911C95.0161 224.899 93.7401 223.502 92.8381 221.72C91.9581 219.916 91.5181 217.837 91.5181 215.483C91.5181 213.107 91.9581 211.028 92.8381 209.246C93.7401 207.442 95.0161 206.034 96.6661 205.022C98.3381 204.01 100.318 203.504 102.606 203.504C105.356 203.504 107.6 204.186 109.338 205.55C111.076 206.892 112.176 208.795 112.638 211.259H108.282C107.974 209.961 107.347 208.938 106.401 208.19C105.455 207.442 104.179 207.068 102.573 207.068C101.121 207.068 99.8671 207.409 98.8111 208.091C97.7771 208.751 96.9741 209.719 96.4021 210.995C95.8521 212.249 95.5771 213.745 95.5771 215.483C95.5771 217.221 95.8521 218.717 96.4021 219.971C96.9741 221.203 97.7771 222.16 98.8111 222.842C99.8671 223.502 101.121 223.832 102.573 223.832C104.179 223.832 105.455 223.491 106.401 222.809C107.347 222.105 107.974 221.137 108.282 219.905H112.638C112.198 222.237 111.098 224.074 109.338 225.416C107.6 226.736 105.356 227.396 102.606 227.396Z" fill="#5E5E5E"/>
<path d="M121.595 227.396C120.231 227.396 119.098 227.165 118.196 226.703C117.294 226.241 116.623 225.625 116.183 224.855C115.743 224.085 115.523 223.249 115.523 222.347C115.523 221.291 115.787 220.378 116.315 219.608C116.865 218.838 117.668 218.244 118.724 217.826C119.78 217.386 121.078 217.166 122.618 217.166H126.809C126.809 216.286 126.688 215.56 126.446 214.988C126.204 214.394 125.83 213.954 125.324 213.668C124.818 213.382 124.169 213.239 123.377 213.239C122.475 213.239 121.705 213.448 121.067 213.866C120.429 214.262 120.033 214.878 119.879 215.714H115.985C116.117 214.526 116.513 213.514 117.173 212.678C117.833 211.82 118.702 211.16 119.78 210.698C120.88 210.214 122.079 209.972 123.377 209.972C124.939 209.972 126.27 210.247 127.37 210.797C128.47 211.325 129.306 212.095 129.878 213.107C130.472 214.097 130.769 215.296 130.769 216.704V227H127.403L127.007 224.327C126.787 224.767 126.501 225.174 126.149 225.548C125.819 225.922 125.434 226.252 124.994 226.538C124.554 226.802 124.048 227.011 123.476 227.165C122.926 227.319 122.299 227.396 121.595 227.396ZM122.486 224.261C123.124 224.261 123.685 224.151 124.169 223.931C124.675 223.689 125.104 223.359 125.456 222.941C125.83 222.501 126.116 222.017 126.314 221.489C126.512 220.961 126.644 220.4 126.71 219.806V219.74H123.047C122.277 219.74 121.639 219.839 121.133 220.037C120.627 220.213 120.264 220.477 120.044 220.829C119.824 221.181 119.714 221.588 119.714 222.05C119.714 222.512 119.824 222.908 120.044 223.238C120.264 223.568 120.583 223.821 121.001 223.997C121.419 224.173 121.914 224.261 122.486 224.261Z" fill="#5E5E5E"/>
<path d="M134.67 227V203.24H138.63V227H134.67Z" fill="#5E5E5E"/>
<path d="M142.884 227V210.368H146.844V227H142.884ZM144.864 207.728C144.138 207.728 143.533 207.508 143.049 207.068C142.587 206.606 142.356 206.045 142.356 205.385C142.356 204.703 142.587 204.153 143.049 203.735C143.533 203.295 144.138 203.075 144.864 203.075C145.59 203.075 146.184 203.295 146.646 203.735C147.13 204.153 147.372 204.703 147.372 205.385C147.372 206.045 147.13 206.606 146.646 207.068C146.184 207.508 145.59 207.728 144.864 207.728Z" fill="#5E5E5E"/>
<path d="M158.482 227.396C156.942 227.396 155.567 227.022 154.357 226.274C153.147 225.526 152.201 224.492 151.519 223.172C150.859 221.852 150.529 220.356 150.529 218.684C150.529 217.012 150.87 215.527 151.552 214.229C152.234 212.909 153.18 211.875 154.39 211.127C155.622 210.357 157.008 209.972 158.548 209.972C159.802 209.972 160.891 210.214 161.815 210.698C162.761 211.16 163.509 211.82 164.059 212.678V203.24H168.019V227H164.455L164.059 224.591C163.707 225.075 163.278 225.537 162.772 225.977C162.266 226.395 161.661 226.736 160.957 227C160.253 227.264 159.428 227.396 158.482 227.396ZM159.307 223.964C160.253 223.964 161.089 223.744 161.815 223.304C162.541 222.842 163.102 222.215 163.498 221.423C163.894 220.631 164.092 219.718 164.092 218.684C164.092 217.65 163.894 216.737 163.498 215.945C163.102 215.153 162.541 214.537 161.815 214.097C161.089 213.657 160.253 213.437 159.307 213.437C158.405 213.437 157.591 213.657 156.865 214.097C156.139 214.537 155.567 215.153 155.149 215.945C154.753 216.737 154.555 217.65 154.555 218.684C154.555 219.718 154.753 220.631 155.149 221.423C155.567 222.215 156.139 222.842 156.865 223.304C157.591 223.744 158.405 223.964 159.307 223.964Z" fill="#5E5E5E"/>
<path d="M177.638 227.396C176.274 227.396 175.141 227.165 174.239 226.703C173.337 226.241 172.666 225.625 172.226 224.855C171.786 224.085 171.566 223.249 171.566 222.347C171.566 221.291 171.83 220.378 172.358 219.608C172.908 218.838 173.711 218.244 174.767 217.826C175.823 217.386 177.121 217.166 178.661 217.166H182.852C182.852 216.286 182.731 215.56 182.489 214.988C182.247 214.394 181.873 213.954 181.367 213.668C180.861 213.382 180.212 213.239 179.42 213.239C178.518 213.239 177.748 213.448 177.11 213.866C176.472 214.262 176.076 214.878 175.922 215.714H172.028C172.16 214.526 172.556 213.514 173.216 212.678C173.876 211.82 174.745 211.16 175.823 210.698C176.923 210.214 178.122 209.972 179.42 209.972C180.982 209.972 182.313 210.247 183.413 210.797C184.513 211.325 185.349 212.095 185.921 213.107C186.515 214.097 186.812 215.296 186.812 216.704V227H183.446L183.05 224.327C182.83 224.767 182.544 225.174 182.192 225.548C181.862 225.922 181.477 226.252 181.037 226.538C180.597 226.802 180.091 227.011 179.519 227.165C178.969 227.319 178.342 227.396 177.638 227.396ZM178.529 224.261C179.167 224.261 179.728 224.151 180.212 223.931C180.718 223.689 181.147 223.359 181.499 222.941C181.873 222.501 182.159 222.017 182.357 221.489C182.555 220.961 182.687 220.4 182.753 219.806V219.74H179.09C178.32 219.74 177.682 219.839 177.176 220.037C176.67 220.213 176.307 220.477 176.087 220.829C175.867 221.181 175.757 221.588 175.757 222.05C175.757 222.512 175.867 222.908 176.087 223.238C176.307 223.568 176.626 223.821 177.044 223.997C177.462 224.173 177.957 224.261 178.529 224.261Z" fill="#5E5E5E"/>
<path d="M198.105 227.396C196.565 227.396 195.19 227.022 193.98 226.274C192.77 225.526 191.825 224.492 191.143 223.172C190.483 221.852 190.152 220.356 190.152 218.684C190.152 217.012 190.493 215.527 191.175 214.229C191.857 212.909 192.804 211.875 194.014 211.127C195.246 210.357 196.631 209.972 198.171 209.972C199.425 209.972 200.514 210.214 201.438 210.698C202.384 211.16 203.132 211.82 203.682 212.678V203.24H207.643V227H204.079L203.682 224.591C203.33 225.075 202.901 225.537 202.395 225.977C201.889 226.395 201.285 226.736 200.581 227C199.877 227.264 199.051 227.396 198.105 227.396ZM198.93 223.964C199.876 223.964 200.712 223.744 201.438 223.304C202.164 222.842 202.726 222.215 203.122 221.423C203.518 220.631 203.715 219.718 203.715 218.684C203.715 217.65 203.518 216.737 203.122 215.945C202.726 215.153 202.164 214.537 201.438 214.097C200.712 213.657 199.876 213.437 198.93 213.437C198.028 213.437 197.214 213.657 196.488 214.097C195.762 214.537 195.19 215.153 194.772 215.945C194.376 216.737 194.178 217.65 194.178 218.684C194.178 219.718 194.376 220.631 194.772 221.423C195.19 222.215 195.762 222.842 196.488 223.304C197.214 223.744 198.028 223.964 198.93 223.964Z" fill="#5E5E5E"/>
<path d="M91.5601 63V49H100.06V50.16H92.9601V55.38H99.4601V56.54H92.9601V61.84H100.06V63H91.5601Z" fill="black"/>
<path d="M101.471 63L104.831 57.96L101.471 52.92H102.971L105.791 57.22L108.631 52.92H110.131L106.771 57.96L110.131 63H108.631L105.791 58.68L102.991 63H101.471Z" fill="black"/>
<path d="M115.812 63.24C114.878 63.24 114.045 63.02 113.312 62.58C112.578 62.14 111.998 61.5267 111.572 60.74C111.145 59.94 110.932 59.02 110.932 57.98C110.932 56.9 111.145 55.9733 111.572 55.2C111.998 54.4133 112.578 53.8 113.312 53.36C114.058 52.9067 114.892 52.68 115.812 52.68C116.985 52.68 117.958 52.9867 118.732 53.6C119.518 54.2 120.018 55 120.232 56H118.832C118.685 55.3333 118.332 54.82 117.772 54.46C117.225 54.0867 116.565 53.9 115.792 53.9C115.192 53.9 114.632 54.0533 114.112 54.36C113.592 54.6533 113.172 55.1 112.852 55.7C112.532 56.3 112.372 57.06 112.372 57.98C112.372 58.66 112.465 59.2533 112.652 59.76C112.838 60.2667 113.092 60.6933 113.412 61.04C113.732 61.3733 114.098 61.6267 114.512 61.8C114.925 61.9733 115.352 62.06 115.792 62.06C116.298 62.06 116.758 61.98 117.172 61.82C117.598 61.6467 117.958 61.4 118.252 61.08C118.545 60.76 118.738 60.3733 118.832 59.92H120.232C120.032 60.8933 119.538 61.6933 118.752 62.32C117.965 62.9333 116.985 63.24 115.812 63.24Z" fill="black"/>
<path d="M126.761 63.24C125.828 63.24 125.001 63.02 124.281 62.58C123.575 62.14 123.015 61.5267 122.601 60.74C122.201 59.94 122.001 59.0067 122.001 57.94C122.001 56.8733 122.201 55.9467 122.601 55.16C123.001 54.3733 123.561 53.7667 124.281 53.34C125.015 52.9 125.855 52.68 126.801 52.68C127.775 52.68 128.595 52.9 129.261 53.34C129.941 53.78 130.455 54.3533 130.801 55.06C131.161 55.7667 131.341 56.54 131.341 57.38C131.341 57.5133 131.341 57.6533 131.341 57.8C131.341 57.9333 131.335 58.0933 131.321 58.28H123.061V57.1H129.981C129.955 56.0733 129.635 55.28 129.021 54.72C128.421 54.16 127.661 53.88 126.741 53.88C126.141 53.88 125.581 54.02 125.061 54.3C124.555 54.5667 124.141 54.9667 123.821 55.5C123.515 56.02 123.361 56.68 123.361 57.48V58C123.361 58.9067 123.521 59.66 123.841 60.26C124.161 60.86 124.581 61.3067 125.101 61.6C125.635 61.8933 126.188 62.04 126.761 62.04C127.521 62.04 128.148 61.8733 128.641 61.54C129.135 61.1933 129.488 60.72 129.701 60.12H131.081C130.908 60.7067 130.628 61.24 130.241 61.72C129.868 62.2 129.388 62.5733 128.801 62.84C128.215 63.1067 127.535 63.24 126.761 63.24Z" fill="black"/>
<path d="M133.433 63V48.6H134.833V63H133.433Z" fill="black"/>
<path d="M141.791 63.24C140.858 63.24 140.031 63.02 139.311 62.58C138.604 62.14 138.044 61.5267 137.631 60.74C137.231 59.94 137.031 59.0067 137.031 57.94C137.031 56.8733 137.231 55.9467 137.631 55.16C138.031 54.3733 138.591 53.7667 139.311 53.34C140.044 52.9 140.884 52.68 141.831 52.68C142.804 52.68 143.624 52.9 144.291 53.34C144.971 53.78 145.484 54.3533 145.831 55.06C146.191 55.7667 146.371 56.54 146.371 57.38C146.371 57.5133 146.371 57.6533 146.371 57.8C146.371 57.9333 146.364 58.0933 146.351 58.28H138.091V57.1H145.011C144.984 56.0733 144.664 55.28 144.051 54.72C143.451 54.16 142.691 53.88 141.771 53.88C141.171 53.88 140.611 54.02 140.091 54.3C139.584 54.5667 139.171 54.9667 138.851 55.5C138.544 56.02 138.391 56.68 138.391 57.48V58C138.391 58.9067 138.551 59.66 138.871 60.26C139.191 60.86 139.611 61.3067 140.131 61.6C140.664 61.8933 141.218 62.04 141.791 62.04C142.551 62.04 143.178 61.8733 143.671 61.54C144.164 61.1933 144.518 60.72 144.731 60.12H146.111C145.938 60.7067 145.658 61.24 145.271 61.72C144.898 62.2 144.418 62.5733 143.831 62.84C143.244 63.1067 142.564 63.24 141.791 63.24Z" fill="black"/>
<path d="M148.462 63V52.92H149.742L149.822 54.72C150.142 54.08 150.602 53.58 151.202 53.22C151.816 52.86 152.496 52.68 153.242 52.68C154.016 52.68 154.689 52.8333 155.262 53.14C155.836 53.4467 156.282 53.9133 156.602 54.54C156.922 55.1533 157.082 55.94 157.082 56.9V63H155.682V57.06C155.682 55.9933 155.449 55.2 154.982 54.68C154.516 54.16 153.849 53.9 152.982 53.9C152.396 53.9 151.862 54.0467 151.382 54.34C150.916 54.62 150.542 55.0333 150.262 55.58C149.996 56.1267 149.862 56.8 149.862 57.6V63H148.462Z" fill="black"/>
<path d="M163.972 63.24C163.038 63.24 162.205 63.02 161.472 62.58C160.738 62.14 160.158 61.5267 159.732 60.74C159.305 59.94 159.092 59.02 159.092 57.98C159.092 56.9 159.305 55.9733 159.732 55.2C160.158 54.4133 160.738 53.8 161.472 53.36C162.218 52.9067 163.052 52.68 163.972 52.68C165.145 52.68 166.118 52.9867 166.892 53.6C167.678 54.2 168.178 55 168.392 56H166.992C166.845 55.3333 166.492 54.82 165.932 54.46C165.385 54.0867 164.725 53.9 163.952 53.9C163.352 53.9 162.792 54.0533 162.272 54.36C161.752 54.6533 161.332 55.1 161.012 55.7C160.692 56.3 160.532 57.06 160.532 57.98C160.532 58.66 160.625 59.2533 160.812 59.76C160.998 60.2667 161.252 60.6933 161.572 61.04C161.892 61.3733 162.258 61.6267 162.672 61.8C163.085 61.9733 163.512 62.06 163.952 62.06C164.458 62.06 164.918 61.98 165.332 61.82C165.758 61.6467 166.118 61.4 166.412 61.08C166.705 60.76 166.898 60.3733 166.992 59.92H168.392C168.192 60.8933 167.698 61.6933 166.912 62.32C166.125 62.9333 165.145 63.24 163.972 63.24Z" fill="black"/>
<path d="M170.801 63V52.92H172.181V63H170.801ZM171.501 50.54C171.221 50.54 170.981 50.4467 170.781 50.26C170.581 50.06 170.481 49.8133 170.481 49.52C170.481 49.2133 170.575 48.9733 170.761 48.8C170.961 48.6133 171.201 48.52 171.481 48.52C171.761 48.52 172.001 48.6133 172.201 48.8C172.401 48.9733 172.501 49.2133 172.501 49.52C172.501 49.8133 172.401 50.06 172.201 50.26C172.015 50.4467 171.781 50.54 171.501 50.54Z" fill="black"/>
<path d="M178.25 63.24C177.437 63.24 176.757 63.0933 176.21 62.8C175.677 62.5067 175.277 62.1267 175.01 61.66C174.757 61.1933 174.63 60.68 174.63 60.12C174.63 59.4267 174.804 58.84 175.15 58.36C175.51 57.88 176.01 57.52 176.65 57.28C177.29 57.04 178.037 56.92 178.89 56.92H181.61C181.61 56.2667 181.51 55.7133 181.31 55.26C181.11 54.8067 180.817 54.4667 180.43 54.24C180.044 54 179.557 53.88 178.97 53.88C178.29 53.88 177.704 54.0533 177.21 54.4C176.717 54.7467 176.41 55.2533 176.29 55.92H174.83C174.91 55.2133 175.15 54.62 175.55 54.14C175.964 53.66 176.47 53.3 177.07 53.06C177.67 52.8067 178.304 52.68 178.97 52.68C179.904 52.68 180.664 52.86 181.25 53.22C181.837 53.5667 182.277 54.0467 182.57 54.66C182.864 55.2733 183.01 55.98 183.01 56.78V63H181.73L181.65 61.16C181.53 61.44 181.364 61.7067 181.15 61.96C180.95 62.2133 180.71 62.4333 180.43 62.62C180.164 62.8067 179.85 62.9533 179.49 63.06C179.13 63.18 178.717 63.24 178.25 63.24ZM178.41 62.02C178.904 62.02 179.344 61.92 179.73 61.72C180.13 61.5067 180.47 61.2333 180.75 60.9C181.03 60.5667 181.244 60.1933 181.39 59.78C181.537 59.3533 181.61 58.9133 181.61 58.46V58.1H178.99C178.284 58.1 177.717 58.1867 177.29 58.36C176.864 58.5333 176.557 58.7667 176.37 59.06C176.184 59.3533 176.09 59.6933 176.09 60.08C176.09 60.4667 176.177 60.8067 176.35 61.1C176.524 61.38 176.784 61.6067 177.13 61.78C177.49 61.94 177.917 62.02 178.41 62.02Z" fill="black"/>
<path d="M195.083 63.24C194.15 63.24 193.323 63.02 192.603 62.58C191.896 62.14 191.336 61.5267 190.923 60.74C190.523 59.94 190.323 59.0067 190.323 57.94C190.323 56.8733 190.523 55.9467 190.923 55.16C191.323 54.3733 191.883 53.7667 192.603 53.34C193.336 52.9 194.176 52.68 195.123 52.68C196.096 52.68 196.916 52.9 197.583 53.34C198.263 53.78 198.776 54.3533 199.123 55.06C199.483 55.7667 199.663 56.54 199.663 57.38C199.663 57.5133 199.663 57.6533 199.663 57.8C199.663 57.9333 199.656 58.0933 199.643 58.28H191.383V57.1H198.303C198.276 56.0733 197.956 55.28 197.343 54.72C196.743 54.16 195.983 53.88 195.063 53.88C194.463 53.88 193.903 54.02 193.383 54.3C192.876 54.5667 192.463 54.9667 192.143 55.5C191.836 56.02 191.683 56.68 191.683 57.48V58C191.683 58.9067 191.843 59.66 192.163 60.26C192.483 60.86 192.903 61.3067 193.423 61.6C193.956 61.8933 194.51 62.04 195.083 62.04C195.843 62.04 196.47 61.8733 196.963 61.54C197.456 61.1933 197.81 60.72 198.023 60.12H199.403C199.23 60.7067 198.95 61.24 198.563 61.72C198.19 62.2 197.71 62.5733 197.123 62.84C196.536 63.1067 195.856 63.24 195.083 63.24Z" fill="black"/>
<path d="M201.754 63V52.92H203.034L203.114 54.72C203.434 54.08 203.894 53.58 204.494 53.22C205.108 52.86 205.788 52.68 206.534 52.68C207.308 52.68 207.981 52.8333 208.554 53.14C209.128 53.4467 209.574 53.9133 209.894 54.54C210.214 55.1533 210.374 55.94 210.374 56.9V63H208.974V57.06C208.974 55.9933 208.741 55.2 208.274 54.68C207.808 54.16 207.141 53.9 206.274 53.9C205.688 53.9 205.154 54.0467 204.674 54.34C204.208 54.62 203.834 55.0333 203.554 55.58C203.288 56.1267 203.154 56.8 203.154 57.6V63H201.754Z" fill="black"/>
<path d="M222.572 63.24C221.638 63.24 220.805 63.02 220.072 62.58C219.338 62.14 218.758 61.5267 218.332 60.74C217.905 59.94 217.692 59.02 217.692 57.98C217.692 56.9 217.905 55.9733 218.332 55.2C218.758 54.4133 219.338 53.8 220.072 53.36C220.818 52.9067 221.652 52.68 222.572 52.68C223.745 52.68 224.718 52.9867 225.492 53.6C226.278 54.2 226.778 55 226.992 56H225.592C225.445 55.3333 225.092 54.82 224.532 54.46C223.985 54.0867 223.325 53.9 222.552 53.9C221.952 53.9 221.392 54.0533 220.872 54.36C220.352 54.6533 219.932 55.1 219.612 55.7C219.292 56.3 219.132 57.06 219.132 57.98C219.132 58.66 219.225 59.2533 219.412 59.76C219.598 60.2667 219.852 60.6933 220.172 61.04C220.492 61.3733 220.858 61.6267 221.272 61.8C221.685 61.9733 222.112 62.06 222.552 62.06C223.058 62.06 223.518 61.98 223.932 61.82C224.358 61.6467 224.718 61.4 225.012 61.08C225.305 60.76 225.498 60.3733 225.592 59.92H226.992C226.792 60.8933 226.298 61.6933 225.512 62.32C224.725 62.9333 223.745 63.24 222.572 63.24Z" fill="black"/>
<path d="M232.421 63.24C231.608 63.24 230.928 63.0933 230.381 62.8C229.848 62.5067 229.448 62.1267 229.181 61.66C228.928 61.1933 228.801 60.68 228.801 60.12C228.801 59.4267 228.975 58.84 229.321 58.36C229.681 57.88 230.181 57.52 230.821 57.28C231.461 57.04 232.208 56.92 233.061 56.92H235.781C235.781 56.2667 235.681 55.7133 235.481 55.26C235.281 54.8067 234.988 54.4667 234.601 54.24C234.215 54 233.728 53.88 233.141 53.88C232.461 53.88 231.875 54.0533 231.381 54.4C230.888 54.7467 230.581 55.2533 230.461 55.92H229.001C229.081 55.2133 229.321 54.62 229.721 54.14C230.135 53.66 230.641 53.3 231.241 53.06C231.841 52.8067 232.475 52.68 233.141 52.68C234.075 52.68 234.835 52.86 235.421 53.22C236.008 53.5667 236.448 54.0467 236.741 54.66C237.035 55.2733 237.181 55.98 237.181 56.78V63H235.901L235.821 61.16C235.701 61.44 235.535 61.7067 235.321 61.96C235.121 62.2133 234.881 62.4333 234.601 62.62C234.335 62.8067 234.021 62.9533 233.661 63.06C233.301 63.18 232.888 63.24 232.421 63.24ZM232.581 62.02C233.075 62.02 233.515 61.92 233.901 61.72C234.301 61.5067 234.641 61.2333 234.921 60.9C235.201 60.5667 235.415 60.1933 235.561 59.78C235.708 59.3533 235.781 58.9133 235.781 58.46V58.1H233.161C232.455 58.1 231.888 58.1867 231.461 58.36C231.035 58.5333 230.728 58.7667 230.541 59.06C230.355 59.3533 230.261 59.6933 230.261 60.08C230.261 60.4667 230.348 60.8067 230.521 61.1C230.695 61.38 230.955 61.6067 231.301 61.78C231.661 61.94 232.088 62.02 232.581 62.02Z" fill="black"/>
<path d="M244.026 63.24C243.053 63.24 242.2 63.0133 241.466 62.56C240.746 62.0933 240.186 61.46 239.786 60.66C239.386 59.86 239.186 58.9533 239.186 57.94C239.186 56.9267 239.386 56.0267 239.786 55.24C240.186 54.44 240.753 53.8133 241.486 53.36C242.22 52.9067 243.073 52.68 244.046 52.68C244.9 52.68 245.646 52.8667 246.286 53.24C246.94 53.6 247.44 54.1133 247.786 54.78V48.6H249.186V63H247.906L247.786 61.18C247.573 61.5267 247.293 61.86 246.946 62.18C246.613 62.5 246.2 62.76 245.706 62.96C245.226 63.1467 244.666 63.24 244.026 63.24ZM244.146 62.02C244.853 62.02 245.466 61.8533 245.986 61.52C246.52 61.1867 246.933 60.7133 247.226 60.1C247.533 59.4867 247.686 58.7733 247.686 57.96C247.686 57.1467 247.533 56.4333 247.226 55.82C246.933 55.2067 246.52 54.7333 245.986 54.4C245.466 54.0667 244.853 53.9 244.146 53.9C243.453 53.9 242.84 54.0667 242.306 54.4C241.773 54.7333 241.353 55.2067 241.046 55.82C240.753 56.42 240.606 57.1333 240.606 57.96C240.606 58.7867 240.76 59.5067 241.066 60.12C241.373 60.72 241.793 61.1867 242.326 61.52C242.86 61.8533 243.466 62.02 244.146 62.02Z" fill="black"/>
<path d="M255.049 63.24C254.235 63.24 253.555 63.0933 253.009 62.8C252.475 62.5067 252.075 62.1267 251.809 61.66C251.555 61.1933 251.429 60.68 251.429 60.12C251.429 59.4267 251.602 58.84 251.949 58.36C252.309 57.88 252.809 57.52 253.449 57.28C254.089 57.04 254.835 56.92 255.689 56.92H258.409C258.409 56.2667 258.309 55.7133 258.109 55.26C257.909 54.8067 257.615 54.4667 257.229 54.24C256.842 54 256.355 53.88 255.769 53.88C255.089 53.88 254.502 54.0533 254.009 54.4C253.515 54.7467 253.209 55.2533 253.089 55.92H251.629C251.709 55.2133 251.949 54.62 252.349 54.14C252.762 53.66 253.269 53.3 253.869 53.06C254.469 52.8067 255.102 52.68 255.769 52.68C256.702 52.68 257.462 52.86 258.049 53.22C258.635 53.5667 259.075 54.0467 259.369 54.66C259.662 55.2733 259.809 55.98 259.809 56.78V63H258.529L258.449 61.16C258.329 61.44 258.162 61.7067 257.949 61.96C257.749 62.2133 257.509 62.4333 257.229 62.62C256.962 62.8067 256.649 62.9533 256.289 63.06C255.929 63.18 255.515 63.24 255.049 63.24ZM255.209 62.02C255.702 62.02 256.142 61.92 256.529 61.72C256.929 61.5067 257.269 61.2333 257.549 60.9C257.829 60.5667 258.042 60.1933 258.189 59.78C258.335 59.3533 258.409 58.9133 258.409 58.46V58.1H255.789C255.082 58.1 254.515 58.1867 254.089 58.36C253.662 58.5333 253.355 58.7667 253.169 59.06C252.982 59.3533 252.889 59.6933 252.889 60.08C252.889 60.4667 252.975 60.8067 253.149 61.1C253.322 61.38 253.582 61.6067 253.929 61.78C254.289 61.94 254.715 62.02 255.209 62.02Z" fill="black"/>
<path d="M271.961 63.24C270.988 63.24 270.135 63.0133 269.401 62.56C268.681 62.0933 268.121 61.46 267.721 60.66C267.321 59.86 267.121 58.9533 267.121 57.94C267.121 56.9267 267.321 56.0267 267.721 55.24C268.121 54.44 268.688 53.8133 269.421 53.36C270.155 52.9067 271.008 52.68 271.981 52.68C272.835 52.68 273.581 52.8667 274.221 53.24C274.875 53.6 275.375 54.1133 275.721 54.78V48.6H277.121V63H275.841L275.721 61.18C275.508 61.5267 275.228 61.86 274.881 62.18C274.548 62.5 274.135 62.76 273.641 62.96C273.161 63.1467 272.601 63.24 271.961 63.24ZM272.081 62.02C272.788 62.02 273.401 61.8533 273.921 61.52C274.455 61.1867 274.868 60.7133 275.161 60.1C275.468 59.4867 275.621 58.7733 275.621 57.96C275.621 57.1467 275.468 56.4333 275.161 55.82C274.868 55.2067 274.455 54.7333 273.921 54.4C273.401 54.0667 272.788 53.9 272.081 53.9C271.388 53.9 270.775 54.0667 270.241 54.4C269.708 54.7333 269.288 55.2067 268.981 55.82C268.688 56.42 268.541 57.1333 268.541 57.96C268.541 58.7867 268.695 59.5067 269.001 60.12C269.308 60.72 269.728 61.1867 270.261 61.52C270.795 61.8533 271.401 62.02 272.081 62.02Z" fill="black"/>
<path d="M284.084 63.24C283.15 63.24 282.324 63.02 281.604 62.58C280.897 62.14 280.337 61.5267 279.924 60.74C279.524 59.94 279.324 59.0067 279.324 57.94C279.324 56.8733 279.524 55.9467 279.924 55.16C280.324 54.3733 280.884 53.7667 281.604 53.34C282.337 52.9 283.177 52.68 284.124 52.68C285.097 52.68 285.917 52.9 286.584 53.34C287.264 53.78 287.777 54.3533 288.124 55.06C288.484 55.7667 288.664 56.54 288.664 57.38C288.664 57.5133 288.664 57.6533 288.664 57.8C288.664 57.9333 288.657 58.0933 288.644 58.28H280.384V57.1H287.304C287.277 56.0733 286.957 55.28 286.344 54.72C285.744 54.16 284.984 53.88 284.064 53.88C283.464 53.88 282.904 54.02 282.384 54.3C281.877 54.5667 281.464 54.9667 281.144 55.5C280.837 56.02 280.684 56.68 280.684 57.48V58C280.684 58.9067 280.844 59.66 281.164 60.26C281.484 60.86 281.904 61.3067 282.424 61.6C282.957 61.8933 283.51 62.04 284.084 62.04C284.844 62.04 285.471 61.8733 285.964 61.54C286.457 61.1933 286.811 60.72 287.024 60.12H288.404C288.231 60.7067 287.951 61.24 287.564 61.72C287.191 62.2 286.711 62.5733 286.124 62.84C285.537 63.1067 284.857 63.24 284.084 63.24Z" fill="black"/>
<path d="M294.185 63C293.611 63 293.118 62.9133 292.705 62.74C292.291 62.5533 291.971 62.2533 291.745 61.84C291.531 61.4133 291.425 60.8333 291.425 60.1V54.12H289.665V52.92H291.425L291.625 50.58H292.825V52.94H295.845V54.12H292.825V60.1C292.825 60.7667 292.958 61.22 293.225 61.46C293.491 61.6867 293.965 61.8 294.645 61.8H295.685V63H294.185Z" fill="black"/>
<path d="M301.041 63.24C300.228 63.24 299.548 63.0933 299.001 62.8C298.468 62.5067 298.068 62.1267 297.801 61.66C297.548 61.1933 297.421 60.68 297.421 60.12C297.421 59.4267 297.594 58.84 297.941 58.36C298.301 57.88 298.801 57.52 299.441 57.28C300.081 57.04 300.828 56.92 301.681 56.92H304.401C304.401 56.2667 304.301 55.7133 304.101 55.26C303.901 54.8067 303.608 54.4667 303.221 54.24C302.834 54 302.348 53.88 301.761 53.88C301.081 53.88 300.494 54.0533 300.001 54.4C299.508 54.7467 299.201 55.2533 299.081 55.92H297.621C297.701 55.2133 297.941 54.62 298.341 54.14C298.754 53.66 299.261 53.3 299.861 53.06C300.461 52.8067 301.094 52.68 301.761 52.68C302.694 52.68 303.454 52.86 304.041 53.22C304.628 53.5667 305.068 54.0467 305.361 54.66C305.654 55.2733 305.801 55.98 305.801 56.78V63H304.521L304.441 61.16C304.321 61.44 304.154 61.7067 303.941 61.96C303.741 62.2133 303.501 62.4333 303.221 62.62C302.954 62.8067 302.641 62.9533 302.281 63.06C301.921 63.18 301.508 63.24 301.041 63.24ZM301.201 62.02C301.694 62.02 302.134 61.92 302.521 61.72C302.921 61.5067 303.261 61.2333 303.541 60.9C303.821 60.5667 304.034 60.1933 304.181 59.78C304.328 59.3533 304.401 58.9133 304.401 58.46V58.1H301.781C301.074 58.1 300.508 58.1867 300.081 58.36C299.654 58.5333 299.348 58.7667 299.161 59.06C298.974 59.3533 298.881 59.6933 298.881 60.08C298.881 60.4667 298.968 60.8067 299.141 61.1C299.314 61.38 299.574 61.6067 299.921 61.78C300.281 61.94 300.708 62.02 301.201 62.02Z" fill="black"/>
<path d="M308.246 63V48.6H309.646V63H308.246Z" fill="black"/>
<path d="M312.284 63V48.6H313.684V63H312.284Z" fill="black"/>
<path d="M320.642 63.24C319.709 63.24 318.882 63.02 318.162 62.58C317.456 62.14 316.896 61.5267 316.482 60.74C316.082 59.94 315.882 59.0067 315.882 57.94C315.882 56.8733 316.082 55.9467 316.482 55.16C316.882 54.3733 317.442 53.7667 318.162 53.34C318.896 52.9 319.736 52.68 320.682 52.68C321.656 52.68 322.476 52.9 323.142 53.34C323.822 53.78 324.336 54.3533 324.682 55.06C325.042 55.7667 325.222 56.54 325.222 57.38C325.222 57.5133 325.222 57.6533 325.222 57.8C325.222 57.9333 325.216 58.0933 325.202 58.28H316.942V57.1H323.862C323.836 56.0733 323.516 55.28 322.902 54.72C322.302 54.16 321.542 53.88 320.622 53.88C320.022 53.88 319.462 54.02 318.942 54.3C318.436 54.5667 318.022 54.9667 317.702 55.5C317.396 56.02 317.242 56.68 317.242 57.48V58C317.242 58.9067 317.402 59.66 317.722 60.26C318.042 60.86 318.462 61.3067 318.982 61.6C319.516 61.8933 320.069 62.04 320.642 62.04C321.402 62.04 322.029 61.8733 322.522 61.54C323.016 61.1933 323.369 60.72 323.582 60.12H324.962C324.789 60.7067 324.509 61.24 324.122 61.72C323.749 62.2 323.269 62.5733 322.682 62.84C322.096 63.1067 321.416 63.24 320.642 63.24Z" fill="black"/>
<path d="M327.774 63.1C327.481 63.1 327.234 63 327.034 62.8C326.847 62.6 326.754 62.3533 326.754 62.06C326.754 61.7667 326.847 61.5267 327.034 61.34C327.234 61.14 327.481 61.04 327.774 61.04C328.067 61.04 328.307 61.14 328.494 61.34C328.694 61.5267 328.794 61.7733 328.794 62.08C328.794 62.36 328.694 62.6 328.494 62.8C328.307 63 328.067 63.1 327.774 63.1Z" fill="black"/>
<path d="M91.5601 163V149H93.1601L98.3001 159.1L103.46 149H105.08V163H103.68V151.56L98.8401 161.04H97.8001L92.9601 151.6V163H91.5601Z" fill="black"/>
<path d="M111.081 163.24C110.267 163.24 109.587 163.093 109.041 162.8C108.507 162.507 108.107 162.127 107.841 161.66C107.587 161.193 107.461 160.68 107.461 160.12C107.461 159.427 107.634 158.84 107.981 158.36C108.341 157.88 108.841 157.52 109.481 157.28C110.121 157.04 110.867 156.92 111.721 156.92H114.441C114.441 156.267 114.341 155.713 114.141 155.26C113.941 154.807 113.647 154.467 113.261 154.24C112.874 154 112.387 153.88 111.801 153.88C111.121 153.88 110.534 154.053 110.041 154.4C109.547 154.747 109.241 155.253 109.121 155.92H107.661C107.741 155.213 107.981 154.62 108.381 154.14C108.794 153.66 109.301 153.3 109.901 153.06C110.501 152.807 111.134 152.68 111.801 152.68C112.734 152.68 113.494 152.86 114.081 153.22C114.667 153.567 115.107 154.047 115.401 154.66C115.694 155.273 115.841 155.98 115.841 156.78V163H114.561L114.481 161.16C114.361 161.44 114.194 161.707 113.981 161.96C113.781 162.213 113.541 162.433 113.261 162.62C112.994 162.807 112.681 162.953 112.321 163.06C111.961 163.18 111.547 163.24 111.081 163.24ZM111.241 162.02C111.734 162.02 112.174 161.92 112.561 161.72C112.961 161.507 113.301 161.233 113.581 160.9C113.861 160.567 114.074 160.193 114.221 159.78C114.367 159.353 114.441 158.913 114.441 158.46V158.1H111.821C111.114 158.1 110.547 158.187 110.121 158.36C109.694 158.533 109.387 158.767 109.201 159.06C109.014 159.353 108.921 159.693 108.921 160.08C108.921 160.467 109.007 160.807 109.181 161.1C109.354 161.38 109.614 161.607 109.961 161.78C110.321 161.94 110.747 162.02 111.241 162.02Z" fill="black"/>
<path d="M121.793 163C121.22 163 120.727 162.913 120.313 162.74C119.9 162.553 119.58 162.253 119.353 161.84C119.14 161.413 119.033 160.833 119.033 160.1V154.12H117.273V152.92H119.033L119.233 150.58H120.433V152.94H123.453V154.12H120.433V160.1C120.433 160.767 120.567 161.22 120.833 161.46C121.1 161.687 121.573 161.8 122.253 161.8H123.293V163H121.793Z" fill="black"/>
<path d="M129.476 163.24C128.543 163.24 127.716 163.02 126.996 162.58C126.289 162.14 125.729 161.527 125.316 160.74C124.916 159.94 124.716 159.007 124.716 157.94C124.716 156.873 124.916 155.947 125.316 155.16C125.716 154.373 126.276 153.767 126.996 153.34C127.729 152.9 128.569 152.68 129.516 152.68C130.489 152.68 131.309 152.9 131.976 153.34C132.656 153.78 133.169 154.353 133.516 155.06C133.876 155.767 134.056 156.54 134.056 157.38C134.056 157.513 134.056 157.653 134.056 157.8C134.056 157.933 134.049 158.093 134.036 158.28H125.776V157.1H132.696C132.669 156.073 132.349 155.28 131.736 154.72C131.136 154.16 130.376 153.88 129.456 153.88C128.856 153.88 128.296 154.02 127.776 154.3C127.269 154.567 126.856 154.967 126.536 155.5C126.229 156.02 126.076 156.68 126.076 157.48V158C126.076 158.907 126.236 159.66 126.556 160.26C126.876 160.86 127.296 161.307 127.816 161.6C128.349 161.893 128.903 162.04 129.476 162.04C130.236 162.04 130.863 161.873 131.356 161.54C131.849 161.193 132.203 160.72 132.416 160.12H133.796C133.623 160.707 133.343 161.24 132.956 161.72C132.583 162.2 132.103 162.573 131.516 162.84C130.929 163.107 130.249 163.24 129.476 163.24Z" fill="black"/>
<path d="M136.147 163V152.92H137.427L137.527 154.86C137.741 154.393 138.027 154 138.387 153.68C138.747 153.36 139.181 153.113 139.687 152.94C140.194 152.767 140.767 152.68 141.407 152.68V154.14H140.867C140.441 154.14 140.027 154.2 139.627 154.32C139.227 154.427 138.874 154.613 138.567 154.88C138.261 155.147 138.014 155.507 137.827 155.96C137.641 156.413 137.547 156.98 137.547 157.66V163H136.147Z" fill="black"/>
<path d="M143.374 163V152.92H144.754V163H143.374ZM144.074 150.54C143.794 150.54 143.554 150.447 143.354 150.26C143.154 150.06 143.054 149.813 143.054 149.52C143.054 149.213 143.147 148.973 143.334 148.8C143.534 148.613 143.774 148.52 144.054 148.52C144.334 148.52 144.574 148.613 144.774 148.8C144.974 148.973 145.074 149.213 145.074 149.52C145.074 149.813 144.974 150.06 144.774 150.26C144.587 150.447 144.354 150.54 144.074 150.54Z" fill="black"/>
<path d="M150.823 163.24C150.01 163.24 149.33 163.093 148.783 162.8C148.25 162.507 147.85 162.127 147.583 161.66C147.33 161.193 147.203 160.68 147.203 160.12C147.203 159.427 147.376 158.84 147.723 158.36C148.083 157.88 148.583 157.52 149.223 157.28C149.863 157.04 150.61 156.92 151.463 156.92H154.183C154.183 156.267 154.083 155.713 153.883 155.26C153.683 154.807 153.39 154.467 153.003 154.24C152.616 154 152.13 153.88 151.543 153.88C150.863 153.88 150.276 154.053 149.783 154.4C149.29 154.747 148.983 155.253 148.863 155.92H147.403C147.483 155.213 147.723 154.62 148.123 154.14C148.536 153.66 149.043 153.3 149.643 153.06C150.243 152.807 150.876 152.68 151.543 152.68C152.476 152.68 153.236 152.86 153.823 153.22C154.41 153.567 154.85 154.047 155.143 154.66C155.436 155.273 155.583 155.98 155.583 156.78V163H154.303L154.223 161.16C154.103 161.44 153.936 161.707 153.723 161.96C153.523 162.213 153.283 162.433 153.003 162.62C152.736 162.807 152.423 162.953 152.063 163.06C151.703 163.18 151.29 163.24 150.823 163.24ZM150.983 162.02C151.476 162.02 151.916 161.92 152.303 161.72C152.703 161.507 153.043 161.233 153.323 160.9C153.603 160.567 153.816 160.193 153.963 159.78C154.11 159.353 154.183 158.913 154.183 158.46V158.1H151.563C150.856 158.1 150.29 158.187 149.863 158.36C149.436 158.533 149.13 158.767 148.943 159.06C148.756 159.353 148.663 159.693 148.663 160.08C148.663 160.467 148.75 160.807 148.923 161.1C149.096 161.38 149.356 161.607 149.703 161.78C150.063 161.94 150.49 162.02 150.983 162.02Z" fill="black"/>
<path d="M158.028 163V148.6H159.428V163H158.028Z" fill="black"/>
<path d="M166.386 163.24C165.453 163.24 164.626 163.02 163.906 162.58C163.2 162.14 162.64 161.527 162.226 160.74C161.826 159.94 161.626 159.007 161.626 157.94C161.626 156.873 161.826 155.947 162.226 155.16C162.626 154.373 163.186 153.767 163.906 153.34C164.64 152.9 165.48 152.68 166.426 152.68C167.4 152.68 168.22 152.9 168.886 153.34C169.566 153.78 170.08 154.353 170.426 155.06C170.786 155.767 170.966 156.54 170.966 157.38C170.966 157.513 170.966 157.653 170.966 157.8C170.966 157.933 170.96 158.093 170.946 158.28H162.686V157.1H169.606C169.58 156.073 169.26 155.28 168.646 154.72C168.046 154.16 167.286 153.88 166.366 153.88C165.766 153.88 165.206 154.02 164.686 154.3C164.18 154.567 163.766 154.967 163.446 155.5C163.14 156.02 162.986 156.68 162.986 157.48V158C162.986 158.907 163.146 159.66 163.466 160.26C163.786 160.86 164.206 161.307 164.726 161.6C165.26 161.893 165.813 162.04 166.386 162.04C167.146 162.04 167.773 161.873 168.266 161.54C168.76 161.193 169.113 160.72 169.326 160.12H170.706C170.533 160.707 170.253 161.24 169.866 161.72C169.493 162.2 169.013 162.573 168.426 162.84C167.84 163.107 167.16 163.24 166.386 163.24Z" fill="black"/>
<path d="M176.758 163.24C175.958 163.24 175.251 163.107 174.638 162.84C174.038 162.573 173.551 162.193 173.178 161.7C172.818 161.193 172.598 160.593 172.518 159.9H173.958C174.038 160.287 174.191 160.64 174.418 160.96C174.658 161.28 174.978 161.54 175.378 161.74C175.778 161.927 176.251 162.02 176.798 162.02C177.304 162.02 177.718 161.947 178.038 161.8C178.371 161.64 178.618 161.433 178.778 161.18C178.951 160.913 179.038 160.62 179.038 160.3C179.038 159.86 178.931 159.52 178.718 159.28C178.518 159.027 178.224 158.84 177.838 158.72C177.451 158.6 176.984 158.487 176.438 158.38C175.984 158.3 175.551 158.193 175.138 158.06C174.724 157.927 174.351 157.753 174.018 157.54C173.698 157.327 173.444 157.06 173.258 156.74C173.071 156.407 172.978 156.02 172.978 155.58C172.978 155.007 173.118 154.507 173.398 154.08C173.691 153.64 174.104 153.3 174.638 153.06C175.171 152.807 175.798 152.68 176.518 152.68C177.544 152.68 178.384 152.94 179.038 153.46C179.691 153.967 180.071 154.713 180.178 155.7H178.778C178.724 155.153 178.498 154.72 178.098 154.4C177.698 154.08 177.158 153.92 176.478 153.92C175.811 153.92 175.298 154.06 174.938 154.34C174.591 154.607 174.418 154.973 174.418 155.44C174.418 155.733 174.511 155.987 174.698 156.2C174.884 156.413 175.158 156.6 175.518 156.76C175.891 156.907 176.344 157.033 176.878 157.14C177.518 157.26 178.104 157.42 178.638 157.62C179.184 157.807 179.624 158.1 179.958 158.5C180.304 158.887 180.478 159.44 180.478 160.16C180.491 160.76 180.344 161.293 180.038 161.76C179.731 162.227 179.298 162.593 178.738 162.86C178.178 163.113 177.518 163.24 176.758 163.24Z" fill="black"/>
<path d="M189.108 167.4L191.588 161.88H191.048L187.068 152.92H188.588L192.028 160.92L195.648 152.92H197.088L190.568 167.4H189.108Z" fill="black"/>
<path d="M207.255 163.24C206.442 163.24 205.762 163.093 205.215 162.8C204.682 162.507 204.282 162.127 204.015 161.66C203.762 161.193 203.635 160.68 203.635 160.12C203.635 159.427 203.808 158.84 204.155 158.36C204.515 157.88 205.015 157.52 205.655 157.28C206.295 157.04 207.042 156.92 207.895 156.92H210.615C210.615 156.267 210.515 155.713 210.315 155.26C210.115 154.807 209.822 154.467 209.435 154.24C209.048 154 208.562 153.88 207.975 153.88C207.295 153.88 206.708 154.053 206.215 154.4C205.722 154.747 205.415 155.253 205.295 155.92H203.835C203.915 155.213 204.155 154.62 204.555 154.14C204.968 153.66 205.475 153.3 206.075 153.06C206.675 152.807 207.308 152.68 207.975 152.68C208.908 152.68 209.668 152.86 210.255 153.22C210.842 153.567 211.282 154.047 211.575 154.66C211.868 155.273 212.015 155.98 212.015 156.78V163H210.735L210.655 161.16C210.535 161.44 210.368 161.707 210.155 161.96C209.955 162.213 209.715 162.433 209.435 162.62C209.168 162.807 208.855 162.953 208.495 163.06C208.135 163.18 207.722 163.24 207.255 163.24ZM207.415 162.02C207.908 162.02 208.348 161.92 208.735 161.72C209.135 161.507 209.475 161.233 209.755 160.9C210.035 160.567 210.248 160.193 210.395 159.78C210.542 159.353 210.615 158.913 210.615 158.46V158.1H207.995C207.288 158.1 206.722 158.187 206.295 158.36C205.868 158.533 205.562 158.767 205.375 159.06C205.188 159.353 205.095 159.693 205.095 160.08C205.095 160.467 205.182 160.807 205.355 161.1C205.528 161.38 205.788 161.607 206.135 161.78C206.495 161.94 206.922 162.02 207.415 162.02Z" fill="black"/>
<path d="M218.9 163.24C217.967 163.24 217.133 163.02 216.4 162.58C215.667 162.14 215.087 161.527 214.66 160.74C214.233 159.94 214.02 159.02 214.02 157.98C214.02 156.9 214.233 155.973 214.66 155.2C215.087 154.413 215.667 153.8 216.4 153.36C217.147 152.907 217.98 152.68 218.9 152.68C220.073 152.68 221.047 152.987 221.82 153.6C222.607 154.2 223.107 155 223.32 156H221.92C221.773 155.333 221.42 154.82 220.86 154.46C220.313 154.087 219.653 153.9 218.88 153.9C218.28 153.9 217.72 154.053 217.2 154.36C216.68 154.653 216.26 155.1 215.94 155.7C215.62 156.3 215.46 157.06 215.46 157.98C215.46 158.66 215.553 159.253 215.74 159.76C215.927 160.267 216.18 160.693 216.5 161.04C216.82 161.373 217.187 161.627 217.6 161.8C218.013 161.973 218.44 162.06 218.88 162.06C219.387 162.06 219.847 161.98 220.26 161.82C220.687 161.647 221.047 161.4 221.34 161.08C221.633 160.76 221.827 160.373 221.92 159.92H223.32C223.12 160.893 222.627 161.693 221.84 162.32C221.053 162.933 220.073 163.24 218.9 163.24Z" fill="black"/>
<path d="M228.749 163.24C227.936 163.24 227.256 163.093 226.709 162.8C226.176 162.507 225.776 162.127 225.509 161.66C225.256 161.193 225.129 160.68 225.129 160.12C225.129 159.427 225.303 158.84 225.649 158.36C226.009 157.88 226.509 157.52 227.149 157.28C227.789 157.04 228.536 156.92 229.389 156.92H232.109C232.109 156.267 232.009 155.713 231.809 155.26C231.609 154.807 231.316 154.467 230.929 154.24C230.543 154 230.056 153.88 229.469 153.88C228.789 153.88 228.203 154.053 227.709 154.4C227.216 154.747 226.909 155.253 226.789 155.92H225.329C225.409 155.213 225.649 154.62 226.049 154.14C226.463 153.66 226.969 153.3 227.569 153.06C228.169 152.807 228.803 152.68 229.469 152.68C230.403 152.68 231.163 152.86 231.749 153.22C232.336 153.567 232.776 154.047 233.069 154.66C233.363 155.273 233.509 155.98 233.509 156.78V163H232.229L232.149 161.16C232.029 161.44 231.863 161.707 231.649 161.96C231.449 162.213 231.209 162.433 230.929 162.62C230.663 162.807 230.349 162.953 229.989 163.06C229.629 163.18 229.216 163.24 228.749 163.24ZM228.909 162.02C229.403 162.02 229.843 161.92 230.229 161.72C230.629 161.507 230.969 161.233 231.249 160.9C231.529 160.567 231.743 160.193 231.889 159.78C232.036 159.353 232.109 158.913 232.109 158.46V158.1H229.489C228.783 158.1 228.216 158.187 227.789 158.36C227.363 158.533 227.056 158.767 226.869 159.06C226.683 159.353 226.589 159.693 226.589 160.08C226.589 160.467 226.676 160.807 226.849 161.1C227.023 161.38 227.283 161.607 227.629 161.78C227.989 161.94 228.416 162.02 228.909 162.02Z" fill="black"/>
<path d="M241.094 163.24C240.508 163.24 239.968 163.153 239.474 162.98C238.994 162.793 238.574 162.547 238.214 162.24C237.854 161.92 237.568 161.56 237.354 161.16L237.234 163H235.954V148.6H237.354V154.74C237.688 154.167 238.168 153.68 238.794 153.28C239.421 152.88 240.188 152.68 241.094 152.68C242.081 152.68 242.941 152.913 243.674 153.38C244.408 153.833 244.968 154.46 245.354 155.26C245.754 156.047 245.954 156.947 245.954 157.96C245.954 158.973 245.754 159.88 245.354 160.68C244.954 161.48 244.388 162.107 243.654 162.56C242.934 163.013 242.081 163.24 241.094 163.24ZM240.994 162.02C241.701 162.02 242.314 161.853 242.834 161.52C243.354 161.187 243.768 160.713 244.074 160.1C244.381 159.487 244.534 158.773 244.534 157.96C244.534 157.133 244.381 156.42 244.074 155.82C243.768 155.207 243.348 154.733 242.814 154.4C242.294 154.067 241.688 153.9 240.994 153.9C240.301 153.9 239.681 154.067 239.134 154.4C238.601 154.733 238.181 155.207 237.874 155.82C237.581 156.433 237.434 157.147 237.434 157.96C237.434 158.787 237.581 159.507 237.874 160.12C238.181 160.72 238.601 161.187 239.134 161.52C239.681 161.853 240.301 162.02 240.994 162.02Z" fill="black"/>
<path d="M251.377 163.24C250.563 163.24 249.883 163.093 249.337 162.8C248.803 162.507 248.403 162.127 248.137 161.66C247.883 161.193 247.757 160.68 247.757 160.12C247.757 159.427 247.93 158.84 248.277 158.36C248.637 157.88 249.137 157.52 249.777 157.28C250.417 157.04 251.163 156.92 252.017 156.92H254.737C254.737 156.267 254.637 155.713 254.437 155.26C254.237 154.807 253.943 154.467 253.557 154.24C253.17 154 252.683 153.88 252.097 153.88C251.417 153.88 250.83 154.053 250.337 154.4C249.843 154.747 249.537 155.253 249.417 155.92H247.957C248.037 155.213 248.277 154.62 248.677 154.14C249.09 153.66 249.597 153.3 250.197 153.06C250.797 152.807 251.43 152.68 252.097 152.68C253.03 152.68 253.79 152.86 254.377 153.22C254.963 153.567 255.403 154.047 255.697 154.66C255.99 155.273 256.137 155.98 256.137 156.78V163H254.857L254.777 161.16C254.657 161.44 254.49 161.707 254.277 161.96C254.077 162.213 253.837 162.433 253.557 162.62C253.29 162.807 252.977 162.953 252.617 163.06C252.257 163.18 251.843 163.24 251.377 163.24ZM251.537 162.02C252.03 162.02 252.47 161.92 252.857 161.72C253.257 161.507 253.597 161.233 253.877 160.9C254.157 160.567 254.37 160.193 254.517 159.78C254.663 159.353 254.737 158.913 254.737 158.46V158.1H252.117C251.41 158.1 250.843 158.187 250.417 158.36C249.99 158.533 249.683 158.767 249.497 159.06C249.31 159.353 249.217 159.693 249.217 160.08C249.217 160.467 249.303 160.807 249.477 161.1C249.65 161.38 249.91 161.607 250.257 161.78C250.617 161.94 251.043 162.02 251.537 162.02Z" fill="black"/>
<path d="M262.982 163.24C262.008 163.24 261.155 163.013 260.422 162.56C259.702 162.093 259.142 161.46 258.742 160.66C258.342 159.86 258.142 158.953 258.142 157.94C258.142 156.927 258.342 156.027 258.742 155.24C259.142 154.44 259.708 153.813 260.442 153.36C261.175 152.907 262.028 152.68 263.002 152.68C263.855 152.68 264.602 152.867 265.242 153.24C265.895 153.6 266.395 154.113 266.742 154.78V148.6H268.142V163H266.862L266.742 161.18C266.528 161.527 266.248 161.86 265.902 162.18C265.568 162.5 265.155 162.76 264.662 162.96C264.182 163.147 263.622 163.24 262.982 163.24ZM263.102 162.02C263.808 162.02 264.422 161.853 264.942 161.52C265.475 161.187 265.888 160.713 266.182 160.1C266.488 159.487 266.642 158.773 266.642 157.96C266.642 157.147 266.488 156.433 266.182 155.82C265.888 155.207 265.475 154.733 264.942 154.4C264.422 154.067 263.808 153.9 263.102 153.9C262.408 153.9 261.795 154.067 261.262 154.4C260.728 154.733 260.308 155.207 260.002 155.82C259.708 156.42 259.562 157.133 259.562 157.96C259.562 158.787 259.715 159.507 260.022 160.12C260.328 160.72 260.748 161.187 261.282 161.52C261.815 161.853 262.422 162.02 263.102 162.02Z" fill="black"/>
<path d="M275.224 163.24C274.304 163.24 273.471 163.027 272.724 162.6C271.991 162.16 271.411 161.547 270.984 160.76C270.557 159.96 270.344 159.033 270.344 157.98C270.344 156.887 270.557 155.947 270.984 155.16C271.424 154.373 272.017 153.767 272.764 153.34C273.511 152.9 274.344 152.68 275.264 152.68C276.224 152.68 277.071 152.9 277.804 153.34C278.537 153.767 279.117 154.373 279.544 155.16C279.971 155.947 280.184 156.887 280.184 157.98C280.184 159.033 279.964 159.96 279.524 160.76C279.097 161.547 278.511 162.16 277.764 162.6C277.031 163.027 276.184 163.24 275.224 163.24ZM275.244 162.04C275.871 162.04 276.444 161.887 276.964 161.58C277.497 161.273 277.924 160.82 278.244 160.22C278.577 159.607 278.744 158.853 278.744 157.96C278.744 157.053 278.584 156.3 278.264 155.7C277.944 155.1 277.517 154.653 276.984 154.36C276.464 154.053 275.891 153.9 275.264 153.9C274.664 153.9 274.097 154.053 273.564 154.36C273.031 154.667 272.597 155.12 272.264 155.72C271.944 156.307 271.784 157.053 271.784 157.96C271.784 158.853 271.944 159.607 272.264 160.22C272.584 160.82 273.004 161.273 273.524 161.58C274.057 161.887 274.631 162.04 275.244 162.04Z" fill="black"/>
<path d="M286.081 163.24C285.281 163.24 284.574 163.107 283.961 162.84C283.361 162.573 282.874 162.193 282.501 161.7C282.141 161.193 281.921 160.593 281.841 159.9H283.281C283.361 160.287 283.514 160.64 283.741 160.96C283.981 161.28 284.301 161.54 284.701 161.74C285.101 161.927 285.574 162.02 286.121 162.02C286.628 162.02 287.041 161.947 287.361 161.8C287.694 161.64 287.941 161.433 288.101 161.18C288.274 160.913 288.361 160.62 288.361 160.3C288.361 159.86 288.254 159.52 288.041 159.28C287.841 159.027 287.548 158.84 287.161 158.72C286.774 158.6 286.308 158.487 285.761 158.38C285.308 158.3 284.874 158.193 284.461 158.06C284.048 157.927 283.674 157.753 283.341 157.54C283.021 157.327 282.768 157.06 282.581 156.74C282.394 156.407 282.301 156.02 282.301 155.58C282.301 155.007 282.441 154.507 282.721 154.08C283.014 153.64 283.428 153.3 283.961 153.06C284.494 152.807 285.121 152.68 285.841 152.68C286.868 152.68 287.708 152.94 288.361 153.46C289.014 153.967 289.394 154.713 289.501 155.7H288.101C288.048 155.153 287.821 154.72 287.421 154.4C287.021 154.08 286.481 153.92 285.801 153.92C285.134 153.92 284.621 154.06 284.261 154.34C283.914 154.607 283.741 154.973 283.741 155.44C283.741 155.733 283.834 155.987 284.021 156.2C284.208 156.413 284.481 156.6 284.841 156.76C285.214 156.907 285.668 157.033 286.201 157.14C286.841 157.26 287.428 157.42 287.961 157.62C288.508 157.807 288.948 158.1 289.281 158.5C289.628 158.887 289.801 159.44 289.801 160.16C289.814 160.76 289.668 161.293 289.361 161.76C289.054 162.227 288.621 162.593 288.061 162.86C287.501 163.113 286.841 163.24 286.081 163.24Z" fill="black"/>
<path d="M301.791 163.24C300.818 163.24 299.965 163.013 299.231 162.56C298.511 162.093 297.951 161.46 297.551 160.66C297.151 159.86 296.951 158.953 296.951 157.94C296.951 156.927 297.151 156.027 297.551 155.24C297.951 154.44 298.518 153.813 299.251 153.36C299.985 152.907 300.838 152.68 301.811 152.68C302.665 152.68 303.411 152.867 304.051 153.24C304.705 153.6 305.205 154.113 305.551 154.78V148.6H306.951V163H305.671L305.551 161.18C305.338 161.527 305.058 161.86 304.711 162.18C304.378 162.5 303.965 162.76 303.471 162.96C302.991 163.147 302.431 163.24 301.791 163.24ZM301.911 162.02C302.618 162.02 303.231 161.853 303.751 161.52C304.285 161.187 304.698 160.713 304.991 160.1C305.298 159.487 305.451 158.773 305.451 157.96C305.451 157.147 305.298 156.433 304.991 155.82C304.698 155.207 304.285 154.733 303.751 154.4C303.231 154.067 302.618 153.9 301.911 153.9C301.218 153.9 300.605 154.067 300.071 154.4C299.538 154.733 299.118 155.207 298.811 155.82C298.518 156.42 298.371 157.133 298.371 157.96C298.371 158.787 298.525 159.507 298.831 160.12C299.138 160.72 299.558 161.187 300.091 161.52C300.625 161.853 301.231 162.02 301.911 162.02Z" fill="black"/>
<path d="M313.914 163.24C312.98 163.24 312.154 163.02 311.434 162.58C310.727 162.14 310.167 161.527 309.754 160.74C309.354 159.94 309.154 159.007 309.154 157.94C309.154 156.873 309.354 155.947 309.754 155.16C310.154 154.373 310.714 153.767 311.434 153.34C312.167 152.9 313.007 152.68 313.954 152.68C314.927 152.68 315.747 152.9 316.414 153.34C317.094 153.78 317.607 154.353 317.954 155.06C318.314 155.767 318.493 156.54 318.493 157.38C318.493 157.513 318.493 157.653 318.493 157.8C318.493 157.933 318.487 158.093 318.474 158.28H310.214V157.1H317.134C317.107 156.073 316.787 155.28 316.174 154.72C315.574 154.16 314.814 153.88 313.894 153.88C313.294 153.88 312.734 154.02 312.214 154.3C311.707 154.567 311.294 154.967 310.974 155.5C310.667 156.02 310.514 156.68 310.514 157.48V158C310.514 158.907 310.673 159.66 310.993 160.26C311.313 160.86 311.734 161.307 312.254 161.6C312.787 161.893 313.34 162.04 313.914 162.04C314.674 162.04 315.3 161.873 315.794 161.54C316.287 161.193 316.64 160.72 316.854 160.12H318.234C318.06 160.707 317.78 161.24 317.394 161.72C317.02 162.2 316.54 162.573 315.954 162.84C315.367 163.107 314.687 163.24 313.914 163.24Z" fill="black"/>
<path d="M329.113 163.24C328.299 163.24 327.619 163.093 327.073 162.8C326.539 162.507 326.139 162.127 325.873 161.66C325.619 161.193 325.493 160.68 325.493 160.12C325.493 159.427 325.666 158.84 326.013 158.36C326.373 157.88 326.873 157.52 327.513 157.28C328.153 157.04 328.899 156.92 329.753 156.92H332.473C332.473 156.267 332.373 155.713 332.173 155.26C331.973 154.807 331.679 154.467 331.293 154.24C330.906 154 330.419 153.88 329.833 153.88C329.153 153.88 328.566 154.053 328.073 154.4C327.579 154.747 327.273 155.253 327.153 155.92H325.693C325.773 155.213 326.013 154.62 326.413 154.14C326.826 153.66 327.333 153.3 327.933 153.06C328.533 152.807 329.166 152.68 329.833 152.68C330.766 152.68 331.526 152.86 332.113 153.22C332.699 153.567 333.139 154.047 333.433 154.66C333.726 155.273 333.873 155.98 333.873 156.78V163H332.593L332.513 161.16C332.393 161.44 332.226 161.707 332.013 161.96C331.813 162.213 331.573 162.433 331.293 162.62C331.026 162.807 330.713 162.953 330.353 163.06C329.993 163.18 329.579 163.24 329.113 163.24ZM329.273 162.02C329.766 162.02 330.206 161.92 330.593 161.72C330.993 161.507 331.333 161.233 331.613 160.9C331.893 160.567 332.106 160.193 332.253 159.78C332.399 159.353 332.473 158.913 332.473 158.46V158.1H329.853C329.146 158.1 328.579 158.187 328.153 158.36C327.726 158.533 327.419 158.767 327.233 159.06C327.046 159.353 326.953 159.693 326.953 160.08C326.953 160.467 327.039 160.807 327.213 161.1C327.386 161.38 327.646 161.607 327.993 161.78C328.353 161.94 328.779 162.02 329.273 162.02Z" fill="black"/>
<path d="M336.318 163V148.6H337.718V163H336.318Z" fill="black"/>
<path d="M344.176 163C343.603 163 343.109 162.913 342.696 162.74C342.283 162.553 341.963 162.253 341.736 161.84C341.523 161.413 341.416 160.833 341.416 160.1V154.12H339.656V152.92H341.416L341.616 150.58H342.816V152.94H345.836V154.12H342.816V160.1C342.816 160.767 342.949 161.22 343.216 161.46C343.483 161.687 343.956 161.8 344.636 161.8H345.676V163H344.176Z" fill="black"/>
<path d="M351.979 163.24C351.059 163.24 350.225 163.027 349.479 162.6C348.745 162.16 348.165 161.547 347.739 160.76C347.312 159.96 347.099 159.033 347.099 157.98C347.099 156.887 347.312 155.947 347.739 155.16C348.179 154.373 348.772 153.767 349.519 153.34C350.265 152.9 351.099 152.68 352.019 152.68C352.979 152.68 353.826 152.9 354.559 153.34C355.292 153.767 355.872 154.373 356.299 155.16C356.725 155.947 356.939 156.887 356.939 157.98C356.939 159.033 356.719 159.96 356.279 160.76C355.852 161.547 355.265 162.16 354.519 162.6C353.785 163.027 352.939 163.24 351.979 163.24ZM351.999 162.04C352.625 162.04 353.199 161.887 353.719 161.58C354.252 161.273 354.679 160.82 354.999 160.22C355.332 159.607 355.499 158.853 355.499 157.96C355.499 157.053 355.339 156.3 355.019 155.7C354.699 155.1 354.272 154.653 353.739 154.36C353.219 154.053 352.645 153.9 352.019 153.9C351.419 153.9 350.852 154.053 350.319 154.36C349.785 154.667 349.352 155.12 349.019 155.72C348.699 156.307 348.539 157.053 348.539 157.96C348.539 158.853 348.699 159.607 349.019 160.22C349.339 160.82 349.759 161.273 350.279 161.58C350.812 161.887 351.385 162.04 351.999 162.04Z" fill="black"/>
<path d="M364.444 163V152.92H365.724L365.804 154.72C366.124 154.08 366.584 153.58 367.184 153.22C367.797 152.86 368.477 152.68 369.224 152.68C369.997 152.68 370.67 152.833 371.244 153.14C371.817 153.447 372.264 153.913 372.584 154.54C372.904 155.153 373.064 155.94 373.064 156.9V163H371.664V157.06C371.664 155.993 371.43 155.2 370.964 154.68C370.497 154.16 369.83 153.9 368.964 153.9C368.377 153.9 367.844 154.047 367.364 154.34C366.897 154.62 366.524 155.033 366.244 155.58C365.977 156.127 365.844 156.8 365.844 157.6V163H364.444Z" fill="black"/>
<path d="M375.713 163V152.92H377.093V163H375.713ZM376.413 150.54C376.133 150.54 375.893 150.447 375.693 150.26C375.493 150.06 375.393 149.813 375.393 149.52C375.393 149.213 375.486 148.973 375.673 148.8C375.873 148.613 376.113 148.52 376.393 148.52C376.673 148.52 376.913 148.613 377.113 148.8C377.313 148.973 377.413 149.213 377.413 149.52C377.413 149.813 377.313 150.06 377.113 150.26C376.926 150.447 376.693 150.54 376.413 150.54Z" fill="black"/>
<path d="M382.902 163L379.062 152.92H380.522L383.722 161.64L386.922 152.92H388.362L384.502 163H382.902Z" fill="black"/>
<path d="M393.886 163.24C392.953 163.24 392.126 163.02 391.406 162.58C390.699 162.14 390.139 161.527 389.726 160.74C389.326 159.94 389.126 159.007 389.126 157.94C389.126 156.873 389.326 155.947 389.726 155.16C390.126 154.373 390.686 153.767 391.406 153.34C392.139 152.9 392.98 152.68 393.926 152.68C394.9 152.68 395.72 152.9 396.386 153.34C397.066 153.78 397.58 154.353 397.926 155.06C398.286 155.767 398.466 156.54 398.466 157.38C398.466 157.513 398.466 157.653 398.466 157.8C398.466 157.933 398.46 158.093 398.446 158.28H390.186V157.1H397.106C397.08 156.073 396.76 155.28 396.146 154.72C395.546 154.16 394.786 153.88 393.866 153.88C393.266 153.88 392.706 154.02 392.186 154.3C391.679 154.567 391.266 154.967 390.946 155.5C390.64 156.02 390.486 156.68 390.486 157.48V158C390.486 158.907 390.646 159.66 390.966 160.26C391.286 160.86 391.706 161.307 392.226 161.6C392.759 161.893 393.313 162.04 393.886 162.04C394.646 162.04 395.273 161.873 395.766 161.54C396.26 161.193 396.613 160.72 396.826 160.12H398.206C398.033 160.707 397.753 161.24 397.366 161.72C396.993 162.2 396.513 162.573 395.926 162.84C395.34 163.107 394.66 163.24 393.886 163.24Z" fill="black"/>
<path d="M400.558 163V148.6H401.958V163H400.558Z" fill="black"/>
<path d="M405.056 163.1C404.763 163.1 404.516 163 404.316 162.8C404.129 162.6 404.036 162.353 404.036 162.06C404.036 161.767 404.129 161.527 404.316 161.34C404.516 161.14 404.763 161.04 405.056 161.04C405.349 161.04 405.589 161.14 405.776 161.34C405.976 161.527 406.076 161.773 406.076 162.08C406.076 162.36 405.976 162.6 405.776 162.8C405.589 163 405.349 163.1 405.056 163.1Z" fill="black"/>
<path d="M97.5601 263.24C96.2134 263.24 95.0467 262.94 94.0601 262.34C93.0734 261.727 92.3134 260.88 91.7801 259.8C91.2467 258.707 90.9801 257.44 90.9801 256C90.9801 254.56 91.2467 253.3 91.7801 252.22C92.3134 251.127 93.0734 250.28 94.0601 249.68C95.0601 249.067 96.2267 248.76 97.5601 248.76C99.1334 248.76 100.407 249.133 101.38 249.88C102.367 250.613 103 251.653 103.28 253H101.74C101.527 252.093 101.073 251.367 100.38 250.82C99.6867 250.26 98.7467 249.98 97.5601 249.98C96.5334 249.98 95.6334 250.22 94.8601 250.7C94.0867 251.18 93.4867 251.873 93.0601 252.78C92.6334 253.673 92.4201 254.747 92.4201 256C92.4201 257.253 92.6334 258.333 93.0601 259.24C93.4867 260.133 94.0867 260.82 94.8601 261.3C95.6334 261.78 96.5334 262.02 97.5601 262.02C98.7467 262.02 99.6801 261.747 100.36 261.2C101.053 260.653 101.513 259.933 101.74 259.04H103.28C102.987 260.36 102.353 261.393 101.38 262.14C100.42 262.873 99.1467 263.24 97.5601 263.24Z" fill="black"/>
<path d="M109.918 263.24C108.998 263.24 108.165 263.027 107.418 262.6C106.685 262.16 106.105 261.547 105.678 260.76C105.251 259.96 105.038 259.033 105.038 257.98C105.038 256.887 105.251 255.947 105.678 255.16C106.118 254.373 106.711 253.767 107.458 253.34C108.205 252.9 109.038 252.68 109.958 252.68C110.918 252.68 111.765 252.9 112.498 253.34C113.231 253.767 113.811 254.373 114.238 255.16C114.665 255.947 114.878 256.887 114.878 257.98C114.878 259.033 114.658 259.96 114.218 260.76C113.791 261.547 113.205 262.16 112.458 262.6C111.725 263.027 110.878 263.24 109.918 263.24ZM109.938 262.04C110.565 262.04 111.138 261.887 111.658 261.58C112.191 261.273 112.618 260.82 112.938 260.22C113.271 259.607 113.438 258.853 113.438 257.96C113.438 257.053 113.278 256.3 112.958 255.7C112.638 255.1 112.211 254.653 111.678 254.36C111.158 254.053 110.585 253.9 109.958 253.9C109.358 253.9 108.791 254.053 108.258 254.36C107.725 254.667 107.291 255.12 106.958 255.72C106.638 256.307 106.478 257.053 106.478 257.96C106.478 258.853 106.638 259.607 106.958 260.22C107.278 260.82 107.698 261.273 108.218 261.58C108.751 261.887 109.325 262.04 109.938 262.04Z" fill="black"/>
<path d="M117.075 263V252.92H118.355L118.435 254.72C118.755 254.08 119.215 253.58 119.815 253.22C120.428 252.86 121.108 252.68 121.855 252.68C122.628 252.68 123.301 252.833 123.875 253.14C124.448 253.447 124.895 253.913 125.215 254.54C125.535 255.153 125.695 255.94 125.695 256.9V263H124.295V257.06C124.295 255.993 124.061 255.2 123.595 254.68C123.128 254.16 122.461 253.9 121.595 253.9C121.008 253.9 120.475 254.047 119.995 254.34C119.528 254.62 119.155 255.033 118.875 255.58C118.608 256.127 118.475 256.8 118.475 257.6V263H117.075Z" fill="black"/>
<path d="M128.744 263V254.1H127.184V252.92H128.744V251.18C128.744 250.593 128.838 250.113 129.024 249.74C129.224 249.353 129.518 249.067 129.904 248.88C130.304 248.693 130.798 248.6 131.384 248.6H132.364V249.8H131.584C131.078 249.8 130.711 249.907 130.484 250.12C130.258 250.333 130.144 250.707 130.144 251.24V252.92H136.124V263H134.724V254.1H130.144V263H128.744ZM135.444 250.82C135.178 250.82 134.938 250.72 134.724 250.52C134.524 250.32 134.424 250.073 134.424 249.78C134.424 249.487 134.524 249.247 134.724 249.06C134.938 248.873 135.178 248.78 135.444 248.78C135.724 248.78 135.958 248.873 136.144 249.06C136.344 249.247 136.444 249.487 136.444 249.78C136.444 250.073 136.344 250.32 136.144 250.52C135.958 250.72 135.724 250.82 135.444 250.82Z" fill="black"/>
<path d="M142.18 263.24C141.367 263.24 140.687 263.093 140.14 262.8C139.607 262.507 139.207 262.127 138.94 261.66C138.687 261.193 138.56 260.68 138.56 260.12C138.56 259.427 138.733 258.84 139.08 258.36C139.44 257.88 139.94 257.52 140.58 257.28C141.22 257.04 141.967 256.92 142.82 256.92H145.54C145.54 256.267 145.44 255.713 145.24 255.26C145.04 254.807 144.747 254.467 144.36 254.24C143.973 254 143.487 253.88 142.9 253.88C142.22 253.88 141.633 254.053 141.14 254.4C140.647 254.747 140.34 255.253 140.22 255.92H138.76C138.84 255.213 139.08 254.62 139.48 254.14C139.893 253.66 140.4 253.3 141 253.06C141.6 252.807 142.233 252.68 142.9 252.68C143.833 252.68 144.593 252.86 145.18 253.22C145.767 253.567 146.207 254.047 146.5 254.66C146.793 255.273 146.94 255.98 146.94 256.78V263H145.66L145.58 261.16C145.46 261.44 145.293 261.707 145.08 261.96C144.88 262.213 144.64 262.433 144.36 262.62C144.093 262.807 143.78 262.953 143.42 263.06C143.06 263.18 142.647 263.24 142.18 263.24ZM142.34 262.02C142.833 262.02 143.273 261.92 143.66 261.72C144.06 261.507 144.4 261.233 144.68 260.9C144.96 260.567 145.173 260.193 145.32 259.78C145.467 259.353 145.54 258.913 145.54 258.46V258.1H142.92C142.213 258.1 141.647 258.187 141.22 258.36C140.793 258.533 140.487 258.767 140.3 259.06C140.113 259.353 140.02 259.693 140.02 260.08C140.02 260.467 140.107 260.807 140.28 261.1C140.453 261.38 140.713 261.607 141.06 261.78C141.42 261.94 141.847 262.02 142.34 262.02Z" fill="black"/>
<path d="M149.385 263V252.92H150.665L150.745 254.72C151.065 254.08 151.525 253.58 152.125 253.22C152.738 252.86 153.418 252.68 154.165 252.68C154.938 252.68 155.612 252.833 156.185 253.14C156.758 253.447 157.205 253.913 157.525 254.54C157.845 255.153 158.005 255.94 158.005 256.9V263H156.605V257.06C156.605 255.993 156.372 255.2 155.905 254.68C155.438 254.16 154.772 253.9 153.905 253.9C153.318 253.9 152.785 254.047 152.305 254.34C151.838 254.62 151.465 255.033 151.185 255.58C150.918 256.127 150.785 256.8 150.785 257.6V263H149.385Z" fill="black"/>
<path d="M159.774 263V261.84L165.514 254.1H159.874V252.92H167.094V254.08L161.354 261.84H167.194V263H159.774Z" fill="black"/>
<path d="M172.498 263.24C171.685 263.24 171.005 263.093 170.458 262.8C169.925 262.507 169.525 262.127 169.258 261.66C169.005 261.193 168.878 260.68 168.878 260.12C168.878 259.427 169.051 258.84 169.398 258.36C169.758 257.88 170.258 257.52 170.898 257.28C171.538 257.04 172.285 256.92 173.138 256.92H175.858C175.858 256.267 175.758 255.713 175.558 255.26C175.358 254.807 175.065 254.467 174.678 254.24C174.291 254 173.805 253.88 173.218 253.88C172.538 253.88 171.951 254.053 171.458 254.4C170.965 254.747 170.658 255.253 170.538 255.92H169.078C169.158 255.213 169.398 254.62 169.798 254.14C170.211 253.66 170.718 253.3 171.318 253.06C171.918 252.807 172.551 252.68 173.218 252.68C174.151 252.68 174.911 252.86 175.498 253.22C176.085 253.567 176.525 254.047 176.818 254.66C177.111 255.273 177.258 255.98 177.258 256.78V263H175.978L175.898 261.16C175.778 261.44 175.611 261.707 175.398 261.96C175.198 262.213 174.958 262.433 174.678 262.62C174.411 262.807 174.098 262.953 173.738 263.06C173.378 263.18 172.965 263.24 172.498 263.24ZM172.658 262.02C173.151 262.02 173.591 261.92 173.978 261.72C174.378 261.507 174.718 261.233 174.998 260.9C175.278 260.567 175.491 260.193 175.638 259.78C175.785 259.353 175.858 258.913 175.858 258.46V258.1H173.238C172.531 258.1 171.965 258.187 171.538 258.36C171.111 258.533 170.805 258.767 170.618 259.06C170.431 259.353 170.338 259.693 170.338 260.08C170.338 260.467 170.425 260.807 170.598 261.1C170.771 261.38 171.031 261.607 171.378 261.78C171.738 261.94 172.165 262.02 172.658 262.02Z" fill="black"/>
<path d="M189.411 263.24C188.437 263.24 187.584 263.013 186.851 262.56C186.131 262.093 185.571 261.46 185.171 260.66C184.771 259.86 184.571 258.953 184.571 257.94C184.571 256.927 184.771 256.027 185.171 255.24C185.571 254.44 186.137 253.813 186.871 253.36C187.604 252.907 188.457 252.68 189.431 252.68C190.284 252.68 191.031 252.867 191.671 253.24C192.324 253.6 192.824 254.113 193.171 254.78V248.6H194.571V263H193.291L193.171 261.18C192.957 261.527 192.677 261.86 192.331 262.18C191.997 262.5 191.584 262.76 191.091 262.96C190.611 263.147 190.051 263.24 189.411 263.24ZM189.531 262.02C190.237 262.02 190.851 261.853 191.371 261.52C191.904 261.187 192.317 260.713 192.611 260.1C192.917 259.487 193.071 258.773 193.071 257.96C193.071 257.147 192.917 256.433 192.611 255.82C192.317 255.207 191.904 254.733 191.371 254.4C190.851 254.067 190.237 253.9 189.531 253.9C188.837 253.9 188.224 254.067 187.691 254.4C187.157 254.733 186.737 255.207 186.431 255.82C186.137 256.42 185.991 257.133 185.991 257.96C185.991 258.787 186.144 259.507 186.451 260.12C186.757 260.72 187.177 261.187 187.711 261.52C188.244 261.853 188.851 262.02 189.531 262.02Z" fill="black"/>
<path d="M201.533 263.24C200.6 263.24 199.773 263.02 199.053 262.58C198.346 262.14 197.786 261.527 197.373 260.74C196.973 259.94 196.773 259.007 196.773 257.94C196.773 256.873 196.973 255.947 197.373 255.16C197.773 254.373 198.333 253.767 199.053 253.34C199.786 252.9 200.626 252.68 201.573 252.68C202.546 252.68 203.366 252.9 204.033 253.34C204.713 253.78 205.226 254.353 205.573 255.06C205.933 255.767 206.113 256.54 206.113 257.38C206.113 257.513 206.113 257.653 206.113 257.8C206.113 257.933 206.106 258.093 206.093 258.28H197.833V257.1H204.753C204.726 256.073 204.406 255.28 203.793 254.72C203.193 254.16 202.433 253.88 201.513 253.88C200.913 253.88 200.353 254.02 199.833 254.3C199.326 254.567 198.913 254.967 198.593 255.5C198.286 256.02 198.133 256.68 198.133 257.48V258C198.133 258.907 198.293 259.66 198.613 260.26C198.933 260.86 199.353 261.307 199.873 261.6C200.406 261.893 200.96 262.04 201.533 262.04C202.293 262.04 202.92 261.873 203.413 261.54C203.906 261.193 204.26 260.72 204.473 260.12H205.853C205.68 260.707 205.4 261.24 205.013 261.72C204.64 262.2 204.16 262.573 203.573 262.84C202.986 263.107 202.306 263.24 201.533 263.24Z" fill="black"/>
<path d="M213.512 267.4V252.92H214.792L214.912 254.74C215.126 254.38 215.406 254.047 215.752 253.74C216.099 253.42 216.512 253.167 216.992 252.98C217.486 252.78 218.046 252.68 218.672 252.68C219.646 252.68 220.492 252.913 221.212 253.38C221.946 253.847 222.512 254.48 222.912 255.28C223.312 256.067 223.512 256.967 223.512 257.98C223.512 258.993 223.306 259.9 222.892 260.7C222.492 261.487 221.932 262.107 221.212 262.56C220.492 263.013 219.639 263.24 218.652 263.24C217.799 263.24 217.046 263.06 216.392 262.7C215.752 262.327 215.259 261.807 214.912 261.14V267.4H213.512ZM218.552 262.02C219.246 262.02 219.852 261.853 220.372 261.52C220.906 261.187 221.326 260.72 221.632 260.12C221.939 259.507 222.092 258.787 222.092 257.96C222.092 257.147 221.939 256.433 221.632 255.82C221.326 255.207 220.906 254.733 220.372 254.4C219.852 254.067 219.246 253.9 218.552 253.9C217.859 253.9 217.239 254.067 216.692 254.4C216.159 254.733 215.739 255.207 215.432 255.82C215.139 256.42 214.992 257.133 214.992 257.96C214.992 258.773 215.139 259.487 215.432 260.1C215.739 260.713 216.159 261.187 216.692 261.52C217.239 261.853 217.859 262.02 218.552 262.02Z" fill="black"/>
<path d="M225.715 263V252.92H226.995L227.095 254.86C227.308 254.393 227.595 254 227.955 253.68C228.315 253.36 228.748 253.113 229.255 252.94C229.761 252.767 230.335 252.68 230.975 252.68V254.14H230.435C230.008 254.14 229.595 254.2 229.195 254.32C228.795 254.427 228.441 254.613 228.135 254.88C227.828 255.147 227.581 255.507 227.395 255.96C227.208 256.413 227.115 256.98 227.115 257.66V263H225.715Z" fill="black"/>
<path d="M232.941 263V252.92H234.321V263H232.941ZM233.641 250.54C233.361 250.54 233.121 250.447 232.921 250.26C232.721 250.06 232.621 249.813 232.621 249.52C232.621 249.213 232.715 248.973 232.901 248.8C233.101 248.613 233.341 248.52 233.621 248.52C233.901 248.52 234.141 248.613 234.341 248.8C234.541 248.973 234.641 249.213 234.641 249.52C234.641 249.813 234.541 250.06 234.341 250.26C234.155 250.447 233.921 250.54 233.641 250.54Z" fill="black"/>
<path d="M237.17 263V252.92H238.45L238.53 254.72C238.85 254.08 239.31 253.58 239.91 253.22C240.523 252.86 241.203 252.68 241.95 252.68C242.723 252.68 243.397 252.833 243.97 253.14C244.543 253.447 244.99 253.913 245.31 254.54C245.63 255.153 245.79 255.94 245.79 256.9V263H244.39V257.06C244.39 255.993 244.157 255.2 243.69 254.68C243.223 254.16 242.557 253.9 241.69 253.9C241.103 253.9 240.57 254.047 240.09 254.34C239.623 254.62 239.25 255.033 238.97 255.58C238.703 256.127 238.57 256.8 238.57 257.6V263H237.17Z" fill="black"/>
<path d="M252.68 263.24C251.746 263.24 250.913 263.02 250.18 262.58C249.446 262.14 248.866 261.527 248.44 260.74C248.013 259.94 247.8 259.02 247.8 257.98C247.8 256.9 248.013 255.973 248.44 255.2C248.866 254.413 249.446 253.8 250.18 253.36C250.926 252.907 251.76 252.68 252.68 252.68C253.853 252.68 254.826 252.987 255.6 253.6C256.386 254.2 256.886 255 257.1 256H255.7C255.553 255.333 255.2 254.82 254.64 254.46C254.093 254.087 253.433 253.9 252.66 253.9C252.06 253.9 251.5 254.053 250.98 254.36C250.46 254.653 250.04 255.1 249.72 255.7C249.4 256.3 249.24 257.06 249.24 257.98C249.24 258.66 249.333 259.253 249.52 259.76C249.706 260.267 249.96 260.693 250.28 261.04C250.6 261.373 250.966 261.627 251.38 261.8C251.793 261.973 252.22 262.06 252.66 262.06C253.166 262.06 253.626 261.98 254.04 261.82C254.466 261.647 254.826 261.4 255.12 261.08C255.413 260.76 255.606 260.373 255.7 259.92H257.1C256.9 260.893 256.406 261.693 255.62 262.32C254.833 262.933 253.853 263.24 252.68 263.24Z" fill="black"/>
<path d="M259.509 263V252.92H260.889V263H259.509ZM260.209 250.54C259.929 250.54 259.689 250.447 259.489 250.26C259.289 250.06 259.189 249.813 259.189 249.52C259.189 249.213 259.282 248.973 259.469 248.8C259.669 248.613 259.909 248.52 260.189 248.52C260.469 248.52 260.709 248.613 260.909 248.8C261.109 248.973 261.209 249.213 261.209 249.52C261.209 249.813 261.109 250.06 260.909 250.26C260.722 250.447 260.489 250.54 260.209 250.54Z" fill="black"/>
<path d="M263.738 267.4V252.92H265.018L265.138 254.74C265.351 254.38 265.631 254.047 265.978 253.74C266.325 253.42 266.738 253.167 267.218 252.98C267.711 252.78 268.271 252.68 268.898 252.68C269.871 252.68 270.718 252.913 271.438 253.38C272.171 253.847 272.738 254.48 273.138 255.28C273.538 256.067 273.738 256.967 273.738 257.98C273.738 258.993 273.531 259.9 273.118 260.7C272.718 261.487 272.158 262.107 271.438 262.56C270.718 263.013 269.865 263.24 268.878 263.24C268.025 263.24 267.271 263.06 266.618 262.7C265.978 262.327 265.485 261.807 265.138 261.14V267.4H263.738ZM268.778 262.02C269.471 262.02 270.078 261.853 270.598 261.52C271.131 261.187 271.551 260.72 271.858 260.12C272.165 259.507 272.318 258.787 272.318 257.96C272.318 257.147 272.165 256.433 271.858 255.82C271.551 255.207 271.131 254.733 270.598 254.4C270.078 254.067 269.471 253.9 268.778 253.9C268.085 253.9 267.465 254.067 266.918 254.4C266.385 254.733 265.965 255.207 265.658 255.82C265.365 256.42 265.218 257.133 265.218 257.96C265.218 258.773 265.365 259.487 265.658 260.1C265.965 260.713 266.385 261.187 266.918 261.52C267.465 261.853 268.085 262.02 268.778 262.02Z" fill="black"/>
<path d="M276.14 263V252.92H277.52V263H276.14ZM276.84 250.54C276.56 250.54 276.32 250.447 276.12 250.26C275.92 250.06 275.82 249.813 275.82 249.52C275.82 249.213 275.914 248.973 276.1 248.8C276.3 248.613 276.54 248.52 276.82 248.52C277.1 248.52 277.34 248.613 277.54 248.8C277.74 248.973 277.84 249.213 277.84 249.52C277.84 249.813 277.74 250.06 277.54 250.26C277.354 250.447 277.12 250.54 276.84 250.54Z" fill="black"/>
<path d="M284.809 263.24C283.889 263.24 283.056 263.027 282.309 262.6C281.576 262.16 280.996 261.547 280.569 260.76C280.143 259.96 279.929 259.033 279.929 257.98C279.929 256.887 280.143 255.947 280.569 255.16C281.009 254.373 281.603 253.767 282.349 253.34C283.096 252.9 283.929 252.68 284.849 252.68C285.809 252.68 286.656 252.9 287.389 253.34C288.123 253.767 288.703 254.373 289.129 255.16C289.556 255.947 289.769 256.887 289.769 257.98C289.769 259.033 289.549 259.96 289.109 260.76C288.683 261.547 288.096 262.16 287.349 262.6C286.616 263.027 285.769 263.24 284.809 263.24ZM284.829 262.04C285.456 262.04 286.029 261.887 286.549 261.58C287.083 261.273 287.509 260.82 287.829 260.22C288.163 259.607 288.329 258.853 288.329 257.96C288.329 257.053 288.169 256.3 287.849 255.7C287.529 255.1 287.103 254.653 286.569 254.36C286.049 254.053 285.476 253.9 284.849 253.9C284.249 253.9 283.683 254.053 283.149 254.36C282.616 254.667 282.183 255.12 281.849 255.72C281.529 256.307 281.369 257.053 281.369 257.96C281.369 258.853 281.529 259.607 281.849 260.22C282.169 260.82 282.589 261.273 283.109 261.58C283.643 261.887 284.216 262.04 284.829 262.04Z" fill="black"/>
<path d="M300.494 263.24C299.681 263.24 299.001 263.093 298.454 262.8C297.921 262.507 297.521 262.127 297.254 261.66C297.001 261.193 296.874 260.68 296.874 260.12C296.874 259.427 297.047 258.84 297.394 258.36C297.754 257.88 298.254 257.52 298.894 257.28C299.534 257.04 300.281 256.92 301.134 256.92H303.854C303.854 256.267 303.754 255.713 303.554 255.26C303.354 254.807 303.061 254.467 302.674 254.24C302.287 254 301.801 253.88 301.214 253.88C300.534 253.88 299.947 254.053 299.454 254.4C298.961 254.747 298.654 255.253 298.534 255.92H297.074C297.154 255.213 297.394 254.62 297.794 254.14C298.207 253.66 298.714 253.3 299.314 253.06C299.914 252.807 300.547 252.68 301.214 252.68C302.147 252.68 302.907 252.86 303.494 253.22C304.081 253.567 304.521 254.047 304.814 254.66C305.107 255.273 305.254 255.98 305.254 256.78V263H303.974L303.894 261.16C303.774 261.44 303.607 261.707 303.394 261.96C303.194 262.213 302.954 262.433 302.674 262.62C302.407 262.807 302.094 262.953 301.734 263.06C301.374 263.18 300.961 263.24 300.494 263.24ZM300.654 262.02C301.147 262.02 301.587 261.92 301.974 261.72C302.374 261.507 302.714 261.233 302.994 260.9C303.274 260.567 303.487 260.193 303.634 259.78C303.781 259.353 303.854 258.913 303.854 258.46V258.1H301.234C300.527 258.1 299.961 258.187 299.534 258.36C299.107 258.533 298.801 258.767 298.614 259.06C298.427 259.353 298.334 259.693 298.334 260.08C298.334 260.467 298.421 260.807 298.594 261.1C298.767 261.38 299.027 261.607 299.374 261.78C299.734 261.94 300.161 262.02 300.654 262.02Z" fill="black"/>
<path d="M313.607 263V254.1H312.047V252.92H313.607V251.18C313.607 250.593 313.7 250.113 313.887 249.74C314.087 249.353 314.38 249.067 314.767 248.88C315.167 248.693 315.66 248.6 316.247 248.6H317.227V249.8H316.447C315.94 249.8 315.573 249.907 315.347 250.12C315.12 250.333 315.007 250.707 315.007 251.24V252.92H320.987V263H319.587V254.1H315.007V263H313.607ZM320.307 250.82C320.04 250.82 319.8 250.72 319.587 250.52C319.387 250.32 319.287 250.073 319.287 249.78C319.287 249.487 319.387 249.247 319.587 249.06C319.8 248.873 320.04 248.78 320.307 248.78C320.587 248.78 320.82 248.873 321.007 249.06C321.207 249.247 321.307 249.487 321.307 249.78C321.307 250.073 321.207 250.32 321.007 250.52C320.82 250.72 320.587 250.82 320.307 250.82Z" fill="black"/>
<path d="M323.822 263V252.92H325.102L325.182 254.72C325.502 254.08 325.962 253.58 326.562 253.22C327.176 252.86 327.856 252.68 328.602 252.68C329.376 252.68 330.049 252.833 330.622 253.14C331.196 253.447 331.642 253.913 331.962 254.54C332.282 255.153 332.442 255.94 332.442 256.9V263H331.042V257.06C331.042 255.993 330.809 255.2 330.342 254.68C329.876 254.16 329.209 253.9 328.342 253.9C327.756 253.9 327.222 254.047 326.742 254.34C326.276 254.62 325.902 255.033 325.622 255.58C325.356 256.127 325.222 256.8 325.222 257.6V263H323.822Z" fill="black"/>
<path d="M335.352 263.1C335.059 263.1 334.812 263 334.612 262.8C334.425 262.6 334.332 262.353 334.332 262.06C334.332 261.767 334.425 261.527 334.612 261.34C334.812 261.14 335.059 261.04 335.352 261.04C335.645 261.04 335.885 261.14 336.072 261.34C336.272 261.527 336.372 261.773 336.372 262.08C336.372 262.36 336.272 262.6 336.072 262.8C335.885 263 335.645 263.1 335.352 263.1Z" fill="black"/>
<path d="M52.1659 19.2517V22.6077C52.1659 29.1429 51.054 34.8524 48.8518 39.5863C47.0953 43.3712 44.646 46.5342 41.5682 49.0003C36.3956 53.1498 31.3197 53.8735 30.992 53.9164C30.6644 53.8735 25.5885 53.1498 20.4158 49.0003C17.3434 46.5342 14.8941 43.3658 13.1323 39.5863C10.9354 34.8524 9.81818 29.1429 9.81818 22.6077V14.7055L30.9974 5.35572L44.4096 11.2797L48.2609 7.62346L30.9974 0L5.00008 11.4834V22.1038C5.00008 29.5932 6.29995 36.182 8.85671 41.6932C10.9569 46.2126 13.895 50.0082 17.5905 52.9729C23.9233 58.0498 30.3206 58.9076 30.5945 58.9451L30.9974 58.9934L31.4002 58.9451C31.6688 58.9076 38.0715 58.0498 44.3989 52.9729C48.0944 50.0082 51.0325 46.2126 53.1327 41.6932C55.6948 36.182 56.9893 29.5932 56.9893 22.1038V11.7622L52.1605 19.257L52.1659 19.2517Z" fill="#38526C"/>
<path d="M55.3994 8.05235L34.0429 41.1892C32.7377 43.2157 29.7996 43.3176 28.3654 41.3769L14.7544 23.0795C14.1529 22.2699 15.0552 21.2085 15.9523 21.6641L30.5193 29.0892L53.9438 6.84611C54.7602 6.06875 56.0117 7.10344 55.4048 8.05235H55.3994Z" fill="#00A3E1"/>
<path d="M57.0001 11.7569V22.0984C57.0001 29.5878 55.7002 36.1766 53.1435 41.6878C51.0433 46.2072 48.1051 50.0028 44.4096 52.9675C38.0768 58.0445 31.6796 58.9022 31.411 58.9398L31.0081 58.988V53.9164C31.3304 53.8735 36.4117 53.1498 41.5843 49.0003C44.6567 46.5342 47.1114 43.3658 48.8679 39.5863C51.0647 34.8524 52.182 29.1429 52.182 22.6077V19.2517L57.0108 11.7569H57.0001Z" fill="#1F3649"/>
<path d="M48.2609 7.62346L44.4096 11.2797L30.9974 5.35572V0L48.2609 7.62346Z" fill="#1F3649"/>
<path d="M30.9974 68.113C37.3368 68.113 42.4759 67.2298 42.4759 66.1402C42.4759 65.0506 37.3368 64.1673 30.9974 64.1673C24.6579 64.1673 19.5188 65.0506 19.5188 66.1402C19.5188 67.2298 24.6579 68.113 30.9974 68.113Z" fill="#DBE2E8"/>
<path d="M62 131.316C61.9704 148.708 48.1307 162.633 30.9111 162.603C13.8516 162.567 -0.0296006 148.493 4.74044e-05 131.244C0.0296955 113.894 13.9287 99.946 31.1305 99.9999C48.3086 100.054 62.0297 113.978 62 131.316ZM27.7328 135.958C25.5507 133.748 23.5465 131.7 21.5245 129.669C19.5855 127.723 17.1307 127.561 15.5 129.244C13.7864 131.005 13.9168 133.323 15.8677 135.311C18.7495 138.246 21.6431 141.168 24.5368 144.085C26.5766 146.139 28.8061 146.127 30.8874 144.055C32.8857 142.061 34.8662 140.042 36.8526 138.036C39.9893 134.868 43.1439 131.706 46.2629 128.525C48.1485 126.603 48.2433 124.267 46.5653 122.56C44.8753 120.842 42.5806 120.943 40.6772 122.818C40.3925 123.093 40.1139 123.381 39.8411 123.662C35.8445 127.723 31.848 131.777 27.7388 135.958H27.7328Z" fill="#65CE7C"/>
<path d="M31.0001 174C37.9984 174 43.6717 173.013 43.6717 171.796C43.6717 170.579 37.9984 169.592 31.0001 169.592C24.0018 169.592 18.3285 170.579 18.3285 171.796C18.3285 173.013 24.0018 174 31.0001 174Z" fill="#DBE2E8"/>
<path fill-rule="evenodd" clip-rule="evenodd" d="M2.86952 257.809V228.313C2.86952 227.157 3.79639 226 5.18407 226H35.8544C37.0222 226 37.9438 227.157 37.9438 228.313V241.68H40.0175V235.332H53.2711L57.9159 247.278V250.563C58.3977 250.563 58.8585 251.012 58.8585 251.72V253.135H59.0785V257.804C59.7802 258.046 60.0053 258.511 60.0053 259.224C60.0053 259.937 59.3036 260.624 58.6176 260.624H52.7894V260.381C52.7894 258.738 51.8835 257.339 50.9566 256.161C49.7888 255.004 48.4012 254.297 46.7726 254.297C45.144 254.297 43.5364 255.004 42.3477 256.161C41.4209 257.339 40.7401 258.733 40.7401 260.381V260.624H20.0453V260.381C20.0453 258.738 19.3594 257.339 18.1969 256.161C17.2543 255.004 15.6414 254.297 14.0129 254.297C12.3843 254.297 10.9966 255.004 9.82887 256.161C8.66113 257.339 8.22126 258.733 8.22126 260.381V260.624H2.62864C1.70178 260.624 1.00008 259.916 1.00008 259.224C1.00008 258.532 1.70178 257.804 2.62864 257.804H2.86952V257.809ZM40.9758 260.381C40.9758 263.423 43.5312 266 46.7674 266C49.7836 266 52.339 263.423 52.339 260.381C52.339 257.339 49.7836 254.783 46.7674 254.783C43.5312 254.783 40.9758 257.339 40.9758 260.381ZM12.3843 260.381C12.3843 261.316 13.086 262.023 14.0129 262.023C14.9397 262.023 15.6414 261.316 15.6414 260.381C15.6414 259.446 14.9397 258.738 14.0129 258.738C13.086 258.738 12.3843 259.446 12.3843 260.381ZM8.44119 260.381C8.44119 263.423 10.9966 266 14.0129 266C17.249 266 19.8254 263.423 19.8254 260.381C19.8254 257.339 17.2543 254.783 14.0129 254.783C10.9966 254.783 8.44119 257.339 8.44119 260.381ZM10.9966 260.381C10.9966 262.245 12.3843 263.423 14.0129 263.423C15.8823 263.423 17.249 262.245 17.249 260.381C17.249 258.738 15.8823 257.339 14.0129 257.339C12.3843 257.339 10.9966 258.738 10.9966 260.381ZM45.1231 260.381C45.1231 261.316 45.8457 262.023 46.7674 262.023C47.689 262.023 48.1551 261.316 48.1551 260.381C48.1551 259.446 47.6733 258.738 46.7674 258.738C45.8615 258.738 45.1231 259.446 45.1231 260.381ZM43.5312 260.381C43.5312 262.245 44.8979 263.423 46.7674 263.423C48.3959 263.423 49.7836 262.245 49.7836 260.381C49.7836 258.738 48.3959 257.339 46.7674 257.339C44.8979 257.339 43.5312 258.738 43.5312 260.381ZM42.1226 237.223H52.339L55.8213 247.283H46.7726V245.176H42.1278V237.228L42.1226 237.223ZM6.11094 232.533C6.11094 233.462 6.81263 234.418 7.7395 234.418H30.0419C30.9845 234.418 31.9113 233.468 31.9113 232.533C31.6704 231.598 30.9845 230.89 30.0419 230.89H7.73426C6.80739 230.89 6.1057 231.598 6.1057 232.533H6.11094ZM6.11094 240.259C6.11094 241.194 6.81263 241.902 7.7395 241.902H30.0419C30.9845 241.902 31.9113 241.194 31.9113 240.259C31.6704 239.33 30.9845 238.395 30.0419 238.395H7.73426C6.80739 238.395 6.1057 239.33 6.1057 240.259H6.11094Z" fill="#4D4D4D"/>
</svg>
