<svg width="420" height="47" viewBox="0 0 420 47" fill="none" xmlns="http://www.w3.org/2000/svg">
<path d="M0.000195429 36V0.999998H6.0002V31.3H21.6002V36H0.000195429ZM37.3686 36.6C34.9686 36.6 32.8019 36.05 30.8686 34.95C28.9686 33.8167 27.4686 32.2667 26.3686 30.3C25.3019 28.3 24.7686 26.0167 24.7686 23.45C24.7686 20.8167 25.3186 18.5167 26.4186 16.55C27.5186 14.55 29.0186 13 30.9186 11.9C32.8519 10.7667 35.0186 10.2 37.4186 10.2C39.8186 10.2 41.9686 10.7667 43.8686 11.9C45.8019 13 47.3019 14.5333 48.3686 16.5C49.4686 18.4667 50.0186 20.7667 50.0186 23.4C50.0186 26.0333 49.4686 28.3333 48.3686 30.3C47.2686 32.2667 45.7519 33.8167 43.8186 34.95C41.9186 36.05 39.7686 36.6 37.3686 36.6ZM37.3686 31.45C38.5686 31.45 39.6519 31.15 40.6186 30.55C41.6186 29.95 42.4186 29.05 43.0186 27.85C43.6186 26.65 43.9186 25.1667 43.9186 23.4C43.9186 21.6333 43.6186 20.1667 43.0186 19C42.4519 17.8 41.6686 16.9 40.6686 16.3C39.7019 15.7 38.6186 15.4 37.4186 15.4C36.2519 15.4 35.1686 15.7 34.1686 16.3C33.1686 16.9 32.3686 17.8 31.7686 19C31.1686 20.1667 30.8686 21.6333 30.8686 23.4C30.8686 25.1667 31.1686 26.65 31.7686 27.85C32.3686 29.05 33.1519 29.95 34.1186 30.55C35.1186 31.15 36.2019 31.45 37.3686 31.45ZM86.749 47V32.35C85.949 33.55 84.849 34.5667 83.449 35.4C82.0824 36.2 80.399 36.6 78.399 36.6C76.0324 36.6 73.9324 36.0333 72.099 34.9C70.2657 33.7333 68.8324 32.1667 67.799 30.2C66.7657 28.2 66.249 25.9333 66.249 23.4C66.249 20.8667 66.7657 18.6167 67.799 16.65C68.8324 14.65 70.2657 13.0833 72.099 11.95C73.9657 10.7833 76.0657 10.2 78.399 10.2C79.699 10.2 80.8657 10.3833 81.899 10.75C82.9657 11.0833 83.899 11.5667 84.699 12.2C85.499 12.8 86.1824 13.5167 86.749 14.35L87.349 10.8H92.749V47H86.749ZM79.549 31.4C80.9824 31.4 82.249 31.0667 83.349 30.4C84.449 29.7 85.299 28.75 85.899 27.55C86.499 26.35 86.799 24.9667 86.799 23.4C86.799 21.8 86.499 20.4167 85.899 19.25C85.299 18.05 84.449 17.1167 83.349 16.45C82.249 15.7833 80.9824 15.45 79.549 15.45C78.1824 15.45 76.949 15.7833 75.849 16.45C74.749 17.1167 73.8824 18.05 73.249 19.25C72.649 20.45 72.349 21.8333 72.349 23.4C72.349 24.9667 72.649 26.35 73.249 27.55C73.8824 28.75 74.749 29.7 75.849 30.4C76.949 31.0667 78.1824 31.4 79.549 31.4ZM108.273 36.6C106.24 36.6 104.49 36.2 103.023 35.4C101.59 34.5667 100.49 33.3333 99.7232 31.7C98.9566 30.0333 98.5732 27.9833 98.5732 25.55V10.8H104.573V24.95C104.573 27.1167 105.023 28.7667 105.923 29.9C106.857 31 108.257 31.55 110.123 31.55C111.323 31.55 112.39 31.2667 113.323 30.7C114.29 30.1333 115.04 29.3167 115.573 28.25C116.14 27.15 116.423 25.8167 116.423 24.25V10.8H122.423V36H117.123L116.673 31.8C115.907 33.2667 114.79 34.4333 113.323 35.3C111.89 36.1667 110.207 36.6 108.273 36.6ZM140.399 36.6C137.899 36.6 135.699 36.0667 133.799 35C131.899 33.9 130.416 32.3667 129.349 30.4C128.282 28.4333 127.749 26.1667 127.749 23.6C127.749 20.9333 128.266 18.6 129.299 16.6C130.366 14.6 131.849 13.0333 133.749 11.9C135.682 10.7667 137.916 10.2 140.449 10.2C142.916 10.2 145.066 10.75 146.899 11.85C148.732 12.95 150.149 14.4333 151.149 16.3C152.149 18.1333 152.649 20.2 152.649 22.5C152.649 22.8333 152.649 23.2 152.649 23.6C152.649 24 152.616 24.4167 152.549 24.85H132.049V21H146.599C146.532 19.1667 145.916 17.7333 144.749 16.7C143.582 15.6333 142.132 15.1 140.399 15.1C139.166 15.1 138.032 15.3833 136.999 15.95C135.966 16.5167 135.149 17.3667 134.549 18.5C133.949 19.6 133.649 21 133.649 22.7V24.15C133.649 25.7167 133.932 27.0667 134.499 28.2C135.099 29.3333 135.899 30.2 136.899 30.8C137.932 31.3667 139.082 31.65 140.349 31.65C141.749 31.65 142.899 31.35 143.799 30.75C144.732 30.15 145.416 29.35 145.849 28.35H151.949C151.482 29.9167 150.716 31.3333 149.649 32.6C148.582 33.8333 147.266 34.8167 145.699 35.55C144.132 36.25 142.366 36.6 140.399 36.6ZM181.146 36.6C178.746 36.6 176.579 36.05 174.646 34.95C172.746 33.8167 171.246 32.2667 170.146 30.3C169.079 28.3 168.546 26.0167 168.546 23.45C168.546 20.8167 169.096 18.5167 170.196 16.55C171.296 14.55 172.796 13 174.696 11.9C176.629 10.7667 178.796 10.2 181.196 10.2C183.596 10.2 185.746 10.7667 187.646 11.9C189.579 13 191.079 14.5333 192.146 16.5C193.246 18.4667 193.796 20.7667 193.796 23.4C193.796 26.0333 193.246 28.3333 192.146 30.3C191.046 32.2667 189.529 33.8167 187.596 34.95C185.696 36.05 183.546 36.6 181.146 36.6ZM181.146 31.45C182.346 31.45 183.429 31.15 184.396 30.55C185.396 29.95 186.196 29.05 186.796 27.85C187.396 26.65 187.696 25.1667 187.696 23.4C187.696 21.6333 187.396 20.1667 186.796 19C186.229 17.8 185.446 16.9 184.446 16.3C183.479 15.7 182.396 15.4 181.196 15.4C180.029 15.4 178.946 15.7 177.946 16.3C176.946 16.9 176.146 17.8 175.546 19C174.946 20.1667 174.646 21.6333 174.646 23.4C174.646 25.1667 174.946 26.65 175.546 27.85C176.146 29.05 176.929 29.95 177.896 30.55C178.896 31.15 179.979 31.45 181.146 31.45ZM200.419 36V8.05C200.419 6.11666 200.736 4.56667 201.369 3.4C202.036 2.2 202.986 1.33333 204.219 0.799997C205.453 0.266665 206.919 -1.43051e-06 208.619 -1.43051e-06H211.619V5.1H209.519C208.419 5.1 207.619 5.33333 207.119 5.8C206.653 6.23333 206.419 7 206.419 8.1V36H200.419ZM196.819 15.85V10.8H212.119V15.85H196.819ZM216.785 36V10.8H222.135L222.685 15.5C223.285 14.4 224.035 13.4667 224.935 12.7C225.835 11.9 226.885 11.2833 228.085 10.85C229.318 10.4167 230.668 10.2 232.135 10.2V16.55H230.035C229.035 16.55 228.085 16.6833 227.185 16.95C226.285 17.1833 225.501 17.5833 224.835 18.15C224.201 18.6833 223.701 19.4333 223.335 20.4C222.968 21.3333 222.785 22.5167 222.785 23.95V36H216.785ZM247.421 36.6C244.921 36.6 242.721 36.0667 240.821 35C238.921 33.9 237.437 32.3667 236.371 30.4C235.304 28.4333 234.771 26.1667 234.771 23.6C234.771 20.9333 235.287 18.6 236.321 16.6C237.387 14.6 238.871 13.0333 240.771 11.9C242.704 10.7667 244.937 10.2 247.471 10.2C249.937 10.2 252.087 10.75 253.921 11.85C255.754 12.95 257.171 14.4333 258.171 16.3C259.171 18.1333 259.671 20.2 259.671 22.5C259.671 22.8333 259.671 23.2 259.671 23.6C259.671 24 259.637 24.4167 259.571 24.85H239.071V21H253.621C253.554 19.1667 252.937 17.7333 251.771 16.7C250.604 15.6333 249.154 15.1 247.421 15.1C246.187 15.1 245.054 15.3833 244.021 15.95C242.987 16.5167 242.171 17.3667 241.571 18.5C240.971 19.6 240.671 21 240.671 22.7V24.15C240.671 25.7167 240.954 27.0667 241.521 28.2C242.121 29.3333 242.921 30.2 243.921 30.8C244.954 31.3667 246.104 31.65 247.371 31.65C248.771 31.65 249.921 31.35 250.821 30.75C251.754 30.15 252.437 29.35 252.871 28.35H258.971C258.504 29.9167 257.737 31.3333 256.671 32.6C255.604 33.8333 254.287 34.8167 252.721 35.55C251.154 36.25 249.387 36.6 247.421 36.6ZM276.66 36.6C274.194 36.6 271.977 36.05 270.01 34.95C268.077 33.8167 266.56 32.2667 265.46 30.3C264.394 28.3 263.86 26.0333 263.86 23.5C263.86 20.8667 264.394 18.5667 265.46 16.6C266.56 14.6 268.077 13.0333 270.01 11.9C271.977 10.7667 274.21 10.2 276.71 10.2C279.844 10.2 282.477 11.0333 284.61 12.7C286.744 14.3333 288.11 16.5833 288.71 19.45H282.41C282.077 18.1833 281.377 17.1833 280.31 16.45C279.277 15.7167 278.044 15.35 276.61 15.35C275.377 15.35 274.244 15.6667 273.21 16.3C272.21 16.9333 271.41 17.85 270.81 19.05C270.244 20.25 269.96 21.7 269.96 23.4C269.96 24.7 270.127 25.85 270.46 26.85C270.794 27.85 271.26 28.7 271.86 29.4C272.494 30.0667 273.21 30.5833 274.01 30.95C274.81 31.3167 275.677 31.5 276.61 31.5C277.577 31.5 278.444 31.35 279.21 31.05C280.01 30.7167 280.677 30.2333 281.21 29.6C281.777 28.9667 282.177 28.2167 282.41 27.35H288.71C288.11 30.15 286.744 32.4 284.61 34.1C282.477 35.7667 279.827 36.6 276.66 36.6ZM305.796 36.6C303.296 36.6 301.096 36.0667 299.196 35C297.296 33.9 295.812 32.3667 294.746 30.4C293.679 28.4333 293.146 26.1667 293.146 23.6C293.146 20.9333 293.662 18.6 294.696 16.6C295.762 14.6 297.246 13.0333 299.146 11.9C301.079 10.7667 303.312 10.2 305.846 10.2C308.312 10.2 310.462 10.75 312.296 11.85C314.129 12.95 315.546 14.4333 316.546 16.3C317.546 18.1333 318.046 20.2 318.046 22.5C318.046 22.8333 318.046 23.2 318.046 23.6C318.046 24 318.012 24.4167 317.946 24.85H297.446V21H311.996C311.929 19.1667 311.312 17.7333 310.146 16.7C308.979 15.6333 307.529 15.1 305.796 15.1C304.562 15.1 303.429 15.3833 302.396 15.95C301.362 16.5167 300.546 17.3667 299.946 18.5C299.346 19.6 299.046 21 299.046 22.7V24.15C299.046 25.7167 299.329 27.0667 299.896 28.2C300.496 29.3333 301.296 30.2 302.296 30.8C303.329 31.3667 304.479 31.65 305.746 31.65C307.146 31.65 308.296 31.35 309.196 30.75C310.129 30.15 310.812 29.35 311.246 28.35H317.346C316.879 29.9167 316.112 31.3333 315.046 32.6C313.979 33.8333 312.662 34.8167 311.096 35.55C309.529 36.25 307.762 36.6 305.796 36.6ZM323.085 36V10.8H328.385L328.885 14.25C329.685 12.9833 330.735 12 332.035 11.3C333.369 10.5667 334.885 10.2 336.585 10.2C337.852 10.2 338.985 10.3667 339.985 10.7C341.019 11.0333 341.919 11.5333 342.685 12.2C343.485 12.8667 344.135 13.7 344.635 14.7C345.569 13.3 346.785 12.2 348.285 11.4C349.785 10.6 351.419 10.2 353.185 10.2C355.285 10.2 357.069 10.6333 358.535 11.5C360.002 12.3333 361.119 13.5833 361.885 15.25C362.652 16.8833 363.035 18.9 363.035 21.3V36H357.085V21.9C357.085 19.7667 356.652 18.1333 355.785 17C354.919 15.8667 353.635 15.3 351.935 15.3C350.769 15.3 349.735 15.5833 348.835 16.15C347.969 16.7167 347.285 17.55 346.785 18.65C346.285 19.7167 346.035 21.0333 346.035 22.6V36H340.085V21.9C340.085 19.7667 339.652 18.1333 338.785 17C337.919 15.8667 336.619 15.3 334.885 15.3C333.785 15.3 332.785 15.5833 331.885 16.15C331.019 16.7167 330.335 17.55 329.835 18.65C329.335 19.7167 329.085 21.0333 329.085 22.6V36H323.085ZM380.624 36.6C378.224 36.6 376.058 36.05 374.124 34.95C372.224 33.8167 370.724 32.2667 369.624 30.3C368.558 28.3 368.024 26.0167 368.024 23.45C368.024 20.8167 368.574 18.5167 369.674 16.55C370.774 14.55 372.274 13 374.174 11.9C376.108 10.7667 378.274 10.2 380.674 10.2C383.074 10.2 385.224 10.7667 387.124 11.9C389.058 13 390.558 14.5333 391.624 16.5C392.724 18.4667 393.274 20.7667 393.274 23.4C393.274 26.0333 392.724 28.3333 391.624 30.3C390.524 32.2667 389.008 33.8167 387.074 34.95C385.174 36.05 383.024 36.6 380.624 36.6ZM380.624 31.45C381.824 31.45 382.908 31.15 383.874 30.55C384.874 29.95 385.674 29.05 386.274 27.85C386.874 26.65 387.174 25.1667 387.174 23.4C387.174 21.6333 386.874 20.1667 386.274 19C385.708 17.8 384.924 16.9 383.924 16.3C382.958 15.7 381.874 15.4 380.674 15.4C379.508 15.4 378.424 15.7 377.424 16.3C376.424 16.9 375.624 17.8 375.024 19C374.424 20.1667 374.124 21.6333 374.124 23.4C374.124 25.1667 374.424 26.65 375.024 27.85C375.624 29.05 376.408 29.95 377.374 30.55C378.374 31.15 379.458 31.45 380.624 31.45ZM408.698 36.6C406.465 36.6 404.515 36.25 402.848 35.55C401.215 34.8167 399.915 33.8167 398.948 32.55C398.015 31.25 397.465 29.7667 397.298 28.1H403.298C403.465 28.8 403.765 29.45 404.198 30.05C404.631 30.6167 405.215 31.0667 405.948 31.4C406.715 31.7333 407.615 31.9 408.648 31.9C409.648 31.9 410.465 31.7667 411.098 31.5C411.731 31.2 412.198 30.8167 412.498 30.35C412.798 29.8833 412.948 29.3833 412.948 28.85C412.948 28.05 412.731 27.4333 412.298 27C411.865 26.5667 411.231 26.2333 410.398 26C409.598 25.7333 408.631 25.4833 407.498 25.25C406.298 25.0167 405.131 24.7333 403.998 24.4C402.898 24.0333 401.898 23.5833 400.998 23.05C400.131 22.5167 399.431 21.8333 398.898 21C398.398 20.1667 398.148 19.15 398.148 17.95C398.148 16.4833 398.531 15.1667 399.298 14C400.098 12.8333 401.231 11.9167 402.698 11.25C404.198 10.55 405.981 10.2 408.048 10.2C410.981 10.2 413.315 10.8833 415.048 12.25C416.815 13.5833 417.848 15.4667 418.148 17.9H412.448C412.281 16.9667 411.815 16.25 411.048 15.75C410.281 15.2167 409.265 14.95 407.998 14.95C406.698 14.95 405.698 15.2 404.998 15.7C404.331 16.1667 403.998 16.8 403.998 17.6C403.998 18.1 404.198 18.5667 404.598 19C405.031 19.4 405.648 19.75 406.448 20.05C407.248 20.3167 408.231 20.5833 409.398 20.85C411.265 21.2167 412.915 21.65 414.348 22.15C415.781 22.65 416.915 23.3833 417.748 24.35C418.581 25.3167 418.998 26.6833 418.998 28.45C419.031 30.05 418.615 31.4667 417.748 32.7C416.915 33.9333 415.731 34.9 414.198 35.6C412.665 36.2667 410.831 36.6 408.698 36.6Z" fill="black"/>
</svg>
