<svg width="85" height="85" viewBox="0 0 85 85" fill="none" xmlns="http://www.w3.org/2000/svg">
<circle cx="42.5" cy="42.5" r="42.5" fill="#7FDED9"/>
<g clip-path="url(#clip0_2274_7431)">
<path d="M37.6939 30.0585C37.0609 32.4008 35.1796 33.8749 32.9921 33.8912C30.8047 33.9074 28.8006 32.4578 28.209 30.0683L20.8144 30.0536C20.1384 30.0536 19.6489 29.6106 19.6186 28.9883C19.5868 28.3254 20.0794 27.8058 20.8176 27.8058H28.1804C28.791 25.5385 30.6548 23.9927 32.863 23.9748C35.0823 23.9569 37.0609 25.4049 37.6811 27.8009H64.165C64.8968 27.8025 65.3193 28.2586 65.3624 28.8434C65.4118 29.5438 64.9526 30.0569 64.165 30.0569H37.6939V30.0585ZM35.6101 28.933C35.6101 27.4263 34.4143 26.2047 32.9395 26.2047C31.4647 26.2047 30.269 27.4263 30.269 28.933C30.269 30.4396 31.4647 31.6613 32.9395 31.6613C34.4143 31.6613 35.6101 30.4396 35.6101 28.933Z" fill="#076868"/>
<path d="M59.4025 43.0732C58.7584 45.3568 56.9249 46.8879 54.6944 46.914C52.4639 46.94 50.4661 45.3796 49.8778 43.0781L20.8414 43.0813C20.1111 43.0813 19.6599 42.6318 19.6296 42.0144C19.5962 41.3319 20.0537 40.8303 20.843 40.8303L49.8906 40.827C50.4916 38.4342 52.467 36.9748 54.6752 36.9943C56.9105 37.0139 58.7791 38.5531 59.3866 40.8254L64.1999 40.8286C64.8424 40.8286 65.3463 41.2668 65.3845 41.8727C65.4196 42.407 64.9859 43.0781 64.3562 43.0781L59.4025 43.0732ZM57.2963 41.9558C57.2963 40.4491 56.1006 39.2291 54.6274 39.2291C53.1542 39.2291 51.9584 40.4507 51.9584 41.9558C51.9584 43.4608 53.1542 44.6825 54.6274 44.6825C56.1006 44.6825 57.2963 43.4608 57.2963 41.9558Z" fill="#076868"/>
<path d="M44.5193 56.1073C43.9246 58.4268 42.0113 59.8976 39.8685 59.9367C37.6508 59.9758 35.6483 58.5212 35.052 56.1171L20.7012 56.0992C20.0857 56.0992 19.6457 55.547 19.617 55.0502C19.5851 54.4996 19.9901 53.8579 20.6756 53.8562L35.0169 53.8481C35.6243 51.584 37.4977 50.0301 39.7314 50.0138C41.9651 49.9975 43.915 51.4651 44.5177 53.8465L64.1729 53.8497C64.8712 53.8497 65.3543 54.2944 65.3814 54.8938C65.4133 55.5747 64.935 56.104 64.1713 56.104H44.5193V56.1073ZM42.4466 54.9785C42.4466 53.4718 41.2524 52.2518 39.7776 52.2518C38.3029 52.2518 37.1087 53.4718 37.1087 54.9785C37.1087 56.4852 38.3029 57.7052 39.7776 57.7052C41.2524 57.7052 42.4466 56.4852 42.4466 54.9785Z" fill="#076868"/>
</g>
<defs>
<clipPath id="clip0_2274_7431">
<rect width="45.7692" height="35.9615" fill="white" transform="translate(19.6152 23.9746)"/>
</clipPath>
</defs>
</svg>
