<svg width="60" height="50" viewBox="0 0 60 50" fill="none" xmlns="http://www.w3.org/2000/svg">
<path d="M0.994 49V39.2H2.982L6.118 45.528L9.226 39.2H11.228V49H9.548V42.084L6.776 47.628H5.46L2.674 42.098V49H0.994ZM16.3107 49.168C15.6387 49.168 15.032 49.014 14.4907 48.706C13.9587 48.3887 13.5387 47.9547 13.2307 47.404C12.932 46.844 12.7827 46.2047 12.7827 45.486C12.7827 44.7487 12.9367 44.1047 13.2447 43.554C13.5527 42.994 13.9727 42.56 14.5047 42.252C15.046 41.9347 15.6527 41.776 16.3247 41.776C16.9967 41.776 17.5987 41.9347 18.1307 42.252C18.672 42.56 19.092 42.9893 19.3907 43.54C19.6987 44.0907 19.8527 44.7347 19.8527 45.472C19.8527 46.2093 19.6987 46.8533 19.3907 47.404C19.0827 47.9547 18.658 48.3887 18.1167 48.706C17.5847 49.014 16.9827 49.168 16.3107 49.168ZM16.3107 47.726C16.6467 47.726 16.95 47.642 17.2207 47.474C17.5007 47.306 17.7247 47.054 17.8927 46.718C18.0607 46.382 18.1447 45.9667 18.1447 45.472C18.1447 44.9773 18.0607 44.5667 17.8927 44.24C17.734 43.904 17.5147 43.652 17.2347 43.484C16.964 43.316 16.6607 43.232 16.3247 43.232C15.998 43.232 15.6947 43.316 15.4147 43.484C15.1347 43.652 14.9107 43.904 14.7427 44.24C14.5747 44.5667 14.4907 44.9773 14.4907 45.472C14.4907 45.9667 14.5747 46.382 14.7427 46.718C14.9107 47.054 15.13 47.306 15.4007 47.474C15.6807 47.642 15.984 47.726 16.3107 47.726ZM24.7032 49.168C24.0126 49.168 23.3919 49.014 22.8412 48.706C22.2999 48.3887 21.8752 47.9547 21.5672 47.404C21.2686 46.844 21.1192 46.2093 21.1192 45.5C21.1192 44.7627 21.2686 44.1187 21.5672 43.568C21.8752 43.008 22.2999 42.5693 22.8412 42.252C23.3919 41.9347 24.0172 41.776 24.7172 41.776C25.5946 41.776 26.3319 42.0093 26.9292 42.476C27.5266 42.9333 27.9092 43.5633 28.0772 44.366H26.3132C26.2199 44.0113 26.0239 43.7313 25.7252 43.526C25.4359 43.3207 25.0906 43.218 24.6892 43.218C24.3439 43.218 24.0266 43.3067 23.7372 43.484C23.4572 43.6613 23.2332 43.918 23.0652 44.254C22.9066 44.59 22.8272 44.996 22.8272 45.472C22.8272 45.836 22.8739 46.158 22.9672 46.438C23.0606 46.718 23.1912 46.956 23.3592 47.152C23.5366 47.3387 23.7372 47.4833 23.9612 47.586C24.1852 47.6887 24.4279 47.74 24.6892 47.74C24.9599 47.74 25.2026 47.698 25.4172 47.614C25.6412 47.5207 25.8279 47.3853 25.9772 47.208C26.1359 47.0307 26.2479 46.8207 26.3132 46.578H28.0772C27.9092 47.362 27.5266 47.992 26.9292 48.468C26.3319 48.9347 25.5899 49.168 24.7032 49.168ZM29.5571 49V38.92H31.2371V43.036C31.4704 42.6533 31.7877 42.35 32.1891 42.126C32.5904 41.8927 33.0431 41.776 33.5471 41.776C34.1257 41.776 34.6157 41.8973 35.0171 42.14C35.4184 42.3733 35.7217 42.7233 35.9271 43.19C36.1417 43.6473 36.2491 44.2213 36.2491 44.912V49H34.5831V45.066C34.5831 44.4593 34.4524 43.9973 34.1911 43.68C33.9391 43.3627 33.5517 43.204 33.0291 43.204C32.6931 43.204 32.3897 43.288 32.1191 43.456C31.8484 43.6147 31.6337 43.848 31.4751 44.156C31.3164 44.4547 31.2371 44.8233 31.2371 45.262V49H29.5571ZM37.9636 49V41.944H39.6436V49H37.9636ZM38.8036 40.824C38.4956 40.824 38.239 40.7307 38.0336 40.544C37.8376 40.348 37.7396 40.11 37.7396 39.83C37.7396 39.5407 37.8376 39.3073 38.0336 39.13C38.239 38.9433 38.4956 38.85 38.8036 38.85C39.1116 38.85 39.3636 38.9433 39.5596 39.13C39.765 39.3073 39.8676 39.5407 39.8676 39.83C39.8676 40.11 39.765 40.348 39.5596 40.544C39.3636 40.7307 39.1116 40.824 38.8036 40.824ZM41.445 49V38.92H43.125V49H41.445ZM47.2117 49.168C46.6331 49.168 46.1524 49.07 45.7697 48.874C45.3871 48.678 45.1024 48.4167 44.9157 48.09C44.7291 47.7633 44.6357 47.4087 44.6357 47.026C44.6357 46.578 44.7477 46.1907 44.9717 45.864C45.2051 45.5373 45.5457 45.2853 45.9937 45.108C46.4417 44.9213 46.9924 44.828 47.6457 44.828H49.4237C49.4237 44.4547 49.3724 44.1467 49.2697 43.904C49.1671 43.652 49.0084 43.4653 48.7937 43.344C48.5791 43.2227 48.3037 43.162 47.9677 43.162C47.5851 43.162 47.2584 43.2507 46.9877 43.428C46.7171 43.596 46.5491 43.8573 46.4837 44.212H44.8317C44.8877 43.708 45.0557 43.2787 45.3357 42.924C45.6157 42.56 45.9844 42.28 46.4417 42.084C46.9084 41.8787 47.4171 41.776 47.9677 41.776C48.6304 41.776 49.1951 41.8927 49.6617 42.126C50.1284 42.35 50.4831 42.6767 50.7257 43.106C50.9777 43.526 51.1037 44.0347 51.1037 44.632V49H49.6757L49.5077 47.866C49.4144 48.0527 49.2931 48.2253 49.1437 48.384C49.0037 48.5427 48.8404 48.6827 48.6537 48.804C48.4671 48.916 48.2524 49.0047 48.0097 49.07C47.7764 49.1353 47.5104 49.168 47.2117 49.168ZM47.5897 47.838C47.8604 47.838 48.0984 47.7913 48.3037 47.698C48.5184 47.5953 48.7004 47.4553 48.8497 47.278C49.0084 47.0913 49.1297 46.886 49.2137 46.662C49.2977 46.438 49.3537 46.2 49.3817 45.948V45.92H47.8277C47.5011 45.92 47.2304 45.962 47.0157 46.046C46.8011 46.1207 46.6471 46.2327 46.5537 46.382C46.4604 46.5313 46.4137 46.704 46.4137 46.9C46.4137 47.096 46.4604 47.264 46.5537 47.404C46.6471 47.544 46.7824 47.6513 46.9597 47.726C47.1371 47.8007 47.3471 47.838 47.5897 47.838ZM55.5728 49.168C54.9474 49.168 54.4014 49.07 53.9348 48.874C53.4774 48.6687 53.1134 48.3887 52.8428 48.034C52.5814 47.67 52.4274 47.2547 52.3808 46.788H54.0608C54.1074 46.984 54.1914 47.166 54.3128 47.334C54.4341 47.4927 54.5974 47.6187 54.8028 47.712C55.0174 47.8053 55.2694 47.852 55.5588 47.852C55.8388 47.852 56.0674 47.8147 56.2448 47.74C56.4221 47.656 56.5528 47.5487 56.6368 47.418C56.7208 47.2873 56.7628 47.1473 56.7628 46.998C56.7628 46.774 56.7021 46.6013 56.5808 46.48C56.4594 46.3587 56.2821 46.2653 56.0488 46.2C55.8248 46.1253 55.5541 46.0553 55.2368 45.99C54.9008 45.9247 54.5741 45.8453 54.2568 45.752C53.9488 45.6493 53.6688 45.5233 53.4168 45.374C53.1741 45.2247 52.9781 45.0333 52.8288 44.8C52.6888 44.5667 52.6188 44.282 52.6188 43.946C52.6188 43.5353 52.7261 43.1667 52.9408 42.84C53.1648 42.5133 53.4821 42.2567 53.8928 42.07C54.3128 41.874 54.8121 41.776 55.3908 41.776C56.2121 41.776 56.8654 41.9673 57.3508 42.35C57.8454 42.7233 58.1348 43.2507 58.2188 43.932H56.6228C56.5761 43.6707 56.4454 43.47 56.2308 43.33C56.0161 43.1807 55.7314 43.106 55.3768 43.106C55.0128 43.106 54.7328 43.176 54.5368 43.316C54.3501 43.4467 54.2568 43.624 54.2568 43.848C54.2568 43.988 54.3128 44.1187 54.4248 44.24C54.5461 44.352 54.7188 44.45 54.9428 44.534C55.1668 44.6087 55.4421 44.6833 55.7688 44.758C56.2914 44.8607 56.7534 44.982 57.1548 45.122C57.5561 45.262 57.8734 45.4673 58.1068 45.738C58.3401 46.0087 58.4568 46.3913 58.4568 46.886C58.4661 47.334 58.3494 47.7307 58.1068 48.076C57.8734 48.4213 57.5421 48.692 57.1128 48.888C56.6834 49.0747 56.1701 49.168 55.5728 49.168Z" fill="black"/>
<g clip-path="url(#clip0_2036_8945)">
<path d="M35.869 21.9893L24.1874 21.9999C22.8556 21.9999 21.9183 21.0529 21.5885 19.8072C20.2504 19.965 19.0125 19.0855 19.0104 17.7177L19 14.2814C18.9979 13.5008 19.6847 12.9284 20.4153 12.9263H21.5488L21.6073 9.03763C21.6511 6.06011 24.154 3.91377 27.0159 3.56867C26.7801 1.56121 28.2183 -0.0296063 30.047 -0.000146686C31.9007 0.0293129 33.2116 1.64538 32.9945 3.59182C35.8898 3.89483 38.3593 6.11903 38.3927 9.03553L38.4366 12.9158L39.5826 12.9305C40.3216 12.9389 41.0021 13.4902 41 14.2857L40.9917 17.7219C40.9875 19.0876 39.7475 19.9629 38.4115 19.8135C38.0838 21.0024 37.2112 21.9914 35.869 21.9914V21.9893ZM31.6042 3.58551C31.8005 2.88689 31.5583 2.10411 30.9989 1.67063C30.4394 1.23716 29.5669 1.23084 28.9991 1.67063C28.4313 2.11042 28.1975 2.88689 28.3958 3.58551H31.6021H31.6042ZM32.4705 12.5118C33.6458 12.5139 34.7021 13.6481 34.7062 14.7823L34.7313 20.6237L35.656 20.6763C36.18 20.7057 37.0609 20.308 37.0588 19.6178L37.038 9.13022C37.0338 6.95653 35.0507 5.06901 32.9402 4.97432C30.8298 4.87962 29.1723 4.90277 27.1704 4.96379C25.0182 5.02903 22.9683 6.8955 22.9641 9.12601L22.9454 19.6157C22.9454 20.3627 23.8972 20.7226 24.4504 20.6784L25.2729 20.6153L25.3146 14.6834C25.323 13.5239 26.4815 12.4991 27.5942 12.5012L32.4726 12.5118H32.4705ZM33.4141 16.554V15.0116C33.4141 14.334 32.8296 13.7954 32.1658 13.7954H27.8363C27.1746 13.7954 26.5817 14.3425 26.5859 15.0116L26.5964 16.5519H33.412L33.4141 16.554ZM21.5718 18.3763L21.5676 14.3067L20.3276 14.2878L20.361 17.8355C20.3652 18.3784 21.2211 18.6373 21.5739 18.3784L21.5718 18.3763ZM39.6536 17.7956L39.6765 14.2857L38.4303 14.292L38.4366 18.389C38.7977 18.6267 39.6494 18.3721 39.6536 17.7934V17.7956ZM33.4245 17.9281H26.5755V20.6658H33.4245V17.9281Z" fill="black"/>
<path d="M33.1176 9.11361L26.924 9.12833C26.5733 9.02102 26.2957 8.78113 26.2957 8.46129C26.2957 8.10567 26.5879 7.77319 26.9783 7.77319L33.128 7.7774C33.4182 7.7774 33.677 8.14986 33.7167 8.37922C33.7563 8.60858 33.4975 9.1115 33.1176 9.1115V9.11361Z" fill="black"/>
</g>
<defs>
<clipPath id="clip0_2036_8945">
<rect width="22" height="22" fill="white" transform="translate(19)"/>
</clipPath>
</defs>
</svg>
